/* XPM */
static const char *ACdisabled_64[] = {
/* columns rows colors chars-per-pixel */
"64 64 18 1 ",
"  c #58585A",
". c #625F58",
"X c #6B6656",
"o c #756D54",
"O c #7E7452",
"+ c #887B50",
"@ c #DDBB3F",
"# c #E7C23D",
"$ c #F0C93B",
"% c #91824E",
"& c #9B894C",
"* c #A4914B",
"= c #AE9849",
"- c #B79F47",
"; c #C1A645",
": c #CAAD43",
"> c #D4B441",
", c None",
/* pixels */
",,,,,,,,,,,,,,,,,,,,,,,,,,,,,,,,,,,,,,,,,,,,,,,,,,,,,,,,,,,,,,,,",
",,,,,,,,,,,,,,,,,,,,,,,,,,,,,,,,,,,,,,,,,,,,,,,,,,,,,,,,,,,,,,,,",
",,,,,,,,,,,,,,,,,,,,,,,,,,,,,,,,,,,,,,,,,,,,,,,,,,,,,,,,,,,,,,,,",
",,,,,,,,,,,,,,,,,,,,,,,,,,,,,,,,,,,,,,,,,,,,,,,,,,,,,,,,,,,,,,,,",
",,,,,,,,,,,,,,,,,,,,,,,,,,,,,,,,,,,,,,,,,,,,,,,,,,,,,,,,,,,,,,,,",
",,,,,,,,,,,,,,,,,,,,,,,,,,,,,,,,,,,,,,,,,,,,,,,,,,,,,,,,,,,,,,,,",
",,,,,,,,,,,,,,,,,,,,,,,,,,,,,,,,,,,,,,,,,,,,,,,,,,,,,,,,,,,,,,,,",
",,,,,,,$$$$$$$$$$$$$$$$$,,,,,,,,,,,,,,,,,$$$$$$$$$$$$$,,,,,,,,,,",
",,,,,,,$$$$$$$$$$$$$$$$$=,,,,,,,,,,,,,,$$$$$$$$$$$$$$$$$,,,,,,,,",
",,,,,,$$$$$$$$$$$$$$$$$$: ,,,,,,,,,,,,$$$$$$$$$$$$$$$$$$$,,,,,,,",
",,,,,,$$$$$$$$$$$$$$$$$$@ ,,,,,,,,,,$$$$$$$$$$$$$$$$$$$$$$,,,,,,",
",,,,,,$$$$$$$$$$$$$$$$$$$ ,,,,,,,,,,$$$$$$$$$$$$$$$$$$$$$$$,,,,,",
",,,,,,$$$$$$$$$$$$$$$$$$$o,,,,,,,,,$$$$$$$$$$$$$$$$$$$$$$$$$,,,,",
",,,,,,$$$$$$$$$$$$$$$$$$$+ ,,,,,,,$$$$$$$$$$$$$$$$$$$$$$$$$$$,,,",
",,,,,,$$$$$$$$$$$$$$$$$$$* ,,,,,,,$$$$$$$$$$$$-*;$$$$$$$$$$$$+,,",
",,,,,,$$$$$$$$$$$$$$$$$$$- ,,,,,,,$$$$$$$$$$$:   >$$$$$$$$$$$*,,",
",,,,,$$$$$$$$$$$$$$$$$$$$: ,,,,,,$$$$$$$$$$$$*  ,,$$$$$$$$$$$: ,",
",,,,,$$$$$$$$$$$$$$$$$$$$# ,,,,,,$$$$$$$$$$$$+ ,,,$$$$$$$$$$$> ,",
",,,,,$$$$$$$$$$$$$$$$$$$$$.,,,,,,$$$$$$$$$$$$O ,,,$$$$$$$$$$$$ ,",
",,,,,$$$$$$$$$$$$$$$$$$$$$O,,,,,,$$$$$$$$$$$$O ,,,$$$$$$$$$$$$ ,",
",,,,,$$$$$$$$$$-$$$$$$$$$$% ,,,,,$$$$$$$$$$$$O ,,,$$$$$$$$$$$$  ",
",,,,,$$$$$$$$$$*$$$$$$$$$$* ,,,,,$$$$$$$$$$$$O ,,,$$$$$$$$$$$$  ",
",,,,,$$$$$$$$$$O$$$$$$$$$$; ,,,,,$$$$$$$$$$$$O ,,,$$$$$$$$$$$$O ",
",,,,,$$$$$$$$$$O>$$$$$$$$$: ,,,,,$$$$$$$$$$$$O ,,,$$$$$$$$$$$$O ",
",,,,$$$$$$$$$$$ :$$$$$$$$$$ ,,,,,$$$$$$$$$$$$O ,,,$$$$$$$$$$$$O ",
",,,,$$$$$$$$$$$ :$$$$$$$$$$X,,,,,$$$$$$$$$$$$O ,,,$$$$$$$$$$$$O ",
",,,,$$$$$$$$$$: *$$$$$$$$$$O,,,,,$$$$$$$$$$$$O ,,,$$$$$$$$$$$$O ",
",,,,$$$$$$$$$$: *$$$$$$$$$$& ,,,,$$$$$$$$$$$$O ,,,$$$$$$$$$$$$O ",
",,,,$$$$$$$$$$* &$$$$$$$$$$* ,,,,$$$$$$$$$$$$O ,,,,             ",
",,,,$$$$$$$$$$* ,$$$$$$$$$$: ,,,,$$$$$$$$$$$$O ,,,,,            ",
",,,,$$$$$$$$$$O ,$$$$$$$$$$> ,,,,$$$$$$$$$$$$O ,,,,,,,,,,,,,,,,,",
",,,$$$$$$$$$$$O ,$$$$$$$$$$$ ,,,,$$$$$$$$$$$$O ,,,,,,,,,,,,,,,,,",
",,,$$$$$$$$$$$. ,$$$$$$$$$$$o,,,,$$$$$$$$$$$$O ,,,,,,,,,,,,,,,,,",
",,,$$$$$$$$$$$  ,,$$$$$$$$$$O ,,,$$$$$$$$$$$$O ,,,,,,,,,,,,,,,,,",
",,,$$$$$$$$$$@  ,,$$$$$$$$$$* ,,,$$$$$$$$$$$$O ,,,,,,,,,,,,,,,,,",
",,,$$$$$$$$$$:  ,,$$$$$$$$$$= ,,,$$$$$$$$$$$$O ,,,,,,,,,,,,,,,,,",
",,,$$$$$$$$$$: ,,,$$$$$$$$$$: ,,,$$$$$$$$$$$$O ,,,$$$$$$$$$$$$,,",
",,,$$$$$$$$$$;O,,,$$$$$$$$$$# ,,,$$$$$$$$$$$$O ,,,$$$$$$$$$$$$O,",
",,,$$$$$$$$$$$$$$$$$$$$$$$$$$ ,,,$$$$$$$$$$$$O ,,,$$$$$$$$$$$$O ",
",,$$$$$$$$$$$$$$$$$$$$$$$$$$$O,,,$$$$$$$$$$$$O ,,,$$$$$$$$$$$$. ",
",,$$$$$$$$$$$$$$$$$$$$$$$$$$$+ ,,$$$$$$$$$$$$O ,,,$$$$$$$$$$$$  ",
",,$$$$$$$$$$$$$$$$$$$$$$$$$$$* ,,$$$$$$$$$$$$O ,,,$$$$$$$$$$$$  ",
",,$$$$$$$$$$$$$$$$$$$$$$$$$$$- ,,$$$$$$$$$$$$O ,,,$$$$$$$$$$$$  ",
",,$$$$$$$$$$$$$$$$$$$$$$$$$$$: ,,$$$$$$$$$$$$O ,,,$$$$$$$$$$$$  ",
",,$$$$$$$$$$$$$$$$$$$$$$$$$$$$ ,,$$$$$$$$$$$$+ ,,,$$$$$$$$$$$:  ",
",,$$$$$$$$$$$$$$$$$$$$$$$$$$$$.,,,$$$$$$$$$$$* ,,,$$$$$$$$$$$: ,",
",$$$$$$$$$$$$@****$$$$$$$$$$$$O,,,$$$$$$$$$$$; ,,,$$$$$$$$$$$* ,",
",$$$$$$$$$$$$-    $$$$$$$$$$$$% ,,$$$$$$$$$$$$-,,$$$$$$$$$$$$+ ,",
",$$$$$$$$$$$$* ,,,$$$$$$$$$$$$* ,,$$$$$$$$$$$$$$$$$$$$$$$$$$#  ,",
",$$$$$$$$$$$$* ,,,,$$$$$$$$$$$; ,,,$$$$$$$$$$$$$$$$$$$$$$$$$*  ,",
",$$$$$$$$$$$$% ,,,,$$$$$$$$$$$> ,,,$$$$$$$$$$$$$$$$$$$$$$$$>. ,,",
",$$$$$$$$$$$$O ,,,,$$$$$$$$$$$$ ,,,,$$$$$$$$$$$$$$$$$$$$$$#o  ,,",
",$$$$$$$$$$$$O ,,,,$$$$$$$$$$$$X,,,,,$$$$$$$$$$$$$$$$$$$$>X  ,,,",
",$$$$$$$$$$$$. ,,,,$$$$$$$$$$$$O ,,,,,#$$$$$$$$$$$$$$$$$=.  ,,,,",
"$$$$$$$$$$$$$  ,,,,$$$$$$$$$$$$& ,,,,,,&@$$$$$$$$$$$$$-X   ,,,,,",
",              ,,,,,             ,,,,,,,,o&-:>$$$>:=+.    ,,,,,,",
",,             ,,,,,,            ,,,,,,,,,,            ,,,,,,,,,",
",,,,,,,,,,,,,,,,,,,,,,,,,,,,,,,,,,,,,,,,,,,,,,,,, ,,,,,,,,,,,,,,",
",,,,,,,,,,,,,,,,,,,,,,,,,,,,,,,,,,,,,,,,,,,,,,,,,,,,,,,,,,,,,,,,",
",,,,,,,,,,,,,,,,,,,,,,,,,,,,,,,,,,,,,,,,,,,,,,,,,,,,,,,,,,,,,,,,",
",,,,,,,,,,,,,,,,,,,,,,,,,,,,,,,,,,,,,,,,,,,,,,,,,,,,,,,,,,,,,,,,",
",,,,,,,,,,,,,,,,,,,,,,,,,,,,,,,,,,,,,,,,,,,,,,,,,,,,,,,,,,,,,,,,",
",,,,,,,,,,,,,,,,,,,,,,,,,,,,,,,,,,,,,,,,,,,,,,,,,,,,,,,,,,,,,,,,",
",,,,,,,,,,,,,,,,,,,,,,,,,,,,,,,,,,,,,,,,,,,,,,,,,,,,,,,,,,,,,,,,"
};
