/* XPM */
static const char *ACdisabled_24[] = {
/* columns rows colors chars-per-pixel */
"24 24 16 1 ",
"  c #625F58",
". c #6B6656",
"X c #756D54",
"o c #7E7452",
"O c #DDBB3F",
"+ c #E7C23D",
"@ c #F0C93B",
"# c #91824E",
"$ c #9B894C",
"% c #A4914B",
"& c #AE9849",
"* c #B79F47",
"= c #C1A645",
"- c #CAAD43",
"; c #D4B441",
": c None",
/* pixels */
"::::::::::::::::::::::::",
"::::::::::::::::::::::::",
"::::::::::::::::::::::::",
":::@@@@@@::::::@@@@@@:::",
"::@@@@@@@%:::@@@@@@@@@::",
"::@@@@@@@=:::@@@@=O@@@@:",
"::@@@@@@@-:::@@@@::@@@@:",
"::@@@@@@@@:::@@@@::@@@@o",
"::@@@-@@@@:::@@@@::@@@@o",
"::@@@-@@@@:::@@@@::@@@@o",
"::@@@%O@@@#::@@@@::%%%%.",
"::@@@%-@@@%::@@@@:::::::",
":@@@@o:@@@-::@@@@:::::::",
":@@@@o:@@@;::@@@@:::::::",
":@@@@@@@@@@::@@@@::@@@@o",
":@@@@@@@@@@::@@@@::@@@@o",
":@@@@@@@@@@::@@@@::@@@@o",
":@@@@**@@@@$:@@@@::@@@@.",
":@@@@.:@@@@&:@@@@@@@@@;:",
"@@@@@::@@@@-::@@@@@@@+X:",
"-----::----&:::-@@@O& ::",
"::::::::::::::::::::::::",
"::::::::::::::::::::::::",
"::::::::::::::::::::::::"
};
