/* XPM */
static const char *ACenabled_48[] = {
/* columns rows colors chars-per-pixel */
"48 48 24 1 ",
"  c #58585A",
". c #625F58",
"X c #6B6656",
"o c #756D54",
"O c #766F54",
"+ c #7E7452",
"@ c #877B50",
"# c #887B50",
"$ c #DDBB3F",
"% c #E7C23D",
"& c #F0C93B",
"* c #91824E",
"= c #9B894C",
"- c #9C8A4C",
"; c #A4914B",
": c #AB9649",
"> c #AE9849",
", c #B79F47",
"< c #BDA345",
"1 c #C1A645",
"2 c #CAAD43",
"3 c #D2B241",
"4 c #D4B441",
"5 c None",
/* pixels */
"555555555555555555555555555555555555555555555555",
"555555555555555555555555555555555555555555555555",
"555555555555555555555555555555555555555555555555",
"555555555555555555555555555555555555555555555555",
"5555555555555555555555555555555555&&&55555555555",
"55555&&&&&&&&&&&&&-55555555555&&&&&&&&&&&5555555",
"5555&&&&&&&&&&&&&&; 55555555&&&&&&&&&&&&&&&55555",
"5555&&&&&&&&&&&&&&1 5555555&&&&&&&&&&&&&&&&&5555",
"5555&&&&&&&&&&&&&&2 555555&&&&&&&&&&&&&&&&&&&555",
"5555&&&&&&&&&&&&&&& 555555&&&&&&&&&&&&&&&&&&&<55",
"5555&&&&&&&&&&&&&&&.55555&&&&&&&&&&4&&&&&&&&&% 5",
"5555&&&&&&&&&&&&&&&+ 5555&&&&&&&&&- o&&&&&&&&&+5",
"5555&&&&&&&&&&&&&&&= 5555&&&&&&&&&X  &&&&&&&&&* ",
"555&&&&&&&&&&&&&&&&; 5555&&&&&&&&&  5&&&&&&&&&; ",
"555&&&&&&&&&&&&&&&&2 555&&&&&&&&&&  5&&&&&&&&&; ",
"555&&&&&&&&4&&&&&&&4 555&&&&&&&&&&  5&&&&&&&&&1 ",
"555&&&&&&&&>&&&&&&&& 555&&&&&&&&&&  5&&&&&&&&&2 ",
"555&&&&&&&&;&&&&&&&&X555&&&&&&&&&&  5&&&&&&&&&2 ",
"555&&&&&&&&+4&&&&&&&+ 55&&&&&&&&&&  5&&&&&&&&&2 ",
"555&&&&&&&&+2&&&&&&&; 55&&&&&&&&&&  5&&&&&&&&&2 ",
"555&&&&&&&& 2&&&&&&&> 55&&&&&&&&&&  5&&&&&&&&&2 ",
"55&&&&&&&&& ;&&&&&&&2 55&&&&&&&&&&  55          ",
"55&&&&&&&&2 ;&&&&&&&$ 55&&&&&&&&&&  555         ",
"55&&&&&&&&2 :&&&&&&&& 55&&&&&&&&&&  555555555555",
"55&&&&&&&&> ;&&&&&&&&o55&&&&&&&&&&  555555555555",
"55&&&&&&&&; 5&&&&&&&&# 5&&&&&&&&&&  555555555555",
"55&&&&&&&&* 5&&&&&&&&; 5&&&&&&&&&&  555555555555",
"55&&&&&&&&+ 5&&&&&&&&, 5&&&&&&&&&&  5&&&&&&&&&25",
"5&&&&&&&&&43&&&&&&&&&2 5&&&&&&&&&&  5&&&&&&&&&2 ",
"5&&&&&&&&&&&&&&&&&&&&% 5&&&&&&&&&&  5&&&&&&&&&2 ",
"5&&&&&&&&&&&&&&&&&&&&&.5&&&&&&&&&&  5&&&&&&&&&2 ",
"5&&&&&&&&&&&&&&&&&&&&&+ &&&&&&&&&&  5&&&&&&&&&; ",
"5&&&&&&&&&&&&&&&&&&&&&* 5&&&&&&&&&  5&&&&&&&&&; ",
"5&&&&&&&&&&&&&&&&&&&&&; 5&&&&&&&&&  5&&&&&&&&&; ",
"5&&&&&&&&&422$&&&&&&&&1 5&&&&&&&&&+ 5&&&&&&&&&+ ",
"5&&&&&&&&&+  ;&&&&&&&&2 5&&&&&&&&&4;&&&&&&&&&&X ",
"&&&&&&&&&&+ 53&&&&&&&&& 5&&&&&&&&&&&&&&&&&&&&2  ",
"&&&&&&&&&&  55&&&&&&&&&X55&&&&&&&&&&&&&&&&&&&+ 5",
"&&&&&&&&&&  55&&&&&&&&&+ 5&&&&&&&&&&&&&&&&&&;  5",
"&&&&&&&&&&  55&&&&&&&&&- 55&&&&&&&&&&&&&&&&=  55",
"&&&&&&&&&2  55&&&&&&&&&; 555;$&&&&&&&&&&&2o  555",
"@++++++++o 555@++++++++o 5555 o>34&&&%2>o   5555",
"5          5555          555555           555555",
"555555555555555555555555555555555555   555555555",
"555555555555555555555555555555555555555555555555",
"555555555555555555555555555555555555555555555555",
"555555555555555555555555555555555555555555555555",
"555555555555555555555555555555555555555555555555"
};
