/* XPM */
static const char *ACfill_48[] = {
/* columns rows colors chars-per-pixel */
"48 48 144 2 ",
"   c #3D747A",
".  c #58585A",
"X  c #535D60",
"o  c #535E60",
"O  c #4D6367",
"+  c #426E73",
"@  c #377980",
"#  c #367A81",
"$  c #327F86",
"%  c #1F919B",
"&  c #1C959F",
"*  c #2C848D",
"=  c #278A93",
"-  c #218E99",
";  c #218F99",
":  c #228E99",
">  c #238E99",
",  c #258D99",
"<  c #268D99",
"1  c #278D99",
"2  c #248E99",
"3  c #288D99",
"4  c #298D99",
"5  c #308995",
"6  c #24919E",
"7  c #1C95A0",
"8  c #169AA6",
"9  c #169BA6",
"0  c #1C9CAB",
"q  c #2299A9",
"w  c #229BAD",
"e  c #11A0AC",
"r  c #0BA5B2",
"t  c #06AAB9",
"y  c #06ABB9",
"u  c #00AFBE",
"i  c #00AFBF",
"p  c #01AFBF",
"a  c #03AEBE",
"s  c #02AEBF",
"d  c #03AEBF",
"f  c #06ADBE",
"g  c #07ADBE",
"h  c #05AEBE",
"j  c #06AEBF",
"k  c #0DABBD",
"l  c #0FABBE",
"z  c #08ADBE",
"x  c #09ADBE",
"c  c #0AACBE",
"v  c #0BACBE",
"b  c #0CACBE",
"n  c #0DACBE",
"m  c #0EACBE",
"M  c #1AA7BC",
"N  c #1BA7BC",
"B  c #1CA7BC",
"V  c #1EA7BC",
"C  c #1EA7BD",
"Z  c #11AABD",
"A  c #10ABBD",
"S  c #11ABBD",
"D  c #13AABD",
"F  c #11AABE",
"G  c #12ABBE",
"H  c #13ABBE",
"J  c #16A8BC",
"K  c #17A8BC",
"L  c #17A8BD",
"P  c #16A9BD",
"I  c #15AABD",
"U  c #19A8BD",
"Y  c #00B0BF",
"T  c #00B1C0",
"R  c #13B3C2",
"E  c #12B3C3",
"W  c #10B4C2",
"Q  c #10B4C3",
"!  c #1DB1C2",
"~  c #22AFC1",
"^  c #20AFC2",
"/  c #25ADC0",
"(  c #24AEC1",
")  c #25AEC1",
"_  c #24AFC1",
"`  c #20B0C1",
"'  c #21B0C2",
"]  c #33B4C5",
"[  c #3ABBCA",
"{  c #3BBBCA",
"}  c #3CBBCA",
"|  c #40BAC9",
" . c #51BECD",
".. c #50BFCE",
"X. c #40C3CF",
"o. c #48C1CE",
"O. c #58C6D2",
"+. c #59C6D2",
"@. c #67CBD6",
"#. c #68CBD6",
"$. c #6ACAD6",
"%. c #6BCAD6",
"&. c #6DC9D6",
"*. c #6CCAD6",
"=. c #6DCAD6",
"-. c #7BCFDA",
";. c #80D7DF",
":. c #81D7DF",
">. c #82D6DF",
",. c #83D6DF",
"<. c #82D7DF",
"1. c #86D5DE",
"2. c #87D5DE",
"3. c #86D5DF",
"4. c #87D5DF",
"5. c #84D6DF",
"6. c #85D6DF",
"7. c #86D6DF",
"8. c #88D5DE",
"9. c #89D5DE",
"0. c #8AD4DE",
"q. c #8BD4DE",
"w. c #8AD5DE",
"e. c #94DBE3",
"r. c #99D9E2",
"t. c #A6DFE7",
"y. c #A8DFE6",
"u. c #A1E1E7",
"i. c #A2E0E7",
"p. c #A3E0E7",
"a. c #A4E0E7",
"s. c #B3E5EB",
"d. c #B1E6EB",
"f. c #B5E4EA",
"g. c #B7E4EA",
"h. c #C3EAEF",
"j. c #C5E9EE",
"k. c #D2EFF3",
"l. c #D3EFF3",
"z. c #CFF0F3",
"x. c #D0F0F3",
"c. c #F0FAFB",
"v. c white",
"b. c None",
/* pixels */
"b.b.b.b.b.b.w K K K K b.b.b.b.b.b.b.b.b.b.b.b.b.b.b.b.b.b.b.b.b.b.b.b.b.b.b.b.b.b.b.b.b.b.b.b.b.",
"b.b.b.b.b.U K K K K R J q b.b.b.b.b.b.b.b.b.b.b.b.b.b.b.b.b.b.b.b.b.b.b.b.b.b.b.b.b.b.b.b.b.b.b.",
"b.b.b.b.b.U K K ..] K K K 5 b.b.b.b.b.b.b.b.b.b.b.b.b.b.b.b.b.b.b.b.b.b.b.b.b.b.b.b.b.b.b.b.b.b.",
"b.b.b.b.M U K g.v.v.$.K K H b.b.b.b.b.b.b.b.b.b.b.b.b.b.b.b.b.b.b.b.b.b.b.b.b.b.b.b.b.b.b.b.b.b.",
"b.b.b.b.M U K j.v.v.v.=.H K H b.b.b.b.b.b.b.b.b.b.b.b.b.b.b.b.b.b.b.b.b.b.b.b.b.b.b.b.b.b.b.b.b.",
"b.b.b.b.M U K r.v.v.v.v.=.K H H b.b.b.b.b.l n b.b.b.b.b.b.b.b.b.b.b.b.b.b.b.b.b.b.b.b.b.b.b.b.b.",
"b.b.b.b.b.M ! J a.v.v.v.v.=.H H H b.b.b.n l c n b.b.b.b.b.b.b.b.b.b.b.b.b.b.b.b.b.b.b.b.b.b.b.b.",
"b.b.b.b.b.J J J K t.v.v.v.v.=.H H l b.l n l c c c b.b.b.b.b.b.b.b.b.b.b.b.b.b.b.b.b.b.b.b.b.b.b.",
"b.b.b.b.b.b.K K K J t.v.v.v.v.$.H S S l n k c n c c b.b.b.b.b.b.b.b.b.b.b.b.b.b.b.b.b.b.b.b.b.b.",
"b.b.b.b.b.b.b.K ! Z J t.v.v.v.v.$.S k l ! l.a.c c c c b.b.b.b.b.b.b.b.b.b.b.b.b.b.b.b.b.b.b.b.b.",
"b.b.b.b.b.b.b.b.Z ! J J -.v.v.v.f.S S l O.v.v.a.c c j c b.b.b.b.b.b.b.b.b.b.b.b.b.b.b.b.b.b.b.b.",
"b.b.b.b.b.b.b.b.b.K J J K =.v.a.H S S n n $.v.v.u.c c j Y b.b.b.b.b.b.b.b.b.b.b.b.b.b.b.b.b.b.b.",
"b.b.b.b.b.b.b.b.b.b.K K H H | H H C h.[ n k $.v.v.t.z z c c b.b.b.b.b.b.b.b.b.b.b.b.b.b.b.b.b.b.",
"b.b.b.b.b.b.b.b.b.b.b.K H K K H ^ l.v.c.[ k c @.v.v.u.z c Y j b.b.b.b.b.b.b.b.b.b.b.b.b.b.b.b.b.",
"b.b.b.b.b.b.b.b.b.b.b.b.H H K ' l.v.v.v.c.[ k z e.v.v.u.j j j j b.b.b.b.b.b.b.b.b.b.b.b.b.b.b.b.",
"b.b.b.b.b.b.b.b.b.b.b.K K H ' x.v.v.v.v.v.c.O.o.s.v.v.v.u.j j a a b.b.b.b.b.b.b.b.b.b.b.b.b.b.b.",
"b.b.b.b.b.b.b.b.b.b.! J Z / k.v.v.v.v.v.v.v.v.v.v.v.v.v.v.u.j a T s b.b.b.b.b.b.b.b.b.b.b.b.b.b.",
"b.b.b.b.b.b.b.b.b.J J J / k.v.v.v.v.v.v.v.v.v.v.v.v.v.v.v.v.s.R a T a b.b.b.b.b.b.b.b.b.b.b.b.b.",
"b.b.b.b.b.b.b.b.K K J / k.v.v.v.v.v.v.v.v.v.v.v.v.v.v.v.v.v.v.z.R a Y a b.b.b.b.b.b.b.b.b.b.b.b.",
"b.b.b.b.b.b.b.J ! K / k.v.v.v.v.v.v.v.v.v.v.v.v.v.v.v.v.v.v.v.v.z.Q a Y T b.b.b.b.b.b.b.b.b.b.b.",
"b.b.b.b.b.b.! J Z / k.v.v.v.v.v.v.v.v.v.v.v.v.v.v.v.v.v.v.v.v.v.v.x.Q a a T b.b.b.b.b.b.b.b.b.b.",
"b.b.b.b.b.M J J / k.v.v.v.v.v.v.v.v.v.v.v.v.v.v.v.v.v.v.v.v.v.v.v.v.z.Q T a T b.b.b.b.b.b.b.b.b.",
"b.b.b.b.M M J / l.v.v.v.v.v.v.v.v.v.v.v.v.v.v.v.v.v.v.v.v.v.v.v.v.v.v.x.Q a T a b.b.b.b.b.b.b.b.",
"b.b.b.B M M J  .0.0.0.0.0.0.0.0.2.2.2.2.2.2.2.,.2.,.2.,.,.<.<.-.:.:.:.-.X.T a T @ b.b.b.b.b.b.b.",
"b.b.C B B U U K J Z J J J J Z Z H S S n n k n n c j c j g j g a d s s a T a a @ . . b.b.b.b.b.b.",
"b.B C B M U K K J J J ! Z Z J R l S S H n k c c c c j c g j g a s s a a a T * . . b.b.b.b.b.b.b.",
"b.b.B B M U K K J ! J Z Z ! Z Z H k A n n k n c c c j j z j Y g s s T a T - . . % b.b.b.b.b.b.b.",
"b.b.b.B M U K K J J J Z J J Z J H S A n H k n c c c j c g Y g a s T a a - . . b.Y   b.b.b.b.b.b.",
"b.b.b.b.M U K K J J J ! H K H H H S S l n k n c z z z z g j g a a T a - . . b.b.Y 6 . b.b.b.b.b.",
"b.b.b.b.b.U K K R K K K K J H H Z k S l n k n n k z z z g j g a j T - . . b.b.b.Y t . b.b.b.b.b.",
"b.b.b.b.b.b.! J H K H K H K J H Z S k H n k n c z z z z g g Y g a > . . b.b.b.Y Y Y + b.b.b.b.b.",
"b.b.b.b.b.b.b.J K K K K K H Z H Z S k l n k n n k z z z g Y g a > . . b.b.b.b.Y Y Y = . b.b.b.b.",
"b.b.b.b.b.b.b.b.K K J K K Z Z H Z H l l l k n c c c j c j j j > . . b.b.b.b.b.Y Y Y r . b.b.b.b.",
"b.b.b.b.b.b.b.b.b.K J J ! Z Z H Z S k l l k c c c c z j j j > . . . b.b.b.b.Y Y Y Y Y O b.b.b.b.",
"b.b.b.b.b.b.b.b.b.b.K R H K J H H S S l l k c l z z z z j 1 . . . b.b.b.b.b.Y Y Y Y Y $ b.b.b.b.",
"b.b.b.b.b.b.b.b.b.b.b.K K J H H H S k l l k c c k z z z 1 . . . b.b.b.b.b.b.Y Y Y Y Y 7 . b.b.b.",
"b.b.b.b.b.b.b.b.b.b.b.b.H K H H l S k l n n c n c c j 1 . . . b.b.b.b.b.b.a Y Y Y Y Y T . b.b.b.",
"b.b.b.b.b.b.b.b.b.b.b.b.b.K H H H S S l n n n c c c 1 . . . b.b.b.b.b.b.b.T Y Y Y Y Y T   b.b.b.",
"b.b.b.b.b.b.b.b.b.b.b.b.b.b.H H l S H l n n n c c 1 . . . b.b.b.b.b.b.b.b.T a Y Y Y Y T = . b.b.",
"b.b.b.b.b.b.b.b.b.b.b.b.b.b.b.H H S l n H n n c 1 . . . b.b.b.b.b.b.b.b.b.a T Y Y Y Y T e . b.b.",
"b.b.b.b.b.b.b.b.b.b.b.b.b.b.b.b.H l l l n k c 4 . . . b.b.b.b.b.b.b.b.b.a T Y Y Y Y Y T T . b.b.",
"b.b.b.b.b.b.b.b.b.b.b.b.b.b.b.b.b.H S l n k 1 . . . b.b.b.b.b.b.b.b.b.b.T a Y Y Y Y Y T T + b.b.",
"b.b.b.b.b.b.b.b.b.b.b.b.b.b.b.b.b.b.H l n 6 . . . b.b.b.b.b.b.b.b.b.b.b.a T Y Y Y Y Y T T + . b.",
"b.b.b.b.b.b.b.b.b.b.b.b.b.b.b.b.b.b.b.l 0 . . . b.b.b.b.b.b.b.b.b.b.b.b.T a Y Y Y Y Y T T o . b.",
"b.b.b.b.b.b.b.b.b.b.b.b.b.b.b.b.b.b.b.b.. . . b.b.b.b.b.b.b.b.b.b.b.b.b.b.a T Y Y Y Y T = . . b.",
"b.b.b.b.b.b.b.b.b.b.b.b.b.b.b.b.b.b.b.b.b.b.b.b.b.b.b.b.b.b.b.b.b.b.b.b.b.b.t Y Y Y Y 9 o . b.b.",
"b.b.b.b.b.b.b.b.b.b.b.b.b.b.b.b.b.b.b.b.b.b.b.b.b.b.b.b.b.b.b.b.b.b.b.b.b.b.b.= 9 & @ . . . b.b.",
"b.b.b.b.b.b.b.b.b.b.b.b.b.b.b.b.b.b.b.b.b.b.b.b.b.b.b.b.b.b.b.b.b.b.b.b.b.b.b.b.. . . . . b.b.b."
};
