/* XPM */
static const char *ACfill_16[] = {
/* columns rows colors chars-per-pixel */
"16 16 64 1 ",
"  c #3D747A",
". c #47696E",
"X c #48686C",
"o c #48696E",
"O c #49696E",
"+ c #426E73",
"@ c #446C71",
"# c #416F75",
"$ c #2C848D",
"% c #238D97",
"& c #1799A4",
"* c #0DA3B1",
"= c #0BA5B3",
"- c #0FA7B8",
"; c #07A9B9",
": c #06AAB9",
"> c #00AFBF",
", c #01AFBF",
"< c #07ADBE",
"1 c #04AEBE",
"2 c #09A9B8",
"3 c #0CA8B8",
"4 c #0FABBE",
"5 c #0AADBE",
"6 c #0CACBE",
"7 c #16A3B4",
"8 c #11A7B8",
"9 c #1AA7BC",
"0 c #1BA7BC",
"q c #1EA7BD",
"w c #11ABBD",
"e c #12ABBD",
"r c #16A8BD",
"t c #17A8BD",
"y c #16A9BD",
"u c #14AABD",
"i c #15AABD",
"p c #00B0BF",
"a c #00B1BF",
"s c #1BB1C2",
"d c #23AFC1",
"f c #21B0C1",
"g c #2DB6C6",
"h c #20B9C7",
"j c #33BDCA",
"k c #30BECB",
"l c #35BCCA",
"z c #37BCCA",
"x c #42B8C9",
"c c #42B9C9",
"v c #60C3D2",
"b c #6BCAD6",
"n c #6DC9D6",
"m c #6DCAD6",
"M c #76D0DA",
"N c #88D5DE",
"B c #C5E9EF",
"V c #D2EFF3",
"C c #D3EFF3",
"Z c #E1F5F7",
"A c #EFFAFB",
"S c #F0FAFB",
"D c white",
"F c None",
/* pixels */
"FFttFFFFFFFFFFFF",
"F9BVdFFFFFFFFFFF",
"FFcSVf4sFFFFFFFF",
"FFFcVNgSzFFFFFFF",
"FFFFfnVMSzFFFFFF",
"FFFtnDDZDSkFFFFF",
"FFtnDDDDDDAkFFFF",
"F9vDDDDDDDDShFFF",
"q9tttw465<11: FF",
"Ftttw4465<<;+*FF",
"FFtttw465<2@Fp$F",
"FFFttw4653.FFp%F",
"FFFFies63XFF1p=F",
"FFFFFe6-XFFFs1p+",
"FFFFFF7OFFFFpppX",
"FFFFFFFFFFFFF& F"
};
