/* XPM */
static const char *ACforeground_64[] = {
/* columns rows colors chars-per-pixel */
"64 64 91 1 ",
"  c #535E5E",
". c #58585A",
"X c #466F65",
"o c #456F66",
"O c #446F67",
"+ c #456F67",
"@ c #466F66",
"# c #436F68",
"$ c #436F69",
"% c #436F6A",
"& c #446F68",
"* c #35866D",
"= c #35866E",
"- c #34866F",
"; c #35866F",
": c #2E8677",
"> c #2E8678",
", c #348670",
"< c #289577",
"1 c #229C7A",
"2 c #199C86",
"3 c #209582",
"4 c #0EB38A",
"5 c #0FB38A",
"6 c #0EB38B",
"7 c #0BB38D",
"8 c #08B38F",
"9 c #09B38F",
"0 c #0AB38E",
"q c #0AB38F",
"w c #0CB38C",
"e c #0DB38C",
"r c #0EB38C",
"t c #11B380",
"y c #11B381",
"u c #11B382",
"i c #11B383",
"p c #10B384",
"a c #11B384",
"s c #10B385",
"d c #10B386",
"f c #10B387",
"g c #10B388",
"h c #10B389",
"j c #09AD95",
"k c #07B390",
"l c #06B391",
"z c #07B391",
"x c #05B392",
"c c #04B393",
"v c #04B394",
"b c #04B395",
"n c #04B396",
"m c #04B397",
"M c #04B398",
"N c #04B399",
"B c #20B889",
"V c #3EC199",
"C c #33C1A8",
"Z c #4DC6A1",
"A c #4CC6A2",
"S c #4DC6A2",
"D c #4CC6A3",
"F c #4AC6A7",
"G c #4BC6A7",
"H c #4CC6A4",
"J c #4CC6A5",
"K c #4CC6A6",
"L c #4CC6A7",
"P c #47C6AA",
"I c #46C6AB",
"U c #47C6AB",
"Y c #43C6AE",
"T c #45C6AC",
"R c #44C6AD",
"E c #49C6A9",
"W c #4AC6A8",
"Q c #4AC6A9",
"! c #48C6AA",
"~ c #91DED0",
"^ c #C3ECE0",
"/ c #C3ECE1",
"( c #C1ECE3",
") c #C2ECE2",
"_ c #C3ECE2",
"` c #C2ECE3",
"' c #C4ECE0",
"] c #C0ECE4",
"[ c #C1ECE4",
"{ c white",
"} c None",
/* pixels */
"ttttttaaaapppp5apppp555555r7ww77778888zzzzzxxxvvvv}}}}}}}}}}}}}}",
"ttatttaaappp5aa54455555r5rrrww77777788zzzzxxxvzbvv>}}}}}}}}}}}}}",
"ttBSSSSSAAHHHHHHPAAAHHQHHQQQQQIIIIIIIITTTYYTCTYCzb:.}}}}}}}}}}}}",
"ttS{{{{{{{{{{{{{{{{{{{{{{{{{{{{{{{{{{{{{{{{{{{{]vb:..}}}}}}}}}}}",
"ttS{{{{{{{{{{{{{{{{{{{{{{{{{{{{{{{{{{{{{{{{{{{{]vv:..}}}}}}}}}}}",
"ttS{{{{{{{{{{{{{{{{{{{{{{{{{{{{{{{{{{{{{{{{{{{{]vv:..}}}}}}}}}}}",
"ttH{{{{{{{{{{{{{{{{{{{{{{{{{{{{{{{{{{{{{{{{{{{{]vv>..}}}}}}}}}}}",
"ttS{{{{{{{{{{{{{{{{{{{{{{{{{{{{{{{{{{{{{{{{{{{{]vv:..}}}}}}}}}}}",
"ppS{{{{{{{{{{{{{{{{{{{{{{{{{{{{{{{{{{{{{{{{{{{{]zb>..}}}}}}}}}}}",
"11Z{{{{{{{{{{{{{{{{{{{{{{{{{{{{{{{{{{{{{{{{{{{{]vb>..}}}}}}}}}}}",
"8tS{{{{{{{{{{{{{{{{{{{{{{{{{{{{{{{{{{{{{{{{{{{{]vv>..}}}}}}}}}}}",
"ttS{{{{{{{{{{{{{{{{{{{{{{{{{{{{{{{{{{{{{{{{{{{{]vv2>3bbMbMMMM}}}",
"ttA{{{{{{{{{{{{{{{{{{{{{{{{{{{{{{{{{{{{{{{{{{{{]vvvvMbbbMMMMMN}}",
"ttV{{{{{{{{{{{{{{{{{{{{{{{{{{{{{{{{{{{{{{{{{{{{]vvvvbbMMMMMMMM%}",
"ppA{{{{{{{{{{{{{{{{{{{{{{{{{{{{{{{{{{{{{{{{{{{{]vvvvbMbMMbMMNN%.",
"t1A{{{{{{{{{{{{{{{{{{{{{{{{{{{{{{{{{{{{{{{{{{{{]vvvvbMbbMMMMNN%.",
"ttA{{{{{{{{{{{{{{{{{{{{{{{{{{{{{{{{{{{{{{{{{{{{]vvvMMvMMMvMMMM%.",
"tpA{{{{{{{{{{{{{{{{{{{{{{{{{{{{{{{{{{{{{{{{{{{{]vvvvvMvMMMMMMM%.",
"ttA{{{{{{{{{{{{{{{{{{{{{{{{{{{{{{{{{{{{{{{{{{{{]vvvvMvMvMMMMNN%.",
"ttA{{{{{{{{{{{{{{{{{{{{{{{{{{{{{{{{{{{{{{{{{{{{]vvvvvMvMvMMMNN%.",
"81A{{{{{{{{{{{{{{{{{{{{{{{{{{{{{{{{{{{{{{{{{{{{]vvvvMMMMMMMMNN%.",
"t1A{{{{{{{{{{{{{{{{{{{{{{{{{{{{{{{{{{{{{{{{{{{{]vvvvMvvMMMMMNN%.",
"ttA{{{{{{{{{{{{{{{{{{{{{{{{{{{{{{{{{{{{{{{{{{{{]vvvvvMvvMvMMNN%.",
"ttA{{{{{{{{{{{{{{{{{{{{{{{{{{{{{{{{{{{{{{{{{{{{]vvvMMvMMMMMMNN%.",
"ttV{{{{{{{{{{{{{{{{{{{{{{{{{{{{{{{{{{{{{{{{{{{{]vvvvvMvMMvMMMM%.",
"ttA{{{{{{{{{{{{{{{{{{{{{{{{{{{{{{{{{{{{{{{{{{{{]vvvvMvMMMMMMMM%.",
"t8A{{{{{{{{{{{{{{{{{{{{{{{{{{{{{{{{{{{{{{{{{{{{]vvvvvMvMMMMMNN%.",
"t1A{{{{{{{{{{{{{{{{{{{{{{{{{{{{{{{{{{{{{{{{{{{{]vvvvMvvMvMMMNN%.",
"ttA{{{{{{{{{{{{{{{{{{{{{{{{{{{{{{{{{{{{{{{{{{{{]vvvMMvMMMMMMNN%.",
"ttA{{{{{{{{{{{{{{{{{{{{{{{{{{{{{{{{{{{{{{{{{{{{]vvvvvMvMMMMMNN%.",
"ttA{{{{{{{{{{{{{{{{{{{{{{{{{{{{{{{{{{{{{{{{{{{{]vvvvMvMvMvMMNN%.",
"ttA{{{{{{{{{{{{{{{{{{{{{{{{{{{{{{{{{{{{{{{{{{{{]vvvvvMvMMMMMNN%.",
"ppZ{{{{{{{{{{{{{{{{{{{{{{{{{{{{{{{{{{{{{{{{{{{{]bvvvMvMMMMMMMN%.",
"11Z{{{{{{{{{{{{{{{{{{{{{{{{{{{{{{{{{{{{{{{{{{{{]zvvvvMvMMvMMMM%.",
"8tZ{{{{{{{{{{{{{{{{{{{{{{{{{{{{{{{{{{{{{{{{{{{{]vvvvMvvMMMMMNN%.",
"ttS{{{{{{{{{{{{{{{{{{{{{{{{{{{{{{{{{{{{{{{{{{{{]vvvMvMvMMvMMNN%.",
"ttA{{{{{{{{{{{{{{{{{{{{{{{{{{{{{{{{{{{{{{{{{{{{]vvvMvMvMMMMMNN%.",
"ttV{{{{{{{{{{{{{{{{{{{{{{{{{{{{{{{{{{{{{{{{{{{{]vvvvMvMvMMMMNN%.",
"ppA{{{{{{{{{{{{{{{{{{{{{{{{{{{{{{{{{{{{{{{{{{{{]vvvvvMvMMvMMNN%.",
"t1A{{{{{{{{{{{{{{{{{{{{{{{{{{{{{{{{{{{{{{{{{{{{]vvvvMvMMMMMMNN%.",
"ttA{{{{{{{{{{{{{{{{{{{{{{{{{{{{{{{{{{{{{{{{{{{{]vvvvvMvMMvMMMM%.",
"tpA{{{{{{{{{{{{{{{{{{{{{{{{{{{{{{{{{{{{{{{{{{{{]vvvvMvMMMMMMMM%.",
"ttA{{{{{{{{{{{{{{{{{{{{{{{{{{{{{{{{{{{{{{{{{{{{]vvvvvMvMMMMMNN%.",
"ttA{{{{{{{{{{{{{{{{{{{{{{{{{{{{{{{{{{{{{{{{{{{{]vvvvMvvMvMMMNN%.",
"81A{{{{{{{{{{{{{{{{{{{{{{{{{{{{{{{{{{{{{{{{{{{{]vvvMMvMMMMMMNN%.",
"t1A{{{{{{{{{{{{{{{{{{{{{{{{{{{{{{{{{{{{{{{{{{{{]vvvvvMvMMMMMNN%.",
"ttA{{{{{{{{{{{{{{{{{{{{{{{{{{{{{{{{{{{{{{{{{{{{]vvvvMvMvMvMMNN%.",
"ttV^^^^^^^^''((''(''(''(''('((((((((((((]]]]]]]~vvvvvMvMMMMMNN%.",
"ttttyyaaaapdddddggggggrgrrrrww77777l7lllllxxvxvvvvvMMvMMMvMMMM%.",
"ttttyyayaaddddddgggggggr5rrrww777777l7l7lxxxxvxvvvvvvMvMMMMMMM%.",
"}*<<;;;;;;;1ddddaggghhrg55r7ww777z7llwllllxxvxxvvvvvMvMvMMMMNN%.",
"}}.........;dddggggghhhrw5rrww77777wllllllxxxvvvvvvvvMvMvMMMNN%.",
"}}} .......<ddddgggggggr55r7577777z8l8l7lllxvxvvvvvvMMMMMMMMNN%.",
"}}}}}}}}}}}ddddggggghgrg5wrrw7777788wllllllxxvxvvvvvMvvMMMMMNN%.",
"}}}}}}}}}}}addddgggghhgr557rww77r8887llllllxvxvvvvvvvMvvMvMMNN%.",
"}}}}}}}}}}}ddddggggghhrgw557ww777rqql7lllllxxvxvvvvMMvMMMMMMNN%.",
"}}}}}}}}}}}addddgggggggr55r7ww7778q88888lllxxxxvvvvMvMvMMvMMMM%.",
"}}}}}}}}}}}ddddgggggggrh55rrww7777qq888zlllxxxvvvvvvMvMvMMMMMM%.",
"}}}}}}}}}}}dddddaggghhhrw5r7ww77778888zzlllxvxvvvvvvvMMMMMMMNN%.",
"}}}}}}}}}}}adddggggghhrhw5r5ww7778q8888zlllxxvxvvvvvMvvMvMMMNN%.",
"}}}}}}}}}}}addddgggggg5g55577w77r88888zzxzxxxvvvvvvvMvMMMMMMNN%.",
"}}}}}}}}}}}}dddgaggggg5g5w57r5777r87888zzzlxvxvvvvvvvvvMMMMMNj .",
"}}}}}}}}}}}}}ooo@@@@%@++++++++++%%+++%%%####$#$$$$$$$$$$$$%%% ..",
"}}}}}}}}}}}}}}.................................................."
};
