/* XPM */
static const char *ACforeground_24[] = {
/* columns rows colors chars-per-pixel */
"24 24 40 1 ",
"  c #535E5E",
". c #58585A",
"X c #2E8676",
"o c #2F8676",
"O c #2E8677",
"+ c #2E8678",
"@ c #2E8679",
"# c #2E867A",
"$ c #338672",
"% c #328673",
"& c #348670",
"* c #348671",
"= c #348672",
"- c #318674",
"; c #308675",
": c #1EA17D",
"> c #15A189",
", c #0EB38B",
"< c #0BB38D",
"1 c #09B38F",
"2 c #0BB38E",
"3 c #0DB38C",
"4 c #11B381",
"5 c #11B383",
"6 c #10B384",
"7 c #10B385",
"8 c #10B386",
"9 c #10B388",
"0 c #10B38A",
"q c #07B390",
"w c #06B391",
"e c #04B393",
"r c #05B393",
"t c #04B394",
"y c #04B395",
"u c #04B396",
"i c #04B397",
"p c #04B398",
"a c white",
"s c None",
/* pixels */
"44477799933<<<wwwyysssss",
"4aaaaaaaaaaaaaaaaae.ssss",
"4aaaaaaaaaaaaaaaaay.ssss",
"4aaaaaaaaaaaaaaaaae.ssss",
"4aaaaaaaaaaaaaaaaay>ypps",
"4aaaaaaaaaaaaaaaaaeyyyp#",
"4aaaaaaaaaaaaaaaaayyppp#",
"4aaaaaaaaaaaaaaaaayyyyp#",
"4aaaaaaaaaaaaaaaaayyypp#",
"4aaaaaaaaaaaaaaaaaeyyyp#",
"4aaaaaaaaaaaaaaaaayyppp#",
"4aaaaaaaaaaaaaaaaaeyypp#",
"4aaaaaaaaaaaaaaaaayyypp#",
"4aaaaaaaaaaaaaaaaaeyyyp#",
"4aaaaaaaaaaaaaaaaayyppp#",
"4aaaaaaaaaaaaaaaaayyyyp#",
"4aaaaaaaaaaaaaaaaaeyypp#",
"4aaaaaaaaaaaaaaaaayyypp#",
"44477799033<<qqqwwyyypp#",
"s...:799033<<qqqttyyyyp#",
"ssss79990333<<<weeeyppp#",
"ssss77999333qqwwweyyypp#",
"ssss779993333qwwyeeyyyp#",
"sssss&====;=;;;ooo#o### "
};
