/* XPM */
static const char *ACforeground_48[] = {
/* columns rows colors chars-per-pixel */
"48 48 73 1 ",
"  c #58585A",
". c #486966",
"X c #2E8678",
"o c #348670",
"O c #289577",
"+ c #229C7B",
"@ c #229C7C",
"# c #229C7D",
"$ c #219C7E",
"% c #219C7F",
"& c #229C7E",
"* c #1BA57F",
"= c #1B9C82",
"- c #1B9C83",
"; c #1E9C80",
": c #1F9C80",
"> c #1E9C81",
", c #1C9C82",
"< c #1D9C82",
"1 c #199C85",
"2 c #1A9C84",
"3 c #199C86",
"4 c #199C87",
"5 c #199C88",
"6 c #199C89",
"7 c #209582",
"8 c #209C80",
"9 c #11A58F",
"0 c #0EB38A",
"q c #0FB38A",
"w c #0EB38B",
"e c #0BB38D",
"r c #08B38F",
"t c #09B38F",
"y c #0AB38E",
"u c #0CB38C",
"i c #0DB38C",
"p c #0CB38D",
"a c #11B380",
"s c #11B381",
"d c #11B382",
"f c #11B383",
"g c #10B384",
"h c #11B384",
"j c #10B385",
"k c #10B386",
"l c #10B387",
"z c #10B388",
"x c #10B389",
"c c #10B38A",
"v c #07B390",
"b c #06B391",
"n c #07B391",
"m c #05B392",
"M c #04B393",
"N c #04B394",
"B c #04B395",
"V c #04B396",
"C c #04B397",
"Z c #04B398",
"A c #04B399",
"S c #91DED0",
"D c #C3ECE0",
"F c #C3ECE1",
"G c #C1ECE3",
"H c #C2ECE2",
"J c #C3ECE2",
"K c #C2ECE3",
"L c #C4ECE0",
"P c #C0ECE4",
"I c #C1ECE4",
"U c white",
"Y c None",
/* pixels */
"aaahhhhhjjjqhqqzzcwwweeeeevvvvvvMMMMMCYYYYYYYYYY",
"aaaahahjjjqhhzhqcwqwqeeeeeevvvvvMMMMMM YYYYYYYYY",
"aaUUUUUUUUUUUUUUUUUUUUUUUUUUUUUUUUUPMM YYYYYYYYY",
"aaUUUUUUUUUUUUUUUUUUUUUUUUUUUUUUUUUPCM  YYYYYYYY",
"aaUUUUUUUUUUUUUUUUUUUUUUUUUUUUUUUUUPMC  YYYYYYYY",
"aaUUUUUUUUUUUUUUUUUUUUUUUUUUUUUUUUUPCC  YYYYYYYY",
"aaUUUUUUUUUUUUUUUUUUUUUUUUUUUUUUUUUGMM  YYYYYYYY",
"aaUUUUUUUUUUUUUUUUUUUUUUUUUUUUUUUUUGCM  YYYYYYYY",
"ahUUUUUUUUUUUUUUUUUUUUUUUUUUUUUUUUUPNNX<NANAAYYY",
"aaUUUUUUUUUUUUUUUUUUUUUUUUUUUUUUUUUPNNNNANAAAA9Y",
"aaUUUUUUUUUUUUUUUUUUUUUUUUUUUUUUUUUPNNNZNAANAA6 ",
"aaUUUUUUUUUUUUUUUUUUUUUUUUUUUUUUUUUPNNNNANNAAA6 ",
"aaUUUUUUUUUUUUUUUUUUUUUUUUUUUUUUUUUPNNNNNANAZA6 ",
"aaUUUUUUUUUUUUUUUUUUUUUUUUUUUUUUUUUPNNANNANAZA6 ",
"ahUUUUUUUUUUUUUUUUUUUUUUUUUUUUUUUUUPNNNANAANZA6 ",
"aaUUUUUUUUUUUUUUUUUUUUUUUUUUUUUUUUUKNNNANNAAZA6 ",
"ssUUUUUUUUUUUUUUUUUUUUUUUUUUUUUUUUUPNNZNZZZZZA6 ",
"*sUUUUUUUUUUUUUUUUUUUUUUUUUUUUUUUUUPNNNNNZZNZA6 ",
"aaUUUUUUUUUUUUUUUUUUUUUUUUUUUUUUUUUPNNNZNZZZZA6 ",
"aaUUUUUUUUUUUUUUUUUUUUUUUUUUUUUUUUUPNNNNNZZNZZ6 ",
"aaUUUUUUUUUUUUUUUUUUUUUUUUUUUUUUUUUPNNNZZZZZZZ6 ",
"aaUUUUUUUUUUUUUUUUUUUUUUUUUUUUUUUUUPNNNNNZZNZZ6 ",
"**UUUUUUUUUUUUUUUUUUUUUUUUUUUUUUUUUPNNNZNZNZZZ6 ",
"ggUUUUUUUUUUUUUUUUUUUUUUUUUUUUUUUUUPNNNZZZZZZZ6 ",
"aaUUUUUUUUUUUUUUUUUUUUUUUUUUUUUUUUUPNNZNZNZNZA6 ",
"aaUUUUUUUUUUUUUUUUUUUUUUUUUUUUUUUUUPNNNNNZZZZZ6 ",
"aaUUUUUUUUUUUUUUUUUUUUUUUUUUUUUUUUUPNNNZZZZZZA6 ",
"agUUUUUUUUUUUUUUUUUUUUUUUUUUUUUUUUUPNNNNZNZZZA6 ",
"*gUUUUUUUUUUUUUUUUUUUUUUUUUUUUUUUUUPNNNNNNZZZZ6 ",
"a*UUUUUUUUUUUUUUUUUUUUUUUUUUUUUUUUUPNNNZZZNZZZ6 ",
"aaUUUUUUUUUUUUUUUUUUUUUUUUUUUUUUUUUPNNNZNZZZZZ3 ",
"aaUUUUUUUUUUUUUUUUUUUUUUUUUUUUUUUUUPNNNNZZNZZZ6 ",
"aaUUUUUUUUUUUUUUUUUUUUUUUUUUUUUUUUUPNNNNZZZZZZ6 ",
"agUUUUUUUUUUUUUUUUUUUUUUUUUUUUUUUUUPNNNZNZZNZZ6 ",
"a*UUUUUUUUUUUUUUUUUUUUUUUUUUUUUUUUUPNNNNNZNZZZ6 ",
"a*PPLLDDDDDDDDDDDKDDDDDKDKKDKPKPPPPSNNZZZZZZZZ6 ",
"aaddddggjjqhzzzzcwwwwwweevevvvvvvNMNNNZNZNZNZA6 ",
"aaddddgjjjhqhqzzzqqwwwneeenvvvNvMNMNNNNNNZZZZZ6 ",
"Y       oqqhzzzzqqwweeeeeneevvvvMMMNNNNZZZZZZA6 ",
"YYY     OhhzzzzzqwwwwweeeevvvvNvvMMNNNNNZNZZZA6 ",
"YYYYYYYYjjjqhzzzzqqweeweeenvvNvNMMNNNNNZNZZZZZ6 ",
"YYYYYYYYjjhqqzzzqqqqwweeeeeevvvvMMMNNNNNNZNZZZ6 ",
"YYYYYYYYjhjhzzzzqqqqeeweenenvvvvvMNNNNNZZZZZZZ6 ",
"YYYYYYYYjqjqzzzzqquuweeeeennvvNvMMNNNNNZNZNZZZ6 ",
"YYYYYYYYjjjjzzzzqqqqqueeeennnnvvMMMNNNNNNZZZZA6 ",
"YYYYYYYYYhqhzzzzqqqqeueeeenennvvvMMNNNNZZZNZZA6 ",
"YYYYYYYYYa++&&&&&%&&<%<%%<<<<3<823333333636666. ",
"YYYYYYYYYY                                      "
};
