/* XPM */
static const char *ACintensity_32[] = {
/* columns rows colors chars-per-pixel */
"32 32 82 1 ",
"  c #58585A",
". c #625B64",
"X c #6F5A6C",
"o c #6E5B6C",
"O c #6F5B6C",
"+ c #6D5C6D",
"@ c #6C5D6D",
"# c #6D5D6D",
"$ c #6E5C6C",
"% c #6E5C6D",
"& c #6E5E6E",
"* c #70596C",
"= c #72596D",
"- c #705A6C",
"; c #BA599F",
": c #B75DA0",
"> c #B75DA1",
", c #B55FA1",
"< c #B75EA1",
"1 c #B65FA1",
"2 c #B95AA0",
"3 c #B95BA0",
"4 c #B85CA0",
"5 c #AF67A4",
"6 c #A46CA1",
"7 c #AB6AA5",
"8 c #AB6BA6",
"9 c #AD69A5",
"0 c #AE68A4",
"q c #AF68A4",
"w c #AC6AA5",
"e c #AD6AA5",
"r c #A96DA6",
"t c #AA6CA6",
"y c #AB6CA6",
"u c #B362A2",
"i c #B363A2",
"p c #B560A1",
"a c #B461A2",
"s c #B462A2",
"d c #B164A3",
"f c #B165A3",
"g c #B264A3",
"h c #B066A4",
"j c #B166A4",
"k c #BE64A6",
"l c #B57FB1",
"z c #C679B2",
"x c #CB83B8",
"c c #C985B8",
"v c #CA84B8",
"b c #CA85B8",
"n c #C986B8",
"m c #C887B9",
"M c #C788B9",
"N c #C689B9",
"B c #C789B9",
"V c #C68AB9",
"C c #C58ABA",
"Z c #C58BBA",
"A c #C38DBB",
"S c #C28EBB",
"D c #C38EBB",
"F c #C48CBA",
"G c #C48CBB",
"H c #C08FBC",
"J c #C18FBC",
"K c #C28FBC",
"L c #C090BC",
"P c #C091BC",
"I c #CAA3C7",
"U c #D5B6D3",
"Y c #EDD6E7",
"T c #EDD7E7",
"R c #ECD7E8",
"E c #EDD7E8",
"W c #EBD9E8",
"Q c #EADAE9",
"! c #EBDAE9",
"~ c #ECD8E8",
"^ c white",
"/ c None",
/* pixels */
";224:::pppuuuuddddhqqqqqqt77tt6/",
";kbbbbbMbMMMMMGMFAFAAAALLLHLLlt&",
";x^^^^^^^^^^^^^^^^^^^^^^^^^^^Ut@",
";x^^^^^^^^^^^^^^^^^^^^^^^^^^^Ut@",
";x^^^^^^^^^^^^^^^^^^^^^^^^^^^Ut@",
";x^^^^^^^^^^^^^^^^^^^^^^^^^^^Ur@",
";x^^^^^^^^^^^^^^^^^^^^^^^^^^^Ur@",
";x^^^^^^^^^^^^^^^^^^^^^^^^^^^Ur@",
";x^^^^^^^^^^^^^^^^^^^^^^^^^^^Ur@",
";x^^^^^^^^^^^^^^^^^^^^^^^^^^^Ur@",
";x^^^^^^^^^^^^^^^^^^^^^^^^^^^Ur@",
";x^^^^^^^^^^^^^^^^^^^^^^^^^^^Ur@",
";x^^^^^^^^^^^^^^^^^^^^^^^^^^^Ur@",
";x^^^^^^^^^^^^^^^^^^^^^^^^^^^Ur@",
";x^^^^^^^^^^^^^^^^^^^^^^^^^^^Ur@",
";zYYYYY~EERWEWEWWWWWWWWWQQQWWIr@",
"2224:<<:pppipduh5h55qqqq7778yyy@",
"2244:<<appapdphuu5h5qqq7q778yyr@",
"222::<<<ppphpduhdhh5qqqqq77yyrr@",
"2222><:a:ppipihudhh55577y77yyyr@",
";222:<<<ppaadihhdhqqqq7qq778yrr@",
";224:<<<ppaapiphdhjqqqqq8778yyr@",
";224:<4pppaadihudjjqqqq7qy788rr@",
";2444<<p:pagpiuhdjjjqqqqq778y8r@",
";23444ppppaagpphgh55qq58y778yyy@",
";234444pppaaphhuhhh5qq5qq778yyr@",
";2244<pppppduihhgh55qq57y778yrr@",
";23444p4ppppudphhh55qq58qy7yyyr@",
";22;4<<p:puupiddgghhqqqqq778yrr@",
";24>4p<<ppupdiddhhhhqqq77778yyr@",
";22:::<pppuppdddddhj5qqqqy78y8r.",
"/===+===XXOXO-XX&X&&++@+@&&@@@. "
};
