/* XPM */
static const char *ACintensity_24[] = {
/* columns rows colors chars-per-pixel */
"24 24 38 1 ",
"  c #5D595F",
". c #7B617B",
"X c #865C7E",
"o c #855E7F",
"O c #845F7F",
"+ c #89597D",
"@ c #885A7D",
"# c #885B7D",
"$ c #83607F",
"% c #935984",
"& c #BA599F",
"* c #826180",
"= c #836180",
"- c #816280",
"; c #816380",
": c #896588",
"> c #B75DA0",
", c #B75DA1",
"< c #B95AA0",
"1 c #B85CA0",
"2 c #AF66A4",
"3 c #AB6BA6",
"4 c #AF68A4",
"5 c #AC6AA5",
"6 c #AB6CA6",
"7 c #AA6DA6",
"8 c #B263A2",
"9 c #B460A1",
"0 c #B462A2",
"q c #B164A3",
"w c #B066A4",
"e c #E0B7D5",
"r c #EDD6E7",
"t c #EED6E7",
"y c #EDD7E8",
"u c #EBD9E8",
"i c #ECD8E8",
"p c white",
/* pixels */
"&<1>>9>9998qqw244343777:",
"&errryiiiiiiiuuuuuuuuu7;",
"&rpppppppppppppppppppp7;",
"&rpppppppppppppppppppp7$",
"&rpppppppppppppppppppp7;",
"&rpppppppppppppppppppp7;",
"&rpppppppppppppppppppp7;",
"&rpppppppppppppppppppp7;",
"&rpppppppppppppppppppp7;",
"&rpppppppppppppppppppp7;",
"&rpppppppppppppppppppp7;",
"&errryiiiiiiiuuuuuuuuu3=",
"&<1119999wqqqw244343777;",
"&<111999999qqw244434377;",
"&<11199990qqqw244343377;",
"&11>199900qqqw244474337;",
"&<1>>9>990w8qq444474774;",
"&<1>>9999wwwwwq44444377;",
"&<1>1999009q84q44466377;",
"&<11>9>99>wqww444464677;",
"&1><>>9989wqq2242333667=",
"&&<>>999>ww8q2242444667;",
"&><&><>0>888q4224433737.",
"%@++=%==+O=OO$OO$$=;=;. "
};
