/* XPM */
static const char *ACrampup_16[] = {
/* columns rows colors chars-per-pixel */
"16 16 38 1 ",
"  c #706A7E",
". c #8F6C93",
"X c #8F6D95",
"o c #8E6E95",
"O c #8C6F96",
"+ c #8D6F96",
"@ c #877397",
"# c #817697",
"$ c #877497",
"% c #8B7096",
"& c #8A7196",
"* c #887297",
"= c #8A7297",
"- c #837698",
"; c #827798",
": c #857598",
"> c #867598",
", c #847698",
"< c #9F75A9",
"1 c #9D77AA",
"2 c #9F76AA",
"3 c #9E77AA",
"4 c #977CAC",
"5 c #967DAC",
"6 c #957EAC",
"7 c #947FAD",
"8 c #9B79AB",
"9 c #987BAB",
"0 c #997BAB",
"q c #9A7AAB",
"w c #9C78AA",
"e c #A273A8",
"r c #A174A9",
"t c #A075A9",
"y c #9181AD",
"u c #9280AD",
"i c #9380AD",
"p c None",
/* pixels */
"ppppppppppppppu#",
"pppppppppppppuu;",
"ppppppppppppuuu;",
"ppppppppppp6iuy;",
"pppppppppp55iiu;",
"ppppppppp4556iu;",
"pppppppp444iiuu;",
"pppppppq444iiuu;",
"ppppppqqq44iiii,",
"ppppp3qq4444iiy;",
"pppp3q3qq44iiiy;",
"ppptt3qqq44iiiy;",
"ppt3q3qq4455iiy,",
"ptttt3qq45555iy;",
"eet3tqq4q45iiyy;",
"XX++&&&&&&$$$,, "
};
