/* XPM */
static const char *ACselect_24[] = {
/* columns rows colors chars-per-pixel */
"24 24 33 1 ",
"  c #58585A",
". c #625F58",
"X c #646158",
"o c #756B54",
"O c #7A7153",
"+ c #7B7253",
"@ c #7E7352",
"# c #DDB83F",
"$ c #DDBB3F",
"% c #F1BF3C",
"& c #E7C23D",
"* c #F1C33B",
"= c #F0C53B",
"- c #F1C13C",
"; c #F0C83B",
": c #F0C93B",
"> c #91804E",
", c #95854E",
"< c #9B894C",
"1 c #9F8A4C",
"2 c #A58C4B",
"3 c #A58D4B",
"4 c #AE9449",
"5 c #B69D47",
"6 c #BEA045",
"7 c #BDA345",
"8 c #C1A645",
"9 c #CAAD43",
"0 c #D2AC42",
"q c #D2B241",
"w c #D4B441",
"e c #DEB440",
"r c None",
/* pixels */
"rrrrrrrrrrqrrrrrrrrrrrrr",
"rrrrrrrrr:9 rrrrrrrrrrrr",
"rrrrr:rrr:9 rr:5rrrrrrrr",
"rrrrr::rrr9 r:w.rrrrrrrr",
"rrrrrr::rr r:w.rrrrrrrrr",
"rrrrrrrO rrrrXrrrrrrrrrr",
"rrrrrrrrrrrrrrrrrrrrrrrr",
"rrr&::$rrr:rrr::=2rrrrrr",
"rrrr   rr:::rr    rrrrrr",
"rrrrrrr:r::::rrrrrrrrrrr",
"rrrrrr:w :::::rrrrrrrrrr",
"rrrrr:w.r::::::rrrrrrrrr",
"rrrrr7.rr:::::::rrrrrrrr",
"rrrrrrrrr::::::==rrrrrrr",
"rrrrrrrrr:::::::=*rrrrrr",
"rrrrrrrrr:::::::=*-rrrrr",
"rrrrrrrrr::::::===-%rrrr",
"rrrrrrrrr:::::::=422orrr",
"rrrrrrrrr:::::::=7rrrrrr",
"rrrrrrrrr:::8&::=*@rrrrr",
"rrrrrrrrrr:< q::=*0rrrrr",
"rrrrrrrrrrO rr:==*e rrrr",
"rrrrrrrrrrrrrrr:$> rrrrr",
"rrrrrrrrrrrrrrr,  rrrrrr"
};
