/* XPM */
static const char *ACshimmer_64[] = {
/* columns rows colors chars-per-pixel */
"64 64 193 2 ",
"   c #5F575D",
".  c #58585A",
"X  c #60575C",
"o  c #61575C",
"O  c #66575E",
"+  c #67575E",
"@  c #67575F",
"#  c #68575C",
"$  c #69575C",
"%  c #68575D",
"&  c #68575E",
"*  c #60585B",
"=  c #71575D",
"-  c #70575E",
";  c #70565F",
":  c #79565E",
">  c #79575E",
",  c #79565F",
"<  c #675760",
"1  c #6F5661",
"2  c #6E5663",
"3  c #715660",
"4  c #755661",
"5  c #775662",
"6  c #765663",
"7  c #775663",
"8  c #765564",
"9  c #765565",
"0  c #765664",
"q  c #755566",
"w  c #785660",
"e  c #795563",
"r  c #7E5565",
"t  c #7D5568",
"y  c #80565F",
"u  c #805561",
"i  c #815660",
"p  c #805562",
"a  c #875564",
"s  c #865467",
"d  c #8A5560",
"f  c #895562",
"g  c #885563",
"h  c #885466",
"j  c #8F5466",
"k  c #8F5467",
"l  c #85546A",
"z  c #84546B",
"x  c #8E5469",
"c  c #8D536C",
"v  c #8C536D",
"b  c #915562",
"n  c #915563",
"m  c #905465",
"M  c #9A5562",
"N  c #9B5562",
"B  c #9A5463",
"V  c #995464",
"C  c #995465",
"Z  c #985466",
"A  c #995466",
"S  c #96536A",
"D  c #97536A",
"F  c #975468",
"G  c #95536C",
"H  c #94536E",
"J  c #94536F",
"K  c #9D536A",
"L  c #9D526E",
"P  c #935371",
"I  c #945370",
"U  c #9B5271",
"Y  c #9A5273",
"T  c #9C5270",
"R  c #A05562",
"E  c #A15467",
"W  c #AA5365",
"Q  c #A95367",
"!  c #A7526A",
"~  c #A7526B",
"^  c #A3526D",
"/  c #A5526F",
"(  c #A6526E",
")  c #AF516D",
"_  c #AF516E",
"`  c #BB5366",
"'  c #BA5267",
"]  c #BB5267",
"[  c #BC5466",
"{  c #B0526B",
"}  c #BA5268",
"|  c #B9526B",
" . c #BA526A",
".. c #B8516C",
"X. c #B74F7F",
"o. c #B84F7F",
"O. c #A55270",
"+. c #A25174",
"@. c #A15176",
"#. c #A15177",
"$. c #A25176",
"%. c #AD5171",
"&. c #AC5173",
"*. c #AA5076",
"=. c #AA507A",
"-. c #B55172",
";. c #B35176",
":. c #B35177",
">. c #B45175",
",. c #B45176",
"<. c #B95071",
"1. c #B85072",
"2. c #BE5071",
"3. c #BE5073",
"4. c #BC5076",
"5. c #B25078",
"6. c #B1507A",
"7. c #B1507B",
"8. c #B2507D",
"9. c #CC5367",
"0. c #C25269",
"q. c #C2526A",
"w. c #C2526B",
"e. c #CC5169",
"r. c #CA516C",
"t. c #C9516E",
"y. c #D05367",
"u. c #D3516B",
"i. c #D3516C",
"p. c #DD5269",
"a. c #DE5268",
"s. c #DC516A",
"d. c #DC506B",
"f. c #DD526A",
"g. c #DB506C",
"h. c #DA506D",
"j. c #DB506D",
"k. c #DA506E",
"l. c #DA506F",
"z. c #C44F74",
"x. c #C54F76",
"c. c #CE4F75",
"v. c #CD4F76",
"b. c #CD4F77",
"n. c #CE4F76",
"m. c #C44F79",
"M. c #C14E7C",
"N. c #C04E7F",
"B. c #CC4F79",
"V. c #CA4F7D",
"C. c #D74F74",
"Z. c #D74F75",
"A. c #D64E76",
"S. c #D64F76",
"D. c #D64E77",
"F. c #D84F72",
"G. c #D84F73",
"H. c #D34E7B",
"J. c #D54E78",
"K. c #D54E79",
"L. c #D64E78",
"P. c #D44E7A",
"I. c #D44E7B",
"U. c #D34E7C",
"Y. c #D34E7D",
"T. c #D34E7E",
"R. c #D24E7F",
"E. c #C75071",
"W. c #C65073",
"Q. c #CF5073",
"!. c #D95070",
"~. c #D95071",
"^. c #DA5070",
"/. c #BE4E82",
"(. c #C74E83",
"). c #C74E84",
"_. c #C64E85",
"`. c #C84E81",
"'. c #C84E82",
"]. c #CF4D83",
"[. c #CF4D84",
"{. c #CF4D85",
"}. c #CD4D87",
"|. c #CE4D86",
" X c #CF4D86",
".X c #CE4D87",
"XX c #CD4D88",
"oX c #D04D81",
"OX c #D14E80",
"+X c #D14E81",
"@X c #D24E80",
"#X c #D04D82",
"$X c None",
/* pixels */
"$X$X$X$X$X$X$X$X$X$X$X$X$X$X$X$X$X$X$X$X$X$X$X$X$X$X$X$X$X$X$X$X$X$X$X$X$X$X$X$X$X$X$X$X$X$X$X$X$X$X$X$X$X$X$X$X$X$X$X$X$X$X$X$X",
"$X$X$X$X$X$X$X$X$X$X$X$X$X$X$X$X$X$X$X$X$X$X$X$X$X$X$X$X$X$X$X$X$X$X$X$X$X$X$X$X$X$X$X$X$X$X$X$X$X$X$X$X$X$X$X$X$X$X$X$X$X$X$X$X",
"$X$X$X$X$X$X$X$X$X$X$X$X$X$X$X$X$X$X$X$X$X$X$X$X$X$X$X$X$X$X$X$X$X$X$X$X$X$X$X$X$X$X$X$X$X$X$X$X$X$X$X$X$X$X$X$X$X$X$X$X$X$X$X$X",
"$X$X$X$X$X$X$X$X$X$X$X$X$X$X!.!.!.!.G.G.G.Z.$X$X$X$X$X$X$X$X$X$X$X$X$X$X$X$X$X$X$X$X$X$X$X$X$X$X$X$X$X$X$X$X$X$X$X$X$X$X$X$X$X$X",
"$X$X$X$X$X$X$X$X$X$Xj.j.j.j.!.!.!.!.Z.G.G.C.Z.Z.Z.$X$X$X$X$X$X$X$X$X$X$X$X$X$X$X$X$X$X$X$X$X$X$X$X$X$X$X$X$X$X$X$X$X$X$X$X$X$X$X",
"$X$X$X$X$X$X$X$Xj.j.j.j.!.!.!.!.!.!.C.G.G.C.Z.Z.Z.Z.J.Z.$X$X$X$X$X$X$X$X$X$X$X$X$X$X$X$X$X$X$X$X$X$X$X$X$X$X$X$X$X$X$X$X$X$X$X$X",
"$X$X$X$X$X$Xd.j.j.j.j.!.d.^.^.!.j.!.G.G.G.C.Z.Z.J.J.J.J.J.J.$X$X$X$X$X$X$X$X$X$X$X$X$X$X$X$X$X$X$X$X$X$X$X$X$X$X$X$X$X$X$X$X$X$X",
"$X$X$X$Xs.s.d.j.j.j.d.!.!.^.^.!.G.!.!.G.G.C.Z.Z.Z.Z.Z.J.J.J.J.$X$X$X$X$X$X$X$X$X$X$X$X$X$X$X$X$X$X$X$X$X$X$X$X$X$X$X$X$X$X$X$X$X",
"$X$X$Xf.s.d.d.j.j.j.k.k.k.!.!.!.~.~.Z.G.G.C.Z.Z.J.Z.Z.L.L.J.J.L.J.$X$X$X$X$X$X$X$X$X$X$X$X$X$X$X$X$X$X$X$X$X$X$X$X$X$X$X$X$X$X$X",
"$X$Xf.f.f.d.d.j.g.j.k.j.!.j.!.!.!.!.C.G.G.C.Z.Z.Z.Z.J.L.L.L.I.I.I.I.$X$X$X$X$X$X$X$X$X$X$X$X$X$X$X$X$X$X$X$X$X#X|.|. XXX$X$X$X$X",
"$Xf.f.f.f.d.d.j.g.j.j.j.!.j.!.!.!.!.G.G.G.C.Z.Z.Z.J.L.Z.L.J.L.J.J.U.I.$X$X$X$X$X$X$X$X$X$X$X$X$X$X$X$X$X$X$X X X#X|.XX XXX$X$X$X",
"a.a.f.f.f.d.d.d.g.j.j.j.!.!.!.!.!.j.G.G.G.C.Z.Z.Z.Z.L.L.L.J.I.J.U.J.I.I.$X$X$X$X$X$X$X$X$X$X$X$X$X$X$X$X$XXX X#XXX|. XXXXX/.$X$X",
"a.a.f.f.s.d.d.d.j.j.j.j.j.!. .E A p m A { E.Z.Z.J.J.J.Z.J.J.J.J.J.U.I.U.U.U.$X$X$X$X$X$X$X$X$X$X$X$X$X#XXX#X XXX X#X#XXX|.XX< $X",
"a.a.a.f.s.d.d.d.j.j.j.r.f X . . . . . . . . 3 ~ Z.Z.J.J.J.J.J.I.U.J.I.U.U.U.I.I.$X$X$X$X$X$X$X$X$X#X|.#X#X X X#X XXXXX|.XXXXq . ",
"a.a.f.f.s.s.g.g.g.u.b . . . . . . . $X$X$X. . . & _ A.J.J.J.J.J.J.U.I.U.U.@XI.@X@XU.@X@X@X@X].].@X].#X|.XX#X#X X XXX|.XX|.XX. . ",
"a.a.a.f.s.s.s.j.0.# . . . . $X$X$X$X$X$X$X$X$X$X$X. m A.J.J.I.I.U.J.I.U.U.U.U.@X@X@X@X@X@X@X@X].].@X|.#X#X X X X#XXXXX|.XX#.. . ",
"$Xa.f.f.f.s.d. .X . . . $X$X$X$X$X$X$X$X$X$X$X$X$X$X$XK J.J.J.J.I.I.I.I.Y.Y.Y.Y.R.R.R.R.+X+XU.].].].].].XX#X X#XXXXXXX X/.  . . ",
"$X$XR [ [ ` y . . . . $X$X$X$X$X$X$X$X$X$X$X$X$X$X$X$X$X$XB.J.J.S.I.I.R.Y.Y.Y.@XR.R.R.+XR.+X].@X@X].].].#X#X X X X X)./.  . . . ",
"$X$X$X. . .   . . . $X$X$X$X$X$X$X$X$X$X$X$X$X$X$X$X$X$X$X$XW.J.P.P.I.I.Y.Y.Y.Y.Y.R.R.R.+X+X].].].].].].#XXX#X|. X|.#.o . . . $X",
"$X$X$X$X$X. . . $X$X$X$X$X$X$X$X$X$X$X$X$X$X$X$X$X$X$X$X$X$X$X^ P.P.I.Y.I.Y.Y.Y.Y.R.R.+XR.+XU.].#X@X].].|.#X|.#X).t . . . . $X$X",
"$X$X$X$X$X$X$X$X$X$X$X$X$X$X$X$X$X$X$X$X$X$X$X$X$X$X$X$X$X$X$X$X7 -.P.U.Y.Y.Y.Y.Y.R.R.+X+X+X+X@X#X#X].].[.[.|.J   . . . . $X$X$X",
"$X$X$X$X$X$X$X$X$X$X$X$X$X^.^.!.!.!.G.G.~.S.S.$X$X$X$X$X$X$X$X$X$X. 7 / Y.Y.Y.Y.Y.+X+XY.+X].+X].#X#X].].o.I + . . . . $X$X$X$X$X",
"$X$X$X$X$X$X$X$X$Xj.j.j.^.^.^.!.!.!.G.G.~.S.~.S.Z.Z.$X$X$X$X$X$X$X$X$X. X h O.m.Y.+XY.+XU.@X@X].#XX.D 8   . . . . . $X$X$X$X$X$X",
"$X$X$X$X$X$X$Xd.j.j.j.!.d.^.^.!.!.!.G.Z.~.S.~.S.L.Z.L.L.L.$X$X$X$X$X$X$X$X. . . . 7 7 7 7 q q 3 . . . . . . . $X$X$X$X$X$X$X$X$X",
"$X$X$X$X$Xd.d.j.j.j.j.j.^.d.!.!.~.~.Z.G.G.C.Z.Z.Z.Z.J.Z.L.J.$X$X$X$X$X$X$X$X$X$X. . . . . . . . . . . . $X$X$X$X$X$X$X$X$X$X$X$X",
"$X$X$X$Xd.d.d.j.j.j.j.j.^.!.!.!.~.~.G.G.G.C.Z.Z.Z.Z.J.J.L.J.I.L.$X$X$X$X$X$X$X$X$X$X$X$X$X$X$X$X$X$X$X$X$X$X$X$X$X$X$X$X$X$X$X$X",
"$X$X$Xs.f.d.d.j.j.j.j.j.d.!.!.!.!.!.G.G.G.C.Z.Z.Z.A.Z.J.L.J.L.I.J.$X$X$X$X$X$X$X$X$X$X$X$X$X$X$X$X$X$X$X$X$X$X$X$X|.|.$X$X$X$X$X",
"$Xa.s.s.f.d.d.j.j.j.k.k.!.!.!.!.!.j.G.G.C.Z.Z.Z.Z.J.Z.J.L.J.J.J.P.P.$X$X$X$X$X$X$X$X$X$X$X$X$X$X$X$X$X$X$X$X$X X|.|.XX|.XX$X$X$X",
"$Xa.a.f.f.s.d.d.g.j.h.k.k.k.!.!.!.!.G.G.G.C.Z.Z.J.Z.J.A.J.J.I.L.J.U.I.$X$X$X$X$X$X$X$X$X$X$X$X$X$X$X$X$X$X$XXX X X#X#XXX|.=.$X$X",
"a.a.f.f.s.s.d.d.g.j.h.k.k.k.!.j.~.!.Z.!.G.C.Z.Z.Z.A.A.J.J.J.J.J.U.J.I.U.$X$X$X$X$X$X$X$X$X$X$X$X$X$X$X$X#X X#X X XXXXX|.XX_.. $X",
"a.a.f.f.s.d.d.d.g.j.k.k.!.w.Z 4 1 . X w f ! Q.Z.J.Z.J.A.L.J.J.I.J.U.I.U.I.@X$X$X$X$X$X$X$X$X$X$X$X$X#X|.XX#X#X X XXX|.XXXXXX1 $X",
"a.a.f.f.a.d.d.d.g.j.k.Q # . . . . . . . . . . a z.Z.A.J.L.J.J.J.U.J.I.U.U.U.U.U.@X$X$X$X$X$X$X$X@X@X|.#X#X X X X#XXXXX|.XXXX2 . ",
"a.a.a.f.s.d.d.d.s. .& . . . . . $X$X$X$X$X$X$X. . j b.Z.L.J.I.J.J.U.I.U.U.U.U.@XY.@X@X@X+X+X@X].].].].].[.[.XX[.XXXX.X.XXX).. . ",
"$Xa.f.f.s.d.d.l.W . . . . . $X$X$X$X$X$X$X$X$X$X$X$X7 b.L.J.L.L.U.J.I.U.U.U.I.@XY.@XY.+X+X+X@X].].@X].].[.[.[.[.XX[..X.XXXP . . ",
"$Xy.s.s.s.s.s.B . . . . $X$X$X$X$X$X$X$X$X$X$X$X$X$X$X$XP.J.J.I.J.U.I.U.I.@XI.@XY.@X@X+XR.+X+X@X].@X].].[.[.[.[.#X#XXX.X#.. . . ",
"$X$Xp N N N & . . . $X$X$X$X$X$X$X$X$X$X$X$X$X$X$X$X$X$X$XW.J.I.U.J.I.U.U.I.I.@XY.+XY.Y.+X+X+X@X].].].].[.XX[.[..XXXXXY . . . $X",
"$X$X$X. . . . . . $X$X$X$X$X$X$X$X$X$X$X$X$X$X$X$X$X$X$X$X$X1.J.U.J.I.U.U.U.@XI.Y.+XR.+X@X].].U.@X].].].[.[.[.[.#X).z . . . . $X",
"$X$X$X$X$X$X. $X$X$X$X$X$X$X$X$X$X$X$X$X$X$X$X$X$X$X$X$X$X$X$Xh W.I.I.I.U.U.I.@XY.R.R.R.@X@X@X].@X].].].[.[.[.].8.< . . . $X$X$X",
"$X$X$X$X$X$X$X$X$X$X$X$X$X$X$X$X$X$X$X$X$X$X$X$X$X$X$X$X$X$X$X$X< G B.I.U.I.@XI.Y.R.R.+X].U.@X].].#X].[.[.[.X.q . . . . $X$X$X$X",
"$X$X$X$X$X$X$X$X$X$X$Xj.!.d.^.!.!.!.G.G.G.C.Z.Z.$X$X$X$X$X$X$X$X$X$XX l 4.@XI.@XR.R.R.R.+X].@X].].#X].V.@.8 . . . . . $X$X$X$X$X",
"$X$X$X$X$X$X$X$X$Xd.j.j.!.!.^.!.!.!.G.G.G.C.C.Z.J.Z.J.$X$X$X$X$X$X$X$X. . X l K ,.V.@X@X@X@X@XN.:.P q . . . . . . $X$X$X$X$X$X$X",
"$X$X$X$X$X$Xd.d.d.!.j.j.!.j.!.!.!.!.G.G.G.G.Z.Z.Z.A.J.A.J.$X$X$X$X$X$X$X$X$X. . . . . . . . . . . . . . . . . $X$X$X$X$X$X$X$X$X",
"$X$X$X$X$Xd.d.d.g.g.g.!.!.!.!.!.!.~.Z.G.G.C.Z.Z.J.Z.Z.L.L.J.J.$X$X$X$X$X$X$X$X$X$X. . . . . . . . . . $X$X$X$X$X$X$X$X$X$X$X$X$X",
"$X$X$Xf.f.d.d.d.g.g.g.g.j.!.!.!.~.~.G.G.G.C.Z.Z.Z.Z.J.J.L.J.J.J.$X$X$X$X$X$X$X$X$X$X$X$X$X$X$X$X$X$X$X$X$X$X$X$X$X$X$X$X$X$X$X$X",
"$X$Xf.f.f.d.d.j.g.!.g.!.l.l.!.!.!.!.!.C.G.C.Z.Z.Z.Z.J.Z.L.J.L.I.J.$X$X$X$X$X$X$X$X$X$X$X$X$X$X$X$X$X$X$X$X$X$X$X#XXXXX$X$X$X$X$X",
"$Xa.f.f.f.d.d.j.d.d.g.!.l.l.l.!.G.!.C.!.G.C.Z.Z.J.Z.J.J.L.J.J.J.J.I.$X$X$X$X$X$X$X$X$X$X$X$X$X$X$X$X$X$X$X$X#X X XXX#X|.XX$X$X$X",
"f.a.f.f.s.d.d.j.g.!.d.l.l.l.!.!.!.!.C.C.G.C.Z.Z.J.Z.L.L.L.J.I.L.U.J.U.$X$X$X$X$X$X$X$X$X$X$X$X$X$X$X$X$X$XXX X#X XXX|.XXXX8.$X$X",
"a.a.f.f.s.s.s.j.d.d.!.l.l.l.!.G.r. . .G.G.C.Z.Z.Z.Z.L.L.L.J.J.L.J.U.I.U.U.$X$X$X$X$X$X$X$X$X$X$X$X$X$X$X#X X X X#XXXXX|.XXXX. $X",
"a.a.f.f.s.s.s.g.g.j.!.!.e.b = . . . . . X p ~ ~.I.Z.J.J.L.J.I.I.I.J.I.U.U.I.I.$X$X$X$X$X$X$X$X$X$X$X|.@X#X.X#X#X.X.X.X.X.XXX8 . ",
"a.a.a.f.p.p.s.g.g.j.0.> . . . . . . . . . . . X F Z.Z.J.L.J.J.J.I.I.I.U.U.@XI.@XU.@X@X$X$X$X@X|.@X#X].|..X#X.X.X.X.X.X.XXXXX< . ",
"a.a.f.f.g.g.g.g.g.A . . . . . $X$X$X$X$X$X$X$X$X. 3 3.Z.L.J.J.I.J.U.I.U.U.U.I.@XU.@X@X@X@X@X@X@X].@X].].#X.X#X.X#X.X.X.XXX_.. . ",
"$Xa.a.f.p.g.g.k.y . . . . $X$X$X$X$X$X$X$X$X$X$X$X$X& _ J.J.J.J.U.J.I.U.I.@XI.@XU.@XU.@X].@X@X@X].].].]..X#X.X.X.X.X.X.X}.t . . ",
"$X$X9.f.f.s.e.= . . . $X$X$X$X$X$X$X$X$X$X$X$X$X$X$X$X$X1.J.J.J.J.U.I.U.U.U.U.@X@X@X@X@X+X+X+XV.@X].].].].[..X#X#X|.|.|.z . . . ",
"$X$X$X> > = . . . . $X$X$X$X$X$X$X$X$X$X$X$X$X$X$X$X$X$X$X4.J.J.U.J.I.U.I.@X@XI.U.@X@X@XR.+X+X].#X].].].[.[.#X.XXX|._.q . . . $X",
"$X$X$X$X. . . . . $X$X$X$X$X$X$X$X$X$X$X$X$X$X$X$X$X$X$X$X$XD b.J.U.I.U.U.U.U.U.U.@XU.@X+X+XU.].#X#X].].[.[.[.#X#X8.< . . . $X$X",
"$X$X$X$X$X$X$X$X$X$X$X$X$X$X$X$X$X$X$X$X$X$X$X$X$X$X$X$X$X$X$X& O.J.I.U.U.I.@X@XU.@X@X@X+X].@X].#X#X].].[.[.XX'.v . . . . $X$X$X",
"$X$X$X$X$X$X$X$X$X$X$X$X$X$X$X$X$X$X$X$X$X$X$X$X$X$X$X$X$X$X$X$X$Xe %.U.U.U.U.@X@X@X@X@X@X@X@X].#X#X#X#X#X).P   . . . . $X$X$X$X",
"$X$X$X$X$X$X$X$X$X$X$X$X$X$X$X$X$X$X$X$X$X$X$X$X$X$X$X$X$X$X$X$X$X$X. # c 4.U.I.U.U.U.@X].@X@X@X#X@X|.*.z . . . . . $X$X$X$X$X$X",
"$X$X$X$X$X$X$X$X$X$X$X$X$X$X$X$X$X$X$X$X$X$X$X$X$X$X$X$X$X$X$X$X$X$X$X$X. . X t J %.,.,.5.5.:.T v q . . . . . . $X$X$X$X$X$X$X$X",
"$X$X$X$X$X$X$X$X$X$X$X$X$X$X$X$X$X$X$X$X$X$X$X$X$X$X$X$X$X$X$X$X$X$X$X$X$X$X$X. . . . . . . . . . . . . . . $X$X$X$X$X$X$X$X$X$X",
"$X$X$X$X$X$X$X$X$X$X$X$X$X$X$X$X$X$X$X$X$X$X$X$X$X$X$X$X$X$X$X$X$X$X$X$X$X$X$X$X$X$X. . . . . . . . $X$X$X$X$X$X$X$X$X$X$X$X$X$X",
"$X$X$X$X$X$X$X$X$X$X$X$X$X$X$X$X$X$X$X$X$X$X$X$X$X$X$X$X$X$X$X$X$X$X$X$X$X$X$X$X$X$X$X$X$X$X$X$X$X$X$X$X$X$X$X$X$X$X$X$X$X$X$X$X",
"$X$X$X$X$X$X$X$X$X$X$X$X$X$X$X$X$X$X$X$X$X$X$X$X$X$X$X$X$X$X$X$X$X$X$X$X$X$X$X$X$X$X$X$X$X$X$X$X$X$X$X$X$X$X$X$X$X$X$X$X$X$X$X$X",
"$X$X$X$X$X$X$X$X$X$X$X$X$X$X$X$X$X$X$X$X$X$X$X$X$X$X$X$X$X$X$X$X$X$X$X$X$X$X$X$X$X$X$X$X$X$X$X$X$X$X$X$X$X$X$X$X$X$X$X$X$X$X$X$X"
};
