/* XPM */
static const char *ACtwinkle_64[] = {
/* columns rows colors chars-per-pixel */
"64 64 224 2 ",
"   c #5F575D",
".  c #5F575E",
"X  c #58585A",
"o  c #5E585E",
"O  c #60575F",
"+  c #645661",
"@  c #665661",
"#  c #665761",
"$  c #655662",
"%  c #665662",
"&  c #695663",
"*  c #6B5767",
"=  c #6D5665",
"-  c #6C5566",
";  c #6C5666",
":  c #73556A",
">  c #72556B",
",  c #745569",
"<  c #74556C",
"1  c #7B546C",
"2  c #7A546D",
"3  c #79546F",
"4  c #78566F",
"5  c #7D546D",
"6  c #7F5573",
"7  c #7E5674",
"8  c #83546E",
"9  c #825370",
"0  c #805372",
"q  c #815372",
"w  c #805373",
"e  c #825373",
"r  c #845372",
"t  c #805473",
"y  c #875276",
"u  c #895273",
"i  c #8D537B",
"p  c #885479",
"a  c #8C547C",
"s  c #915275",
"d  c #905277",
"f  c #92517C",
"g  c #93517C",
"h  c #93517F",
"j  c #91527E",
"k  c #94517C",
"l  c #95507D",
"z  c #97517C",
"x  c #96517D",
"c  c #95507E",
"v  c #94517F",
"b  c #9D507F",
"n  c #A3507F",
"m  c #A6507E",
"M  c #9C4F82",
"N  c #9F4F86",
"B  c #935380",
"V  c #925480",
"C  c #9A5183",
"Z  c #9D5080",
"A  c #9E5186",
"S  c #9F5388",
"D  c #9F5488",
"F  c #A44F83",
"G  c #A24F87",
"H  c #A44F84",
"J  c #AB4E86",
"K  c #AB4E88",
"L  c #AA4E89",
"P  c #AB4D8B",
"I  c #A84E8B",
"U  c #AF4D8F",
"Y  c #B14D8D",
"T  c #B04D8E",
"R  c #B94D8D",
"E  c #B94D8E",
"W  c #A55080",
"Q  c #A6518C",
"!  c #AE4D90",
"~  c #AE4E90",
"^  c #B74C92",
"/  c #B64C93",
"(  c #B84D90",
")  c #BE4C90",
"_  c #BD4B94",
"`  c #BD4B95",
"'  c #BD4B96",
"]  c #BC4B97",
"[  c #BB4D98",
"{  c #BA4E98",
"}  c #AC5290",
"|  c #B25195",
" . c #B55296",
".. c #B85299",
"X. c #BF509D",
"o. c #BF519D",
"O. c #BF529D",
"+. c #BE529E",
"@. c #C34D8B",
"#. c #C24D8D",
"$. c #CA4C8D",
"%. c #C94C8F",
"&. c #CA4C8E",
"*. c #CA4C8F",
"=. c #C04C90",
"-. c #C04C91",
";. c #C04C92",
":. c #C74B94",
">. c #C74B95",
",. c #C64B96",
"<. c #C74B96",
"1. c #C64B97",
"2. c #C84B93",
"3. c #C94C90",
"4. c #C84C91",
"5. c #C94C91",
"6. c #C84C92",
"7. c #C84C93",
"8. c #C84B94",
"9. c #C34A9B",
"0. c #C54B98",
"q. c #C44A99",
"w. c #C54A99",
"e. c #C54B99",
"r. c #C44A9A",
"t. c #C24B9C",
"y. c #C34B9C",
"u. c #C14D9C",
"i. c #C14D9D",
"p. c #C24C9C",
"a. c #C04E9C",
"s. c #C14E9D",
"d. c #C04F9D",
"f. c #CB5798",
"g. c #CB5799",
"h. c #CB569B",
"j. c #CA569D",
"k. c #C8559F",
"l. c #C9569E",
"z. c #C9569F",
"x. c #CA569E",
"c. c #C755A1",
"v. c #C855A0",
"b. c #C558A2",
"n. c #C459A2",
"m. c #C559A3",
"M. c #C45AA3",
"N. c #CF62A0",
"B. c #CE62A1",
"V. c #CF62A1",
"C. c #CD62A3",
"Z. c #CE62A2",
"A. c #CE62A3",
"S. c #CB61A6",
"D. c #CD62A4",
"F. c #CC61A6",
"G. c #C766A9",
"H. c #CF6CAD",
"J. c #CC6FAF",
"K. c #D06DAB",
"L. c #D06CAC",
"P. c #D06DAC",
"I. c #CB71AF",
"U. c #CC70AF",
"Y. c #D679AC",
"T. c #D578AF",
"R. c #D678AE",
"E. c #D377B3",
"W. c #D477B2",
"Q. c #D578B0",
"!. c #D478B1",
"~. c #D478B2",
"^. c #D17AB5",
"/. c #D984B3",
"(. c #D983B5",
"). c #D783B8",
"_. c #D683BA",
"`. c #DD8FBA",
"'. c #DA8EBF",
"]. c #DB8EBF",
"[. c #DD8FBC",
"{. c #DC8FBD",
"}. c #DA8EC0",
"|. c #DA8EC1",
" X c #D890C2",
".X c #DE9AC6",
"XX c #DB9DC8",
"oX c #DC9CC8",
"OX c #E09AC2",
"+X c #E3A5CA",
"@X c #E3A5CB",
"#X c #E1A5CD",
"$X c #E2A5CD",
"%X c #E7B1CF",
"&X c #E6B0D1",
"*X c #E5B0D3",
"=X c #E6B0D2",
"-X c #E4B1D4",
";X c #E4B2D4",
":X c #EABCD6",
">X c #EABCD7",
",X c #E9BBD9",
"<X c #E9BBDA",
"1X c #EABCD8",
"2X c #EDC6DF",
"3X c #EEC7DE",
"4X c #ECC6E0",
"5X c #EBC8E0",
"6X c #F1D2E4",
"7X c #F1D2E5",
"8X c #F0D2E6",
"9X c #F5DDEB",
"0X c #F3DEEC",
"qX c #F3DEED",
"wX c #F4DDEC",
"eX c #F7E9F3",
"rX c #F8E8F2",
"tX c #F8E9F2",
"yX c #F8E8F3",
"uX c #FBF4F8",
"iX c #FBF4F9",
"pX c #FCF4F8",
"aX c white",
"sX c None",
/* pixels */
"sXsXsXsXsXsXsXsXsXsXsXsXsXsXsXsXsXsXsXsXsXsXsXsXsXsXsXsXsXsXsXsXsXsXsXsXsXsXsXsXsXsXsXsXsXsXsXsXsXsXsXsXsXsXsXsXsXsXsXsXsXsXsXsX",
"sXsXsXsXsXsXsXsXsXsXsXsXsXsXsXsXsXsXsXsXsXsXsXsXsXsXsXsXsXsXsXsXsXsXr.r.r.sXsXsXsXsXsXsXsXsXsXsXsXsXsXsXsXsXsXsXsXsXsXsXsXsXsXsX",
"sXsXsXsXsXsXsXsXsXsXsXsXsXsXsXsXsXsXsXsXsXsXsXsXsXsXsXsXsXsXsXsXsXsXr.r.0.y.sXsXsXsXsXsXsXsXsXsXsXsXsXsXsXsXsXsXsXsXsXsXsXsXsXsX",
"sXsXsXsXsXsXsXsXsXsXsXsXsXsXsXsXsXsXsXsXsXsXsXsXsXsXsXsXsXsXsXsXsX0.r.r.y.y.y sXsXsXsXsXsXsXsXsXsXsXsXsXsXsXsXsXsXsXsXsXsXsXsXsX",
"sXsXsXsXsXsXsXsXsXsXsXsXsXsXsXsXsXsXsXsXsXsXsXsXsXsXsXsXsXsXsXsXsX9.w.9.0.9./ X sXsXsXsXsXsXsXsXsXsXsXsXsXsXsXsXsXsXsXsXsXsXsXsX",
"sXsXsXsXsXsXsXsXsXsXsXsXsXsXsXsXsXsXsXsXsXsXsXsXsXsXsXsXsXsXsXsXsXw.9.9.9.9.9.< sXsXsXsXsXsXsXsXsXsXsXsXsXsXsXsXsXsXsXsXsXsXsXsX",
"sXsXsXsXsXsXsXsXsXsXsXsXsXsXsXsXsXsXsXsXsXsXsXsXsXsXsXsXsXsXsXsX0.0.9.9.9.9.9.! O sXsXsXsXsXsXsXsXsXsXsXsXsXsXsXsXsXsXsXsXsXsXsX",
"sXsXsXsXsXsXsXsXsXsXsXsXsXsXsXsXsXsXsXsXsXsXsXsXsXsXsXsXsXsXsX0.r.0.9.E.L.9.9.9.U sXsXsXsXsXsXsXsXsXsXsXsXsXsXsXsXsXsXsXsXsXsXsX",
"sXsXsXsXsXsXsXsXsXsXsXsXsXsXsXsXsXsXsXsXsXsXsXsXsXsXsXsXsXw.r.r.r.r.r.wXwX9.9.9.9.9.y.sXsXsXsXsXsXsXsXsXsXsXsXsXsXsXsXsXsXsXsXsX",
"sXsXsXsXsXsXsXsXsXsXsXsXsXsXsXsXsXsXsXsXsXsXsXsXsXsXsXe.w.w.0.r.r.r.<XaXaX<X9.9.9.9.y.y.i.sXsXsXsXsXsXsXsXsXsXsXsXsXsXsXsXsXsXsX",
"sXsXsXsXsXsXsXsXsXsXsXsX7.2.:.sXsXsXsXsXsXsXsXsXsXsXe.e.w.w.1.r.c.3XaXaXaXaX4Xc.9.9.y.y.9.i.h sXsXsXsXsXsXsXsXsXsXsXsXsXsXsXsXsX",
"sXsXsXsXsXsXsXsXsXsXsXsX7.2.:.=.sXsXsXsXsXsXsXsXsXe.w.w.w.w.1.m.rXaXaXaXaXaXaXrX9.9.y.y.u.u.i X sXsXsXsXsXsXsXsXsXsXsXsXsXsXsXsX",
"sXsXsXsXsXsXsXsXsXsXsX%.7.2.:.:.5 sXsXsXsXsXsXsXsXe.e.e.0.0.9.9.v.8XaXaXaXaX2Xc.9.9.y.y.] i.> X sXsXsXsXsXsXsXsXsXsXsXsXsXsXsXsX",
"sXsXsXsXsXsXsXsXsXsXsX7.7.2.:.:.Z X sXsXsXsXsXsXsXsXx Y 0.0.9.9.9.9.<XaXaX<X9.9.9.9.y.y.! 6 X X X sXsXsXsXsXsXsXsXsXsXsXsXsXsXsX",
"sXsXsXsXsXsXsXsXsXsX7.7.7.2.:.:.=.o sXsXsXsXsXsXsXsXsXX ; c ] 0.9.w.k.9X9X9.9.9.9.] h - X X X X sXsXsXsXsXsXsXsXsXsXsXsXsXsXsXsX",
"sXsXsXsXsXsXsXsXsXsX7.7.7.2.:.:.>.r X sXsXsXsXsXsXsXsXsXsXX O ! 9.9.9.W.H.9.9.9.U . X X X X X sXsXsXsXsXsXsXsXsXsXsXsXsXsXsXsXsX",
"sXsXsXsXsXsXsXsXsXsX7.7.7.T.:.:.:.E O sXsXsXsXsXsXsXsXsXsXsXsX$ ;.9.w.9.0.9.9.U . X X X sXsXsXsXsXsXsXsXsXsXsXsXsXsXsXsXsXsXsXsX",
"sXsXsXsXsXsXsXsXsX4.7.7.7.tX(.:.:.:.Z sXsXsXsXsXsXsXsXsXsXsXsXsXsXw.9.9.9.9.9.> X X X sXsXsXsXsXsXsXsXsXsXsXsXsXsXsXsXsXsXsXsXsX",
"sXsXsXsXsXsXsXsX4.4.%.7.`.aXtX:.:.0.8.z sXsXsXsXsXsXsXsXsXsXsXsXsX0.9.9.0.y./ X X X sXsXsXsXsXsXsXsXsXsXsXsXsXsXsXsXsXsXsXsXsXsX",
"sXsXsXsXsXsXsX7.4.4.4.N.pXaXaX+X:.:.1.1.:.sXsXsXsXsXsXsXsXsXsXsXsX0.9.9.9.y.y X X sXsXsXsXsXsXsXsXsXsXsXsXsXsXsXsXsXsXsXsXsXsXsX",
"sXsXsXsXsX%.7.%.7.7.f.9XaXaXaXaX{.<.0.:.:.0.8.sXsXsXsXsXsXsXsXsXsXsXr.r.9.9.# X X sXsXsXsXsXsXsXsXsXsXsXsXsXsXsXsXsXsXsXsXsXsXsX",
"sXsX&.%.7.%.%.7.7.f.9XaXaXaXaXaXaX].8.:.0.0.0.0.0.0.sXsXsXsXsXsXsXsXr.r.9.L X X sXsXsXsXsXsXsXsXsXsXsXsXsXsXsXsXsXsXsXsXsXsXsXsX",
"&.&.&.%.%.7.7.%./.pXaXaXaXaXaXaXaXaX3Xx.8.1.1.1.0.0.0.sXsXsXsXsXsXsXsXX X X X X sXsXsXsXsXsXsXsXsXsXi.d.d.d.sXsXsXsXsXsXsXsXsXsX",
"&.&.%.%.%.%.Y.6XaXaXaXaXaXaXaXaXaXaXaXpX=X1.1.1.0.0.0.x sXsXsXsXsXsXsXsXX X X X sXsXsXsXsXsXsXsXsXsXi.i.d.d.p sXsXsXsXsXsXsXsXsX",
"&.&.&.%.%.7.%.`.pXaXaXaXaXaXaXaXaXaXaX1XA.0.0.0.0.0.0.e X sXsXsXsXsXsXsXsXsXsXsXsXsXsXsXsXsXsXsXsXsXu.d.d.d.A X sXsXsXsXsXsXsXsX",
"sX@.&.%.%.%.7.%.f.:XaXaXaXaXaXaXaXpX!.:.8.0.:.0.0.0.L X X sXsXsXsXsXsXsXsXsXsXsXsXsXsXsXsXsXsXsXsXu.d.u.d.i.+.o sXsXsXsXsXsXsXsX",
"sXsX8 m %.7.%.7.%.7.OXaXaXaXaXaX9XA.8.0.0.0.0.( x # X X X sXsXsXsXsXsXsXsXsXsXsXsXsXsXsXsXsXsXsXsXi.i.d.d.d.X.i X sXsXsXsXsXsXsX",
"sXsXsXX # s #.7.4.7.7.%XaXaXaXpXh.8.1.8.:.K 2 X X X X X X sXsXsXsXsXsXsXsXsXsXsXsXsXsXsXsXsXsXsXu.u.d.u.d.d.X.X.6 sXsXsXsXsXsXsX",
"sXsXsXsXsXX O m 4.4.4.4.7XaXaXT.8.:.1.;.5 X X X X X sXsXsX0.sXsXsXsXsXsXsXsXsXsXsXsXsXsXsXsXsXu.i.u.i.I.oXi.+.X.+. .sXsXsXsXsXsX",
"sXsXsXsXsXsXsXX n 4.4.%.B.aX>X:.0.:.=.; X X X X sXsXsXsX0.r.0.r.sXsXsXsXsXsXsXsXsXsXsXsXi.u.i.u.i.u.M.9XaXI.X.X.d.O.O.O.sXsXsXsX",
"sXsXsXsXsXsXsXsXsX7.7.7.7.>XB.:.8.:.2 X X X sXsXsXsXsX0.r.1.r.r.e sXsXsXsXsXsXsXsXsXsXy.0.i.u.u.i.M.qXaXaXuXI.+.O.+.O.O.+.+.sXsX",
"sXsXsXsXsXsXsXsXsXsX7.7.7.2.:.:.8.H X X X sXsXsXsXsXsX0.0.r.r.r.M X sXsXsXsXsXsXsXsXy.y.i.y.u.u.^.eXaXaXaXaXaXXXO.d.d.+.+.+.X sX",
"sXsXsXsXsXsXsXsXsXsX7.7.7.2.:.:.<.< X X sXsXsXsXsXsXsX0.w.9.0.y.r.+ sXsXsXsXsXsXsXsXr.y.y.i.u.u.i.=XaXaXaXaXqXG.d.d.O.O.+.+.X X ",
"sXsXsXsXsXsXsXsXsXsXsX7.7.2.:.:.R X X X sXsXsXsXsXsXr.r.w.9.9.0.9.6 X sXsXsXsXsXsXsXA ! i.y.u.u.i.u. XaXaX2X+.[ O.d.O.O...7 X X ",
"sXsXsXsXsXsXsXsXsXsXsX7.7.2.:.:.s X X sXsXsXsXsXsXsX0.0.w.L.0.y.9.T X sXsXsXsXsXsXsXsXX ; h [ i.i.i.i.;XtXM.X.d.O.O.D 4 X X X X ",
"sXsXsXsXsXsXsXsXsXsXsX7.7.2.:.:.% X X sXsXsXsXsXsX0.0.:.w.2XE.r.0.9.> sXsXsXsXsXsXsXsXsXsXX . C i.i.i.n.I.d.X.+.} * X X X X X sX",
"sXsXsXsXsXsXsXsXsXsXsXsX<.7.2.J X X sXsXsXsXsXsXsX0.0.r.m.aX1X0.q.9./ X sXsXsXsXsXsXsXsXsXsXsXX A u.i.d.d.d.d.| o X X X X sXsXsX",
"sXsXsXsXsXsXsXsXsXsXsXsXsXd u . X X sXsXsXsXsXsX0.0.e.e.<XaXaXH.9.9.9.M sXsXsXsXsXsXsXsXsXsXsXsXsXu.d.u.d.d.+.4 X X X sXsXsXsXsX",
"sXsXsXsXsXsXsXsXsXsXsXsXsXsXX X X X sXsXsXsXsXe.e.e.e.E.aXaXaX8Xq.9.r.r.P sXsXsXsXsXsXsXsXsXsXsXsXi.i.d.d.d.| X X X sXsXsXsXsXsX",
"sXsXsXsXsXsXsXsXsXsXsXsXsXsXsXX sXsXsXsXsXsX<.<.<.e.v.tXaXaXaXaX+Xq.r.r.r.0.sXsXsXsXsXsXsXsXsXsXsXsXd.u.d.d.j X X sXsXsXsXsXsXsX",
"sXsXsXsXsXsXsXsXsXsXsXsXsXsXsXsXsXsXsXsX>.>.e.>.:.c.wXaXaXaXaXaXaX'.9.9.9.y.9.9.sXsXsXsXsXsXsXsXsXsXi.d.d.d.* X X sXsXsXsXsXsXsX",
"sXsXsXsXsXsXsXsXsXsXsXsXsXsXsXsXsX<.<.<.>.e.>.e.x.9XaXaXaXaXaXaXaXaX}.0.0.9.9.9.9.9.sXsXsXsXsXsXsXsXsXQ Q V X X sXsXsXsXsXsXsXsX",
"sXsXsXsXsXsXsXsXsXsXsXsXsXsXsX:.<.7.<.<.0.:.e.!.rXaXaXaXaXaXaXaXaXaXaX3Xc.9.9.9.9.9.y.y.i.sXsXsXsXsXsXsXX X X X sXsXsXsXsXsXsXsX",
"sXsXsXsXsXsXsXsXsXsXsXsXsXsX:.:.<.<.<.<.:.A.1XaXaXaXaXaXaXaXaXaXaXaXaXaXiX#Xc.9.9.9.y.y.i.[ sXsXsXsXsXsXsXX X sXsXsXsXsXsXsXsXsX",
"sXsXsXsXsXsXsXsXsXsXsXsXsX8.:.:.8.1.1.A.7XaXaXaXaXaXaXaXaXaXaXaXaXaXaXaXaXaXiX*X9.9.y.y.y.] > sXsXsXsXsXsXsXsXsXsXsXsXsXsXsXsXsX",
"sXsXsXsXsXsXsXsXsXsXsXsXsXsX:.4.8.8.8.1.A.$XiXaXaXaXaXaXaXaXaXaXaXaXaXaXaX8X}.9.9.9.y.y.y.i.+ X sXsXsXsXsXsXsXsXsXsXsXsXsXsXsXsX",
"sXsXsXsXsXsXsXsXsXsXsXsXsXsX) >.0.8.0.8.:.0.x.=XaXaXaXaXaXaXaXaXaXaXaXiX_.9.9.9.9.9.y.y.[ t X X sXsXsXsXsXsXsXsXsXsXsXsXsXsXsXsX",
"sXsXsXsXsXsXsXsXsXsXsXsXsXsXsX- d ( :.0.:.0.0.:._.iXaXaXaXaXaXaXaXaXqXk.9.9.9.9.9.9.G 6 X X X X sXsXsXsXsXsXsXsXsXsXsXsXsXsXsXsX",
"sXsXsXsXsXsXsXsXsXsXsXsXsXsXsXsXX X < Z :.0.0.0.0.K.pXaXaXaXaXaXaX<X9.9.0.9.i./ y % X X X X X sXsXsXsXsXsXsXsXsXsXsXsXsXsXsXsXsX",
"sXsXsXsXsXsXsXsXsXsXsXsXsXsXsXsXsXsXsXX # H 0.:.0.0.P.aXaXaXaXaX9X9.9.9.0.] e X X X X X X sXsXsXsXsXsXsXsXsXsXsXsXsXsXsXsXsXsXsX",
"sXsXsXsXsXsXsXsXsXsXsXsXsXsXsXsXsXsXsXsXsXX r 0.0.0.0..XaXaXaXpXk.9.y.0.! # X X X X sXsXsXsXsXsXsXsXsXsXsXsXsXsXsXsXsXsXsXsXsXsX",
"sXsXsXsXsXsXsXsXsXsXsXsXsXsXsXsXsXsXsXsXsXsXsXx 0.0.0.0.wXaXaX}.9.9.0.T . X X X sXsXsXsXsXsXsXsXsXsXsXsXsXsXsXsXsXsXsXsXsXsXsXsX",
"sXsXsXsXsXsXsXsXsXsXsXsXsXsXsXsXsXsXsXsXsXsXsXsX0.0.e.e.E.aXrX9.9.9.;.@ X X X sXsXsXsXsXsXsXsXsXsXsXsXsXsXsXsXsXsXsXsXsXsXsXsXsX",
"sXsXsXsXsXsXsXsXsXsXsXsXsXsXsXsXsXsXsXsXsXsXsXsXsX0.e.e.0.tX].9.9.w.y X X X sXsXsXsXsXsXsXsXsXsXsXsXsXsXsXsXsXsXsXsXsXsXsXsXsXsX",
"sXsXsXsXsXsXsXsXsXsXsXsXsXsXsXsXsXsXsXsXsXsXsXsXsXsX0.e.0.|.v.9.9.^ X X X sXsXsXsXsXsXsXsXsXsXsXsXsXsXsXsXsXsXsXsXsXsXsXsXsXsXsX",
"sXsXsXsXsXsXsXsXsXsXsXsXsXsXsXsXsXsXsXsXsXsXsXsXsXsX0.r.0.0.0.9.9.c X X sXsXsXsXsXsXsXsXsXsXsXsXsXsXsXsXsXsXsXsXsXsXsXsXsXsXsXsX",
"sXsXsXsXsXsXsXsXsXsXsXsXsXsXsXsXsXsXsXsXsXsXsXsXsXsX0.0.w.w.0.9.9.& X X sXsXsXsXsXsXsXsXsXsXsXsXsXsXsXsXsXsXsXsXsXsXsXsXsXsXsXsX",
"sXsXsXsXsXsXsXsXsXsXsXsXsXsXsXsXsXsXsXsXsXsXsXsXsXsXsX0.w.9.9.0.Y X X sXsXsXsXsXsXsXsXsXsXsXsXsXsXsXsXsXsXsXsXsXsXsXsXsXsXsXsXsX",
"sXsXsXsXsXsXsXsXsXsXsXsXsXsXsXsXsXsXsXsXsXsXsXsXsXsXsX0.w.w.0.9.e X X sXsXsXsXsXsXsXsXsXsXsXsXsXsXsXsXsXsXsXsXsXsXsXsXsXsXsXsXsX",
"sXsXsXsXsXsXsXsXsXsXsXsXsXsXsXsXsXsXsXsXsXsXsXsXsXsXsXsXw.w.9.0.. X X sXsXsXsXsXsXsXsXsXsXsXsXsXsXsXsXsXsXsXsXsXsXsXsXsXsXsXsXsX",
"sXsXsXsXsXsXsXsXsXsXsXsXsXsXsXsXsXsXsXsXsXsXsXsXsXsXsXsX] :.] e X X sXsXsXsXsXsXsXsXsXsXsXsXsXsXsXsXsXsXsXsXsXsXsXsXsXsXsXsXsXsX",
"sXsXsXsXsXsXsXsXsXsXsXsXsXsXsXsXsXsXsXsXsXsXsXsXsXsXsXsXsXX X X X X sXsXsXsXsXsXsXsXsXsXsXsXsXsXsXsXsXsXsXsXsXsXsXsXsXsXsXsXsXsX",
"sXsXsXsXsXsXsXsXsXsXsXsXsXsXsXsXsXsXsXsXsXsXsXsXsXsXsXsXsXsXX X X sXsXsXsXsXsXsXsXsXsXsXsXsXsXsXsXsXsXsXsXsXsXsXsXsXsXsXsXsXsXsX",
"sXsXsXsXsXsXsXsXsXsXsXsXsXsXsXsXsXsXsXsXsXsXsXsXsXsXsXsXsXsXsXsXsXsXsXsXsXsXsXsXsXsXsXsXsXsXsXsXsXsXsXsXsXsXsXsXsXsXsXsXsXsXsXsX"
};
