/* XPM */
static const char *ACtwinkle_48[] = {
/* columns rows colors chars-per-pixel */
"48 48 194 2 ",
"   c #5F575E",
".  c #58585A",
"X  c #5E585E",
"o  c #60575E",
"O  c #60575F",
"+  c #665661",
"@  c #655662",
"#  c #655762",
"$  c #665662",
"%  c #665763",
"&  c #6D5665",
"*  c #6C5566",
"=  c #6E5566",
"-  c #705669",
";  c #73556A",
":  c #73556B",
">  c #72566B",
",  c #745569",
"<  c #76556A",
"1  c #77546C",
"2  c #7B546C",
"3  c #79546E",
"4  c #78556E",
"5  c #79546F",
"6  c #7F5573",
"7  c #805372",
"8  c #845373",
"9  c #805473",
"0  c #875276",
"q  c #895372",
"w  c #8B5275",
"e  c #885276",
"r  c #855578",
"t  c #895278",
"y  c #8F5279",
"u  c #8E517A",
"i  c #8B557C",
"p  c #8C547C",
"a  c #905277",
"s  c #905278",
"d  c #975179",
"f  c #92517C",
"g  c #96517C",
"h  c #94507F",
"j  c #9D507E",
"k  c #9D507F",
"l  c #9C4F82",
"z  c #9A5083",
"x  c #9A5183",
"c  c #9D5080",
"v  c #995284",
"b  c #985485",
"n  c #A14F83",
"m  c #A34E85",
"M  c #A14F87",
"N  c #A94F82",
"B  c #AC4F81",
"V  c #A44E88",
"C  c #A74F8C",
"Z  c #A84E8B",
"A  c #A84F8C",
"S  c #AB4F8E",
"D  c #AE4D8E",
"F  c #AF4D8F",
"G  c #B24D8A",
"H  c #B24D8B",
"J  c #B04D8E",
"K  c #B44C8F",
"L  c #BB4E8A",
"P  c #B94D8D",
"I  c #A05087",
"U  c #B04E91",
"Y  c #B74C91",
"T  c #B74C92",
"R  c #B64C93",
"E  c #BA4B93",
"W  c #B84D90",
"Q  c #BF4C92",
"!  c #BD4B96",
"~  c #BC4B97",
"^  c #BB4D98",
"/  c #AB5190",
"(  c #AC5290",
")  c #B25195",
"_  c #B25395",
"`  c #BF509D",
"'  c #BE519D",
"]  c #BF519D",
"[  c #BF529D",
"{  c #BE529E",
"}  c #C94C8F",
"|  c #CA4C8E",
" . c #CA4C8F",
".. c #C04C90",
"X. c #C04C91",
"o. c #C74B94",
"O. c #C74B95",
"+. c #C64B96",
"@. c #C74B96",
"#. c #C64B97",
"$. c #C84B93",
"%. c #C94C90",
"&. c #C84C91",
"*. c #C94C91",
"=. c #C84C92",
"-. c #C84C93",
";. c #C34A9B",
":. c #C54B98",
">. c #C44A99",
",. c #C54A99",
"<. c #C54B99",
"1. c #C44A9A",
"2. c #C44A9B",
"3. c #C24B9C",
"4. c #C34B9C",
"5. c #C14D9C",
"6. c #C14D9D",
"7. c #C24C9C",
"8. c #C24D9C",
"9. c #C04E9C",
"0. c #C14E9C",
"q. c #C14E9D",
"w. c #C04F9D",
"e. c #CC5797",
"r. c #CB5798",
"t. c #CB5799",
"y. c #CB569B",
"u. c #C8559F",
"i. c #C9559F",
"p. c #C9569F",
"a. c #CA569E",
"s. c #C755A1",
"d. c #C855A0",
"f. c #C459A2",
"g. c #C558A3",
"h. c #CF62A0",
"j. c #CE62A1",
"k. c #CD62A3",
"l. c #CE62A3",
"z. c #CB61A6",
"x. c #CB61A7",
"c. c #CB61A8",
"v. c #CF6CAD",
"b. c #CD6FAF",
"n. c #D26EA6",
"m. c #D26DA9",
"M. c #CC70AF",
"N. c #D679AE",
"B. c #CF7CB6",
"V. c #D377B3",
"C. c #D277B4",
"Z. c #D578B0",
"A. c #D07AB5",
"S. c #D17AB5",
"D. c #D07BB5",
"F. c #D984B3",
"G. c #D983B5",
"H. c #D883B7",
"J. c #D683BA",
"K. c #DB8FBE",
"L. c #DC8FBC",
"P. c #DC8FBD",
"I. c #DA8EC0",
"U. c #D791C2",
"Y. c #DE99C6",
"T. c #E09AC2",
"R. c #DFA8CE",
"E. c #E2A5CC",
"W. c #E0A7CE",
"Q. c #E7B0D0",
"!. c #E6B0D1",
"~. c #E7B0D1",
"^. c #E5B0D3",
"/. c #EABCD6",
"(. c #E9BBD9",
"). c #E9BBDA",
"_. c #E9BCD8",
"`. c #EDC6DF",
"'. c #EDC7DF",
"]. c #ECC6E0",
"[. c #F1D2E4",
"{. c #F0D2E6",
"}. c #F1D2E6",
"|. c #F0D3E6",
" X c #F4DDEB",
".X c #F5DDEB",
"XX c #F4DDEC",
"oX c #F8E9F1",
"OX c #F8E8F2",
"+X c #F8E9F2",
"@X c #FBF4F9",
"#X c #FCF4F8",
"$X c white",
"%X c None",
/* pixels */
"%X%X%X%X%X%X%X%X%X%X%X%X%X%X%X%X%X%X%X%X%X%X%X%X%X%X%X%X%X%X%X%X%X%X%X%X%X%X%X%X%X%X%X%X%X%X%X%X",
"%X%X%X%X%X%X%X%X%X%X%X%X%X%X%X%X%X%X%X%X%X%X%X%X%X:.2.2.F %X%X%X%X%X%X%X%X%X%X%X%X%X%X%X%X%X%X%X",
"%X%X%X%X%X%X%X%X%X%X%X%X%X%X%X%X%X%X%X%X%X%X%X%X%X2.:.2.R . %X%X%X%X%X%X%X%X%X%X%X%X%X%X%X%X%X%X",
"%X%X%X%X%X%X%X%X%X%X%X%X%X%X%X%X%X%X%X%X%X%X%X%X%X2.;.2.;.: %X%X%X%X%X%X%X%X%X%X%X%X%X%X%X%X%X%X",
"%X%X%X%X%X%X%X%X%X%X%X%X%X%X%X%X%X%X%X%X%X%X%X%X2.;.;.:.;.Z . %X%X%X%X%X%X%X%X%X%X%X%X%X%X%X%X%X",
"%X%X%X%X%X%X%X%X%X%X%X%X%X%X%X%X%X%X%X%X%X%X%X2.:.:.v.x.;.;.V %X%X%X%X%X%X%X%X%X%X%X%X%X%X%X%X%X",
"%X%X%X%X%X%X%X%X%X%X%X%X%X%X%X%X%X%X%X%X%X:.:.2.;.d.XX{.;.;.;.;.;.%X%X%X%X%X%X%X%X%X%X%X%X%X%X%X",
"%X%X%X%X%X%X%X%X%X%X%X%X%X%X%X%X%X%X%X:.:.:.:.;.d.XX$X$X).s.;.;.7.7.U %X%X%X%X%X%X%X%X%X%X%X%X%X",
"%X%X%X%X%X%X%X%X%X-.O...%X%X%X%X%X%X%X:.:.2.:.d.XX$X$X$X$XXX4.4.7.7.^ . %X%X%X%X%X%X%X%X%X%X%X%X",
"%X%X%X%X%X%X%X%X%.O.O.O.< %X%X%X%X%X%X:.:.:.:.;.v.XX$X$XXXg.4.4.7.7.c . %X%X%X%X%X%X%X%X%X%X%X%X",
"%X%X%X%X%X%X%X%X%.O.=.o.j . %X%X%X%X%X%X0 m :.:.:.s.OXXXd.2.2.4.I 5 . . %X%X%X%X%X%X%X%X%X%X%X%X",
"%X%X%X%X%X%X%X=.=.=.o.o.Q # %X%X%X%X%X%X%X. $ J ;.:.C.C.2.2.A % . . . . %X%X%X%X%X%X%X%X%X%X%X%X",
"%X%X%X%X%X%X%X%.=.O.P.o.o.s %X%X%X%X%X%X%X%X%X%X! ;.o.;.;.F . . . %X%X%X%X%X%X%X%X%X%X%X%X%X%X%X",
"%X%X%X%X%X%X=.=.%.T.+Xr.o.o.s %X%X%X%X%X%X%X%X%X%X;.;.;.;.5 . . %X%X%X%X%X%X%X%X%X%X%X%X%X%X%X%X",
"%X%X%X%X%X=.=.=.j.#X$XQ.:.@.@.o.%X%X%X%X%X%X%X%X%X:.;.;.~ . . %X%X%X%X%X%X%X%X%X%X%X%X%X%X%X%X%X",
"%X%X%X%.%.%.=.r..X$X$X$XP.@.@.o.:.:.%X%X%X%X%X%X%X;.;.;.z . . %X%X%X%X%X%X%X%X%X%X%X%X%X%X%X%X%X",
"} } } %.%.=.n.+X$X$X$X$X$XQ.#.O.o.#.:.:.%X%X%X%X%X%Xf u $ . %X%X%X%X%X%X%X%X{ 7.%X%X%X%X%X%X%X%X",
"} } } %.e./.$X$X$X$X$X$X$X$X+XH.:.:.:.:.f %X%X%X%X%X%X. . . %X%X%X%X%X%X%Xs.7.w./ %X%X%X%X%X%X%X",
"| | } %.%.F.+X$X$X$X$X$X$X$XQ.z.#.#.:.:.t . %X%X%X%X%X%X%X%X%X%X%X%X%X%X%X7.w.w.w.% %X%X%X%X%X%X",
"%XB } %.%.=.r./.$X$X$X$X#XZ.o.o.#.:.W s . . %X%X%X%X%X%X%X%X%X%X%X%X%X%X%X7.7.{ w.p %X%X%X%X%X%X",
"%X%Xo q L %.=.=./.$X$X#Xn.@.@.o.c < . . . . %X%X%X%X%X%X%X%X%X%X%X%X%X%X^ 7.7.{ w.{ - %X%X%X%X%X",
"%X%X%X%X. d =.=.%.XX$XG.@.@.H * . . . . %XE :.%X%X%X%X%X%X%X%X%X%X%X%X7.q.7.D.E.w.w.[ w.%X%X%X%X",
"%X%X%X%X%X%XN =.=.N.{.$.@...  . . %X%X%X%X:.:.2.%X%X%X%X%X%X%X%X7.7.7.7.q.b.@X$XU.{ w.{ { { %X%X",
"%X%X%X%X%X%X%X=.=.%.j.o.$.5 . . %X%X%X%X:.:.:.2.0 %X%X%X%X%X%X%X7.7.7.q.S.@X$X$X$XR.{ w.w.{ b %X",
"%X%X%X%X%X%X%X%X-.-.o.o.P . . %X%X%X%X%X:.2.:.:.R . %X%X%X%X%X%X7.7.7.w.g.|.$X$X@XD.{ w.{ { i . ",
"%X%X%X%X%X%X%X%X%.-.o.o.s . . %X%X%X%X:.:.:.:.;.:.* %X%X%X%X%X%Xt A 7.7.7.w.}.#XM.{ w.{ _ r X . ",
"%X%X%X%X%X%X%X%X%.-.$.@.$ . %X%X%X%X%X:.2.d.(.:.2.l . %X%X%X%X%X%X. # I 7.w.g.D.w.{ ( : . . . . ",
"%X%X%X%X%X%X%X%X%X$.@.k . . %X%X%X%X:.:.:.E.$Xx.:.;.1 %X%X%X%X%X%X%X%X%XA w.w.w.7._ X . . %X%X%X",
"%X%X%X%X%X%X%X%X%X%X* . . %X%X%X%X%X:.:.p.@X$X(.2.2.~ %X%X%X%X%X%X%X%X%X%X7.7.w.{ 6 . . %X%X%X%X",
"%X%X%X%X%X%X%X%X%X%X%X. . %X%X%X:.:.:.:.`.$X$X$XJ.:.2.:.%X%X%X%X%X%X%X%X%Xw.w.w.7.X . %X%X%X%X%X",
"%X%X%X%X%X%X%X%X%X%X%X%X%X%X%Xo.:.o.:.).$X$X$X$X@Xv.2.2.;.;.%X%X%X%X%X%X%X%Xw.w.v . . %X%X%X%X%X",
"%X%X%X%X%X%X%X%X%X%X%X%X@.@.#.o.:.p./.$X$X$X$X$X$X@XI.2.;.;.;.;.7.%X%X%X%X%X1 : # . %X%X%X%X%X%X",
"%X%X%X%X%X%X%X%X%X%X@.$.o.o.o.:.K.+X$X$X$X$X$X$X$X$X$X].c.;.;.7.;.7.%X%X%X%X%X. . . %X%X%X%X%X%X",
"%X%X%X%X%X%X%X%X%X%X$.$.o.o.z.XX$X$X$X$X$X$X$X$X$X$X$X$X$X^.;.;.7.7.C %X%X%X%X%X%X%X%X%X%X%X%X%X",
"%X%X%X%X%X%X%X%X%X%X@.@.@.@.-.@.K.@X$X$X$X$X$X$X$X$X$X{.C.;.;.;.;.7.9 . %X%X%X%X%X%X%X%X%X%X%X%X",
"%X%X%X%X%X%X%X%X%X%X%Xw H @.#.o.O.p.`.$X$X$X$X$X$X$XY.;.;.;.;.! v : . . %X%X%X%X%X%X%X%X%X%X%X%X",
"%X%X%X%X%X%X%X%X%X%X%X%X. $ d ..#.#.>.).$X$X$X$X$Xv.;.2.;.A 7   . . . %X%X%X%X%X%X%X%X%X%X%X%X%X",
"%X%X%X%X%X%X%X%X%X%X%X%X%X%X%X# c O.#.>.{.$X$X$XK.;.:.! 5 . . . . %X%X%X%X%X%X%X%X%X%X%X%X%X%X%X",
"%X%X%X%X%X%X%X%X%X%X%X%X%X%X%X%X%Xm :.:.p.#X$X].;.:.~ * . . . %X%X%X%X%X%X%X%X%X%X%X%X%X%X%X%X%X",
"%X%X%X%X%X%X%X%X%X%X%X%X%X%X%X%X%X%X:.:.:.E.$Xg.:.;.: . . %X%X%X%X%X%X%X%X%X%X%X%X%X%X%X%X%X%X%X",
"%X%X%X%X%X%X%X%X%X%X%X%X%X%X%X%X%X%X%X:.:.d.].:.:.l . . %X%X%X%X%X%X%X%X%X%X%X%X%X%X%X%X%X%X%X%X",
"%X%X%X%X%X%X%X%X%X%X%X%X%X%X%X%X%X%X%X:.:.:.d.2.;.: . %X%X%X%X%X%X%X%X%X%X%X%X%X%X%X%X%X%X%X%X%X",
"%X%X%X%X%X%X%X%X%X%X%X%X%X%X%X%X%X%X%X%X:.2.:.2.T . . %X%X%X%X%X%X%X%X%X%X%X%X%X%X%X%X%X%X%X%X%X",
"%X%X%X%X%X%X%X%X%X%X%X%X%X%X%X%X%X%X%X%X:.:.:.2.u . . %X%X%X%X%X%X%X%X%X%X%X%X%X%X%X%X%X%X%X%X%X",
"%X%X%X%X%X%X%X%X%X%X%X%X%X%X%X%X%X%X%X%X:.;.:.:.$ . %X%X%X%X%X%X%X%X%X%X%X%X%X%X%X%X%X%X%X%X%X%X",
"%X%X%X%X%X%X%X%X%X%X%X%X%X%X%X%X%X%X%X%X%XY T 0 . . %X%X%X%X%X%X%X%X%X%X%X%X%X%X%X%X%X%X%X%X%X%X",
"%X%X%X%X%X%X%X%X%X%X%X%X%X%X%X%X%X%X%X%X%X%X. . . %X%X%X%X%X%X%X%X%X%X%X%X%X%X%X%X%X%X%X%X%X%X%X",
"%X%X%X%X%X%X%X%X%X%X%X%X%X%X%X%X%X%X%X%X%X%X%X%X%X%X%X%X%X%X%X%X%X%X%X%X%X%X%X%X%X%X%X%X%X%X%X%X"
};
