/* XPM */
static const char *backward_64_xpm[] = {
/* columns rows colors chars-per-pixel */
"64 64 55 1 ",
"  c #2B5959",
". c #2E5D5D",
"X c #306161",
"o c #336464",
"O c #386363",
"+ c #356868",
"@ c #386C6C",
"# c #3A7070",
"$ c #3D7374",
"% c #466E6E",
"& c #407778",
"* c #427B7B",
"= c #457F7F",
"- c #487A7A",
"; c #537878",
": c #478283",
"> c #4A8687",
", c #4C8A8B",
"< c #4F8E8E",
"1 c #519192",
"2 c #549596",
"3 c #5A9495",
"4 c #5F9C9D",
"5 c #608383",
"6 c #688E8E",
"7 c #6D8D8D",
"8 c #7B9797",
"9 c #759898",
"0 c #7D9B9B",
"q c #69A2A3",
"w c #74A9AA",
"e c #7CACAC",
"r c #7FB0B0",
"t c #88A2A2",
"y c #95ACAC",
"u c #89B6B7",
"i c #94BDBD",
"p c #A2B6B6",
"a c #9FC3C4",
"s c #AACACB",
"d c #B2CDCD",
"f c #BDCBCB",
"g c #B4D1D1",
"h c #CAD6D6",
"j c #CADEDE",
"k c #D7E0E0",
"l c #D4E5E5",
"z c #DFEBEB",
"x c #E5EAEA",
"c c #E7EEEE",
"v c #EAF2F2",
"b c #F2F5F5",
"n c #F4F8F8",
"m c white",
"M c None",
/* pixels */
"MMMMMM2222222222222222222222222222222222222222222222222222MMMMMM",
"MMMM22222222222222222222222222222222222222222222222222222222MMMM",
"MMM2222222222222222222222222222222222222222222222222222222222MMM",
"MM222222222222222222222222222222222222222222222222222222222222MM",
"M22222222222222222222222222222222222222222222222222222222222222M",
"M22222222222222222222222222222222222222222222222222222222222222M",
"2222222222222222222222222222222222222222222222222222222222222222",
"2222222222222222222222222222222222222222222222222222222222222222",
"2222222222222222222222222222222222222222222222222222222222222222",
"2222222222222222222222222222222222222222222222222222222222222222",
"2222222222222222222222222222222222222222222222222222222222222222",
"2222222222222222222222222222222222222222222222222222222222222222",
"2222222222222222222222222222222222222222222222222222222222222222",
"2222222222222222222222222222222222222222222222222222222222222222",
"2222222222222222222222222222222222222222222222222222222222222222",
"2222222222222222222222222222222222222222222222222222222222222222",
"2222222222222222222222222222222222222222222222222222222222222222",
"2222222222222222222222222222222222222222222222222222222222222222",
"222222222222224w222222222222222222222222222222222222222222222222",
"2222222222222gmmvw2222222222222222222222222222222222222222222222",
"222222222222smmmmc32222222222222uss4222222222222isa4222222222222",
"222222222222nmmmmm0,2222222222rzmmmv1222222222rvmmmz122222222222",
"22222222222rmmmmmmf.,2222222qjmmmmmm91222222qlmmmmmm612222222222",
"22222222222immmmmmh .,22224smmmmmmmmyo12224gmmmmmmmmto1222222222",
"22222222222smmmmmmh  .,22inmmmmmmmmmy o12anmmmmmmmmmy o122222222",
"22222222222smmmmmmh   Xezmmmmmmmmmmmy  6vmmmmmmmmmmmy  o12222222",
"22222222222smmmmmmh  %fmmmmmmmmmmmmmy%hmmmmmmmmmmmmmy   o2222222",
"22222222222smmmmmmhOymmmmmmmmmmmmmmmxmmmmmmmmmmmmmmmy    >222222",
"22222222222smmmmmmxbmmmmmmmmmmmmmmmmmmmmmmmmmmmmmmmmy    *222222",
"22222222222smmmmmmmmmmmmmmmmmmmmmmmmmmmmmmmmmmmmmmmmy    &222222",
"22222222222smmmmmmmmmmmmmmmmmmmmmmmmmmmmmmmmmmmmmmmmy    &222222",
"22222222222smmmmmmmmmmmmmmmmmmmmmmmmmmmmmmmmmmmmmmmmy    &222222",
"22222222222smmmmmmmmmmmmmmmmmmmmmmmmmmmmmmmmmmmmmmmmy    &222222",
"22222222222smmmmmmmmmmmmmmmmmmmmmmmmmmmmmmmmmmmmmmmmy    &222222",
"22222222222smmmmmmmmmmmmmmmmmmmmmmmmmmmmmmmmmmmmmmmmy    &222222",
"22222222222smmmmmmxbmmmmmmmmmmmmmmmmmmmmmmmmmmmmmmmmy    &222222",
"22222222222smmmmmmhOymmmmmmmmmmmmmmmkmmmmmmmmmmmmmmmy    &222222",
"22222222222smmmmmmh  %fmmmmmmmmmmmmmy%hmmmmmmmmmmmmmy    &222222",
"22222222222smmmmmmh    5kmmmmmmmmmmmy  5xmmmmmmmmmmmy    &222222",
"22222222222smmmmmmh      8bmmmmmmmmmy    tbmmmmmmmmmy    &222222",
"22222222222immmmmmh    X. Oymmmmmmmmy     Opmmmmmmmmy    &222222",
"22222222222rmmmmmmf    +1&  %fmmmmmm7    o  %hmmmmmm5    &222222",
"222222222222nmmmmm8    +22<@  5kmmmxO    &<+  5xmmmk     &222222",
"222222222222smmmmxO    +2222>o  7yyO     &22>X  8ytO     &222222",
"2222222222222dmmx;     +222222=.         &2222*.         &222222",
"22222222222222-;       +22222221&        &222221$        &222222",
"222222222222222#       @222222222<@      :2222222<+      >222222",
"2222222222222222#      =22222222222>o   X1222222222>X   o2222222",
"22222222222222222#    X12222222222222:&&1222222222222=&*12222222",
"222222222222222222$  X,22222222222222222222222222222222222222222",
"22222222222222222221,2222222222222222222222222222222222222222222",
"2222222222222222222222222222222222222222222222222222222222222222",
"2222222222222222222222222222222222222222222222222222222222222222",
"2222222222222222222222222222222222222222222222222222222222222222",
"2222222222222222222222222222222222222222222222222222222222222222",
"2222222222222222222222222222222222222222222222222222222222222222",
"2222222222222222222222222222222222222222222222222222222222222222",
"2222222222222222222222222222222222222222222222222222222222222222",
"M22222222222222222222222222222222222222222222222222222222222222M",
"M22222222222222222222222222222222222222222222222222222222222222M",
"MM222222222222222222222222222222222222222222222222222222222222MM",
"MMM2222222222222222222222222222222222222222222222222222222222MMM",
"MMMM22222222222222222222222222222222222222222222222222222222MMMM",
"MMMMMM2222222222222222222222222222222222222222222222222222MMMMMM"
};
