/* XPM */
static const char *backward_48_xpm[] = {
/* columns rows colors chars-per-pixel */
"48 48 46 1 ",
"  c #2B5959",
". c #2E5D5D",
"X c #306161",
"o c #336464",
"O c #386363",
"+ c #356868",
"@ c #3A7070",
"# c #3D7374",
"$ c #466E6E",
"% c #407778",
"& c #427B7B",
"* c #457F7F",
"= c #537878",
"- c #4A8687",
"; c #4C8A8B",
": c #4F8E8E",
"> c #519192",
", c #549596",
"< c #5F9394",
"1 c #5F9C9D",
"2 c #608383",
"3 c #6D8D8D",
"4 c #7B9797",
"5 c #69A2A3",
"6 c #7FB0B0",
"7 c #95ACAC",
"8 c #89B6B7",
"9 c #94BDBD",
"0 c #A2B6B6",
"q c #AACACB",
"w c #B0C1C1",
"e c #B2CDCD",
"r c #BDCBCB",
"t c #B4D1D1",
"y c #BFD7D8",
"u c #C4D6D7",
"i c #CAD6D6",
"p c #CADEDE",
"a c #D7E0E0",
"s c #D4E5E5",
"d c #DFEBEB",
"f c #EAF2F2",
"g c #F2F5F5",
"h c #F4F8F8",
"j c white",
"k c None",
/* pixels */
"kkkk,,,,,,,,,,,,,,,,,,,,,,,,,,,,,,,,,,,,,,,,kkkk",
"kkk,,,,,,,,,,,,,,,,,,,,,,,,,,,,,,,,,,,,,,,,,,kkk",
"kk,,,,,,,,,,,,,,,,,,,,,,,,,,,,,,,,,,,,,,,,,,,,kk",
"k,,,,,,,,,,,,,,,,,,,,,,,,,,,,,,,,,,,,,,,,,,,,,,k",
",,,,,,,,,,,,,,,,,,,,,,,,,,,,,,,,,,,,,,,,,,,,,,,,",
",,,,,,,,,,,,,,,,,,,,,,,,,,,,,,,,,,,,,,,,,,,,,,,,",
",,,,,,,,,,,,,,,,,,,,,,,,,,,,,,,,,,,,,,,,,,,,,,,,",
",,,,,,,,,,,,,,,,,,,,,,,,,,,,,,,,,,,,,,,,,,,,,,,,",
",,,,,,,,,,,,,,,,,,,,,,,,,,,,,,,,,,,,,,,,,,,,,,,,",
",,,,,,,,,,,,,,,,,,,,,,,,,,,,,,,,,,,,,,,,,,,,,,,,",
",,,,,,,,,,,,,,,,,,,,,,,,,,,,,,,,,,,,,,,,,,,,,,,,",
",,,,,,,,,,,,,,,,,,,,,,,,,,,,,,,,,,,,,,,,,,,,,,,,",
",,,,,,,,,,,,,,,,,,,,,,,,,,,,,,,,,,,,,,,,,,,,,,,,",
",,,,,,,,,,,,,,,,,,,,,,,,,,,,,,,,,,,,,,,,,,,,,,,,",
",,,,,,,,,1pft,,,,,,,,,,,,,,,,,,,,,,,,,,,,,,,,,,,",
",,,,,,,,,sjjje,,,,,,,,,5ts8,,,,,,,,5ys8,,,,,,,,,",
",,,,,,,,5jjjjg@,,,,,,1qjjjj<,,,,,1tjjjj<,,,,,,,,",
",,,,,,,,6jjjjj=@,,,,9hjjjjj3*,,,9hjjjjj2*,,,,,,,",
",,,,,,,,6jjjjj2 @,6djjjjjjj7 *6djjjjjjj2 *,,,,,,",
",,,,,,,,6jjjjj2 $ujjjjjjjjj7$rjjjjjjjjj2  *,,,,,",
",,,,,,,,6jjjjj37gjjjjjjjjjjajjjjjjjjjjj2  .,,,,,",
",,,,,,,,6jjjjjgjjjjjjjjjjjjjjjjjjjjjjjj2   ,,,,,",
",,,,,,,,6jjjjjjjjjjjjjjjjjjjjjjjjjjjjjj2   ,,,,,",
",,,,,,,,6jjjjjjjjjjjjjjjjjjjjjjjjjjjjjj2   ,,,,,",
",,,,,,,,6jjjjjjjjjjjjjjjjjjjjjjjjjjjjjj2   ,,,,,",
",,,,,,,,6jjjjjjjjjjjjjjjjjjjjjjjjjjjjjj2   ,,,,,",
",,,,,,,,6jjjjjgjjjjjjjjjjjjjjjjjjjjjjjj2   ,,,,,",
",,,,,,,,6jjjjj37gjjjjjjjjjjajjjjjjjjjjj2   ,,,,,",
",,,,,,,,6jjjjj2 $rjjjjjjjjj7$rjjjjjjjjj2   ,,,,,",
",,,,,,,,6jjjjj2   2ajjjjjjj7  2ajjjjjjj2   ,,,,,",
",,,,,,,,6jjjjj=   o 4gjjjjj3    4gjjjjj2   ,,,,,",
",,,,,,,,5jjjjg    ,*.O7jjjj=   @.O0jjjj$   ,,,,,",
",,,,,,,,,sjjj0    ,,># $0i3    -># $wi3    ,,,,,",
",,,,,,,,,1ug0     ,,,,:+       -,,:+       ,,,,,",
",,,,,,,,,,>o     X,,,,,,-X     ,,,,,-X     ,,,,,",
",,,,,,,,,,,>o    @,,,,,,,,&.  o,,,,,,,%.  +,,,,,",
",,,,,,,,,,,,>o  .;,,,,,,,,,>*&>,,,,,,,,>&&>,,,,,",
",,,,,,,,,,,,,>#@;,,,,,,,,,,,,,,,,,,,,,,,,,,,,,,,",
",,,,,,,,,,,,,,,,,,,,,,,,,,,,,,,,,,,,,,,,,,,,,,,,",
",,,,,,,,,,,,,,,,,,,,,,,,,,,,,,,,,,,,,,,,,,,,,,,,",
",,,,,,,,,,,,,,,,,,,,,,,,,,,,,,,,,,,,,,,,,,,,,,,,",
",,,,,,,,,,,,,,,,,,,,,,,,,,,,,,,,,,,,,,,,,,,,,,,,",
",,,,,,,,,,,,,,,,,,,,,,,,,,,,,,,,,,,,,,,,,,,,,,,,",
",,,,,,,,,,,,,,,,,,,,,,,,,,,,,,,,,,,,,,,,,,,,,,,,",
"k,,,,,,,,,,,,,,,,,,,,,,,,,,,,,,,,,,,,,,,,,,,,,,k",
"kk,,,,,,,,,,,,,,,,,,,,,,,,,,,,,,,,,,,,,,,,,,,,kk",
"kkk,,,,,,,,,,,,,,,,,,,,,,,,,,,,,,,,,,,,,,,,,,kkk",
"kkkk,,,,,,,,,,,,,,,,,,,,,,,,,,,,,,,,,,,,,,,,kkkk"
};
