/* XPM */
static const char *effects_48[] = {
/* columns rows colors chars-per-pixel */
"48 48 173 2 ",
"   c #3D6F58",
".  c #2C7C58",
"X  c #377957",
"o  c #3C7D57",
"O  c #3A7558",
"+  c #555D5A",
"@  c #58585A",
"#  c #4C6359",
"$  c #446B59",
"%  c #496C59",
"&  c #5D6F57",
"*  c #526259",
"=  c #596459",
"-  c #566859",
";  c #5A6F58",
":  c #487657",
">  c #427458",
",  c #4C7258",
"<  c #537857",
"1  c #477A63",
"2  c #168F56",
"3  c #069D55",
"4  c #0B9956",
"5  c #149256",
"6  c #189056",
"7  c #199C55",
"8  c #248557",
"9  c #248C56",
"0  c #289855",
"q  c #01A155",
"w  c #0BA454",
"e  c #13A654",
"r  c #1CA754",
"t  c #16A95F",
"y  c #23A753",
"u  c #2BA853",
"i  c #2CAC5E",
"p  c #32AA53",
"a  c #3FAB52",
"s  c #3EAF5E",
"d  c #349F6D",
"f  c #10A760",
"g  c #10A860",
"h  c #22AE69",
"j  c #2FB069",
"k  c #32B376",
"l  c #39B67B",
"z  c #438357",
"x  c #4A8C55",
"c  c #568F54",
"v  c #4C9555",
"b  c #5D9454",
"n  c #509954",
"m  c #648255",
"M  c #678B54",
"N  c #679153",
"B  c #6D9353",
"V  c #6F9E51",
"C  c #739752",
"Z  c #40A154",
"A  c #45AD52",
"S  c #4CAD52",
"D  c #52AF51",
"F  c #4DB15D",
"G  c #55B051",
"H  c #5AB151",
"J  c #79A94F",
"K  c #6DB54F",
"L  c #72B64F",
"P  c #7CB54F",
"I  c #76B84F",
"U  c #7DBA4E",
"Y  c #6EA052",
"T  c #66A951",
"R  c #6DAA50",
"E  c #73A750",
"W  c #78AE50",
"Q  c #73AC50",
"!  c #64B450",
"~  c #6BB550",
"^  c #67B65B",
"/  c #6DB85D",
"(  c #71B150",
")  c #7BBB5A",
"_  c #76BA5A",
"`  c #488562",
"'  c #41926C",
"]  c #569664",
"[  c #519D76",
"{  c #648C6C",
"}  c #64926B",
"|  c #5EB768",
" . c #40B97F",
".. c #5FBE7E",
"X. c #7EBE66",
"o. c #63BF7E",
"O. c #68BF7E",
"+. c #6EBD72",
"@. c #72BE72",
"#. c #6DC07E",
"$. c #74C17D",
"%. c #7BC37D",
"&. c #83BC4D",
"*. c #80BD5D",
"=. c #82BF65",
"-. c #88C164",
";. c #80C172",
":. c #81C47D",
">. c #8CC77C",
",. c #8AC470",
"<. c #9ACB7A",
"1. c #94C87B",
"2. c #56A780",
"3. c #50BF89",
"4. c #54C089",
"5. c #67C694",
"6. c #70C794",
"7. c #73CC9F",
"8. c #76C994",
"9. c #8FCA8B",
"0. c #9BCC86",
"q. c #8ECF9E",
"w. c #8CCC93",
"e. c #9CCF92",
"r. c #92D09E",
"t. c #9BD29E",
"y. c #9DD092",
"u. c #A0CF8F",
"i. c #A7D291",
"p. c #A1D39D",
"a. c #A9D391",
"s. c #B3D79C",
"d. c #8CD3AA",
"f. c #95D4A9",
"g. c #9CD5A9",
"h. c #94D7B4",
"j. c #9CD8B4",
"k. c #A4D6A9",
"l. c #A9D7A8",
"z. c #ABD8A8",
"x. c #AAD6A1",
"c. c #B7DBA7",
"v. c #B2DAAA",
"b. c #BADCA7",
"n. c #A0DCBF",
"m. c #ADDEBF",
"M. c #B4DDB3",
"N. c #BEDFB2",
"B. c #B3DFBF",
"V. c #B6E0BE",
"C. c #BBE0BE",
"Z. c #C0E1BE",
"A. c #C8E3BD",
"S. c #C4E0B2",
"D. c #B2E2CA",
"F. c #BFE8D4",
"G. c #CFE7C9",
"H. c #D3E9C8",
"J. c #C3E8D4",
"K. c #C9E9D4",
"L. c #CFEDDF",
"P. c #D3EBD4",
"I. c #DCEDD3",
"U. c #D6EFDF",
"Y. c #DBEFDF",
"T. c #E2F1DE",
"R. c #DFF3EA",
"E. c #E3F4EA",
"W. c #EBF5E9",
"Q. c #EFF9F4",
"!. c #F3FAF4",
"~. c white",
"^. c None",
/* pixels */
"^.^.^.^.^.^.^.^.^.^.^.^.^.^.^.^.^.^.^.^.^.^.^.^.^.^.^.^.^.^.^.^.^.^.^.^.^.^.^.^.^.^.^.^.^.^.^.^.",
"^.^.^.^.^.^.^.^.^.^.^.^.^.^.^.^.^.^.^.^.^.^.^.^.^.^.^.^.^.^.^.^.^.^.^.^.^.^.^.^.^.^.^.^.^.^.^.^.",
"^.^.^.^.^.^.^.^.^.^.^.^.^.^.^.^.^.^.^.^.^.^.^.^.^.^.^.^.^.^.^.^.^.^.^.^.^.^.^.^.^.^.^.^.^.^.^.^.",
"^.^.^.^.^.^.^.^.^.^.^.^.^.^.^.^.^.^.^.^.^.^.^.^.^.^.^.^.^.^.^.^.^.^.> ^.^.^.^.^.^.^.^.^.^.^.^.^.",
"^.^.^.^.^.^.^.^.^.^.^.^.^.^.^.^.^.^.^.^.^.^.^.^.^.^.^.^.^.^.^.^.^.r @ @ ^.^.^.^.^.^.^.^.^.^.^.^.",
"^.^.^.^.^.^.^.^.^.^.^.~ ^.^.^.^.^.^.^.^.^.^.^.v ^.^.^.^.^.^.^.^.r 0 @ @ ^.^.^.^.^.^.^.^.^.^.^.^.",
"^.^.^.^.^.^.^.^.^.^.^.~ ~ ^.^.^.^.^.^.^.^.^.S A - ^.^.^.^.^.^.y u 0 @ ^.^.^.^.^.^.^.^.^.^.^.^.^.",
"^.^.^.^.^.^.^.^.^.^.^.^.~ ! ^.^.^.^.^.^.^.^.S | } ^.^.^.^.^.^.y 8.8 @ ^.^.^.^.^.^.^.^.^.^.^.^.^.",
"^.^.^.^.^.^.^.^.^.^.^.^.~ ! / ^.^.^.^.^.^.^.S w.k.+ ^.^.^.^.u f.m.> @ ^.^.^.^.^.^.^.^.^.^.^.^.^.",
"^.^.^.^.^.^.^.^.^.^.^.^.~ ! y.x.^.^.^.^.^.^.S P.!.{ ^.^.^.p 8.~.d.% @ ^.^.^.^.^.^.^.^.^.^.^.^.^.",
"^.^.^.^.^.^.^.^.^.^.^.^.^.! / ~.v.^.^.^.^.S $.~.~.Y.] p s B.~.~.d.* @ ^.^.^.^.^.^.^.q 8 ^.^.^.^.",
"^.^.^.^.^.^.^.^.^.^.^.^.^.! ! G.~.P.9.G D +.!.~.~.~.!.K.!.~.~.~.j.# @ ^.^.^.^.q q q 2 @ @ ^.^.^.",
"^.^.^.^.^.^.^.^.^.^.^.^.^.^.! e.~.~.~.W.P.~.~.~.~.~.~.~.~.~.~.~.Q.` O ^.7 w 3.n.7.4 + @ @ ^.^.^.",
"^.^.E &.U ^.^.^.^.^.^.^.^.^.H >.~.~.~.~.~.~.~.~.~.~.~.~.~.~.~.~.~.E.d.d.F.!.~.F.3 $ @ @ ^.^.^.^.",
"^.^.^.B P U I *.I ^.^.^.^.^.! >.~.~.~.~.~.~.~.~.~.~.~.~.~.~.~.~.~.~.~.~.~.~.~.h   @ @ ^.^.^.^.^.",
"^.^.^.^.^.E I ) H.I.c.u.>.! ;.T.~.~.~.~.~.~.~.~.~.~.~.~.~.~.~.~.~.~.~.~.~.~.E.6 @ @ ^.^.^.^.^.^.",
"^.^.^.^.^.^.V I L A.~.~.~.~.~.~.~.~.T.P.P.K.W.K.P.P.U.U.K.K.K.!.~.~.~.~.~.~.~.n.2.d q q 3 q O ^.",
"^.^.^.^.^.^.^.B L L A.~.~.~.~.~.~.~.:.G D S k.S A a #.#.u u u K.~.~.~.~.~.~.~.~.~.~.R.k 3   @ @ ",
"^.^.^.^.^.^.^.^.N L _ ~.~.~.~.~.~.~.:.G G S k.A A a #.o.p u u K.~.~.~.~.~.~.~.~.~.L.t 5 * @ @ ^.",
"^.^.^.^.^.^.^.^.L _ N.~.~.~.~.~.~.~.:.G G S k.S A a #.#.p u y K.~.~.~.~.~.~.~.~.L.f 2 @ @ @ ^.^.",
"&.&.&.&.U <.s.b.I.~.~.~.~.~.~.~.~.~.p.:.%.%.C.$.$.#.q.q.#.....L.~.~.~.~.~.~.~.~. .8 @ @ @ ^.^.^.",
"^.C P U &.<.I.~.~.~.~.~.~.~.~.~.~.~.p.%.%.%.C.$.$.#.q.q.#.....U.~.~.~.~.~.~.~.~.2 @ @ ^.^.^.^.^.",
"^.^.= M P U I <.W.~.~.~.~.~.~.~.~.~.:.G S S k.A A a #.#.p u u K.~.~.~.~.~.~.~.~.d @ @ ^.^.^.^.^.",
"^.^.^.^.@ & I I ) T.~.~.~.~.~.~.~.~.:.G D S k.S A a #.#.p u y K.~.~.~.~.~.~.~.~.L.% ^.^.^.^.^.^.",
"^.^.^.^.^.^.= V L 1.~.~.~.~.~.~.~.~.:.G D D k.A A a #.o.p u u K.~.~.~.~.~.~.~.~.~.L.l ^.^.^.^.^.",
"^.^.^.^.^.^.^.^.L =.~.~.~.~.~.~.~.~.Z.l.k.k.P.k.g.g.V.V.f.f.f.E.~.~.~.~.~.~.~.~.~.~.L.k ^.^.^.^.",
"^.^.^.^.^.^.^.^.L c.~.~.~.~.~.~.~.~.:.G G S k.S A a #.o.p u u K.~.~.~.~.~.~.Q.n.3.g q q q 3 ^.^.",
"^.^.^.^.^.^.^.U i.~.~.~.~.~.~.~.~.~.%.G D S k.A A a #.#.p u y K.~.~.~.~.~.D.t q q 2 . .   # @ ^.",
"^.^.^.^.^.^.I a.~.~.~.~.~.~.~.~.~.~.:.G G S k.A A a #.O.p u u K.~.~.~.~.J.w 8   @ @ @ @ @ @ @ ^.",
"^.^.^.^.^.U S.~.~.~.~.~.~.~.~.~.~.~.Z.l.l.k.P.k.g.k.V.B.g.f.f.E.~.~.~.~.7.X @ @ @ + ^.^.^.^.^.^.",
"^.^.^.U U U -.I L ,.0.A.~.~.~.~.~.~.~.~.~.~.~.~.~.~.~.~.~.~.~.~.~.~.~.~.5.@ @ ^.^.^.^.^.^.^.^.^.",
"^.^.&.&.U I Q Y ( L K K v.~.~.~.~.~.~.~.~.~.~.~.~.~.~.~.~.~.~.~.~.~.~.~.h.+ @ ^.^.^.^.^.^.^.^.^.",
"^.^.@ @ @ @ @ @ @ @ m K >.~.~.~.~.~.~.~.~.~.~.~.~.~.~.E.B.g.m.U.~.~.~.~.E.O @ ^.^.^.^.^.^.^.^.^.",
"^.^.^.@ @ @ ^.^.^.^.^.( >.~.~.~.!.M.l.P.~.~.~.~.~.E.$.p p u u y i 6.K.~.~.[ @ ^.^.^.^.^.^.^.^.^.",
"^.^.^.^.^.^.^.^.^.^.^.~ N.~.!.v.^ H G G W.~.~.~.Y.F Z z , : z 0 r r e j h.h.# ^.^.^.^.^.^.^.^.^.",
"^.^.^.^.^.^.^.^.^.^.~ ~ W.G./ ! b ; c G t.~.~.Y.F x @ @ @ @ @ @ * o 7 e w w 8 ^.^.^.^.^.^.^.^.^.",
"^.^.^.^.^.^.^.^.^.^.K X.>.! N - @ @ = G @.~.!.| x @ @ @ ^.^.^.^.^.^.@ $ 9 w w + ^.^.^.^.^.^.^.^.",
"^.^.^.^.^.^.^.^.^.^.K ~ T ; @ + @ ^.^.G D ~.t.x @ @ ^.^.^.^.^.^.^.^.^.^.@ # 8 O ^.^.^.^.^.^.^.^.",
"^.^.^.^.^.^.^.^.^.K K N @ @ @ ^.^.^.^.D D M.S + @ @ ^.^.^.^.^.^.^.^.^.^.^.^.^.@ @ ^.^.^.^.^.^.^.",
"^.^.^.^.^.^.^.^.^.R & @ @ @ ^.^.^.^.^.D D S < @ @ ^.^.^.^.^.^.^.^.^.^.^.^.^.^.^.^.^.^.^.^.^.^.^.",
"^.^.^.^.^.^.^.^.^.@ @ @ ^.^.^.^.^.^.^.G G n @ @ ^.^.^.^.^.^.^.^.^.^.^.^.^.^.^.^.^.^.^.^.^.^.^.^.",
"^.^.^.^.^.^.^.^.^.^.@ ^.^.^.^.^.^.^.^.^.D - @ @ ^.^.^.^.^.^.^.^.^.^.^.^.^.^.^.^.^.^.^.^.^.^.^.^.",
"^.^.^.^.^.^.^.^.^.^.^.^.^.^.^.^.^.^.^.^.c @ @ ^.^.^.^.^.^.^.^.^.^.^.^.^.^.^.^.^.^.^.^.^.^.^.^.^.",
"^.^.^.^.^.^.^.^.^.^.^.^.^.^.^.^.^.^.^.^.+ + ^.^.^.^.^.^.^.^.^.^.^.^.^.^.^.^.^.^.^.^.^.^.^.^.^.^.",
"^.^.^.^.^.^.^.^.^.^.^.^.^.^.^.^.^.^.^.^.^.@ ^.^.^.^.^.^.^.^.^.^.^.^.^.^.^.^.^.^.^.^.^.^.^.^.^.^.",
"^.^.^.^.^.^.^.^.^.^.^.^.^.^.^.^.^.^.^.^.^.^.^.^.^.^.^.^.^.^.^.^.^.^.^.^.^.^.^.^.^.^.^.^.^.^.^.^.",
"^.^.^.^.^.^.^.^.^.^.^.^.^.^.^.^.^.^.^.^.^.^.^.^.^.^.^.^.^.^.^.^.^.^.^.^.^.^.^.^.^.^.^.^.^.^.^.^.",
"^.^.^.^.^.^.^.^.^.^.^.^.^.^.^.^.^.^.^.^.^.^.^.^.^.^.^.^.^.^.^.^.^.^.^.^.^.^.^.^.^.^.^.^.^.^.^.^."
};
