/* XPM */
static const char *effsettings_24[] = {
/* columns rows colors chars-per-pixel */
"24 24 133 2 ",
"   c #3F6075",
".  c #58585A",
"X  c #4D5D67",
"o  c #485F6D",
"O  c #525A60",
"+  c #535A60",
"@  c #525A61",
"#  c #535B61",
"$  c #525D62",
"%  c #425F72",
"&  c #4D616A",
"*  c #426072",
"=  c #426979",
"-  c #196E9F",
";  c #29678D",
":  c #376A83",
">  c #376B84",
",  c #316B89",
"<  c #276D93",
"1  c #276E94",
"2  c #2C6F90",
"3  c #2C7293",
"4  c #2F7592",
"5  c #2C7494",
"6  c #2C7695",
"7  c #277599",
"8  c #31769C",
"9  c #166FA2",
"0  c #1470A5",
"q  c #1171A8",
"w  c #1176AD",
"e  c #1279AD",
"r  c #147EAF",
"t  c #0674B4",
"y  c #0778B6",
"u  c #0B7EB7",
"i  c #0076BA",
"p  c #067BB9",
"a  c #0079BC",
"s  c #007BBE",
"d  c #117DB1",
"f  c #127DB0",
"g  c #2179A1",
"h  c #007DC0",
"j  c #007FC1",
"k  c #0B84BB",
"l  c #1181B4",
"z  c #198CB6",
"x  c #1189BB",
"c  c #2780A2",
"v  c #2684A5",
"b  c #268EB8",
"n  c #6C8D9E",
"m  c #5C8FA6",
"M  c #518CA8",
"N  c #7097AC",
"B  c #7698A9",
"V  c #0081C2",
"C  c #0686C1",
"Z  c #0084C4",
"A  c #0086C6",
"S  c #0089C8",
"D  c #008BC9",
"F  c #008DCB",
"G  c #008FCD",
"H  c #1089C6",
"J  c #0091CE",
"K  c #0B94C8",
"L  c #0B98CA",
"P  c #0E9ACA",
"I  c #0B9ECF",
"U  c #1294C2",
"Y  c #0093D0",
"T  c #0095D2",
"R  c #0097D3",
"E  c #009AD5",
"W  c #009AD6",
"Q  c #009CD7",
"!  c #009ED9",
"~  c #109CD4",
"^  c #208BC6",
"/  c #00A3DC",
"(  c #00A6DE",
")  c #15A4D6",
"_  c #10A5DB",
"`  c #17ABDF",
"'  c #1AAADE",
"]  c #20ABDE",
"[  c #20ACDF",
"{  c #3BA4D4",
"}  c #3BA5D5",
"|  c #50B0DB",
" . c #60AFD8",
".. c #62B0D9",
"X. c #60B5DC",
"o. c #60B6DD",
"O. c #75B4D6",
"+. c #70BADE",
"@. c #40B5E1",
"#. c #50BAE3",
"$. c #60BBE1",
"%. c #70C8E9",
"&. c #86ADC2",
"*. c #80C3E2",
"=. c #8FC6E3",
"-. c #80CCEA",
";. c #80CEEB",
":. c #80D0ED",
">. c #80D1EE",
",. c #8FD1EB",
"<. c #8FD5EF",
"1. c #92D1EB",
"2. c #99D6EE",
"3. c #9FD8EF",
"4. c #99D9F0",
"5. c #AFDCF0",
"6. c #BFE3F2",
"7. c #BFE5F4",
"8. c #BFE6F5",
"9. c #D5E7EE",
"0. c #C8E8F5",
"q. c #CFE8F4",
"w. c #CFEAF6",
"e. c #CFEBF6",
"r. c #CFEDF8",
"t. c #DFF1F8",
"y. c #DFF2F9",
"u. c #DFF3FA",
"i. c #EFF7FB",
"p. c #EFF8FC",
"a. c #EFF9FC",
"s. c white",
"d. c None",
/* pixels */
"d.d.d.d.d.d.d.d.d.d.d.d.d.d.d.d.d.d.d.d.d.d.d.d.",
"d.d.d.d.d.E d.d.d.d.J d.d.d.d.f . d.d.d.d.d.d.d.",
"d.d.d.d.d.! E d.d.d.J m d.d.{ M . d.d.d.d.d.d.d.",
"d.d.d.d.d.d.#.2.d.d.$.9.3 { a.n d.d.d.d.d.d.d.d.",
"d.d.d.d.d.d.E a.0.1.p.s.y.s.s.B d.d...w @ d.d.d.",
"d.P / d.d.d.E 8.s.s.s.s.s.s.s.i.w.s.O.@ d.d.d.d.",
"d.d.U [ r.8.8.s.s.s.s.s.s.s.s.s.s.s.&.N ^ d.d.d.",
"d.d.d.d.] s.s.s.s.s.s.6.| o.s.s.+.H  .=.8 @ d.d.",
"I ( :.4.y.s.s.s.s.s.w.G F D o.*.Z V j w . d.d.d.",
"d.v ) :.s.s.s.s.s.s.s.G F D S A Z V j < d.d.d.d.",
"d.d.d.z <.s.s.s.y.w.5.G F D S A Z V j s y a 9 d.",
"d.d.d.' r.s.s.a.~ Y J G F D S A Z V j j s s t d.",
"d.d.` r.s.s.s.3.T Y J G F D C f A V j j s s i * ",
"d.( ( L _ -.s.8.~ Y J G F l @ . , V j s s s 9 + ",
"d.. . . & @.s.a.,.Y J G F > d.d.d.V j j s i . d.",
"d.d.d.d.d.%.-.b x Y J G F 7 d.d.d.j j s s s 9 d.",
"d.d.d.d.! K = 4 T T J G F D r d.A V j j s a i ; ",
"d.d.d.d.c $ d.T T J J G F D S A V V j j s a i % ",
"d.d.d.d.d.d.d.d.T T J G F D S A A V V s s s q . ",
"d.d.d.d.d.d.d.d.d.5 5 G F D S A V V j p o % . d.",
"d.d.d.d.d.d.d.d.d.d.d.G G D S A V V j j . d.d.d.",
"d.d.d.d.d.d.d.d.d.d.d.G G D k 3 u V j p . d.d.d.",
"d.d.d.d.d.d.d.d.d.d.d.d.g k > . d.e 1 X . d.d.d.",
"d.d.d.d.d.d.d.d.d.d.d.d.d.d.. d.d.d.. d.d.d.d.d."
};
