/* XPM */
static const char *file_new_32_xpm[] = {
/* columns rows colors chars-per-pixel */
"32 32 42 1 ",
"  c #58585A",
". c #5E5D5E",
"X c #636362",
"o c #696867",
"O c #6B6A68",
"+ c #6E6E6B",
"@ c #797873",
"# c #937604",
"$ c #9A7B05",
"% c #9A842A",
"& c #C29B09",
"* c #C9A10A",
"= c #E4B60C",
"- c #EBBB0D",
"; c #D7B538",
": c #FFCB0F",
"> c #FFD53C",
", c #AE9843",
"< c #84837C",
"1 c #E4C348",
"2 c #FFD84B",
"3 c #A5A395",
"4 c #AAA899",
"5 c #ABA999",
"6 c #B0AE9D",
"7 c #B5B3A3",
"8 c #BAB8A9",
"9 c #C9BB82",
"0 c #D0C391",
"q c #FFE587",
"w c #FFE896",
"e c #C4C2B6",
"r c #D1CEBE",
"t c #D8D7CE",
"y c #DCDCD4",
"u c #EBEBE7",
"i c #F8F6EF",
"p c #F5F5F3",
"a c #FFFCF0",
"s c #FAFAF9",
"d c white",
"f c None",
/* pixels */
"fffff666666666666666ffffffffffff",
"ffff66666666666666666fffffffffff",
"ffff68sdddddddddddu666ffffffffff",
"fff66tddddddddddddu6666fffffffff",
"fff66tddddddddddddu66666ffffffff",
"fff66tddddddddddddu666666fffffff",
"fff66tddddddda2:>ap6666665ffffff",
"fff66tdddddddw:::;ie6666665fffff",
"fff66tdddddddq:::*0sytttte6<ffff",
"fff66tdddddddq:::*9ddddddt6< fff",
"fff66tdddddddq:::*9ddddddt6< fff",
"fff66tdddddddq:::*9ddddddt6< fff",
"fff66tdddddddq:::*9ddddddt6< fff",
"fff66tawqqqqq2:::=1qqqqwat6< fff",
"fff66t2:::::::::::::::::>r6< fff",
"fff66t:::::::::::::::::::%6< fff",
"fff66t2:::::::::::::::::-#6< fff",
"fff66ta;*****=:::=*****&$%6< fff",
"fff66tdi099991:::*,999990r6< fff",
"fff66tdddddddq:::*9ddddddt6< fff",
"fff66tdddddddq:::*9ddddddt6< fff",
"fff66tdddddddq:::*9ddddddt6< fff",
"fff66tdddddddq:::*9ddddddt6< fff",
"fff66tdddddddw:::&9ddddddt6< fff",
"fff66tddddddda>:-$0ddddddt6< fff",
"fff66tddddddddi,#,iddddddt6< fff",
"fff66tdddddddddddddddddddt6< fff",
"fff66tdddddddddddddddddddt6< fff",
"ffff68sdddddddddddddddddde6@ fff",
"ffff667eeeeeeeeeeeeeeeee765.ffff",
"fffff566666666666666666663o ffff",
"ffffffO+++++++++++++++++X  fffff"
};
