/* XPM */
static const char *file_new_48_xpm[] = {
/* columns rows colors chars-per-pixel */
"48 48 69 1 ",
"  c #58585A",
". c #636362",
"X c #6E6E6B",
"o c #73726F",
"O c #797873",
"+ c #7F7E77",
"@ c #937604",
"# c #9A7B05",
"$ c #977D17",
"% c #AE8B07",
"& c #AE8F16",
"* c #9A842A",
"= c #A18723",
"- c #B59725",
"; c #C29B09",
": c #C9A10A",
"> c #D0A60A",
", c #D7AB0B",
"< c #C9A419",
"1 c #EBBB0D",
"2 c #FFCB0F",
"3 c #F2C41D",
"4 c #FFCE1E",
"5 c #F2C72C",
"6 c #F8CC2C",
"7 c #FFD22D",
"8 c #FFD53C",
"9 c #AE9843",
"0 c #B5A152",
"q c #A59964",
"w c #E4C348",
"e c #FFD84B",
"r c #FFDB5A",
"t c #FFE278",
"y c #8A8880",
"u c #959388",
"i c #9A998C",
"p c #ACA78A",
"a c #A4A394",
"s c #A9A798",
"d c #AAA899",
"f c #ABA999",
"g c #B0AE9D",
"h c #B5B3A3",
"j c #BAB8A9",
"k c #C9BB82",
"l c #D0C391",
"z c #FFE587",
"x c #FFE896",
"c c #D7CCA1",
"v c #C4C2B6",
"b c #FFECA5",
"n c #CECCC2",
"m c #D8D7CE",
"M c #E4DDC0",
"N c #FFF2C3",
"B c #EBE5D0",
"V c #E1E1DA",
"C c #F2EBD1",
"Z c #E6E6E0",
"A c #EBEBE7",
"S c #F2EEE0",
"D c #FFF9E1",
"F c #F0F0ED",
"G c #F8F6EF",
"H c #F5F5F3",
"J c #FFFCF0",
"K c white",
"L c None",
/* pixels */
"LLLLLLLLggggggggggggggggggggggLLLLLLLLLLLLLLLLLL",
"LLLLLLLggggggggggggggggggggggggLLLLLLLLLLLLLLLLL",
"LLLLLLggggggggggggggggggggggggggLLLLLLLLLLLLLLLL",
"LLLLLLgghFKKKKKKKKKKKKKKKKKKvggggLLLLLLLLLLLLLLL",
"LLLLLgggmKKKKKKKKKKKKKKKKKKKvgggggLLLLLLLLLLLLLL",
"LLLLLgggmKKKKKKKKKKKKKKKKKKKvggggggLLLLLLLLLLLLL",
"LLLLLgggmKKKKKKKKKKKKKKKKKKKvgggggggLLLLLLLLLLLL",
"LLLLLgggmKKKKKKKKKKKKKKKKKKKvggggggggLLLLLLLLLLL",
"LLLLLgggmKKKKKKKKKKKKKKKKKKKvggggggggaLLLLLLLLLL",
"LLLLLgggmKKKKKKKKKKKKb72eDKKvgggggggggaLLLLLLLLL",
"LLLLLgggmKKKKKKKKKKKN22223BKnggggggggggaLLLLLLLL",
"LLLLLgggmKKKKKKKKKKKz22222&GHhggggggggggfLLLLLLL",
"LLLLLgggmKKKKKKKKKKKz22222%kKHnvvvvvvvggf LLLLLL",
"LLLLLgggmKKKKKKKKKKKz22222%kKKKKKKKKKKggg  LLLLL",
"LLLLLgggmKKKKKKKKKKKz22222%kKKKKKKKKKKggg  LLLLL",
"LLLLLgggmKKKKKKKKKKKz22222%kKKKKKKKKKKggg  LLLLL",
"LLLLLgggmKKKKKKKKKKKz22222%kKKKKKKKKKKggg  LLLLL",
"LLLLLgggmKKKKKKKKKKKz22222%kKKKKKKKKKKggg  LLLLL",
"LLLLLgggmKKKKKKKKKKKz22222%kKKKKKKKKKKggg  LLLLL",
"LLLLLgggmKKKKKKKKKKKz22222%kKKKKKKKKKKggg  LLLLL",
"LLLLLgggmKNteeeeeeee72222215eeeeeeezJKggg  LLLLL",
"LLLLLgggmb222222222222222222222222224Cggg  LLLLL",
"LLLLLgggm4222222222222222222222222222<pgg  LLLLL",
"LLLLLgggm2222222222222222222222222222:*gg  LLLLL",
"LLLLLgggmr222222222222222222222222222%@gg  LLLLL",
"LLLLLgggmD62222222222222222222222222:@$gg  LLLLL",
"LLLLLgggmKB-%%%%%%%%,22222;%%%%%%%%@@@qgg  LLLLL",
"LLLLLgggmKKGlkkkkkkkw22222%9kkkkkkkkkMggg  LLLLL",
"LLLLLgggmKKKKKKKKKKKz22222%kKKKKKKKKKKggg  LLLLL",
"LLLLLgggmKKKKKKKKKKKz22222%kKKKKKKKKKKggg  LLLLL",
"LLLLLgggmKKKKKKKKKKKz22222%kKKKKKKKKKKggg  LLLLL",
"LLLLLgggmKKKKKKKKKKKz22222%kKKKKKKKKKKggg  LLLLL",
"LLLLLgggmKKKKKKKKKKKz22222%kKKKKKKKKKKggg  LLLLL",
"LLLLLgggmKKKKKKKKKKKz22222%kKKKKKKKKKKggg  LLLLL",
"LLLLLgggmKKKKKKKKKKKz22222%kKKKKKKKKKKggg  LLLLL",
"LLLLLgggmKKKKKKKKKKKx22222#kKKKKKKKKKKggg  LLLLL",
"LLLLLgggmKKKKKKKKKKKJ8222>@kKKKKKKKKKKggg  LLLLL",
"LLLLLgggmKKKKKKKKKKKKC<:%@@MKKKKKKKKKKggg  LLLLL",
"LLLLLgggmKKKKKKKKKKKKKS0@=cKKKKKKKKKKKggg  LLLLL",
"LLLLLgggmKKKKKKKKKKKKKKKKKKKKKKKKKKKKKggg  LLLLL",
"LLLLLgggmKKKKKKKKKKKKKKKKKKKKKKKKKKKKKggg  LLLLL",
"LLLLLgggmKKKKKKKKKKKKKKKKKKKKKKKKKKKKKggg  LLLLL",
"LLLLLgggnKKKKKKKKKKKKKKKKKKKKKKKKKKKKHggg  LLLLL",
"LLLLLLgggnZAAAAAAAAAAAAAAAAAAAAAAAAAVjggi  LLLLL",
"LLLLLLggggggggggggggggggggggggggggggggggX LLLLLL",
"LLLLLLLsggggggggggggggggggggggggggggggfO  LLLLLL",
"LLLLLLLLoyiiiiiiiiiiiiiiiiiiiiiiiiiiu+.  LLLLLLL",
"LLLLLLLLL                               LLLLLLLL"
};
