/* XPM */
static const char *file_new_48_xpm[] = {
/* columns rows colors chars-per-pixel */
"48 48 31 1 ",
"  c #58585A",
". c #6D6651",
"X c #827547",
"o c #8B7B43",
"O c #97833E",
"+ c #A18A39",
"@ c #B69930",
"# c #C8A00D",
"$ c #CFA50D",
"% c #CBA61C",
"& c #EEBE0E",
"* c #CBA726",
"= c #D5AE22",
"- c #FCC80F",
"; c #FFCB0F",
": c #F2C215",
"> c #F5C414",
", c #FFCE1E",
"< c #FFD53C",
"1 c #D6B84A",
"2 c #D9BE59",
"3 c #FFD84B",
"4 c #FFDF69",
"5 c #E0CA77",
"6 c #FFE587",
"7 c #EEE1B3",
"8 c #FFF2C3",
"9 c #F5EDD2",
"0 c #FFFCF0",
"q c white",
"w c None",
/* pixels */
"wwwwwwww;;;;;;;;;;;;;;;;;;;;;;wwwwwwwwwwwwwwwwww",
"wwwwwww;;;;;;;;;;;;;;;;;;;;;;;;wwwwwwwwwwwwwwwww",
"wwwwww;;;;;;;;;;;;;;;;;;;;;;;;;;wwwwwwwwwwwwwwww",
"wwwwww;;;4888888888888888888;;;;;wwwwwwwwwwwwwww",
"wwwww;;;<qqqqqqqqqqqqqqqqqqq;;;;;;wwwwwwwwwwwwww",
"wwwww;;;3qqqqqqqqqqqqqqqqqqq;;;;;;;wwwwwwwwwwwww",
"wwwww;;;3qqqqqqqqqqqqqqqqqqq;;;;;;;;wwwwwwwwwwww",
"wwwww;;;3qqqqqqqqqqqqqqqqqqq;;;;;;;;;wwwwwwwwwww",
"wwwww;;;3qqqqqqqqqqqqqqqqqqq;;;;;;;;;;wwwwwwwwww",
"wwwww;;;3qqqqqqqqqqqqqqqqqqq;;;;;;;;;;;wwwwwwwww",
"wwwww;;;3qqqqqq9211111111111&;;;;;;;;;;;wwwwwwww",
"wwwww;;;3qqqqqq5############$;;;;;;;;;;;;wwwwwww",
"wwwww;;;3qqqqqq7%############$&;;;;;;;;;; wwwwww",
"wwwww;;;3qqqqqqqqqqqqqqqqqqqqqqqqqqqq8;;;  wwwww",
"wwwww;;;3qqqqqqqqqqqqqqqqqqqqqqqqqqqq8;;;  wwwww",
"wwwww;;;3qqqqqq911111111111111119qqqq8;;;  wwwww",
"wwwww;;;3qqqqqq5################5qqqq8;;;  wwwww",
"wwwww;;;3qqqqqq7%##############%7qqqq8;;;  wwwww",
"wwwww;;;3qqqqqqqqqqqqqqqqqqqqqqqqqqqq8;;;  wwwww",
"wwwww;;;3qqqqqqqqqqqqqqqqqqqqqqqqqqqq8;;;  wwwww",
"wwwww;;;3qqqqqq911111111111111119qqqq8;;;  wwwww",
"wwwww;;;3qqqqqq5################5qqqq8;;;  wwwww",
"wwwww;;;3qqqqqq911111111111111119qqqq8;;;  wwwww",
"wwwww;;;3qqqqqqqqqqqqqqqqqqqqqqqqqqqq8;;;  wwwww",
"wwwww;;;3qqqqqqqqqqqqqqqqqqqqqqqqqqqq8;;;  wwwww",
"wwwww;;;3qqqqqq911111111111111119qqqq8;;;  wwwww",
"wwwww;;;3qqqqqq5################5qqqq8;;;  wwwww",
"wwwww;;;3qqqqqq911111111111111119qqqq8;;;  wwwww",
"wwwww;;;3qqqqqqqqqqqqqqqqqqqqqqqqqqqq8;;;  wwwww",
"wwwww;;;3qqqqqqqqqqqqqqqqqqqqqqqqqqqq8;;;  wwwww",
"wwwww;;;3qqqqqq7%##############%7qqqq8;;;  wwwww",
"wwwww;;;3qqqqqq5################5qqqq8;;;  wwwww",
"wwwww;;;3qqqqqq911111111111111119qqqq8;;;  wwwww",
"wwwww;;;3qqqqqqqqqqqqqqqqqqqqqqqqqqqq8;;;  wwwww",
"wwwww;;;3qqqqqqqqqqqqqqqqqqqqqqqqqqqq8;;;  wwwww",
"wwwww;;;3qqqqqq7%##############%7qqqq8;;;  wwwww",
"wwwww;;;3qqqqqq5################5qqqq8;;;  wwwww",
"wwwww;;;3qqqqqq921111111111111129qqqq8;;;  wwwww",
"wwwww;;;3qqqqqqqqqqqqqqqqqqqqqqqqqqqq8;;;  wwwww",
"wwwww;;;3qqqqqqqqqqqqqqqqqqqqqqqqqqqq8;;;  wwwww",
"wwwww;;;3qqqqqqqqqqqqqqqqqqqqqqqqqqqq8;;;  wwwww",
"wwwww;;;3qqqqqqqqqqqqqqqqqqqqqqqqqqqq8;;;  wwwww",
"wwwww;;;,0qqqqqqqqqqqqqqqqqqqqqqqqqqq6;;;  wwwww",
"wwwwww;;;,466666666666666666666666663;;;=  wwwww",
"wwwwww;;;;;;;;;;;;;;;;;;;;;;;;;;;;;;;;;;X wwwwww",
"wwwwwww:;;;;;;;;;;;;;;;;;;;;;;;;;;;;;;>O  wwwwww",
"wwwwwwwwo@==========================*+.  wwwwwww",
"wwwwwwwww                               wwwwwwww"
};
