/* XPM */
static const char *forward_48_xpm[] = {
/* columns rows colors chars-per-pixel */
"48 48 51 1 ",
"  c #357563",
". c #387A67",
"X c #3B7F6C",
"o c #427E6D",
"O c #3E8470",
"+ c #4E8677",
"@ c #428974",
"# c #48937D",
"$ c #5B8F80",
"% c #4B9881",
"& c #4E9D85",
"* c #589583",
"= c #68988A",
"- c #51A189",
"; c #54A68E",
": c #57AB92",
"> c #5BB096",
", c #5EB59A",
"< c #74A094",
"1 c #7AAA9C",
"2 c #61BA9F",
"3 c #64BFA3",
"4 c #67C4A7",
"5 c #71C8AD",
"6 c #7ACBB2",
"7 c #81A99E",
"8 c #9ABAB1",
"9 c #84CFB8",
"0 c #8DD3BD",
"q c #93D2BE",
"w c #A7C3BB",
"e c #97D6C3",
"r c #B3CBC5",
"t c #A0DAC8",
"y c #B6DBD0",
"u c #B3E2D3",
"i c #B9E0D4",
"p c #BDE5D9",
"a c #C0D4CE",
"s c #CDDDD8",
"d c #C6E9DE",
"f c #D9E5E2",
"g c #D6EBE5",
"h c #D0EDE4",
"j c #D9F0E9",
"k c #E6EEEC",
"l c #E3F4EF",
"z c #F2F6F5",
"x c #F6FBFA",
"c c white",
"v c None",
/* pixels */
"vvvvv44444444444444444444444444444444444444vvvvv",
"vvv444444444444444444444444444444444444444444vvv",
"vv44444444444444444444444444444444444444444444vv",
"v4444444444444444444444444444444444444444444444v",
"v4444444444444444444444444444444444444444444444v",
"444444444444444444444444444444444444444444444444",
"444444444444444444444444444444444444444444444444",
"444444444444444444444444444444444444444444444444",
"444444444444444444444444444444444444444444444444",
"444444444444444444444444444444444444444444444444",
"444444444444444444444444444444444444444444444444",
"444444444444444444444444444444444444444444444444",
"444444444444444444444444444444444444444444444444",
"444444444444444444444444444444444444444444444444",
"44444444444444444444444444444444444pxh5444444444",
"444444444ejd644444444ejp6444444444pcccg344444444",
"444444446ccccp5444446ccccu54444444xcccc*34444444",
"444444440cccccxt4444ecccccxt444449ccccc=O3444444",
"444444440cccccccl044ucccccccl04440ccccc= O344444",
"444444440ccccccccch6uccccccccch640ccccc=  #44444",
"444444440ccccccccccclccccccccccxueccccc=  .44444",
"444444440ccccccccccccccccccccccccxccccc=   44444",
"444444440cccccccccccccccccccccccccccccc=   44444",
"444444440cccccccccccccccccccccccccccccc=   44444",
"444444440cccccccccccccccccccccccccccccc=   44444",
"444444440cccccccccccccccccccccccccccccc=   44444",
"444444440cccccccccccccccccccccccczccccc=   44444",
"444444440cccccccccccfccccccccccz8<ccccc=   44444",
"444444440ccccccccca+8ccccccccca+ =ccccc=   44444",
"444444440cccccccf=  8cccccccf=   =ccccc=   44444",
"444444440cccccz7    <cccccz7     $ccccc=   44444",
"444444446ccccwo     +cccc8o       zcccc+   44444",
"444444444qsr+        1sw+        Xycccs    44444",
"4444444444;        .-4;        .-44ikao    44444",
"44444444444;      %3444;      %34444#      44444",
"444444444444;   @,444444;   @24444444#    O44444",
"4444444444444>&>444444444>&,4444444444#   :44444",
"444444444444444444444444444444444444444-#:444444",
"444444444444444444444444444444444444444444444444",
"444444444444444444444444444444444444444444444444",
"444444444444444444444444444444444444444444444444",
"444444444444444444444444444444444444444444444444",
"444444444444444444444444444444444444444444444444",
"v4444444444444444444444444444444444444444444444v",
"v4444444444444444444444444444444444444444444444v",
"vv44444444444444444444444444444444444444444444vv",
"vvv444444444444444444444444444444444444444444vvv",
"vvvvv44444444444444444444444444444444444444vvvvv"
};
