/* XPM */
static const char *layers2_16[] = {
/* columns rows colors chars-per-pixel */
"16 16 64 1 ",
"  c #9E3472",
". c #9F3374",
"X c #A23668",
"o c #A63469",
"O c #A1326F",
"+ c #A13271",
"@ c #A03272",
"# c #EB0F7F",
"$ c #EB1378",
"% c #EB117B",
"& c #EB107D",
"* c #C42B66",
"= c #C62A66",
"- c #C6266D",
"; c #C6256F",
": c #C62A68",
"> c #C6296A",
", c #C6286B",
"< c #C62372",
"1 c #C62471",
"2 c #C62274",
"3 c #C42177",
"4 c #C62176",
"5 c #8F4160",
"6 c #EB0D82",
"7 c #DF2191",
"8 c #EE3187",
"9 c #EE2B92",
"0 c #EF3F91",
"q c #EF3A99",
"w c #E33FA0",
"e c #EF4588",
"r c #F04B9F",
"t c #F04D9C",
"y c #F04C9D",
"u c #F05393",
"i c #F05295",
"p c #F05096",
"a c #E54EA7",
"s c #EA4BA7",
"d c #EF48A5",
"f c #EE49A7",
"g c #F049A1",
"h c #F04AA1",
"j c #F048A3",
"k c #F587BE",
"l c #F587BF",
"z c #F58ABB",
"x c #F589BC",
"c c #F588BD",
"v c #F69BBF",
"b c #FAC6DA",
"n c #FAC6DB",
"m c #FAC3DE",
"M c #FAC3DF",
"N c #FAC5DC",
"B c #FAC4DD",
"V c #FAC4DE",
"C c #FAC2E0",
"Z c #FAC2E1",
"A c #F9C2E2",
"S c #F8C3E2",
"D c white",
"F c None",
/* pixels */
"7sffggrtt0oFFFFF",
"aDDDDDDDDBXFFFFF",
"aDDDDDDDDBXFFFFF",
"aDDDDDDDDBXFFFFF",
"aDDDDDDDDbXFFFFF",
"aDDDD6##%%8iiue*",
"aDDDD6#%%%xDDDb*",
"aDDDD6##%$xDDDb*",
"aDDDD6#&%$xDDDb*",
"wSCCB6#&%$xDDDb*",
". +++9llxxNDDDb=",
"FFFFFgDDDDDDDDb=",
"FFFFFgDDDDDDDDb*",
"FFFFFgDDDDDDDDb*",
"FFFFFqCBBBBNNbv=",
"FFFFF44<<<;-,,=5"
};
