/* XPM */
static const char *layers_16[] = {
/* columns rows colors chars-per-pixel */
"16 16 74 1 ",
"  c #7C3F75",
". c #5E545E",
"X c #5F545E",
"o c #58585A",
"O c #664A6C",
"+ c #68496B",
"@ c #744869",
"# c #714471",
"$ c #734274",
"% c #7E4172",
"& c #853F71",
"* c #863D75",
"= c #8C357F",
"- c #8E3879",
"; c #824070",
": c #742F8F",
"> c #792E8F",
", c #7E2D8F",
"< c #6A3785",
"1 c #6D3982",
"2 c #713982",
"3 c #6F2F90",
"4 c #832D8F",
"5 c #882C8E",
"6 c #8D2C8E",
"7 c #9C2D87",
"8 c #922B8E",
"9 c #962A8D",
"0 c #972A8D",
"q c #9B2B8A",
"w c #9F2B89",
"e c #9C298D",
"r c #8E3480",
"t c #923183",
"y c #9D3080",
"u c #9D3894",
"i c #A5278D",
"p c #AE2689",
"a c #AA268D",
"s c #AF258C",
"d c #A0288D",
"f c #B4238C",
"g c #B0258C",
"h c #AB3494",
"j c #AF3494",
"k c #B4419B",
"l c #BA4FA2",
"z c #AE51A2",
"x c #B250A2",
"c c #BC5DAA",
"v c #A262AB",
"b c #A661AA",
"n c #AD60AA",
"m c #B76DB1",
"M c #BF88BF",
"N c #CD94C6",
"B c #D293C6",
"V c #CEA2CE",
"C c #D5B0D5",
"Z c #E0BCDB",
"A c #E1BCDB",
"S c #E1CAE3",
"D c #E0CBE3",
"F c #E3CAE3",
"G c #E7C9E3",
"H c #E4CAE3",
"J c #E5CAE3",
"K c #E6CAE3",
"L c #E9C9E3",
"P c #EAC9E2",
"I c #EDD7EA",
"U c #FAF1F8",
"Y c white",
"T c None",
/* pixels */
"3:>,45689e=TTTTT",
"3:>,45689etTTTTT",
"3:>,45689eqqasTT",
"3:>,DFFHHHLLLgoT",
"3:>,YYYYYYYYYgoT",
"3:>,YYYYYYYYYgoT",
"3:>,YYYYmzIckgoT",
"3:>,YYYYuediagoT",
"3:>,YYMn9ediagpT",
"3:>,YY689zZBagf&",
"<12,YYC89ZYYlgyo",
"TTT,YYV89NYUjgpT",
"TTT,vb689exhagf;",
"TTTTO+$#9edia-@o",
"TTTTTTTT9et7a*TT",
"TTTTTTTTT XT%XTT"
};
