/* XPM */
static const char *layers_32[] = {
/* columns rows colors chars-per-pixel */
"32 32 129 2 ",
"   c #7D3C7A",
".  c #5F545D",
"X  c #5D555E",
"o  c #58585A",
"O  c #5F4E67",
"+  c #5E4E68",
"@  c #634D67",
"#  c #604E67",
"$  c #614E67",
"%  c #654F64",
"&  c #644D67",
"*  c #654D67",
"=  c #6F4B67",
"-  c #6A4C67",
";  c #634D68",
":  c #75476A",
">  c #75456E",
",  c #70496A",
"<  c #635260",
"1  c #645160",
"2  c #614870",
"3  c #784370",
"4  c #883D73",
"5  c #81397C",
"6  c #84387D",
"7  c #8C3979",
"8  c #8F3879",
"9  c #943679",
"0  c #95357B",
"q  c #93357C",
"w  c #98347B",
"e  c #98337C",
"r  c #814070",
"t  c #732F8F",
"y  c #762E8F",
"u  c #792E8F",
"i  c #7B2E8F",
"p  c #7D2D8F",
"a  c #7E2D8F",
"s  c #773585",
"d  c #7B308B",
"f  c #6E2F90",
"g  c #702F90",
"h  c #802D8F",
"j  c #822D8F",
"k  c #852D8F",
"l  c #872C8E",
"z  c #8F2B8E",
"x  c #892C8E",
"c  c #8C2C8E",
"v  c #9F2E82",
"b  c #962C8A",
"n  c #902B8E",
"m  c #932B8E",
"M  c #952B8D",
"N  c #9B298D",
"B  c #982A8D",
"V  c #9D298D",
"C  c #9F288D",
"Z  c #863384",
"A  c #883188",
"S  c #923183",
"D  c #9B3180",
"F  c #993280",
"G  c #933995",
"H  c #A62B86",
"J  c #A4278D",
"K  c #A6278D",
"L  c #A9268D",
"P  c #AE258C",
"I  c #AC268C",
"U  c #A12A8A",
"Y  c #A1288D",
"T  c #A92889",
"R  c #B3238C",
"E  c #B5228C",
"W  c #B1248C",
"Q  c #B8218B",
"!  c #A33694",
"~  c #AC3494",
"^  c #AE3494",
"/  c #9D469C",
"(  c #B3419B",
")  c #9754A4",
"_  c #B74FA2",
"`  c #BE4EA2",
"'  c #A254A3",
"]  c #B45FAA",
"[  c #9F62AB",
"{  c #B26DB1",
"}  c #B76DB1",
"|  c #BD7AB8",
" . c #C35BA9",
".. c #C079B8",
"X. c #C379B8",
"o. c #C487BF",
"O. c #CC86BF",
"+. c #CD94C6",
"@. c #CF94C6",
"#. c #D093C6",
"$. c #D592C6",
"%. c #D493C6",
"&. c #CDA3CE",
"*. c #D2A2CD",
"=. c #D7A1CD",
"-. c #DAA0CD",
";. c #DAAFD4",
":. c #DDBDDB",
">. c #E1CAE3",
",. c #E0CBE3",
"<. c #E2CAE3",
"1. c #E3CAE3",
"2. c #E7C9E3",
"3. c #E4CAE3",
"4. c #E5CAE3",
"5. c #E6CAE3",
"6. c #E8C9E3",
"7. c #E9C9E3",
"8. c #EAC9E2",
"9. c #EAC9E3",
"0. c #EAD7EA",
"q. c #ECD7EA",
"w. c #EDD7EA",
"e. c #EED6EA",
"r. c #F1E5F1",
"t. c #FAF1F8",
"y. c #F8F2F8",
"u. c white",
"i. c None",
/* pixels */
"f g t y u i i j j k l l c z m m m B V V V > i.i.i.i.i.i.i.i.i.i.",
"f g t y u u i j j k l c c z z m M M B V V - i.i.i.i.i.i.i.i.i.i.",
"f g t y u i i j j k l l c z z m M B V V J - i.i.i.i.i.i.i.i.i.i.",
"f g t y u u p j j k l c c z z m M M V V V - i.i.i.i.i.i.i.i.i.i.",
"f g t y u i p j j j l l c z m m M B N V V 3 i.i.i.i.i.i.i.i.i.i.",
"f f t y u i p j j j l c c z z m M B V V V J K K L I I H i.i.i.i.",
"f g t y u u p ) >.>.>.1.1.1.1.3.3.3.3.3.6.6.6.6.7.7.` D o i.i.i.",
"f g y y u u p [ u.u.u.u.u.u.u.u.u.u.u.u.u.u.u.u.u.u. .D o i.i.i.",
"f g y y u i p [ u.u.u.u.u.u.u.u.u.u.u.u.u.u.u.u.u.u. .D o i.i.i.",
"f g t y u i p [ u.u.u.u.u.u.u.u.u.u.u.u.u.u.u.u.u.u. .D o i.i.i.",
"f g t y u i p [ u.u.u.u.u.u.u.u.u.u.u.u.u.u.u.u.u.u. .D o i.i.i.",
"f f t y u i p [ u.u.u.u.u.u.u.u.u.u.u.u.u.u.u.u.u.u. .e o i.i.i.",
"f g t y u u p [ u.u.u.u.u.u.u.u.y.*.] ;.u.u.u._ ( $.` D o i.i.i.",
"f g t y u i j [ u.u.u.u.u.u.u.u.} B B ! w.6.O.K L I I D o i.i.i.",
"f g t y u i i [ u.u.u.u.u.u.u.u.| B V V J V K K L I I D o i.i.i.",
"f g t y u i i [ u.u.u.u.u.u.u.u.o.M V V V Y J L L I W D o i.i.i.",
"f g t y u i j [ u.u.u.u.u.1.y.:.M B V V J V K K L I I H e E i.i.",
"f g t y u i i [ u.u.u.u.&.z z m M B N V V J K K L I I R R E w i.",
"f g t y u i i [ u.u.u.u.' z z m M B N V ..#.O.~ L I I R R E Q o ",
"f g t u u i i [ u.u.u.u.G z z m M B V 3.u.u.u.w.~ I I R R E 4 o ",
"f g t y u u i [ u.u.u.u.r.{ z m M B | u.u.u.u.u.$.I I W R : o i.",
"2 + O O @ @ s [ u.u.u.u.u.y.m m M B +.u.u.u.u.u.9.I I R R = i.i.",
"i.i.i.i.i.i.d [ u.u.u.u.u.y.z m M B ..u.u.u.u.u.%.P I R R e i.i.",
"i.i.i.i.i.i.i [ u.u.u.u.0./ z m M B N w.u.u.u.t.^ P I W R E Q i.",
"i.i.i.i.i.i.i ) 1.,.>.1.' z m m M B B ! @.2.=.~ ~ I W R R E E . ",
"i.i.i.i.i.i.i j j k k x x z z M M B V V V Y K K L I I I R E 9 o ",
"i.i.i.i.i.i.i.* ; @ * * * A Z   M B V V J V K K L I I 9 = r 1 o ",
"i.i.i.i.i.i.i.i.i.i.i.i.i.i.o o 5 B B V V J Y K L I 0 o o i.i.i.",
"i.i.i.i.i.i.i.i.i.i.i.i.i.i.i.i.i.B V V J V K K L I F o i.i.i.i.",
"i.i.i.i.i.i.i.i.i.i.i.i.i.i.i.i.i.B B V S - , Y L I T o i.i.i.i.",
"i.i.i.i.i.i.i.i.i.i.i.i.i.i.i.i.i.6 b V 1 o i.i.L 7 1 o i.i.i.i.",
"i.i.i.i.i.i.i.i.i.i.i.i.i.i.i.i.i.i.o X o i.i.i.i.o o i.i.i.i.i."
};
