/* XPM */
static const char *model_preview_64[] = {
/* columns rows colors chars-per-pixel */
"64 64 199 2 ",
"   c #58585A",
".  c #744F53",
"X  c #744F54",
"o  c #744F55",
"O  c #7D4C51",
"+  c #7D4D51",
"@  c #7D4C52",
"#  c #7D4C53",
"$  c #7D4B56",
"%  c #7D4B57",
"&  c #7D4C54",
"*  c #7D4C55",
"=  c #7D4C56",
"-  c #754D59",
";  c #7D4B58",
":  c #7D4B59",
">  c #6A5255",
",  c #6A5256",
"<  c #6A5257",
"1  c #675358",
"2  c #615558",
"3  c #BD383F",
"4  c #D92F3C",
"5  c #CF313F",
"6  c #D9303A",
"7  c #E22D35",
"8  c #E22D36",
"9  c #EB2A34",
"0  c #EB2A35",
"q  c #EB2936",
"w  c #EB2937",
"e  c #EB273C",
"r  c #EB273D",
"t  c #EB273E",
"y  c #EB273F",
"u  c #E22B3C",
"i  c #E22B3D",
"p  c #EB2838",
"a  c #EB2839",
"s  c #EB283A",
"d  c #EB283B",
"f  c #AB3E44",
"g  c #AB3E45",
"h  c #AB3D49",
"j  c #AB3C4D",
"k  c #BD3645",
"l  c #B43B44",
"z  c #B43A45",
"x  c #B43A46",
"c  c #BD3840",
"v  c #BD364B",
"b  c #B43948",
"n  c #B43949",
"m  c #B4394A",
"M  c #D92D40",
"N  c #D92D42",
"B  c #D92D46",
"V  c #D92D48",
"C  c #D92C4A",
"Z  c #DC2C48",
"A  c #C63443",
"S  c #CF3045",
"D  c #C63348",
"F  c #C63349",
"G  c #D92958",
"H  c #EB2740",
"J  c #EB2741",
"K  c #EB2742",
"L  c #EB2743",
"P  c #EB2744",
"I  c #EB2745",
"U  c #EB2746",
"Y  c #EB2747",
"T  c #E22A42",
"R  c #E22A44",
"E  c #EB2549",
"W  c #EB2648",
"Q  c #EB2649",
"!  c #EB254A",
"~  c #EB244B",
"^  c #EB244C",
"/  c #EB244D",
"(  c #EB244E",
")  c #EB244F",
"_  c #EC3549",
"`  c #EC354C",
"'  c #EC354D",
"]  c #EC354E",
"[  c #EB2450",
"{  c #EB2451",
"}  c #EB2452",
"|  c #EB2453",
" . c #EB2355",
".. c #EB2356",
"X. c #EB2357",
"o. c #EB2454",
"O. c #EB2258",
"+. c #EC3453",
"@. c #EC3553",
"#. c #EC3354",
"$. c #EC3355",
"%. c #EC3257",
"&. c #EC3258",
"*. c #EC3259",
"=. c #EC325A",
"-. c #EC325B",
";. c #EC325C",
":. c #EC325D",
">. c #EC325E",
",. c #8F474B",
"<. c #8F464E",
"1. c #864A4E",
"2. c #98434B",
"3. c #98434E",
"4. c #8F4650",
"5. c #8F4651",
"6. c #864951",
"7. c #864953",
"8. c #984351",
"9. c #A24148",
"0. c #A2404B",
"q. c #A2404F",
"w. c #EE4258",
"e. c #EE4259",
"r. c #EE425A",
"t. c #EE425C",
"y. c #EF4D6D",
"u. c #EF4D6E",
"i. c #EF5062",
"p. c #EF5067",
"a. c #EF5068",
"s. c #EF506A",
"d. c #F05D6D",
"f. c #EF4D70",
"g. c #F05D71",
"h. c #F05D72",
"j. c #F05D74",
"k. c #F05D75",
"l. c #F05C76",
"z. c #F05B78",
"x. c #F05B79",
"c. c #F05B7D",
"v. c #F16B7A",
"b. c #F16B7D",
"n. c #F16982",
"m. c #F16883",
"M. c #F16983",
"N. c #F16884",
"B. c #F16885",
"V. c #F37885",
"C. c #F37886",
"Z. c #F37887",
"A. c #F3778D",
"S. c #F3768E",
"D. c #F37888",
"F. c #F3788A",
"G. c #F37690",
"H. c #F48694",
"J. c #F48696",
"K. c #F48499",
"L. c #F5939E",
"P. c #F593A0",
"I. c #F592A5",
"U. c #F592A7",
"Y. c #F592A8",
"T. c #F69FB0",
"R. c #F6A1AB",
"E. c #F6A1AC",
"W. c #F6A1AD",
"Q. c #F6A0AF",
"!. c #F8AEB7",
"~. c #F8AEB8",
"^. c #F8ADBB",
"/. c #F8ADBC",
"(. c #F8ADBD",
"). c #F8ADBF",
"_. c #F9BCC2",
"`. c #F9BBC7",
"'. c #F9BCC4",
"]. c #F9BBC9",
"[. c #FAC9CF",
"{. c #FAC9D0",
"}. c #FAC9D1",
"|. c #FAC8D2",
" X c #FAC9D2",
".X c #FAC8D3",
"XX c #FAC8D4",
"oX c #FBD7DB",
"OX c #FBD7DC",
"+X c #FBD6DE",
"@X c #FBD6DF",
"#X c #FDE4E7",
"$X c #FDE4E8",
"%X c #FDE4E9",
"&X c #FEF2F3",
"*X c #FEF1F4",
"=X c #FEF2F4",
"-X c white",
";X c None",
/* pixels */
";X;X;X;X;X;X;X;X;X;X;X;X;X;X;X;X;X;X;X;X;X;X;X;X;X;X;X;X;XC U Y Z ;X;X;X;X;X;X;X;X;X;X;X;X;X;X;X;X;X;X;X;X;X;X;X;X;X;X;X;X;X;X;X",
";X;X;X;X;X;X;X;X;X;X;X;X;X;X;X;X;X;X;X;X;X;X;X;X;X;X;X;X;X~ Y Y U 1 ;X;X;X;X;X;X;X;X;X;X;X;X;X;X;X;X;X;X;X;X;X;X;X;X;X;X;X;X;X;X",
";X;X;X;X;X;X;X;X;X;X;X;X;X;X;X;X;X;X;X;X;X;X;X;X;X;X;X;X;XY Y Y U 8.  ;X;X;X;X;X;X;X;X;X;X;X;X;X;X;X;X;X;X;X;X;X;X;X;X;X;X;X;X;X",
";X;X;X;X;X;X;X;X;X;X;X;X;X;X;X;X;X;X;X;X;X;X;X;X;X;X;X;XY ~ Y Y U C   ;X;X;X;X;X;X;X;X;X;X;X;X;X;X;X;X;X;X;X;X;X;X;X;X;X;X;X;X;X",
";X;X;X;X;X;X;X;X;X;X;X;X;X;X;X;X;X;X;X;X;X;X;X;X;X;X;X;XY Y Y Y U U * ;X;X;X;X;X;X;X;X;X;X;X;X;X;X;X;X;X;X;X;X;X;X;X;X;X;X;X;X;X",
";X;X;X;X;X;X;X;X;X;X;X;X;X;X;X;X;X;X;X;X;X;X;X;X;X;X;X~ Y ~ Y Y U U v   ;X;X;X;X;X;X;X;X;X;X;X;X;X;X;X;X;X;X;X;X;X;X;X;X;X;X;X;X",
";X;X;X;X;X;X;X;X;X;X;X;X;X;X;X;X;X;X;X;X;X;X;X;X;X;X;XY Y Y Y Y U U L , ;X;X;X;X;X;X;X;X;X;X;X;X;X;X;X;X;X;X;X;X;X;X;X;X;X;X;X;X",
";X;X;X;X;X;X;X;X;X;X;X;X;X;X;X;X;X;X;X;X;X;X;X;X;X;X;X~ ~ Y Y Y U L U q.  ;X;X;X;X;X;X;X;X;X;X;X;X;X;X;X;X;X;X;X;X;X;X;X;X;X;X;X",
";X;X;X;X;X;X;X;X;X;X;X;X;X;X;X;X;X;X;X;X;X;X;X;X;X;X~ Y Y Y Y Y U U L B   ;X;X;X;X;X;X;X;X;X;X;X;X;X;X;X;X;X;X;X;X;X;X;X;X;X;X;X",
";X;X;X;X;X;X;X;X;X;X;X;X;X;X;X;X;X;X;X;X;X;X;X;X;X;X~ ~ ^ ~ Y Y U U L L 7.;X;X;X;X;X;X;X;X;X;X;X;X;X;X;X;X;X;X;X;X;X;X;X;X;X;X;X",
";X;X;X;X;X;X;X;X;X;X;X;X;X;X;X;X;X;X;X;X;X;X;X;X;X~ Y ~ Y Y Y Y U L U L D   ;X;X;X;X;X;X;X;X;X;X;X;X;X;X;X;X;X;X;X;X;X;X;X;X;X;X",
";X;X;X;X;X;X;X;X;X;X;X;X;X;X;X;X;X;X;X;X;X;X;X;X;X~ ~ ~ Y ~ Y Y U U U L U , ;X;X;X;X;X;X;X;X;X;X;X;X;X;X;X;X;X;X;X;X;X;X;X;X;X;X",
";X;X;X;X;X;X;X;X;X;X;X;X;X;X;X;X;X;X;X;X;X;X;X;X~ ~ Y ~ Y Y Y Y U U L L L j   ;X;X;X;X;X;X;X;X;X;X;X;X;X;X;X;X;X;X;X;X;X;X;X;X;X",
";X;X;X;X;X;X;X;X;X;X;X;X;X;X;X;X;X;X;X;X;X;X;X;X~ ~ Y ~ ~ Y Y Y U U U L L R   ;X;X;X;X;X;X;X;X;X;X;X;X;X;X;X;X;X;X;X;X;X;X;X;X;X",
";X;X;X;X;X;X;X;X;X;X;X;X;X;X;X;X;X;X;X;X;X;X;X;X~ ~ ~ ~ ~ Y Y Y U U L L L L 4.  ;X;X;X;X;X;X;X;X;X;X;X;X;X;X;X;X;X;X;X;X;X;X;X;X",
";X;X;X;X;X;X;X;X;X;X;X;X;X;X;X;X;X;X;X;X;X;X;X^ ~ ~ ~ Y Y Y Y Y U L L U L L D   ;X;X;X;X;X;X;X;X;X;X;X;X;X;X;X;X;X;X;X;X;X;X;X;X",
";X;X;X;X;X;X;X;X;X;X;X;X;X;X;X;X;X;X;X;X;X;X;X^ ~ ~ Y U Y ~ Y Y Y J J Y J J J X ;X;X;X;X;X;X;X;X;X;X;X;X;X;X;X;X;X;X;X;X;X;X;X;X",
";X;X;X;X;X;X;X;X;X;X;X;X;X;X;X;X;X;X;X;X;X;X^ ^ ~ ~ ~ ~ Y U Y Y Y Y Y J Y J Y n   ;X;X;X;X;X;X;X;X;X;X;X;X;X;X;X;X;X;X;X;X;X;X;X",
";X;X;X;X;X;X;X;X;X;X;X;X;X;X;X;X;X;X;X;X;X;X^ ^ ~ ~ ~ U ~ ~ Y Y Y J J Y J J J T 2 ;X;X;X;X;X;X;X;X;X;X;X;X;X;X;X;X;X;X;X;X;X;X;X",
";X;X;X;X;X;X;X;X;X;X;X;X;X;X;X;X;X;X;X;X;X;X^ ^ ~ ~ ~ ~ Y Y Y Y Y Y Y J Y J J J 4.  ;X;X;X;X;X;X;X;X;X;X;X;X;X;X;X;X;X;X;X;X;X;X",
";X;X;X;X;X;X;X;X;X;X;X;X;X;X;X;X;X;X;X;X;X^ [ ^ ~ ~ ~ ~ ~ Y Y Y Y Y J Y J J J J S   ;X;X;X;X;X;X;X;X;X;X;X;X;X;X;X;X;X;X;X;X;X;X",
";X;X;X;X;X;X;X;X;X;X;X;X;X;X;X;X;X;X;X;X;X^ ^ ^ ~ ~ ~ Y Y Y Y Y Y J Y J Y J Y J J X ;X;X;X;X;X;X;X;X;X;X;X;X;X;X;X;X;X;X;X;X;X;X",
";X;X;X;X;X;X;X;X;X;X;X;X;X;X;X;X;X;X;X;X[ ^ ^ ^ ~ ~ ~ ~ Y ~ Y Y Y J J Y J J J J J n   ;X;X;X;X;X;X;X;X;X;X;X;X;X;X;X;X;X;X;X;X;X",
";X;X;X;X;X;X;X;X;X;X;X;X;X;X;X;X;X;X;X;X^ [ ^ ^ ^ ^ Y ^ Y Y Y Y Y Y Y J Y J J J y y 2 ;X;X;X;X;X;X;X;X;X;X;X;X;X;X;X;X;X;X;X;X;X",
";X;X;X;X;X;X;X;X;X;X;X;X;X;X;X;X;X;X;X;X^ ^ ^ ^ ^ ~ ~ ~ Y ~ U U Y J J Y J Y J J J y 3.  ;X;X;X;X;X;X;X;X;X;X;X;X;X;X;X;X;X;X;X;X",
";X;X;X;X;X;X;X;X;X;X;X;X;X;X;X;X;X;X;X[ [ ^ [ ^ ^ ~ ~ Y ~ Y U U Y Y Y J J J J J y y N   ;X;X;X;X;X;X;X;X;X;X;X;X;X;X;X;X;X;X;X;X",
";X;X;X;X;X;X;X;X;X;X;X;X;X;X;X;X;X;X;X[ [ ^ ^ ^ ~ ~ ~ Y ~ U Y Y Y Y J Y J Y J J y y y @ ;X;X;X;X;X;X;X;X;X;X;X;X;X;X;X;X;X;X;X;X",
";X;X;X;X;X;X;X;X;X;X;X;X;X;X;X;X;X;X[ ^ [ ^ ^ ^ ~ ~ ~ ~ Y ~ Y Y Y J Y J J J J J y y y x   ;X;X;X;X;X;X;X;X;X;X;X;X;X;X;X;X;X;X;X",
";X;X;X;X;X;X;X;X;X;X;X;X;X;X;X;X;X;X^ [ ^ ^ ^ ^ ~ ~ ~ n.^.#X-X-X-X-X{.J.r.L L d J y y y , ;X;X;X;X;X;X;X;X;X;X;X;X;X;X;X;X;X;X;X",
";X;X;X;X;X;X;X;X;X;X;X;X;X;X;X;X;X;X[ [ ^ [ ^ ^ ~ A.#X-X-X-X-X-X-X-X-X-X-X^.r.J y J y e 0.  ;X;X;X;X;X;X;X;X;X;X;X;X;X;X;X;X;X;X",
";X;X;X;X;X;X;X;X;X;X;X;X;X;X;X;X;X[ [ [ [ [ ^ &.{.-X-X-X-X-X-X-X-X-X-X-X-X-X*XD.d J L d M   ;X;X;X;X;X;X;X;X;X;X;X;X;X;X;X;X;X;X",
";X;X;X;X;X;X;X;X;X;X;X;X;X;X;X;X;X[ [ ^ ^ ^ f.%X-X-X-X*XQ.l.@.Y Y a.D.{.-X-X-X-XR.L d d d 7.;X;X;X;X;X;X;X;X;X;X;X;X;X;X;X;X;X;X",
";X;X;X;X;X;X;X;X;X;X;X;X;X;X;X;X{ ) ) ) ) %.OX-X-X-XI.@.~ Y Y Y Y Y J Y g.OX-X-X-XV.y e y k   ;X;X;X;X;X;X;X;X;X;X;X;X;X;X;X;X;X",
";X;X;X;X;X;X;X;X;X;X;X;X;X;X;X;X{ { ) ) ) `.-X-X=Xz.~ ~ Y Y Y Y Y J Y J J ] ^.-X-X-Xi.y e e , ;X;X;X;X;X;X;X;X;X;X;X;X;X;X;X;X;X",
";X;X;X;X;X;X;X;X;X;X;X;X;X;X;X[ { { ) ) N.-X-X-Xn.) ~ Y Y ~ Y Y Y Y J Y Y d L [.-X-XoXy e e g   ;X;X;X;X;X;X;X;X;X;X;X;X;X;X;X;X",
";X;X;X;X;X;X;X;X;X;X;X;X;X;X;X[ { ) ) ) $X-X-XT.~ ~ ~ ^ Y Y Y Y Y J Y J J L L r.*X-X-XV.y e i   ;X;X;X;X;X;X;X;X;X;X;X;X;X;X;X;X",
";X;X;X;X;X;X;X;X;X;X;X;X;X;X;Xo.{ ) ) f.-X-X-X%.~ ~ ~ Y U ~ U U Y J J Y J J J J L.-X-X_.y e a ,.  ;X;X;X;X;X;X;X;X;X;X;X;X;X;X;X",
";X;X;X;X;X;X;X;X;X;X;X;X;X;X[ [ { { { I.-X-X/.) ~ ~ ~ ~ ~ Y U U Y Y Y J Y J J J r.-X-X-Xe y d D   ;X;X;X;X;X;X;X;X;X;X;X;X;X;X;X",
";X;X;X;X;X;X;X;X;X;X;X;X;X;Xo.[ { ) ) |.-X-XA.~ ~ ~ Y ~ ~ U Y Y Y J J Y J J J J y #X-X-Xd.e d d , ;X;X;X;X;X;X;X;X;X;X;X;X;X;X;X",
";X;X;X;X;X;X;X;X;X;X;X;X;Xo.[ o.{ { { $X-X-Xx.~ ~ ~ ~ Y ~ Y Y Y Y Y Y J Y Y J J y [.-X-XV.e d d x   ;X;X;X;X;X;X;X;X;X;X;X;X;X;X",
";X;X;X;X;X;X;X;X;X;X;X;X;Xo.[ [ { { ) -X-X-Xx.) ~ ~ ~ Y ~ Y Y Y Y Y J Y J J Y J J [.-X-XL.e a d i 2 ;X;X;X;X;X;X;X;X;X;X;X;X;X;X",
";X;X;X;X;X;X;X;X;X;X;X;X;Xo.o.[ { ) { $X-X-Xx.~ ~ ~ ~ Y ~ Y Y Y Y J Y J J Y J J y [.-X-XV.e a a e ,.  ;X;X;X;X;X;X;X;X;X;X;X;X;X",
";X;X;X;X;X;X;X;X;X;X;X;X[ o.[ [ { ) ) XX-X-Xm.~ ~ ~ ~ Y Y Y Y Y Y J J Y J J J J J oX-X-Xd.e d d a S   ;X;X;X;X;X;X;X;X;X;X;X;X;X",
";X;X;X;X;X;X;X;X;X;X;X;Xo.o.o.[ { { ) I.-X-X^.) ~ ~ ~ ~ ~ Y Y Y Y Y Y J J Y J J ` -X-X-X` y d d a q X ;X;X;X;X;X;X;X;X;X;X;X;X;X",
";X;X;X;X;X;X;X;X;X;X;Xo. . .{ { { ) ) f.-X-X*X%.~ ~ ~ Y Y ~ Y Y Y J J Y J J L d H.-X-XoXy e d d a a x   ;X;X;X;X;X;X;X;X;X;X;X;X",
";X;X;X;X;X;X;X;X;X;X;Xo.{ {  .{ { { ) ) OX-X-XI.~ ~ ~ Y ~ Y Y Y Y Y Y J Y J L ` *X-X-XV.e e d d a a a 2 ;X;X;X;X;X;X;X;X;X;X;X;X",
";X;X;X;X;X;X;X;X;X;X;Xo. . .{ { { { ) ) N.-X-X*Xy.~ ~ Y Y Y Y Y Y Y J Y J J Y ^.-X-X#Xe e e a d e q q 3.  ;X;X;X;X;X;X;X;X;X;X;X",
";X;X;X;X;X;X;X;X;X;X .o.o.[ { { { ) ) ) =.-X-X-X*Xy.~ ~ Y ~ Y Y Y J Y J J J !.-X-X-Xv.y y e a a a e p 4   ;X;X;X;X;X;X;X;X;X;X;X",
";X;X;X;X;X;X;X;X;X;X .o.o.o.[ [ { { ) ;.@X-X-X-X-X*Xm.~ ~ Y Y Y U U L L ] _.-X-X-X!.y e y e d d a a q a + ;X;X;X;X;X;X;X;X;X;X;X",
";X;X;X;X;X;X;X;X;Xo. .o.o.o.o.[ { { &.OX-X-X-X-X-X-X-X|.A.@.Y Y U U p.Q.*X-X-X-X!.y y e e y d d a a a q l   ;X;X;X;X;X;X;X;X;X;X",
";X;X;X;X;X;X;X;X;Xo.o.o.o.[ o.[ { ;.OX-X-X-X-X-X-X-X-X-X-X-X=X{.oX-X-X-X-X-X-XQ.y y y e e e d d a a q a q > ;X;X;X;X;X;X;X;X;X;X",
";X;X;X;X;X;X;X;X;XO. .o.o.o.o.[ ;.OX-X-X-X-X-X-X`.I.*X-X-X-X-X-X-X-X-X-X-X#Xg.J y y y e y e d d a a a q q 0.  ;X;X;X;X;X;X;X;X;X",
";X;X;X;X;X;X;X;XO.o. .o.o.o.[ ;.OX-X-X-X-X-X-X^.~ ~ #.K.{.-X-X-X-X-X*X'.b.J J J y y y y e e a d a a a q q 6   ;X;X;X;X;X;X;X;X;X",
";X;X;X;X;X;X;X;Xo.O. .o.o.o.;.@X-X-X-X-X-X-X(.~ ~ ~ ~ Y Y ~ a.l.g.t.L U Y J J J y y y e y e a d a a a q q q 1.;X;X;X;X;X;X;X;X;X",
";X;X;X;X;X;X;XO.O.o. .o.o.;.@X-X-X-X-X-X-X^.) ~ ~ ~ ~ ~ ~ ~ U U U U L U J J J J y y y e e e d d d a a q q 9 3   ;X;X;X;X;X;X;X;X",
";X;X;X;X;X;X;XO.o.O. .o.o.(.-X-X-X-X-X-X(.) ~ ) ~ ~ ~ Y Y Y U U U U L L Y J J J y y y e y y d d a a a a q q 9 , ;X;X;X;X;X;X;X;X",
";X;X;X;X;X;X;Xo.O.o. .o.o.XX-X-X-X-X-X(.) ) ~ ~ ~ ~ Y ~ ~ Y Y Y U U U L L L L d J y y y e e d d a a a q q 9 9 g   ;X;X;X;X;X;X;X",
";X;X;X;X;X;XO.O.o.O. .o.o.].-X-X-X-X(.) ) ~ ) ~ ~ ~ ~ ~ Y Y Y Y U L L L L L J J y y y e e e d d a a q a q q 9 7   ;X;X;X;X;X;X;X",
";X;X;X;X;X;XO.O.O.o. .o.o.;.OX-X-XY.) ) ) ) ~ ~ ~ ~ ~ Y Y ~ Y Y U U L U J J J J y y y y y e e a d a a q q 9 9 9 ,.  ;X;X;X;X;X;X",
";X;X;X;X;XO.o.O.o.O. .o.o. .{ c.;.{ ) ) ) ~ ) ~ ~ ~ ~ ^ Y Y Y U U U L L Y J Y J y y e e e e a a a a q a q 9 9 9 3   ;X;X;X;X;X;X",
";X;X;X;X;XO.O.O.O.o. .o.o.o.[ [ { { ) ) ^ [ ^ ^ ~ ~ ~ Y Y ~ U U Y Y J Y J Y J J y y y e y e a a d a a a q 9 9 9 7   ;X;X;X;X;X;X",
";X;X;X;X;XG O.O.o.O. .o.o.o.o.[ { { ) ) [ ^ ^ ^ ~ ~ ~ ~ ~ ~ U U Y J Y Y J J J J J y y y e y d y a a a q q q 9 9 9.    ;X;X;X;X;X",
";X;X;X;X;X;X- : ; : ; ; ; ; ; ; ; ; ; & ; ; ; * * * * * & ; & & @ & & & & + * * @ & & @ + @ * + + + + + + + + +       ;X;X;X;X;X",
";X;X;X;X;X;X;X                                                                                                      ;X;X;X;X;X;X"
};
