/* XPM */
static const char *open_64_xpm[] = {
/* columns rows colors chars-per-pixel */
"64 64 33 1 ",
"  c #2C7F56",
". c #377557",
"X c #3D7057",
"o c #327A56",
"O c #535D59",
"+ c #58585A",
"@ c #486758",
"# c #446958",
"$ c #446A58",
"% c #426C58",
"& c #0D9B52",
"* c #169353",
"= c #119753",
"- c #218954",
"; c #06A152",
": c #00A651",
"> c #10AC5C",
", c #20B167",
"< c #30B772",
"1 c #40BC7D",
"2 c #50C287",
"3 c #60C792",
"4 c #70CD9D",
"5 c #80D3A8",
"6 c #8FD8B3",
"7 c #9FDEBE",
"8 c #AFE3C9",
"9 c #BFE9D4",
"0 c #CFEEDE",
"q c #DFF4E9",
"w c #EFF9F4",
"e c white",
"r c None",
/* pixels */
"rrrrrrrrrrrrrrrrrrrrrrrrrrrrrrrrrrrrrrrrrrrrrrrrrrrrrrrrrrrrrrrr",
"rrrrrrrrrrrrrrrrrrrrrrrrrrrrrrrrrrrrrrrrrrrrrrrrrrrrrrrrrrrrrrrr",
"rrrrrrrrrrrrrrrrrrrrrrrrrrrrrrrrrrrrrrrrrrrrrrrrrrrrrrrrrrrrrrrr",
"rrrrrrrrrrrrrrrrrrrrrrrrrrrrrrrrrrrrrrrrrrrrrrrrrrrrrrrrrrrrrrrr",
"rrrrrrrrrrrrrrrrrrrrrrrrrrrrrrrrrrrrrrrrrrrrrrrrrrrrrrrrrrrrrrrr",
"rrrrrrrrrrrrrrrrrrrrrrrrrrrrrrrrrrrrrrrrrrrrrrrrrrrrrrrrrrrrrrrr",
"rrrrrrrrrrrrrrrrrrrrrrrrrrrrrrrrrrrrrrrrrrrrrrrrrrrrrrrrrrrrrrrr",
"r::::::::::::::::::::::::::::::::::::::::::::::rrrrrrrrrrrrrrrrr",
"::::::::::::::::::::::::::::::::::::::::::::::::rrrrrrrrrrrrrrrr",
"::::::::::::::::::::::::::::::::::::::::::::::::Xrrrrrrrrrrrrrrr",
":::399999999999999999999999999999999999999999:::%+rrrrrrrrrrrrrr",
":::5eeeeeeeeeeeeeeeeeeeeeeeeeeeeeeeeeeeeeeeee:::%+rrrrrrrrrrrrrr",
":::5eeeeeeeeeeeeeeeeeeeeeeeeeeeeeeeeeeeeeeeee:::%+rrrrrrrrrrrrrr",
":::5eeeeeeeeeeeeeeeeeeeeeeeeeeeeeeeeeeeeeeeee:::o%rrrrrrrrrrrrrr",
":::5eeeeeeeeeeeeeeeeeeeeeeeeeeeeeeeeeee7,:::::::::::::rrrrrrrrrr",
":::5eeeeeeeeeeeeeeeeeeeeeeeeeeeeeeeeee8::::::::::::::::rrrrrrrrr",
":::5eeeeeeeeeeeeeeeeeeeeeeeeeeeeeeeeee,::::::::::::::::$rrrrrrrr",
":::5eeeeeeeeeeew6555555555555555555555:::::::::::::::::=&:::rrrr",
":::5eeeeeeeeee0>:::::::::::::::::::::::::::::::::::::::::::::rrr",
":::5eeeeeeeeee1:::::::::::::::::::::::::::::::::::::::::::::::rr",
":::5eeeeeeeeew::::::::::::::::::::::::::::::::::::::::::::::::+r",
":::5eeeeeeeee9::::::::::::::::::::::::::::::::::::::::::::::::++",
":::5eeeeeeeee5:::::::::::::::::::::::::::::::::::::::::::::::=++",
":::5eeeeeeeee2:::::::::::::::::::::::::::::::::::::::::::::::-++",
":::5eeeeeeeee>:::::::::::::::::::::::::::::::::::::::::::::::.++",
":::5eeeeeeeeq::::::::::::::::::::::::::::::::::::::::::::::::@++",
":::5eeeeeeee7:::::::::::::::::::::::::::::::::::::::::::::::;++r",
":::5eeeeeeee4:::::::::::::::::::::::::::::::::::::::::::::::*++r",
":::5eeeeeeee<::::::::::::::::::::::::::::::::::::::::::::::: ++r",
":::5eeeeeeee::::::::::::::::::::::::::::::::::::::::::::::::%++r",
":::5eeeeeee9::::::::::::::::::::::::::::::::::::::::::::::::O+rr",
":::5eeeeeee5:::::::::::::::::::::::::::::::::::::::::::::::=++rr",
":::5eeeeeee2:::::::::::::::::::::::::::::::::::::::::::::::-++rr",
":::5eeeeeee,:::::::::::::::::::::::::::::::::::::::::::::::.++rr",
":::5eeeeeeq::::::::::::::::::::::::::::::::::::::::::::::::@++rr",
":::5eeeeee8:::::::::::::::::::::::::::::::::::::::::::::::;++rrr",
":::5eeeeee4:::::::::::::::::::::::::::::::::::::::::::::::*++rrr",
":::5eeeeee1::::::::::::::::::::::::::::::::::::::::::::::: ++rrr",
":::5eeeeee::::::::::::::::::::::::::::::::::::::::::::::::%++rrr",
":::5eeeee9::::::::::::::::::::::::::::::::::::::::::::::::O+rrrr",
":::5eeeee6:::::::::::::::::::::::::::::::::::::::::::::::=++rrrr",
":::5eeeee2:::::::::::::::::::::::::::::::::::::::::::::::-++rrrr",
":::5eeeee,:::::::::::::::::::::::::::::::::::::::::::::::.++rrrr",
":::5eeeew::::::::::::::::::::::::::::::::::::::::::::::::@++rrrr",
":::5eeee8:::::::::::::::::::::::::::::::::::::::::::::::;++rrrrr",
":::5eeee5:::::::::::::::::::::::::::::::::::::::::::::::*++rrrrr",
":::5eeee1::::::::::::::::::::::::::::::::::::::::::::::: ++rrrrr",
":::5eeee::::::::::::::::::::::::::::::::::::::::::::::::%++rrrrr",
":::5eee0::::::::::::::::::::::::::::::::::::::::::::::::O+rrrrrr",
":::5eee6:::::::::::::::::::::::::::::::::::::::::::::::=++rrrrrr",
":::5eee3:::::::::::::::::::::::::::::::::::::::::::::::-++rrrrrr",
":::3999,:::::::::::::::::::::::::::::::::::::::::::::::.++rrrrrr",
":::::::::::::::::::::::::::::::::::::::::::::::::::::::@++rrrrrr",
"::::::::::::::::::::::::::::::::::::::::::::::::::::::*++rrrrrrr",
"r::::::::::::::::::::::::::::::::::::::::::::::::::::*O++rrrrrrr",
"rr$%%%%%%%%%%%%%%%%%%%%%%%%%%%%%%%%%%%%%%%%%%%%%%%%%@++++rrrrrrr",
"rrr+++++++++++++++++++++++++++++++++++++++++++++++++++++rrrrrrrr",
"rrrrrrrrrrrrrrrrrrrrrrrrrrrrrrrrrrrrrrrrrrrrrrrrrrrrrrrrrrrrrrrr",
"rrrrrrrrrrrrrrrrrrrrrrrrrrrrrrrrrrrrrrrrrrrrrrrrrrrrrrrrrrrrrrrr",
"rrrrrrrrrrrrrrrrrrrrrrrrrrrrrrrrrrrrrrrrrrrrrrrrrrrrrrrrrrrrrrrr",
"rrrrrrrrrrrrrrrrrrrrrrrrrrrrrrrrrrrrrrrrrrrrrrrrrrrrrrrrrrrrrrrr",
"rrrrrrrrrrrrrrrrrrrrrrrrrrrrrrrrrrrrrrrrrrrrrrrrrrrrrrrrrrrrrrrr",
"rrrrrrrrrrrrrrrrrrrrrrrrrrrrrrrrrrrrrrrrrrrrrrrrrrrrrrrrrrrrrrrr",
"rrrrrrrrrrrrrrrrrrrrrrrrrrrrrrrrrrrrrrrrrrrrrrrrrrrrrrrrrrrrrrrr"
};
