/* XPM */
static const char *open_24_xpm[] = {
/* columns rows colors chars-per-pixel */
"24 24 29 1 ",
"  c #357756",
". c #3D7057",
"X c #327A56",
"o c #58585A",
"O c #4D6259",
"+ c #416D58",
"@ c #426C58",
"# c #1C8E54",
"$ c #0B9C52",
"% c #099E52",
"& c #169353",
"* c #278455",
"= c #06A152",
"- c #00A651",
"; c #20B167",
": c #30B772",
"> c #40BC7D",
", c #50C287",
"< c #60C792",
"1 c #80D3A8",
"2 c #8FD8B3",
"3 c #9FDEBE",
"4 c #AFE3C9",
"5 c #BFE9D4",
"6 c #CFEEDE",
"7 c #DFF4E9",
"8 c #EFF9F4",
"9 c white",
"0 c None",
/* pixels */
"000000000000000000000000",
"000000000000000000000000",
"0----------------0000000",
"-:>>>>>>>>>>>>>>>-000000",
"-5999999999999999-@00000",
"-59999999999996,>---0000",
"-5999831111111:-----=--0",
"-5999<----------------- ",
"-5999;-----------------@",
"-5997------------------o",
"-5994-----------------&o",
"-5991-----------------*0",
"-599>-----------------.0",
"-599------------------O0",
"-596-----------------%o0",
"-592-----------------#o0",
"-59<-----------------X00",
"-59;-----------------@00",
"-58------------------o00",
"-<<-----------------&o00",
"%&&&&&&&&&&&&&&&&&&&@000",
"00oooooooooooooooooo0000",
"000000000000000000000000",
"000000000000000000000000"
};
