/* XPM */
static const char *output_lights_off_64[] = {
/* columns rows colors chars-per-pixel */
"64 64 24 1 ",
"  c #58585A",
". c #5F5F61",
"X c #666668",
"o c #6D6D6F",
"O c #747476",
"+ c #7A7A7C",
"@ c #7B7B7D",
"# c #828284",
"$ c #89898B",
"% c #898A8C",
"& c #909092",
"* c #969799",
"= c #9B9B9D",
"- c #9D9EA0",
"; c #A4A5A7",
": c #A9AAAC",
"> c #ABACAE",
", c #B2B3B5",
"< c #B8B9BB",
"1 c #B9BABC",
"2 c #BEBFC1",
"3 c #C0C1C3",
"4 c #C7C8CA",
"5 c None",
/* pixels */
"5555555555555555555555555544444444445555555555555555555555555555",
"55555555555555555555555444444>>>>4444445555555555555555555555555",
"5555555555555555555554443-@.      X@-344455555555555555555555555",
"55555555555555555554441#              #1444555555555555555555555",
"555555555555555555443#                  $34455555555555555555555",
"5555555555555555544,.                    X,445555555555555555555",
"555555555555555544-                       .;43555555555555555555",
"55555555555555544-                          ;4<55555555555555555",
"5555555555555544,                           .,4=5555555555555555",
"5555555555555543.                            o34@555555555555555",
"555555555555544#                              &4> 55555555555555",
"55555555555554>                                14O55555555555555",
"55555555555544#                                #4; 5555555555555",
"55555555555541                                 .34.5555555555555",
"5555555555554*                                  -4# 555555555555",
"5555555555544@                                  #4- 555555555555",
"5555555555544.                                  X4, 555555555555",
"5555555555543                                    44  55555555555",
"555555555554>                                    14  55555555555",
"555555555554>                                    >4  55555555555",
"555555555554>                                    >4  55555555555",
"555555555554>                                    14  55555555555",
"5555555555541                                    44  55555555555",
"5555555555544                                   .41  55555555555",
"5555555555544O                                  @4;  55555555555",
"5555555555544$                                  *4$  55555555555",
"5555555555554,                                  14o  55555555555",
"55555555555544O                                @4,   55555555555",
"55555555555544>                                >4#  555555555555",
"555555555555544O                              O41   555555555555",
"555555555555544>                              14#   555555555555",
"5555555555555544#                            $4,   5555555555555",
"55555555555555541                           .34O   5555555555555",
"55555555555555544#                          &4>   55555555555555",
"555555555555555541                         .34X  555555555555555",
"555555555555555544#                        #4;   555555555555555",
"555555555555555554;                        ,4O  5555555555555555",
"5555555555555555544.                      X41   5555555555555555",
"5555555555555555544#                      $4*  55555555555555555",
"5555555555555555554-                      ;4@  55555555555555555",
"5555555555555555554,                      14.  55555555555555555",
"55555555555555555544                      43  555555555555555555",
"55555555555555555544X                    O4>  555555555555555555",
"55555555555555555544$                    &4;  555555555555555555",
"5555555555555555555444444444444444444444444O  555555555555555555",
"55555555555555555555>>>>>>>>>>>>>>>>>>>>>>@   555555555555555555",
"55555555555555555555%&&&&&&&&&&&&&&&&&&&&O   5555555555555555555",
"555555555555555555554444444444444444444444O 55555555555555555555",
"555555555555555555544444444444444444444444&555555555555555555555",
"555555555555555555554444444444444444444444@ 55555555555555555555",
"55555555555555555555=&&&&&&&&&&&&&&&&&&&&#   5555555555555555555",
"555555555555555555555                       55555555555555555555",
"5555555555555555555544>>>>>>>>>>>>>>>>>>>&  55555555555555555555",
"555555555555555555554444444444444444444444=555555555555555555555",
"555555555555555555544444444444444444444444& 55555555555555555555",
"555555555555555555554444444444444444444443o 55555555555555555555",
"555555555555555555555OOOOOOOOOOOOOOOOOOOOX   5555555555555555555",
"5555555555555555555555                      55555555555555555555",
"55555555555555555555555244444444444444>    555555555555555555555",
"55555555555555555555555444444444444444$ 555555555555555555555555",
"55555555555555555555555544444444444441.  55555555555555555555555",
"5555555555555555555555555>4444444444;X   55555555555555555555555",
"55555555555555555555555555              555555555555555555555555",
"555555555555555555555555555            5555555555555555555555555"
};
