/* XPM */
static const char *output_lights_on_32[] = {
/* columns rows colors chars-per-pixel */
"32 32 49 1 ",
"  c #58585A",
". c #626157",
"X c #6C6B53",
"o c #5F5F61",
"O c #636365",
"+ c #666668",
"@ c #6D6D6F",
"# c #6E6E70",
"$ c #747476",
"% c #767678",
"& c #797A7C",
"* c #7B7B7D",
"= c #807E4C",
"- c #A8A43E",
"; c #BCB637",
": c #DAD32D",
"> c #C6C034",
", c #D0C930",
"< c #E4DC29",
"1 c #EEE626",
"2 c #F8EF22",
"3 c #F5ED2D",
"4 c #F2EA37",
"5 c #8A8749",
"6 c #EFE842",
"7 c #ECE54C",
"8 c #E9E357",
"9 c #E3DE6C",
"0 c #E0DC76",
"q c #E6E061",
"w c #828284",
"e c #848587",
"r c #909092",
"t c #9D9EA0",
"y c #A2A3A5",
"u c #ABACAE",
"i c #B9BABC",
"p c #BBBCBE",
"a c #D9D78B",
"s c #D6D496",
"d c #D0CFAB",
"f c #D3D2A0",
"g c #CDCDB5",
"h c #C3C3B9",
"j c #CACBBF",
"k c #C0C1C3",
"l c #CACAC0",
"z c #C7C8CA",
"x c None",
/* pixels */
"xxxxxxxxxxxxzzgfgzzxxxxxxxxxxxxx",
"xxxxxxxxxxzf8222238fzxxxxxxxxxxx",
"xxxxxxxxxl72222222227lxxxxxxxxxx",
"xxxxxxxxd3222222222224lxxxxxxxxx",
"xxxxxxxj6222222,2222226hxxxxxxxx",
"xxxxxxz0222222, :2222220yxxxxxxx",
"xxxxxxl3222222= =2222223lOxxxxxx",
"xxxxxxa222222;   >222222s*xxxxxx",
"xxxxxz9222221.   X1222220rxxxxxx",
"xxxxxz722222-     -222228r xxxxx",
"xxxxxz72222<      .<22228r xxxxx",
"xxxxxz92222,--X X--,22220r xxxxx",
"xxxxxxa2222222= =2222222aw xxxxx",
"xxxxxxg2222222= =2222222loxxxxxx",
"xxxxxxzq222222= =222222qt xxxxxx",
"xxxxxxxg322222= =222223l+ xxxxxx",
"xxxxxxxz022222= =222220t xxxxxxx",
"xxxxxxxxl322225 522223lo xxxxxxx",
"xxxxxxxxzq22221,12222qt xxxxxxxx",
"xxxxxxxxxs22222222222s* xxxxxxxx",
"xxxxxxxxxg22222222222loxxxxxxxxx",
"xxxxxxxxxz32222222223z xxxxxxxxx",
"xxxxxxxxxpzzzzzzzzzzzr xxxxxxxxx",
"xxxxxxxxxxuuuuuuuuuuu+ xxxxxxxxx",
"xxxxxxxxxxzzzzzzzzzzz%xxxxxxxxxx",
"xxxxxxxxxxe$$$$$$$$$$ xxxxxxxxxx",
"xxxxxxxxxxzzzzzzzzzzk#xxxxxxxxxx",
"xxxxxxxxxxzzzzzzzzzzz#xxxxxxxxxx",
"xxxxxxxxxx*$$$$$$$$$@ xxxxxxxxxx",
"xxxxxxxxxxxizzzzzzzexxxxxxxxxxxx",
"xxxxxxxxxxxxzzzzzzuoxxxxxxxxxxxx",
"xxxxxxxxxxxxx       xxxxxxxxxxxx"
};
