/* XPM */
static const char *output_lights_16[] = {
/* columns rows colors chars-per-pixel */
"16 16 33 1 ",
"  c #58585A",
". c #626264",
"X c #69696B",
"o c #747476",
"O c #7B7B7D",
"+ c #909092",
"@ c #9B9B9D",
"# c #9C9D9F",
"$ c #9D9EA0",
"% c #A9AAAC",
"& c #ABACAE",
"* c #AFAFB1",
"= c #B1B2B4",
"- c #B5B5B7",
"; c #B9BABB",
": c #C0C1C2",
"> c #C2C2C4",
", c #C7C8CA",
"< c #CDCED0",
"1 c #D2D3D5",
"2 c #D8D9DA",
"3 c #DADADC",
"4 c #DDDDDE",
"5 c #DDDEDF",
"6 c #DFE0E1",
"7 c #E3E4E5",
"8 c #E7E7E8",
"9 c #EEEEEE",
"0 c #F1F1F2",
"q c gray96",
"w c gray99",
"e c white",
"r c None",
/* pixels */
"rrrrr17087rrrrrr",
"rrrr7wwwwwq>rrrr",
"rrr3wwwwwwwqrrrr",
"rrr9wwwwwwww-rrr",
"rrrwwwwwwwww>rrr",
"rrrwwwwwwwww> rr",
"rrr9wwwwwwww*rrr",
"rrr2wwwwwww0orrr",
"rrrrqwwwwww; rrr",
"rrrr5wwwwwqOrrrr",
"rrrr<wwwww8.rrrr",
"rrrrr<,,<,&rrrrr",
"rrrrr=&&&&+rrrrr",
"rrrrr,,,,,&rrrrr",
"rrrrr#&&&$Xrrrrr",
"rrrrrr$++Orrrrrr"
};
