/* XPM */
static const char *output_lights_24[] = {
/* columns rows colors chars-per-pixel */
"24 24 33 1 ",
"  c #58585A",
". c #666668",
"X c #747476",
"o c #7A7A7C",
"O c #808082",
"+ c #828284",
"@ c #89898B",
"# c #909092",
"$ c #969799",
"% c #A2A3A5",
"& c #A4A5A7",
"* c #ABACAE",
"= c #B1B2B4",
"- c #B6B6B8",
"; c #C0C1C3",
": c #C7C8CA",
"> c #CBCCCE",
", c #CECFD1",
"< c #CFD0D2",
"1 c #D2D2D4",
"2 c #D2D3D5",
"3 c #D5D6D7",
"4 c #D9D9DB",
"5 c #DCDDDE",
"6 c #E3E4E5",
"7 c #EAEAEB",
"8 c #EEEEEE",
"9 c #F1F1F2",
"0 c gray96",
"q c #F8F8F8",
"w c gray99",
"e c white",
"r c None",
/* pixels */
"rrrrrrrr:<4652:rrrrrrrrr",
"rrrrrrr,9eeeeew3rrrrrrrr",
"rrrrrr1eeeeeeeee5rrrrrrr",
"rrrrr,weeeeeeeeee4rrrrrr",
"rrrrr7eeeeeeeeeeew%rrrrr",
"rrrr>eeeeeeeeeeeee2 rrrr",
"rrrr3eeeeeeeeeeeee6orrrr",
"rrrr3eeeeeeeeeeeee6Xrrrr",
"rrrr3eeeeeeeeeeeee6Xrrrr",
"rrrr>eeeeeeeeeeeee2 rrrr",
"rrrr:8eeeeeeeeeeew& rrrr",
"rrrrr2eeeeeeeeeee5Xrrrrr",
"rrrrr:7eeeeeeeeew% rrrrr",
"rrrrrr,eeeeeeeee5.rrrrrr",
"rrrrrr:0eeeeeeee- rrrrrr",
"rrrrrrr7eeeeeee9$ rrrrrr",
"rrrrrrr266666664+rrrrrrr",
"rrrrrrr=*******& rrrrrrr",
"rrrrrrr::::::::; rrrrrrr",
"rrrrrrrr#######@ rrrrrrr",
"rrrrrrr::::::::: rrrrrrr",
"rrrrrrrrO#####+. rrrrrrr",
"rrrrrrrrr:::::@rrrrrrrrr",
"rrrrrrrrrrXXXX rrrrrrrrr"
};
