/* XPM */
static const char *paste_by_time_16_xpm[] = {
/* columns rows colors chars-per-pixel */
"16 16 32 1 ",
"  c #58585A",
". c #81807A",
"X c #556081",
"o c #556181",
"O c #5D6885",
"+ c #606B89",
"@ c #6D768C",
"# c #6E778D",
"$ c #757D90",
"% c #757F99",
"& c #7D8493",
"* c #96958B",
"= c #858B97",
"- c #95999E",
"; c #8089A1",
": c #8A92A8",
"> c #9CA0A2",
", c #9FA6B8",
"< c #A4A7A5",
"1 c #ACAEA9",
"2 c #B3B1A1",
"3 c #B5B3A3",
"4 c #B4B5AD",
"5 c #BCBCB0",
"6 c #C4C3B4",
"7 c #CCCAB7",
"8 c #D4D1BB",
"9 c #AAB0C0",
"0 c #BFC4D0",
"q c #CACED8",
"w c #D5D8E0",
"e c None",
/* pixels */
"eeeeeeoXXeeeeeee",
"eeeeeXXXXo#eeeee",
"ee888XXoXX-88eee",
"ee888-----488.ee",
"ee8886>--1888.ee",
"ee88<Ooooo$78.ee",
"ee85oooq%oo$8.ee",
"ee8&ooow;ooo5.ee",
"ee8Oooow0,oo>.ee",
"ee8Oooo:99+o-.ee",
"ee8&oooooooo5.ee",
"ee84ooooooo$8.ee",
"ee88<ooooo#68.ee",
"ee8884=$$>788.ee",
"ee88888888888.ee",
"eee233333333* ee"
};
