/* XPM */
static const char *pause_16_xpm[] = {
/* columns rows colors chars-per-pixel */
"16 16 22 1 ",
"  c #986F49",
". c #AB7749",
"X c #BF8A5B",
"o c #A68261",
"O c #AD8C6E",
"+ c #B39070",
"@ c #C68A55",
"# c #D3935A",
"$ c #D9975D",
"% c #C79E79",
"& c #E6A063",
"* c #EDAA6F",
"= c #FAAE6C",
"- c #FAB375",
"; c #C8B29E",
": c #EEB482",
"> c #E8B588",
", c #FBBD88",
"< c #CFB7A1",
"1 c #FDD7B6",
"2 c white",
"3 c None",
/* pixels */
"3==============3",
"================",
"================",
"===,111*-111:===",
"===1222+>222;#==",
"===1222O%222;.==",
"===1222O%222;.==",
"===1222O%222;.==",
"===1222O%222;.==",
"===1222O%222;.==",
"===1222O%222;.==",
"===1222O%222;.==",
"===:;;; X<;;o.==",
"====#...$&...@==",
"================",
"3==============3"
};
