/* XPM */
static const char *pause_48_xpm[] = {
/* columns rows colors chars-per-pixel */
"48 48 18 1 ",
"  c #91653D",
". c #986A40",
"X c #B8804F",
"o c #E09C60",
"O c #E6A063",
"+ c #EDA566",
"@ c #F3A969",
"# c #FAAE6C",
"$ c #BA9F86",
"% c #C1A892",
"& c #C8B29E",
"* c #E2BA97",
"= c #E9C4A4",
"- c #FCCCA3",
"; c #FCD1AC",
": c #FDD7B6",
"> c white",
", c None",
/* pixels */
",,,,########################################,,,,",
",,,##########################################,,,",
",,############################################,,",
",##############################################,",
"################################################",
"################################################",
"################################################",
"################################################",
"################################################",
"################################################",
"###########;::::::::;######;::::::::;###########",
"##########;>>>>>>>>>>*####->>>>>>>>>>=##########",
"##########:>>>>>>>>>>&X###:>>>>>>>>>>&X#########",
"##########:>>>>>>>>>>& X##:>>>>>>>>>>& X########",
"##########:>>>>>>>>>>&  X#:>>>>>>>>>>&  X#######",
"##########:>>>>>>>>>>&   O:>>>>>>>>>>&   o######",
"##########:>>>>>>>>>>&   o:>>>>>>>>>>&   o######",
"##########:>>>>>>>>>>&   o:>>>>>>>>>>&   o######",
"##########:>>>>>>>>>>&   o:>>>>>>>>>>&   o######",
"##########:>>>>>>>>>>&   o:>>>>>>>>>>&   o######",
"##########:>>>>>>>>>>&   o:>>>>>>>>>>&   o######",
"##########:>>>>>>>>>>&   o:>>>>>>>>>>&   o######",
"##########:>>>>>>>>>>&   o:>>>>>>>>>>&   o######",
"##########:>>>>>>>>>>&   o:>>>>>>>>>>&   o######",
"##########:>>>>>>>>>>&   o:>>>>>>>>>>&   o######",
"##########:>>>>>>>>>>&   o:>>>>>>>>>>&   o######",
"##########:>>>>>>>>>>&   o:>>>>>>>>>>&   o######",
"##########:>>>>>>>>>>&   o:>>>>>>>>>>&   o######",
"##########:>>>>>>>>>>&   o:>>>>>>>>>>&   o######",
"##########:>>>>>>>>>>&   o:>>>>>>>>>>&   o######",
"##########:>>>>>>>>>>&   o:>>>>>>>>>>&   o######",
"##########:>>>>>>>>>>&   o:>>>>>>>>>>&   o######",
"##########:>>>>>>>>>>&   o:>>>>>>>>>>&   o######",
"##########:>>>>>>>>>>&   o:>>>>>>>>>>&   o######",
"##########:>>>>>>>>>>&   o:>>>>>>>>>>&   o######",
"##########:>>>>>>>>>>&   o:>>>>>>>>>>&   o######",
"##########;>>>>>>>>>>$   o->>>>>>>>>>%   o######",
"###########=&&&&&&&&%    o#=&&&&&&&&%    o######",
"############X            o##X            o######",
"#############X           o###X           o######",
"##############X         .@####X         .+######",
"###############ooooooooo+######ooooooooo+#######",
"################################################",
"################################################",
",##############################################,",
",,############################################,,",
",,,##########################################,,,",
",,,,########################################,,,,"
};
