/* XPM */
static const char *play_48_xpm[] = {
/* columns rows colors chars-per-pixel */
"48 48 47 1 ",
"  c #6A7A38",
". c #6F7F3B",
"X c #74853E",
"o c #738244",
"O c #798A40",
"+ c #7E8F43",
"@ c #7D8B51",
"# c #839546",
"$ c #8D9F4B",
"% c #86935D",
"& c #93A54E",
"* c #98AA51",
"= c #9DAF54",
"- c #A2B456",
"; c #A7BA59",
": c #ACBF5C",
"> c #8F9B6A",
", c #99A476",
"< c #B1C45F",
"1 c #B6CA61",
"2 c #BBCF64",
"3 c #BFD26E",
"4 c #B9C879",
"5 c #C4D577",
"6 c #ABB48F",
"7 c #B5BD9C",
"8 c #BEC5A8",
"9 c #C2D085",
"0 c #C8D881",
"q c #CCDB8B",
"w c #D0DE94",
"e c #C7CDB4",
"r c #D9E4A8",
"t c #DDE7B2",
"y c #E1EABB",
"u c #D0D5C1",
"i c #DADECD",
"p c #EAF0CF",
"a c #E3E6DA",
"s c #EEF3D8",
"d c #ECEEE6",
"f c #F2F6E2",
"g c #F7F9EC",
"h c #F6F7F3",
"j c #FBFCF5",
"k c white",
"l c None",
/* pixels */
"lllll22222222222222222222222222222222222222lllll",
"lll222222222222222222222222222222222222222222lll",
"ll22222222222222222222222222222222222222222222ll",
"l2222222222222222222222222222222222222222222222l",
"l2222222222222222222222222222222222222222222222l",
"222222222222222222222222222222222222222222222222",
"222222222222222222222222222222222222222222222222",
"222222222222222222222222222222222222222222222222",
"222222222222222222222222222222222222222222222222",
"222222222222222222222222222222222222222222222222",
"222222222222222qr3222222222222222222222222222222",
"222222222222220kkgq22222222222222222222222222222",
"22222222222222qkkkkp3222222222222222222222222222",
"22222222222222qkkkkkjw22222222222222222222222222",
"22222222222222qkkkkkkks5222222222222222222222222",
"22222222222222qkkkkkkkkjr22222222222222222222222",
"22222222222222qkkkkkkkkkks0222222222222222222222",
"22222222222222qkkkkkkkkkkkkt22222222222222222222",
"22222222222222qkkkkkkkkkkkkkfq222222222222222222",
"22222222222222qkkkkkkkkkkkkkkky32222222222222222",
"22222222222222qkkkkkkkkkkkkkkkkgq222222222222222",
"22222222222222qkkkkkkkkkkkkkkkkkkp32222222222222",
"22222222222222qkkkkkkkkkkkkkkkkkkkjw222222222222",
"22222222222222qkkkkkkkkkkkkkkkkkkkkk422222222222",
"22222222222222qkkkkkkkkkkkkkkkkkkkkk%=2222222222",
"22222222222222qkkkkkkkkkkkkkkkkkkkh,  =222222222",
"22222222222222qkkkkkkkkkkkkkkkkkkeo    =22222222",
"22222222222222qkkkkkkkkkkkkkkkkd>       22222222",
"22222222222222qkkkkkkkkkkkkkkk8o       O22222222",
"22222222222222qkkkkkkkkkkkkka%        $122222222",
"22222222222222qkkkkkkkkkkkk7        O;2222222222",
"22222222222222qkkkkkkkkkki@        &222222222222",
"22222222222222qkkkkkkkkh6        +:2222222222222",
"22222222222222qkkkkkkku@       .*222222222222222",
"22222222222222qkkkkkh,        +<2222222222222222",
"22222222222222qkkkkeo       .-222222222222222222",
"222222222222220kkd>        #12222222222222222222",
"22222222222222296o       X;222222222222222222222",
"2222222222222222=       $12222222222222222222222",
"22222222222222222=    O;222222222222222222222222",
"222222222222222222=  &22222222222222222222222222",
"2222222222222222222<<222222222222222222222222222",
"222222222222222222222222222222222222222222222222",
"l2222222222222222222222222222222222222222222222l",
"l2222222222222222222222222222222222222222222222l",
"ll22222222222222222222222222222222222222222222ll",
"lll222222222222222222222222222222222222222222lll",
"lllll22222222222222222222222222222222222222lllll"
};
