/* XPM */
static const char *render_all_64_xpm[] = {
/* columns rows colors chars-per-pixel */
"64 64 136 2 ",
"   c #00652E",
".  c #006930",
"X  c #006D32",
"o  c #0E6B34",
"O  c #007135",
"+  c #0E7438",
"@  c #007939",
"#  c #007D3B",
"$  c #2A7840",
"%  c #387F46",
"&  c #004071",
"*  c #004376",
"=  c #0E4973",
"-  c #00467A",
";  c #1C5174",
":  c #386378",
">  c #58585A",
",  c #615F5D",
"<  c #61605D",
"1  c #62615E",
"2  c #63625E",
"3  c #466B79",
"4  c #54747B",
"5  c #696660",
"6  c #6A6761",
"7  c #726E63",
"8  c #736F64",
"9  c #7A7567",
"0  c #8B0304",
"q  c #910506",
"w  c #970608",
"e  c #9D080A",
"r  c #90100D",
"t  c #961C15",
"y  c #A4090C",
"u  c #AA0B0E",
"i  c #B00C10",
"p  c #B60E12",
"a  c #BC1014",
"s  c #9B291E",
"d  c #A03526",
"f  c #D5161C",
"g  c #CE1F21",
"h  c #E11920",
"j  c #E71A22",
"k  c #ED1C24",
"l  c #E62529",
"z  c #EC272B",
"x  c #EB3D38",
"c  c #AB4E37",
"v  c #EA483E",
"b  c #B66748",
"n  c #BB7451",
"m  c #837C6A",
"M  c #857E6B",
"N  c #E76952",
"B  c #E67E5F",
"V  c #00813D",
"C  c #008640",
"Z  c #008E44",
"A  c #009648",
"S  c #00A24F",
"D  c #00A651",
"F  c #0EA855",
"G  c #1CAB58",
"H  c #38AF60",
"J  c #70985D",
"K  c #7E9E63",
"L  c #54B467",
"P  c #62B66B",
"I  c #70B96F",
"U  c #8B836D",
"Y  c #8E866E",
"T  c #948A70",
"R  c #978E71",
"E  c #9C9273",
"W  c #A59976",
"Q  c #AA9D78",
"!  c #8CA569",
"~  c #8CAD6D",
"^  c #8CB16F",
"/  c #8CB974",
"(  c #8CBD76",
")  c #9ABF7A",
"_  c #ADA079",
"`  c #B6A77C",
"'  c #A8B275",
"]  c #B6B87A",
"[  c #C08059",
"{  c #D98661",
"}  c #CB996A",
"|  c #E58965",
" . c #E39F72",
".. c #D0A673",
"X. c #D6A775",
"o. c #E2AA79",
"O. c #E2B57F",
"+. c #A8C27D",
"@. c #004D84",
"#. c #005C9B",
"$. c #005FA0",
"%. c #0062A5",
"&. c #0066A9",
"*. c #006FB7",
"=. c #0072BC",
"-. c #0E78B9",
";. c #1C7DB6",
":. c #3888B0",
">. c #468EAD",
",. c #5493AA",
"<. c #7EA4A1",
"1. c #8C9782",
"2. c #8C9A87",
"3. c #8C9D8B",
"4. c #9AA084",
"5. c #8CA395",
"6. c #8CAA9E",
"7. c #9AAF9B",
"8. c #A8A885",
"9. c #BEAE80",
"0. c #B6B187",
"q. c #B6BA95",
"w. c #C7B583",
"e. c #CFBD86",
"r. c #C4BA89",
"t. c #DBBF84",
"y. c #B6C481",
"u. c #D2C087",
"i. c #D2C28A",
"p. c #D2C58F",
"a. c #D8C489",
"s. c #D2C988",
"d. c #C4C092",
"f. c #E1C086",
"g. c #E0CB8C",
"h. c None",
/* pixels */
"h.h.h.h.h.h.h.h.h.h.h.h.h.h.h.h.h.h.h.h.h.h.h.h.g.g.g.g.g.g.g.g.g.g.g.g.g.g.h.h.h.h.h.h.h.h.h.h.h.h.h.h.h.h.h.h.h.h.h.h.h.h.h.h.",
"h.h.h.h.h.h.h.h.h.h.h.h.h.h.h.h.h.h.h.h.h.g.g.g.g.g.g.g.g.g.g.g.g.g.g.g.g.g.g.g.g.g.h.h.h.h.h.h.h.h.h.h.h.h.h.h.h.h.h.h.h.h.h.h.",
"h.h.h.h.h.h.h.h.h.h.h.h.h.h.h.h.h.h.g.g.g.g.g.g.g.g.g.g.g.g.g.g.g.g.g.g.g.g.g.g.g.g.g.g.h.h.h.h.h.h.h.h.h.h.h.h.h.h.h.h.h.h.h.h.",
"h.h.h.h.h.h.h.h.h.h.h.h.h.h.h.h.g.g.g.g.g.g.g.g.g.g.g.g.g.g.g.g.g.g.g.g.g.g.g.g.g.g.g.g.g.g.g.h.h.h.h.h.h.h.h.h.h.h.h.h.h.h.h.h.",
"h.h.h.h.h.h.h.h.h.h.h.h.h.h.g.g.g.g.g.g.g.g.g.g.g.g.g.g.) P H H I y.g.g.g.g.g.g.g.g.g.g.g.g.g.g.h.h.h.h.h.h.h.h.h.h.h.h.h.h.h.h.",
"h.h.h.h.h.h.h.h.h.h.h.h.h.g.g.g.g.g.g.g.g.g.g.g.g.g.) F D D D D D D H y.g.g.g.g.g.g.g.g.g.g.g.g.g.g.h.h.h.h.h.h.h.h.h.h.h.h.h.h.",
"h.h.h.h.h.h.h.h.h.h.h.h.g.g.g.g.g.g.g.g.g.g.g.g.g.L D D D D D D D D D F / g.g.g.g.g.g.g.g.g.g.g.g.g.g.h.h.h.h.h.h.h.h.h.h.h.h.h.",
"h.h.h.h.h.h.h.h.h.h.g.g.g.g.g.g.g.g.g.g.g.g.g.g.) D D D D D D D D D D D S ~ g.g.g.g.g.g.g.g.g.g.g.g.g.g.g.h.h.h.h.h.h.h.h.h.h.h.",
"h.h.h.h.h.h.h.h.h.g.g.g.g.g.g.g.g.g.g.g.g.g.g.s.F D D D D D D D D D D D D A ! g.g.g.g.g.g.g.g.g.g.g.g.g.g.g.h.h.h.h.h.h.h.h.h.h.",
"h.h.h.h.h.h.h.h.g.g.g.g.g.g.g.g.g.g.g.g.g.g.g.( D D D D D D D D D D D D D D + ] g.g.g.g.g.g.g.g.g.g.g.g.g.g.g.h.h.h.h.h.h.h.h.h.",
"h.h.h.h.h.h.h.g.g.g.g.g.g.g.g.g.g.g.g.g.g.g.g.L D D D D D D D D D D D D D D @ % g.g.g.g.g.g.g.g.g.g.g.g.g.g.g.u.h.h.h.h.h.h.h.h.",
"h.h.h.h.h.h.h.g.g.g.g.g.g.g.g.g.g.g.g.g.g.g.g.H D D D D D D D D D D D D D D C   ] g.g.g.g.g.g.g.g.g.g.g.g.g.g.g.Q h.h.h.h.h.h.h.",
"h.h.h.h.h.h.g.g.g.g.g.g.g.g.g.g.g.g.g.g.g.g.g.H D D D D D D D D D D D D D D C   K g.g.g.g.g.g.g.g.g.g.g.g.g.g.g.a.M h.h.h.h.h.h.",
"h.h.h.h.h.g.g.g.g.g.g.g.g.g.g.g.g.g.g.g.g.g.g.P D D D D D D D D D D D D D D @   J g.g.g.g.g.g.g.g.g.g.g.g.g.g.g.g.w.h.h.h.h.h.h.",
"h.h.h.h.g.g.g.g.g.g.g.g.g.g.g.g.g.g.g.g.g.g.g.) D D D D D D D D D D D D D D .   J g.g.g.g.g.g.g.g.g.g.g.g.g.g.g.g.g.R h.h.h.h.h.",
"h.h.h.h.g.g.g.g.g.g.g.g.g.g.g.g.g.g.g.g.g.g.g.g.G D D D D D D D D D D D D Z     K g.g.g.g.g.g.g.g.g.g.g.g.g.g.g.g.g.a.1 h.h.h.h.",
"h.h.h.g.g.g.g.g.g.g.g.g.g.g.g.g.g.g.g.g.g.g.g.g.+.D D D D D D D D D D D S .     ] g.g.g.g.g.g.g.g.g.g.g.g.g.g.g.g.g.g.E > h.h.h.",
"h.h.h.g.g.g.g.g.g.g.g.g.g.g.g.g.g.g.g.g.g.g.g.g.g.( D D D D D D D D D S O     % g.g.g.g.g.g.g.g.g.g.g.g.g.g.g.g.g.g.g.a.1 h.h.h.",
"h.h.g.g.g.g.g.g.g.g.g.g.g.g.g.g.g.g.g.g.g.g.g.g.g.g.^ A D D D D D D Z .     o ] g.g.g.g.g.g.g.g.g.g.g.g.g.g.g.g.g.g.g.g.U > h.h.",
"h.h.g.g.g.g.g.g.g.g.g.O.B v v v N  .g.g.g.g.g.g.g.g.g.! X V C C # X         ! g.g.g.g.g.g.g.g.g.g.g.g.g.g.g.g.g.g.g.g.g.` > h.h.",
"h.h.g.g.g.g.g.g.g.g.N k k k k k k k v o.g.g.g.g.g.g.g.g.' $             % ] g.g.g.g.g.7.,.;.=.;.>.6.g.g.g.g.g.g.g.g.g.g.g., h.h.",
"h.g.g.g.g.g.g.g.f.x k k k k k k k k k z o.g.g.g.g.g.g.g.g.g.] J J J J ] g.g.g.g.g.d.:.=.=.=.=.=.=.=.;.q.g.g.g.g.g.g.g.g.g.m > h.",
"h.g.g.g.g.g.g.g.N k k k k k k k k k k k z X.g.g.g.g.g.g.g.g.g.g.g.g.g.g.g.g.g.g.d.-.=.=.=.=.=.=.=.=.=.=.5.g.g.g.g.g.g.g.g.E > h.",
"h.g.g.g.g.g.g.O.k k k k k k k k k k k k k g ..g.g.g.g.g.g.g.g.g.g.g.g.g.g.g.g.g.:.=.=.=.=.=.=.=.=.=.=.=.*.2.g.g.g.g.g.g.g.9.> h.",
"g.g.g.g.g.g.g.N k k k k k k k k k k k k k j r t.g.g.g.g.g.g.g.g.g.g.g.g.g.g.g.6.=.=.=.=.=.=.=.=.=.=.=.=.=.#.4.g.g.g.g.g.g.e.> > ",
"g.g.g.g.g.g.g.v k k k k k k k k k k k k k k e c g.g.g.g.g.g.g.g.g.g.g.g.g.g.g.>.=.=.=.=.=.=.=.=.=.=.=.=.=.*.= r.g.g.g.g.g.g.> > ",
"g.g.g.g.g.g.g.k k k k k k k k k k k k k k k y 0 t.g.g.g.g.g.g.g.g.g.g.g.g.g.g.-.=.=.=.=.=.=.=.=.=.=.=.=.=.=.- 4 g.g.g.g.g.g.> > ",
"g.g.g.g.g.g.g.l k k k k k k k k k k k k k k y 0 } g.g.g.g.g.g.g.g.g.g.g.g.g.g.=.=.=.=.=.=.=.=.=.=.=.=.=.=.=.@.= g.g.g.g.g.g.> > ",
"g.g.g.g.g.g.g.v k k k k k k k k k k k k k k w 0 n g.g.g.g.g.g.g.g.g.g.g.g.g.g.=.=.=.=.=.=.=.=.=.=.=.=.=.=.=.@.& 8.g.g.g.g.g.> > ",
"g.g.g.g.g.g.g.B k k k k k k k k k k k k k h 0 0 [ g.g.g.g.g.g.g.g.g.g.g.g.g.g.:.=.=.=.=.=.=.=.=.=.=.=.=.=.=.& & 8.g.g.g.g.g.> > ",
"g.g.g.g.g.g.g.f.z k k k k k k k k k k k k i 0 0 } g.g.g.g.g.g.g.g.g.g.g.g.g.g.<.=.=.=.=.=.=.=.=.=.=.=.=.=.%.& & 8.g.g.g.g.9.> > ",
"g.g.g.g.g.g.g.g.| k k k k k k k k k k k f 0 0 r g.g.g.g.g.g.g.g.g.g.g.g.g.g.g.p.-.=.=.=.=.=.=.=.=.=.=.=.=.@.& & r.g.g.g.g._ > > ",
"g.g.g.g.g.g.g.g.g.| k k k k k k k k k f q 0 0 b g.g.g.g.g.g.g.g.g.g.g.g.g.g.g.g.7.=.=.=.=.=.=.=.=.=.=.=.#.& & ; g.g.g.g.g.U > > ",
"g.g.g.g.g.g.g.g.g.g.{ f k k k k k j a 0 0 0 s t.g.g.g.g.g.g.g.g.g.g.g.g.g.g.g.g.g.6.*.=.=.=.=.=.=.=.=.#.& & & 1.g.g.g.g.a., > > ",
"g.g.g.g.g.g.g.g.g.g.g.[ w u a p y 0 0 0 0 t ..g.g.g.g.g.g.g.g.g.g.g.g.g.g.g.g.g.g.g.3.$.=.=.=.=.=.&.@.& & & : g.g.g.g.g._ > > h.",
"g.g.g.g.g.g.g.g.g.g.g.g.} d 0 0 0 0 0 0 c t.g.g.g.g.g.g.g.g.g.g.g.g.g.g.g.g.g.g.g.g.g.1.& @.@.@.* & & & & : i.g.g.g.g.g.5 > > h.",
"g.g.g.g.g.g.g.g.g.g.g.g.g.g...n b b [ t.g.g.g.g.g.g.g.g.g.g.g.g.g.g.g.g.g.g.g.g.g.g.g.g.r.3 & & & & & ; 1.g.g.g.g.g.g.W > > > h.",
"g.g.g.g.g.g.g.g.g.g.g.g.g.g.g.g.g.g.g.g.g.g.g.g.g.g.g.g.g.g.g.g.g.g.g.g.g.g.g.g.g.g.g.g.g.g.i.8.8.8.0.g.g.g.g.g.g.g.e., > > h.h.",
"h.g.g.g.g.g.g.g.g.g.g.g.g.g.g.g.g.g.g.g.g.g.g.g.g.g.g.g.g.g.g.g.g.g.g.g.g.g.g.g.g.g.g.g.g.g.g.g.g.g.g.g.g.g.g.g.g.a.7 > > > h.h.",
"h.g.g.g.g.g.g.g.g.g.g.g.g.g.g.g.g.g.g.g.g.g.g.g.g.g.g.g.g.g.g.g.g.g.g.g.g.g.g.g.g.g.g.g.g.g.g.g.g.g.g.g.g.g.g.g.g.U > > > h.h.h.",
"h.g.g.g.g.g.g.g.g.g.g.g.g.g.g.g.g.g.g.g.g.g.g.g.g.g.g.g.g.g.g.g.g.g.g.g.g.g.g.g.g.g.g.g.g.g.g.g.g.g.g.g.g.g.g.a.m > > > h.h.h.h.",
"h.h.g.g.g.g.g.g.g.g.g.g.g.g.g.g.g.g.g.g.g.g.g.g.g.g.g.g.g.g.g.g.g.g.g.g.g.g.g.g.g.g.g.g.g.g.g.g.g.g.g.g.g.g.w.7 > > > h.h.h.h.h.",
"h.h.g.g.g.g.g.g.g.g.g.g.g.g.g.g.g.g.g.g.g.g.g.g.g.g.g.g.g.g.g.g.g.g.g.g.g.g.g.g.g.g.g.g.g.g.g.g.g.g.g.g.a.E > > > > h.h.h.h.h.h.",
"h.h.g.g.g.g.g.g.g.g.g.g.g.g.g.g.g.g.g.g.g.g.g.g.g.g.g.g.g.g.g.g.g.g.g.g.g.g.g.g.g.g.g.g.g.g.g.g.g.g.e.E , > > > > h.h.h.h.h.h.h.",
"h.h.h.g.g.g.g.g.g.g.g.g.g.g.g.g.g.g.g.g.g.g.g.g.g.g.g.g.g.g.g.g.g.g.g.g.g.g.w.9.9.9.9.9.9.9.9._ T 7 > > > > > > h.h.h.h.h.h.h.h.",
"h.h.h.g.g.g.g.g.g.g.g.g.g.g.g.g.g.g.g.g.g.g.g.g.g.g.g.g.g.g.g.g.g.g.g.a.U > > > > > > > > > > > > > > > > > h.h.h.h.h.h.h.h.h.h.",
"h.h.h.h.g.g.g.g.g.g.g.g.g.g.g.g.g.g.g.g.g.g.g.g.g.g.g.g.g.g.g.g.g.g.e., > > > > > > > > > > > > > > > h.h.h.h.h.h.h.h.h.h.h.h.h.",
"h.h.h.h.h.g.g.g.g.g.g.g.g.g.g.g.g.g.g.g.g.g.g.g.g.g.g.g.g.g.g.g.g.g.9 > > > > h.h.h.h.h.h.h.h.h.h.h.h.h.h.h.h.h.h.h.h.h.h.h.h.h.",
"h.h.h.h.h.g.g.g.g.g.g.g.g.g.g.g.g.g.g.g.g.g.g.g.g.g.g.g.g.g.g.g.g.w.> > > h.h.h.h.h.h.h.h.h.h.h.h.h.h.h.h.h.h.h.h.h.h.h.h.h.h.h.",
"h.h.h.h.h.h.g.g.g.g.g.g.g.g.g.g.g.g.g.g.g.g.g.g.g.g.g.g.g.g.g.g.g._ > > h.h.h.h.h.h.h.h.h.h.h.h.h.h.h.h.h.h.h.h.h.h.h.h.h.h.h.h.",
"h.h.h.h.h.h.h.g.g.g.g.g.g.g.g.g.g.g.g.g.g.g.g.g.g.g.g.g.g.g.g.g.g.` > > h.h.h.h.h.h.h.h.h.h.h.h.h.h.h.h.h.h.h.h.h.h.h.h.h.h.h.h.",
"h.h.h.h.h.h.h.h.g.g.g.g.g.g.g.g.g.g.g.g.g.g.g.g.g.g.g.g.g.g.g.g.g.e.> > h.h.h.h.h.h.h.h.h.h.h.h.h.h.h.h.h.h.h.h.h.h.h.h.h.h.h.h.",
"h.h.h.h.h.h.h.h.g.g.g.g.g.g.g.g.g.g.g.g.g.g.g.g.g.g.g.g.g.g.g.g.g.g.T > h.h.h.h.h.h.h.h.h.h.h.h.h.h.h.h.h.h.h.h.h.h.h.h.h.h.h.h.",
"h.h.h.h.h.h.h.h.h.g.g.g.g.g.g.g.g.g.g.g.g.g.g.g.g.g.g.g.g.g.g.g.g.g.a.8 h.h.h.h.h.h.h.h.h.h.h.h.h.h.h.h.h.h.h.h.h.h.h.h.h.h.h.h.",
"h.h.h.h.h.h.h.h.h.h.Q g.g.g.g.g.g.g.g.g.g.g.g.g.g.g.g.g.g.g.g.g.g.g.g.9.h.h.h.h.h.h.h.h.h.h.h.h.h.h.h.h.h.h.h.h.h.h.h.h.h.h.h.h.",
"h.h.h.h.h.h.h.h.h.h.h.U a.g.g.g.g.g.g.g.g.g.g.g.g.g.g.g.g.g.g.g.g.g.g.g.5 h.h.h.h.h.h.h.h.h.h.h.h.h.h.h.h.h.h.h.h.h.h.h.h.h.h.h.",
"h.h.h.h.h.h.h.h.h.h.h.h.h.w.a.g.g.g.g.g.g.g.g.g.g.g.g.g.g.g.g.g.g.g.g.g.9 > h.h.h.h.h.h.h.h.h.h.h.h.h.h.h.h.h.h.h.h.h.h.h.h.h.h.",
"h.h.h.h.h.h.h.h.h.h.h.h.h.h.E a.g.g.g.g.g.g.g.g.g.g.g.g.g.g.g.g.g.g.g.g.9 > h.h.h.h.h.h.h.h.h.h.h.h.h.h.h.h.h.h.h.h.h.h.h.h.h.h.",
"h.h.h.h.h.h.h.h.h.h.h.h.h.h.h.1 E a.g.g.g.g.g.g.g.g.g.g.g.g.g.g.g.g.g.a.> > h.h.h.h.h.h.h.h.h.h.h.h.h.h.h.h.h.h.h.h.h.h.h.h.h.h.",
"h.h.h.h.h.h.h.h.h.h.h.h.h.h.h.h.h.1 E e.g.g.g.g.g.g.g.g.g.g.g.g.g.g.g.E > > h.h.h.h.h.h.h.h.h.h.h.h.h.h.h.h.h.h.h.h.h.h.h.h.h.h.",
"h.h.h.h.h.h.h.h.h.h.h.h.h.h.h.h.h.h.> > m _ a.g.g.g.g.g.g.g.g.g.g.g.9.> > > h.h.h.h.h.h.h.h.h.h.h.h.h.h.h.h.h.h.h.h.h.h.h.h.h.h.",
"h.h.h.h.h.h.h.h.h.h.h.h.h.h.h.h.h.h.h.h.> > > 8 U W 9.e.g.g.g.g.e.T > > > > h.h.h.h.h.h.h.h.h.h.h.h.h.h.h.h.h.h.h.h.h.h.h.h.h.h.",
"h.h.h.h.h.h.h.h.h.h.h.h.h.h.h.h.h.h.h.h.h.h.h.> > > > > > > > > > > > > > h.h.h.h.h.h.h.h.h.h.h.h.h.h.h.h.h.h.h.h.h.h.h.h.h.h.h.",
"h.h.h.h.h.h.h.h.h.h.h.h.h.h.h.h.h.h.h.h.h.h.h.h.h.h.> > > > > > > > > > h.h.h.h.h.h.h.h.h.h.h.h.h.h.h.h.h.h.h.h.h.h.h.h.h.h.h.h."
};
