/* XPM */
static const char *render_all_24_xpm[] = {
/* columns rows colors chars-per-pixel */
"24 24 82 1 ",
"  c #0E6B34",
". c #007537",
"X c #007D3B",
"o c #00467A",
"O c #00497F",
"+ c #1C5174",
"@ c #58585A",
"# c #615F5D",
"$ c #696660",
"% c #777366",
"& c #7A7567",
"* c #970608",
"= c #AA0B0E",
"- c #B60E12",
"; c #BB1A1B",
": c #A03526",
"> c #E11920",
", c #E71A22",
"< c #ED1C24",
"1 c #EC272B",
"2 c #A6422F",
"3 c #EA483E",
"4 c #B66748",
"5 c #837C6A",
"6 c #E95345",
"7 c #E67E5F",
"8 c #008640",
"9 c #009246",
"0 c #389753",
"q c #00A651",
"w c #2AAD5C",
"e c #629E5E",
"r c #54B467",
"t c #70B96F",
"y c #8B836D",
"u c #8E866E",
"i c #A59976",
"p c #AC9F79",
"a c #8CA569",
"s c #8CBD76",
"d c #9ABB77",
"f c #ADA079",
"g c #B3A57B",
"h c #B6A77C",
"j c #B7A97D",
"k c #A8B275",
"l c #B6B87A",
"z c #D98661",
"x c #CB996A",
"c c #E58965",
"v c #D0A673",
"b c #D6A775",
"n c #E2AA79",
"m c #E2B57F",
"M c #A8C27D",
"N c #004D84",
"B c #005997",
"V c #005C9B",
"C c #38728F",
"Z c #0072BC",
"A c #2A83B3",
"S c #62868B",
"D c #5490A5",
"F c #709FA4",
"G c #8CAA9E",
"H c #A8A885",
"J c #BEAE80",
"K c #B6B187",
"L c #A8B598",
"P c #C3B281",
"I c #C7B583",
"U c #CFBD86",
"Y c #C4BA89",
"T c #DBBF84",
"R c #B6C481",
"E c #D2C586",
"W c #D2C28A",
"Q c #D2C58F",
"! c #D8C489",
"~ c #E1C086",
"^ c #E0CB8C",
"/ c None",
/* pixels */
"////////^^^^^^^^////////",
"/////^^^^^dts^^^^^//////",
"////^^^^^rqqqwE^^^^^////",
"///^^^^^Rqqqqq0^^^^^^///",
"//^^^^^^Mqqqqq8l^^^^^j//",
"/^^^^^^^RqqqqqXk^^^^^!//",
"/^^^^^^^^rqqq9 E^^^^^^g/",
"/^^n636n^^e8. aQGFG^^^!/",
"^^~1<<<1b^^Ek^^AZZZAW^^%",
"^^c<<<<<;^^^^^GZZZZZC^^&",
"^^7<<<<<-x^^^^FZZZZZBY^&",
"^^m1<<<,*v^^^^LZZZZZOH^&",
"^^^z><>=:^^^^^^DZZZV+^!@",
"^^^^v2:4T^^^^^^^SNo+K^i@",
"^^^^^^^^^^^^^^^^^^^^^I#/",
"^^^^^^^^^^^^^^^^^^^^I#@/",
"/^^^^^^^^^^^^^^^^Uhy@///",
"/^^^^^^^^^^^^&@@@@@/////",
"//^^^^^^^^^^J@//////////",
"///^^^^^^^^^U$//////////",
"////^^^^^^^^^p//////////",
"/////P^^^^^^^h//////////",
"//////uf!^^^^5//////////",
"////////@%&&$@//////////"
};
