/* XPM */
static const char *save_as_16_xpm[] = {
/* columns rows colors chars-per-pixel */
"16 16 49 1 ",
"  c #7C3D00",
". c #5F5F5F",
"X c #924C0D",
"o c #A1520B",
"O c #B95F12",
"+ c #BF6314",
"@ c #9F6A37",
"# c #BF7A3C",
"$ c #C66616",
"% c #CC6A18",
"& c #D26D19",
"* c #D8711B",
"= c #DE741D",
"- c #E07D2B",
"; c #836748",
": c #A57A50",
"> c #E28539",
", c #A5815D",
"< c #B18153",
"1 c #DC995F",
"2 c #E48E47",
"3 c #E69756",
"4 c #E89F64",
"5 c #8A8880",
"6 c #959388",
"7 c #9A998C",
"8 c #A5A395",
"9 c #B0AE9D",
"0 c #B5B3A3",
"q c #BFBDAF",
"w c #EFBA8E",
"e c #C4C2B6",
"r c #DCC6B1",
"t c #DECFBF",
"y c #E0C1A5",
"u c #F3CBAA",
"i c #CECCC2",
"p c #D8D7CE",
"a c #DCDCD4",
"s c #F7DCC7",
"d c #E1E1DA",
"f c #E9E2D8",
"g c #F9E5D5",
"h c #E6E6E0",
"j c #EBEBE7",
"k c #FBEEE3",
"l c #F7F3EF",
"z c white",
"x c None",
/* pixels */
"xx99999999xxxxxx",
"xxqzzzzzzp9xxxxx",
"xxezzzzzzp99xxxx",
"xxezzzzzzd9998xx",
"xxezzg3===1fa7xx",
"xxezg-=&$*=2f7xx",
"xxez4=O:tr2=#7xx",
"xxez=&:zzgu=%,xx",
"xxez=+tzzw====ox",
"xxezy<lzzz>==$ x",
"xxezzzzzzzs==Xxx",
"xxezzzzzzzz3O;xx",
"xxezzzzzzzzk@7xx",
"xxezzzzzzzzzj7xx",
"xx0hjjjjjjjji6xx",
"xxx6777777775.xx"
};
