/* XPM */
static const char *save_32_xpm[] = {
/* columns rows colors chars-per-pixel */
"32 32 60 1 ",
"  c #02547E",
". c #58585A",
"X c #5E5D5E",
"o c #636362",
"O c #696867",
"+ c #6B6A68",
"@ c #6E6E6B",
"# c #797873",
"$ c #84837C",
"% c #035883",
"& c #035B88",
"* c #125F86",
"= c #046393",
"- c #056A9D",
"; c #22698E",
": c #317496",
"> c #066EA2",
", c #0672A7",
"< c #0880BC",
"1 c #6194AE",
"2 c #629FBE",
"3 c #719FB6",
"4 c #0984C1",
"5 c #0988C6",
"6 c #0A8BCB",
"7 c #0A8FD0",
"8 c #299DD6",
"9 c #37A0D4",
"0 c #38A4D9",
"q c #46A0CC",
"w c #47A7D7",
"e c #47ABDC",
"r c #57B2DF",
"t c #A5A395",
"y c #AAA899",
"u c #ABA999",
"i c #B0AE9D",
"p c #81AABF",
"a c #B5B3A3",
"s c #BAB8A9",
"d c #C4C2B6",
"f c #A0BFCF",
"g c #85C7E8",
"h c #94CEEA",
"j c #A3D5ED",
"k c #D8D7CE",
"l c #C0D4DF",
"z c #DCDCD4",
"x c #D0DFE7",
"c c #DFEAEF",
"v c #C2E3F3",
"b c #D1EAF6",
"n c #EBEBE7",
"m c #EFF4F7",
"M c #E0F1F9",
"N c #F5F5F3",
"B c #F0F8FC",
"V c #FAFAF9",
"C c white",
"Z c None",
/* pixels */
"ZZZZZiiiiiiiiiiiiiiiZZZZZZZZZZZZ",
"ZZZZiiiiiiiiiiiiiiiiiZZZZZZZZZZZ",
"ZZZZisVCCCCCCCCCCCniiiZZZZZZZZZZ",
"ZZZiikCCCCCCCCCCCCniiiiZZZZZZZZZ",
"ZZZiikCCCCCCCCCCCCniiiiiZZZZZZZZ",
"ZZZiikCCCCCCCCCCCCniiiiiiZZZZZZZ",
"ZZZiikCCCCCCCCgegCNiiiiiiiZZZZZZ",
"ZZZiikCCCCCCCb7772CdiiiiiiuZZZZZ",
"ZZZiikCCCCCCCv777=xVzkkkksi$ZZZZ",
"ZZZiikCCCCCCCv777=lCCCCCCki$.ZZZ",
"ZZZiikCCCCCCCv777=lCCCCCCki$.ZZZ",
"ZZZiikCCCCCCCv777=lCCCCCCki$.ZZZ",
"ZZZiikCCCCCCCv777=lCCCCCCki$.ZZZ",
"ZZZiikCCCCCCCv777=lCCCCCCki$.ZZZ",
"ZZZiikCCCCCCCv777=lCCCCCCki$.ZZZ",
"ZZZiikCCCCree077749ewxCCCki$.ZZZ",
"ZZZiikCCCCh777777777>;CCCki$.ZZZ",
"ZZZiikCCCCC077777775 fCCCki$.ZZZ",
"ZZZiikCCCCCv7777777=:CCCCki$.ZZZ",
"ZZZiikCCCCCCr77777< lCCCCki$.ZZZ",
"ZZZiikCCCCCCM77777&1CCCCCki$.ZZZ",
"ZZZiikCCCCCCCg777,*cCCCCCki$.ZZZ",
"ZZZiikCCCCCCCB876%pCCCCCCki$.ZZZ",
"ZZZiikCCCCCCCCj7-;mCCCCCCki$.ZZZ",
"ZZZiikCCCCCCCCCq fCCCCCCCki$.ZZZ",
"ZZZiikCCCCCCCCCm3CCCCCCCCki$.ZZZ",
"ZZZiikCCCCCCCCCCCCCCCCCCCki$.ZZZ",
"ZZZiikCCCCCCCCCCCCCCCCCCCki$.ZZZ",
"ZZZZisVCCCCCCCCCCCCCCCCCCdi#.ZZZ",
"ZZZZiiadddddddddddddddddaiuXZZZZ",
"ZZZZZuiiiiiiiiiiiiiiiiiiitO.ZZZZ",
"ZZZZZZ+@@@@@@@@@@@@@@@@@o..ZZZZZ"
};
