/* XPM */
static const char *save_48_xpm[] = {
/* columns rows colors chars-per-pixel */
"48 48 37 1 ",
"  c #02547E",
". c #58585A",
"X c #535B61",
"o c #40697E",
"O c #125F86",
"+ c #22698E",
"@ c #3B6D86",
"# c #36708E",
"$ c #317495",
"% c #317496",
"& c #277AA4",
"* c #227EAB",
"= c #417F9E",
"- c #1E81B3",
"; c #5189A6",
": c #0F8CC9",
"> c #108BC7",
", c #0A8FD0",
"< c #1996D3",
"1 c #299DD6",
"2 c #38A4D9",
"3 c #47ABDC",
"4 c #66B9E2",
"5 c #75C0E5",
"6 c #81AABF",
"7 c #90B4C7",
"8 c #A0BFCF",
"9 c #85C7E8",
"0 c #A3D5ED",
"q c #C0D4DF",
"w c #DFEAEF",
"e c #C2E3F3",
"r c #EFF4F7",
"t c #E0F1F9",
"y c #F0F8FC",
"u c white",
"i c None",
/* pixels */
"iii,,,,,,,,,,,,,,,,,,,,,,,,,,,,,,,,,,,,,,,,,iiii",
"ii,,,,,,,,,,,,,,,,,,,,,,,,,,,,,,,,,,,,,,,,,,,iii",
"i,,,,,,,,,,399999999999999999999999,,,,,,,,,,>ii",
",,,,,,,,,,,9uuuuuuuuuuuuuuuuuuuuuuu,,,,,,,,,,,oi",
",,,,,,,,,,,9uuuuuuuuuuuuuuuuuuuuuuu,,,,,,,,,,,$.",
",,,,,,,,,,,9uuuuuuuuuuuuuu666666wuu,,,,,,,,,,,-.",
",,,,,,,,,,,9uuuuuuuuuuuuuu      quu,,,,,,,,,,,-.",
",,,,,,,,,,,9uuuuuuuuuuuuuu      quu,,,,,,,,,,,-.",
",,,,,,,,,,,9uuuuuuuuuuuuuu      quu,,,,,,,,,,,-.",
",,,,,,,,,,,9uuuuuuuuuuuuuu      quu,,,,,,,,,,,-.",
",,,,,,,,,,,9uuuuuuuuuuuuuu      quu,,,,,,,,,,,-.",
",,,,,,,,,,,9uuuuuuuuuuuuuu      quu,,,,,,,,,,,-.",
",,,,,,,,,,,9uuuuuuuuuuuuuu      quu,,,,,,,,,,,-.",
",,,,,,,,,,,9uuuuuuuuuuuuuu      quu,,,,,,,,,,,-.",
",,,,,,,,,,,9uuuuuuuuuuuuuu      quu,,,,,,,,,,,-.",
",,,,,,,,,,,9uuuuuuuuuuuuuu      quu,,,,,,,,,,,-.",
",,,,,,,,,,,9uuuuuuuuuuuuuu      quu,,,,,,,,,,,-.",
",,,,,,,,,,,9uuuuuuuuuuuuuuqqqqqqruu,,,,,,,,,,,-.",
",,,,,,,,,,,3uuuuuuuuuuuuuuuuuuuuuue,,,,,,,,,,,-.",
",,,,,,,,,,,,5uuuuuuuuuuuuuuuuuuuut2,,,,,,,,,,,-.",
",,,,,,,,,,,,,<3333333333333333333,,,,,,,,,,,,,-.",
",,,,,,,,,,,,,,,,,,,,,,,,,,,,,,,,,,,,,,,,,,,,,,-.",
",,,,,,,,,,,,,,,,,,,,,,,,,,,,,,,,,,,,,,,,,,,,,,-.",
",,,eeeeeeeeeeeeeeeeeeeeeeeeeeeeeeeeeeeeeeee4,,-.",
",,,uuuuuuuuuuuuuuuuuuuuuuuuuuuuuuuuuuuuuuuu9,,-.",
",,,uuuuuuuuuuuuuuuuuuuuuuuuuuuuuuuuuuuuuuuu9,,-.",
",,,uuuuuuuuuuuuuuuuuuuuuuuuuuuuuuuuuuuuuuuu9,,-.",
",,,uuuu8==============================;ruuu9,,-.",
",,,uuuu=                               8uuu9,,-.",
",,,uuuu8===============================wuuu9,,-.",
",,,uuuuuuuuuuuuuuuuuuuuuuuuuuuuuuuuuuuuuuuu9,,-.",
",,,uuuuuuuuuuuuuuuuuuuuuuuuuuuuuuuuuuuuuuuu9,,-.",
",,,uuuu8O                             $wuuu9,,-.",
",,,uuuu=                               8uuu9,,-.",
",,,uuuu8==============================;ruuu9,,-.",
",,,uuuuuuuuuuuuuuuuuuuuuuuuuuuuuuuuuuuuuuuu9,,-.",
",,,uuuuuuuuuuuuuuuuuuuuuuuuuuuuuuuuuuuuuuuu9,,-.",
",,,uuuu6                              +wuuu9,,-.",
",,,uuuu=                               7uuu9,,-.",
",,,uuuu8==============================;ruuu9,,-.",
",,,uuuuuuuuuuuuuuuuuuuuuuuuuuuuuuuuuuuuuuuu9,,-.",
",,,uuuuuuuuuuuuuuuuuuuuuuuuuuuuuuuuuuuuuuuu9,,*.",
",,,9uuuuuuuuuuuuuuuuuuuuuuuuuuuuuuuuuuuuuuy1,,#.",
",,,,4eeeeeeeeeeeeeeeeeeeeeeeeeeeeeeeeeeee02,,:X.",
"i,,,,,,,,,,,,,,,,,,,,,,,,,,,,,,,,,,,,,,,,,,,,@..",
"ii>,,,,,,,,,,,,,,,,,,,,,,,,,,,,,,,,,,,,,,,,:@..i",
"iiio$------------------------------------&#X..ii",
"iiii.........................................iii"
};
