/* XPM */
static const char *save_64_xpm[] = {
/* columns rows colors chars-per-pixel */
"64 64 36 1 ",
"  c #02547E",
". c #58585A",
"X c #4E5F69",
"o c #535B61",
"O c #456678",
"+ c #40697F",
"@ c #125F86",
"# c #2C779C",
"$ c #317495",
"% c #317496",
"& c #417F9E",
"* c #6194AE",
"= c #719FB6",
"- c #0F8CC9",
"; c #1488C1",
": c #0A8FD0",
"> c #1996D3",
", c #47ABDC",
"< c #66B9E2",
"1 c #75C0E5",
"2 c #81AABF",
"3 c #90B4C7",
"4 c #A0BFCF",
"5 c #85C7E8",
"6 c #94CEEA",
"7 c #B2DCF0",
"8 c #C0D4DF",
"9 c #D0DFE7",
"0 c #DFEAEF",
"q c #C2E3F3",
"w c #D1EAF6",
"e c #EFF4F7",
"r c #E0F1F9",
"t c #F0F8FC",
"y c white",
"u c None",
/* pixels */
"uuuuu:::::::::::::::::::::::::::::::::::::::::::::::::::::uuuuuu",
"uuu::::::::::::::::::::::::::::::::::::::::::::::::::::::::uuuuu",
"uu::::::::::::::::::::::::::::::::::::::::::::::::::::::::::uuuu",
"u::::::::::::::,555555555555555555555555555555<::::::::::::::uuu",
"u::::::::::::::5yyyyyyyyyyyyyyyyyyyyyyyyyyyyyyq::::::::::::::$uu",
":::::::::::::::5yyyyyyyyyyyyyyyyyyyyyyyyyyyyyyq::::::::::::::;.u",
":::::::::::::::5yyyyyyyyyyyyyyyyyyyyyyyyyyyyyyq:::::::::::::::X.",
":::::::::::::::5yyyyyyyyyyyyyyyyyy9&&&&&&&=yyyq:::::::::::::::O.",
":::::::::::::::5yyyyyyyyyyyyyyyyyy8       &yyyq:::::::::::::::O.",
":::::::::::::::5yyyyyyyyyyyyyyyyyy8       &yyyq:::::::::::::::O.",
":::::::::::::::5yyyyyyyyyyyyyyyyyy8       &yyyq:::::::::::::::O.",
":::::::::::::::5yyyyyyyyyyyyyyyyyy8       &yyyq:::::::::::::::O.",
":::::::::::::::5yyyyyyyyyyyyyyyyyy8       &yyyq:::::::::::::::O.",
":::::::::::::::5yyyyyyyyyyyyyyyyyy8       &yyyq:::::::::::::::O.",
":::::::::::::::5yyyyyyyyyyyyyyyyyy8       &yyyq:::::::::::::::O.",
":::::::::::::::5yyyyyyyyyyyyyyyyyy8       &yyyq:::::::::::::::O.",
":::::::::::::::5yyyyyyyyyyyyyyyyyy8       &yyyq:::::::::::::::O.",
":::::::::::::::5yyyyyyyyyyyyyyyyyy8       &yyyq:::::::::::::::O.",
":::::::::::::::5yyyyyyyyyyyyyyyyyy8       &yyyq:::::::::::::::O.",
":::::::::::::::5yyyyyyyyyyyyyyyyyy8       &yyyq:::::::::::::::O.",
":::::::::::::::5yyyyyyyyyyyyyyyyyy8       &yyyq:::::::::::::::O.",
":::::::::::::::5yyyyyyyyyyyyyyyyyy8       &yyyq:::::::::::::::O.",
":::::::::::::::5yyyyyyyyyyyyyyyyyy8       &yyyq:::::::::::::::O.",
":::::::::::::::5yyyyyyyyyyyyyyyyyyyyyyyyyyyyyy7:::::::::::::::O.",
":::::::::::::::<yyyyyyyyyyyyyyyyyyyyyyyyyyyyyy<:::::::::::::::O.",
"::::::::::::::::qyyyyyyyyyyyyyyyyyyyyyyyyyyyyw::::::::::::::::O.",
":::::::::::::::::5ryyyyyyyyyyyyyyyyyyyyyyyyr5>::::::::::::::::O.",
"::::::::::::::::::::::::::::::::::::::::::::::::::::::::::::::O.",
"::::::::::::::::::::::::::::::::::::::::::::::::::::::::::::::O.",
"::::::::::::::::::::::::::::::::::::::::::::::::::::::::::::::O.",
"::::::::::::::::::::::::::::::::::::::::::::::::::::::::::::::O.",
"::::yyyyyyyyyyyyyyyyyyyyyyyyyyyyyyyyyyyyyyyyyyyyyyyyyyyyyy::::O.",
"::::yyyyyyyyyyyyyyyyyyyyyyyyyyyyyyyyyyyyyyyyyyyyyyyyyyyyyy::::O.",
"::::yyyyyyyyyyyyyyyyyyyyyyyyyyyyyyyyyyyyyyyyyyyyyyyyyyyyyy::::O.",
"::::yyyyyyyyyyyyyyyyyyyyyyyyyyyyyyyyyyyyyyyyyyyyyyyyyyyyyy::::O.",
"::::yyyyyyyyyyyyyyyyyyyyyyyyyyyyyyyyyyyyyyyyyyyyyyyyyyyyyy::::O.",
"::::yyyyyy2&&&&&&&&&&&&&&&&&&&&&&&&&&&&&&&&&&&&&&&&=yyyyyy::::O.",
"::::yyyyy4                                          3yyyyy::::O.",
"::::yyyyy4                                          3yyyyy::::O.",
"::::yyyyyy=&&&&&&&&&&&&&&&&&&&&&&&&&&&&&&&&&&&&&&&&*eyyyyy::::O.",
"::::yyyyyyyyyyyyyyyyyyyyyyyyyyyyyyyyyyyyyyyyyyyyyyyyyyyyyy::::O.",
"::::yyyyyyyyyyyyyyyyyyyyyyyyyyyyyyyyyyyyyyyyyyyyyyyyyyyyyy::::O.",
"::::yyyyyyy8888888888888888888888888888888888888888yyyyyyy::::O.",
"::::yyyyy0@                                        @0yyyyy::::O.",
"::::yyyyy2                                          2yyyyy::::O.",
"::::yyyyy8                                          8yyyyy::::O.",
"::::yyyyyy988888888888888888888888888888888888888889yyyyyy::::O.",
"::::yyyyyyyyyyyyyyyyyyyyyyyyyyyyyyyyyyyyyyyyyyyyyyyyyyyyyy::::O.",
"::::yyyyyyyyyyyyyyyyyyyyyyyyyyyyyyyyyyyyyyyyyyyyyyyyyyyyyy::::O.",
"::::yyyyyy422222222222222222222222222222222222222224yyyyyy::::O.",
"::::yyyyy8                                          4yyyyy::::O.",
"::::yyyyy3                                          2yyyyy::::O.",
"::::yyyyye&                                        $eyyyyy::::O.",
"::::yyyyyyyyyyyyyyyyyyyyyyyyyyyyyyyyyyyyyyyyyyyyyyyyyyyyyy::::O.",
"::::yyyyyyyyyyyyyyyyyyyyyyyyyyyyyyyyyyyyyyyyyyyyyyyyyyyyyy::::O.",
"::::ryyyyyyyyyyyyyyyyyyyyyyyyyyyyyyyyyyyyyyyyyyyyyyyyyyyyt::::X.",
"::::1yyyyyyyyyyyyyyyyyyyyyyyyyyyyyyyyyyyyyyyyyyyyyyyyyyyy5:::;..",
":::::5yyyyyyyyyyyyyyyyyyyyyyyyyyyyyyyyyyyyyyyyyyyyyyyyyy6::::#..",
"u:::::>,,,,,,,,,,,,,,,,,,,,,,,,,,,,,,,,,,,,,,,,,,,,,,,,>::::-o..",
"uu::::::::::::::::::::::::::::::::::::::::::::::::::::::::::+..u",
"uuu:::::::::::::::::::::::::::::::::::::::::::::::::::::::-+...u",
"uuuu$;::::::::::::::::::::::::::::::::::::::::::::::::::-#o...uu",
"uuuuu.XOOOOOOOOOOOOOOOOOOOOOOOOOOOOOOOOOOOOOOOOOOOOOOOOX.....uuu",
"uuuuuu.....................................................uuuuu"
};
