/* XPM */
static const char *save_32_xpm[] = {
/* columns rows colors chars-per-pixel */
"32 32 25 1 ",
"  c #02547E",
". c #58585A",
"X c #496270",
"o c #486372",
"O c #456678",
"+ c #125F86",
"@ c #36708E",
"# c #417F9E",
"$ c #6194AE",
"% c #0F8CC9",
"& c #0A8FD0",
"* c #1996D3",
"= c #299DD6",
"- c #38A4D9",
"; c #47ABDC",
": c #81AABF",
"> c #A0BFCF",
", c #85C7E8",
"< c #A3D5ED",
"1 c #C0D4DF",
"2 c #DFEAEF",
"3 c #EFF4F7",
"4 c #F0F8FC",
"5 c white",
"6 c None",
/* pixels */
"66&&&&&&&&&&&&&&&&&&&&&&&&&&&666",
"6&&&&&&*;;;;;;;;;;;;;;;=&&&&&&66",
"&&&&&&&;555555555555555,&&&&&&%6",
"&&&&&&&;555555555>:::15,&&&&&&&o",
"&&&&&&&;555555555#   :5,&&&&&&&O",
"&&&&&&&;555555555#   :5,&&&&&&&O",
"&&&&&&&;555555555#   :5,&&&&&&&O",
"&&&&&&&;555555555#   :5,&&&&&&&O",
"&&&&&&&;555555555#   :5,&&&&&&&O",
"&&&&&&&;555555555#   :5,&&&&&&&O",
"&&&&&&&;555555555#   :5,&&&&&&&O",
"&&&&&&&;555555555>:::15,&&&&&&&O",
"&&&&&&&=455555555555555=&&&&&&&O",
"&&&&&&&&-,,,,,,,,,,,,,;&&&&&&&&O",
"&&&&&&&&&&&&&&&&&&&&&&&&&&&&&&&O",
"&&,,,,,,,,,,,,,,,,,,,,,,,,,,,&&O",
"&&555555555555555555555555555&&O",
"&&555555555555555555555555555&&O",
"&&552+                   +255&&O",
"&&552+                   +255&&O",
"&&555555555555555555555555555&&O",
"&&553$###################$355&&O",
"&&551                     155&&O",
"&&555111111111111111111111555&&O",
"&&555111111111111111111111555&&O",
"&&551                     155&&O",
"&&553:::::::::::::::::::::355&&O",
"&&555555555555555555555555555&%o",
"&&<5555555555555555555555555<&%.",
"6&&-;;;;;;;;;;;;;;;;;;;;;;;-&&@.",
"66%&&&&&&&&&&&&&&&&&&&&&&&&&%@.6",
"666oOOOOOOOOOOOOOOOOOOOOOOOo..66"
};
