/* XPM */
static const char *save_16_xpm[] = {
/* columns rows colors chars-per-pixel */
"16 16 41 1 ",
"  c #5F5F5F",
". c #23749E",
"X c #066EA2",
"o c #0779B1",
"O c #0880BC",
"+ c #4282A3",
"@ c #6194AE",
"# c #0988C6",
"$ c #0A8BCB",
"% c #0A8FD0",
"& c #1996D3",
"* c #299DD6",
"= c #57B2DF",
"- c #65B2D7",
"; c #65B5DD",
": c #66B9E2",
"> c #8A8880",
", c #959388",
"< c #9A998C",
"1 c #9C9B8E",
"2 c #B0AE9D",
"3 c #B5B3A3",
"4 c #BFBDAF",
"5 c #C4C2B6",
"6 c #A0BFCF",
"7 c #85C7E8",
"8 c #B2D8EB",
"9 c #CECCC2",
"0 c #D8D7CE",
"q c #C0D4DF",
"w c #DCDCD4",
"e c #E1E1DA",
"r c #D0DFE7",
"t c #C2E3F3",
"y c #E6E6E0",
"u c #EBEBE7",
"i c #F0F0ED",
"p c #E0F1F9",
"a c #F0F8FC",
"s c white",
"d c None",
/* pixels */
"dd22222222dddddd",
"dd4ssssss02ddddd",
"dd5ssssss022dddd",
"dd5sssa&;e2221dd",
"dd5ssst%Oriuw<dd",
"dd5ssst%Oqssu<dd",
"dd5ssst%Oqssu<dd",
"dd5ss7:%#-8su<dd",
"dd5ss=%%%%.su<dd",
"dd5ssp&%%o6su<dd",
"dd5sss7%$+ssu<dd",
"dd5sssa*Xqssu<dd",
"dd5ssss8@sssu<dd",
"dd5sssssssssu<dd",
"dd3yuuuuuuuu9,dd",
"ddd,<<<<<<<<> dd"
};
