/* XPM */
static const char *seleffects_24[] = {
/* columns rows colors chars-per-pixel */
"24 24 252 2 ",
"   c black",
".  c #00000C",
"X  c #0E0A19",
"o  c #00293C",
"O  c gray18",
"+  c #323232",
"@  c gray21",
"#  c gray24",
"$  c #3E3E3E",
"%  c #423634",
"&  c #3F3E44",
"*  c #1F3363",
"=  c #3F5765",
"-  c gray25",
";  c #434343",
":  c #434145",
">  c #464646",
",  c #4D4143",
"<  c #48494D",
"1  c #554F4F",
"2  c #514F56",
"3  c #575554",
"4  c #5A5557",
"5  c #56555E",
"6  c #56565E",
"7  c #555A5A",
"8  c #5A5C5E",
"9  c gray37",
"0  c #505160",
"q  c #535D64",
"w  c #50596E",
"e  c #4D6864",
"r  c #476B6A",
"t  c #546360",
"y  c #596A65",
"u  c #5F6669",
"i  c #57766B",
"p  c #586D72",
"a  c #626260",
"s  c #706F6E",
"d  c #667377",
"f  c #6C707E",
"g  c #727272",
"h  c #717477",
"j  c #797979",
"k  c #7A7A79",
"l  c gray48",
"z  c #7F7E7F",
"x  c #548573",
"c  c #253B87",
"v  c #3B4882",
"b  c #3F4A80",
"n  c #2B5592",
"m  c #1B7984",
"M  c #2D638A",
"N  c #2647AA",
"B  c #246DA7",
"V  c #2C73AA",
"C  c #49598F",
"Z  c #485B96",
"A  c #557583",
"S  c #4E6F9D",
"D  c #54639A",
"F  c #607A84",
"G  c #637199",
"H  c #2D998C",
"J  c #368D96",
"K  c #3FA28B",
"L  c #558980",
"P  c #519E87",
"I  c #4E8B95",
"U  c #46849F",
"Y  c #609C9D",
"T  c #4BAE8C",
"R  c #50A88B",
"E  c #50AA8A",
"W  c #4CAC91",
"Q  c #53A293",
"!  c #52AC91",
"~  c #69A69F",
"^  c #4E93A9",
"/  c #4C90AF",
"(  c #698CA1",
")  c #649BA4",
"_  c #6C9FAF",
"`  c #6194BC",
"'  c #6296BF",
"]  c #59B9A1",
"[  c #51B3A9",
"{  c #56B5AD",
"}  c #5BBAAB",
"|  c #61A6AC",
" . c #6EB2A0",
".. c #63B8AB",
"X. c #6BBAAB",
"o. c #73B3A6",
"O. c #61AAB7",
"+. c #6EA1BF",
"@. c #67ABB8",
"#. c #71ABB9",
"$. c #70AABD",
"%. c #76AEBC",
"&. c #74B6BC",
"*. c #79B7BE",
"=. c #65C2A6",
"-. c #7EC0AE",
";. c #7CC2B3",
":. c #75A4C1",
">. c #7BADC4",
",. c #7EBEC3",
"<. c #808080",
"1. c #868584",
"2. c #868686",
"3. c #8D8C8B",
"4. c #818E9F",
"5. c gray57",
"6. c #939393",
"7. c gray58",
"8. c #959494",
"9. c #959595",
"0. c #989796",
"q. c gray60",
"w. c #8A9AAE",
"e. c #939EAF",
"r. c #9AA1B2",
"t. c #94AFBE",
"y. c #89B5BE",
"u. c gray64",
"i. c #A7A7A7",
"p. c gray66",
"a. c gray67",
"s. c #ACACAC",
"d. c gray68",
"f. c #AEAEAE",
"g. c #B3B2B1",
"h. c #B3B3B2",
"j. c #B5B4B4",
"k. c #B6B6B6",
"l. c #B7B7B7",
"z. c #B9B9B9",
"x. c #BEBFBF",
"c. c #84C5B6",
"v. c #8497CD",
"b. c #8398CA",
"n. c #97AECA",
"m. c #8ABEC7",
"M. c #90B6CD",
"N. c #9ABECC",
"B. c #A9AFC6",
"V. c #A2BFCE",
"C. c #A5B8D2",
"Z. c #A7B9D3",
"A. c #B0BAD8",
"S. c #89C4C1",
"D. c #8DC7C4",
"F. c #93C9C1",
"G. c #97C9C3",
"H. c #95C7CB",
"J. c #95C0CE",
"K. c #98C9CF",
"L. c #9BC9CE",
"P. c #ACC2CD",
"I. c #BEC1C4",
"U. c #B2C0C8",
"Y. c #ADD0CF",
"T. c #ADDACF",
"R. c #B0DCCF",
"E. c #AEC6D7",
"W. c #A9CAD2",
"Q. c #BDC2D6",
"!. c #B0CCD7",
"~. c #B4C4DB",
"^. c #B5C7DC",
"/. c #B9C2DB",
"(. c #B9CADF",
"). c #A7D3D0",
"_. c #B1D5D3",
"`. c #B1D2D6",
"'. c #B9DCD3",
"]. c #BAD6DC",
"[. c #BEE2D8",
"{. c #C6C4C3",
"}. c gray77",
"|. c #C5C5C5",
" X c gray78",
".X c #CACACA",
"XX c gray80",
"oX c #CDCDCD",
"OX c #C2C9D8",
"+X c #C5D0DC",
"@X c #D0D0D0",
"#X c #D5D5D5",
"$X c #D8D8D6",
"%X c gray87",
"&X c #C8CFE4",
"*X c #C7D2E2",
"=X c #CDD7E4",
"-X c #D5D9E2",
";X c #D5DAE5",
":X c #C8E6E3",
">X c #CFE6E2",
",X c #D0E7E3",
"<X c #D4E9E4",
"1X c #D9EBEB",
"2X c #DDE8EC",
"3X c #DDECED",
"4X c #DFEEEC",
"5X c gray89",
"6X c #E3E4E4",
"7X c #E5E5E4",
"8X c #E0EDEF",
"9X c #EBEBEC",
"0X c #EEEEEE",
"qX c #EFEFEF",
"wX c #E9EAF0",
"eX c #EAEDF5",
"rX c #E1F0F0",
"tX c #EAF4F3",
"yX c #ECF5F3",
"uX c #F3F3F3",
"iX c #F0F7F6",
"pX c #F0F6F7",
"aX c #F1F7F7",
"sX c #F4F4F4",
"dX c #F6F6F6",
"fX c gray97",
"gX c #F0F8F6",
"hX c #F2F8F7",
"jX c #F1F4F9",
"kX c #F2F7F8",
"lX c #F5F7F8",
"zX c #F5F7FC",
"xX c #F7F8FB",
"cX c #F6FAFA",
"vX c #F7FBFB",
"bX c #F6FAFC",
"nX c gray98",
"mX c #F8FBFC",
"MX c #F8FCFC",
"NX c #FAFCFC",
"BX c #FBFDFD",
"VX c gray99",
"CX c #FDFDFD",
"ZX c #FCFDFE",
"AX c #FDFDFE",
"SX c #FDFEFE",
"DX c #FCFEFF",
"FX c #FEFEFE",
"GX c #FEFEFF",
"HX c #FEFFFF",
"JX c white",
"KX c None",
/* pixels */
"KXKXKXKXKXKXKXKXKXKXKXKXKXKXKXKXKXKXKXKXKXKXKXKX",
"KXKXKXKXKXKXKXKXKXKXKXKXKXKXKXKXKXKXKXKXKXKXKXKX",
"KXKXKXKXKXKXKXKXKXKXKXKXKXKXKXKXn w KXKXKXKXKXKX",
"KXKXKXKXKXKX[ KXKXKXKX^ A KXKXKXS 6 KXKXKXKXKXKX",
"KXKXKXKXKXKX{ D.KXKXKXN.U.KXKX~.w.& KXKXKXKXKXKX",
"KXKXKXKXKXKXKX).1XKX%.2XlX+X=XjXe.KXKXKXN b KXKX",
"KXKXKXKXKXKXKXS.aXkXpXJXJXGXJXJX-XB./.A.D 2 KXKX",
"KXKXW ] T.KXG._.cXJXSXSXZXAXZXFXHXxXDXQ.* KXKXKX",
"KXKXKXK c.4XiXvXBX`.W.!.V.E.n.*XHXJXJXwXOXb.c 5 ",
"KXKXKXKXX.,XJXJXMX&.O.$./ +.B C.HXJXJXJX&XC 0 KX",
"E T =.[.yXBXJXJXNXH.m.J.>.M.` ^.HXJXJXeXG : KXKX",
"KXx P -.<XJXJXJXmX*.@._ U :.V Z.HXJXJXzXr.KXKXKX",
"KXKXKXKX;.hXJXJXNXK.) u 8 ( ' (.SXsX9X$X;Xv.KXKX",
"KXKXKXKX'.BXJXJXMX,.m z {.q M 4.d.2.j k f Z v KX",
"KXKXKXR.gXHXJXJXNXL.y.d j.g.X 1.> f.g z.3.. KXKX",
"KXR !  .o.F.tXJXJXJXHX6Xs  X8.f.h.6. X X7Xa KXKX",
"KXi y t e H >XHXrX3XZXJXI.h XXl x.p.5XFXJX.X$ KX",
"KXKXKXKXKX..:XY.Y | 8XbXt.o 0.|.a.uXCXJXJXVXu.  ",
"KXKXKXKXKX} ~ r , J ].P.= 1   k.nXJXJXJXJXJX#X- ",
"KXKXKXKXQ L 7 KXKXKX#.F % KXKXO @XJXJXJXJXJX#X; ",
"KXKXKXKXKX4 KXKXKXKXI < 3 s.k.q.}.JXJXJXJXVXi.KX",
"KXKXKXKXKXKXKXKXKXKXp KX# 9.l.oX%XqXdXfX0Xf.@ KX",
"KXKXKXKXKXKXKXKXKXKXKXKXKXKXKX+ 9 <.5.7.j   KXKX",
"KXKXKXKXKXKXKXKXKXKXKXKXKXKXKXKXKXKXKXKXKXKXKXKX"
};
