/* XPM */
static const char *seleffects_48[] = {
/* columns rows colors chars-per-pixel */
"48 48 219 2 ",
"   c #000000",
".  c #090909",
"X  c #000017",
"o  c #161616",
"O  c #00003B",
"+  c #001328",
"@  c #152226",
"#  c #28292A",
"$  c #312F2F",
"%  c #363635",
"&  c #3B3C3C",
"*  c #3A3836",
"=  c #3F3F40",
"-  c #001465",
";  c #22397B",
":  c #294A55",
">  c #194C75",
",  c #3B4976",
"<  c #33536D",
"1  c #30646F",
"2  c #2E687F",
"3  c #444444",
"4  c #4A494A",
"5  c #46474F",
"6  c #45555B",
"7  c #535153",
"8  c #5A5456",
"9  c #5B5857",
"0  c #55565C",
"q  c #5A5659",
"w  c #5A585A",
"e  c #565A5F",
"r  c #524F52",
"t  c #434F68",
"y  c #4B5366",
"u  c #555A64",
"i  c #435477",
"p  c #596463",
"a  c #576869",
"s  c #58726B",
"d  c #567478",
"f  c #656565",
"g  c #6C6C6C",
"h  c #6A6867",
"j  c #747474",
"k  c #7C7C7C",
"l  c #568777",
"z  c #1D3C88",
"x  c #002D90",
"c  c #02399C",
"v  c #033599",
"b  c #0025A0",
"n  c #0035A1",
"m  c #004495",
"M  c #2A5B9B",
"N  c #324C8A",
"B  c #3C788B",
"V  c #377590",
"C  c #1153A6",
"Z  c #2852AD",
"A  c #3157AE",
"S  c #0069A5",
"D  c #0063A6",
"F  c #1A69A6",
"G  c #0273A8",
"H  c #2573A7",
"J  c #2974A7",
"K  c #3475AD",
"L  c #3B79AF",
"P  c #336FB0",
"I  c #435D87",
"U  c #567E8C",
"Y  c #4F6C8C",
"T  c #607D81",
"R  c #4B72AA",
"E  c #606FA2",
"W  c #667AA5",
"Q  c #3CB39C",
"!  c #30B498",
"~  c #2783A8",
"^  c #388AAA",
"/  c #3A96AC",
"(  c #3EA7A6",
")  c #31B0A5",
"_  c #548988",
"`  c #539984",
"'  c #4E9093",
"]  c #6B8999",
"[  c #4FA98D",
"{  c #51A48D",
"}  c #50AB8E",
"|  c #48AC97",
" . c #51A292",
".. c #50AD94",
"X. c #4FB293",
"o. c #4CBB96",
"O. c #4CB79D",
"+. c #4DBA9B",
"@. c #45B89D",
"#. c #50BB99",
"$. c #4080AB",
"%. c #4594AB",
"&. c #459DAC",
"*. c #4B9EAD",
"=. c #4D92A6",
"-. c #5789B5",
";. c #4C9CB2",
":. c #5A98B6",
">. c #4386B3",
",. c #6589BD",
"<. c #639ABC",
"1. c #659AB8",
"2. c #6F93AD",
"3. c #45A4AD",
"4. c #4CA4AE",
"5. c #43ABAE",
"6. c #4AABAB",
"7. c #51A3AE",
"8. c #4BB4A5",
"9. c #4CB2AB",
"0. c #47B5A3",
"q. c #50B4A5",
"w. c #51B3AB",
"e. c #5BBCA7",
"r. c #52A5B0",
"t. c #53AAB2",
"y. c #5BA6B2",
"u. c #65BEAC",
"i. c #6CAABB",
"p. c #69A4BB",
"a. c #63BAB5",
"s. c #6EB1BA",
"d. c #6CBCB9",
"f. c #74B3BD",
"g. c #73A9BD",
"h. c #6BC2AE",
"j. c #7AC6B6",
"k. c #6BC1B2",
"l. c #6B8AC2",
"z. c #7696C6",
"x. c #7ABCC1",
"c. c #79B3C1",
"v. c #838383",
"b. c #8C8C8C",
"n. c #878788",
"m. c #949494",
"M. c #9D9D9D",
"N. c #87A5B6",
"B. c #A4A4A4",
"V. c #ACACAC",
"C. c #B4B4B4",
"Z. c #BCBCBC",
"A. c #A7B8BC",
"S. c #8AC8BE",
"D. c #828EC0",
"F. c #83ABCA",
"G. c #8EAFCF",
"H. c #8CB5CB",
"J. c #8EBBCB",
"K. c #8AB4CA",
"L. c #91BDCC",
"P. c #94B1C5",
"I. c #95B0CF",
"U. c #AABBD9",
"Y. c #B8BFD7",
"T. c #86C5C3",
"R. c #93CCC4",
"E. c #93C4CD",
"W. c #9AC4CF",
"Q. c #96CBCD",
"!. c #9ACCCF",
"~. c #9ACDC4",
"^. c #9AD1C4",
"/. c #98C5D0",
"(. c #BCC0C3",
"). c #A4D8CA",
"_. c #A3CBD3",
"`. c #A7C7D8",
"'. c #B7C4D9",
"]. c #ABD3D7",
"[. c #B3DCD4",
"{. c #B3D9DA",
"}. c #BCDEDA",
"|. c #B5D4DB",
" X c #AEC4CC",
".X c #BFE0D9",
"XX c #BFDBE1",
"oX c gray76",
"OX c #CCCCCC",
"+X c gray83",
"@X c #DCDCDC",
"#X c #C6E3DF",
"$X c #C1CDE3",
"%X c #CAD4E5",
"&X c #CADCE4",
"*X c #C9D5E6",
"=X c #D3DDEB",
"-X c #D1DCE5",
";X c #CAE5E3",
":X c #D4E2EB",
">X c #DBE4EE",
",X c #D4E9E9",
"<X c #DAEBEC",
"1X c #D5E6E7",
"2X c #DDF1EF",
"3X c #DAE2F0",
"4X c #E3E3E3",
"5X c #ECECEC",
"6X c #E2F1EF",
"7X c #E4EEF2",
"8X c #E6EBF3",
"9X c #E6F3F2",
"0X c #ECF4F6",
"qX c #EEF2F9",
"wX c #F3F3F3",
"eX c #F5FBFA",
"rX c #FFFFFF",
"tX c #F2F5FC",
"yX c None",
/* pixels */
"yXyXyXyXyXyXyXyXyXyXyXyXyXyXyXyXyXyXyXyXyXyXyXyXyXyXyXyXyXyXyXyXyXyXyXyXyXyXyXyXyXyXyXyXyXyXyXyX",
"yXyXyXyXyXyXyXyXyXyXyXyXyXyXyXyXyXyXyXyXyXyXyXyXyXyXyXyXyXyXyXyXyXyXyXyXyXyXyXyXyXyXyXyXyXyXyXyX",
"yXyXyXyXyXyXyXyXyXyXyXyXyXyXyXyXyXyXyXyXyXyXyXyXyXyXyXyXyXyXyXyXyXyXyXyXyXyXyXyXyXyXyXyXyXyXyXyX",
"yXyXyXyXyXyXyXyXyXyXyXyXyXyXyXyXyXyXyXyXyXyXyXyXyXyXyXyXyXyXyXyXyXyXI yXyXyXyXyXyXyXyXyXyXyXyXyX",
"yXyXyXyXyXyXyXyXyXyXyXyXyXyXyXyXyXyXyXyXyXyXyXU yXyXyXyXyXyXyXyXyXM y w yXyXyXyXyXyXyXyXyXyXyXyX",
"yXyXyXyXyXyXyXyXyXyXq.q.yXyXyXyXyXyXyXyXyXyX;.' w yXyXyXyXyXyXyXC M w yXyXyXyXyXyXyXyXyXyXyXyXyX",
"yXyXyXyXyXyXyXyXyXyXyXq.w.yXyXyXyXyXyXyXyXyXyX%.u yXyXyXyXyXyXF C V 9 yXyXyXyXyXyXyXyXyXyXyXyXyX",
"yXyXyXyXyXyXyXyXyXyXyXyXq.w.yXyXyXyXyXyXyXyXyXy._ 8 yXyXyXyXyXF l.I 9 yXyXyXyXyXyXyXyXyXyXyXyXyX",
"yXyXyXyXyXyXyXyXyXyXyXyXw.w.a.yXyXyXyXyXyXyX%.W. X< yXyXyXyXD U.'.i 9 yXyXyXyXyXyXyXyXyXyXyXyXyX",
"yXyXyXyXyXyXyXyXyXyXyXyXyX9.Q._.yXyXyXyXyXyX/ :XwX] yXyXyXD U.rXI.< 9 yXyXyXyXyXyXyXyXyXyXyXyXyX",
"yXyXyXyXyXyXyXyXyXyXyXyXyX9.a.9X;XyXyXyXyX/ L.eXrX-X2.S >.'.rXrXI.6 yXyXyXyXyXyXyXyXn N e yXyXyX",
"yXyXyXyXyXyXyXyXyXyXyXyXyXw.9.;XrX,XE.y.4.c.7XrXrXrX8X8X9XrXrXrXU.t yXyXyXyXyXn Z n N q w yXyXyX",
"yXyXyXyXyXyXyXyXyXyXyXyXyXw.5.).rXrXrX7X<XrXrXrXrXrXrXrXrXrXrXrXqXE - yXyXA D.U.W v u w w yXyXyX",
"yXyXyXX.yXyXyXyXyXyXyXyXyXyX) J.eXrXrXrXrXrXrXrXrXrXrXrXrXrXrXrXrX=X'.Y.%X=XtX%Xn y q w yXyXyXyX",
"yXyXyXyXX.+.+.e.h.yXyXyXyXyX) T.eXrXrXrXrXrXrXrXrXrXrXrXrXrXrXrXrXrXrXrXrXrXtXR i w w yXyXyXyXyX",
"yXyXyXyXyX[ O.e.}.,X[.~.S.j.T.;XrXrXrXrXrXrXrXrXrXrXrXrXrXrXrXrXrXrXrXrXrXrX3Xx 5 7 yXyXyXyXyXyX",
"yXyXyXyXyXyX` #.@..XrXrXeX0XrXrXrXrX,X;X&X=X>X&X&X&X3X:X*X*X*XqXrXrXrXrXrXrXeX'.2.E z.yXb v y yX",
"yXyXyXyXyXyXyX{ | 0.#XrXrXrXrXrXrXrXx.3.( i./.;.^ ~ J.y.G S K :XrXrXrXrXrXrXrXrXtXtX$XA v i w q ",
"yXyXyXyXyXyXyXyX .@.a.0XrXrXrXrXrXrXx.4.&.i.L.%.^ ^ H.l.H F K :XrXrXrXrXrXrXrXrXrX%XA N u q w yX",
"yXyXyXyXyXyXyXyXyXd.[.rXrXrXrXrXrXrXx.3.&.p./.%.^ ~ J.<.H F K :XrXrXrXrXrXrXrXrX=XZ z y 9 w yXyX",
"#.o.#.o.o.S.^.[.,X0XrXrXrXrXrXrXrXrX{.Q.E._.&XE.E.J.|.`.F.c.G.7XrXrXrXrXrXrXrXqX,.; q w yXyXyXyX",
"yX` } o.o.j.;XeXrXrXrXrXrXrXrXrXrXrXQ.f.c.J.`.c.c.l.`.x.l.:.z.3XrXrXrXrXrXrXrX8Xc 0 9 yXyXyXyXyX",
"yXyXp l { @.@.^.6XrXrXrXrXrXrXrXrXrXx.3.4.i.E.*.^ ~ K.l.H F L :XrXrXrXrXrXrXrXqXW r yXyXyXyXyXyX",
"yXyXyXyXp l } Q h.<XrXrXrXrXrXrXrXrXx.3.3.i.P.B V J J.<.H F P :XrXrXrXrXrXrXrXrX%XI yXyXyXyXyXyX",
"yXyXyXyXyXyXa [ Q S.eXrXrXrXrXrXrXrXE.f.s.2.6     + N.F.-.-.,.<XrXrXrXrXrXrXrXrXrX=XD.yXyXyXyXyX",
"yXyXyXyXyXyXyXyX| j.eXrXrXrXrXrXrXrX{.!.Q.T   k l   8 P.H.F.G.8XrXrXrXeXrX@XV.Z.-XtX'.A yXyXyXyX",
"yXyXyXyXyXyXyXyX@.[.rXrXrXrXrXrXrXrXT.t.t.:   +XwXh   < L P R ;XrXZ.v.v.M.&     r E A c n c yXyX",
"yXyXyXyXyXyXyX! S.eXrXrXrXrXrXrXrXeXf.6.&.1   g wX@X*   > > + = j o         B.n.  O z , t u w yX",
"yXyXyXyXyXyX@.^.eXrXrXrXrXrXrXrXrXrXx.3.&.=.6   m.rXZ.      # #   o V.C.  . @X5Xg   * 8 w w yXw ",
"yXyXyXyXyX+.).eXrXrXrXrXrXrXrXrXrXrX{.Q.W.].A.@   oXeXn.    Z.OX&   Z.rXm.  j wX+X&   * yXyXyXyX",
"yXyXyXyX+.+.h.h.e.k.R.,XrXrXrXrXrXrXrXrXrXrXrXC.  % 4XwXh   M.rXZ.  3 4XwXg   OXrXC.    yXyXyXyX",
"yXyX} X.[ { [ {  .| 0.Q [.rXrXrXrXrXrXrXrXrXrXwXb.  g wX+X%   Z.eXm.  g 5X4XV.5XrXwXb.  . yXyXyX",
"yXs s a p p u p p p _ ( S.rXrXrXrXrXrXrXrXrXrXrX4Xg   M.rXC.  = 4X5Xf   Z.rXrXrXrXrX5Xg   yXyXyX",
"yXyX8 9 q q 9 9 yXyXs | ~.rXrXrX9XXX_.,XrXrXrXrXrX(.X   oXrXb.  e wX@Xm.+XrXrXrXrXrXrXOX&   yXyX",
"yXyXyXyXyXyXyXyXyXyXyX9.{.rX9X[.a.5.3.t.7XrXrXrX,X:.>   & @X5Xf   V.rXeXrXrXrXrXrXrXrXrXV.    yX",
"yXyXyXyXyXyXyXyXyXyX8.e.2X#Xd.( _ d _ 3.!.rXrX:X:.Y w $   j wX+Xj Z.rXrXrXrXrXrXrXrXrXrXwXw   yX",
"yXyXyXyXyXyXyXyXyXyX8.u.T.8.' p q 8 d 4.s.rXqXg.B 7 w 7     M.rXeXrXrXrXrXrXrXrXrXrXrXrXrXM.  yX",
"yXyXyXyXyXyXyXyXyXyXq.q. .d 8 8 w yXyX7.y.0X`.B 8 9 w yXyX  . oXrXrXrXrXrXrXrXrXrXrXrXrXrXoX    ",
"yXyXyXyXyXyXyXyXyXq.q._ p 8 w yXyXyXyXyXy.].=.u 9 8 yXyXyXyX  3 @XrXrXrXrXrXrXrXrXrXrXrXrXoX  yX",
"yXyXyXyXyXyXyXyXyX .s q 8 w yXyXyXyXyX7.r.;.d 8 4               g wXrXrXrXrXrXrXrXrXrXrXrXB.  yX",
"yXyXyXyXyXyXyXyXyXp q w yXyXyXyXyXyXyX7.r.' q r   o w 4 #         OXrXrXrXrXrXrXrXrXrXrXeX8   yX",
"yXyXyXyXyXyXyXyXyXyXw yXyXyXyXyXyXyXyXr.;.a q 4   v.4X5X5X@XOXZ.B.wXrXrXrXrXrXrXrXrXrXrXC.    yX",
"yXyXyXyXyXyXyXyXyXyXyXyXyXyXyXyXyXyXyXt._ q q yX  4 B.OX4XwXeXrXrXrXrXrXrXrXrXrXrXrXeXoX$   yXyX",
"yXyXyXyXyXyXyXyXyXyXyXyXyXyXyXyXyXyXyXyXa q yXyXyX      . w m.C.OX@XwXrXrXrXrXrXrX4XM.*   yXyXyX",
"yXyXyXyXyXyXyXyXyXyXyXyXyXyXyXyXyXyXyXyXyXw yXyXyXyXyX            4 g b.M.V.Z.V.m.7     yXyXyXyX",
"yXyXyXyXyXyXyXyXyXyXyXyXyXyXyXyXyXyXyXyXyXyXyXyXyXyXyXyXyXyXyXyX                      yXyXyXyXyX",
"yXyXyXyXyXyXyXyXyXyXyXyXyXyXyXyXyXyXyXyXyXyXyXyXyXyXyXyXyXyXyXyXyXyXyXyXyXyXyXyXyXyXyXyXyXyXyXyX",
"yXyXyXyXyXyXyXyXyXyXyXyXyXyXyXyXyXyXyXyXyXyXyXyXyXyXyXyXyXyXyXyXyXyXyXyXyXyXyXyXyXyXyXyXyXyXyXyX"
};
