/* XPM */
static const char *select_show_folder_24_xpm[] = {
/* columns rows colors chars-per-pixel */
"24 24 33 1 ",
"  c #00391A",
". c #004C23",
"X c #005225",
"o c #00652E",
"O c #216C40",
"+ c #58585A",
"@ c #427452",
"# c #636258",
"$ c #696867",
"% c #6E6E6B",
"& c #637B64",
"* c #73726F",
"= c #797873",
"- c #B8AF3B",
"; c #BCB231",
": c #C7BB14",
"> c #C0B527",
", c #CFC100",
"< c #DDCE00",
"1 c #ECDC00",
"2 c #9E9958",
"3 c #848376",
"4 c #A29E76",
"5 c #A9A462",
"6 c #B0AC76",
"7 c #849C81",
"8 c #9E9B80",
"9 c #9A9F8C",
"0 c #A5A393",
"q c #A5A395",
"w c #ABA999",
"e c #B0AE9D",
"r c None",
/* pixels */
"rrrrrrrrrrrrrrrrrrrrrrrr",
"rrrrrrrrrrrrrrrrrrrrrrrr",
"reeeeeeeeerrrrrrrrrrrrrr",
"eeeeeeeeeeerrrrrrrrrrrrr",
"eeeeeeeeeeeeeeeeeeeeerrr",
"eeeeeeeeeeeeeeeeeeeeeeer",
"eeeeeeeeee9770eeeeeeeee*",
"ee33333333@oo#33333330e%",
"ee ........oo........3e%",
"eeeeeeeeeeOoo7eeeeeeeee%",
"eeeeeeeee0 Xo&eeeeeeeee%",
"eeeeeeeee-111:eeeeeeeee%",
"eeeeeeee0<11114eeeeeeee%",
"eeeeeeee3111112eeeeeeee%",
"eeeeeeee3111112eeeeeeee%",
"eeeeeeeee,11118eeeeeeee%",
"eeeeeeeee;111:eeeeeeeee%",
"eeeeeeeee41115eeeeeeeee%",
"eeeeeeeeee;1>eeeeeeeeee%",
"eeeeeeeeeee6eeeeeeeeeee$",
"rqeeeeeeeeeeeeeeeeeeew=+",
"rr+++++++++++++++++++++r",
"rrrrrrrrrrrrrrrrrrrrrrrr",
"rrrrrrrrrrrrrrrrrrrrrrrr"
};
