/* XPM */
static const char *sequence_elements_64[] = {
/* columns rows colors chars-per-pixel */
"64 64 102 2 ",
"   c #58585A",
".  c #7F7C4F",
"X  c #7F7D4F",
"o  c #656757",
"O  c #676856",
"+  c #606058",
"@  c #616158",
"#  c #6C7055",
"$  c #6F7055",
"%  c #717654",
"&  c #777853",
"*  c #7B7A51",
"=  c #7C7B50",
"-  c #7D7B50",
";  c #7C7A51",
":  c #7C7B51",
">  c #7D7C50",
",  c #7E7C50",
"<  c #807D4E",
"1  c #807D4F",
"2  c #7E8051",
"3  c #7E8552",
"4  c #C0BE3F",
"5  c #CAC73C",
"6  c #CBC73C",
"7  c #CBD13F",
"8  c #CBD63F",
"9  c #CDD73E",
"0  c #CCD73F",
"q  c #CFD83E",
"w  c #DCD837",
"e  c #D6DB3B",
"r  c #D7DB3B",
"t  c #D1D83D",
"y  c #D3D93D",
"u  c #D4DA3C",
"i  c #D5DA3C",
"p  c #D8DB3B",
"a  c #DADD3A",
"s  c #DBDD3A",
"d  c #DEDE39",
"f  c #DDDE3A",
"g  c #E0DF39",
"h  c #F2E82F",
"j  c #F7EB2D",
"k  c #F4E92F",
"l  c #F5EA2E",
"z  c #F9EB2B",
"x  c #F8EA2C",
"c  c #F8EC2C",
"v  c #E1E037",
"b  c #E3E036",
"n  c #E4E035",
"m  c #E5E135",
"M  c #E7E134",
"N  c #EAE433",
"B  c #EEE631",
"V  c #ECE533",
"C  c #EDE632",
"Z  c #E8E334",
"A  c #F0E730",
"S  c #83824F",
"D  c #88844C",
"F  c #8A854C",
"G  c #96994B",
"H  c #A3A648",
"J  c #AAB547",
"K  c #ABB547",
"L  c #ACB647",
"P  c #AEB646",
"I  c #AFB746",
"U  c #ACBA47",
"Y  c #A4B349",
"T  c #A7B448",
"R  c #A6B449",
"E  c #A8B448",
"W  c #B0B745",
"Q  c #B7BA43",
"!  c #B1B845",
"~  c #B3B844",
"^  c #B4B944",
"/  c #B5BA44",
"(  c #B8BA43",
")  c #BABC42",
"_  c #BDBD41",
"`  c #BEBD41",
"'  c #BEBE40",
"]  c #BCBD42",
"[  c #B0C247",
"{  c #BCC142",
"}  c #BDC242",
"|  c #BED143",
" . c #BDD144",
".. c #BED144",
"X. c #C1D242",
"o. c #C0D243",
"O. c #C3D342",
"+. c #C5D441",
"@. c #C7D440",
"#. c #C6D441",
"$. c #C9D540",
"%. c None",
/* pixels */
"%.%.%.%.%.%.%.%.%.x z c j j j h h A A B B N N N Z M b %.%.%.%.%.%.%.%.%.%.%.%.%.%.%.%.%.%.%.%.%.%.%.%.%.%.%.%.%.%.%.%.%.%.%.%.%.",
"%.%.%.%.%.%.%.%.%.x z c j j j k h A A B B B Z V Z M M S %.%.%.%.%.%.%.%.%.%.%.%.%.%.%.%.%.%.%.%.%.%.%.%.%.%.%.%.%.%.%.%.%.%.%.%.",
"%.%.%.%.%.%.%.%.%.x z c j j j h h A A B V V V Z Z M M *   %.%.%.%.%.%.%.%.%.%.%.%.%.%.%.%.%.%.%.%.%.%.%.%.%.%.%.%.%.%.%.%.%.%.%.",
"%.%.%.%.%.%.%.%.%.x z c j c k h h A A B B V Z V Z M b *   %.%.%.%.%.%.%.%.%.%.%.%.%.%.%.%.%.%.%.%.%.%.%.%.%.%.%.%.%.%.%.%.%.%.%.",
"%.%.%.%.%.%.%.%.%.x z c j j k k h h C B C N N N Z M b *   %.%.%.%.%.%.%.%.%.%.%.%.%.%.%.%.%.%.%.%.%.%.%.%.%.%.%.%.%.%.%.%.%.%.%.",
"%.%.%.%.%.%.%.%.%.x z c j j j k h h h B C N N N Z M Z *   %.%.%.%.%.%.%.%.%.%.%.%.%.%.%.%.%.%.%.%.%.%.%.%.%.%.%.%.%.%.%.%.%.%.%.",
"%.%.%.%.%.%.%.%.%.x x c j j k k h C h C C B N N Z M M *   %.%.%.%.%.%.%.%.%.%.%.%.%.%.%.%.%.%.%.%.%.%.%.%.%.%.%.%.%.%.%.%.%.%.%.",
"%.%.%.%.%.%.%.%.%.x c j j j j k h h C C C V N N Z M b *   %.%.%.%.%.%.%.%.%.%.%.%.%.%.%.%.%.%.%.%.%.%.%.%.%.%.%.%.%.%.%.%.%.%.%.",
"%.%.%.%.%.%.%.%.%.x z c c j j h h A A B B N N N Z M b *   %.%.%.%.%.%.%.%.%.%.%.%.%.%.%.%.%.%.%.%.%.%.%.%.%.%.%.%.%.%.%.%.%.%.%.",
"%.%.%.%.%.%.%.%.%.x z c j j j k h A A B B B N Z Z M M *   %.%.%.%.%.%.%.%.%.%.%.%.%.%.%.%.%.%.%.%.%.%.%.%.%.%.%.%.%.%.%.%.%.%.%.",
"%.%.%.%.%.%.%.%.%.x z c j j k h h A A B V V V V Z M M *   %.%.%.%.%.%.%.%.%.%.%.%.%.%.%.%.%.%.%.%.%.%.%.%.%.%.%.%.%.%.%.%.%.%.%.",
"%.%.%.%.%.%.%.%.%.x z c j j j k h A A B C V V Z Z M M *   %.%.%.%.%.%.%.%.%.%.%.%.%.%.%.%.%.%.%.%.%.%.%.%.%.%.%.%.%.%.%.%.%.%.%.",
"%.%.%.%.%.%.%.%.%.x z c j j k k h h A B C N N N Z M b *   %.%.%.%.%.%.%.%.%.%.%.%.%.%.%.%.%.%.%.%.%.%.%.%.%.%.%.%.%.%.%.%.%.%.%.",
"%.%.%.%.%.%.%.%.%.x z c j j j k h C A B C N N N Z M M *   %.%.%.%.%.%.%.%.u %.%.%.%.%.%.%.%.%.%.%.%.%.%.%.%.%.%.%.%.%.%.%.%.%.%.",
"%.%.%.%.%.%.%.%.%.x c c j j k h h h h C C C V Z Z M b *   %.%.%.%.%.%.r u u 7 %.%.%.%.%.%.%.%.%.%.%.%.%.%.%.%.%.%.%.%.%.%.%.%.%.",
"%.%.%.%.%.%.%.%.%.x c j j j j k h h C C C V Z V Z M M *   %.%.%.%.%.p r u u u & %.%.%.%.%.%.%.%.%.%.%.%.%.%.%.%.%.%.%.%.%.%.%.%.",
"%.%.%.%.%.%.%.%.%.x z c x c j h A A A B B V V Z Z M M :   %.%.%.%.p p p u u _ +   %.%.%.%.%.%.%.%.%.%.%.%.%.%.%.%.%.%.%.%.%.%.%.",
"%.%.%.%.%.%.%.%.%.x z c j j j k h A A B B V Z V Z M p @   %.%.%.d d p p u { @     %.%.%.%.%.%.%.%.%.%.%.%.%.%.%.%.%.%.%.%.%.%.%.",
"%.%.%.%.%.%.%.%.%.%.F 1 1 1 , 1 , , , , : . : : , * @     %.%.d d p p p u u y t q q q $.$.$.+.+.+.o.o...[ %.%.%.%.%.%.%.%.%.%.%.",
"%.%.%.%.%.%.%.%.%.%.%.                                    %.%.d f d p p u u u t q 0 8 8 $.$.+.+.+.o.o... .$ %.%.%.%.%.%.%.%.%.%.",
"%.%.%.%.%.%.%.%.%.%.%.%.%.%.%.%.%.%.%.%.%.%.%.%.%.%.%.%.%.%.%.d f f u p u u u t q 0 0 0 $.$.+.+.o.O.| ....%   %.%.%.%.%.%.%.%.%.",
"%.%.%.%.%.%.%.%.%.%.%.%.%.%.%.%.%.%.%.%.%.%.%.%.%.%.%.%.%.%.%.d f p p p u u u t q 0 0 8 $.$.+.+.O.O.| ....%   %.%.%.%.%.%.%.%.%.",
"%.%.%.%.%.%.%.%.%.x c c c j k h h A h B B V N N Z M M %.%.%.%.%.f f p p u { +                     T | ....%   %.%.%.%.%.%.%.%.%.",
"%.%.%.%.%.%.%.%.%.x c c j j j k h A B B V B N N M M M S %.%.%.%.%.f p u u u {                     U O.....$   %.%.%.%.%.%.%.%.%.",
"%.%.%.%.%.%.%.%.%.x z c j j j k h A A B C V V V Z M b *   %.%.%.%.%.p r u u u 2 %.%.%.%.%.%.%.%.%.o.o.o. .%   %.%.%.%.%.%.%.%.%.",
"%.%.%.%.%.%.%.%.%.x z c j j h k h A A B C B V Z Z M b *   %.%.%.%.%.%.r u u $.O   %.%.%.%.%.%.%.%.o.o. . .%   %.%.%.%.%.%.%.%.%.",
"%.%.%.%.%.%.%.%.%.x z c j j j k h A A B C N N N Z Z M *   %.%.%.%.%.%.%.H G $     %.%.%.%.%.%.%.%.o.o. . .%   %.%.%.%.%.%.%.%.%.",
"%.%.%.%.%.%.%.%.%.x z c j j k k h A A B C N N N Z Z b *   %.%.%.%.%.%.%.%.        %.%.%.%.%.%.%.%.o.o. . .%   %.%.%.%.%.%.%.%.%.",
"%.%.%.%.%.%.%.%.%.x z c x c k k h A A B B V N N Z Z g .   %.%.%.%.%.%.%.%.%.%.  %.%.%.%.%.%.%.%.%.o.o. . .%   %.%.%.%.%.%.%.%.%.",
"%.%.%.%.%.%.%.%.%.x z c j j j k h A A B V V Z V Z Z g *   %.%.%.%.%.%.%.%.%.%.%.%.%.%.%.%.%.%.%.%.+.o.o. .%   %.%.%.%.%.%.%.%.%.",
"%.%.%.%.%.%.%.%.%.x z c j j j k h A A B B V V M Z M Z .   %.%.%.%.%.%.%.%.%.%.%.%.%.%.%.%.%.%.%.%.o.o... .%   %.%.%.%.%.%.%.%.%.",
"%.%.%.%.%.%.%.%.%.x z c j j k h h A A B V V V V Z g g .   %.%.%.%.%.%.%.%.%.%.%.%.%.%.%.%.%.%.%.%.o.o... .%   %.%.%.%.%.%.%.%.%.",
"%.%.%.%.%.%.%.%.%.x z c j j j k h B C h C N N N Z M b *   %.%.%.%.%.%.%.%.%.%.%.%.%.%.%.%.%.%.%.%.O.| .. .%   %.%.%.%.%.%.%.%.%.",
"%.%.%.%.%.%.%.%.%.x z c j j k k h h h C C N N N Z M Z *   %.%.%.%.%.%.%.%.%.%.%.%.%.%.%.%.%.%.%.%.O.O... .%   %.%.%.%.%.%.%.%.%.",
"%.%.%.%.%.%.%.%.%.x z c j j k k h h C C C B Z N Z M M *   %.%.%.%.%.%.%.%.%.%.%.%.%.%.%.%.%.%.%.%.O..... .%   %.%.%.%.%.%.%.%.%.",
"%.%.%.%.%.%.%.%.%.x c j j j j k h B h C C V V Z Z M M *   %.%.%.%.%.%.%.%.%.%.%.%.%.%.%.%.%.%.%.%.| O... .%   %.%.%.%.%.%.%.%.%.",
"%.%.%.%.%.%.%.%.%.x z c j j j k h B h B B V V V Z M b *   %.%.%.%.%.%.%.%.%.%.%.%.%.%.%.%.%.%.%.%.O.......%   %.%.%.%.%.%.%.%.%.",
"%.%.%.%.%.%.%.%.%.x z c j j k h h h B B B V V M Z M b *   %.%.%.%.%.%.%.%.%.%.%.%.%.%.%.%.%.%.%.%.O.O.....%   %.%.%.%.%.%.%.%.%.",
"%.%.%.%.%.%.%.%.%.x z c j j j h h B h B N V B M Z Z Z *   %.%.%.%.%.%.%.%.%.%.%.%.%.%.%.%.%.%.%.%.O.| .. .%   %.%.%.%.%.%.%.%.%.",
"%.%.%.%.%.%.%.%.%.x z c j j h j h h B B B B N M Z Z p @   %.%.%.%.%.%.%.%.%.%.%.%.%.%.%.%.%.%.%.%.O.| .. .$   %.%.%.%.%.%.%.%.%.",
"%.%.%.%.%.%.%.%.%.%.F 1 1 1 1 X X X , , : . : . , * @     %.%.%.%.%.%.%.%.%.%.%.%.%.%.%.%.%.%.%.%.o.o.o. .%   %.%.%.%.%.%.%.%.%.",
"%.%.%.%.%.%.%.%.%.%.%.                                    %.%.%.%.%.%.%.%.%.%.%.%.%.%.%.%.%.%.%.%.o.o. . .%   %.%.%.%.%.%.%.%.%.",
"%.%.%.%.%.%.%.%.%.%.%.%.%.%.%.%.%.%.%.%.%.%.%.%.%.%.%.%.%.%.%.%.%.%.%.%.%.%.%.%.%.%.%.%.%.%.%.%.%.o.o. . .%   %.%.%.%.%.%.%.%.%.",
"%.%.%.%.%.%.%.%.%.%.%.%.%.%.%.%.%.%.%.%.%.%.%.%.%.%.%.%.%.%.%.%.%.%.%.%.%.%.%.%.%.%.%.%.%.%.%.%.%.o.o. . .%   %.%.%.%.%.%.%.%.%.",
"%.%.%.%.%.%.%.%.%.x z c j j j k h B C B B V V Z Z M b %.%.%.%.%.%.%.%.%.%.%.%.%.%.%.%.%.%.%.%.%.%.O.| .. .%   %.%.%.%.%.%.%.%.%.",
"%.%.%.%.%.%.%.%.%.x z c j j k k h h h B B V Z V Z M M * %.%.%.%.%.%.%.%.%.%.%.%.%.%.%.%.%.%.%.%.%.+.O... .%   %.%.%.%.%.%.%.%.%.",
"%.%.%.%.%.%.%.%.%.x c c j j j h h h h B B B N N Z M M *   %.%.%.%.%.%.%.%.%.%.%.%.%.%.%.%.%.%.%.%.O..... .%   %.%.%.%.%.%.%.%.%.",
"%.%.%.%.%.%.%.%.%.x z j j j h j h B C B V N N N M M M *   %.%.%.%.%.%.%.%.%.%.%.%.%.%.%.%.%.%.%.%.| O... .%   %.%.%.%.%.%.%.%.%.",
"%.%.%.%.%.%.%.%.%.x z c c j j h h h B B B V Z N Z M b *   %.%.%.%.%.%.%.%.%.%.%.%.%.%.%.%.%.%.%.%.O.| .. .$   %.%.%.%.%.%.%.%.%.",
"%.%.%.%.%.%.%.%.%.x z c j j j k h B h B N V V Z Z M M *   %.%.%.%.%.%.%.%.%.%.%.%.%.%.%.%.%.%.%.%.O.| ....%   %.%.%.%.%.%.%.%.%.",
"%.%.%.%.%.%.%.%.%.x z c j j k h h h h B B V V V Z Z b *   %.%.%.%.%.%.%.%.%.%.%.%.%.%.%.%.%.%.%.%.| O.....%   %.%.%.%.%.%.%.%.%.",
"%.%.%.%.%.%.%.%.%.x z c j j j k h B h B B V V Z Z Z M b b b g d d d p p u u u t t 0 0 0 $.+.$.+.o.O.......%   %.%.%.%.%.%.%.%.%.",
"%.%.%.%.%.%.%.%.%.x z c j j k k h C h B C N N N Z Z Z g g g d d s s p p u u u t q 0 0 0 $.+.+.+.+.O.| ....%   %.%.%.%.%.%.%.%.%.",
"%.%.%.%.%.%.%.%.%.x z c j j j k h h C B C N N N M g n d n n d d s s p p u u u t q 0 0 0 $.$.+.+.O.O.| ....O   %.%.%.%.%.%.%.%.%.",
"%.%.%.%.%.%.%.%.%.x c c j j k h h h C B C B N N N M Z 5 4 4 ' ' ] ) ( Q ^ ^ ^ ^ W W P P J J J U T T T Y 3     %.%.%.%.%.%.%.%.%.",
"%.%.%.%.%.%.%.%.%.x c j j j j k h C h B B V N N M M Z .                                                       %.%.%.%.%.%.%.%.%.",
"%.%.%.%.%.%.%.%.%.x z c x j j h h A A B B N N N Z M M *                                                     %.%.%.%.%.%.%.%.%.%.",
"%.%.%.%.%.%.%.%.%.x z c c j k k h A A B C N N Z Z M M *   %.%.%.%.%.%.%.%.%.%.%.%.%.%.%.%.%.%.%.%.%.%.%.%.%.%.%.%.%.%.%.%.%.%.%.",
"%.%.%.%.%.%.%.%.%.x z c j c j h h A h B C V V V Z M M &   %.%.%.%.%.%.%.%.%.%.%.%.%.%.%.%.%.%.%.%.%.%.%.%.%.%.%.%.%.%.%.%.%.%.%.",
"%.%.%.%.%.%.%.%.%.x z c j c k k h A A B C B V Z Z M M *   %.%.%.%.%.%.%.%.%.%.%.%.%.%.%.%.%.%.%.%.%.%.%.%.%.%.%.%.%.%.%.%.%.%.%.",
"%.%.%.%.%.%.%.%.%.x z c j j k k h h h A V V Z V Z M b *   %.%.%.%.%.%.%.%.%.%.%.%.%.%.%.%.%.%.%.%.%.%.%.%.%.%.%.%.%.%.%.%.%.%.%.",
"%.%.%.%.%.%.%.%.%.x z j j j k k h C C C N V V V Z M 5 @   %.%.%.%.%.%.%.%.%.%.%.%.%.%.%.%.%.%.%.%.%.%.%.%.%.%.%.%.%.%.%.%.%.%.%.",
"%.%.%.%.%.%.%.%.%.%.F X 1 1 1 1 X , , , , * , * , *       %.%.%.%.%.%.%.%.%.%.%.%.%.%.%.%.%.%.%.%.%.%.%.%.%.%.%.%.%.%.%.%.%.%.%.",
"%.%.%.%.%.%.%.%.%.%.%.                                    %.%.%.%.%.%.%.%.%.%.%.%.%.%.%.%.%.%.%.%.%.%.%.%.%.%.%.%.%.%.%.%.%.%.%."
};
