/* XPM */
static const char *settings_64[] = {
/* columns rows colors chars-per-pixel */
"64 64 60 1 ",
"  c #68322E",
". c #6D3531",
"X c #713733",
"o c #763A36",
"O c #713F3B",
"+ c #7B3D39",
"@ c #7F3F3B",
"# c #7B4C48",
"$ c #84423E",
"% c #884540",
"& c #8D4843",
"* c #924A46",
"= c #964D48",
"- c #9B504B",
"; c #845855",
": c #A0524E",
"> c #A45550",
", c #A95853",
"< c #AD5A55",
"1 c #B25D58",
"2 c #A0615D",
"3 c #8E6562",
"4 c #976360",
"5 c #97726F",
"6 c #A96762",
"7 c #B76762",
"8 c #BC716D",
"9 c #A17F7C",
"0 c #C07B77",
"q c #BC807D",
"w c #AF8784",
"e c #AA8C89",
"r c #B88C8A",
"t c #B49997",
"y c #BDA5A4",
"u c #C58682",
"i c #C58D8A",
"p c #CA908C",
"a c #CF9A97",
"s c #CFA19E",
"d c #D4A4A1",
"f c #D9AEAC",
"g c #C6B2B1",
"h c #DDB8B6",
"j c #D0BFBE",
"k c #DEC7C6",
"l c #D9CCCB",
"z c #DECECD",
"x c #E2C2C0",
"c c #E7CCCB",
"v c #ECD7D5",
"b c #E3D9D8",
"n c #ECE5E5",
"m c #F1E1E0",
"M c #F1E8E8",
"N c #F5EBEA",
"B c #F6F2F2",
"V c #FAF5F5",
"C c white",
"Z c None",
/* pixels */
"ZZZZZZ1111111111111111111111111111111111111111111111111111ZZZZZZ",
"ZZZZ11111111111111111111111111111111111111111111111111111111ZZZZ",
"ZZZ1111111111111111111111111111111111111111111111111111111111ZZZ",
"ZZ111111111111111111111111111111111111111111111111111111111111ZZ",
"Z11111111111111111111111111111111111111111111111111111111111111Z",
"Z11111111111111111111111111111111111111111111111111111111111111Z",
"1111111111111111111111111111111111111111111111111111111111111111",
"1111111111111111111111111111111111111111111111111111111111111111",
"11111111111111111111117p81111111111118au111111111111111111111111",
"1111111111111111111111vCC61111111111aCCCVx0111111111111111111111",
"11111111111111111111umCCCBs111111110CCCCCCCNp1111111111111111111",
"11111111111111111ucVCCCCCCCVcu11111vCCCCCCCCCq111111111111111111",
"1111111111111111uCCCCCCCCCCCCCi17udCCCCCCCCCCj=11111111111111111",
"1111111111111111NCCCCCCCCCCCCCn=fCCCCCCCCCCCCl =1111111111111111",
"1111111111111110CCCCCCCCCCCCCCC32CCCCCCCCCCCCt  =111111111111111",
"111111111111111aCCCCCCCCCCCCCCCt CCCCCCCCCCCC5   =11111111111111",
"111111111111111fCCCCCCCCCCCCCCCt bCCCCCCCCCCC;    :1111111111111",
"111111111111111fCCCCCCCCCCCCCCCt lCCCCCCCCCCCbO   $1111111111111",
"111111111111111fCCCCCCCCCCCCCCCt nCCCCCCCCCCCCbO;tzvx71111111111",
"111111111111111aCCCCCCCCCCCCCCCt CCCCCCCCCCCCCCCCCCCCm<111111111",
"111111111111111uCCCCCCCCCCCCCCC9 CCCCCCCCCCCCCCCCCCCCCw<11111111",
"111111111111111uCCCCCCCCCCCCCCC3OCCCCCCCCCCCCCCCCCCCCClo<1111111",
"1111111111111117CCCCCCCCCCCCCCC33CCCCCCCCCCCCCCCCCCCCCC3o<111111",
"1111111111111111CCCCCCCCCCCCCCC 5CCCCCCCCCCCCCCCCCCCCCCj o<11111",
"1111111111111111mCCCCCCCCCCCCCB 9CCCCCCCCCCCCCCCCCCCCCCC  o11111",
"111111111111111fVCCCCCCCCCCCCCBjO5jBCCCCCCCCCCCCCCCCCCCC   =1111",
"111111111111111CCCCCCCCCCCCCCCCC3   eBCCCCCCCCCCCCCCCCCg   +1111",
"111111111111111hCCCCCCCCCCCCCCClO    ;BCCCCCCCCCCCCCCCjO    :111",
"111111111111111xCCCCCCCCCCCCCCCl    $ eCCCCCCCCCCCCCB5      @111",
"111111111111118CCCCCCCCCCCCCCCCC3   <% BCCCCCCCCCCCCO        111",
"11111111111111xCCCCCCCCCCCCCCCCCj   o<-kCCCCCCCCCCCC         111",
"11111111111111VCCCCCCCCCCCCCCCCCCO   :1fCCCCCCCCCCCC        $111",
"1111111111111uCCCCCCCCCCCCCCCCCCC9  +<1cCCCCCCCCCCCC5      @<111",
"1111111111111fCCCCCCCCCCCCCCCCCCCg  +11VCCCCCCCCCCCCCl#  .-11111",
"1111111111111cCCCCCCCCCCCCCCCCCCCb   :dCCCCCCCCCCCCCCCC9 <111111",
"1111111111111vCCCCCCCCCCCCCCCCCCCC   4VCCCCCCCCCCCCCCCCC#1111111",
"1111111111111CCCCCCCCCCCCCCCCCCCCC; eBCCCCCCCCCCCCCCCCCC3=111111",
"1111111111111CCCCCCCCCCCCCCCCCCCCC3OCCCCCCCCCCCCCCCCCCCC3 =11111",
"111111111110uCCCCCCCCCCCCCCCCCCCCCe;#tCCCCCCCCCCCCCCCCCBO  =1111",
"1111111111cCCCCCCCCCCCCCCCCCCCCCCCCCj yCCCCCCCCCCCCCCCCg    =111",
"1111111110CCCCCCCCCCCCCCCCCCCCCCCCCCC5OCCCCCCCCCCCCCCCC3     ,11",
"1111111118MCCCCCCCCCCCCCCCCCCCCCCCCCC#3CCCCCCCCCCCCCCCn      :11",
"1111111111vCCCCCCCCCCCCCCCCCCCCCCCCCC tCCCCCCCCCCCCCCC5      :11",
"1111111111vCCCCCCCCCCCCCCCCCCCCCCCCCC tCCCCCCCCb39ylj5      .<11",
"1111111111vCCCCCCCCCCCCCCCCCCCCCCCCCC tCCCCCCCbO            $111",
"1111111111vCCCCCCCCCCCCCCCCCCCCCCCCCC tCCCCCCCO             :111",
"1111111111vCCCCCCCCCCCCCCCCCCCCCCCCCC tCCCCCCC;            X1111",
"1111111111vCCCCCCCCCCCCCCCCCCCCCCCCCC tCCCCCCCe            -1111",
"1111111111vCCCClCCCCCCCCCCCCCCClCCCCC tCCCCCCCl     o:=%+@-11111",
"1111111111vCCCCgCCCCCCCCCCCCCCCgCCCCC tCCCCCCCl    o<11111111111",
"1111111111vCCCCtBCCCCCCCCCCCCCBtCCCCC tCCCCCCCg    <111111111111",
"1111111111vCCCCtjCCCCCCCCCCCCCjtCCCCC tCCCCCCbO    >111111111111",
"1111111111vCCCCteCCCCCCCCCCCCCetCCCCC tCCCCn9      *111111111111",
"1111111111vCCCCt#CCCCCCCCCCCCC#tCCCCC 9CCl3        +111111111111",
"1111111111rtttt3 9ttttttttttt9 3ttttt              +111111111111",
"1111111111<o                                       $111111111111",
"111111111111+                                     o<111111111111",
"1111111111111o      .                     $     X=11111111111111",
"Z111111111111<@     &$             *      1%  +:111111111111111Z",
"Z1111111111111<*&&&&:1*&&&&&&&&&&&=1-&&&&&111111111111111111111Z",
"ZZ111111111111111111111111111111111111111111111111111111111111ZZ",
"ZZZ1111111111111111111111111111111111111111111111111111111111ZZZ",
"ZZZZ11111111111111111111111111111111111111111111111111111111ZZZZ",
"ZZZZZZ1111111111111111111111111111111111111111111111111111ZZZZZZ"
};
