/* XPM */
static const char *stop_24_xpm[] = {
/* columns rows colors chars-per-pixel */
"24 24 13 1 ",
"  c #872D23",
". c #9F372C",
"X c #AB3C31",
"o c #B13F33",
"O c #C3473A",
"+ c #E75648",
"@ c #C39691",
"# c #EDA8A1",
"$ c #F3ABA4",
"% c #E1CBC8",
"& c #F9D5D1",
"* c white",
"= c None",
/* pixels */
"==++++++++++++++++++++==",
"=++++++++++++++++++++++=",
"++++++++++++++++++++++++",
"++++++++++++++++++++++++",
"++++++++++++++++++++++++",
"+++++$&&&&&&&&&&&&#+++++",
"+++++&************%X++++",
"+++++&************% o+++",
"+++++&************% .+++",
"+++++&************% .+++",
"+++++&************% .+++",
"+++++&************% .+++",
"+++++&************% .+++",
"+++++&************% .+++",
"+++++&************% .+++",
"+++++&************% .+++",
"+++++&************% .+++",
"+++++&************% .+++",
"+++++#%%%%%%%%%%%%@ .+++",
"++++++X             .+++",
"+++++++o............O+++",
"++++++++++++++++++++++++",
"=++++++++++++++++++++++=",
"==++++++++++++++++++++=="
};
