/* XPM */
static const char *stop_sign_24[] = {
/* columns rows colors chars-per-pixel */
"24 24 7 1 ",
"  c #58585A",
". c #6C4C4E",
"X c #754649",
"o c #73484B",
"O c #C4161C",
"+ c #813F43",
"@ c None",
/* pixels */
"@@@@@@OOOOOOOOOOO@@@@@@@",
"@@@@@OOOOOOOOOOOOO@@@@@@",
"@@@@OOOOOOOOOOOOOOO@@@@@",
"@@@OOOOOOOOOOOOOOOOO@@@@",
"@@OOOOOOOOOOOOOOOOOOO@@@",
"@OOOOOOOOOOOOOOOOOOOOO@@",
"OOOOOOOOOOOOOOOOOOOOOOO@",
"OOOOOOOOOOOOOOOOOOOOOOOX",
"OOOOOOOOOOOOOOOOOOOOOOOo",
"OOOOOOOOOOOOOOOOOOOOOOOo",
"OOOOOOOOOOOOOOOOOOOOOOOo",
"OOOOOOOOOOOOOOOOOOOOOOOo",
"OOOOOOOOOOOOOOOOOOOOOOOo",
"OOOOOOOOOOOOOOOOOOOOOOOo",
"OOOOOOOOOOOOOOOOOOOOOOOo",
"OOOOOOOOOOOOOOOOOOOOOOOo",
"OOOOOOOOOOOOOOOOOOOOOOO.",
"@OOOOOOOOOOOOOOOOOOOOO+ ",
"@@OOOOOOOOOOOOOOOOOOO+ @",
"@@@OOOOOOOOOOOOOOOOO+ @@",
"@@@@OOOOOOOOOOOOOOO+ @@@",
"@@@@@OOOOOOOOOOOOO+ @@@@",
"@@@@@@OOOOOOOOOOO+ @@@@@",
"@@@@@@@Xoooooooo. @@@@@@"
};
