/* XPM */
static const char *tips_32[] = {
/* columns rows colors chars-per-pixel */
"32 32 31 1 ",
"  c #3D696B",
". c #3B6A6C",
"X c #297577",
"o c #2C7475",
"O c #277778",
"+ c #217A7C",
"@ c #535B5D",
"# c #58585A",
"$ c #426668",
"% c #068C8D",
"& c #0B8889",
"* c #098A8B",
"= c #118586",
"- c #008F90",
"; c #109697",
": c #209D9E",
"> c #30A4A5",
", c #40ABAC",
"< c #50B2B3",
"1 c #60B9BA",
"2 c #70C0C1",
"3 c #80C7C8",
"4 c #8FCECE",
"5 c #9FD5D5",
"6 c #AFDCDC",
"7 c #BFE3E3",
"8 c #CFEAEA",
"9 c #DFF1F1",
"0 c #EFF8F8",
"q c white",
"w c None",
/* pixels */
"wwwwwwwwwww---------wwwwwwwwwwww",
"wwwwwwww---------------wwwwwwwww",
"wwwwwww------,,,,,------wwwwwwww",
"wwwww-----16qqqqqqq61-----wwwwww",
"wwww----<9qqqqqqqqqqq9,----wwwww",
"www----5qqqqqqqqqqqqqqq4---*wwww",
"www---5qqqqq7<;-;<7qqqqq5---Owww",
"ww---5qqqqq1-------2qqqqq4--%www",
"w---<qqqqq2---------2qqqqq,--Xww",
"w---9qqqq7----:,:----9qqqq9--%#w",
"w--1qqqqq1---3qqq1---2qqqqq<--.w",
"---6qqqqq,-->qqqqq>--,qqqqq6--+w",
"---qqqqqq5337qqqqq3--,qqqqq0--=#",
"--,qqqqqqqqqqqqqqq>--,qqqqqq>--#",
"--,qqqqqqqqqqqqqq1---4qqqqqq,--#",
"--,qqqqqqqqqqq4,:---;0qqqqqq,--#",
"--,qqqqqqqqqq8------6qqqqqqq,--#",
"--,qqqqqqqqqq7----;6qqqqqqqq:--#",
"---qqqqqqqqqq7---30qqqqqqqq0--=#",
"---6qqqqqqqqq7---7qqqqqqqqq6--O#",
"w--1qqqqqqqqq07770qqqqqqqqq<-%.#",
"w---9qqqqqqqq93339qqqqqqqq0--*#w",
"w---,qqqqqqqq7---7qqqqqqqq>--o#w",
"ww---4qqqqqqq7---7qqqqqqq4-%*@#w",
"www---5qqqqqq7---7qqqqqq5%--$#ww",
"www----4qqqqqqqqqqqqqqq2---o#www",
"wwww----,9qqqqqqqqqqq9>;--+##www",
"wwwww*----160qqqqq06<--%-o##wwww",
"wwwwwwO%----->,,,>-----*$##wwwww",
"wwwwwwwwX%----------%*o@#wwwwwww",
"wwwwwwwww#.+=-----=O ###wwwwwwww",
"wwwwwwwwwwww#########wwwwwwwwwww"
};
