/* XPM */
static const char *zoom_in_64[] = {
/* columns rows colors chars-per-pixel */
"64 64 69 1 ",
"  c #51583D",
". c #555C40",
"X c #596043",
"o c #5C6346",
"O c #5C6249",
"+ c #606749",
"@ c #60664C",
"# c #646B4C",
"$ c #686F4F",
"% c #676D55",
"& c #6C7352",
"* c #707755",
"= c #737A57",
"- c #73795B",
"; c #777E5A",
": c #727761",
"> c #7B825D",
", c #7F8660",
"< c #7D826E",
"1 c #838A63",
"2 c #868D66",
"3 c #8A9169",
"4 c #8E956C",
"5 c #848973",
"6 c #898E73",
"7 c #888D76",
"8 c #878C7A",
"9 c #8B907D",
"0 c #959C75",
"q c #93997F",
"w c #949A7C",
"e c #989D7F",
"r c #9CA27E",
"t c #929786",
"y c #9FA585",
"u c #9DA192",
"i c #A3A988",
"p c #A8AC9E",
"a c #AAB091",
"s c #ADB19A",
"d c #ACB09E",
"f c #B1B69A",
"g c #B8BDA3",
"h c #B3B6AA",
"j c #B7BAAD",
"k c #BFC3AC",
"l c #BFC2B0",
"z c #BEC0B6",
"x c #C3C6B3",
"c c #C7CAB6",
"v c #CED1BF",
"b c #C9CBC2",
"n c #D1D3C5",
"m c #D5D7C8",
"M c #D4D6CB",
"N c #D4D5CF",
"B c #D8DACE",
"V c #DCDED1",
"C c #DFE1D7",
"Z c #DEE0DB",
"A c #E3E5DA",
"S c #E6E7E1",
"D c #EAEBE3",
"F c #E9EAE7",
"G c #F1F2ED",
"H c #F4F5F3",
"J c #F8F8F6",
"K c white",
"L c None",
/* pixels */
"LLLLLL4444444444444444444444444444444444444444444444444444LLLLLL",
"LLLL44444444444444444444444444444444444444444444444444444444LLLL",
"LLL4444444444444444444444444444444444444444444444444444444444LLL",
"LL444444444444444444444444444444444444444444444444444444444444LL",
"L44444444444444444444444444444444444444444444444444444444444444L",
"L44444444444444444444444444444444444444444444444444444444444444L",
"4444444444444444444444444444444444444444444444444444444444444444",
"4444444444444444444444444444444444444444444444444444444444444444",
"444444444444444444444444444444444aaaaaa4444444444444444444444444",
"44444444444444444444444444444avDKKKKKKKKDvi444444444444444444444",
"444444444444444444444444444gGKKKKKKKKKKKKKKDg4444444444444444444",
"4444444444444444444444444aGKKKKKKKKKKKKKKKKKKAi44444444444444444",
"444444444444444444444444cKKKKKKKKKKKKKKKKKKKKKKk4444444444444444",
"44444444444444444444444mKKKKKKKKKKZNNZKKKKKKKKKKm444444444444444",
"4444444444444444444444mKKKKKKKFh<      <hHKKKKKKKm44444444444444",
"444444444444444444444mKKKKKKHu           OpHKKKKKKl4444444444444",
"44444444444444444444gKKKKKKNO              %ZKKKKKKq444444444444",
"44444444444444444440JKKKKKz                 OzKKKKKF-44444444444",
"4444444444444444444mKKKKKz       OupppOO++X   ZKKKKKp$4444444444",
"444444444444444444rKKKKKZO       bKKKKm34444>$@HKKKKHO$444444444",
"444444444444444444vKKKKK<        NKKKKNo3444443sKKKKKt *44444444",
"444444444444444444GKKKKN        OAKKKKN o3444444SKKKKZ  ,4444444",
"44444444444444444iKKKKK<       $4AKKKKN  o344444gKKKKKO X3444444",
"44444444444444444kKKKKH       $44AKKKKN   o344440KKKKK<  *444444",
"44444444444444444vKKKKb    OupxccJKKKKHppppd04444AKKKKp  .344444",
"44444444444444444AKKKKp    bKKKKKKKKKKKKKKKKC3444vKKKKp   ;44444",
"44444444444444444AKKKKt    NKKKKKKKKKKKKKKKKKo344cKKKKN   o44444",
"44444444444444444AKKKK<    NKKKKKKKKKKKKKKKKK o34cKKKKN    34444",
"44444444444444444AKKKKt    NKKKKKKKKKKKKKKKKK  o3cKKKKb    ,4444",
"44444444444444444mKKKKp    jKKKKKKKKKKKKKKKKh   onKKKKp    *4444",
"44444444444444444cKKKKN    *6<<<<FKKKKF<<<<<     ZKKKKu    *4444",
"44444444444444444aKKKKKO   ;4$   NKKKKN         %KKKKK<    +4444",
"444444444444444444KKKKKt   ,44$  NKKKKN         pKKKKH     +4444",
"444444444444444444VKKKKF   =444$ NKKKKN        OHKKKKb     #4444",
"444444444444444444fKKKKKu  *4444$NKKKKN        pKKKKK8     *4444",
"4444444444444444444GKKKKH% +44444vKKKKh    X1>wKKKKKF      =4444",
"4444444444444444444aKKKKKZO 344444q<<<     +4iJKKKKKt      ,4444",
"4444444444444444444gKKKKKKZO;444444$       OiJKKKKKN      .44444",
"444444444444444444gKKKKKKKKH54444444$      9JKKKKKH%      #44444",
"44444444444444444gKKKKKKKKKKKBy444444$   <NKKKKKKK8       >44444",
"4444444444444444gKKKKKKKKKKKKKKDcar44r7hFKKKKKKKKt       X444444",
"444444444444444gKKKKKKKKKKKKKKKKKKKKKKKKKKKKKKKHt        ;444444",
"44444444444444gKKKKKKKKKKKKKKKKKKKKKKKKKKKKKKKF-        +4444444",
"4444444444444gKKKKKKKKKKKZhHKKKKKKKKKKKKKKKKKpO        .24444444",
"444444444444gKKKKKKKKKKKZO OpFKKKKKKKKKKKKHh%          >44444444",
"44444444444gKKKKKKKKKKKZO     :pNHKKKKKNh8            ;444444444",
"4444444444gKKKKKKKKKKKZO                            .;4444444444",
"444444444iKKKKKKKKKKKZO                            X144444444444",
"444444444GKKKKKKKKKKZO        o&.                 *3444444444444",
"44444444aKKKKKKKKKKZO        o343*X            .&244444444444444",
"44444444cKKKKKKKKKZO        o3444441*+.     +&>44444444444444444",
"44444444gKKKKKKKKZO        o344444444444444444444444444444444444",
"444444440JKKKKKKZO        o3444444444444444444444444444444444444",
"444444444gKKKKKNO        o34444444444444444444444444444444444444",
"4444444444ezNzt         o344444444444444444444444444444444444444",
"44444444444;           o3444444444444444444444444444444444444444",
"444444444444;         o34444444444444444444444444444444444444444",
"4444444444444;       o344444444444444444444444444444444444444444",
"L4444444444444;     +344444444444444444444444444444444444444444L",
"L444444444444441$+$;4444444444444444444444444444444444444444444L",
"LL444444444444444444444444444444444444444444444444444444444444LL",
"LLL4444444444444444444444444444444444444444444444444444444444LLL",
"LLLL44444444444444444444444444444444444444444444444444444444LLLL",
"LLLLLL4444444444444444444444444444444444444444444444444444LLLLLL"
};
