<svg id="Layer_1" data-name="Layer 1" xmlns="http://www.w3.org/2000/svg" xmlns:xlink="http://www.w3.org/1999/xlink" viewBox="0 0 59.3 53.2"><defs><style>.cls-1{fill:#58595b;}.cls-2{fill:url(#Summer_Multicolor);}.cls-3{fill:url(#Summer_Multicolor-2);}.cls-4{fill:url(#Summer_Multicolor-3);}.cls-5{fill:#fff;}</style><linearGradient id="Summer_Multicolor" x1="-814.77" y1="25.45" x2="228.78" y2="25.45" gradientUnits="userSpaceOnUse"><stop offset="0.11" stop-color="#f0c83b"/><stop offset="0.24" stop-color="#f1563c"/><stop offset="0.27" stop-color="#e65352"/><stop offset="0.32" stop-color="#d34f7a"/><stop offset="0.37" stop-color="#c74c92"/><stop offset="0.39" stop-color="#c34b9b"/><stop offset="0.79" stop-color="#00b3c1"/><stop offset="0.81" stop-color="#00b36c"/><stop offset="1" stop-color="#00b3c1"/></linearGradient><linearGradient id="Summer_Multicolor-2" x1="-814.77" y1="43.65" x2="228.78" y2="43.65" xlink:href="#Summer_Multicolor"/><linearGradient id="Summer_Multicolor-3" x1="-814.77" y1="7.75" x2="228.78" y2="7.75" xlink:href="#Summer_Multicolor"/></defs><path class="cls-1" d="M44.19,33V21.48a2,2,0,0,0-.6-1.43l0,0,0,0,0,0,0,0,0,0,0,0,0,0,0,0,0,0,0,0,0,0,0,0,0,0,0,0s0,0,0,0l0,0,0,0,0,0,0,0,0,0,0,0,0,0,0,0,0,0,0,0,0,0,0,0a.08.08,0,0,0,0,0l0,0,0,0a.08.08,0,0,1,0,0l0,0,0,0,0,0,0,0,0,0,0,0,0,0,0,0,0,0,0,0,0,0,0,0,0,0,0,0,0,0,0,0,0,0,0,0,0,0a2,2,0,0,0-1.42-.61H18.62a2,2,0,0,0-2,2V31.21a2,2,0,0,0,.6,1.43l0,0,0,0,0,0,0,0,0,0,0,0,0,0,0,0s0,0,0,0l0,0,0,0,0,0,0,0,0,0s0,0,0,0l0,0,0,0,0,0,0,0,0,0s0,0,0,0l0,0,0,0,0,0,0,0,0,0,0,0a.08.08,0,0,0,0,0l0,0,0,0,0,0,0,0,0,0,0,0,0,0,0,0,0,0,0,0,0,0,0,0,0,0,0,0,0,0,0,0,0,0,0,0,0,0,0,0,0,0,0,0a2,2,0,0,0,1.43.6H42.2A2,2,0,0,0,44.19,33Z"/><path class="cls-1" d="M58.7,38.26l0,0,0,0,0,0,0,0,0,0,0,0,0,0,0,0,0,0,0,0,0,0,0,0,0,0,0,0,0,0,0,0,0,0,0,0,0,0,0,0,0,0s0,0,0,0l0,0,0,0,0,0,0,0,0,0s0,0,0,0l0,0s0,0,0,0l0,0,0,0,0,0,0,0,0,0,0,0,0,0,0,0,0,0,0,0,0,0,0,0,0,0,0,0,0,0,0,0,0,0,0,0,0,0,0,0a2,2,0,0,0-1.42-.61H33.72a2,2,0,0,0-2,2V49.41a2,2,0,0,0,.6,1.42l0,0,0,0,0,0,0,0s0,0,0,0l0,0,0,0,0,0,0,0,0,0,0,0,0,0,0,0,0,0,0,0a.08.08,0,0,0,0,0l0,0,0,0,0,0,0,0,0,0a.08.08,0,0,0,0,0l0,0,0,0,0,0a.08.08,0,0,0,0,0l0,0,0,0,0,0a.08.08,0,0,0,0,0l0,0,0,0,0,0,0,0,0,0,0,0,0,0,0,0,0,0,0,0s0,0,0,0l0,0,0,0,0,0,0,0,0,0,0,0,0,0,0,0,0,0a2,2,0,0,0,1.42.61h21.8a2,2,0,0,0,2-2V39.68A2,2,0,0,0,58.7,38.26Z"/><path class="cls-1" d="M27.57,15.31V3.78A2,2,0,0,0,27,2.36l0,0,0,0,0,0,0,0,0,0,0,0,0,0,0,0,0,0,0,0,0,0,0,0,0,0,0,0s0,0,0,0l0,0,0,0,0,0,0,0,0,0,0,0,0,0,0,0,0,0,0,0,0,0,0,0s0,0,0,0l0,0,0,0,0,0,0,0,0,0,0,0,0,0,0,0a.08.08,0,0,0,0,0l0,0,0,0s0,0,0,0l0,0,0,0,0,0,0,0,0,0,0,0,0,0,0,0,0,0,0,0A2,2,0,0,0,23.78,0H2A2,2,0,0,0,0,2V13.52a2,2,0,0,0,.6,1.42l0,0,0,0,0,0,0,0,0,0,0,0,0,0,0,0,0,0,0,0,0,0,0,0,0,0,0,0,0,0,0,0,0,0,0,0,0,0,0,0,0,0,0,0,0,0,0,0,0,0,0,0,0,0,0,0,0,0,0,0,0,0,0,0,0,0,0,0,0,0,0,0,0,0,0,0,0,0,0,0,0,0,0,0,0,0,0,0,0,0,0,0,0,0,0,0,0,0,0,0a2,2,0,0,0,1.42.6h21.8A2,2,0,0,0,27.57,15.31Z"/><path class="cls-2" d="M40.41,17.69H18.62a2,2,0,0,0-2,2V31.21a2,2,0,0,0,2,2H40.41a2,2,0,0,0,2-2V19.68A2,2,0,0,0,40.41,17.69Z"/><path class="cls-3" d="M55.52,35.89H33.72a2,2,0,0,0-2,2V49.41a2,2,0,0,0,2,2h21.8a2,2,0,0,0,2-2V37.89A2,2,0,0,0,55.52,35.89Z"/><path class="cls-4" d="M23.78,0H2A2,2,0,0,0,0,2V13.52a2,2,0,0,0,2,2H23.78a2,2,0,0,0,2-2V2a2,2,0,0,0-2-2"/><rect class="cls-5" x="2.66" y="2.66" width="20.45" height="10.18"/></svg>