<svg id="Layer_1" data-name="Layer 1" xmlns="http://www.w3.org/2000/svg" xmlns:xlink="http://www.w3.org/1999/xlink" viewBox="0 0 59.62 59.61"><defs><style>.cls-1{fill:#58595b;}.cls-2{fill:url(#Summer_Multicolor);}.cls-3{fill:url(#Summer_Multicolor-2);}.cls-4{fill:url(#Summer_Multicolor-3);}.cls-5{fill:url(#Summer_Multicolor-4);}.cls-6{fill:#fff;}</style><linearGradient id="Summer_Multicolor" x1="44.31" y1="6.76" x2="44.31" y2="6.76" gradientUnits="userSpaceOnUse"><stop offset="0.11" stop-color="#f0c83b"/><stop offset="0.24" stop-color="#f1563c"/><stop offset="0.27" stop-color="#e65352"/><stop offset="0.32" stop-color="#d34f7a"/><stop offset="0.37" stop-color="#c74c92"/><stop offset="0.39" stop-color="#c34b9b"/><stop offset="0.79" stop-color="#00b3c1"/><stop offset="0.81" stop-color="#00b36c"/><stop offset="1" stop-color="#00b3c1"/></linearGradient><linearGradient id="Summer_Multicolor-2" x1="-892.39" y1="44.3" x2="151.16" y2="44.3" xlink:href="#Summer_Multicolor"/><linearGradient id="Summer_Multicolor-3" x1="-892.39" y1="28.91" x2="151.16" y2="28.91" xlink:href="#Summer_Multicolor"/><linearGradient id="Summer_Multicolor-4" x1="2.69" y1="23.49" x2="2.7" y2="23.49" xlink:href="#Summer_Multicolor"/></defs><path class="cls-1" d="M59.21,13a.08.08,0,0,0,0,0l0,0s0,0,0,0l0,0s0,0,0,0l0,0,0,0,0,0,0,0,0,0,0,0,0,0,0,0,0,0,0,0,0,0,0,0,0,0,0,0,0,0,0,0a.08.08,0,0,0,0,0l0,0,0,0,0,0a.08.08,0,0,0,0,0l0,0s0,0,0,0l0,0a.08.08,0,0,0,0,0l0,0,0,0,0,0,0,0,0,0,0,0,0,0,0,0,0,0,0,0s0,0,0,0l0,0,0,0,0,0,0,0,0,0s0,0,0,0l0,0,0,0,0,0a1.33,1.33,0,0,0-1-.41H48.79V3.14a1.33,1.33,0,0,0-.41-1s0,0,0,0l0,0s0,0,0,0l0,0s0,0,0,0l0,0,0,0,0,0,0,0,0,0,0,0,0,0,0,0,0,0,0,0,0,0,0,0,0,0,0,0,0,0,0,0s0,0,0,0l0,0,0,0,0,0,0,0,0,0,0,0,0,0,0,0,0,0,0,0,0,0s0,0,0,0l0,0,0,0,0,0,0,0,0,0,0,0,0,0,0,0,0,0,0,0,0,0,0,0s0,0,0,0l0,0,0,0,0,0a1.37,1.37,0,0,0-1-.41H1.35A1.35,1.35,0,0,0,0,1.34V45.65a1.36,1.36,0,0,0,.41,1l0,0,0,0,0,0,0,0,0,0s0,0,0,0l0,0,0,0,0,0,0,0,0,0,0,0,0,0,0,0,0,0,0,0,0,0,0,0,0,0,0,0,0,0,0,0,0,0,0,0,0,0,0,0,0,0,0,0,0,0,0,0,0,0,0,0,0,0,0,0,0,0,0,0,0,0,0,0,0,0,0,0,0,0,0,0,0,0,0,0,0,0,0,0,0,0,0,0,0,0,0,0a1.34,1.34,0,0,0,1,.42h7.69v7.69a1.33,1.33,0,0,0,.41,1,.08.08,0,0,1,0,0l0,0,0,0,0,0s0,0,0,0l0,0,0,0,0,0,0,0,0,0,0,0,0,0,0,0,0,0,0,0,0,0,0,0,0,0,0,0,0,0,0,0,0,0,0,0s0,0,0,0l0,0,0,0,0,0s0,0,0,0l0,0a.08.08,0,0,1,0,0l0,0s0,0,0,0l0,0,0,0,0,0,0,0,0,0,0,0,0,0,0,0s0,0,0,0l0,0,0,0,0,0,0,0,0,0,0,0,0,0,0,0,0,0a1.37,1.37,0,0,0,1,.41h44.3a1.34,1.34,0,0,0,1.34-1.34V14A1.33,1.33,0,0,0,59.21,13Zm-14.9-2.18V44.31H4.48V4.48H44.31Z"/><polygon class="cls-2" points="44.31 10.83 44.31 2.69 44.31 10.83 44.31 10.83"/><rect class="cls-3" x="2.69" y="44.3" width="8.14"/><path class="cls-4" d="M56.48,10.84H47V1.35A1.35,1.35,0,0,0,45.65,0H1.35A1.35,1.35,0,0,0,0,1.34V45.65A1.35,1.35,0,0,0,1.35,47h9.48v9.49a1.35,1.35,0,0,0,1.35,1.34h44.3a1.35,1.35,0,0,0,1.34-1.34V12.18A1.34,1.34,0,0,0,56.48,10.84Zm-12.17,0h0V44.31H2.69V2.69H44.31Z"/><polygon class="cls-5" points="2.69 44.3 2.69 44.3 2.7 2.69 2.69 44.3"/><rect class="cls-6" x="2.69" y="2.69" width="41.61" height="41.61"/></svg>