<svg id="Layer_1" data-name="Layer 1" xmlns="http://www.w3.org/2000/svg" xmlns:xlink="http://www.w3.org/1999/xlink" viewBox="0 0 59.34 59.34"><defs><style>.cls-1{fill:#58595b;}.cls-2{fill:url(#Summer_Multicolor);}.cls-3{fill:#fff;}</style><linearGradient id="Summer_Multicolor" x1="-442.99" y1="28.77" x2="600.56" y2="28.77" gradientUnits="userSpaceOnUse"><stop offset="0.11" stop-color="#f0c83b"/><stop offset="0.24" stop-color="#f1563c"/><stop offset="0.27" stop-color="#e65352"/><stop offset="0.32" stop-color="#d34f7a"/><stop offset="0.37" stop-color="#c74c92"/><stop offset="0.39" stop-color="#c34b9b"/><stop offset="0.79" stop-color="#00b3c1"/><stop offset="0.81" stop-color="#00b36c"/><stop offset="1" stop-color="#00b3c1"/></linearGradient></defs><path class="cls-1" d="M58.84,2.27l0,0,0,0a.08.08,0,0,0,0,0l0,0,0,0,0,0,0,0,0,0,0,0,0,0,0,0s0,0,0,0l0,0,0,0,0,0,0,0,0,0,0,0,0,0,0,0,0,0,0,0,0,0,0,0,0,0,0,0,0,0,0,0,0,0,0,0,0,0,0,0,0,0,0,0s0,0,0,0l0,0,0,0,0,0,0,0,0,0a.08.08,0,0,1,0,0l0,0,0,0,0,0,0,0,0,0,0,0,0,0,0,0,0,0A1.6,1.6,0,0,0,55.91,0H1.65A1.66,1.66,0,0,0,0,1.65V55.9a1.62,1.62,0,0,0,.5,1.17l0,0,0,0,0,0,0,0,0,0,0,0s0,0,0,0l0,0,0,0,0,0,0,0,0,0,0,0,0,0,0,0,0,0,0,0,0,0,0,0,0,0,0,0s0,0,0,0l0,0,0,0,0,0,0,0,0,0,0,0,0,0,0,0,0,0,0,0,0,0,0,0,0,0,0,0,0,0s0,0,0,0l0,0,0,0,0,0,0,0,0,0,0,0,0,0,0,0,0,0,0,0,0,0,0,0a1.64,1.64,0,0,0,1.18.5H57.69a1.65,1.65,0,0,0,1.65-1.64V3.45A1.62,1.62,0,0,0,58.84,2.27Z"/><path class="cls-2" d="M57.54,55.91V1.65A1.64,1.64,0,0,0,55.91,0H1.65A1.66,1.66,0,0,0,0,1.65V55.9a1.65,1.65,0,0,0,1.64,1.64H55.9m0,0a1.65,1.65,0,0,0,1.64-1.64"/><rect class="cls-3" x="3.3" y="3.29" width="50.96" height="25.63"/></svg>