<svg id="Layer_1" data-name="Layer 1" xmlns="http://www.w3.org/2000/svg" xmlns:xlink="http://www.w3.org/1999/xlink" viewBox="0 0 59.46 59.45"><defs><style>.cls-1{fill:#58595b;}.cls-2{fill:url(#Summer_Multicolor);}</style><linearGradient id="Summer_Multicolor" x1="-154.68" y1="28.83" x2="888.86" y2="28.83" gradientUnits="userSpaceOnUse"><stop offset="0.11" stop-color="#f0c83b"/><stop offset="0.24" stop-color="#f1563c"/><stop offset="0.27" stop-color="#e65352"/><stop offset="0.32" stop-color="#d34f7a"/><stop offset="0.37" stop-color="#c74c92"/><stop offset="0.39" stop-color="#c34b9b"/><stop offset="0.79" stop-color="#00b3c1"/><stop offset="0.81" stop-color="#00b36c"/><stop offset="1" stop-color="#00b3c1"/></linearGradient></defs><path class="cls-1" d="M59,2.27l0,0,0,0,0,0,0,0,0,0,0,0,0,0,0,0,0,0,0,0,0,0,0,0,0,0,0,0,0,0,0,0,0,0,0,0,0,0,0,0,0,0,0,0,0,0,0,0,0,0,0,0,0,0,0,0,0,0,0,0,0,0,0,0,0,0,0,0,0,0,0,0,0,0,0,0,0,0,0,0,0,0,0,0,0,0,0,0,0,0,0,0,0,0,0,0,0,0,0,0A1.64,1.64,0,0,0,56,0H1.66A1.65,1.65,0,0,0,0,1.65V56a1.63,1.63,0,0,0,.51,1.18l0,0,0,0,0,0,0,0,0,0,0,0,0,0,0,0,0,0,0,0,0,0,0,0,0,0,0,0,0,0,0,0,0,0,0,0,0,0a.08.08,0,0,1,0,0l0,0,0,0,0,0a.08.08,0,0,1,0,0l0,0a.08.08,0,0,1,0,0l0,0,0,0,0,0,0,0,0,0,0,0,0,0,0,0,0,0,0,0,0,0,0,0,0,0,0,0,0,0,0,0,0,0,0,0,0,0,0,0,0,0,0,0,0,0,0,0a1.64,1.64,0,0,0,1.19.5H57.8a1.65,1.65,0,0,0,1.65-1.64V3.45A1.64,1.64,0,0,0,59,2.27Z"/><path class="cls-2" d="M57.65,56l0-54.35A1.65,1.65,0,0,0,56,0H1.66A1.65,1.65,0,0,0,0,1.65V56a1.66,1.66,0,0,0,1.65,1.65H56m0-.11a1.64,1.64,0,0,0,1.64-1.64"/></svg>