<svg id="Layer_1" data-name="Layer 1" xmlns="http://www.w3.org/2000/svg" xmlns:xlink="http://www.w3.org/1999/xlink" viewBox="0 0 63.87 55.42"><defs><style>.cls-1{fill:#58595b;}.cls-2{fill:url(#Spectrum_);}.cls-3{fill:#fff;}.cls-4{fill:url(#Spectrum_2);}.cls-5{fill:url(#Spectrum_3);}.cls-6{fill:url(#Spectrum_4);}.cls-7{fill:url(#Spectrum_5);}.cls-8{fill:url(#Spectrum_6);}.cls-9{fill:url(#Spectrum_7);}.cls-10{fill:url(#Spectrum_8);}.cls-11{fill:url(#Spectrum_9);}.cls-12{fill:url(#Spectrum_10);}</style><linearGradient id="Spectrum_" x1="-619.88" y1="26.74" x2="61.12" y2="26.74" gradientUnits="userSpaceOnUse"><stop offset="0" stop-color="#00a8de"/><stop offset="0.2" stop-color="#333391"/><stop offset="0.4" stop-color="#e91388"/><stop offset="0.6" stop-color="#eb2d2e"/><stop offset="0.8" stop-color="#fde92b"/><stop offset="1" stop-color="#009e54"/></linearGradient><linearGradient id="Spectrum_2" x1="-619.88" y1="20.57" x2="61.12" y2="20.57" xlink:href="#Spectrum_"/><linearGradient id="Spectrum_3" x1="-619.88" y1="20.57" x2="61.12" y2="20.57" xlink:href="#Spectrum_"/><linearGradient id="Spectrum_4" x1="-619.88" y1="20.57" x2="61.12" y2="20.57" xlink:href="#Spectrum_"/><linearGradient id="Spectrum_5" x1="-619.88" y1="26.54" x2="61.12" y2="26.54" xlink:href="#Spectrum_"/><linearGradient id="Spectrum_6" x1="-619.88" y1="26.54" x2="61.12" y2="26.54" xlink:href="#Spectrum_"/><linearGradient id="Spectrum_7" x1="-619.88" y1="26.54" x2="61.12" y2="26.54" xlink:href="#Spectrum_"/><linearGradient id="Spectrum_8" x1="-619.88" y1="32.51" x2="61.12" y2="32.51" xlink:href="#Spectrum_"/><linearGradient id="Spectrum_9" x1="-619.88" y1="32.51" x2="61.12" y2="32.51" xlink:href="#Spectrum_"/><linearGradient id="Spectrum_10" x1="-619.88" y1="32.51" x2="61.12" y2="32.51" xlink:href="#Spectrum_"/></defs><path class="cls-1" d="M63.62,33.42l-.06,0h0l-.06,0h0l-.06,0h0l-.06,0h0l-.06,0h0l-.06,0h0l-.06,0h0l-.06,0h0l-.07,0h0l-.06,0h0l-.06,0h0l-.06,0h0l-.06,0h0l-.06,0h0l-.06,0h0l-.06,0h0l-.06,0h0l0,0h0l-.06,0h0l-.06,0h0l-.06,0h0l-.06,0h0l-.05,0h0l-.06,0h0l-.06,0h0l-.06,0h0l-.05,0h0l-.06,0h0l-.06,0h0l-.06,0h0l-.06,0h0l0,0h0l-.06,0h0l-.06,0h0l-.06,0h0l-.06,0h0l-.06,0h0l-.06,0h0l-.06,0h0l-.06,0h0l-.06,0h0l-.06,0h0l-.06,0h0l-.06,0h0l-.06,0h0l-.06,0h0l-.06,0h0l-.06,0h0l-.06,0h0l0,0h0l-3.94-2.29A19.73,19.73,0,0,1,56,28.06a1.7,1.7,0,0,1-.24-.72c-.07-1.12,1.34-2.78,4.19-4.93l3.94-3h-.09l0,0h-.09l0,0H63.7l0,0h-.09l.06,0h-.09l0,0h-.09l0,0h-.09l.05,0h-.09l.06,0h-.09l.05,0h-.09l.05,0H63.4l.05,0h-.09l.06,0h-.09l.05,0h-.09l.05,0h-.09l0,0h-.09l0,0h-.09l.06,0h-.09l0,0H63.1l0,0h-.09l0,0H63l.06,0H63l0,0H63l0,0h-.09l.05,0h-.09l.05,0h-.09l.06,0H62.8l.05,0h-.09l.05,0h-.09l.05,0h-.09l0,0h-.09l.06,0h-.09l0,0h-.09l0,0h-.09l0,0h-.09l.06,0h-.1l.06,0h-.09l0,0h-.09l0,0h-.09l0,0H62.3l.06,0h-.09l0,0h-.09l.05,0h-.09l.05,0h-.09l.06,0h-.09l.05,0h-.09l.05,0H62l.05,0H62l0-.05H62l.06,0h-.09l0,0h-.09l0,0L57,17.59h-.66c-.53,0-1,0-1.38,0a18.77,18.77,0,0,1,1.42-1.92L60.21,11l-.1,0,.06-.07-.1,0,.07-.07L60,11l.06-.08-.1,0,.06-.08-.1,0L60,10.8l-.1,0,.06-.07-.1,0,.07-.08-.1,0,.06-.08-.1,0,.06-.08-.1,0,.06-.07-.1,0,.07-.07-.1,0,.06-.08-.1,0,.06-.08-.1,0,.06-.07-.1,0,.06-.07-.1,0,.07-.08-.1,0,.06-.08-.1,0,.06-.08-.1,0,.06-.07-.1,0,.07-.07-.1,0,.06-.08-.1,0,.06-.08-.1,0,.06-.07-.1,0,.06-.07-.1,0,.07-.08-.1,0,.06-.08-.1,0,.06-.08-.1,0,.06-.07-.1,0,.06-.07-.1,0,.07-.08-.1,0L59,9.81l-.1,0L59,9.78l-.1,0L59,9.74l-.1,0,.07-.08-.1,0,.06-.08-.1,0,.06-.08-.1,0,.06-.07-.1,0,.06-.07-.1,0,.07-.08-.1,0,.06-.08-.1,0,.06-.07-.1,0,.06-.07-.1,0,.07-.07-.1,0,.06-.08-.1,0,.06-.08-.1,0,.06-.07-.1,0,.06-.07-.1,0,.07-.08-.1,0,.06-.08-.1,0,.06-.08-.1,0,.06-.07-5.63,2.13C50.61,12,47.72,13,45.89,13a18.13,18.13,0,0,1,.36-4.57l1.13-6.51L47.32,2l0-.11L47.29,2l0-.12-.06.08,0-.12-.06.08,0-.11-.06.07,0-.11-.06.07,0-.11,0,.08,0-.12-.06.08,0-.11L47,1.7l0-.11L47,1.67l0-.12,0,.07V1.51l-.05.08,0-.12-.06.08,0-.11-.06.07,0-.11-.06.07,0-.11-.05.08,0-.12-.06.08,0-.11-.06.07,0-.11-.06.07,0-.11,0,.08V1.17l0,.08,0-.12-.06.08,0-.11-.06.07,0-.11-.06.07,0-.11,0,.08,0-.12-.06.08,0-.11L46.34,1l0-.11L46.3,1l0-.11L46.26,1l0-.12-.05.08,0-.12-.06.08,0-.11-.06.07,0-.11-.06.07,0-.11-.05.08,0-.12L46,.72l0-.11L46,.68l0-.11L46,.64l0-.11L45.92.6l0-.11,0,.08,0-.12-.06.08,0-.11-.06.07,0-.11-.06.08,0-.12,0,.08V.3l0,.08,0-.12-.06.08,0-.11L45.62.3l0-.11-.06.07,0-.11-.05.08,0-.12-.06.08,0-.11-.06.07,0-.11-.06.07,0-.11-4,5.26c-3.16,4.17-4.93,4.79-5.71,4.79a1.19,1.19,0,0,1-.26-.05,20.54,20.54,0,0,1-.92-2L32.7,3.5v0l0-.07v0l0-.08v0l0-.07v0l0-.07v0l0-.07v0l0-.07v0l0-.07v0l0-.07v0l0-.07v0l0-.07v0l0-.08v0l0-.07v0l0-.07V3l0-.07V3l0-.07V3l0-.08v0l0-.07v0l0-.07v0l0-.07v0l0-.08v0l0-.07v0l0-.07v0l0-.07v0l0-.07v0l0-.08v0l0-.07v0l0-.07v0l0-.07v0l0-.08v0l0-.07v0l0-.07v0l0-.07v0l0-.07v0l0-.08v0l0-.07v0l0-.07v0l0-.07v0l0-.07v0l0-.07v0l0-.07V2l0-.07V2l0-.08V2l0-.08v0l0-.07v0l0-.07v0l0-.07v0l0-.08v0l0-.08v0l0-.07v0l0-.07v0l0-.07L29.6,6.34c-1.23,5-2.92,5-3.48,5-1.08,0-3.08-.7-6.45-4L14,1.66l3.07,7.4c2.17,5.2,1.89,6.53,1.67,6.86-.11.16-.55.34-1.46.34a31.65,31.65,0,0,1-7.21-1.37L2.34,12.8l.05,0h0l.05,0h0l.05,0h0l.06,0h0l.06,0h0l.05,0h0l.05,0h0l.06,0h0l.06,0h0l.06,0h0l0,.05h0l.05,0h0l.06,0h0l.06,0h0l0,.05h0l0,.05H3l0,0H3l.06,0H3l.06,0h0l0,.05h0l0,0h0l.06,0h0l.06,0h0l0,.05h0l0,0h0l0,0h0l.06,0h0l.06,0h0l.05.05h0l.05,0h0l.06,0h0l.06,0h0l.05.05h0l.05,0h0l.06,0h0l.06,0h0l.06,0h0l0,.05h0l.05,0h0l.06,0h0l.06,0h0l0,.05h0l0,0H4l0,0H4l.06,0H4l0,0h0l0,.05h0l0,0h0l0,0h0l.06,0h0l0,0h0l6.31,4.9c.58.45,1.05.84,1.46,1.2a2.39,2.39,0,0,1,.31.51c-.36.29-1.69.87-6.48,1.4L0,23.38l.08,0H0l.07,0h0l.07,0h0l.08,0h0l.08,0h0l.07,0h0l.07,0h0l.08,0h0l.08,0h0l.08,0h0l.07,0h0l.07,0h0l.08,0h0l.08,0h0l.07,0h0l.07,0h0l.07,0h0l.08,0h0l.07,0h0l.07,0h0l.07,0h0l.08,0h0l.08,0h0l.07,0h0l.07,0h0l.08,0H1l.08,0H1l.08,0h0l.07,0h0l.07,0h0l.08,0h0l.08,0h0l.07,0h0l.07,0h0l.08,0h0l.08,0h0l.08,0h0l.07,0h0l.07,0h0l.08,0h0l.08,0h0l.08,0h0l.07,0h0l.07,0h0l.08,0h0l.08,0h0l.07,0h0l.07,0h0l.07,0h0l.08,0h0l.08,0h0l5.38,2.42a24.61,24.61,0,0,1,3.58,1.89,1.21,1.21,0,0,1,.07.29c.08.78-.66,2.33-4.7,5.31L1.88,38.44H2l-.05,0H2L2,38.52h.1l-.06,0h.1l-.06,0h.1l-.06,0h.09l-.06.05h.1l-.06.05h.1l-.06,0h.1l-.06,0h.1l-.07,0h.1l-.06,0h.1l-.06,0h.1l-.06,0h.1l-.06,0H2.5l-.06,0h.1l-.06,0h.1l-.06,0h.1l-.06,0h.09l-.06,0h.1l-.06.05h.1l-.06,0h.1l-.06,0h.1l-.06,0h.09l-.06.05h.1l-.06,0h.1l-.06,0H3l-.06,0H3l-.06,0H3l-.06,0h.1l-.06,0h.1l-.06,0h.1l-.06,0h.09l-.06,0h.1l-.06,0h.1l-.06,0h.1l-.06,0h.09l-.05,0h.09l-.06.05h.1l-.06,0h.1l-.06,0h.1l-.06,0h.09L3.46,40h.1l-.06,0h.1l-.06,0h.1l-.06,0h.09l0,0h.09l-.06,0h.1l-.06,0h.1l-.06,0h.1l-.06,0h.09l-.06,0L9.23,40C10.2,40,11,40,11.77,40a14.84,14.84,0,0,1,3,.25,11.78,11.78,0,0,1-1.22,4.29l-2.17,5,.08,0,0,.09.07,0,0,.09.08,0,0,.09.08-.05,0,.09.08-.05,0,.08.07,0,0,.09.07-.05,0,.09.08-.05,0,.09.08-.05,0,.08.08-.05,0,.09.07-.05,0,.09.07,0,0,.09.08,0,0,.09.08,0,0,.08L12,50l0,.09L12,50l0,.09L12,50l0,.09.08,0,0,.09.08-.06,0,.09.07,0,0,.09.08,0,0,.09.08-.05,0,.09.08-.06,0,.09.08-.05,0,.09.07-.05,0,.09.08-.05,0,.09.08-.05,0,.09.08-.06,0,.09.08-.05,0,.09.07,0,0,.09.08,0,0,.09.08,0,0,.08.08,0,0,.09.07,0,0,.09.08,0,0,.09.08,0,0,.09.08-.05,0,.08.07,0,0,.09.07,0,0,.09.08-.05,0,.09.08-.05,0,.08L13,51l0,.09L13,51l0,.09.07-.05,0,.09.08,0,0,.09.08-.06,0,.09.07-.05,0,.09.07,0,0,.09.08,0,0,.09.08,0,0,.08.08,0,0,.09,4.53-3c2.92-1.94,5.81-3.73,7.5-4a23.73,23.73,0,0,1,.7,4.12l.51,4.94,0-.05v.09l0-.05v.08l0-.05v.09l0-.05v.09l0,0v.09l0,0v.08l0,0v.08l0,0v.09l0,0v.09l0,0v.09l0,0v.08l0,0v.09l0,0V54l0,0V54l0-.05v.08l0,0v.09l0-.05v.09l0-.05v.09l0-.05v.09l0-.05v.08l0-.05v.09l0-.05v.09l0,0v.09l0,0v.09l0,0v.08l0,0v.09l0,0v.09l0,0v.09l0,0v.09l0-.05v.08l0,0v.09l0,0v.09l0-.05v.09l0-.05v.08l0-.05v.09l0-.05v.09l0-.05v.09l0,0v.08l0-.05V55l0-.05V55l0,0V55l0,0v.09l0,0v.08l0,0v.09l0,0v.09l0,0v.09l0,0v.08l0,0v.09l0,0v.09l0-.05v.09l0-.05v.09l2.48-4.3c3.77-6.53,6.45-7.87,9.32-7.87,2.69,0,6.09,1.26,10.39,3.14l3.9,1.72-1.8-3.87c-1.66-3.56-2.12-5.81-1.43-7.1s3.15-2.29,7.84-3l4.49-.68-.06,0Z"/><path class="cls-2" d="M53.81,25.41c-.07-1.12,1.35-2.78,4.2-4.93l3.93-3L57,17.59h-.66c-3,0-3.77-.39-4-.53,0-.22.21-1.11,2.06-3.36l3.82-4.65-5.63,2.13C50.58,12,47.62,13,45.8,13c-1,0-1.26-.31-1.36-.42-.45-.53-.83-2-.12-6.09L45.45,0l-4,5.26c-3.16,4.17-4.93,4.79-5.71,4.79-1.31,0-2.35-2.11-3.11-3.94L30.77,1.57,29.6,6.34c-1.23,5-2.92,5-3.48,5-1.08,0-3.08-.7-6.45-4L14,1.66l3.07,7.4c2.17,5.2,1.89,6.53,1.67,6.86-.11.16-.55.34-1.46.34a31.65,31.65,0,0,1-7.21-1.37L2.34,12.8l6.31,4.91C11.6,20,12.22,21,12.35,21.34c-.36.29-1.69.87-6.48,1.4L0,23.38,5.39,25.8c4.45,2,5.49,3.34,5.57,4.11s-.66,2.33-4.7,5.31L1.88,38.44l5.42-.33c1-.06,1.8-.08,2.54-.08,2.64,0,4.21.36,4.69,1.09.3.46.57,1.77-1,5.37l-2.17,5,4.53-3c3.14-2.08,6.27-4,7.88-4,.49,0,1.63,0,2.25,6.09l.51,4.94L29,49.19c3.77-6.53,6.45-7.86,9.32-7.86,2.69,0,6.1,1.25,10.39,3.13l3.91,1.72-1.81-3.86c-1.66-3.56-2.11-5.82-1.43-7.1s3.15-2.3,7.84-3l4.5-.68-3.94-2.29C55.21,27.73,53.87,26.44,53.81,25.41Z"/><path class="cls-3" d="M28.39,47.62c-1-9.62-3.58-9.26-12.62-3.26,3.36-7.71.44-9.12-7.79-8.62,7.41-5.46,7.25-8.4-1.17-12.18,9-1,10.57-2.48,3.6-7.89,10.77,2.91,13,1.89,8.9-8C27.84,16.13,30.68,11,31.93,6c1.69,4.1,4.46,8.89,11.58-.49C41.87,14.85,45,15.32,54,11.92c-4.31,5.24-2.8,6.62,3.82,6.51-6.21,4.69-6.66,7.57-.05,11.42-9.34,1.42-11.62,3.81-7.62,12.37C39,37.33,34.51,37,28.39,47.62Z"/><rect class="cls-4" x="36.34" y="18.09" width="4.97" height="4.97"/><rect class="cls-5" x="30.38" y="18.09" width="4.97" height="4.97"/><rect class="cls-6" x="24.41" y="18.09" width="4.97" height="4.97"/><rect class="cls-7" x="36.34" y="24.06" width="4.97" height="4.97"/><rect class="cls-8" x="30.38" y="24.06" width="4.97" height="4.97"/><rect class="cls-9" x="24.41" y="24.06" width="4.97" height="4.97"/><rect class="cls-10" x="36.34" y="30.02" width="4.97" height="4.97"/><rect class="cls-11" x="30.38" y="30.02" width="4.97" height="4.97"/><rect class="cls-12" x="24.41" y="30.02" width="4.97" height="4.97"/></svg>