<svg id="Layer_1" data-name="Layer 1" xmlns="http://www.w3.org/2000/svg" xmlns:xlink="http://www.w3.org/1999/xlink" viewBox="0 0 63.27 63.7"><defs><style>.cls-1{fill:#58595b;}.cls-2{fill:#01a64f;}.cls-3{fill:#fff;}.cls-4{fill:#ec2127;}.cls-5{fill:url(#Spectrum_);}.cls-6{fill:#0a72ba;}.cls-7{fill:url(#Spectrum_2);}.cls-8{fill:url(#Spectrum_3);}</style><linearGradient id="Spectrum_" x1="-81.46" y1="33.16" x2="601.87" y2="33.16" gradientUnits="userSpaceOnUse"><stop offset="0" stop-color="#00a8de"/><stop offset="0.2" stop-color="#333391"/><stop offset="0.4" stop-color="#e91388"/><stop offset="0.6" stop-color="#eb2d2e"/><stop offset="0.8" stop-color="#fde92b"/><stop offset="1" stop-color="#009e54"/></linearGradient><linearGradient id="Spectrum_2" x1="-81.46" y1="33.16" x2="601.87" y2="33.16" xlink:href="#Spectrum_"/><linearGradient id="Spectrum_3" x1="-81.46" y1="33.16" x2="601.87" y2="33.16" xlink:href="#Spectrum_"/></defs><path class="cls-1" d="M40.29,14.2a.25.25,0,0,0,0-.07v0s0,0,0-.08v0l0-.08h0l-5-10.4a1.4,1.4,0,0,0-.1-.16L35,3.24a3.2,3.2,0,0,0-.43-.47l0,0,0,0,0,0,0,0-.05,0,0,0,0,0,0,0,0,0,0,0-.05,0,0,0,0,0,0,0,0,0s0,0,0,0l-.05,0,0,0,0,0,0,0,0,0s0,0,0,0l-.05,0,0-.05,0,0,0,0,0,0,0,0-.05,0a.08.08,0,0,0,0,0l0-.05,0,0,0,0,0,0s0,0,0,0l0,0,0-.05,0,0,0,0,0,0s0,0,0,0l0,0,0-.05,0,0,0,0,0,0s0,0,0,0l0,0a3,3,0,0,0-.36-.26A3,3,0,0,0,30.57,0a3,3,0,0,0-2.44,1.23.83.83,0,0,0-.09.16l-5,10.4h0a.11.11,0,0,1,0,.07v0A.12.12,0,0,0,23,12l0,0a.17.17,0,0,1,0,.07v0s0,.08,0,.11V57.14a4.4,4.4,0,0,0,1.33,3.15l0,.05s0,0,0,0l0,0,0,.05s0,0,0,0,0,0,0,0,0,0,0,0l0,.05s0,0,0,0,0,0,0,0l.05,0a.08.08,0,0,0,0,0l0,0,0,.05,0,0L25,61,25,61l0,0,0,0,0,.05a.08.08,0,0,1,0,0s0,0,0,0l.05,0,0,0a.08.08,0,0,0,0,0l0,.05s0,0,0,0l0,0,0,0,.05,0a.08.08,0,0,0,0,0l0,0,0,.05a.08.08,0,0,1,0,0,.08.08,0,0,1,0,0l.05,0a.08.08,0,0,0,0,0l0,0,0,.05a.08.08,0,0,1,0,0l0,0,.05,0a.08.08,0,0,0,0,0l0,0,0,.05s0,0,0,0a.08.08,0,0,1,0,0l.05,0,0,0a.08.08,0,0,0,0,0,4.4,4.4,0,0,0,3.15,1.33h6.33a4.44,4.44,0,0,0,4.44-4.44V14.34s0-.08,0-.11Z"/><path class="cls-1" d="M17.31,14.2s0,0,0-.07v0l0-.08v0s0-.05,0-.08h0l-5-10.4-.1-.16a1.36,1.36,0,0,0-.12-.12,2.59,2.59,0,0,0-.41-.46.08.08,0,0,1,0,0,.08.08,0,0,1,0,0l-.05,0,0,0s0,0,0,0l0,0a.08.08,0,0,1,0,0,.08.08,0,0,1,0,0l-.05,0,0,0s0,0,0,0l0,0,0,0a.08.08,0,0,1,0,0l-.05,0,0,0s0,0,0,0l0,0,0,0a.08.08,0,0,1,0,0s0,0,0,0l0,0s0,0,0,0,0,0,0,0l0-.05,0,0,0,0,0,0,0,0s0,0,0,0l0-.05,0,0,0,0,0,0-.05,0s0,0,0,0l0,0,0-.05-.05,0,0,0-.05,0s0,0,0,0l0,0,0-.05L9.76.9l0,0-.05,0,0,0L9.56.71A3,3,0,0,0,7.61,0,3,3,0,0,0,5.16,1.23a.86.86,0,0,0-.1.16l-5,10.4h0s0,0,0,.07v0A.22.22,0,0,0,0,12v0a.19.19,0,0,0,0,.07v0a.41.41,0,0,0,0,.11V57.14a4.43,4.43,0,0,0,1.32,3.15l.05.05,0,0,0,0,0,.05s0,0,0,0l0,0,.05,0,0,.05,0,0s0,0,0,0l0,0,0,0,0,0,0,.05,0,0L2,61l0,0,0,0,0,0,.05.05,0,0,0,0,0,0,0,0,0,0,.05.05,0,0,0,0,0,0,0,0,0,0,.05,0,0,.05,0,0,0,0,0,0,0,0,0,0,.05.05,0,0,0,0,0,0s0,0,0,0l0,0,.05.05,0,0,0,0,0,0,0,0,0,0A4.44,4.44,0,0,0,6.56,63.7h6.33a4.44,4.44,0,0,0,4.44-4.44V14.34s0-.08,0-.11Z"/><path class="cls-1" d="M63.27,14.23v0a.2.2,0,0,0,0-.07v0s0,0,0-.08v0l0-.08h0l-5-10.4-.1-.16S58,3.28,58,3.24a3.13,3.13,0,0,0-.42-.47l0,0,0,0,0,0a.08.08,0,0,0,0,0l0,0,0,0,0,0,0,0,0,0a.08.08,0,0,0,0,0l0,0,0,0,0,0,0,0,0,0,0,0,0,0,0,0,0,0,0,0,0,0,0,0,0,0,0-.05a.08.08,0,0,1,0,0l0,0,0,0,0,0,0,0,0,0,0-.05,0,0,0,0,0,0,0,0,0,0,0-.05,0,0,0,0,0,0,0,0,0,0,0-.05,0,0,0,0,0,0,0,0,0,0a2.45,2.45,0,0,0-.37-.26A3,3,0,0,0,53.55,0a3,3,0,0,0-2.44,1.23.86.86,0,0,0-.1.16l-5,10.4h0l0,.07v0A.24.24,0,0,1,46,12v0a.19.19,0,0,0,0,.07V57.14a4.43,4.43,0,0,0,1.32,3.15l0,.05a.08.08,0,0,1,0,0l0,0,0,.05,0,0,0,0,0,0,0,.05a.08.08,0,0,1,0,0l0,0,0,0,0,0s0,0,0,0l0,.05,0,0,0,.05,0,0,0,0s0,0,0,0l0,.05a.08.08,0,0,1,0,0,.08.08,0,0,1,0,0l0,0,0,0s0,0,0,0l0,.05,0,0,0,0,0,0,0,0,0,0,0,0,0,.05,0,0,0,0,.05,0s0,0,0,0,0,0,0,0l0,.05,0,0,0,0L49,62s0,0,0,0l0,0,0,.05,0,0,0,0,.05,0,0,0,0,0a4.42,4.42,0,0,0,3.16,1.33h6.33a4.43,4.43,0,0,0,4.43-4.44v-45Z"/><path class="cls-2" d="M36.18,17.15H25V13.21h11.2Zm0,26.49H25v-21h11.2Zm0,9.45H25V49.16h11.2Zm0,4a2.44,2.44,0,0,1-2.44,2.44H27.41A2.44,2.44,0,0,1,25,57.14v-2H36.18ZM29.79,2.36a1,1,0,0,1,1.57,0l4.23,8.86h-10Zm8.38,9.75v0s0-.05,0-.07v0a.12.12,0,0,0,0-.08v0s0,0,0-.07h0l-5-10.4a.86.86,0,0,0-.1-.16,3,3,0,0,0-4.89,0,.83.83,0,0,0-.09.16l-5,10.4h0a.11.11,0,0,1,0,.07v0A.12.12,0,0,0,23,12l0,0a.17.17,0,0,1,0,.07v0s0,.08,0,.11V57.14a4.44,4.44,0,0,0,4.44,4.43h6.33a4.44,4.44,0,0,0,4.44-4.43V12.22s0-.08,0-.11"/><path class="cls-3" d="M29.79,2.36a1,1,0,0,1,.8-.36,1,1,0,0,1,.78.36l4.23,8.86h-10Z"/><rect class="cls-3" x="24.98" y="13.21" width="11.21" height="3.94"/><rect class="cls-3" x="24.98" y="49.16" width="11.21" height="3.93"/><path class="cls-3" d="M36.18,57.14a2.44,2.44,0,0,1-2.44,2.44H27.42A2.45,2.45,0,0,1,25,57.14v-2H36.18Z"/><rect class="cls-3" x="24.98" y="22.68" width="11.21" height="20.96"/><path class="cls-4" d="M13.21,17.15H2V13.21H13.21Zm0,26.49H2v-21H13.21Zm0,9.45H2V49.16H13.21Zm0,4a2.45,2.45,0,0,1-2.45,2.44H4.44A2.45,2.45,0,0,1,2,57.14v-2H13.21ZM6.81,2.36A1,1,0,0,1,7.61,2a1,1,0,0,1,.78.36l4.24,8.86h-10Zm8.39,9.75v0s0-.05,0-.07v0l0-.08v0a.1.1,0,0,1,0-.07h0l-5-10.4c0-.06-.07-.11-.1-.16a3,3,0,0,0-4.89,0,.86.86,0,0,0-.1.16l-5,10.4h0s0,0,0,.07v0A.22.22,0,0,0,0,12v0a.19.19,0,0,0,0,.07v0a.41.41,0,0,0,0,.11V57.14a4.44,4.44,0,0,0,4.44,4.43h6.32a4.45,4.45,0,0,0,4.45-4.43V12.22s0-.08,0-.11"/><path class="cls-5" d="M30.58,26.58c1.63,0,3,2.94,3,6.58s-1.32,6.58-3,6.58-2.95-3-2.95-6.58,1.32-6.58,2.95-6.58"/><path class="cls-6" d="M59.16,17.15H48V13.21H59.16Zm0,26.49H48v-21H59.16Zm0,9.45H48V49.16H59.16Zm0,4a2.45,2.45,0,0,1-2.45,2.44H50.39A2.44,2.44,0,0,1,48,57.14v-2H59.16ZM52.76,2.36A1,1,0,0,1,53.55,2a1,1,0,0,1,.79.36l4.23,8.86h-10Zm8.38,9.75v0s0-.05,0-.07v0s0-.05,0-.08v0l0-.07h0l-5-10.4L56,1.23a3,3,0,0,0-4.89,0,.86.86,0,0,0-.1.16l-5,10.4h0l0,.07v0A.24.24,0,0,1,46,12v0a.19.19,0,0,0,0,.07V57.14a4.44,4.44,0,0,0,4.44,4.43h6.32a4.44,4.44,0,0,0,4.44-4.43V12.22a.41.41,0,0,0,0-.11"/><path class="cls-3" d="M6.81,2.36A1,1,0,0,1,7.61,2a1,1,0,0,1,.78.36l4.24,8.86h-10Z"/><rect class="cls-3" x="2" y="13.21" width="11.21" height="3.94"/><rect class="cls-3" x="2" y="49.16" width="11.21" height="3.93"/><path class="cls-3" d="M13.21,57.14a2.45,2.45,0,0,1-2.45,2.44H4.44A2.45,2.45,0,0,1,2,57.14v-2H13.21Z"/><rect class="cls-3" x="2" y="22.68" width="11.21" height="20.96"/><path class="cls-7" d="M7.61,26.58c1.62,0,2.94,2.94,2.94,6.58s-1.32,6.58-2.94,6.58-3-3-3-6.58,1.32-6.58,3-6.58"/><path class="cls-3" d="M52.76,2.36a1,1,0,0,1,.8-.36,1,1,0,0,1,.78.36l4.24,8.86h-10Z"/><rect class="cls-3" x="47.95" y="13.21" width="11.21" height="3.94"/><rect class="cls-3" x="47.95" y="49.16" width="11.21" height="3.93"/><path class="cls-3" d="M59.16,57.14a2.44,2.44,0,0,1-2.44,2.44H50.39a2.45,2.45,0,0,1-2.45-2.44v-2H59.16Z"/><rect class="cls-3" x="47.95" y="22.68" width="11.21" height="20.96"/><path class="cls-8" d="M53.55,26.58c1.63,0,3,2.94,3,6.58s-1.32,6.58-3,6.58-2.95-3-2.95-6.58,1.32-6.58,2.95-6.58"/><path d="M46.29,35.93a.61.61,0,0,0,0-.12s0,.06,0,.09Z"/></svg>