<svg xmlns="http://www.w3.org/2000/svg" viewBox="0 0 64.22 64.22"><defs><style>.cls-1{isolation:isolate;}.cls-2{fill:#549494;}.cls-3{mix-blend-mode:darken;opacity:0.5;}.cls-4{fill:#fff;}</style></defs><g class="cls-1"><g id="Layer_1" data-name="Layer 1"><rect class="cls-2" width="64.22" height="64.22" rx="10.03"/><path class="cls-3" d="M56.61,26.32l-.1-.1-.09-.1-.11-.1-.09-.09-.1-.1a.94.94,0,0,0-.1-.1l-.1-.1-.09-.1-.1-.1-.1-.09-.1-.1-.1-.1-.1-.1-.09-.1-.1-.09-.1-.11-.1-.09-.1-.1-.1-.1-.09-.1-.11-.1-.09-.09-.1-.1-.1-.1-.1-.1a.94.94,0,0,0-.1-.1L54,23.67a.94.94,0,0,0-.1-.1l-.1-.1-.1-.1a.47.47,0,0,0-.1-.1.94.94,0,0,0-.1-.1l-.1-.1L53.27,23l-.1-.1-.1-.1a.94.94,0,0,0-.1-.1l-.09-.1-.11-.1-.09-.09-.1-.1-.1-.1a.94.94,0,0,0-.1-.1l-.1-.1-.09-.1a.47.47,0,0,1-.1-.1L52,21.7l-.1-.1a.94.94,0,0,0-.1-.1l-.1-.1c-.8-.93-2.18-1-3.74-.16l-7.89,4.53,0,0-.1-.09-.1-.1a.47.47,0,0,0-.1-.1l-.09-.1-.1-.1-.1-.1a.94.94,0,0,1-.1-.1l-.1-.09a7961314590657.55,7961314590657.55,0,0,1-.2-.2l-.09-.1-.1-.1-.1-.1-.1-.09a2653771530219,2653771530219,0,0,1-.2-.2l-.1-.1-.09-.1-.1-.09-.1-.11-.1-.09a.47.47,0,0,0-.1-.1l-.09-.1a.47.47,0,0,1-.1-.1l-.1-.1-.1-.1-.1-.09a.47.47,0,0,0-.1-.1l-.09-.1-.1-.1-.1-.1-.1-.09-.1-.11-.1-.09-.09-.1-.11-.1a.76.76,0,0,0-.09-.09l-.1-.11-.1-.09a.47.47,0,0,0-.1-.1L36,21.7a.47.47,0,0,1-.1-.1l-.1-.1-.1-.09c-.81-.93-2.18-1.06-3.74-.17l-8.79,5a4.77,4.77,0,0,0-1-1.37l-.1-.09-.1-.1-.1-.1a.94.94,0,0,0-.1-.1l-.09-.1a.47.47,0,0,1-.1-.1l-.1-.09-.1-.1a.94.94,0,0,0-.1-.1.94.94,0,0,0-.1-.1l-.09-.1a.47.47,0,0,1-.1-.1l-.1-.09-.1-.1a7961314590657.11,7961314590657.11,0,0,1-.2-.2l-.1-.1-.1-.1L20.35,23l-.1-.1a.94.94,0,0,0-.1-.1.47.47,0,0,0-.1-.1l-.1-.1-.09-.1-.1-.09-.1-.1a.94.94,0,0,0-.1-.1.47.47,0,0,0-.1-.1.94.94,0,0,0-.1-.1l-.09-.1-.1-.09-.1-.11-.1-.09a.47.47,0,0,0-.1-.1.94.94,0,0,0-.1-.1l-.1-.1-.09-.1-.1-.09a.94.94,0,0,0-.1-.1.47.47,0,0,0-.1-.1,7961314590657.11,7961314590657.11,0,0,1-.2-.2l-.09-.1-.1-.09-.1-.1a.94.94,0,0,0-.1-.1.47.47,0,0,0-.1-.1l-.09-.1a.47.47,0,0,1-.1-.1.47.47,0,0,1-.1-.1,2.8,2.8,0,0,0-2-.94c-1.95,0-3.52,2.33-3.52,5.19V40a6.07,6.07,0,0,0,1.6,4.34l.1.11.1.09.1.1.09.1.1.1.1.09.1.1a.47.47,0,0,0,.1.1l.1.1.09.1.1.1a.47.47,0,0,1,.1.1l.1.09.1.1.1.1.09.1.1.1.1.1.1.09a3980657295328.62,3980657295328.62,0,0,1,.2.2l.1.1.09.1a.47.47,0,0,1,.1.1l.1.09.1.1.1.1.1.1.1.1.09.1.1.1.1.09a.47.47,0,0,0,.1.1l.1.1.09.1a3980657295328.93,3980657295328.93,0,0,0,.2.2l.1.09.1.1.1.1.09.1.1.1.1.09a9951643238315.68,9951643238315.68,0,0,1,.2.2l.1.1L18,49l.1.1.1.09.1.11a2.82,2.82,0,0,0,2,.94c1.93,0,3.51-2.32,3.51-5.19V40.45L37,48c2.48,1.42,4.5.26,4.5-2.62v-4L53,48c2.49,1.42,4.5.26,4.5-2.62V28.87A3.54,3.54,0,0,0,56.61,26.32Z"/><path class="cls-4" d="M48,21.24,36.46,27.83v-4c0-2.87-2-4-4.5-2.62L18.8,28.78V24.23c0-2.86-1.57-5.19-3.51-5.19s-3.52,2.33-3.52,5.19V40c0,2.87,1.57,5.19,3.52,5.19S18.8,42.86,18.8,40V35.44L32,43c2.48,1.42,4.5.25,4.5-2.62v-4L48,43c2.49,1.42,4.5.25,4.5-2.62V23.86C52.45,21,50.44,19.82,48,21.24Z"/></g></g></svg>