<svg id="Layer_1" data-name="Layer 1" xmlns="http://www.w3.org/2000/svg" xmlns:xlink="http://www.w3.org/1999/xlink" viewBox="0 0 53.67 64.31"><defs><style>.cls-1{fill:#58595b;}.cls-2{fill:#fff;}.cls-3{fill:url(#Spectrum_);}.cls-4{fill:url(#Spectrum_2);}</style><linearGradient id="Spectrum_" x1="-351.38" y1="40.78" x2="329.62" y2="40.78" gradientUnits="userSpaceOnUse"><stop offset="0" stop-color="#00a8de"/><stop offset="0.2" stop-color="#333391"/><stop offset="0.4" stop-color="#e91388"/><stop offset="0.6" stop-color="#eb2d2e"/><stop offset="0.8" stop-color="#fde92b"/><stop offset="1" stop-color="#009e54"/></linearGradient><linearGradient id="Spectrum_2" x1="-351.39" y1="31.18" x2="329.63" y2="31.18" xlink:href="#Spectrum_"/></defs><path class="cls-1" d="M53.54,61.89,29.44,2.94a1.49,1.49,0,0,0-.31-.46l0,0a.08.08,0,0,1,0,0l0,0s0,0,0,0a.08.08,0,0,0,0,0l0,0,0,0,0,0s0,0,0,0,0,0,0,0,0,0,0,0l0,0a.08.08,0,0,1,0,0l0,0,0,0s0,0,0,0,0,0,0,0l0,0,0,0,0,0,0,0s0,0,0,0l0,0a.08.08,0,0,1,0,0l0,0s0,0,0,0l0,0,0,0,0,0,0,0,0,0s0,0,0,0a.08.08,0,0,0,0,0l0,0a.08.08,0,0,1,0,0,.08.08,0,0,1,0,0l0,0s0,0,0,0,0,0,0,0l0,0a.08.08,0,0,1,0,0l0,0,0,0a.08.08,0,0,0,0,0s0,0,0,0l0,0,0,0,0,0,0,0,0,0a1.86,1.86,0,0,0-3,.42L.13,60A1.75,1.75,0,0,0,.3,61.59a1.34,1.34,0,0,0,.3.33l0,0,0,0,0,0a.08.08,0,0,0,0,0l0,0s0,0,0,0,0,0,0,0l0,0,0,0,0,0,0,0,0,0,0,0s0,0,0,0l0,0,0,0,0,0s0,0,0,0l0,0,0,0,0,0,0,0,0,0,0,0,0,0,0,0,0,0,0,0,0,0,0,0,0,0,0,0,0,0s0,0,0,0l0,0,0,0,0,0,0,0,0,0,0,0,0,0,0,0,0,0,0,0s0,0,0,0l0,0,0,0,0,0,0,0,0,0a1.77,1.77,0,0,0,1.21.48h48.2a1.76,1.76,0,0,0,1.63-2.42Z"/><path class="cls-2" d="M17.49,31.69a12.6,12.6,0,0,0-1.93,15.52.53.53,0,0,1-.07.64L8.93,54.41c-1.31,1.3-1.61,3.13-.47,4.29l.21.2c1.15,1.16,3,.84,4.28-.46l6.55-6.55a.56.56,0,0,1,.67-.08,12.61,12.61,0,0,0,15.51-1.94A12.86,12.86,0,1,0,17.49,31.69ZM33.31,47.5a9.5,9.5,0,1,1,0-13.44A9.52,9.52,0,0,1,33.31,47.5Z"/><path class="cls-3" d="M19.87,34.06a9.5,9.5,0,1,0,13.44,0A9.51,9.51,0,0,0,19.87,34.06Z"/><path class="cls-4" d="M27.49,1a1.84,1.84,0,0,0-3.26,0L.13,60a1.75,1.75,0,0,0,1.63,2.41H50A1.75,1.75,0,0,0,51.59,60Zm8.19,48.88a12.61,12.61,0,0,1-15.51,1.94.56.56,0,0,0-.67.08L13,58.44c-1.3,1.3-3.13,1.62-4.28.46l-.21-.2c-1.14-1.16-.84-3,.47-4.29l6.56-6.56a.53.53,0,0,0,.07-.64,12.6,12.6,0,0,1,1.93-15.52A12.86,12.86,0,1,1,35.68,49.87Z"/></svg>