<svg xmlns="http://www.w3.org/2000/svg" viewBox="0 0 64.22 64.22"><defs><style>.cls-1{isolation:isolate;}.cls-2{fill:#e39f64;}.cls-3{mix-blend-mode:darken;opacity:0.5;}.cls-4{fill:#fff;}</style></defs><g class="cls-1"><g id="Layer_1" data-name="Layer 1"><rect class="cls-2" width="64.22" height="64.22" rx="10.03"/><g class="cls-3"><path d="M54.44,19.72l-.1-.1-.1-.1-.1-.1-.09-.09a.94.94,0,0,0-.1-.1l-.1-.1-.1-.1-.1-.1a.94.94,0,0,0-.1-.1l-.09-.09-.1-.1-.1-.1-.1-.1a.94.94,0,0,0-.1-.1l-.1-.1-.1-.1-.09-.09-.1-.1-.1-.1a.94.94,0,0,0-.1-.1l-.09-.1-.11-.1-.09-.09-.1-.1-.1-.1-.1-.1-.1-.1-.1-.1-.09-.09-.1-.1-.1-.1a.94.94,0,0,0-.1-.1l-.1-.1-.1-.1L51,16.28a.94.94,0,0,0-.1-.1l-.1-.1a.47.47,0,0,0-.1-.1l-.1-.1-.1-.1-.1-.09-.09-.1-.1-.1-.1-.1-.1-.1-.1-.09-.1-.11L49.72,15l-.1-.1a.94.94,0,0,0-.1-.1,1.8,1.8,0,0,0-1.31-.58H37.48A1.8,1.8,0,0,0,35.68,16V48.22a1.79,1.79,0,0,0,.58,1.3.94.94,0,0,1,.1.1l.1.1.1.1.1.09a.47.47,0,0,0,.1.1l.09.1.1.1.1.1.1.1.1.09.1.1.09.1.11.1.09.1.1.09a.47.47,0,0,0,.1.1.47.47,0,0,0,.1.1l.1.1.09.1.1.1a.94.94,0,0,1,.1.1l.1.09.1.1.1.1.09.1.1.1.1.1.1.09a.47.47,0,0,0,.1.1l.09.1.1.1.1.1a.47.47,0,0,1,.1.1l.1.1.1.09.1.1.09.1.1.1.1.1.1.09a.47.47,0,0,0,.1.1.47.47,0,0,0,.1.1l.09.1.1.1.1.1.1.09.1.1.1.1a.47.47,0,0,0,.1.1l.09.1a1.81,1.81,0,0,0,1.31.58H53.23A1.8,1.8,0,0,0,55,53.23V21A1.8,1.8,0,0,0,54.44,19.72Z"/><path d="M33,19.72a.47.47,0,0,0-.1-.1,2653771530219.05,2653771530219.05,0,0,0-.2-.2l-.09-.09-.1-.1a.94.94,0,0,0-.1-.1.47.47,0,0,0-.1-.1l-.1-.1-.1-.1-.09-.1a.94.94,0,0,1-.1-.1l-.1-.09a.47.47,0,0,0-.1-.1.47.47,0,0,0-.1-.1l-.09-.1a3980657295328.41,3980657295328.41,0,0,1-.2-.2L31.2,18a.47.47,0,0,0-.1-.1.47.47,0,0,0-.1-.1.94.94,0,0,0-.1-.1l-.1-.1-.09-.09-.1-.1-.1-.1a.47.47,0,0,0-.1-.1.94.94,0,0,0-.1-.1l-.09-.1a.47.47,0,0,1-.1-.1l-.1-.09a.47.47,0,0,0-.1-.1.47.47,0,0,0-.1-.1.94.94,0,0,0-.1-.1.94.94,0,0,0-.1-.1l-.09-.09a.94.94,0,0,0-.1-.1l-.1-.1a.47.47,0,0,0-.1-.1.94.94,0,0,0-.1-.1l-.1-.1-.09-.1-.1-.09-.1-.1a.47.47,0,0,0-.1-.1l-.1-.1-.09-.1-.11-.1L28.25,15l-.1-.1a.47.47,0,0,0-.1-.1,1.78,1.78,0,0,0-1.31-.58H16A1.79,1.79,0,0,0,14.22,16V48.22a1.76,1.76,0,0,0,.58,1.3.47.47,0,0,0,.1.1l.09.1.1.1.1.09a.47.47,0,0,0,.1.1l.1.1.1.1.09.1.1.1.1.09.1.1.1.1a.47.47,0,0,0,.1.1l.09.1.1.1.1.1.1.09.1.1a.47.47,0,0,0,.1.1l.09.1.1.1.1.1.1.09.1.1a.47.47,0,0,0,.1.1l.09.1.1.1.1.09.1.11.1.09.1.1.1.1.09.1a.47.47,0,0,1,.1.1l.1.09.1.1a.47.47,0,0,0,.1.1l.09.1.11.1.09.09.1.1a.94.94,0,0,0,.1.1.47.47,0,0,0,.1.1l.1.1.09.1a.47.47,0,0,1,.1.1l.1.1.1.09a.47.47,0,0,0,.1.1l.09.1A1.8,1.8,0,0,0,21,55H31.76a1.79,1.79,0,0,0,1.79-1.79V21A1.8,1.8,0,0,0,33,19.72Z"/></g><path class="cls-4" d="M50,48.22A1.8,1.8,0,0,1,48.21,50H37.48a1.8,1.8,0,0,1-1.8-1.78V16a1.8,1.8,0,0,1,1.8-1.79H48.21A1.8,1.8,0,0,1,50,16Z"/><path class="cls-4" d="M28.53,48.22A1.79,1.79,0,0,1,26.74,50H16a1.79,1.79,0,0,1-1.79-1.78V16A1.79,1.79,0,0,1,16,14.22H26.74A1.79,1.79,0,0,1,28.53,16Z"/></g></g></svg>