<svg id="Layer_1" data-name="Layer 1" xmlns="http://www.w3.org/2000/svg" viewBox="0 0 64 64"><defs><style>.cls-1{fill:#333;}.cls-2{fill:#b55e13;}.cls-3{fill:#fff;}.cls-4{fill:#de731d;}</style></defs><path class="cls-1" d="M57.71,13.68H52.26V8.23A6.31,6.31,0,0,0,46,1.94H8.23A6.31,6.31,0,0,0,1.94,8.23V46a6.31,6.31,0,0,0,6.29,6.29h5.45v5.45A6.31,6.31,0,0,0,20,64H57.71A6.31,6.31,0,0,0,64,57.71V20A6.31,6.31,0,0,0,57.71,13.68Z"/><rect class="cls-2" x="11.74" y="11.74" width="50.32" height="50.32" rx="6.29"/><path class="cls-3" d="M49.48,30.33a3.16,3.16,0,0,1-3.14,3.15H27.47a3.16,3.16,0,0,1-3.15-3.15V14.61H49.48Z"/><rect class="cls-2" x="40.05" y="17.76" width="6.29" height="12.58"/><path class="cls-3" d="M58.75,55.75A3.16,3.16,0,0,1,55.6,58.9H18.2a3.16,3.16,0,0,1-3.15-3.15V36.94h43.7Z"/><path class="cls-2" d="M52.66,43.73H21.14a1.3,1.3,0,0,1,0-2.6H52.66a1.3,1.3,0,1,1,0,2.6Z"/><path class="cls-2" d="M52.66,49H21.14a1.3,1.3,0,0,1,0-2.6H52.66a1.3,1.3,0,1,1,0,2.6Z"/><path class="cls-2" d="M52.66,54.27H21.14a1.3,1.3,0,1,1,0-2.6H52.66a1.3,1.3,0,1,1,0,2.6Z"/><rect class="cls-4" width="50.32" height="50.32" rx="6.29"/><path class="cls-3" d="M37.74,18.59a3.16,3.16,0,0,1-3.15,3.15H15.72a3.15,3.15,0,0,1-3.14-3.15V2.87H37.74Z"/><rect class="cls-2" x="28.3" y="6.01" width="6.29" height="12.58"/><path class="cls-3" d="M47,44a3.15,3.15,0,0,1-3.14,3.14H6.46A3.15,3.15,0,0,1,3.31,44V25.2H47Z"/><path class="cls-2" d="M40.92,32H9.4a1.31,1.31,0,0,1,0-2.61H40.92a1.31,1.31,0,0,1,0,2.61Z"/><path class="cls-2" d="M40.92,37.22H9.4a1.3,1.3,0,0,1,0-2.6H40.92a1.3,1.3,0,0,1,0,2.6Z"/><path class="cls-2" d="M40.92,42.49H9.4a1.3,1.3,0,1,1,0-2.6H40.92a1.3,1.3,0,0,1,0,2.6Z"/></svg>