<svg id="Layer_1" data-name="Layer 1" xmlns="http://www.w3.org/2000/svg" viewBox="0 0 64 64"><defs><style>.cls-1{fill:#333;}.cls-2{fill:#008fd0;}.cls-3{fill:#fff;}.cls-4{fill:#00557e;}</style></defs><rect class="cls-1" x="1.93" y="1.93" width="62.07" height="62.07" rx="7.76"/><rect class="cls-2" width="62.07" height="62.07" rx="7.76"/><path class="cls-3" d="M46.55,22.93a3.89,3.89,0,0,1-3.88,3.88H19.4a3.88,3.88,0,0,1-3.88-3.88V3.54h31Z"/><rect class="cls-4" x="34.91" y="7.42" width="7.76" height="15.52"/><path class="cls-3" d="M58,54.29a3.89,3.89,0,0,1-3.88,3.88H8a3.89,3.89,0,0,1-3.87-3.88V31.08H58Z"/><path class="cls-4" d="M50.74,39.65H11.33a1.63,1.63,0,1,1,0-3.25H50.74a1.63,1.63,0,1,1,0,3.25Z"/><path class="cls-4" d="M50.74,46.25H11.33a1.63,1.63,0,1,1,0-3.25H50.74a1.63,1.63,0,1,1,0,3.25Z"/><path class="cls-4" d="M50.74,52.84H11.33a1.63,1.63,0,1,1,0-3.25H50.74a1.63,1.63,0,1,1,0,3.25Z"/></svg>