<svg xmlns="http://www.w3.org/2000/svg" viewBox="0 0 64 64"><defs><style>.cls-1{isolation:isolate;}.cls-2{fill:#b25d58;}.cls-3{mix-blend-mode:darken;opacity:0.5;}.cls-4{fill:#fff;}</style></defs><g class="cls-1"><g id="Layer_1" data-name="Layer 1"><rect class="cls-2" width="64" height="64" rx="10"/><path class="cls-3" d="M60.2,39.54l-.1-.1a.94.94,0,0,0-.1-.1l-.09-.1-.11-.1-.09-.1-.1-.09-.1-.1a.94.94,0,0,0-.1-.1l-.09-.1-.1-.1-.1-.09-.1-.1-.1-.1-.09-.1a.94.94,0,0,1-.1-.1l-.1-.09-.1-.1a.94.94,0,0,0-.1-.1l-.09-.1a.94.94,0,0,1-.1-.1l-.1-.09a.94.94,0,0,0-.1-.1l-.1-.1-.09-.1-.1-.1-.1-.09s-.06-.07-.1-.1l-.09-.1-.11-.1-.09-.1-.1-.09-.1-.1L57,36.31c0-.62,0-1.24-.1-1.86a.34.34,0,0,1,.12-.31l2.59-1.76a2.93,2.93,0,0,0,1-3.66L58.92,25a2.7,2.7,0,0,0-.55-.81,1.89,1.89,0,0,0-.2-.2l-.09-.1-.2-.19-.1-.1-.1-.1-.1-.1-.09-.1-.1-.09-.1-.1a.94.94,0,0,0-.1-.1l-.1-.1a1.14,1.14,0,0,0-.19-.19,2.13,2.13,0,0,0-.3-.3l-.15-.15,0,0a.94.94,0,0,0-.1-.1l-.1-.1a1.21,1.21,0,0,0-.16-.16l0,0-.1-.09-.1-.1-.07-.07a1.59,1.59,0,0,0-.13-.13l-.09-.1-.1-.1-.1-.09-.1-.1-.19-.2-.1-.09a1.89,1.89,0,0,0-.2-.2l-.1-.1-.19-.19a.94.94,0,0,0-.1-.1l-.1-.1h0l-.1-.1-.09-.1a1.8,1.8,0,0,0-.2-.19,2.76,2.76,0,0,0-.29-.3l-.3-.29a2.92,2.92,0,0,0-2-.82,2.67,2.67,0,0,0-.69.09,2.91,2.91,0,0,0-1-2.47l-.1-.1a.94.94,0,0,0-.1-.1l-.1-.1-.09-.09-.1-.1s-.06-.07-.1-.1l-.1-.1-.09-.1-.1-.1-.1-.09-.1-.1-.1-.1-.1-.1a.76.76,0,0,0-.09-.09l-.1-.1-.1-.1-.1-.1-.09-.1-.1-.1-.1-.09-.1-.1-.09-.1-.1-.1-.1-.1-.1-.09-.1-.1-.1-.1-.1-.1-.09-.1L46.6,13l-.1-.1-.09-.1a.94.94,0,0,1-.1-.1l-.1-.1-.1-.09-.1-.1a3980657295328.5,3980657295328.5,0,0,1-.2-.2l-.09-.1-.1-.09a.94.94,0,0,0-.1-.1l-.1-.1-.1-.1-.09-.1-.1-.09-.1-.1-.1-.1-.1-.1a.94.94,0,0,0-.1-.1L44.64,11a2.88,2.88,0,0,0-1-.63L39.78,8.93a3,3,0,0,0-1-.18,3,3,0,0,0-2.56,1.48l-1.53,2.62a.35.35,0,0,1-.31.16,16.66,16.66,0,0,0-1.87,0A7.7,7.7,0,0,1,33,14.27a7.37,7.37,0,0,1,.23,1.31h0a.94.94,0,0,1-.1-.1l-.1-.1-.09-.09-.1-.1-.1-.1-.1-.1-.1-.1-.09-.08-.1-.11-.1-.1-.1-.1a.43.43,0,0,0-.1-.09l-.09-.1-.1-.1-.1-.1-.1-.1-.1-.1-.09-.09a.94.94,0,0,1-.1-.1s-.06-.07-.1-.1l-.1-.1-.1-.1L31,13.33l-.1-.1s-.06-.07-.1-.1l-.1-.1-.1-.1-.09-.09-.1-.1-.1-.1-.1-.1a.94.94,0,0,0-.1-.1L30,12.35l-.11-.11a3.86,3.86,0,0,0-2.14-1l-.72-.1-.06-.06-.1-.1-.1-.1a.76.76,0,0,0-.09-.09,1.75,1.75,0,0,0-.81-.48l0,0-.1-.1a.94.94,0,0,0-.1-.1l-.1-.1a.94.94,0,0,0-.1-.1l-.09-.09a.94.94,0,0,0-.1-.1l-.1-.1-.1-.1-.1-.1-.09-.09-.1-.1a1.44,1.44,0,0,0-1.06-.47,1.52,1.52,0,0,0-1.48,1.4c-1,.18-1.62.53-1.62.95h0c-.4.05-.8.1-1.2.17-1.63.25-2.77,1.07-3.42,3.29s.12,8.4.48,10.73h0s0,.07,0,.11h0a.43.43,0,0,1,0-.11,1.24,1.24,0,0,0-1.23,1.26,1.3,1.3,0,0,0,.08.41h0s0,0,0,0a1.43,1.43,0,0,0,.16.3l0,0a1.25,1.25,0,0,0,.23.23h0a1.14,1.14,0,0,0,.19.19h0a.76.76,0,0,0,.09.09h0l0,0c-2.46,3.3-3,9-3,10.91h-.3c-1.43,0-2.59.62-2.6,1.39a.66.66,0,0,0-.41.63,1,1,0,0,0,0,.18h0a.08.08,0,0,1,0,0,.49.49,0,0,0,0,.11.53.53,0,0,0,.06.1.56.56,0,0,0,0,.08l.07.05,0,0,.06,0,0,.05.06,0,0,.05h0V54.33h.1v.09h.09v.1h.1v.1h.1v.1h.1v.1h.1v.09h.09V55H11v.1h.1v.1h.1v.1h.1v.09h.09v.1h.1v.1h.1v.1h.1v.1h.1v.09h.09V56H12v.1h.1v.1h.1v.1h.1v.09h.09v.1h.1v.1h.1v.1h.1v.1h.1v.1h.1V57H13v.1h.1v.1h.1v.1h.1v.1h.1v.09h.09v.1h.1v.1h.1v.1h.1v.1h.1V58H14v.1h.1v.1h.1v.1h.1v.1h.1v.09h.09v.1h.1v.1h.1v.1h.1v.1h.1v.09H15V59h.1v.1h.1v.1h.1v.1h5V57.17h0l0,.09h.05l.05.1h.05a.42.42,0,0,1,0,.1h.06l0,.1h.06l0,.1h.06l0,.09h0l.05.1H21a.42.42,0,0,1,0,.1h.06l0,.1h.06l0,.1h.06l0,.09h.05l.05.1h0a.42.42,0,0,1,0,.1h.06l0,.1h.06l0,.1h.06l0,.09h.05l.05.1H22a.42.42,0,0,1,0,.1h.06l0,.1h.06l0,.1h.06l0,.09h.05a.93.93,0,0,0,.05.1H34.59a12.34,12.34,0,0,0,.59-1.57h.08v.1h.1v.09h.1V58h.1v.1h.1v.1h.09v.1h.1v.09H36v.1h.1v.1h.1v.1h.09v.1h.1v.09h.1V59h.1v.1h.1v.1h.09v.1h5V56.66h0v.06l.1,0v.06l.09,0v.06l.1,0V57l.1,0v.06l.1,0v.06l.1,0v.06l.09,0v.07l.1,0v.06l.1,0v.06l.1,0v.06l.1,0v.06l.1,0v.07l.09,0V58l.1,0v.06l.1,0v.06l.1,0v.06l.1,0v.07l.09,0v.06l.1,0v.06a3,3,0,0,0,1.38.34,2.86,2.86,0,0,0,1.23-.26L50,57a2.94,2.94,0,0,0,1.63-3.45l-.81-2.94a.36.36,0,0,1,.12-.33,16.91,16.91,0,0,0,2-2.15.31.31,0,0,1,.31-.13l3.09.58a2.47,2.47,0,0,0,.54,0,3,3,0,0,0,2.78-1.92l1.44-3.85A3,3,0,0,0,60.2,39.54ZM36,27.77h0v0l.1.07v0l.1.06v0l.1.06v0a.6.6,0,0,1,.11.06v0a.6.6,0,0,1,.11.06v0l.1.07v0l.1.06v0l.1.06v0a.6.6,0,0,1,.11.06v0a.6.6,0,0,1,.11.06v0l.1.07v0l.1.06v0l.1.06v0l.1.06v0a.6.6,0,0,1,.11.06v0l.1.07v0l.1.06v0l.24.15,0,0H38l0,.09h.05l0,.09h0l.06.09h0l0,.09h.05l0,.1h0l.05.09h0l.05.09h0l.06.09a6.36,6.36,0,0,1,.75.08,6,6,0,0,1-1.82,5.39A11.5,11.5,0,0,0,36,32.79a1.23,1.23,0,0,0,1.14-1.25,1.34,1.34,0,0,0,0-.35.64.64,0,0,0,0-.07,1.14,1.14,0,0,0-.16-.31h0a1,1,0,0,0-.22-.24.94.94,0,0,0-.1-.1l-.09-.1-.1-.1-.1-.09a.47.47,0,0,0-.1-.1l-.1-.1-.09-.1a.94.94,0,0,1-.1-.1l-.1-.09,0-.05C35.84,29.1,35.93,28.47,36,27.77ZM38.9,40.61s0,0,0,.08l.09,0s0,0,0,.07l.09,0a.19.19,0,0,0,0,.08h0a1.78,1.78,0,0,1-.11.52c0-.26-.07-.52-.12-.8Z"/><path class="cls-4" d="M54.76,34.23,52.12,32.7a.36.36,0,0,1-.16-.29,18.33,18.33,0,0,0-.08-3,.34.34,0,0,1,.12-.31l2.59-1.76a2.93,2.93,0,0,0,1-3.66L53.92,20a2.92,2.92,0,0,0-2.68-1.73,3,3,0,0,0-.78.11l-2.94.82a.32.32,0,0,1-.32-.11,20.33,20.33,0,0,0-2.14-2,.27.27,0,0,1-.12-.3l.58-3.08a3,3,0,0,0-1.88-3.33L39.78,8.93a3,3,0,0,0-1-.18,3,3,0,0,0-2.56,1.48l-1.53,2.62a.35.35,0,0,1-.31.16,16.66,16.66,0,0,0-1.87,0A7.7,7.7,0,0,1,33,14.27c.68,2.31.07,7.59-.29,10.2a2.16,2.16,0,0,1,.93.77l.12.2a6.27,6.27,0,0,1,1.79.33,6.1,6.1,0,0,1,3.69,7.77A6,6,0,0,1,36,37c0,.28.06.56.09.8a3.13,3.13,0,0,1,2.54,1.69l.11.12a1.47,1.47,0,0,1,.21.33l.11.24a1.61,1.61,0,0,1,.09.55,1.68,1.68,0,0,1-.5,1.22v11.6a3,3,0,0,0,1.38.34,2.86,2.86,0,0,0,1.23-.26L45,52a2.94,2.94,0,0,0,1.63-3.45l-.81-2.94a.36.36,0,0,1,.12-.33,16.91,16.91,0,0,0,2-2.15.31.31,0,0,1,.31-.13l3.09.58a2.47,2.47,0,0,0,.54,0,3,3,0,0,0,2.78-1.92l1.44-3.85A3,3,0,0,0,54.76,34.23Z"/><path class="cls-4" d="M9.75,40.79a.66.66,0,0,1,.41-.63c0-.77,1.17-1.39,2.6-1.39h.3c0-1.91.5-7.75,3-11h0l-.07,0a1.18,1.18,0,0,1-.29-.16l0,0a1.25,1.25,0,0,1-.23-.23l0,0a1.43,1.43,0,0,1-.16-.3s0,0,0,0h0a1.3,1.3,0,0,1-.08-.41,1.24,1.24,0,0,1,1.23-1.26c.08.51.14.85.15.9s-.07-.39-.15-.9h0c-.36-2.33-1.16-8.4-.48-10.73s1.79-3,3.42-3.29c.4-.07.8-.12,1.2-.17h0c0-.42.66-.77,1.62-.95a1.48,1.48,0,0,1,3,0c1,.18,1.62.53,1.62.94,0,0,0,0,0,0l1,.13c1.62.26,2.76,1.07,3.41,3.29S31,23,30.67,25.28h.24a1.2,1.2,0,0,1,1,.53h0a1.14,1.14,0,0,1,.16.31.64.64,0,0,1,0,.07,1.34,1.34,0,0,1,0,.35A1.23,1.23,0,0,1,31,27.79c2.34,2.92,3.21,9,3.24,11h0c1.43,0,2.6.62,2.61,1.38a.57.57,0,0,1,.22.15h0a1,1,0,0,1,.1.18l0,0a.77.77,0,0,1,0,.27.62.62,0,0,1-.49.65V54.31h-5V42.57c-.27,6.91-1.57,10.5-2.14,11.75H17.42c-.56-1.23-1.83-4.74-2.14-11.47V54.32h-5V41.45l-.14,0-.06-.05a.38.38,0,0,1-.11-.08.56.56,0,0,1,0-.08.53.53,0,0,1-.06-.1.49.49,0,0,1,0-.11.08.08,0,0,0,0,0h0A1,1,0,0,1,9.75,40.79Z"/></g></g></svg>