<svg id="Layer_1" data-name="Layer 1" xmlns="http://www.w3.org/2000/svg" viewBox="0 0 61.36 49.5"><defs><style>.cls-1{fill:#58595b;}.cls-2{fill:#b0ae9d;}.cls-3,.cls-5{fill:#00652e;}.cls-3,.cls-4{stroke:#231f20;stroke-miterlimit:10;}.cls-3{stroke-width:0.5px;}.cls-4{fill:none;stroke-width:1.25px;}.cls-6{fill:#eedc00;}</style></defs><path class="cls-1" d="M59.6,9.67l0-.05,0,0s0,0-.05-.05l0,0,0,0,0,0,0,0,0,0,0,0,0,0,0,0,0,0,0,0,0,0-.05,0,0,0,0,0,0,0,0,0,0,0,0,0s0,0,0,0l0,0,0,0,0,0,0,0-.05-.05,0,0,0,0,0,0,0,0,0,0,0,0,0,0,0,0,0,0,0,0,0,0,0,0,0,0,0,0L58,8l0,0,0,0,0,0,0,0,0,0,0,0,0,0,0,0a6,6,0,0,0-4.22-1.76H29.69L23.78,0h0l0,0H6A6,6,0,0,0,0,5.94V41.55a6,6,0,0,0,1.76,4.22.08.08,0,0,1,0,0l0,0,0,0,0,0,0,0,0,0s0,0,0,0l0,0,0,0,0,0,0,0,0,0,0,0,0,0,0,0,0,0,0,0s0,0,0,0l0,0,0,0,0,0,0,0,0,0,0,0,0,0,0,0,0,0,0,0,0,0s0,0,0,0S3,47,3,47l0,0,0,0,0,0,0,0s0,0,0,0l0,0,0,0,0,0,0,0,0,0,0,.05,0,0,0,0,0,0,0,0,0,0s0,0,0,0l0,0,0,0A5.91,5.91,0,0,0,8,49.5H55.42a6,6,0,0,0,5.94-6V13.87A5.87,5.87,0,0,0,59.6,9.67Z"/><path class="cls-2" d="M53.42,5.94H29.69L23.74,0H6A6,6,0,0,0,0,5.94V41.55a6,6,0,0,0,6,6H53.42a6,6,0,0,0,5.94-6V11.87a5.94,5.94,0,0,0-5.94-5.93"/><rect class="cls-3" x="5.28" y="14.35" width="48.8" height="2.65"/><polygon class="cls-4" points="26.16 21.99 33.67 22.13 32.99 11.85 27.53 11.91 26.16 21.99"/><polygon class="cls-5" points="26.16 21.99 33.67 22.13 32.99 11.85 27.53 11.91 26.16 21.99"/><path class="cls-4" d="M29.4,42.8c2.23.05,6.68-7.14,6.79-12.6S34,22.61,34,22.61l-8.25-.2A9.49,9.49,0,0,0,23.05,29C22.88,33.49,26.58,42.75,29.4,42.8Z"/><path class="cls-6" d="M29.4,42.8c2.23.05,6.68-7.14,6.79-12.6S34,22.61,34,22.61l-8.25-.2A9.49,9.49,0,0,0,23.05,29C22.88,33.49,26.58,42.75,29.4,42.8Z"/></svg>