<svg xmlns="http://www.w3.org/2000/svg" viewBox="0 0 64 64"><defs><style>.cls-1{isolation:isolate;}.cls-2{fill:#de6f57;}.cls-3{mix-blend-mode:darken;opacity:0.5;}.cls-4{fill:#fff;}</style></defs><g class="cls-1"><g id="Layer_1" data-name="Layer 1"><rect class="cls-2" width="64" height="64" rx="10"/><path class="cls-3" d="M54.44,18.91l0-.05,0-.05-.05,0,0-.05-.05-.05,0-.05-.06,0,0-.06,0,0,0,0-.05-.05,0-.05s0,0-.05-.05l0-.05s0,0,0,0l0-.05-.06,0,0-.06-.05,0,0-.05-.05-.05s0,0,0-.05,0,0,0,0l-.05-.05s0,0,0-.05l0-.05-.06-.05,0,0,0,0s0,0-.05,0,0,0,0-.05,0,0-.05-.05,0,0,0-.05l0-.05-.05,0,0-.05-.06-.05,0-.05,0,0s0,0-.05-.05,0,0,0-.05l0,0-.05-.05,0-.05s0,0-.05-.05l0-.05-.06,0,0-.05-.05,0,0-.05-.05-.05,0-.05,0-.05-.05,0s0,0,0-.05l0-.05-.06-.05,0-.05-.05,0,0-.06,0,0-.05-.05,0,0-.05-.05s0,0,0,0l0-.05-.06-.05,0,0,0,0L51,15.47l0,0s0,0-.05,0l0-.05,0-.05-.05,0,0-.05s0,0-.05,0l0-.05,0,0,0-.06-.05,0,0,0-.05-.05,0-.05s0,0,0,0,0,0-.05-.05,0,0,0,0l0-.05-.05,0,0-.06-.05,0s0,0,0,0l0-.05-.05,0s0,0,0-.05,0,0-.05-.05,0,0,0,0l0-.05-.06,0,0-.06,0,0s0,0-.05-.05a18.57,18.57,0,0,0-26.24,0,18.19,18.19,0,0,0-2.79,22.4.79.79,0,0,1-.11.93l-9.47,9.47C9,48.59,8.5,51.23,10.16,52.89l.29.3h0l.09.09h0l.1.09h0l.1.1h0l.1.1h0l.09.1h0l.09.09h0l.1.09h0l.1.1h0l.1.1h0l.09.1h0l.09.09h0l.09.09h0l.1.1h0l.1.1h0l.09.1h0l.09.09h0l.09.09h0l.1.1h0l.1.1h0l.1.1h0l.09.09h0l.09.09h0l.1.1h0l.1.1h0l.1.1h0l.09.09h0l.09.09h0l.1.1h0l.1.1h0l.1.1h0l.09.09h0l.09.09h0l.1.09h0l.1.1h0l.1.1h0l.09.09h0l.09.09h0l.1.09h0l.1.1h0l.1.1h0l.09.1h0l.09.09h0l.1.1h0l.1.1h0l.1.1h0l.09.1h0l.09.09h0l.1.1h0l.1.1h0l.1.1h0l.09.1c1.68,1.67,4.31,1.22,6.2-.66l9.45-9.45a.8.8,0,0,1,.95-.14,18.19,18.19,0,0,0,22.39-2.78A18.58,18.58,0,0,0,54.44,18.91ZM27.94,29.08a2.09,2.09,0,0,0,.24.28l.1.09a.94.94,0,0,0,.1.1l.1.1a.47.47,0,0,0,.1.1l.09.1.1.09.1.1a.94.94,0,0,0,.1.1.47.47,0,0,0,.1.1.94.94,0,0,0,.1.1l.09.09a.94.94,0,0,0,.1.1,3980657295328.47,3980657295328.47,0,0,1,.2.2.94.94,0,0,0,.1.1l.09.09.1.1a.94.94,0,0,0,.1.1.47.47,0,0,0,.1.1l.1.1.09.1.1.09.1.1a.47.47,0,0,0,.1.1.94.94,0,0,0,.1.1l.09.1.1.09.1.1a.47.47,0,0,0,.1.1.94.94,0,0,0,.1.1l.09.1.1.09.1.1a.47.47,0,0,0,.1.1l.1.1.09.1.1.09a.94.94,0,0,0,.1.1l.1.1.1.1.09.1.1.09.1.1.1.1.1.1.09.1.1.09.1.1.1.1a.47.47,0,0,0,.1.1,1.47,1.47,0,0,0,1.09.49H47.65a14.48,14.48,0,0,1-1.64,2,13.72,13.72,0,0,1-16.55,2.16A13.78,13.78,0,0,1,27.94,29.08Zm21.79.75a.3.3,0,0,0-.08-.08.47.47,0,0,0-.1-.1l-.09-.1-.1-.1-.1-.1-.1-.09a.47.47,0,0,0-.1-.1l-.1-.1-.09-.1a.47.47,0,0,1-.1-.1l-.1-.09a9951643238339.41,9951643238339.41,0,0,1-.2-.2l-.09-.1-.1-.09-.1-.1a.47.47,0,0,0-.1-.1.47.47,0,0,0-.1-.1l-.09-.1a.94.94,0,0,1-.1-.1l-.1-.09a9951643238304.62,9951643238304.62,0,0,0-.2-.2l-.09-.1-.1-.1-.1-.09-.1-.1a.47.47,0,0,0-.1-.1l-.09-.1a.47.47,0,0,1-.1-.1l-.1-.09a.47.47,0,0,0-.1-.1l-.1-.1-.09-.1-.1-.1-.1-.09-.1-.1a.47.47,0,0,0-.1-.1l-.09-.1-.1-.1-.1-.09a.47.47,0,0,0-.1-.1l-.1-.1-.09-.1a3980657295328.46,3980657295328.46,0,0,0-.2-.2l-.1-.09-.1-.1L45,25a.94.94,0,0,1-.1-.1l-.1-.1a1.49,1.49,0,0,0-1.09-.48H30a13.68,13.68,0,0,1,18.22-4.19A13.75,13.75,0,0,1,49.73,29.83Z"/><path class="cls-4" d="M49.44,40.16A18.56,18.56,0,1,0,23.2,13.91a18.19,18.19,0,0,0-2.79,22.4.79.79,0,0,1-.11.93l-9.47,9.47C9,48.59,8.5,51.23,10.16,52.89l.29.3c1.68,1.67,4.31,1.22,6.2-.66l9.45-9.45a.8.8,0,0,1,.95-.14,18.19,18.19,0,0,0,22.39-2.78M26.63,36.73a13.71,13.71,0,1,1,19.38,0,13.71,13.71,0,0,1-19.38,0"/><path class="cls-4" d="M45.14,28.28a1.47,1.47,0,0,1-1.48,1.47H29.18a1.48,1.48,0,0,1-1.48-1.47V25.83a1.48,1.48,0,0,1,1.48-1.47H43.66a1.47,1.47,0,0,1,1.48,1.47Z"/></g></g></svg>