<svg id="Layer_1" data-name="Layer 1" xmlns="http://www.w3.org/2000/svg" xmlns:xlink="http://www.w3.org/1999/xlink" viewBox="0 0 59.41 59.4"><defs><style>.cls-1{fill:none;}.cls-2{fill:#58595b;}.cls-3{fill:url(#Summer_Multicolor);}.cls-4{fill:#546080;}.cls-5{fill:#fff;}</style><linearGradient id="Summer_Multicolor" x1="-985.11" y1="28.8" x2="58.44" y2="28.8" gradientUnits="userSpaceOnUse"><stop offset="0.11" stop-color="#f0c83b"/><stop offset="0.24" stop-color="#f1563c"/><stop offset="0.27" stop-color="#e65352"/><stop offset="0.32" stop-color="#d34f7a"/><stop offset="0.37" stop-color="#c74c92"/><stop offset="0.39" stop-color="#c34b9b"/><stop offset="0.79" stop-color="#00b3c1"/><stop offset="0.81" stop-color="#00b36c"/><stop offset="1" stop-color="#00b3c1"/></linearGradient></defs><polygon class="cls-1" points="13.47 29.7 27.29 29.7 13.47 29.7 13.47 29.7"/><path class="cls-2" d="M59,13l0,0,0,0,0,0,0,0,0,0,0,0,0,0,0,0s0,0,0,0l0,0,0,0,0,0,0,0,0,0s0,0,0,0l0,0,0,0,0,0,0,0,0,0,0,0,0,0,0,0a.08.08,0,0,0,0,0l0,0,0,0,0,0s0,0,0,0l0,0,0,0,0,0,0,0,0,0,0,0,0,0,0,0,0,0,0,0,0,0,0,0,0,0,0,0,0,0,0,0,0,0,0,0,0,0,0,0,0,0,0,0a1.32,1.32,0,0,0-1-.42H48.61V3.14a1.3,1.3,0,0,0-.42-1l0,0,0,0,0,0,0,0,0,0,0,0,0,0,0,0,0,0,0,0,0,0,0,0,0,0,0,0a.08.08,0,0,0,0,0l0,0,0,0,0,0,0,0,0,0,0,0,0,0,0,0,0,0,0,0,0,0,0,0,0,0,0,0,0,0,0,0,0,0,0,0,0,0s0,0,0,0l0,0,0,0,0,0,0,0,0,0,0,0,0,0,0,0,0,0,0,0,0,0,0,0,0,0,0,0,0,0a1.35,1.35,0,0,0-1-.41H1.35A1.35,1.35,0,0,0,0,1.34V45.48a1.32,1.32,0,0,0,.41,1l0,0,0,0,0,0,0,0,0,0,0,0,0,0,0,0,0,0,0,0,0,0,0,0,0,0,0,0,0,0,0,0,0,0,0,0,0,0,0,0,0,0,0,0,0,0,0,0,0,0,0,0,0,0,0,0,0,0,0,0,0,0,0,0,0,0,0,0,0,0,0,0,0,0,0,0,0,0,0,0,0,0,0,0,0,0,0,0,0,0,0,0,0,0,0,0,0,0,0,0a1.37,1.37,0,0,0,1,.41h7.65v7.66a1.33,1.33,0,0,0,.41,1,.08.08,0,0,1,0,0l0,0,0,0,0,0,0,0,0,0a.08.08,0,0,1,0,0l0,0,0,0,0,0,0,0,0,0,0,0,0,0s0,0,0,0l0,0,0,0,0,0,0,0,0,0,0,0s0,0,0,0l0,0,0,0,0,0,0,0,0,0,0,0,0,0,0,0,0,0a.08.08,0,0,1,0,0l0,0s0,0,0,0l0,0,0,0,0,0s0,0,0,0l0,0,0,0,0,0,0,0,0,0,0,0,0,0,0,0s0,0,0,0l0,0,0,0,0,0a1.37,1.37,0,0,0,1,.41H58.06a1.33,1.33,0,0,0,1.34-1.34V13.92A1.36,1.36,0,0,0,59,13ZM15.27,48.6h32a1.34,1.34,0,0,0,1.34-1.33v-32h6.33V54.93H15.26Z"/><path class="cls-3" d="M56.27,10.79H46.82V1.34A1.34,1.34,0,0,0,45.49,0H1.35A1.35,1.35,0,0,0,0,1.34V45.48a1.34,1.34,0,0,0,1.34,1.33h9.45v9.45a1.35,1.35,0,0,0,1.34,1.34H56.27a1.34,1.34,0,0,0,1.34-1.33V12.13A1.35,1.35,0,0,0,56.27,10.79ZM13.47,54.93h0V46.81h32a1.33,1.33,0,0,0,1.34-1.33v-32h8.12V54.93h0"/><polygon class="cls-4" points="54.93 54.94 54.93 54.93 27.29 54.93 54.93 54.94"/><path class="cls-5" d="M46.82,13.47v32a1.33,1.33,0,0,1-1.34,1.33h-32v8.11H54.93V13.47Z"/></svg>