<svg id="Layer_1" data-name="Layer 1" xmlns="http://www.w3.org/2000/svg" xmlns:xlink="http://www.w3.org/1999/xlink" viewBox="0 0 55.72 59.3"><defs><style>.cls-1{fill:#58595b;}.cls-2{fill:url(#Summer_Multicolor);}.cls-3{fill:url(#Summer_Multicolor-2);}.cls-4{fill:#fff;}</style><linearGradient id="Summer_Multicolor" x1="-751.36" y1="27.16" x2="292.19" y2="27.16" gradientUnits="userSpaceOnUse"><stop offset="0.11" stop-color="#f0c83b"/><stop offset="0.24" stop-color="#f1563c"/><stop offset="0.27" stop-color="#e65352"/><stop offset="0.32" stop-color="#d34f7a"/><stop offset="0.37" stop-color="#c74c92"/><stop offset="0.39" stop-color="#c34b9b"/><stop offset="0.79" stop-color="#00b3c1"/><stop offset="0.81" stop-color="#00b36c"/><stop offset="1" stop-color="#00b3c1"/></linearGradient><linearGradient id="Summer_Multicolor-2" x1="-751.36" y1="44.92" x2="292.19" y2="44.92" xlink:href="#Summer_Multicolor"/></defs><path class="cls-1" d="M50,30.53l-.07-.07h0L27.24,7.82h0l0,0h0L27,7.61h0l0,0h0l-.22-.21h0l-.21-.21h0l0,0h0l-.21-.21h0l-.21-.21h0l0,0h0l-.17-.18h0l0,0h0l-.21-.22h0l-.11-.1h0l0,0L21.24,10,14.73,3.22h0l0,0h0l0,0h0l0,0h0l0,0h0l0,0h0l0,0h0l0,0h0l0,0h0l0,0h0l0,0h0l0,0h0l0,0h0l0,0h0l0,0h0l0,0h0l0,0h0l0,0h0l0,0h0l0,0h0l0,0h0l0,0h0l0,0h0l0,0h0l0,0h0l0,0h0l0,0h0l0,0h0l0,0h0l0,0h0l0,0h0l0,0h0l0,0h0l0,0h0l0,0h0l0,0h0l0,0h0l0,0h0l0,0h0l0,0h0l0,0h0l0,0h0l0,0h0l0,0h0l0,0h0l0,0h0l0,0h0l0,0h0l0,0h0l0,0h0l0,0h0l0,0-.11-.08A5.6,5.6,0,0,0,12.2.93L11.9.76c-2.12-1.09-5-1.08-6.63.5-.07.06-.16.1-.23.17s-.17.25-.26.39a6.08,6.08,0,0,0-.93,2A5.26,5.26,0,0,0,3.6,5.38,7.55,7.55,0,0,0,5,9.33l.06.06h0L13.65,18,0,31.26l0,0H0l0,0h0l0,0h0l.17.17h0l0,0h0l.21.21h0L.74,32h0l0,0h0l.21.22H1l.22.21h0l0,0h0l.18.18h0l0,0h0l.21.21h0l23,23h0l.14.14ZM27.31,21.19c.38.35.73.35,1.44.35s1.08,0,1.45-.35a2.27,2.27,0,0,0-.37-2.52l0,0h0l0,0h0l0,0h0l-.17-.17h0l0,0h0l-.21-.21h0l-.21-.21h0l0,0h0l-.2-.21h0l-.21-.21h0l0,0h0l-.18-.17h0l0,0h0L28.18,17h0l-2.66-2.64L27,12.93,43.11,28.74h-32L23,16.88l4.17,4.17h0ZM16.18,15.08,9.33,8.51C9.28,8.14,9,7.51,9,7.17s.35-1.07.35-1.45a4.17,4.17,0,0,1,2.87,0L19,12.58Z"/><path class="cls-1" d="M50.32,34.13v0a.31.31,0,0,0,0-.07v0l0-.07v0l0-.08v0l0-.07v0l0-.08,0,0,0-.07v0a.73.73,0,0,0,0-.08l0,0,0-.07v0a.73.73,0,0,0,0-.08l0,0,0-.07v0a.73.73,0,0,0,0-.08l0,0,0-.07v0l0-.07,0,0,0-.07v0l0-.07,0,0,0-.07v0a.17.17,0,0,1,0-.07l0,0,0-.07v0a.17.17,0,0,1,0-.07l0,0,0-.07v0a.17.17,0,0,1,0-.07l0,0a.31.31,0,0,0,0-.07v0l0-.07v0a.31.31,0,0,0,0-.07v0l0-.07v0a.31.31,0,0,0,0-.07v0l0-.07v0a.31.31,0,0,0,0-.07v0l0-.07v0a.31.31,0,0,0,0-.07v0l0-.07v0l0-.08v0l0-.07v0l0-.08v0l0-.07v0l0-.08,0,0,0-.07v0l0-.08,0,0,0-.07v0l0-.08,0,0,0-.07v0l0-.08,0,0,0-.07v0l0-.08,0,0,0-.07v0l0-.08,0,0,0-.07v0l0-.08,0,0,0-.07v0a.17.17,0,0,1,0-.07l0,0,0-.07s-5.38,16.9-5.38,19.76a5.39,5.39,0,0,0,1.63,3.8l0,0,0,0s0,0,0,0l0,0s0,0,0,0l0,0,0,0,0,0s0,0,0,0l0,0,0,0,0,0a.08.08,0,0,0,0,0l0,0,0,0,0,0,0,0a.08.08,0,0,1,0,0l0,0,0,0,0,0a.08.08,0,0,0,0,0l0,0,0,0,0,0,0,0,0,0,0,0,0,0,0,0,0,0,0,0,0,0,0,0a.08.08,0,0,1,0,0l0,0,0,0,0,0,0,0,0,0,0,0,0,0,0,0,0,0,0,0,0,0,0,0,0,0,0,0,0,0a5.37,5.37,0,0,0,3.78,1.64,5.53,5.53,0,0,0,5.4-5.41C55.72,51,50.32,34.13,50.32,34.13Z"/><path class="cls-2" d="M25.52,6.09,21.2,10,12.93,1.43A6.41,6.41,0,0,0,5,1.43a7.42,7.42,0,0,0-1.44,4A7.55,7.55,0,0,0,5,9.33L13.65,18,0,31.26l23,23L48.16,28.74Zm-18,.72c0-.35-.36-1.07-.36-1.43s.36-1.08.36-1.45a4.08,4.08,0,0,1,2.88,0L19,12.58l-2.86,2.5Zm0,21.93L21.2,15.08l4.32,4.32c.37.35.72.35,1.44.35s1.07,0,1.44-.35A2.25,2.25,0,0,0,28,16.87l-4.3-4.29,1.44-1.45,18,17.61Z"/><path class="cls-3" d="M48.53,32.34s-5.38,16.9-5.38,19.76a5.39,5.39,0,1,0,10.77,0c0-2.86-5.39-19.76-5.39-19.76"/><path class="cls-4" d="M7.55,6.81c0-.35-.36-1.07-.36-1.43s.36-1.08.36-1.45a4.08,4.08,0,0,1,2.88,0L19,12.58l-2.86,2.5Z"/><path class="cls-4" d="M7.55,28.74,21.2,15.08l4.32,4.32c.37.35.72.35,1.44.35s1.07,0,1.44-.35A2.25,2.25,0,0,0,28,16.87l-4.3-4.29,1.44-1.45,18,17.61Z"/></svg>