<svg id="Layer_1" data-name="Layer 1" xmlns="http://www.w3.org/2000/svg" xmlns:xlink="http://www.w3.org/1999/xlink" viewBox="0 0 59.43 59.36"><defs><style>.cls-1{fill:#58595b;}.cls-2{fill:url(#Summer_Multicolor);}</style><linearGradient id="Summer_Multicolor" x1="-663.15" y1="28.93" x2="380.4" y2="28.93" gradientUnits="userSpaceOnUse"><stop offset="0.11" stop-color="#f0c83b"/><stop offset="0.24" stop-color="#f1563c"/><stop offset="0.27" stop-color="#e65352"/><stop offset="0.32" stop-color="#d34f7a"/><stop offset="0.37" stop-color="#c74c92"/><stop offset="0.39" stop-color="#c34b9b"/><stop offset="0.79" stop-color="#00b3c1"/><stop offset="0.81" stop-color="#00b36c"/><stop offset="1" stop-color="#00b3c1"/></linearGradient></defs><path class="cls-1" d="M59.24,56.82,32.17,2.68a1.5,1.5,0,0,0-.3-.4l0,0,0,0,0,0,0,0,0,0,0,0,0,0,0,0a.08.08,0,0,0,0,0l0,0,0,0,0,0,0,0,0,0a.08.08,0,0,0,0,0l0,0,0,0,0,0,0,0,0,0,0,0,0,0,0,0,0,0,0,0,0,0,0,0,0,0,0,0,0,0,0,0,0,0,0,0,0,0a.08.08,0,0,1,0,0l0,0,0,0,0,0,0,0,0,0a.08.08,0,0,1,0,0l0,0,0,0a.08.08,0,0,0,0,0l0,0,0,0a.08.08,0,0,1,0,0l0,0,0,0,0,0a1.82,1.82,0,0,0-2.85.37L.19,55a1.72,1.72,0,0,0,.07,1.7,2.12,2.12,0,0,0,.3.36l0,0,0,0,0,0,0,0a.08.08,0,0,1,0,0l0,0,0,0,0,0,0,0,0,0,0,0,0,0,0,0,0,0,0,0,0,0,0,0,0,0,0,0,0,0,0,0,0,0,0,0,0,0,0,0,0,0,0,0,0,0,0,0,0,0,0,0,0,0,0,0,0,0,0,0,0,0,0,0,0,0,0,0s0,0,0,0l0,0,0,0,0,0s0,0,0,0l0,0,0,0,0,0,0,0,0,0,0,0a1.75,1.75,0,0,0,1.22.51H57.68a1.75,1.75,0,0,0,1.56-2.54Z"/><path class="cls-2" d="M57.45,55.18,30.38,1a1.82,1.82,0,0,0-3.12,0L.19,55.18a1.72,1.72,0,0,0,.07,1.7,1.79,1.79,0,0,0,1.49.83H55.89a1.76,1.76,0,0,0,1.48-.83,1.72,1.72,0,0,0,.08-1.7"/></svg>