<svg id="Layer_1" data-name="Layer 1" xmlns="http://www.w3.org/2000/svg" xmlns:xlink="http://www.w3.org/1999/xlink" viewBox="0 0 59.55 59.55"><defs><style>.cls-1{fill:#58595b;}.cls-2{fill:url(#Summer_Multicolor);}</style><linearGradient id="Summer_Multicolor" x1="-520.47" y1="29.03" x2="523.08" y2="29.03" gradientUnits="userSpaceOnUse"><stop offset="0.11" stop-color="#f0c83b"/><stop offset="0.24" stop-color="#f1563c"/><stop offset="0.27" stop-color="#e65352"/><stop offset="0.32" stop-color="#d34f7a"/><stop offset="0.37" stop-color="#c74c92"/><stop offset="0.39" stop-color="#c34b9b"/><stop offset="0.79" stop-color="#00b3c1"/><stop offset="0.81" stop-color="#00b36c"/><stop offset="1" stop-color="#00b3c1"/></linearGradient></defs><path class="cls-1" d="M58.91,2.19l0,0s0,0,0,0l0,0,0,0,0,0,0,0,0,0,0,0,0,0,0,0,0,0,0,0,0,0,0,0a.08.08,0,0,1,0,0l0,0,0,0,0,0,0,0,0,0a.08.08,0,0,1,0,0l0,0,0,0,0,0s0,0,0,0l0,0a.08.08,0,0,1,0,0l0,0,0,0,0,0,0,0,0,0,0,0,0,0,0,0,0,0,0,0,0,0,0,0,0,0,0,0,0,0,0,0,0,0,0,0,0,0a.08.08,0,0,0,0,0l0,0,0,0,0,0a1.57,1.57,0,0,0-.47-.3,1.74,1.74,0,0,0-1.91.37L.52,54.78a1.74,1.74,0,0,0-.39,1.9,2,2,0,0,0,.3.48l0,0,0,0,0,0,0,0,0,0,0,0,0,0,0,0,0,0,0,0,0,0,0,0,0,0,0,0,0,0,0,0,0,0,0,0,0,0,0,0,0,0,0,0,0,0,0,0,0,0,0,0,0,0,0,0,0,0,0,0,0,0,0,0,0,0,0,0,0,0,0,0,0,0,0,0,0,0,0,0,0,0,0,0,0,0,0,0,0,0,0,0,0,0,0,0,0,0,0,0a1.77,1.77,0,0,0,1.36.64H57.81a1.73,1.73,0,0,0,1.74-1.74V3.55A1.75,1.75,0,0,0,58.91,2.19Z"/><path class="cls-2" d="M56.68.28a1.74,1.74,0,0,0-1.91.38L.52,54.92a1.76,1.76,0,0,0-.39,1.91,1.78,1.78,0,0,0,1.63,1.08H56a1.75,1.75,0,0,0,1.75-1.75V1.9A1.76,1.76,0,0,0,56.68.28"/></svg>