<svg id="Layer_1" data-name="Layer 1" xmlns="http://www.w3.org/2000/svg" xmlns:xlink="http://www.w3.org/1999/xlink" viewBox="0 0 59.55 59.55"><defs><style>.cls-1{fill:#58595b;}.cls-2{fill:url(#Summer_Multicolor);}</style><linearGradient id="Summer_Multicolor" x1="-592.66" y1="28.88" x2="450.88" y2="28.88" gradientUnits="userSpaceOnUse"><stop offset="0.11" stop-color="#f0c83b"/><stop offset="0.24" stop-color="#f1563c"/><stop offset="0.27" stop-color="#e65352"/><stop offset="0.32" stop-color="#d34f7a"/><stop offset="0.37" stop-color="#c74c92"/><stop offset="0.39" stop-color="#c34b9b"/><stop offset="0.79" stop-color="#00b3c1"/><stop offset="0.81" stop-color="#00b36c"/><stop offset="1" stop-color="#00b3c1"/></linearGradient></defs><path class="cls-1" d="M59,56.57,59,56.5h0L4.71,2.24h0l0,0h0L4.5,2h0l0,0h0l-.21-.21h0L4,1.57H4l0,0H4L3.8,1.32h0l-.21-.21h0l0,0h0L3.37.9h0l0,0h0L3.13.65h0L3,.55H3l0,0A1.76,1.76,0,0,0,0,1.76V56a1.73,1.73,0,0,0,.53,1.25l0,0,0,0,0,0,0,0,0,0,0,0,0,0,0,0,0,0,0,0,0,0,0,0,0,0,0,0,0,0,0,0,0,0,0,0,0,0,0,0,0,0,0,0,0,0,0,0,0,0,0,0,0,0,0,0,0,0,0,0,0,0,0,0,0,0,0,0,0,0,0,0,0,0,0,0,0,0,0,0,0,0,0,0,0,0,0,0,0,0,0,0,0,0,0,0,0,0,0,0a1.76,1.76,0,0,0,1.25.52H57.8a1.74,1.74,0,0,0,1.24-3Z"/><path class="cls-2" d="M1.08.14A1.74,1.74,0,0,1,3,.51L57.24,54.78a1.74,1.74,0,0,1-1.23,3H1.75A1.74,1.74,0,0,1,0,56V1.76A1.75,1.75,0,0,1,1.08.14"/></svg>