<svg id="Layer_1" data-name="Layer 1" xmlns="http://www.w3.org/2000/svg" xmlns:xlink="http://www.w3.org/1999/xlink" viewBox="0 0 59.25 53.02"><defs><style>.cls-1{fill:#58595b;}.cls-2{fill:url(#Summer_Multicolor);}.cls-3{fill:url(#Summer_Multicolor-2);}.cls-4{fill:url(#Summer_Multicolor-3);}</style><linearGradient id="Summer_Multicolor" x1="-302.89" y1="42.03" x2="740.67" y2="42.03" gradientUnits="userSpaceOnUse"><stop offset="0.11" stop-color="#f0c83b"/><stop offset="0.24" stop-color="#f1563c"/><stop offset="0.27" stop-color="#e65352"/><stop offset="0.32" stop-color="#d34f7a"/><stop offset="0.37" stop-color="#c74c92"/><stop offset="0.39" stop-color="#c34b9b"/><stop offset="0.79" stop-color="#00b3c1"/><stop offset="0.81" stop-color="#00b36c"/><stop offset="1" stop-color="#00b3c1"/></linearGradient><linearGradient id="Summer_Multicolor-2" x1="-302.89" y1="25.6" x2="740.67" y2="25.6" xlink:href="#Summer_Multicolor"/><linearGradient id="Summer_Multicolor-3" x1="-302.89" y1="9.19" x2="740.67" y2="9.19" xlink:href="#Summer_Multicolor"/></defs><path class="cls-1" d="M1.22,12.1l0,0s0,0,0,0v0h0l0,0,0,0v0h0l0,0,0,0a0,0,0,0,1,0,0h0l0,0,0,0v0h0l0,0,0,0v0h0l0,0,0,0v0h0l0,0,0,0v0h0l0,0,0,0,0,0h0l0,0,0,0s0,0,0,0h0s0,0,0,0l0,0,0,0h0v0l0,0,0,0H2a0,0,0,0,0,0,0l0,0,0,0h0v0l0,0,0,0h0v0s0,0,0,0l0,0h0v0l0,0,0,0h0v0l0,0,0,0,0,0h0l0,0,0,0,0,0v0h0l0,0,0,0v0h0l0,0,0,0a0,0,0,0,1,0,0h0l0,0,0,0v0h0s0,0,0,0l0,0v0h0l0,0,0,0v0h0l0,0,0,0,0,0h0l0,0,0,0,0,0h0l0,0,0,0s0,0,0,0a4.13,4.13,0,0,0,5.81,0,13.33,13.33,0,0,1,18.82,0,21.47,21.47,0,0,0,15.21,6.29,21.49,21.49,0,0,0,15.21-6.29,4.1,4.1,0,0,0,0-5.8h0v0l0,0,0,0h0V8l0,0v0h0v0s0,0,0,0l0,0h0a0,0,0,0,0,0,0l0,0,0,0h0v0l0,0v0h0s0,0,0,0,0,0,0,0l0,0h0s0,0,0,0v0l0,0h0l0,0,0,0v0h0l0,0v0l0,0,0,0h0l0,0s0,0,0,0h0l0,0,0,0s0,0,0,0l0,0h0s0,0,0,0v0s0,0,0,0l0,0h0s0,0,0,0l0,0,0,0h0v0l0,0,0,0h0V7l0,0,0,0h0a0,0,0,0,0,0,0l0,0s0,0,0,0h0v0l0,0s0,0,0,0h0v0l0,0,0,0h0v0l0,0s0,0,0,0h0v0l0,0s0,0,0,0l0,0h0s0,0,0,0,0,0,0,0h0l0,0s0,0,0,0l0,0h0l0,0v0l0,0,0,0h0s0,0,0,0v0h0l0,0,0,0v0a4.1,4.1,0,0,0-5.8,0,13.35,13.35,0,0,1-18.83,0,21.54,21.54,0,0,0-30.43,0,4.09,4.09,0,0,0,0,5.79Z"/><path class="cls-1" d="M58,40.9v0l0,0,0,0s0,0,0,0v0l0,0v0h0v0l0,0,0,0,0,0h0l0,0,0,0,0,0v0h0v0l0,0,0,0a0,0,0,0,1,0,0l0,0,0,0,0,0h0l0,0,0,0,0,0h0v0l0,0,0,0h0l0,0,0,0,0,0h0v0l0,0,0,0h0v0s0,0,0,0l0,0h0v0s0,0,0,0l0,0h0a0,0,0,0,0,0,0s0,0,0,0l0,0h0a0,0,0,0,0,0,0s0,0,0,0l0,0h0a0,0,0,0,0,0,0l0,0,0,0h0a0,0,0,0,0,0,0l0,0,0,0h0a0,0,0,0,0,0,0l0,0,0,0,0,0h0l0,0,0,0,0,0h0l0,0,0,0h0v0h0l0,0,0,0,0,0h0l0,0h0l0,0h0l0,0,0,0s0,0,0,0h0l0,0,0,0,0,0h0s0,0,0,0l0,0,0,0h0v0a4.09,4.09,0,0,0-5.8,0,13.33,13.33,0,0,1-18.83,0,21.58,21.58,0,0,0-30.43,0,4.12,4.12,0,0,0,0,5.81s0,0,0,0l0,0h0a0,0,0,0,0,0,0s0,0,0,0l0,0h0a0,0,0,0,0,0,0s0,0,0,0l0,0h0a0,0,0,0,0,0,0l0,0s0,0,0,0h0a0,0,0,0,0,0,0l0,0,0,0h0a0,0,0,0,0,0,0l0,0,0,0h0a0,0,0,0,0,0,0l0,0,0,0h0a0,0,0,0,1,0,0l0,0,0,0,0,0h0v0l0,0,0,0h0l0,0s0,0,0,0l0,0h0l0,0s0,0,0,0l0,0s0,0,0,0H2s0,0,0,0l0,0s0,0,0,0h0s0,0,0,0l0,0,0,0h0s0,0,0,0l0,0s0,0,0,0h0v0l0,0s0,0,0,0h0v0l0,0,0,0h0v0l0,0s0,0,0,0h0v0l0,0,0,0h0v0l0,0,0,0h0v0l0,0s0,0,0,0h0v0l0,0,0,0h0v0l0,0,0,0h0v0l0,0,0,0h0l0,0s0,0,0,0l0,0,0,0h0s0,0,0,0l0,0,0,0H3a4.1,4.1,0,0,0,5.81,0,13.32,13.32,0,0,1,18.82,0,21.51,21.51,0,0,0,30.42,0,4.12,4.12,0,0,0,0-5.81Z"/><path class="cls-1" d="M58,24.48s0,0,0,0l0,0,0,0h0a0,0,0,0,0,0,0l0,0v0h0v0l0,0s0,0,0,0h0v0l0,0,0,0h0v0l0,0v0h0s0,0,0,0,0,0,0,0l0,0h0l0,0s0,0,0,0,0,0,0,0h0l0,0,0,0v0h0s0,0,0,0v0l0,0h0s0,0,0,0l0,0s0,0,0,0h0l0,0s0,0,0,0,0,0,0,0,0,0,0,0h0s0,0,0,0v0s0,0,0,0,0,0,0,0h0s0,0,0,0,0,0,0,0,0,0,0,0h0v0s0,0,0,0l0,0h0s0,0,0,0l0,0,0,0h0s0,0,0,0l0,0s0,0,0,0h0v0l0,0s0,0,0,0h0v0l0,0,0,0h0v0l0,0s0,0,0,0h0v0l0,0s0,0,0,0,0,0,0,0h0s0,0,0,0,0,0,0,0h0l0,0s0,0,0,0,0,0,0,0h0l0,0v0l0,0,0,0h0l0,0s0,0,0,0h0l0,0,0,0s0,0,0,0a4.1,4.1,0,0,0-5.8,0,13.33,13.33,0,0,1-18.83,0,21.56,21.56,0,0,0-30.43,0,4.13,4.13,0,0,0,0,5.82h0l0,0,0,0a0,0,0,0,1,0,0h0s0,0,0,0l0,0a0,0,0,0,1,0,0h0l0,0,0,0a0,0,0,0,1,0,0h0l0,0,0,0a0,0,0,0,1,0,0h0l0,0,0,0a0,0,0,0,1,0,0h0l0,0,0,0a0,0,0,0,1,0,0h0l0,0,0,0v0h0l0,0,0,0,0,0h0l0,0,0,0,0,0s0,0,0,0v0l0,0,0,0s0,0,0,0v0l0,0,0,0s0,0,0,0H2s0,0,0,0l0,0s0,0,0,0v0s0,0,0,0l0,0s0,0,0,0v0h0l0,0s0,0,0,0v0h0l0,0,0,0v0h0l0,0,0,0v0h0l0,0,0,0a0,0,0,0,1,0,0h0s0,0,0,0l0,0a0,0,0,0,1,0,0h0l0,0,0,0a0,0,0,0,1,0,0h0s0,0,0,0l0,0a0,0,0,0,1,0,0h0s0,0,0,0l0,0a0,0,0,0,1,0,0h0l0,0,0,0a0,0,0,0,1,0,0h0l0,0,0,0,0,0h0s0,0,0,0l0,0,0,0h0l0,0,0,0,0,0a4.12,4.12,0,0,0,5.81,0,13.32,13.32,0,0,1,18.82,0,21.58,21.58,0,0,0,30.42,0,4.13,4.13,0,0,0,0-5.82Z"/><path class="cls-2" d="M41.05,51.22a21.47,21.47,0,0,1-15.22-6.29A13.3,13.3,0,0,0,7,44.93,4.11,4.11,0,0,1,1.2,39.12a21.58,21.58,0,0,1,30.43,0,13.33,13.33,0,0,0,18.83,0,4.1,4.1,0,0,1,5.8,5.81,21.47,21.47,0,0,1-15.21,6.29"/><path class="cls-3" d="M41.05,34.79a21.49,21.49,0,0,1-15.22-6.27A13.3,13.3,0,0,0,7,28.52,4.11,4.11,0,0,1,1.2,22.7a21.56,21.56,0,0,1,30.43,0,13.33,13.33,0,0,0,18.83,0,4.11,4.11,0,1,1,5.8,5.82,21.49,21.49,0,0,1-15.21,6.27"/><path class="cls-4" d="M41.05,18.37a21.47,21.47,0,0,1-15.22-6.29A13.34,13.34,0,0,0,7,12.08,4.1,4.1,0,0,1,1.2,6.29a21.54,21.54,0,0,1,30.43,0,13.35,13.35,0,0,0,18.83,0,4.1,4.1,0,1,1,5.8,5.79,21.47,21.47,0,0,1-15.21,6.29"/></svg>