<svg id="Layer_1" data-name="Layer 1" xmlns="http://www.w3.org/2000/svg" xmlns:xlink="http://www.w3.org/1999/xlink" viewBox="0 0 44.75 59.07"><defs><style>.cls-1{fill:#58595b;}.cls-2{fill:url(#Summer_Multicolor);}.cls-3{fill:url(#Summer_Multicolor-2);}.cls-4{fill:url(#Summer_Multicolor-3);}.cls-5{fill:url(#Summer_Multicolor-4);}.cls-6{fill:url(#Summer_Multicolor-5);}.cls-7{fill:url(#Summer_Multicolor-6);}.cls-8{fill:url(#Summer_Multicolor-7);}</style><linearGradient id="Summer_Multicolor" x1="-87.87" y1="37" x2="955.69" y2="37" gradientUnits="userSpaceOnUse"><stop offset="0.11" stop-color="#f0c83b"/><stop offset="0.24" stop-color="#f1563c"/><stop offset="0.27" stop-color="#e65352"/><stop offset="0.32" stop-color="#d34f7a"/><stop offset="0.37" stop-color="#c74c92"/><stop offset="0.39" stop-color="#c34b9b"/><stop offset="0.79" stop-color="#00b3c1"/><stop offset="0.81" stop-color="#00b36c"/><stop offset="1" stop-color="#00b3c1"/></linearGradient><linearGradient id="Summer_Multicolor-2" x1="-87.88" y1="4.78" x2="955.7" y2="4.78" xlink:href="#Summer_Multicolor"/><linearGradient id="Summer_Multicolor-3" x1="-87.87" y1="17.9" x2="955.67" y2="17.9" xlink:href="#Summer_Multicolor"/><linearGradient id="Summer_Multicolor-4" x1="-87.87" y1="17.9" x2="955.68" y2="17.9" xlink:href="#Summer_Multicolor"/><linearGradient id="Summer_Multicolor-5" x1="-87.87" y1="8.62" x2="955.67" y2="8.62" xlink:href="#Summer_Multicolor"/><linearGradient id="Summer_Multicolor-6" x1="-87.87" y1="27.19" x2="955.64" y2="27.19" xlink:href="#Summer_Multicolor"/><linearGradient id="Summer_Multicolor-7" x1="-87.88" y1="8.62" x2="955.73" y2="8.62" xlink:href="#Summer_Multicolor"/></defs><path class="cls-1" d="M17.07,9.21l0,0,0,0,0,0,0,0,0,0,0,0,0,0,0,0,0,0,0,0,0,0,0,0,0,0,0,0,0,0,0,0,0,0,0,0,0,0,0,0,0,0,0,0,0,0,0,0,0,0,0,0,0,0,0,0,0,0,0,0,0,0,0,0,0,0,0,0,0,0,0,0,0,0,0,0,0,0,0,0,0,0,0,0,0,0,0,0,0,0,0,0,0,0,0,0,0,0,0,0a1.19,1.19,0,0,0,2.05-.82V3a1.19,1.19,0,0,0-.37-.86l0,0,0,0,0,0,0,0,0,0,0,0,0,0,0,0,0,0,0,0,0,0,0,0,0,0,0,0,0,0,0,0,0,0,0,0,0,0,0,0,0,0,0,0a.08.08,0,0,0,0,0l0,0,0,0,0,0,0,0,0,0a.08.08,0,0,0,0,0l0,0a.08.08,0,0,0,0,0l0,0a.08.08,0,0,0,0,0l0,0,0,0,0,0,0,0,0,0,0,0,0,0,0,0,0,0,0,0,0,0,0,0,0,0,0,0,0,0,0,0,0,0a1.2,1.2,0,0,0-2.06.83V8.36A1.18,1.18,0,0,0,17.07,9.21Z"/><path class="cls-1" d="M26.26,17.9a1.21,1.21,0,0,0,.36.86l0,0,0,0,0,0a.08.08,0,0,0,0,0l0,0,0,0,0,0a.08.08,0,0,0,0,0l0,0a.08.08,0,0,0,0,0l0,0a.08.08,0,0,0,0,0l0,0,0,0,0,0,0,0,0,0,0,0,0,0,0,0,0,0,0,0,0,0,0,0,0,0,0,0,0,0,0,0,0,0,0,0,0,0,0,0,0,0,0,0,0,0,0,0a.08.08,0,0,0,0,0l0,0,0,0,0,0a.08.08,0,0,0,0,0l0,0a.08.08,0,0,0,0,0l0,0,0,0,0,0,0,0,0,0,0,0,0,0a1.2,1.2,0,0,0,.85.36h7.16a1.18,1.18,0,0,0,.83-2l0,0,0,0,0,0,0,0,0,0,0,0,0,0,0,0,0,0,0,0,0,0,0,0,0,0,0,0,0,0,0,0,0,0,0,0,0,0,0,0,0,0,0,0,0,0,0,0,0,0,0,0,0,0,0,0,0,0,0,0,0,0,0,0,0,0,0,0,0,0,0,0,0,0,0,0,0,0,0,0,0,0,0,0,0,0,0,0,0,0,0,0,0,0,0,0,0,0,0,0a1.18,1.18,0,0,0-.86-.37H27.44A1.18,1.18,0,0,0,26.26,17.9Z"/><path class="cls-1" d="M23.82,12s0,0,0,0l0,0v0h0s0,0,0,0l0,0a0,0,0,0,0,0,0h0s0,0,0,0l0,0a0,0,0,0,1,0,0h0s0,0,0,0l0,0v0h0s0,0,0,0l0,0v0h0s0,0,0,0l0,0v0h0l0,0s0,0,0,0v0h0l0,0h0v0h0l0,0h0s0,0,0,0h0l0,0h0v0h0l0,0h0v0h0a0,0,0,0,0,0,0h0v0l0,0v0h0v0l0,0v0h0l0,0,0,0v0h0l0,0,0,0v0h0l0,0s0,0,0,0v0h0s0,0,0,0l0,0v0h0s0,0,0,0l0,0v0h0s0,0,0,0l0,0v0h0s0,0,0,0l0,0v0h0s0,0,0,0l0,0v0h0l0,0s0,0,0,0v0h0l0,0,0,0v0h0l0,0h0v0h0l0,0h0v0a1.22,1.22,0,0,0,.85.35,1.2,1.2,0,0,0,.84-.35l5.06-5.06a1.19,1.19,0,0,0,0-1.69h0a0,0,0,0,0,0,0l0,0,0,0h0v0l0,0,0,0s0,0,0,0a0,0,0,0,1,0,0s0,0,0,0l0,0h0a0,0,0,0,1,0,0h0l0,0h0a0,0,0,0,1,0,0h0l0,0s0,0,0,0a0,0,0,0,1,0,0h0s0,0,0,0l0,0s0,0,0,0h0s0,0,0,0l0,0s0,0,0,0h0s0,0,0,0l0,0s0,0,0,0h0s0,0,0,0,0,0,0,0,0,0,0,0h0s0,0,0,0l0,0s0,0,0,0h0s0,0,0,0l0,0s0,0,0,0h0v0s0,0,0,0,0,0,0,0h0a0,0,0,0,0,0,0l0,0s0,0,0,0h0v0l0,0s0,0,0,0h0V6s0,0,0,0l0,0h0a0,0,0,0,0,0,0l0,0,0,0h0v0l0,0,0,0h0v0l0,0,0,0h0a0,0,0,0,1,0,0h0l0,0h0a0,0,0,0,1,0,0h0l0,0h0a0,0,0,0,1,0,0h0l0,0s0,0,0,0a0,0,0,0,1,0,0h0s0,0,0,0l0,0s0,0,0,0h0s0,0,0,0l0,0s0,0,0,0h0s0,0,0,0l0,0,0,0h0s0,0,0,0a1.19,1.19,0,0,0-1.69,0L23.8,10.31a1.21,1.21,0,0,0,0,1.69Z"/><path class="cls-1" d="M44.4,42.72,20.54,18.85h0l0,0h0l0,0h0l0,0h0l0,0h0l0,0h0l0,0h0l0,0h0l0,0h0l0,0h0l0,0h0l0,0h0l0,0h0l0,0h0l0,0h0l0,0h0l0,0h0l0,0h0l0,0h0l0,0h0l0,0h0l0,0h0l0,0h0l0,0h0l0,0h0l0,0h0l0,0h0l0,0h0l0,0h0l0,0h0l0,0h0l0,0h0l0,0h0l0,0h0l0,0h0l0,0h0l0,0h0l0,0h0l0,0h0l0,0h0l0,0h0l0,0h0l0,0h0l0,0h0l0,0h0l0,0h0l0,0h0l0,0h0l0,0h0l0,0h0l0,0h0l0,0a1.19,1.19,0,0,0-2,.85V51a1.17,1.17,0,0,0,.41.89l0,0,0,0,0,0s0,0,0,0l0,0,0,0,0,0s0,0,0,0l0,0,0,0,0,0a.08.08,0,0,0,0,0l0,0a.08.08,0,0,0,0,0l0,0s0,0,0,0l0,0,0,0,0,0,0,0,0,0,0,0,0,0,0,0,0,0,0,0,0,0,0,0,0,0,0,0s0,0,0,0l0,0,0,0,0,0s0,0,0,0l0,0s0,0,0,0l0,0s0,0,0,0l0,0,0,0,0,0s0,0,0,0l0,0,0,0,0,0,0,0,0,0,0,0,0,0a1.29,1.29,0,0,0,.3.22,1.2,1.2,0,0,0,1.26-.13l5.5-4.3L30,56.67a1.21,1.21,0,0,0,.21.28l0,0,0,0,0,0,0,0,0,0,0,0,0,0a.08.08,0,0,0,0,0l0,0a.08.08,0,0,0,0,0l0,0a.08.08,0,0,0,0,0l0,0a.08.08,0,0,0,0,0l0,0,0,0,0,0,0,0,0,0,0,0,0,0,0,0,0,0,0,0,0,0,0,0,0,0,0,0,0,0,0,0,0,0,0,0,0,0,0,0,0,0,0,0,0,0,0,0,0,0,0,0,0,0,0,0a.08.08,0,0,0,0,0l0,0,0,0,0,0,0,0,0,0,0,0,0,0a1.22,1.22,0,0,0,.86.36,1.13,1.13,0,0,0,.54-.13l7.16-3.58a1.19,1.19,0,0,0,.61-.71,1.21,1.21,0,0,0-.1-.93l-5-9h7.53a1.22,1.22,0,0,0,1.1-.74A1.2,1.2,0,0,0,44.4,42.72Z"/><path class="cls-1" d="M11.34,19.7a1.2,1.2,0,0,0-.37-.86l0,0,0,0,0,0,0,0,0,0,0,0,0,0,0,0,0,0,0,0,0,0,0,0,0,0,0,0,0,0,0,0,0,0,0,0,0,0,0,0,0,0s0,0,0,0l0,0,0,0,0,0,0,0,0,0,0,0,0,0,0,0,0,0,0,0,0,0,0,0,0,0,0,0,0,0,0,0,0,0,0,0,0,0,0,0,0,0,0,0,0,0,0,0,0,0,0,0,0,0,0,0a1.18,1.18,0,0,0-.86-.37H1.2A1.19,1.19,0,0,0,0,17.9a1.18,1.18,0,0,0,.37.86l0,0,0,0,0,0,0,0,0,0,0,0,0,0,0,0,0,0,0,0,0,0,0,0,0,0,0,0,0,0,0,0,0,0,0,0,0,0,0,0,0,0,0,0,0,0,0,0,0,0,0,0,0,0,0,0,0,0,0,0,0,0,0,0,0,0,0,0,0,0,0,0,0,0,0,0,0,0,0,0,0,0,0,0,0,0,0,0,0,0,0,0,0,0,0,0,0,0,0,0a1.21,1.21,0,0,0,.86.36h7.15A1.19,1.19,0,0,0,11.34,19.7Z"/><path class="cls-1" d="M8.72,7h0l0,0h0l0,0h0l0,0h0l0,0h0l0,0h0l0,0h0l0,0h0l0,0h0l0,0h0l0,0h0l0,0h0l0,0h0l0,0h0l0,0h0l0,0h0l0,0h0l0,0h0l0,0h0l0,0h0l0,0H8l0,0H8l0,0H8l0,0h0l0,0h0l0,0h0l0,0h0l0,0h0l0,0h0l0,0h0l0,0h0l0,0h0l0,0h0l0,0h0l0,0h0l0,0h0l0,0h0l0,0h0l0,0h0l0,0h0l0,0h0l0,0h0l0,0h0l0,0h0l0,0h0l0,0h0l0,0h0l0,0h0l0,0H7l0,0H7l0,0H7l0,0a1.19,1.19,0,0,0-1.69,0,1.21,1.21,0,0,0,0,1.69l0,0h0l0,0h0l0,0h0l0,0h0l0,0h0l0,0h0l0,0h0l0,0h0l0,0h0l0,0h0l0,0h0l0,0h0l0,0h0l0,0h0l0,0h0l0,0h0l0,0h0l0,0h0l0,0h0l0,0H6l0,0H6l0,0H6l0,0h0l0,0h0l0,0h0l0,0h0l0,0h0l0,0h0l0,0h0l0,0h0l0,0h0l0,0h0l0,0h0l0,0h0l0,0h0l0,0h0l0,0h0l0,0h0l0,0h0l0,0h0l0,0h0l0,0h0l0,0h0l0,0h0l0,0h0l0,0h0l0,0h0l0,0h0l0,0H7l0,0H7l0,0H7l5.06,5.06a1.18,1.18,0,0,0,.84.35,1.16,1.16,0,0,0,.84-.35,1.19,1.19,0,0,0,0-1.69Z"/><path class="cls-1" d="M13.76,25.58a0,0,0,0,1,0,0h0l0,0s0,0,0,0a0,0,0,0,1,0,0h0l0,0s0,0,0,0v0h0l0,0s0,0,0,0,0,0,0,0h0l0,0s0,0,0,0,0,0,0,0h0l0,0s0,0,0,0,0,0,0,0h0l0,0,0,0s0,0,0,0h0s0,0,0,0l0,0s0,0,0,0h0s0,0,0,0l0,0s0,0,0,0h0s0,0,0,0l0,0s0,0,0,0h0a0,0,0,0,0,0,0h0l0,0h0a0,0,0,0,0,0,0h0l0,0h0a0,0,0,0,0,0,0s0,0,0,0l0,0,0,0v0h0l0,0,0,0v0h0s0,0,0,0l0,0a0,0,0,0,1,0,0h0l0,0s0,0,0,0a0,0,0,0,1,0,0h0s0,0,0,0,0,0,0,0a0,0,0,0,1,0,0h0s0,0,0,0,0,0,0,0a0,0,0,0,1,0,0h0s0,0,0,0,0,0,0,0,0,0,0,0h0s0,0,0,0,0,0,0,0,0,0,0,0h0s0,0,0,0,0,0,0,0,0,0,0,0h0s0,0,0,0,0,0,0,0,0,0,0,0h0s0,0,0,0l0,0s0,0,0,0h0s0,0,0,0l0,0s0,0,0,0h0s0,0,0,0l0,0s0,0,0,0h0a0,0,0,0,0,0,0,1.2,1.2,0,0,0-1.68,0L5.24,28.87a1.21,1.21,0,0,0,0,1.69h0s0,0,0,0,0,0,0,0v0h0s0,0,0,0,0,0,0,0v0h0s0,0,0,0l0,0v0h0l0,0,0,0s0,0,0,0h0l0,0h0s0,0,0,0h0l0,0h0s0,0,0,0h0l0,0h0s0,0,0,0h0l0,0h0s0,0,0,0,0,0,0,0l0,0h0a0,0,0,0,1,0,0l0,0v0h0a0,0,0,0,1,0,0l0,0v0H6v0l0,0v0h0l0,0s0,0,0,0v0h0l0,0s0,0,0,0a0,0,0,0,0,0,0h0s0,0,0,0,0,0,0,0a0,0,0,0,0,0,0h0l0,0s0,0,0,0v0h0l0,0s0,0,0,0v0h0s0,0,0,0,0,0,0,0v0h0l0,0,0,0v0h0l0,0,0,0v0h0l0,0h0s0,0,0,0h0l0,0h0s0,0,0,0h0l0,0h0v0h0l0,0h0v0l0,0,0,0H7v0l0,0a0,0,0,0,0,0,0H7v0a1.22,1.22,0,0,0,.85.35,1.2,1.2,0,0,0,.84-.35l5.06-5.06a1.19,1.19,0,0,0,0-1.69S13.77,25.59,13.76,25.58Z"/><path class="cls-2" d="M31,57.28a1.16,1.16,0,0,1-1-.61L24.7,47.15l-6.07,4.74a1.18,1.18,0,0,1-1.25.13A1.2,1.2,0,0,1,16.71,51v-33a1.2,1.2,0,0,1,2-.85L42.61,40.93a1.19,1.19,0,0,1-.84,2H34.24l5,9a1.21,1.21,0,0,1,.11.93,1.23,1.23,0,0,1-.61.71l-7.17,3.58a1.09,1.09,0,0,1-.53.13"/><path class="cls-3" d="M17.89,9.55A1.19,1.19,0,0,1,16.7,8.36V1.2a1.2,1.2,0,1,1,2.39,0V8.36a1.19,1.19,0,0,1-1.2,1.19"/><path class="cls-4" d="M8.35,19.09H1.2a1.19,1.19,0,1,1,0-2.38H8.35a1.19,1.19,0,1,1,0,2.38"/><path class="cls-5" d="M34.6,19.09H27.44a1.19,1.19,0,0,1,0-2.38H34.6a1.19,1.19,0,1,1,0,2.38"/><path class="cls-6" d="M11.15,12.35a1.18,1.18,0,0,1-.84-.35L5.24,6.94A1.2,1.2,0,0,1,6.93,5.25L12,10.31a1.2,1.2,0,0,1-.84,2"/><path class="cls-7" d="M6.08,30.91a1.2,1.2,0,0,1-.84-2l5.07-5.06A1.19,1.19,0,0,1,12,25.5L6.93,30.56a1.2,1.2,0,0,1-.85.35"/><path class="cls-8" d="M24.64,12.35a1.2,1.2,0,0,1-.84-2l5.06-5.06a1.2,1.2,0,0,1,1.69,1.69L25.49,12a1.2,1.2,0,0,1-.85.35"/></svg>