<svg id="Layer_1" data-name="Layer 1" xmlns="http://www.w3.org/2000/svg" xmlns:xlink="http://www.w3.org/1999/xlink" viewBox="0 0 58.97 57.09"><defs><style>.cls-1{fill:#58595b;}.cls-2{fill:url(#Summer_Multicolor);}.cls-3{fill:url(#Summer_Multicolor-2);}.cls-4{fill:url(#Summer_Multicolor-3);}.cls-5{fill:url(#Summer_Multicolor-4);}.cls-6{fill:#fff;}</style><linearGradient id="Summer_Multicolor" x1="-372.36" y1="21.04" x2="671.19" y2="21.04" gradientUnits="userSpaceOnUse"><stop offset="0.11" stop-color="#f0c83b"/><stop offset="0.24" stop-color="#f1563c"/><stop offset="0.27" stop-color="#e65352"/><stop offset="0.32" stop-color="#d34f7a"/><stop offset="0.37" stop-color="#c74c92"/><stop offset="0.39" stop-color="#c34b9b"/><stop offset="0.79" stop-color="#00b3c1"/><stop offset="0.81" stop-color="#00b36c"/><stop offset="1" stop-color="#00b3c1"/></linearGradient><linearGradient id="Summer_Multicolor-2" x1="-372.36" y1="40.34" x2="671.19" y2="40.34" xlink:href="#Summer_Multicolor"/><linearGradient id="Summer_Multicolor-3" x1="-372.36" y1="28.35" x2="671.19" y2="28.35" xlink:href="#Summer_Multicolor"/><linearGradient id="Summer_Multicolor-4" x1="-372.36" y1="9.6" x2="671.19" y2="9.6" xlink:href="#Summer_Multicolor"/></defs><path class="cls-1" d="M23.73,11v0l0,0v0h0v0l0,0v0h0v0h0v0h0v0h0v0h0v0h0v0h0v0h0v0h0v0h0v0h0v0h0v0h0v0h0v0h0v0h0v0h0v0h0v0l0,0v0h0v0l0,0v0h0v0l0,0v0h0v0l0,0v0h0v0l0,0v0h0v0l0,0v0h0v0l0,0v0h0v0l0,0v0h0v0h0v0h0v0h0v0h0v0h0v0h0v0h0v0h0v0h0v0h0v0h0v0h0v0h0v0L29,14.08a6.1,6.1,0,0,1,1,.47,5.83,5.83,0,0,1,.48,1L31.34,18,32,19.19h0l0,0h0v0h0l0,0h0v0h0l0,0h0v0h0l0,0h0v0h0l0,0h0l0,0h0l0,0h0l0,0h0l0,0h0l0,0h0l0,0h0l0,0h0l0,0h0l0,0h0l0,0h0l0,0h0l0,0h0l0,0h0v0h0l0,0h0v0h0l0,0h0v0h0l0,0h0v0h0l0,0h0v0h0l0,0h0v0h0l0,0h0v0h0l0,0h0v0h0l0,0h0v0h0l0,0h0v0h0l0,0h0l0,0h0l0,0h0l0,0h0l0,0h0l0,0h0l0,0h0l0,0h0l0,0h0l0,0h1.17l1.4-.15,1.29-3.52a5.44,5.44,0,0,1,3.24-3.24l2.35-.87a1.89,1.89,0,0,0,1.32-1.82L44.38,10h0v0h0v0h0v0h0v0h0v0h0v0h0v0h0v0h0v0l0,0v0h0v0h0v0h0v0l0,0v0h0v0l0,0v0h0v0l0,0v0h0v0l0,0v0h0v0l0,0v0h0v0l0,0v0h0v0h0v0h0v0h0V9h0V9h0V9h0v0h0v0h0v0h0v0h0v0h0v0h0v0h0v0h0v0h0v0h0v0h0v0h0v0h0v0l0,0v0h0v0l0,0v0h0v0l0,0v0h0v0l0,0v0l-3.53-1.3a5.79,5.79,0,0,1-1-.47,5.1,5.1,0,0,1-.47-1L36.7,3a2,2,0,0,0-.33-.52l0,0a.08.08,0,0,1,0,0l0,0,0,0,0,0,0,0,0,0a.08.08,0,0,1,0,0l0,0,0,0,0,0,0,0,0,0,0,0,0,0,0,0,0,0,0,0,0,0,0,0,0,0,0,0,0,0,0,0,0,0,0,0,0,0,0,0,0,0,0,0a.08.08,0,0,1,0,0l0,0,0,0,0,0a.08.08,0,0,1,0,0s0,0,0,0a.08.08,0,0,1,0,0l0,0,0,0,0,0,0,0,0,0,0,0,0,0,0,0,0,0,0,0,0,0,0,0,0,0A1.9,1.9,0,0,0,33.14,0l-1.4.15L30.46,3.67a5.46,5.46,0,0,1-3.24,3.24l-2.41.89a1.92,1.92,0,0,0-1.27,1.8L23.7,11Z"/><path class="cls-1" d="M12.37,34.15l0,0,0,0s0,0,0,0l0,0,0,0,0,0s0,0,0,0l0,0s0,0,0,0l0,0,0,0,0,0a2,2,0,0,0,1.59.78A2,2,0,0,0,16.25,34l1.23-3.33a8.16,8.16,0,0,1,4.83-4.84l3.33-1.23a2,2,0,0,0,.73-3.29l0,0a.08.08,0,0,1,0,0l0,0,0,0,0,0,0,0,0,0,0,0,0,0,0,0,0,0,0,0,0,0,0,0,0,0,0,0,0,0,0,0,0,0,0,0,0,0a.08.08,0,0,0,0,0l0,0,0,0,0,0,0,0,0,0,0,0,0,0,0,0,0,0,0,0,0,0,0,0s0,0,0,0l0,0a.08.08,0,0,1,0,0l0,0,0,0,0,0,0,0,0,0,0,0,0,0,0,0,0,0,0,0,0,0,0,0,0,0a1.79,1.79,0,0,0-.76-.48l-3.33-1.24a8,8,0,0,1-2-1.07,8.34,8.34,0,0,1-1.07-2L16.25,11.5a1.57,1.57,0,0,0-.33-.54l0,0,0,0,0,0,0,0,0,0,0,0,0,0s0,0,0,0l0,0,0,0,0,0,0,0,0,0,0,0,0,0,0,0,0,0,0,0,0,0,0,0,0,0,0,0,0,0,0,0,0,0,0,0,0,0,0,0s0,0,0,0l0,0s0,0,0,0l0,0,0,0,0,0,0,0,0,0,0,0,0,0,0,0,0,0,0,0,0,0,0,0,0,0,0,0,0,0,0,0,0,0,0,0,0,0a2.11,2.11,0,0,0-3.45.5L9.48,13a8.17,8.17,0,0,1-4.83,4.83L1.39,19.08A2,2,0,0,0,0,21a2,2,0,0,0,.78,1.58l0,0,0,0,0,0,0,0,0,0s0,0,0,0l0,0s0,0,0,0l0,0,0,0,0,0s0,0,0,0l0,0,0,0,0,0,0,0,0,0,0,0,0,0,0,0,0,0,0,0,0,0,0,0s0,0,0,0l0,0s0,0,0,0l0,0,0,0,0,0,0,0,0,0,0,0,0,0,0,0,0,0s0,0,0,0l0,0s0,0,0,0l0,0s0,0,0,0l0,0,0,0,0,0,0,0,0,0s0,0,0,0l0,0,0,0,0,0a1.66,1.66,0,0,0,.56.33l3.34,1.23a8.34,8.34,0,0,1,2,1.07,8.34,8.34,0,0,1,1.07,2l1.23,3.34a1.66,1.66,0,0,0,.33.56l0,0s0,0,0,0l0,0,0,0,0,0s0,0,0,0l0,0s0,0,0,0l0,0s0,0,0,0l0,0s0,0,0,0l0,0s0,0,0,0l0,0,0,0,0,0,0,0,0,0s0,0,0,0l0,0,0,0,0,0,0,0,0,0,0,0,0,0,0,0,0,0,0,0,0,0,0,0,0,0,0,0,0,0,0,0,0,0Z"/><path class="cls-1" d="M43.44,40.43l0,0,0,0,0,0,0,0,0,0,0,0,0,0,0,0,0,0,0,0,0,0,0,0,0,0,0,0,0,0,0,0,0,0s0,0,0,0l0,0s0,0,0,0l0,0,0,0,0,0s0,0,0,0l0,0s0,0,0,0l0,0s0,0,0,0l0,0s0,0,0,0l0,0s0,0,0,0l0,0,0,0,0,0,0,0,0,0,0,0,0,0,0,0,0,0,0,0,0,0,0,0,0,0,0,0,0,0,0,0,0,0,0,0a2,2,0,0,0-.59-.35L37,36.81a10.59,10.59,0,0,1-2.79-1.56,10.28,10.28,0,0,1-1.55-2.79l-1.51-4a1.58,1.58,0,0,0-.34-.59l0,0,0,0-.07-.07,0,0,0,0,0,0a.08.08,0,0,1,0,0l-.11-.1,0,0,0,0,0,0-.11-.1,0,0,0,0,0,0,0,0A.46.46,0,0,0,30,27l0,0,0,0,0,0,0,0-.1-.11s0,0,0,0l0,0s0,0,0,0a.08.08,0,0,0,0,0,.23.23,0,0,0-.07-.07l0,0,0,0,0,0,0,0-.1-.11,0,0,0,0,0,0-.1-.11,0,0c-.92-1.09-3.11-.88-3.59.5L24,30.67a10.32,10.32,0,0,1-6.14,6.14l-4.12,1.51a2.08,2.08,0,0,0-.72,3.4l0,0s0,0,0,0l0,0,0,0,0,0,0,0,0,0,0,0s0,0,0,0l0,0,0,0,0,0,0,0,0,0,0,0,0,0,0,0,0,0a.08.08,0,0,0,0,0l0,0a.08.08,0,0,0,0,0l0,0,0,0,0,0,0,0,0,0,0,0s0,0,0,0l0,0,0,0,0,0,0,0,0,0,0,0,0,0,0,0,0,0,0,0,0,0,0,0a.08.08,0,0,1,0,0l0,0,0,0,0,0,0,0,0,0a.08.08,0,0,1,0,0l0,0,0,0a.08.08,0,0,0,0,0,2,2,0,0,0,.79.52l4.09,1.51a10.59,10.59,0,0,1,2.79,1.56A10.14,10.14,0,0,1,24,49.86l1.49,4a2.08,2.08,0,0,0,.53.83l0,0,0,0,0,0,0,0,0,0,0,0,0,0,0,0s0,0,0,0l0,0,0,0,0,0,0,0,0,0,0,0,0,0,0,0,0,0,0,0,0,0s0,0,0,0l0,0,0,0,0,0,0,0,0,0,0,0,0,0,0,0,0,0,0,0,0,0,0,0,0,0,0,0,0,0,0,0,0,0,0,0,0,0,0,0,0,0,0,0,0,0,0,0,0,0,0,0,0,0,0,0s0,0,0,0a2.07,2.07,0,0,0,1.47.61,2,2,0,0,0,1.94-1.35l1.52-4.1a10.29,10.29,0,0,1,6.13-6.13L42.85,44a2.08,2.08,0,0,0,1.39-2A2.05,2.05,0,0,0,43.44,40.43Z"/><path class="cls-1" d="M58.83,28.77h0v0h0v0h0v0l0,0v0h0v0l0,0v0h0v0l0,0v0h0v0l0,0v0h0v0l0,0v0h0v0l0,0v0h0v0l0,0v0h0v0l0,0v0h0v0h0v0h0v0h0v0h0v0h0v0h0v0h0v0h0v0h0v0h0v0h0v0h0v0h0v0h0v0h0v0l0,0v0h0v0l0,0v0h0v0l0,0v0h0v0l0,0v0h0v0l0,0v0h0v0l0,0v0h0v0l0,0v0h0v0l0,0v0h0v0h0v0l-3.37-1.25a4.78,4.78,0,0,1-.79-.38,5.65,5.65,0,0,1-.38-.78l-.8-2.18a2,2,0,0,0-.69-1,.46.46,0,0,0-.07-.07l0,0-.06-.07,0,0s0-.05-.07-.07l0,0,0,0L50.59,21l0,0-.07-.07,0,0s0-.05-.07-.07l0,0s0-.06-.07-.07l0,0a.46.46,0,0,1-.07-.07s0,0,0,0l0,0L50,20.44s0,0,0,0l-.07-.07,0,0a.46.46,0,0,1-.07-.07s0,0,0,0,0-.05-.07-.07l0,0a.46.46,0,0,1-.07-.07l0,0,0,0a.46.46,0,0,0-.07-.07l0,0a.46.46,0,0,1-.07-.07l0,0a.46.46,0,0,0-.07-.07,1.82,1.82,0,0,0-1.16-.41l-1.37.15-1.24,3.37a5,5,0,0,1-3,3l-2.19.81A1.89,1.89,0,0,0,39,28.36l.14,1.37h0v0h0v0h0v0h0v0h0v0h0v0l0,0v0h0v0l0,0v0h0v0l0,0v0h0v0l0,0v0h0v0l0,0v0h0v0l0,0v0h0v0h0v0h0v0h0v0h0v0h0v0h0v0h0v0h0v0h0v0h0v0h0v0h0v0h0v0h0v0h0v0h0v0h0v0h0v0h0v0l0,0v0h0v0l0,0v0h0v0l0,0v0h0v0l0,0v0h0v0l0,0v0h0v0l0,0v0h0v0l0,0v0h0v0l3.36,1.24a4.52,4.52,0,0,1,.8.38,7,7,0,0,1,.38.78l.83,2.27.61,1.24h0l0,0h0l0,0h0l0,0h0l0,0h0l0,0h0l0,0h0l0,0h0l0,0h0l0,0h0l0,0h0v0h0l0,0h0v0h0l0,0h0v0h0l0,0h0v0h0l0,0h0v0h0l0,0h0v0h0l0,0h0v0h0l0,0h0v0h0l0,0h0v0h0l0,0h0l0,0h0l0,0h0l0,0h0l0,0h0l0,0h0l0,0h0l0,0h0l0,0h0l0,0h0l0,0h0l0,0h0l0,0h0l0,0h0v0h0l0,0h0v0h0l0,0h0v0h0l0,0h0v0h0l0,0h0v0h0l0,0h1.17l1.38-.14,1.24-3.36a5,5,0,0,1,3-3l2.28-.84A1.91,1.91,0,0,0,59,30.15Z"/><path class="cls-2" d="M12.59,33.56a2,2,0,0,1-1.88-1.31L9.48,28.91a8.17,8.17,0,0,0-4.83-4.83L1.31,22.85a2,2,0,0,1,.08-3.77l3.26-1.21A8.17,8.17,0,0,0,9.48,13l1.23-3.33a2.08,2.08,0,0,1,3.75,0L15.69,13a8.17,8.17,0,0,0,4.83,4.83l3.33,1.24A2,2,0,0,1,25.17,21a2,2,0,0,1-1.32,1.87l-3.33,1.23a8.17,8.17,0,0,0-4.83,4.83l-1.23,3.34a2,2,0,0,1-1.87,1.31"/><path class="cls-3" d="M27.41,55.3a2.07,2.07,0,0,1-2-1.41l-1.49-4a10.27,10.27,0,0,0-6.14-6.14L13.72,42.2a2.05,2.05,0,0,1-1.35-1.94,2.11,2.11,0,0,1,1.32-1.94l4.12-1.51A10.32,10.32,0,0,0,24,30.67l1.51-4.09a2.17,2.17,0,0,1,3.9,0l1.5,4.05A10.38,10.38,0,0,0,37,36.81l4.09,1.51a2.08,2.08,0,0,1,0,3.9L37,43.72a10.31,10.31,0,0,0-6.14,6.13l-1.51,4.09a2.05,2.05,0,0,1-1.94,1.36"/><path class="cls-4" d="M48.09,37.44H46.92l-.61-1.24-.83-2.27a5,5,0,0,0-3-3l-3.36-1.24L39,28.36a1.89,1.89,0,0,1,1.31-1.81l2.19-.81a5,5,0,0,0,3-3l1.24-3.37,1.37-.15A1.88,1.88,0,0,1,49.9,20.6l.81,2.18a5,5,0,0,0,3,2.95L57,27l.14,1.38A1.91,1.91,0,0,1,56,30.13L53.67,31a5,5,0,0,0-3,3L49.47,37.3Z"/><path class="cls-5" d="M33.14,19.19H32L31.34,18l-.89-2.43a5.43,5.43,0,0,0-3.23-3.23L23.7,11,23.54,9.6a1.92,1.92,0,0,1,1.27-1.8l2.41-.89a5.46,5.46,0,0,0,3.24-3.24L31.74.15,33.14,0a1.94,1.94,0,0,1,1.77,1.17l.91,2.51a5.44,5.44,0,0,0,3.24,3.23l3.53,1.3.15,1.39a1.91,1.91,0,0,1-1.32,1.82l-2.36.87a5.46,5.46,0,0,0-3.24,3.24l-1.29,3.52Z"/><path class="cls-6" d="M18.17,40.26l.81.3a13.67,13.67,0,0,1,8.13,8.13l.3.81.3-.81a13.67,13.67,0,0,1,8.13-8.13l.8-.3-.8-.3a13.68,13.68,0,0,1-8.13-8.12l-.3-.82-.3.82A13.68,13.68,0,0,1,19,40Z"/><path class="cls-6" d="M5.94,21a11.48,11.48,0,0,1,6.64,6.63A11.54,11.54,0,0,1,19.22,21a11.61,11.61,0,0,1-6.64-6.64A11.55,11.55,0,0,1,5.94,21"/><path class="cls-6" d="M29.43,9.6a8.79,8.79,0,0,1,3.71,3.71A8.74,8.74,0,0,1,36.85,9.6a8.77,8.77,0,0,1-3.71-3.7,8.88,8.88,0,0,1-3.71,3.7"/><path class="cls-6" d="M44.85,28.35A8.39,8.39,0,0,1,48.1,31.6a8.27,8.27,0,0,1,3.24-3.24,8.37,8.37,0,0,1-3.24-3.25,8.3,8.3,0,0,1-3.25,3.24"/></svg>