<svg id="Layer_1" data-name="Layer 1" xmlns="http://www.w3.org/2000/svg" xmlns:xlink="http://www.w3.org/1999/xlink" viewBox="0 0 45.75 63.7"><defs><style>.cls-1{fill:#58595b;}.cls-2{fill:url(#Spectrum_);}.cls-3{fill:url(#Spectrum_2);}.cls-4{fill:url(#Spectrum_3);}</style><linearGradient id="Spectrum_" x1="-542.78" y1="30.88" x2="138.22" y2="30.88" gradientUnits="userSpaceOnUse"><stop offset="0" stop-color="#00a8de"/><stop offset="0.2" stop-color="#333391"/><stop offset="0.4" stop-color="#e91388"/><stop offset="0.6" stop-color="#eb2d2e"/><stop offset="0.8" stop-color="#fde92b"/><stop offset="1" stop-color="#009e54"/></linearGradient><linearGradient id="Spectrum_2" x1="-542.78" y1="9.06" x2="138.22" y2="9.06" xlink:href="#Spectrum_"/><linearGradient id="Spectrum_3" x1="-542.78" y1="37.64" x2="138.22" y2="37.64" xlink:href="#Spectrum_"/></defs><path class="cls-1" d="M.54,39.44l0,0,0,0,0,0,0,0a.08.08,0,0,1,0,0l0,0,0,0,0,0,0,0,0,0,0,0,0,0,0,0,0,0,0,0,0,0,0,0a.08.08,0,0,0,0,0l0,0,0,0a.08.08,0,0,1,0,0l0,0,0,0,0,0,0,0,0,0,0,0,0,0a.08.08,0,0,0,0,0l0,0,0,0,0,0s0,0,0,0l0,0,0,0a.08.08,0,0,1,0,0l0,0,0,0,0,0,0,0a.08.08,0,0,1,0,0l0,0,0,0a.08.08,0,0,0,0,0l0,0a.08.08,0,0,1,0,0l0,0s0,0,0,0l0,0,0,0a1.76,1.76,0,0,0,1.26.54H18.26A1.78,1.78,0,0,0,20,40.11V25.54a1.77,1.77,0,0,0-.54-1.27l0,0a.08.08,0,0,1,0,0l0,0a1326885765110.65,1326885765110.65,0,0,1-.08-.08l0,0a.08.08,0,0,1,0,0l0,0,0,0a.08.08,0,0,0,0,0l0,0,0,0,0,0,0,0,0,0,0,0a.08.08,0,0,1,0,0l0,0,0,0,0,0,0,0a.08.08,0,0,1,0,0s0,0,0,0l0,0a.08.08,0,0,0,0,0l0,0a.08.08,0,0,1,0,0l0,0s0,0,0,0l0,0,0,0a.08.08,0,0,1,0,0l0,0,0,0,0,0,0,0,0,0s0,0,0,0l0,0,0,0s0,0,0,0l0,0a.08.08,0,0,1,0,0l0,0,0,0,0,0s0,0,0,0a.08.08,0,0,1,0,0l0,0,0,0a1.74,1.74,0,0,0-1.27-.55H1.78A1.79,1.79,0,0,0,0,23.6V38.16A1.81,1.81,0,0,0,.54,39.44Z"/><path class="cls-1" d="M.54,17.6l0,0,0,0,0,0,0,0,0,0,0,0,0,0,0,0,0,0,0,0,0,0,0,0,0,0,0,0,0,0,0,0,0,0,0,0,0,0,0,0,0,0,0,0,0,0,0,0,0,0,0,0,0,0s0,0,0,0l0,0,0,0,0,0,0,0,0,0,0,0,0,0,0,0,0,0,0,0,0,0,0,0,0,0,0,0,0,0,0,0,0,0,0,0s0,0,0,0l0,0,0,0,0,0a1.73,1.73,0,0,0,1.26.55H18.26A1.78,1.78,0,0,0,20,18.28V3.72a1.77,1.77,0,0,0-.54-1.27l0,0,0,0,0,0,0,0,0,0,0,0,0,0s0,0,0,0l0,0,0,0,0,0,0,0,0,0s0,0,0,0l0,0,0,0,0,0,0,0,0,0,0,0,0,0,0,0,0,0,0,0,0,0,0,0,0,0,0,0,0,0,0,0,0,0,0,0,0,0,0,0,0,0a.08.08,0,0,0,0,0l0,0,0,0,0,0,0,0a.08.08,0,0,0,0,0l0,0s0,0,0,0l0,0,0,0,0,0,0,0s0,0,0,0l0,0,0,0A1.77,1.77,0,0,0,16.32,0H1.78A1.78,1.78,0,0,0,0,1.78V16.32A1.79,1.79,0,0,0,.54,17.6Z"/><path class="cls-1" d="M45.21,20.58a.08.08,0,0,0,0,0l0,0,0,0,0,0,0,0a.08.08,0,0,0,0,0s0,0,0,0l0,0,0,0,0,0s0,0,0,0,0,0,0,0l0,0,0,0,0,0s0,0,0,0l0,0,0,0,0,0,0,0,0,0s0,0,0,0,0,0,0,0l0,0,0,0s0,0,0,0,0,0,0,0l0,0a.08.08,0,0,1,0,0l0,0s0,0,0,0a.08.08,0,0,0,0,0l0,0,0,0,0,0,0,0a.08.08,0,0,0,0,0l0,0,0,0,0,0s0,0,0,0,0,0,0,0,0,0,0,0l0,0,0,0s0,0,0,0a.08.08,0,0,0,0,0l0,0,0,0,0,0A1.78,1.78,0,0,0,42,18.13H31.66A1.81,1.81,0,0,0,31.4,16l0,0,0,0,0,0s0,0,0,0h0v0l0,0v0l0,0s0,0,0,0l0,0s0,0,0,0l0,0,0,0h0v0l0,0v0l0,0v0l0,0s0,0,0,0,0,0,0,0,0,0,0,0l0,0h0l0,0v0l0,0v0l0,0,0,0,0,0,0,0,0,0h0a0,0,0,0,0,0,0v0l0,0v0s0,0,0,0,0,0,0,0l0,0,0,0,0,0h0a0,0,0,0,0,0,0v0l0,0s0,0,0,0l0,0,0,0,0,0s0,0,0,0l0,0h0a0,0,0,0,0,0,0v0l0,0v0l0,0,0,0,0,0,0,0,0,0h0l0,0a0,0,0,0,0,0,0l0,0v0l0,0s0,0,0,0l0,0,0,0,0,0h0a0,0,0,0,0,0,0v0l0,0v0l0,0,0,0,0,0s0,0,0,0,0,0,0,0l0,0h0v0l0,0v0l0,0v0l0,0,0,0,0,0,0,0,0,0a0,0,0,0,1,0,0l0,0v0l0,0v0a1.81,1.81,0,0,0-2.52,0l-4.6,4.61a1.77,1.77,0,0,0,0,2.51l4.61,4.62h0l0,0h0l0,0h0l0,0h0l0,0h0l0,0h0l0,0h0l0,0h0l0,0h0l0,0h0l0,0h0l0,0h0l0,0h0l0,0h0l0,0h0l0,0h0l0,0h0l0,0h0l0,0h0l0,0h0l0,0h0l0,0h0l0,0h0l0,0h0l0,0h0l0,0h0l0,0h0l0,0h0l0,0h0l0,0h0l0,0h0l0,0h0l0,0h0l0,0h0l0,0h0l0,0h0l0,0h0l0,0h0l0,0h0l0,0h0l0,0h0l0,0h0l0,0h0l0,0h0l0,0h0l0,0h0l0,0h0l0,0h0l0,0h0l0,0h0l0,0h0l0,0a1.81,1.81,0,0,0,2.49,0,1.77,1.77,0,0,0,0-2.52l-1.59-1.59H40.25V50.92H20V47.36a1.81,1.81,0,0,0-.54-1.28l0,0,0,0,0,0,0,0,0,0,0,0,0,0,0,0s0,0,0,0l0,0,0,0,0,0,0,0,0,0,0,0,0,0,0,0,0,0,0,0,0,0,0,0,0,0,0,0s0,0,0,0l0,0,0,0,0,0,0,0,0,0,0,0,0,0,0,0,0,0,0,0,0,0,0,0,0,0s0,0,0,0,0,0,0,0l0,0,0,0,0,0,0,0,0,0,0,0,0,0,0,0,0,0,0,0,0,0a1.77,1.77,0,0,0-1.27-.54H1.78A1.78,1.78,0,0,0,0,45.42V60a1.77,1.77,0,0,0,.54,1.27l0,0s0,0,0,0a.08.08,0,0,0,0,0l0,0,0,0s0,0,0,0l0,0,0,0,0,0s0,0,0,0,0,0,0,0l0,0,0,0,0,0s0,0,0,0l0,0,0,0a.08.08,0,0,0,0,0l0,0,0,0s0,0,0,0l0,0,0,0,0,0,0,0s0,0,0,0l0,0a.08.08,0,0,0,0,0,.08.08,0,0,0,0,0l0,0a.08.08,0,0,1,0,0l0,0s0,0,0,0l0,0,0,0a.08.08,0,0,1,0,0l0,0,0,0,0,0,0,0a.08.08,0,0,1,0,0l0,0,0,0a.08.08,0,0,0,0,0l0,0,0,0,0,0,0,0a.08.08,0,0,0,0,0l0,0a1.8,1.8,0,0,0,1.27.54H18.26A1.78,1.78,0,0,0,20,61.93V56.42H44a1.78,1.78,0,0,0,1.78-1.77V21.85A1.77,1.77,0,0,0,45.21,20.58Z"/><path class="cls-2" d="M1.78,39.94H16.32a1.78,1.78,0,0,0,1.78-1.78V23.6a1.79,1.79,0,0,0-1.78-1.78H1.78A1.79,1.79,0,0,0,0,23.6V38.16a1.78,1.78,0,0,0,1.78,1.78"/><path class="cls-3" d="M1.78,18.11H16.32a1.78,1.78,0,0,0,1.78-1.77V1.78A1.78,1.78,0,0,0,16.32,0H1.78A1.78,1.78,0,0,0,0,1.78V16.32a1.79,1.79,0,0,0,1.78,1.79"/><path class="cls-4" d="M42,18.13H27.87l1.58-1.58a1.79,1.79,0,0,0,0-2.51,1.81,1.81,0,0,0-2.52,0l-4.6,4.61a1.77,1.77,0,0,0,0,2.51l4.61,4.62a1.81,1.81,0,0,0,2.49,0,1.77,1.77,0,0,0,0-2.52l-1.59-1.59h12.4V50.92H18.1v-5.5a1.78,1.78,0,0,0-1.78-1.78H1.78A1.78,1.78,0,0,0,0,45.42V60a1.78,1.78,0,0,0,1.78,1.77H16.32A1.78,1.78,0,0,0,18.1,60V54.48H42a1.78,1.78,0,0,0,1.78-1.77V19.91A1.78,1.78,0,0,0,42,18.13Z"/></svg>