<svg id="Layer_1" data-name="Layer 1" xmlns="http://www.w3.org/2000/svg" xmlns:xlink="http://www.w3.org/1999/xlink" viewBox="0 0 64.22 61.47"><defs><style>.cls-1{fill:#58595b;}.cls-2{fill:url(#Spectrum_);}.cls-3{fill:#fff;}</style><linearGradient id="Spectrum_" x1="-0.72" y1="29.81" x2="680.29" y2="29.81" gradientUnits="userSpaceOnUse"><stop offset="0" stop-color="#00a8de"/><stop offset="0.2" stop-color="#333391"/><stop offset="0.4" stop-color="#e91388"/><stop offset="0.6" stop-color="#eb2d2e"/><stop offset="0.8" stop-color="#fde92b"/><stop offset="1" stop-color="#009e54"/></linearGradient></defs><path class="cls-1" d="M63.24,42.93l0,0-.11-.11,0,0,0,0,0,0a.57.57,0,0,0-.11-.11l0,0,0,0,0,0,0,0-.07-.08,0,0,0,0,0,0,0,0a1.14,1.14,0,0,0-.11-.11.08.08,0,0,0,0,0l0,0,0,0,0,0-.07-.07,0,0,0,0,0,0,0,0-.11-.11,0,0,0,0,0,0-.1-.11,0,0,0,0,0,0,0,0-.07-.08,0,0s0,0,0,0a2.36,2.36,0,0,0-.44-.32l-.76-.44a19.77,19.77,0,0,0-.08-2.18.29.29,0,0,1,.11-.29l2.43-1.65a2.75,2.75,0,0,0,1-3.43L62,29.31a2.89,2.89,0,0,0-.46-.71l-.11-.11-.22-.22,0,0a1.62,1.62,0,0,0-.18-.19l0,0a2.18,2.18,0,0,0-.21-.22c-.07-.08-.15-.15-.22-.22s0,0,0,0a2.28,2.28,0,0,0-.22-.22,1.45,1.45,0,0,0-.22-.21.08.08,0,0,0,0,0,1,1,0,0,0-.18-.18l0,0a3.7,3.7,0,0,0-.28-.28,2.79,2.79,0,0,0-1.89-.74,2.62,2.62,0,0,0-.73.1l-2.75.77a.31.31,0,0,1-.27-.08l0,0,0,0,0,0,0,0-.07-.07,0,0,0,0h0v0l.54-2.89a2.7,2.7,0,0,0,0-1.06c.49-.43,1.07-.9,1.73-1.4l3.66-2.76h-.09l.05,0H59.4l.06,0h-.09l.05,0h-.09l.05,0h-.09l.06,0h-.09l.05,0h-.09l.05,0h-.08l.05,0h-.09l.05,0h-.09l0,0h-.08l.05,0H59l.05,0H59l0,0H59l.05,0h-.09l0,0h-.09l0,0h-.08l0,0h-.09l0,0h-.09l0,0h-.08l0,0h-.09l0,0h-.09l.06,0h-.09l0,0H58.6l0,0h-.09l.06,0h-.09l0,0h-.09l0,0h-.08l0,0h-.09l0,0h-.09l0,0h-.08l0,0h-.09l0,0h-.09l0,0h-.08l0,0H58.2l0,0h-.09l.05,0h-.08l0,0h-.09l0,0h-.09l.05,0H58l0,0H58l.05,0h-.09l.05,0h-.08l.05,0h-.09l.05,0h-.09l.05,0H57.8l.05,0h-.09l.05,0h-.09l.06,0h-.09l.05,0h-.09l.05,0h-.08l.05,0-4.59.07h-.61l-1.18,0a16.72,16.72,0,0,1,1.27-1.73l3.56-4.34-.09,0,.06-.07-.1,0,.06-.07-.1,0,.06-.07-.09,0,.06-.07-.1,0,.06-.08-.09,0,.06-.07-.1,0,.06-.07-.1,0,.06-.08-.09,0L55.8,10l-.1,0,.06-.07-.1,0,.06-.08-.09,0,.06-.07-.1,0,.06-.07-.1,0,.06-.08-.09,0,.06-.07-.1,0,.06-.07-.1,0,.06-.08-.09,0,.06-.07-.1,0,.06-.07-.1,0,.06-.08-.09,0,.06-.07-.1,0,.06-.07-.1,0,.06-.08-.09,0,.06-.07-.1,0,.06-.07-.09,0,.05-.08-.09,0,.06-.07-.1,0,.06-.07-.1,0,.07-.07-.1,0L55,9.2l-.1,0L55,9.16l-.09,0L55,9.13l-.1,0,.06-.07-.1,0,.06-.08-.09,0L54.85,9l-.1,0L54.81,9l-.1,0,.06-.08-.09,0,.06-.07-.1,0,.06-.07-.1,0,.06-.08-.09,0,.06-.07-.1,0,.06-.07-.1,0,.06-.08-.09,0,.06-.07-.1,0,.06-.07-.1,0,.06-.07-.09,0,.06-.07-.1,0,.06-.08-.09,0,0-.07-.09,0,.06-.07-.1,0,.06-.08-5.24,2a23.62,23.62,0,0,1-6.23,1.69,17.09,17.09,0,0,1,.33-4.19l1.06-6.06-.06.08,0-.11,0,.07,0-.11-.06.07,0-.11L44,1.83l0-.11L44,1.79l0-.11-.06.07,0-.11-.06.08,0-.11-.05.07,0-.11-.06.07,0-.1-.05.07V1.5l-.05.07,0-.11-.06.08,0-.12-.05.08V1.39l-.05.07,0-.11-.06.08,0-.11-.05.07,0-.11-.06.07,0-.11-.06.08,0-.11-.05.07,0-.11-.06.07,0-.11-.06.08,0-.11,0,.07,0-.11-.06.07,0-.11-.06.08,0-.11,0,.07,0-.11L43.21,1l0-.11L43.17,1l0-.11,0,.07,0-.11L43.1.91l0-.11,0,.08V.77l0,.07,0-.11L43,.8l0-.11,0,.08,0-.11-.06.07,0-.11-.06.07,0-.1,0,.07,0-.11-.06.07,0-.11-.06.08,0-.12,0,.08,0-.11L42.7.51l0-.11-.06.07,0-.1,0,.07,0-.11L42.59.4l0-.11-.06.08,0-.11,0,.07,0-.11-.06.07,0-.11-.06.08,0-.11-.05.07,0-.11-.06.07,0-.11-.06.08,0-.11L42.3.11l0-.11L38.6,4.9C35.66,8.78,34,9.35,33.28,9.35a.71.71,0,0,1-.2,0,16.6,16.6,0,0,1-.83-1.76L30.51,3.33v0l0-.07v0l0-.07v0l0-.07v0l0-.07v0l0-.07v0l0-.07v0l0-.07v0l0-.07v0l0-.07V3l0-.07V3l0-.07V3l0-.07v0l0-.07v0l0-.06v0l0-.07v0l0-.07v0l0-.06v0l0-.07v0l0-.07v0l0-.07v0l0-.07v0l0-.07v0l0-.07v0l0-.07v0l0-.07v0l0-.07v0l0-.07v0l0-.07v0l0-.07v0l0-.07v0l0-.06v0l0-.07v0l0-.07v0l0-.07v0l0-.07v0l0-.07V2l0-.06V2l0-.07V2l0-.07v0l0-.07v0l0-.07v0l0-.07v0l0-.07v0l0-.07v0l0-.07v0l0-.07v0l0-.07v0l0-.07v0l0-.07v0l0-.07v0l0-.07L27.56,5.9c-1.15,4.67-2.72,4.67-3.24,4.67-1,0-2.87-.65-6-3.77L13,1.55l2.87,6.88c2,4.85,1.76,6.09,1.55,6.39-.1.15-.51.32-1.36.32a29.18,29.18,0,0,1-6.71-1.28L2.18,11.92l0,0h0l.06,0h0l0,0h0l0,0h0l.06,0h0l.05,0h0l.05,0h0l.06,0h0l0,0h0l.05,0h0l.06,0h0l0,0h0l0,0h0l.06,0h0l.05,0h0l0,0h0l.05,0h0l.05,0h0l.05,0h0l0,0h0l0,0h0l.06,0H3l.06,0H3l0,0h0l.06,0h0l.05,0h0l.05,0h0l.06,0h0l0,.05h0l0,0h0l.06,0h0l0,0h0l0,0h0l.06,0h0l.05,0h0l0,0h0l0,0h0l.05,0h0l.05,0h0l0,0h0l0,0h0l0,0h0l0,0h0l0,0h0l0,0h0l.05,0h0l.05,0h0l.06,0h0l0,.05H4l0,0H4l.06,0H4l5.88,4.57c.51.4.93.75,1.31,1.07a2.12,2.12,0,0,1,.27.45c-.34.27-1.57.81-6,1.3L0,21.77l.07,0H0l.07,0h0l.08,0h0l.07,0h0l.07,0h0l.08,0h0l.07,0h0l.07,0h0l.07,0h0l.07,0h0l.07,0h0l.07,0h0l.07,0h0l.08,0h0l.07,0h0l.07,0h0l.08,0h0l.07,0h0l.07,0h0l.08,0h0l.07,0h0l.07,0h0l.08,0h0l.07,0h0l.07,0h0l.07,0H1l.07,0H1l.07,0H1l.08,0h0l.07,0h0l.07,0h0l.07,0h0l.07,0h0l.08,0h0l.07,0h0l.07,0h0l.08,0h0l.07,0h0l.07,0h0l.08,0h0l.07,0h0l.07,0h0l.08,0h0l.07,0h0l.07,0h0l.08,0h0l.07,0h0l.07,0h0l.07,0h0l.07,0h0l.07,0h0l5,2.25a23.67,23.67,0,0,1,3.27,1.73.69.69,0,0,1,0,.24c.08.72-.61,2.17-4.38,4.94l-4.07,3h.09l-.06,0h.1l-.06,0h.09l0,0H2l-.06,0H2l-.06,0H2L2,36h.09L2,36h.1l-.06,0h.09l0,0h.09l-.06,0h.1l-.06,0h.09l-.05,0h.09l-.06,0h.1l-.06,0h.09l-.06.05h.1l-.06,0h.1l-.06,0h.09l-.06.05h.1l-.06,0h.1l-.06,0h.09l-.06.05h.1l-.06,0h.1l-.06,0h.09l-.06.05h.1l-.06,0h.09l0,0h.09l-.06,0h.1l-.06,0h.09l0,.05H2.9l-.06,0h.1l-.06,0H3l-.05,0H3L3,37h.1L3,37h.09l-.05,0h.09l-.06,0h.1l-.06,0h.09l0,0h.09l-.06,0h.1l-.06,0H3.3l-.06,0h.1l-.06,0h.1l-.06,0h.09l-.06,0h.1l-.06,0h.09l0,0h.09l-.06,0h.1l-.06,0h.09l0,0h.09l-.06,0h.1l-.06,0,5.05-.31c.9-.05,1.67-.08,2.37-.08a14.09,14.09,0,0,1,2.7.22,11.13,11.13,0,0,1-1.14,3.94l-2,4.64.08-.05,0,.09.08-.05,0,.08.07,0,0,.08.08-.05,0,.09.07-.05,0,.08.07-.05,0,.09.08-.05,0,.09.07,0,0,.08.07-.05,0,.09.08,0,0,.09.07,0,0,.08.07-.05,0,.09.08,0,0,.09.07,0,0,.08.07,0,0,.09.08,0,0,.09.07,0,0,.08.07,0,0,.09.08,0,0,.08.07,0,0,.08.08,0,0,.09.07,0,0,.08.07,0,0,.08.08,0,0,.09.07,0,0,.08.07,0,0,.09.08,0,0,.09.07,0,0,.08.07,0,0,.09.08,0,0,.09.07,0,0,.08.07,0,0,.09.08,0,0,.09.07-.05,0,.08.07,0,0,.09.08-.05,0,.09.07-.05,0,.08.07,0,0,.09L12,47.4l0,.09.07-.05,0,.08.07-.05,0,.09.08-.05,0,.08.07,0,0,.08.08-.05,0,.09.07-.05,0,.08.07-.05,0,.09.08-.05,0,.09.07-.05,0,.08.07,0,0,.08.08-.05,0,.09.07,0,0,.08,4.21-2.79c1.4-.93,2.78-1.81,4-2.49a2.76,2.76,0,0,0-.42,2.93l1.59,3.48a2.89,2.89,0,0,0,.46.71l.11.11c.07.08.15.15.22.22l0,0,.18.19,0,0,.22.22a1.52,1.52,0,0,0,.22.22l0,0,.22.22.22.22,0,0a1.62,1.62,0,0,0,.18.19l0,0a1.85,1.85,0,0,0,.28.28,2.75,2.75,0,0,0,1.88.75,2.25,2.25,0,0,0,.72-.11l2.81-.74a.28.28,0,0,1,.24.07h0l0,0,0,0,0,0,0,0,.07.07,0,0,0,0,0,0h0v0L29.8,55a2.75,2.75,0,0,0,.9,2.62l0,0,0,0,0,0,0,0,0,0,0,0,0,0,0,0,0,0s0,0,0,0l0,0,0,0s0,0,0,0l0,0,0,0s0,0,0,0l0,0,0,0s0,0,0,0l0,0s0,0,0,0l0,0,0,0s0,0,0,0,0,0,0,0l0,0,0,0,0,0,0,0,0,0,0,0,0,0,0,0,0,0,0,0,0,0,0,0,0,0,0,0,0,0,0,0,0,0,0,0,0,0,0,0,0,0,0,0,0,0,0,0,0,0a2.69,2.69,0,0,0,.88.53L37,61.3a2.72,2.72,0,0,0,1,.17,2.78,2.78,0,0,0,2.41-1.39l1.44-2.5a.34.34,0,0,1,.29-.15,17.21,17.21,0,0,0,2.27-.06l.45.66a2.56,2.56,0,0,0,.46.52s0,0,0,0l0,0,0,0s0,0,0,0l0,0,0,0,0,0,0,0,0,0,0,0,0,0,0,0,0,0,0,0,0,0,0,0,0,0,0,0,0,0,0,0,0,0,0,0,0,0,0,0,0,0,0,0,0,0,0,0,0,0,0,0,0,0,0,0s0,0,0,0l0,0,0,0s0,0,0,0l0,0,0,0s0,0,0,0l0,0s0,0,0,0l0,0,0,0a.08.08,0,0,0,0,0l0,0,0,0,0,0,0,0,0,0,0,0a2.77,2.77,0,0,0,1.86.73,2.83,2.83,0,0,0,1.16-.24l3.47-1.59A2.78,2.78,0,0,0,55.16,56l-.76-2.75a.34.34,0,0,1,.11-.31,15.48,15.48,0,0,0,1.88-2,.31.31,0,0,1,.3-.12l2.89.55a2.92,2.92,0,0,0,.51,0,2.79,2.79,0,0,0,2.61-1.8L64.05,46A2.77,2.77,0,0,0,63.24,42.93ZM37.16,40.35a5.69,5.69,0,0,1,.32-2.18h0a5.68,5.68,0,0,1,5.38-3.78,5.87,5.87,0,0,1,1.92.33,5.1,5.1,0,0,1,1.05.51,5.77,5.77,0,0,1,.79,4l0,.11-.07,0a5.06,5.06,0,0,1-.22.85,5.85,5.85,0,0,1-.74,1.4A5.71,5.71,0,0,1,41,43.93a6.05,6.05,0,0,1-1.92-.33A5.92,5.92,0,0,1,38,43.07,5.69,5.69,0,0,1,37.16,40.35Z"/><path class="cls-2" d="M61,40.78l-2.48-1.44a.3.3,0,0,1-.15-.27,18.31,18.31,0,0,0-.07-2.77.29.29,0,0,1,.11-.29l2.43-1.65a2.75,2.75,0,0,0,1-3.43l-1.59-3.48a2.74,2.74,0,0,0-2.52-1.62,2.62,2.62,0,0,0-.73.1l-2.75.77a.3.3,0,0,1-.3-.1,18,18,0,0,0-2-1.9.25.25,0,0,1-.11-.28l.54-2.89a2.7,2.7,0,0,0,0-1.06c.49-.44,1.07-.91,1.72-1.4l3.67-2.76-4.59.07h-.61c-2.77,0-3.51-.36-3.69-.48,0-.21.2-1,1.92-3.13l3.56-4.34-5.24,2c-1.93.73-4.68,1.7-6.38,1.7-.93,0-1.18-.28-1.27-.39-.41-.5-.77-1.88-.11-5.67L42.32,0,38.6,4.9C35.66,8.78,34,9.35,33.28,9.35c-1.22,0-2.19-2-2.89-3.66L28.65,1.46,27.56,5.9c-1.15,4.67-2.72,4.67-3.24,4.67-1,0-2.87-.65-6-3.77L13,1.55l2.87,6.88c2,4.85,1.76,6.09,1.55,6.39-.1.15-.51.32-1.36.32a29.18,29.18,0,0,1-6.71-1.28L2.18,11.92l5.87,4.56c2.75,2.13,3.33,3.07,3.45,3.39-.34.27-1.57.81-6,1.3L0,21.77,5,24c4.15,1.86,5.12,3.11,5.19,3.83S9.59,30,5.82,32.79l-4.07,3,5.05-.31c.9,0,1.67-.08,2.36-.08,2.46,0,3.92.35,4.37,1,.28.43.53,1.65-.94,5l-2,4.64,4.22-2.8c2.93-1.94,5.84-3.73,7.34-3.73.27,0,.75,0,1.21,1.17l-2.13,1.44a2.75,2.75,0,0,0-1,3.43l1.59,3.48a2.76,2.76,0,0,0,2.52,1.62,2.14,2.14,0,0,0,.71-.1l2.81-.74a.3.3,0,0,1,.29.1,16.08,16.08,0,0,0,2,1.9.38.38,0,0,1,.12.29L29.8,55a2.75,2.75,0,0,0,1.75,3.12l3.6,1.35a2.81,2.81,0,0,0,1,.17,2.78,2.78,0,0,0,2.41-1.39L40,55.71a.36.36,0,0,1,.29-.14,18.06,18.06,0,0,0,2.65-.09.34.34,0,0,1,.29.12L44.85,58a2.79,2.79,0,0,0,2.29,1.22A2.83,2.83,0,0,0,48.3,59l3.47-1.59a2.78,2.78,0,0,0,1.53-3.24l-.76-2.76a.33.33,0,0,1,.11-.3,16.2,16.2,0,0,0,1.88-2,.31.31,0,0,1,.3-.12l2.89.55a2.92,2.92,0,0,0,.51,0,2.79,2.79,0,0,0,2.61-1.8l1.35-3.61A2.8,2.8,0,0,0,61,40.78ZM46.68,39.31l-.07,0a5.06,5.06,0,0,1-.22.85,5.85,5.85,0,0,1-.74,1.4A5.71,5.71,0,0,1,41,43.93a6.05,6.05,0,0,1-1.92-.33,5.69,5.69,0,0,1-3.46-7.29h0A5.68,5.68,0,0,1,41,32.52a5.59,5.59,0,0,1,4,1.61,5.85,5.85,0,0,1,.83,1A5.72,5.72,0,0,1,46.7,38a5.56,5.56,0,0,1-.07,1.22Z"/><path class="cls-3" d="M23.5,37.15,21,35.71a2.75,2.75,0,0,1-1.22-3.38l1.34-3.61s0,0,0,0A2.82,2.82,0,0,1,23.74,27a2.74,2.74,0,0,1,.5,0l2.86.56a.34.34,0,0,0,.28-.11,19.45,19.45,0,0,1,1.85-2.06.23.23,0,0,0,.09-.28l-.73-2.81a2.75,2.75,0,0,1,1.51-3.24l3.48-1.59a3,3,0,0,1,1.15-.24A2.77,2.77,0,0,1,37,18.45l1.63,2.41A.35.35,0,0,0,39,21a17.34,17.34,0,0,1,2.88-.09.31.31,0,0,0,.29-.14l1.43-2.46A2.8,2.8,0,0,1,46,16.88a2.64,2.64,0,0,1,1,.18l3.62,1.35a2.65,2.65,0,0,1,1,.66,25.68,25.68,0,0,1,2.28-1.91c-6.16.1-7.56-1.18-3.56-6.06-8.34,3.16-11.28,2.73-9.75-6-6.63,8.73-9.21,4.27-10.78.45C28.56,10.27,25.92,15,18,7.14c3.84,9.21,1.75,10.15-8.28,7.45,6.49,5,5,6.43-3.35,7.35,7.84,3.52,8,6.25,1.09,11.33,7.66-.46,10.38.85,7.25,8,4.44-2.94,7.21-4.43,9-3.86h0A.33.33,0,0,0,23.5,37.15Z"/></svg>