<svg id="Layer_1" data-name="Layer 1" xmlns="http://www.w3.org/2000/svg" xmlns:xlink="http://www.w3.org/1999/xlink" viewBox="0 0 64.08 64.11"><defs><style>.cls-1{fill:#58595b;}.cls-2{fill:#fff;}.cls-3{fill:url(#Spectrum_);}.cls-4{fill:url(#Spectrum_2);}</style><linearGradient id="Spectrum_" x1="-436.43" y1="40.67" x2="244.58" y2="40.67" gradientUnits="userSpaceOnUse"><stop offset="0" stop-color="#00a8de"/><stop offset="0.2" stop-color="#333391"/><stop offset="0.4" stop-color="#e91388"/><stop offset="0.6" stop-color="#eb2d2e"/><stop offset="0.8" stop-color="#fde92b"/><stop offset="1" stop-color="#009e54"/></linearGradient><linearGradient id="Spectrum_2" x1="-436.43" y1="31.08" x2="244.58" y2="31.08" xlink:href="#Spectrum_"/></defs><path class="cls-1" d="M63.54,25.29s0,0,0,0,0,0,0,0l0,0,0,0,0,0s0,0,0,0l0,0,0,0,0,0s0,0,0,0l0,0,0,0,0,0,0,0,0,0,0,0s0,0,0,0l0,0,0,0,0,0,0,0s0,0,0,0l0,0,0,0s0,0,0,0l0,0,0,0,0,0,0,0,0,0,0,0s0,0,0,0l0,0,0,0s0,0,0,0l0,0s0,0,0,0l0,0,0,0,0,0,0,0,0,0,0,0,0,0,0,0,0,0s0,0,0,0,0,0,0,0l0,0,0,0a2.36,2.36,0,0,0-.36-.34L32.84.6A2.91,2.91,0,0,0,29.3.6L.86,23.05a1.94,1.94,0,0,0-.77,2.19A1.85,1.85,0,0,0,.58,26l0,0,0,0,0,0,0,0,0,0,0,0,0,0,0,0,0,0,0,0,0,0,0,0,0,0,0,0,0,0,0,0,0,0,0,0,0,0,0,0,0,0,0,0,0,0,0,0,0,0,0,0,0,0,0,0,0,0,0,0,0,0,0,0,0,0,0,0,0,0s0,0,0,0,0,0,0,0l0,0,0,0,0,0,0,0,0,0,0,0,0,0,0,0,0,0,0,0,0,0,0,0,0,0a2,2,0,0,0,1.5.54H7.7V59.57a2.65,2.65,0,0,0,.77,1.86l0,0,0,0,0,0s0,0,0,0l0,0,0,0s0,0,0,0,0,0,0,0l0,0,0,0,0,0,0,0,0,0s0,0,0,0l0,0,0,0,0,0a.08.08,0,0,0,0,0l0,0,0,0,0,0,0,0s0,0,0,0l0,0,0,0,0,0,0,0,0,0,0,0,0,0,0,0,0,0,0,0,0,0,0,0,0,0,0,0s0,0,0,0,0,0,0,0l0,0,0,0,0,0,0,0,0,0,0,0,0,0,0,0,0,0s0,0,0,0l0,0a2.57,2.57,0,0,0,1.84.78h41.6a2.59,2.59,0,0,0,2.57-2.6V28.41H62a1.9,1.9,0,0,0,2-1.23A1.87,1.87,0,0,0,63.54,25.29Z"/><path class="cls-2" d="M24.94,31.52a12.68,12.68,0,0,0-2,15.61.54.54,0,0,1-.07.64l-6.6,6.6c-1.32,1.31-1.63,3.15-.46,4.32l.2.2c1.16,1.16,3,.85,4.31-.46L27,51.84a.57.57,0,0,1,.67-.09,12.7,12.7,0,0,0,15.61-1.94A12.93,12.93,0,1,0,24.94,31.52Zm15.9,15.9a9.56,9.56,0,1,1,0-13.51A9.57,9.57,0,0,1,40.84,47.42Z"/><path class="cls-3" d="M27.32,33.91a9.56,9.56,0,1,0,13.52,0A9.57,9.57,0,0,0,27.32,33.91Z"/><path class="cls-4" d="M61.28,23.05,32.84.6A2.91,2.91,0,0,0,29.3.6L.86,23.05a1.94,1.94,0,0,0-.77,2.19,1.9,1.9,0,0,0,2,1.23H7.7v33.1a2.59,2.59,0,0,0,2.57,2.6h41.6a2.59,2.59,0,0,0,2.57-2.6V26.47H60.1a1.9,1.9,0,0,0,1.95-1.23A1.93,1.93,0,0,0,61.28,23.05ZM43.23,49.81a12.7,12.7,0,0,1-15.61,1.94.57.57,0,0,0-.67.09l-6.58,6.59c-1.31,1.31-3.15,1.62-4.31.46l-.2-.2c-1.17-1.17-.86-3,.46-4.32l6.6-6.6a.54.54,0,0,0,.07-.64,12.68,12.68,0,0,1,2-15.61A12.93,12.93,0,1,1,43.23,49.81Z"/></svg>