<svg xmlns="http://www.w3.org/2000/svg" viewBox="0 0 64.22 64.22"><defs><style>.cls-1{isolation:isolate;}.cls-2{fill:#68c4a6;}.cls-3{mix-blend-mode:darken;opacity:0.5;}.cls-4{fill:#fff;}</style></defs><g class="cls-1"><g id="Layer_1" data-name="Layer 1"><rect class="cls-2" width="64.22" height="64.22" rx="10.03"/><path class="cls-3" d="M55.87,24.91a.94.94,0,0,0-.1-.1l-.1-.1-.1-.1a.94.94,0,0,0-.1-.1l-.09-.1-.1-.09-.1-.1A6634428825535.07,6634428825535.07,0,0,1,55,24l-.09-.1-.1-.1a.47.47,0,0,1-.1-.1l-.1-.09-.1-.1-.1-.1-.1-.1-.09-.1a.47.47,0,0,1-.1-.1L54,23l-.1-.1a3980657295328.27,3980657295328.27,0,0,1-.2-.2l-.1-.1-.09-.1-.1-.09a6634428825560,6634428825560,0,0,0-.2-.2l-.1-.1a.94.94,0,0,0-.1-.1L52.92,22l-.1-.11-.1-.09a.47.47,0,0,0-.1-.1,2843326639514.89,2843326639514.89,0,0,0-.2-.2l-.09-.1-.1-.1-.1-.09a.94.94,0,0,0-.1-.1l-.1-.1-.09-.1-.11-.1-.09-.09-.1-.1-.1-.1a.47.47,0,0,0-.1-.1.94.94,0,0,0-.1-.1l-.09-.1a.47.47,0,0,1-.1-.1L51,20a2.83,2.83,0,0,0-2-.95c-1.93,0-3.51,2.33-3.51,5.19v4.55L32.26,21.24c-2.48-1.42-4.5-.25-4.5,2.62v4L16.27,21.24c-2.49-1.42-4.5-.26-4.5,2.62V40.37a3.54,3.54,0,0,0,.86,2.55l.1.1.09.1.1.1.1.09.1.11.09.09.11.1.09.1.1.1.1.09.1.11.1.09.1.1.09.1.1.1.1.1.1.09.1.11.1.09.09.1.1.1a.94.94,0,0,1,.1.1l.1.09.1.1.1.1.09.1.11.1.09.1.1.09.1.1.1.1.1.1.09.1a.94.94,0,0,1,.1.1l.1.09.1.1.1.1a.47.47,0,0,0,.1.1l.09.1.1.1.1.09.1.11.1.09.1.1.09.1a.47.47,0,0,1,.1.1l.1.1.1.09.1.1.1.1c.8.93,2.18,1,3.74.16l7.88-4.53s0,0,0,0l.1.1.1.1.1.1.09.09.11.11.09.09.1.1.1.1.1.1.1.1.09.09.1.11.1.09.1.1.1.1.1.1.09.09.1.1.1.1.1.1a.94.94,0,0,0,.1.1l.1.1.1.1.09.09.1.1.1.1.1.1.1.1.09.09.1.1.1.1.1.1a.94.94,0,0,0,.1.1l.1.1.09.09.1.11.1.09.1.1a.94.94,0,0,0,.1.1l.1.1.09.09.1.1a.94.94,0,0,0,.1.1l.1.1c.81.93,2.18,1,3.74.16l8.78-5a4.8,4.8,0,0,0,1,1.37.94.94,0,0,1,.1.1l.1.09.1.1a.47.47,0,0,0,.1.1l.09.1.1.1.1.09.1.11.1.09.09.1.1.1.1.1a.47.47,0,0,1,.1.1l.1.09.1.1a.47.47,0,0,0,.1.1l.09.1.1.1.1.1.1.09a3980657295328.45,3980657295328.45,0,0,1,.2.2l.1.1.09.1.1.09.1.11.1.09.1.1.1.1.09.1.1.1.1.09a3980657295328.45,3980657295328.45,0,0,1,.2.2l.09.1.1.1a.47.47,0,0,1,.1.1l.1.09.1.1.1.1a.94.94,0,0,0,.1.1l.09.1.1.1.1.09a3980657295328.45,3980657295328.45,0,0,1,.2.2l.1.1.09.1.1.1.1.1a2.8,2.8,0,0,0,2,.94c1.95,0,3.52-2.32,3.52-5.19V29.25A6.07,6.07,0,0,0,55.87,24.91Z"/><path class="cls-4" d="M16.27,21.24l11.49,6.59v-4c0-2.87,2-4,4.5-2.62l13.16,7.54V24.23C45.42,21.37,47,19,48.93,19s3.52,2.33,3.52,5.19V40c0,2.87-1.57,5.19-3.52,5.19S45.42,42.86,45.42,40V35.44L32.26,43c-2.48,1.42-4.5.25-4.5-2.62v-4L16.27,43c-2.49,1.42-4.5.25-4.5-2.62V23.86C11.77,21,13.78,19.82,16.27,21.24Z"/></g></g></svg>