<svg id="Layer_1" data-name="Layer 1" xmlns="http://www.w3.org/2000/svg" xmlns:xlink="http://www.w3.org/1999/xlink" viewBox="0 0 64.22 64.21"><defs><style>.cls-1{fill:#58595b;}.cls-2{fill:#fff;}.cls-3{fill:none;}.cls-4{fill:url(#Spectrum_);}</style><linearGradient id="Spectrum_" x1="-262.05" y1="31.13" x2="418.96" y2="31.13" gradientUnits="userSpaceOnUse"><stop offset="0" stop-color="#00a8de"/><stop offset="0.2" stop-color="#333391"/><stop offset="0.4" stop-color="#e91388"/><stop offset="0.6" stop-color="#eb2d2e"/><stop offset="0.8" stop-color="#fde92b"/><stop offset="1" stop-color="#009e54"/></linearGradient></defs><path class="cls-1" d="M63.85,22.65s0,0,0,0l0,0s0,0,0,0,0,0,0,0l0,0,0,0s0,0,0,0,0,0,0,0,0,0,0,0l0,0a.08.08,0,0,1,0,0l0,0,0,0,0,0,0,0,0,0,0,0,0,0s0,0,0,0,0,0,0,0,0,0,0,0l0,0a.08.08,0,0,1,0,0l0,0s0,0,0,0a.08.08,0,0,0,0,0l0,0,0,0,0,0,0,0,0,0s0,0,0,0l0,0,0,0,0,0s0,0,0,0,0,0,0,0l0,0,0,0,0,0,0,0s0,0,0,0l0,0,0,0s0,0,0,0l0,0,0,0s0,0,0,0,0,0,0,0,0,0,0,0a1.16,1.16,0,0,0-.86-.37H43.86V3.16a1.21,1.21,0,0,0-.38-.87l0,0,0,0s0,0,0,0l0,0,0,0,0,0,0,0,0,0,0,0,0,0,0,0,0,0,0,0,0,0,0,0,0,0,0,0,0,0,0,0,0,0,0,0,0,0,0,0,0,0,0,0,0,0,0,0,0,0,0,0,0,0,0,0,0,0,0,0,0,0,0,0,0,0,0,0,0,0,0,0,0,0,0,0,0,0,0,0,0,0,0,0,0,0,0,0,0,0,0,0,0,0A1.18,1.18,0,0,0,40.71,0H1.21A1.2,1.2,0,0,0,0,1.2V40.71a1.2,1.2,0,0,0,.38.86l0,0,0,0,0,0,0,0,0,0,0,0,0,0,0,0,0,0,0,0,0,0,0,0,0,0,0,0s0,0,0,0l0,0,0,0,0,0,0,0,0,0,0,0,0,0,0,0,0,0,0,0,0,0,0,0,0,0,0,0,0,0,0,0,0,0,0,0,0,0,0,0a.08.08,0,0,0,0,0l0,0,0,0,0,0,0,0,0,0,0,0,0,0,0,0,0,0,0,0,0,0,0,0,0,0,0,0a1.2,1.2,0,0,0,.87.37h17.2v17.2a1.19,1.19,0,0,0,.38.86l0,0,0,0,0,0,0,0,0,0,0,0,0,0,0,0,0,0,0,0a.08.08,0,0,1,0,0s0,0,0,0l0,0a.08.08,0,0,0,0,0l0,0s0,0,0,0a.08.08,0,0,1,0,0l0,0,0,0,0,0,0,0,0,0,0,0s0,0,0,0l0,0a.08.08,0,0,0,0,0l0,0a.08.08,0,0,1,0,0l0,0,0,0,0,0,0,0,0,0s0,0,0,0l0,0a.08.08,0,0,0,0,0,.08.08,0,0,0,0,0l0,0,0,0,0,0,0,0a.08.08,0,0,0,0,0l0,0,0,0s0,0,0,0l0,0,0,0,0,0a.08.08,0,0,0,0,0l0,0a1.2,1.2,0,0,0,.87.37H63A1.2,1.2,0,0,0,64.22,63V23.51A1.16,1.16,0,0,0,63.85,22.65Z"/><path class="cls-2" d="M22.09,20.84H40.48V2.46h-38v38h18.4V22.07a1.23,1.23,0,0,1,1.23-1.23"/><path class="cls-2" d="M40.71,41.91h-18v18H59.86V22.75h-18v18a1.2,1.2,0,0,1-1.2,1.2"/><path class="cls-3" d="M40.48,2.46h-38v38H20.85V22.07a1.24,1.24,0,0,1,1.23-1.23h18.4Z"/><path class="cls-3" d="M41.91,40.71a1.2,1.2,0,0,1-1.2,1.2h-18v18H59.86V22.75h-18Z"/><path class="cls-4" d="M61.07,20.36H41.91V1.21A1.2,1.2,0,0,0,40.71,0H1.21A1.2,1.2,0,0,0,0,1.2V40.71A1.19,1.19,0,0,0,1.2,41.9H20.36V61.06a1.21,1.21,0,0,0,1.21,1.19h39.5a1.19,1.19,0,0,0,1.2-1.19V21.56A1.19,1.19,0,0,0,61.07,20.36ZM20.36,21.55v18H2.4V2.4H39.52v18h-18A1.2,1.2,0,0,0,20.36,21.55Zm39.5,38.32H22.75v-18h18a1.2,1.2,0,0,0,1.2-1.2v-18h18Z"/></svg>