<svg id="Layer_1" data-name="Layer 1" xmlns="http://www.w3.org/2000/svg" xmlns:xlink="http://www.w3.org/1999/xlink" viewBox="0 0 64.38 64.28"><defs><style>.cls-1{fill:#58595b;}.cls-2{fill:#fff;}.cls-3{fill:url(#Spectrum_);}</style><linearGradient id="Spectrum_" x1="-173.37" y1="31.16" x2="507.63" y2="31.16" gradientUnits="userSpaceOnUse"><stop offset="0" stop-color="#00a8de"/><stop offset="0.2" stop-color="#333391"/><stop offset="0.4" stop-color="#e91388"/><stop offset="0.6" stop-color="#eb2d2e"/><stop offset="0.8" stop-color="#fde92b"/><stop offset="1" stop-color="#009e54"/></linearGradient></defs><path class="cls-1" d="M64,49s0,0,0,0l0,0,0,0,0,0a.08.08,0,0,1,0,0s0,0,0,0,0,0,0,0l0,0,0,0a.08.08,0,0,1,0,0l0,0,0,0,0,0a.08.08,0,0,0,0,0l0,0s0,0,0,0,0,0,0,0l0,0a.08.08,0,0,0,0,0l0,0,0,0s0,0,0,0l0,0,0,0a.08.08,0,0,0,0,0l0,0,0,0,0,0s0,0,0,0l0,0a.08.08,0,0,0,0,0l0,0,0,0s0,0,0,0l0,0,0,0,0,0,0,0s0,0,0,0l0,0,0,0a.08.08,0,0,0,0,0,.08.08,0,0,0,0,0l0,0a.08.08,0,0,1,0,0s0,0,0,0l0,0,0,0,0,0,0,0a1.55,1.55,0,0,0-.39-.33l-1.11-.65a.59.59,0,0,1,0-.14,16.27,16.27,0,0,0-.07-2.42,1.48,1.48,0,0,1,.66-1.42l2.3-1.56A1.4,1.4,0,0,0,64,38.85l-.76-1.65-.75-1.65a1.43,1.43,0,0,0-.31-.42l0,0,0,0,0,0,0,0,0,0,0,0,0,0,0,0,0,0,0,0,0,0,0,0,0,0,0,0,0,0,0,0,0,0,0,0,0,0,0,0,0,0,0,0,0,0,0,0,0,0,0,0,0,0,0,0,0,0,0,0,0,0,0,0,0,0,0,0,0,0,0,0,0,0,0,0,0,0,0,0,0,0,0,0s0,0,0,0l0,0,0,0,0,0,0,0,0,0,0,0,0,0a1.41,1.41,0,0,0-1.36-.38l-1.21.34V13a1.21,1.21,0,0,0-.38-.87l0,0,0,0,0,0,0,0,0,0,0,0,0,0,0,0,0,0a.08.08,0,0,1,0,0l0,0,0,0s0,0,0,0a.08.08,0,0,0,0,0l0,0a2653771530215.59,2653771530215.59,0,0,0-.08-.08l0,0,0,0,0,0s0,0,0,0l0,0,0-.05,0,0s0,0,0,0l0,0,0,0,0,0s0,0,0,0l0,0,0,0,0,0,0,0,0,0s0,0,0,0,0,0,0,0,0,0,0,0l0,0,0,0,0,0s0,0,0,0a.08.08,0,0,0,0,0l0,0,0,0,0,0,0,0,0,0,0,0s0,0,0,0l0,0a1.26,1.26,0,0,0-.89-.38H44.64V3.18a1.18,1.18,0,0,0-.38-.88s0,0,0,0l0,0,0,0s0,0,0,0,0,0,0,0l0,0,0,0,0,0,0,0,0,0,0,0,0,0,0,0a.08.08,0,0,1,0,0l0,0s0,0,0,0a.08.08,0,0,0,0,0l0,0,0,0a.08.08,0,0,1,0,0l0,0a.08.08,0,0,0,0,0l0,0,0,0,0,0a.08.08,0,0,1,0,0l0,0a.08.08,0,0,0,0,0s0,0,0,0,0,0,0,0l0,0,0,0s0,0,0,0l0,0,0,0,0,0a.08.08,0,0,1,0,0l0,0,0,0a.08.08,0,0,0,0,0l0,0,0,0,0,0,0,0,0,0a.08.08,0,0,0,0,0l0,0,0,0a.08.08,0,0,1,0,0l0,0A1.21,1.21,0,0,0,41.47,0H1.23A1.22,1.22,0,0,0,0,1.22V41.47a1.21,1.21,0,0,0,.38.87l0,0,0,0,0,0,0,0,0,0,0,0,0,0,0,0,0,0,0,0,0,0,0,0,0,0,0,0,0,0,0,0,0,0,0,0,0,0,0,0,0,0,0,0,0,0,0,0,0,0,0,0,0,0,0,0,0,0s0,0,0,0l0,0,0,0,0,0,0,0s0,0,0,0l0,0,0,0,0,0,0,0,0,0,0,0,0,0,0,0,0,0,0,0,0,0,0,0,0,0,0,0,0,0a1.23,1.23,0,0,0,.88.38H13V51.3a1.19,1.19,0,0,0,.38.87l0,0a.08.08,0,0,0,0,0l0,0a.08.08,0,0,1,0,0l0,0,0,0s0,0,0,0a.08.08,0,0,0,0,0l0,0a2653771530219.81,2653771530219.81,0,0,0,.08.08l0,0,0,0a.08.08,0,0,0,0,0l0,0,0,0a.08.08,0,0,1,0,0l0,0,0,0a.08.08,0,0,0,0,0l0,0,0,0,0,0s0,0,0,0l0,0,0,0,0,0,0,0,0,0,0,0a.08.08,0,0,0,0,0l0,0a.08.08,0,0,1,0,0l0,0s0,0,0,0a884590510072.06,884590510072.06,0,0,1,.08.08l0,0a2653771530218.46,2653771530218.46,0,0,1,.08.08l0,0,0,0s0,0,0,0l0,0,0,0,0,0s0,0,0,0l0,0,0,0,0,0a1.26,1.26,0,0,0,.89.38H27.72l0,0,0,0,0,0s0,0,0,0l0,0,0,0,0,0,0,0a.08.08,0,0,1,0,0l0,0,0,0,0,0a.08.08,0,0,0,0,0l0,0,0,0s0,0,0,0,0,0,0,0l0,0,0,0,0,0a.08.08,0,0,1,0,0s0,0,0,0l0,0,0,0a1.37,1.37,0,0,0,1.35.39l2.66-.71a1.51,1.51,0,0,1,1.44.39h0l.08.08,0,0,0,0a.08.08,0,0,0,0,0,.08.08,0,0,0,0,0l0,0,.07.07a1.45,1.45,0,0,1,.12.9L34,59.39a1.42,1.42,0,0,0,.47,1.33s0,0,0,0l0,0,0,0,0,0,0,0,0,0,0,0,0,0,0,0a.08.08,0,0,0,0,0s0,0,0,0l0,0,0,0,0,0a.08.08,0,0,0,0,0l0,0,0,0,0,0a.08.08,0,0,1,0,0l0,0a.08.08,0,0,0,0,0l0,0s0,0,0,0l0,0a.08.08,0,0,1,0,0l0,0,0,0,0,0s0,0,0,0l0,0,0,0,0,0a.08.08,0,0,0,0,0l0,0,0,0,0,0,0,0,0,0a.08.08,0,0,0,0,0l0,0,0,0a.08.08,0,0,1,0,0l0,0a.08.08,0,0,0,0,0l0,0s0,0,0,0l0,0a.08.08,0,0,1,0,0l0,0,0,0a1.27,1.27,0,0,0,.44.28l1.71.64,1.71.64a1.4,1.4,0,0,0,1.7-.61l1.37-2.38a1.5,1.5,0,0,1,1.38-.74,16.31,16.31,0,0,0,2.32-.08,1.45,1.45,0,0,1,.36,0l.67,1a1.71,1.71,0,0,0,.35.36l0,0,0,0,.08.08,0,0s0,0,0,0l0,0s0,0,0,0a.5.5,0,0,1,.07.08l0,0a.08.08,0,0,1,0,0l0,0,0,0a.5.5,0,0,1,.07.08s0,0,0,0l0,0s0,0,0,0l0,0s0,0,0,0l.07.08,0,0a.08.08,0,0,0,0,0s0,0,0,0l0,0,.07.08,0,0,0,0,0,0,0,0,0,0,.08.07s0,0,0,0,0,0,0,0l0,0a.08.08,0,0,1,0,0l.08.07,0,0,0,0,0,0a.08.08,0,0,1,0,0l.08.07s0,0,0,0l0,0a1.39,1.39,0,0,0,1.43.17l1.66-.76,1.65-.76a1.38,1.38,0,0,0,.76-1.62l-.7-2.62a1.5,1.5,0,0,1,.46-1.52,16.34,16.34,0,0,0,1.66-1.76,1.55,1.55,0,0,1,1.47-.55l2.73.51A1.4,1.4,0,0,0,63,53.86l.63-1.71.64-1.7A1.47,1.47,0,0,0,64,49Z"/><rect class="cls-2" x="15.46" y="12.28" width="37.8" height="37.81"/><path class="cls-3" d="M61.71,46.78l-2.33-1.35A1.53,1.53,0,0,1,58.63,44a16.27,16.27,0,0,0-.07-2.42,1.51,1.51,0,0,1,.66-1.43l2.3-1.55A1.4,1.4,0,0,0,62,36.9l-.76-1.65-.75-1.65a1.4,1.4,0,0,0-1.63-.76l-2.6.73a1.51,1.51,0,0,1-.56,0V11.06a1.23,1.23,0,0,0-1.23-1.22H42.69V1.23A1.22,1.22,0,0,0,41.47,0H1.23A1.22,1.22,0,0,0,0,1.22V41.47a1.22,1.22,0,0,0,1.22,1.21H13V51.3a1.22,1.22,0,0,0,1.22,1.22H26.17l.25.54a1.4,1.4,0,0,0,1.62.77l2.66-.71a1.51,1.51,0,0,1,1.5.44A14.93,14.93,0,0,0,34,55.23a1.51,1.51,0,0,1,.56,1.47L34,59.39A1.4,1.4,0,0,0,34.91,61l1.71.64,1.71.64A1.38,1.38,0,0,0,40,61.63l1.38-2.38a1.5,1.5,0,0,1,1.38-.74,16.31,16.31,0,0,0,2.32-.08,1.52,1.52,0,0,1,1.44.65l1.54,2.3a1.39,1.39,0,0,0,1.74.48l1.66-.75,1.65-.76a1.39,1.39,0,0,0,.76-1.62l-.71-2.62a1.54,1.54,0,0,1,.46-1.52,15.49,15.49,0,0,0,1.67-1.76,1.55,1.55,0,0,1,1.47-.55l2.73.51a1.4,1.4,0,0,0,1.57-.88l.63-1.71.64-1.7A1.45,1.45,0,0,0,61.71,46.78ZM49.66,45.52a6.62,6.62,0,1,1-4-8.47A6.61,6.61,0,0,1,49.66,45.52Zm3.6-13.8L53,31.48A1.55,1.55,0,0,1,52.41,30l.52-2.74A1.39,1.39,0,0,0,52,25.71l-1.7-.64-1.7-.64a1.41,1.41,0,0,0-1.71.6l-1.34,2.34a1.52,1.52,0,0,1-1.41.74,14.81,14.81,0,0,0-1.49,0c-.34,0-.68,0-1,.09a1.53,1.53,0,0,1-1.44-.64l-1.54-2.27A1.36,1.36,0,0,0,37,24.8l-1.65.75-1.66.77a1.38,1.38,0,0,0-.76,1.62l.71,2.65a1.52,1.52,0,0,1-.45,1.51,14.76,14.76,0,0,0-1.66,1.78,1.51,1.51,0,0,1-1.47.56l-2.69-.51a1.45,1.45,0,0,0-1.59.84l-.64,1.71-.63,1.71a1.4,1.4,0,0,0,.61,1.71l2.37,1.37a1.48,1.48,0,0,1,.74,1.38v0a15.83,15.83,0,0,0,.08,2.39,1.53,1.53,0,0,1-.63,1.43L25.38,48a1.39,1.39,0,0,0-.48,1.73l.15.33h-9.6V12.28h37.8Z"/></svg>