<svg id="Layer_1" data-name="Layer 1" xmlns="http://www.w3.org/2000/svg" viewBox="0 0 49.16 64"><defs><style>.cls-1{fill:#333;}.cls-2{fill:#b0ae9d;}.cls-3{fill:#fff;}.cls-4{fill:#ffcb10;}.cls-5{fill:#c7a00f;}</style></defs><path class="cls-1" d="M.06,56.28l0-.15Z"/><path class="cls-1" d="M.56,58.1a.43.43,0,0,1,0-.07A.43.43,0,0,0,.56,58.1Z"/><path class="cls-1" d="M.17,56.91a.53.53,0,0,1,0-.12A.53.53,0,0,0,.17,56.91Z"/><path class="cls-1" d="M.34,57.53s0-.07,0-.11S.33,57.5.34,57.53Z"/><path class="cls-1" d="M49.12,17.53l-.07-.07h0l0,0-.15-.15h0l0,0,0,0L48.59,17l0,0,0,0-.19-.19h0l0,0-.07-.08,0,0,0,0,0,0-.15-.15h0l0,0,0,0-.12-.12,0,0,0,0,0,0-.12-.11-.19-.19h0l0,0L45,13.43,39.54,8l7.68,7.65V55.46a6.62,6.62,0,0,1-6.61,6.6h-34A6.54,6.54,0,0,1,2,60.14l0,0,0,0,0,0,0,0a.08.08,0,0,0,0,0l0,0,0,0,0,.05,0,0,0,0,0,0,0,0,0,0,0,0,0,0,0,0,0,0,0,0,0,0,0,0,0,0,0,0,0,0,0,0,0,0,0,0a.08.08,0,0,1,0,0l0,0,0,0,0,0,0,0,0,0,0,0a.08.08,0,0,1,0,0l0,0,0,0,0,0,0,0,0,0,0,0,0,0,0,0,0,.05,0,0,0,0,0,0,0,0,0,0,0,0,0,0a6.59,6.59,0,0,0,4.69,2h34a6.62,6.62,0,0,0,6.61-6.6V17.57Z"/><path class="cls-1" d="M.81,58.63v0Z"/><path class="cls-2" d="M.52,58l-.18-.5Z"/><path class="cls-2" d="M.3,57.42c0-.16-.09-.34-.13-.51C.21,57.08.25,57.26.3,57.42Z"/><path class="cls-2" d="M.14,56.79a4.5,4.5,0,0,1-.08-.51A4.5,4.5,0,0,0,.14,56.79Z"/><path class="cls-2" d="M.81,58.61a4.81,4.81,0,0,1-.25-.51A4.81,4.81,0,0,0,.81,58.61Z"/><path class="cls-2" d="M.81,58.63A6.56,6.56,0,0,0,2,60.14H2A6.56,6.56,0,0,1,.81,58.63Z"/><path class="cls-2" d="M0,56.13c0-.22,0-.45,0-.67C0,55.68,0,55.91,0,56.13Z"/><path class="cls-3" d="M40.61,58a2.55,2.55,0,0,0,2.56-2.55l-.09-38.23-8.48,0a4.57,4.57,0,0,1-1.05-.13H14.87a1.63,1.63,0,0,1,0-3.25H30.19a4.83,4.83,0,0,1-.17-1.2V4l-23.41,0A2.56,2.56,0,0,0,4.05,6.61V55.46A2.55,2.55,0,0,0,6.61,58Z"/><path class="cls-4" d="M39.54,8,31.64.11,31.53,0H6.61A6.61,6.61,0,0,0,0,6.61V55.46c0,.22,0,.45,0,.67l0,.15a4.5,4.5,0,0,0,.08.51.53.53,0,0,0,0,.12c0,.17.08.35.13.51s0,.08,0,.11l.18.5a.43.43,0,0,0,0,.07,4.81,4.81,0,0,0,.25.51v0A6.56,6.56,0,0,0,2,60.14H2a6.54,6.54,0,0,0,4.65,1.92h34a6.62,6.62,0,0,0,6.61-6.6V15.63Zm1.07,50h-34a2.55,2.55,0,0,1-2.56-2.55V6.61A2.56,2.56,0,0,1,6.61,4.05L30,4v8.66a4.83,4.83,0,0,0,.17,1.2,4.62,4.62,0,0,0,4.41,3.38l8.48,0,.09,38.23A2.55,2.55,0,0,1,40.61,58Z"/><path class="cls-5" d="M13.25,15.5a1.63,1.63,0,0,0,1.62,1.63H33.55a4.58,4.58,0,0,1-3.36-3.25H14.87A1.63,1.63,0,0,0,13.25,15.5Z"/><path class="cls-5" d="M34.29,23.75H14.87a1.63,1.63,0,0,1,0-3.26H34.29a1.63,1.63,0,0,1,0,3.26Z"/><path class="cls-5" d="M34.29,30.32H14.87a1.63,1.63,0,0,1,0-3.25H34.29a1.63,1.63,0,0,1,0,3.25Z"/><path class="cls-5" d="M34.29,36.93H14.87a1.63,1.63,0,0,1,0-3.25H34.29a1.63,1.63,0,0,1,0,3.25Z"/><path class="cls-5" d="M34.29,43.51H14.87a1.63,1.63,0,0,1,0-3.26H34.29a1.63,1.63,0,0,1,0,3.26Z"/><path class="cls-5" d="M34.29,50.12H14.87a1.63,1.63,0,0,1,0-3.25H34.29a1.63,1.63,0,0,1,0,3.25Z"/></svg>