<svg id="Layer_1" data-name="Layer 1" xmlns="http://www.w3.org/2000/svg" viewBox="0 0 63.6 49.9"><defs><style>.cls-1{fill:#333;}.cls-2{fill:#00a651;}.cls-3{fill:#fff;}</style></defs><path class="cls-1" d="M62.85,13.49a3.42,3.42,0,0,0-2.67-1.28H56.75a3.42,3.42,0,0,0-3.42-3.43H49.9V5.35a3.42,3.42,0,0,0-3.43-3.42H5.35A3.42,3.42,0,0,0,1.93,5.35V46.47A3.42,3.42,0,0,0,5.35,49.9h48a3.43,3.43,0,0,0,3.34-2.68l6.85-30.84A3.41,3.41,0,0,0,62.85,13.49ZM5.35,5.35H46.47V8.78H43.05a3.42,3.42,0,0,0-3.43,3.43H19.06a3.41,3.41,0,0,0-3.34,2.68S8.78,46.23,8.78,46.47H5.35V5.35Z"/><path class="cls-2" d="M60.92,11.56a3.42,3.42,0,0,0-2.67-1.28H54.82A3.43,3.43,0,0,0,51.4,6.85H48V3.43A3.42,3.42,0,0,0,44.54,0H3.43A3.42,3.42,0,0,0,0,3.43V44.54A3.42,3.42,0,0,0,3.43,48h48a3.41,3.41,0,0,0,3.34-2.68l6.85-30.84A3.41,3.41,0,0,0,60.92,11.56Z"/><path class="cls-3" d="M3.43,3.43H44.54V6.85H41.12a3.44,3.44,0,0,0-3.43,3.43H17.13A3.43,3.43,0,0,0,13.79,13S6.86,44.3,6.86,44.54H3.43V3.43Z"/></svg>