<svg id="Layer_1" data-name="Layer 1" xmlns="http://www.w3.org/2000/svg" viewBox="0 0 40.5 61.55"><defs><style>.cls-1{fill:#58595b;}.cls-2{fill:#c7c8ca;}.cls-3{fill:#fff;}</style></defs><path class="cls-1" d="M34.84,7.63l0,0,0,0,0,0,0,0,0,0,0,0,0,0,0,0,0,0,0,0,0,0,0,0,0,0,0,0,0,0,0,0,0,0,0,0,0,0,0,0,0,0,0,0,0,0,0,0,0,0s0,0,0,0l0,0,0,0,0,0,0,0,0,0,0,0,0,0,0,0a.08.08,0,0,1,0,0l0,0,0,0,0,0,0,0,0,0,0,0,0,0,0,0,0,0,0,0,0,0,0,0,0,0,0,0,0,0A19.24,19.24,0,0,0,0,19.25c0,5.37,1.65,8.28,3.4,11.36A24.55,24.55,0,0,1,7.14,41.34a2.61,2.61,0,0,0,1,2l0,0,0,0,0,0,0,0,0,0,0,0,0,0,0,0,0,0,0,0,0,0,0,0,0,0,0,0,0,0,0,0,0,0,0,0,0,0,0,0,0,0,0,0,0,0,0,0,0,0,0,0,0,0,0,0,0,0,0,0,0,0,0,0,0,0,0,0,0,0,0,0,0,0,0,0,0,0,0,0,0,0a1.83,1.83,0,0,0-1.45,1.79A1.78,1.78,0,0,0,8.82,48a2653771530219.29,2653771530219.29,0,0,0,.08.08l0,0,0,0,0,0,0,0a.08.08,0,0,1,0,0l0,0,0,0,0,0,0,0s0,0,0,0a.08.08,0,0,0,0,0l0,0,0,0,0,0,0,0s0,0,0,0l0,0a.08.08,0,0,1,0,0l0,0,0,0s0,0,0,0l0,0s0,0,0,0l0,0a.08.08,0,0,0,0,0l0,0s0,0,0,0l0,0,0,0,0,0,0,0a.08.08,0,0,1,0,0s0,0,0,0,0,0,0,0l0,0a2653771530218.27,2653771530218.27,0,0,1,.08.08.08.08,0,0,0,0,0s0,0,0,0,0,0,0,0l0,0,0,0s0,0,0,0a2653771530219.77,2653771530219.77,0,0,0,.08.08s0,0,0,0l0,0,0,0a1.85,1.85,0,0,0,.56.4H10.1a1.83,1.83,0,0,0-1.84,1.83,1.8,1.8,0,0,0,.56,1.31l0,0,0,0,0,0,0,0,0,0,0,0,0,0,0,0,0,0,0,0,0,0,0,0,0,0,0,0,0,0,0,0,0,0,0,0,0,0,0,0,0,0,0,0,0,0s0,0,0,0l0,0,0,0s0,0,0,0l0,0,0,0,0,0,0,0,0,0,0,0,0,0,0,0s0,0,0,0l0,0,0,0s0,0,0,0l0,0,0,0,0,0,0,0a.08.08,0,0,1,0,0l0,0,0,0,0,0,0,0,0,0,0,0A1.78,1.78,0,0,0,12,56,3.65,3.65,0,0,0,13,58.5l0,0,0,0,0,0,0,0,0,0,0,0,0,0,0,0,0,0,0,0,0,0,0,0,0,0,0,0,0,0,0,0,0,0,0,0,0,0,0,0,0,0,0,0,0,0,0,0,0,0,0,0,0,0,0,0,0,0,0,0,0,0,0,0,0,0,0,0,0,0,0,0,0,0,0,0,0,0,0,0,0,0,0,0,0,0,0,0,0,0,0,0,0,0,0,0,0,0,0,0a3.65,3.65,0,0,0,2.61,1.09h7.33a3.65,3.65,0,0,0,3.66-3.66h0v0h0v0h0v0h0v0h0v0h0v0h0s0,0,0,0h0s0,0,0,0h-.05v0h-.05v0h0v0h0v0h0v0h0v0h0v0h0v0h0v0h0v0h0v0h0s0,0,0,0h-.05s0,0,0,0h-.05v0h0v0h-.05s0,0,0,0h0v0h0v0h0v0h0v0h0v0h0v0h0v0h0s0,0,0,0h0s0,0,0,0h-.05s0,0,0,0H27.2s0,0,0,0h-.05s0,0,0,0h-.05s0,0,0,0h0v0h0v0h0v0h0v0h0v0h0v0h0v0h0s0,0,0,0h-.05s0,0,0,0h-.05s0,0,0,0h3.67a1.84,1.84,0,0,0,1.28-3.15.08.08,0,0,1,0,0l0,0,0,0,0,0,0,0,0,0,0,0,0,0,0,0,0,0,0,0,0,0a.08.08,0,0,1,0,0l0,0,0,0,0,0,0,0s0,0,0,0l0,0,0,0,0,0,0,0,0,0s0,0,0,0l0,0,0,0a.08.08,0,0,1,0,0l0,0,0,0,0,0s0,0,0,0l0,0,0,0,0,0,0,0,0,0s0,0,0,0l0,0,0,0,0,0,0,0,0,0s0,0,0,0l0,0,0,0,0,0,0,0,0,0s0,0,0,0l0,0a2,2,0,0,0-.56-.39h1.24a1.83,1.83,0,0,0,1.28-3.14l0,0,0,0,0,0,0,0,0,0s0,0,0,0l0,0,0,0,0,0,0,0a.08.08,0,0,0,0,0l0,0,0,0,0,0,0,0,0,0,0,0,0,0,0,0,0,0,0,0,0,0,0,0,0,0,0,0,0,0,0,0,0,0s0,0,0,0l0,0,0,0,0,0,0,0,0,0,0,0,0,0h.34a2.74,2.74,0,0,0,2.76-2.66A24.55,24.55,0,0,1,37.1,32.61c1.75-3.08,3.4-6,3.4-11.36A19.15,19.15,0,0,0,34.84,7.63Z"/><path class="cls-2" d="M9.89,44a2.73,2.73,0,0,1-2.75-2.66A24.55,24.55,0,0,0,3.4,30.61C1.65,27.53,0,24.62,0,19.25a19.25,19.25,0,0,1,38.5,0c0,5.37-1.65,8.28-3.4,11.36a24.55,24.55,0,0,0-3.73,10.73A2.74,2.74,0,0,1,28.61,44Z"/><path class="cls-2" d="M28.41,44.9H10.1a1.83,1.83,0,1,0,0,3.66H28.41a1.83,1.83,0,0,0,0-3.66"/><path class="cls-2" d="M28.41,50.4H10.1a1.83,1.83,0,1,0,0,3.66H28.41a1.83,1.83,0,0,0,0-3.66"/><path class="cls-2" d="M15.59,59.55h7.33a3.65,3.65,0,0,0,3.66-3.66H11.93a3.65,3.65,0,0,0,3.66,3.66"/><path class="cls-3" d="M28.61,42.13a.89.89,0,0,0,.89-.89,26.5,26.5,0,0,1,4-11.55c1.7-3,3.16-5.57,3.16-10.44a17.38,17.38,0,0,0-34.76,0c0,4.87,1.46,7.46,3.17,10.44A26.51,26.51,0,0,1,9,41.24a.89.89,0,0,0,.9.89Z"/></svg>