<svg xmlns="http://www.w3.org/2000/svg" viewBox="0 0 64.22 64.22"><defs><style>.cls-1{isolation:isolate;}.cls-2{fill:#bbcd63;}.cls-3{mix-blend-mode:darken;opacity:0.5;}.cls-4{fill:#fff;}</style></defs><g class="cls-1"><g id="Layer_1" data-name="Layer 1"><rect class="cls-2" width="64.22" height="64.22" rx="10.03"/><path class="cls-3" d="M52.84,35.86l-.09-.1a.47.47,0,0,1-.1-.1l-.1-.09a.94.94,0,0,0-.1-.1l-.1-.1a.47.47,0,0,0-.1-.1l-.09-.1-.1-.1L52,35l-.1-.1-.1-.1a.47.47,0,0,0-.1-.1l-.1-.1-.09-.1-.1-.09a.94.94,0,0,0-.1-.1l-.1-.1a.47.47,0,0,0-.1-.1L51,34a.47.47,0,0,1-.1-.1l-.1-.09-.1-.1a.94.94,0,0,0-.1-.1.47.47,0,0,0-.1-.1l-.09-.1a.47.47,0,0,1-.1-.1l-.1-.09-.1-.1L50,33l-.1-.1-.1-.1-.09-.1-.1-.09-.1-.1a.94.94,0,0,0-.1-.1l-.1-.1a.47.47,0,0,0-.1-.1l-.09-.1L49,32l-.1-.09a.94.94,0,0,0-.1-.1l-.1-.1-.1-.1-.1-.1-.09-.1-.1-.09-.1-.1-.1-.1A.47.47,0,0,0,48,31l-.09-.1a1.7,1.7,0,0,0-.38-.32l-24.93-16a1.77,1.77,0,0,0-2.75,1.49V48.15a1.77,1.77,0,0,0,.58,1.3l.11.11.09.09.1.1.1.1.1.1a.94.94,0,0,0,.1.1l.1.1.1.1.09.09.1.1.1.1.1.1.1.1.1.1.09.09.1.1.1.1a.94.94,0,0,0,.1.1l.1.1.1.1.1.1.09.09.1.1.1.1a.94.94,0,0,0,.1.1l.1.1.09.09.1.1.1.1a.47.47,0,0,0,.1.1l.1.1.1.09.09.1.1.1.1.1.1.1.1.1.1.1.1.1.09.09.1.1.1.1.1.1.1.1.09.09.1.1.1.1.1.1a.47.47,0,0,0,.1.1l.1.1a2.19,2.19,0,0,0,.44.35,1.81,1.81,0,0,0,.85.21,1.61,1.61,0,0,0,1-.3l24.94-16a1.77,1.77,0,0,0,.82-1.49A1.79,1.79,0,0,0,52.84,35.86Z"/><path class="cls-4" d="M47.55,33.61l-24.93,16a1.72,1.72,0,0,1-1,.29,1.84,1.84,0,0,1-.85-.21,1.78,1.78,0,0,1-.93-1.56V16.08a1.77,1.77,0,0,1,2.75-1.49l24.93,16a1.77,1.77,0,0,1,.82,1.49,1.8,1.8,0,0,1-.82,1.5"/></g></g></svg>