<svg id="Layer_1" data-name="Layer 1" xmlns="http://www.w3.org/2000/svg" viewBox="0 0 61.04 61.04"><defs><style>.cls-1{fill:#58595b;}.cls-2{fill:#e0cb8c;}.cls-3{fill:#004071;}.cls-4{fill:#0072bc;}.cls-5{fill:#00652e;}.cls-6{fill:#00a651;}.cls-7{fill:#8b0304;}.cls-8{fill:#ed1c24;}</style></defs><path class="cls-1" d="M53.36,10.59l0,0,0-.05a.08.08,0,0,1,0,0l0,0,0,0,0,0,0,0L53,10.27l0,0,0,0a.08.08,0,0,1,0,0l0,0,0,0,0,0a.12.12,0,0,1,0,0l0,0s0,0,0,0l0,0,0-.05-.06-.05,0,0,0,0,0,0,0,0,0,0,0,0a.12.12,0,0,1-.05-.05l0,0s0,0,0,0l0,0,0,0,0,0,0,0,0,0,0,0-.05,0,0,0s0,0,0,0,0,0,0,0l0,0s0,0,0,0l0,0-.06,0,0,0,0,0s0,0,0,0,0,0,0,0l0,0,0,0,0,0A31.23,31.23,0,0,0,29.52,0,29.52,29.52,0,0,0,8.66,50.41l.05.05,0,0,0,0,0,0a2653771530219.19,2653771530219.19,0,0,0,.08.08l0,0,0,0,0,0a.08.08,0,0,0,0,0l0,0,0,0,0,0,0,0,0,0,0,0,.05,0,0,0,0,0,0,.05s0,0,0,0l0,0,0,0,0,0a.08.08,0,0,1,0,0l.06,0,0,0s0,0,0,0l0,0,0,0,0,0,0,0,.05.05a.08.08,0,0,1,0,0l0,0,0,0,0,0a2653771530218.61,2653771530218.61,0,0,1,.08.08l0,0,0,.05,0,0,0,0,.05,0,0,0,0,0,0,0,0,0,0,0,0,0A29.43,29.43,0,0,0,31.52,61a4.92,4.92,0,0,0,4.92-4.92,4.84,4.84,0,0,0-1.28-3.3,4.92,4.92,0,0,1,3.69-8.18h5.79A16.41,16.41,0,0,0,61,28.24,24.6,24.6,0,0,0,53.36,10.59Z"/><path class="cls-2" d="M29.52,0a29.52,29.52,0,0,0,0,59,4.92,4.92,0,0,0,4.92-4.92,4.84,4.84,0,0,0-1.28-3.3,4.92,4.92,0,0,1,3.69-8.18h5.79A16.41,16.41,0,0,0,59,26.24C59,11.74,45.82,0,29.52,0Z"/><path class="cls-3" d="M51.47,23.33l0,0,0,0,0,0,0,0,0,0,0,0-.05-.05,0,0,0,0,0,0,0,0s0,0,0,0l0,0s0,0,0,0l0,0,0,0,0,0,0,0-.05-.05,0,0,0,0,0-.05,0,0,0,0s0,0,0,0l0,0,0,0,0,0,0,0,0,0,0,0,0-.05,0,0,0,0,0,0-.05-.05,0,0,0,0,0,0,0,0,0,0,0-.05,0,0,0,0,0,0,0,0,0-.05,0,0,0,0,0,0a7.34,7.34,0,0,0-1.75-1.29,7.12,7.12,0,0,0-8.32,11.36l0,0,0,0,.05,0a.08.08,0,0,0,0,0l0,0,0,0,0,0,0,0,0,0,0,.05,0,0,0,0,0,0,0,0,0,0,0,0,0,0a.08.08,0,0,0,0,0l0,0,0,0,0,.05a.08.08,0,0,1,0,0l0,0,0,0,0,0,0,0,0,0s0,0,0,0l0,0,0,0,0,0,.05,0,0,0,0,0,0,0,0,0,0,0,0,0,0,0,0,0,0,0,0,0,0,0,.05,0s0,0,0,0l0,0,0,0,0,0,0,0,0,0A7.12,7.12,0,1,0,51.47,23.33Z"/><path class="cls-4" d="M41.15,32.69a7.12,7.12,0,1,1,9.61-3,7.11,7.11,0,0,1-9.61,3Z"/><path class="cls-5" d="M36.45,8.31l0,0,0,0,0,0,0,0,0,0,0,0,0,0,0,0,0,0,0,0,0,0,0,0,0,0s0,0-.05,0l0,0,0-.05,0,0,0,0,0,0,0,0,0,0,0,0,0,0,0,0,0,0,0,0,0,0,0,0,0,0,0,0,0,0-.05,0,0,0,0,0,0,0,0,0,0,0,0,0,0,0,0,0,0,0,0,0,0,0,0,0,0,0,0,0,0,0,0,0,0,0,0,0A7.12,7.12,0,1,0,24.42,16.43l0,0,0,0,0,.05,0,0s0,0,0,0l0,0s0,0,0,0,0,0,0,0l0,0,0,0,.05,0,0,0,0,0,0,0,0,0,0,0,0,0,0,0,0,0,0,0,.05,0s0,0,0,0l0,0,0,0,0,0,0,0,0,0,0,0,0,.05,0,0s0,0,0,0,0,0,0,0l0,0,0,0,0,0,0,0,.05,0,0,0,0,0a.08.08,0,0,1,0,0l0,0,0,0,0,.05,0,0s0,0,0,0l0,0,0,0,0,0,0,0,0,0a6.84,6.84,0,0,0,1.75,1.29A7.12,7.12,0,0,0,36.45,8.31Z"/><path class="cls-6" d="M26.13,17.67a7.12,7.12,0,1,1,9.61-3,7.1,7.1,0,0,1-9.61,3Z"/><path class="cls-7" d="M21,22.53a.08.08,0,0,0,0,0,.08.08,0,0,0,0,0l0,0,0,0,0,0s0,0,0,0,0,0,0,0l0,0,0,0s0,0,0,0l0,0,0,0,0,0,0,0,0,0,0,0,0,0,0,0,0,0,0,0,0,0,0,0,0,0,0,0,0,0,0,0,0,0a.08.08,0,0,0,0,0l0,0,0-.05,0,0,0,0s0,0,0,0l0,0s0,0,0,0l0,0,0-.05,0,0a.08.08,0,0,0,0,0l0-.05,0,0-.05,0,0,0,0,0,0,0,0,0,0,0,0,0,0,0s0,0,0,0a6.87,6.87,0,0,0-1.75-1.28A7.12,7.12,0,0,0,9,30.64a.08.08,0,0,1,0,0l0,0,0,0,0,0,0,0,0,0,0,0,0,.05,0,0,.05,0,0,0s0,0,0,0l0,0,0,0s0,0,0,0a.08.08,0,0,1,0,0l0,0,0,0,0,.05,0,0,.05,0,0,0,0,0,0,0,0,0,0,0,0,0,0,0,0,0a.08.08,0,0,1,0,0l0,0,0,0,.05,0,0,0a.08.08,0,0,0,0,0l0,0,.05,0,0,0,0,0a.08.08,0,0,1,0,0l0,0,0,0,0,0,0,0,0,0,0,0,0,0,.05.05,0,0,0,0a7.55,7.55,0,0,0,1.75,1.29A7.12,7.12,0,0,0,21,22.53Z"/><path class="cls-8" d="M10.71,31.89a7.12,7.12,0,1,1,9.61-3,7.11,7.11,0,0,1-9.61,3Z"/></svg>