<svg xmlns="http://www.w3.org/2000/svg" viewBox="0 0 64.22 64.22"><defs><style>.cls-1{isolation:isolate;}.cls-2{fill:#7776b8;}.cls-3{mix-blend-mode:darken;opacity:0.5;}.cls-4{fill:#fff;}</style></defs><g class="cls-1"><g id="Layer_1" data-name="Layer 1"><rect class="cls-2" width="64.22" height="64.22" rx="10.03"/><g class="cls-3"><path d="M53.55,22.06a.94.94,0,0,1-.1-.1l-.09-.09-.11-.11-.09-.09-.1-.1-.1-.1-.09-.09-.11-.11-.09-.09a.94.94,0,0,1-.1-.1l-.1-.1a.94.94,0,0,1-.1-.1l-.1-.1-.1-.09-.09-.1-.11-.1-.09-.1-.1-.1-.1-.1-.09-.09L51.48,20l-.09-.09-.1-.1-.1-.1-.09-.09L51,19.5a.94.94,0,0,1-.1-.1l-.1-.09a.47.47,0,0,0-.1-.1.76.76,0,0,0-.09-.09L50.5,19l-.1-.1-.09-.09-.11-.11-.09-.09-.11-.1-.09-.1-.09-.09a1.14,1.14,0,0,1-.11-.11l-.09-.09-.1-.1a1.14,1.14,0,0,0-.11-.11l-.08-.08-.11-.11-.09-.09-.1-.1-.11-.11-.09-.09a9951643238338.29,9951643238338.29,0,0,1-.2-.2,23.77,23.77,0,0,0-3.48-3c-2.83-2-5.48,2.31-3.25,4.53l.1.09.1.1a7961314590656.92,7961314590656.92,0,0,1,.2.2l.09.1a.47.47,0,0,1,.1.1l.1.09a7961314590656.61,7961314590656.61,0,0,0,.2.2l.1.1.1.1.09.09.1.1.1.1a3980657295328.54,3980657295328.54,0,0,1,.2.2l.1.1.09.09.1.11.1.09a.94.94,0,0,0,.1.1l.1.1a9951643238305.56,9951643238305.56,0,0,1,.2.2l.09.09.1.1a3980657295328.25,3980657295328.25,0,0,1,.2.2l.1.1.09.1.1.09.1.11.1.09.1.1.1.1.09.1.11.1.09.09.1.1.1.1a.94.94,0,0,0,.1.1l.1.1.09.09a.94.94,0,0,0,.1.1l.05.06A15.83,15.83,0,0,1,44,43.15l0,0-.09-.1-.1-.09-.1-.1-.1-.1-.1-.1-.09-.1-.11-.1-.09-.09-.1-.1-.1-.1a.47.47,0,0,0-.1-.1l-.1-.1-.09-.1a.94.94,0,0,1-.1-.1l-.1-.09-.1-.1-.1-.1-.1-.1-.09-.09-.1-.11L41.9,41l-.1-.1a.47.47,0,0,0-.1-.1.47.47,0,0,0-.1-.1.67.67,0,0,0-.15-.14l0,0-.07-.08a.81.81,0,0,0-1-.08l-10.86,7a1,1,0,0,0-.13,1.52l.1.09a9951643238311.69,9951643238311.69,0,0,1,.2.2l.1.1.09.1a.94.94,0,0,1,.1.1l.1.09.1.1.1.1a6634428825554.89,6634428825554.89,0,0,1,.2.2l.09.1.1.1.1.09a.47.47,0,0,0,.1.1l.1.1.09.1a.94.94,0,0,1,.1.1l.1.1.1.09.1.1.1.1.1.1.09.09.1.11.1.09a.47.47,0,0,0,.1.1l.1.1.09.1.1.1a.94.94,0,0,1,.1.1l.1.09.1.1.1.1.09.1.1.1.1.1.1.1.1.09.1.1.1.1.09.1a.94.94,0,0,1,.1.1l.1.09.1.1.1.1a.47.47,0,0,0,.1.1l.09.1.1.1.1.09a1.15,1.15,0,0,0,.23.21L45.36,61a.94.94,0,0,0,1.41-.8c0-1.33,0-2.66,0-4A21.29,21.29,0,0,0,59.43,40,21,21,0,0,0,53.55,22.06Z"/><path d="M25.14,26.21l0,0a.94.94,0,0,0,.1.1l.1.1.1.09.09.1a.94.94,0,0,0,.1.1.94.94,0,0,0,.1.1l.1.1L26,27l.1.1.09.1.1.1a.94.94,0,0,0,.1.1l.1.1a.47.47,0,0,0,.1.1l.1.09.1.1.09.1a.94.94,0,0,0,.1.1l.1.1.1.1.1.1.09.09.1.1.08.08a1.37,1.37,0,0,0,.17.17.81.81,0,0,0,1,.08l10.86-7a1,1,0,0,0,.13-1.52l-.1-.1-.1-.09a.47.47,0,0,0-.1-.1l-.09-.1-.1-.1a.94.94,0,0,1-.1-.1l-.1-.1-.1-.09a.47.47,0,0,0-.1-.1.43.43,0,0,0-.09-.1l-.1-.1-.1-.1-.1-.1-.1-.09a.47.47,0,0,0-.1-.1.43.43,0,0,0-.09-.1l-.1-.1-.1-.1-.1-.09a7961314590657.76,7961314590657.76,0,0,1-.2-.2.32.32,0,0,0-.1-.1.43.43,0,0,0-.09-.1l-.1-.1-.1-.1-.1-.09a.47.47,0,0,0-.1-.1l-.09-.1-.1-.1-.1-.1-.1-.1-.1-.09a.47.47,0,0,0-.1-.1l-.09-.1a.94.94,0,0,0-.1-.1l-.1-.1-.1-.1-.1-.09-.1-.1a.47.47,0,0,0-.1-.1.43.43,0,0,0-.09-.1l-.1-.1-.1-.1-.1-.1-.1-.09-.09-.1-.1-.1-.1-.1-.1-.1-.1-.09a.93.93,0,0,0-.23-.21L23.67,8.24a1,1,0,0,0-1.41.81v4.1A21.28,21.28,0,0,0,9.81,29.27,21,21,0,0,0,15.69,47.2l.1.1.09.09.11.11.09.09.1.1.1.1.1.1.1.1.09.09.1.1.11.11.09.09.11.11.08.08.1.1.11.11.09.09.11.11.09.09.09.09a1.14,1.14,0,0,1,.11.11l.09.09.11.1.09.1.1.1.1.1.1.1.1.1.09.09.1.1.1.1.1.1a.76.76,0,0,1,.09.09l.11.11.09.09.11.11.09.09.09.09.11.11.09.09.1.1.1.1.1.1.1.1.1.1a.94.94,0,0,1,.1.1l.1.1.09.09.1.1.1.1a23.77,23.77,0,0,0,3.48,3c2.82,2,5.47-2.31,3.24-4.53l-.1-.1-.1-.09-.09-.1-.1-.1-.1-.1a.94.94,0,0,1-.1-.1l-.1-.09-.1-.1-.1-.1-.09-.1-.1-.1-.1-.1-.1-.09-.1-.11-.09-.09-.11-.1-.09-.1a9951643238312.65,9951643238312.65,0,0,0-.2-.2l-.1-.09-.1-.1-.09-.1-.1-.1-.1-.1-.1-.1-.1-.09a.47.47,0,0,0-.1-.1l-.09-.1-.1-.1-.1-.1-.1-.09-.1-.11-.1-.09-.1-.1-.09-.1-.1-.1-.1-.1-.1-.1-.1-.09-.09-.1-.1-.1-.1-.1a.94.94,0,0,1-.1-.1l-.1-.1L23,46.18A15.81,15.81,0,0,1,25.14,26.21Z"/></g><path class="cls-4" d="M41.75,55.17c0-1.32,0-2.65,0-4a21.06,21.06,0,0,0,3.41-37c-3-2.08-5.79,2.82-2.82,4.89,9.22,6.44,8.39,20.2-.6,25.86,0-1.23,0-2.45,0-3.68a.88.88,0,0,0-.36-.73.81.81,0,0,0-1-.08l-10.86,7a1,1,0,0,0,0,1.63L40.34,56a.94.94,0,0,0,1.41-.8"/><path class="cls-4" d="M21.89,45.19c-9.15-6.39-8.41-20,.39-25.72V23a.84.84,0,0,0,.37.73.81.81,0,0,0,1.05.08l10.85-7a.94.94,0,0,0,0-1.62L23.67,8.24a1,1,0,0,0-1.41.81v4.1a21.05,21.05,0,0,0-3.2,36.93c3,2.09,5.79-2.82,2.82-4.89"/></g></g></svg>