<svg xmlns="http://www.w3.org/2000/svg" viewBox="0 0 64.22 64.22"><defs><style>.cls-1{isolation:isolate;}.cls-2{fill:#e65648;}.cls-3{mix-blend-mode:darken;opacity:0.5;}.cls-4{fill:#fff;}</style></defs><g class="cls-1"><g id="Layer_1" data-name="Layer 1"><rect class="cls-2" width="64.22" height="64.22" rx="10.03"/><path class="cls-3" d="M54.44,19.72l-.1-.1-.1-.1-.1-.1-.1-.09-.1-.1a.47.47,0,0,0-.1-.1l-.09-.1-.1-.1-.1-.1-.1-.09-.1-.1-.1-.1-.09-.1-.1-.1-.1-.1-.1-.1-.1-.09-.09-.1-.11-.1-.09-.1-.1-.1a.94.94,0,0,1-.1-.1l-.1-.1-.1-.09-.09-.1-.11-.1-.09-.1-.1-.1-.1-.09a6634428825535.25,6634428825535.25,0,0,1-.2-.2l-.09-.1-.1-.1-.1-.1-.1-.09a.47.47,0,0,0-.1-.1l-.1-.1L50.7,16a.94.94,0,0,1-.1-.1l-.1-.1-.1-.09-.1-.11-.09-.09-.11-.1-.09-.1-.1-.1-.1-.1-.1-.09-.1-.1-.09-.1a1.8,1.8,0,0,0-1.31-.58H16A1.79,1.79,0,0,0,14.23,16v32.2a1.79,1.79,0,0,0,.57,1.31l.1.1.1.1.1.1.1.1.09.09.11.1.09.1.1.1a.94.94,0,0,0,.1.1l.09.09.11.11.09.09.1.1a.94.94,0,0,0,.1.1l.1.1.1.1.09.09.1.1.1.1.1.1a.94.94,0,0,0,.1.1l.1.1.1.1.09.09.1.1.1.1.1.1.1.1.1.1.09.09.1.1.1.1.1.1.1.1.1.1.09.09.1.1a.94.94,0,0,0,.1.1l.1.1.1.09a.52.52,0,0,0,.1.11l.09.09.1.1.1.1.1.1a.94.94,0,0,0,.1.1l.1.1.09.09.1.1.1.1A1.8,1.8,0,0,0,21,55h32.2A1.79,1.79,0,0,0,55,53.22V21A1.79,1.79,0,0,0,54.44,19.72Z"/><path class="cls-4" d="M50,48.21A1.79,1.79,0,0,1,48.21,50H16a1.79,1.79,0,0,1-1.78-1.79V16A1.79,1.79,0,0,1,16,14.22h32.2A1.79,1.79,0,0,1,50,16Z"/></g></g></svg>