<svg xmlns="http://www.w3.org/2000/svg" viewBox="0 0 64 64"><defs><style>.cls-1{isolation:isolate;}.cls-2{fill:#8f956d;}.cls-3{mix-blend-mode:darken;opacity:0.5;}.cls-4{fill:#fff;}</style></defs><g class="cls-1"><g id="Layer_1" data-name="Layer 1"><rect class="cls-2" width="64" height="64" rx="10"/><path class="cls-3" d="M54.1,19.21l-.06,0,0-.06,0,0L53.9,19l0,0s0,0-.05,0,0,0,0-.05l0-.05-.05-.05,0-.05-.06,0,0-.05,0,0-.05-.06,0,0,0-.05-.05-.05,0-.05s0,0-.05,0l0-.05-.06-.05,0-.05-.05,0,0-.06-.05,0s0,0,0,0l0-.05-.05-.05s0,0,0-.05l-.05-.05s0,0,0,0l0-.05-.05,0,0-.06,0,0s0,0-.05-.05l0-.05-.05,0s0,0,0-.05l0-.05-.05-.05,0-.05,0,0-.05-.06,0,0,0-.05-.05-.05,0-.05-.05-.05,0,0s0,0,0-.05l0-.05,0,0,0-.06-.05,0,0-.05-.05,0s0,0,0-.05,0,0,0-.05l-.05-.05s0,0,0-.05l0,0L51,16.12l0-.05-.05,0s0,0,0-.05l0-.05s0,0-.05,0,0,0,0-.05l-.05-.05s0,0,0,0l0-.05-.06,0,0-.05,0,0s0,0-.05,0,0,0,0-.05l0,0-.05-.05,0-.05-.05,0,0-.05,0,0L50,15.09l0,0,0-.05L49.83,15l0,0s0,0-.05-.05l0,0s0,0,0-.05l0-.05-.05,0,0-.06-.05,0,0-.06,0,0s0,0-.05-.05,0,0,0-.05l-.05,0s0,0,0-.05l0,0a18.63,18.63,0,0,0-26.31,0A18.25,18.25,0,0,0,20,36.67a.77.77,0,0,1-.12.92l-9.48,9.5c-1.89,1.88-2.34,4.52-.67,6.2l.29.29h0l.1.1h0l.1.1h0l.1.1h0l.1.09h0l.09.09h0l.1.1h0l.1.1h0l.1.1h0l.1.09h0l.09.09h0l.1.1h0l.1.1h0l.1.1h0l.09.09h0l.09.09h0l.09.1h0l.1.1h0l.1.1h0l.09.09h0l.09.09h0l.09.1h0l.1.1h0l.1.1h0l.09.09h0l.09.09h0l.09.1h0l.1.1h0l.1.1h0l.1.09h0l.09.09h0l.09.1h0l.1.1h0l.1.1h0l.1.1h0l.09.09h0l.09.1h0l.1.1h0l.1.1h0l.1.1h0l.09.09h0l.09.1h0l.1.1h0l.1.1h0l.1.1h0l.09.09h0l.09.09h0l.1.1h0l.1.1h0l.1.1h0l.09.09h0l.09.09c1.67,1.67,4.31,1.22,6.21-.67l9.47-9.46a.79.79,0,0,1,.95-.13,18.24,18.24,0,0,0,22.45-2.8A18.63,18.63,0,0,0,54.1,19.21ZM43.74,38.67V35.51c0-.4.46-.42.46-.42h3.1a13,13,0,0,1-3.56,3.58ZM33.35,24.22a.46.46,0,0,1-.43.47H29.55a13.42,13.42,0,0,1,1.67-2,14,14,0,0,1,2.13-1.74ZM27.54,29.4a1.48,1.48,0,0,0,.26.3l.09.1a.94.94,0,0,1,.1.1l.1.1.1.09a.47.47,0,0,0,.1.1l.09.1a.94.94,0,0,1,.1.1l.1.1.1.09a.47.47,0,0,0,.1.1l.09.1a.94.94,0,0,1,.1.1l.1.1.1.09a3980657295328.52,3980657295328.52,0,0,0,.2.2l.09.1a.47.47,0,0,1,.1.1l.1.09a7961314590657.26,7961314590657.26,0,0,1,.2.2l.09.1.1.1.1.09a.47.47,0,0,0,.1.1.47.47,0,0,0,.1.1l.09.1.1.1.1.09.1.1.1.1.09.1a.94.94,0,0,1,.1.1l.1.1.1.09a.47.47,0,0,0,.1.1l.09.1.1.1.1.1.1.09.1.1.09.1.1.1a.94.94,0,0,1,.1.1l.1.09.1.1.09.1.1.1.1.1.1.09a1.43,1.43,0,0,0,.7.43,1.57,1.57,0,0,0,.43.71.94.94,0,0,1,.1.1l.1.09.1.1a.47.47,0,0,0,.1.1l.09.1.1.1.1.09a1990328647664.33,1990328647664.33,0,0,0,.2.2l.09.1.1.1.1.09a.47.47,0,0,0,.1.1l.1.1.09.1.1.1.1.09.1.1a.47.47,0,0,0,.1.1l.09.1a.94.94,0,0,1,.1.1l.1.09a3980657295328.74,3980657295328.74,0,0,1,.2.2l.09.1.1.1.1.09a3980657295328.74,3980657295328.74,0,0,1,.2.2l.09.1.1.1.1.1.1.09.1.1.09.1.1.1.1.1.1.09.1.1.09.1.1.1.1.1.1.09a3980657295328.88,3980657295328.88,0,0,1,.2.2l.09.1.1.1.1.09.1.1.1.1.14.14a13.81,13.81,0,0,1-9.82-1.53A13.78,13.78,0,0,1,27.54,29.4Zm21.84.77a.26.26,0,0,0-.09-.09L49.2,30l-.1-.1-.1-.1-.1-.1-.1-.09-.09-.1-.1-.1-.1-.1a.94.94,0,0,0-.1-.1l-.1-.09-.09-.1-.1-.1-.1-.1-.1-.1-.1-.09-.09-.1-.1-.1-.1-.1-.1-.1-.1-.09-.09-.1-.1-.1a.94.94,0,0,0-.1-.1l-.1-.1-.1-.1-.09-.09-.1-.1-.1-.1-.1-.1-.1-.1-.1-.09-.09-.1-.1-.1-.1-.1-.1-.1-.1-.09-.09-.1-.1-.1-.1-.1-.1-.1-.1-.09-.09-.1-.1-.1-.1-.1-.1-.1-.1-.09-.09-.1-.1-.1-.1-.1-.1-.1a1.53,1.53,0,0,0-.7-.43,1.59,1.59,0,0,0-.43-.7l-.1-.1-.1-.1-.1-.09-.09-.1-.1-.1-.1-.1a.94.94,0,0,0-.1-.1l-.1-.1-.1-.09-.09-.1-.1-.1-.1-.1-.1-.09-.09-.1-.1-.1-.1-.1-.1-.1-.1-.09-.09-.1-.1-.1a.94.94,0,0,0-.1-.1l-.1-.1-.1-.09-.09-.1-.1-.1-.1-.1-.1-.1-.1-.1-.09-.09-.1-.1a.94.94,0,0,0-.1-.1l-.1-.1-.1-.1-.1-.09-.09-.1-.1-.1-.1-.1-.1-.1-.1-.09-.09-.1-.1-.1-.1-.1-.1-.1-.1-.09-.09-.1-.1-.1-.1-.1-.1-.1-.1-.09-.09-.1a1.21,1.21,0,0,0-.24-.21,13.8,13.8,0,0,1,9.7,1.55A13.78,13.78,0,0,1,49.38,30.17Z"/><path class="cls-4" d="M49.1,40.52A18.6,18.6,0,0,0,22.79,14.21,18.25,18.25,0,0,0,20,36.67a.77.77,0,0,1-.12.92l-9.48,9.5c-1.89,1.88-2.34,4.52-.67,6.2l.29.29c1.67,1.67,4.31,1.22,6.21-.67l9.47-9.46a.79.79,0,0,1,.95-.13,18.24,18.24,0,0,0,22.45-2.8M26.22,37.08a13.75,13.75,0,1,1,19.45,0,13.77,13.77,0,0,1-19.45,0"/><path class="cls-4" d="M43.31,24.69H39.14a.43.43,0,0,1-.4-.44V20.13a1.47,1.47,0,0,0-1.47-1.48H34.82a1.47,1.47,0,0,0-1.47,1.48v4.09a.46.46,0,0,1-.43.47H28.78a1.47,1.47,0,0,0-1.47,1.47v2.45a1.47,1.47,0,0,0,1.47,1.48H32.9a.45.45,0,0,1,.45.44v4.12a1.48,1.48,0,0,0,1.47,1.48h2.45a1.48,1.48,0,0,0,1.47-1.48V30.51c0-.4.46-.42.46-.42h4.11a1.47,1.47,0,0,0,1.47-1.48V26.16a1.47,1.47,0,0,0-1.47-1.47"/></g></g></svg>