/* XPM */
static const char *add_dmx_servo_3axis_xpm[] = {
"48 48 398 2 0 0",
"   c #B8B8B8",
"!  c #817F7D",
"#  c #65615F",
"$  c #64615F",
"%  c #6D6B69",
"&  c #5E5A59",
"'  c #7A7876",
"(  c #848281",
")  c #64615E",
"*  c #4B4744",
"+  c #433F3C",
",  c #423E3B",
"-  c #423F3C",
".  c #413D3B",
"/  c #403C39",
"0  c #403C38",
"1  c #454240",
"2  c #3A3734",
"3  c #393532",
"4  c #3F3A37",
"5  c #3E3B38",
"6  c #403D3A",
"7  c #3F3E3B",
"8  c #464440",
"9  c #393533",
":  c #45423F",
";  c #524C4A",
"<  c #696664",
"=  c #4A4643",
">  c #413D3A",
"?  c #3F3C39",
"@  c #37332F",
"A  c #282521",
"B  c #24201B",
"C  c #332E28",
"D  c #363531",
"E  c #3B3936",
"F  c #413E3B",
"G  c #46423E",
"H  c #4C4845",
"I  c #46423F",
"J  c #44413E",
"K  c #2D2926",
"L  c #312E2B",
"M  c #8A8682",
"N  c #B2AAA0",
"O  c #363633",
"P  c #373633",
"Q  c #433F3B",
"R  c #45413E",
"S  c #484441",
"T  c #474340",
"U  c #3E3A37",
"V  c #3A3633",
"W  c #312D2B",
"X  c #7B7976",
"Y  c #B4B1AC",
"Z  c #47433F",
"[  c #44403D",
"]  c #413C38",
"^  c #3F3A36",
"_  c #3D3835",
"`  c #3D3935",
"a  c #64605E",
"b  c #686563",
"c  c #514D4B",
"d  c #3F3B37",
"e  c #403B38",
"f  c #3D3936",
"g  c #3C3835",
"h  c #4E4B48",
"i  c #494642",
"j  c #8C8C8D",
"k  c #5C5B5B",
"l  c #6E6D6D",
"m  c #5F5E5B",
"n  c #55514D",
"o  c #4E4A47",
"p  c #4B4945",
"q  c #494844",
"r  c #4C4B47",
"s  c #484541",
"t  c #45403D",
"u  c #2B2B26",
"v  c #272520",
"w  c #2D2824",
"x  c #4E4F4A",
"y  c #4D4846",
"z  c #625D5D",
"{  c #514F50",
"|  c #3E3E3E",
"}  c #222221",
"~  c #3B3D3F",
" ! c #525558",
"!! c #4A4D4F",
"#! c #3F4142",
"$! c #32322F",
"%! c #22221C",
"&! c #221F1B",
"'! c #211C19",
"(! c #1E1A16",
")! c #23231C",
"*! c #272726",
"+! c #262422",
",! c #443829",
"-! c #B49157",
".! c #EDC06B",
"/! c #DFB876",
"0! c #DCBF91",
"1! c #726F6C",
"2! c #726F6E",
"3! c #6A6868",
"4! c #4F4F4F",
"5! c #515252",
"6! c #26292D",
"7! c #3A3D41",
"8! c #3F4245",
"9! c #36393B",
":! c #292A28",
";! c #1D1D18",
"<! c #1F1E1A",
"=! c #211D1B",
">! c #282622",
"?! c #292827",
"@! c #383027",
"A! c #8D7144",
"B! c #F0C26F",
"C! c #ECBE6B",
"D! c #EFC06D",
"E! c #EBBD6E",
"F! c #DBB57A",
"G! c #BEA58B",
"H! c #666666",
"I! c #676767",
"J! c #686868",
"K! c #686869",
"L! c #66666A",
"M! c #636267",
"N! c #58575B",
"O! c #525156",
"P! c #363539",
"Q! c #323233",
"R! c #262626",
"S! c #272727",
"T! c #2B2A29",
"U! c #2E2C2A",
"V! c #8C734B",
"W! c #C8A466",
"X! c #E9BD6D",
"Y! c #E3B76A",
"Z! c #E6B86B",
"[! c #E6B86C",
"]! c #E8BB6D",
"^! c #E9BD6B",
"_! c #EABC6A",
"`! c #EDC36E",
"a! c #5F4C41",
"b! c #555256",
"c! c #626262",
"d! c #69696A",
"e! c #68676B",
"f! c #646469",
"g! c #69696D",
"h! c #616165",
"i! c #5D5D61",
"j! c #595959",
"k! c #393939",
"l! c #2C3128",
"m! c #272B27",
"n! c #635543",
"o! c #E6B96B",
"p! c #F0C372",
"q! c #EBBE6E",
"r! c #E7BB6D",
"s! c #E9BB6B",
"t! c #F4CB74",
"u! c #CDA866",
"v! c #7E6744",
"w! c #3C3A38",
"x! c #3B3A3C",
"y! c #474141",
"z! c #74706D",
"{! c #686564",
"|! c #666362",
"}! c #656363",
"~! c #686867",
" # c #65656A",
"!# c #656369",
"## c #646468",
"$# c #F2C572",
"%# c #ECBE6F",
"&# c #ECBF71",
"'# c #66666B",
"(# c #62666B",
")# c #585E61",
"*# c #414746",
"+# c #444542",
",# c #6F5B44",
"-# c #EFC370",
".# c #ECBE6E",
"/# c #ECBD6A",
"0# c #ECBE68",
"1# c #AF8D57",
"2# c #50433C",
"3# c #373537",
"4# c #3D3A37",
"5# c #3F3B3A",
"6# c #484341",
"7# c #736F6D",
"8# c #636160",
"9# c #636262",
":# c #656565",
";# c #B19A74",
"<# c #CEAA6B",
"=# c #646367",
"># c #626267",
"?# c #626467",
"@# c #626466",
"A# c #646464",
"B# c #6A6869",
"C# c #57535A",
"D# c #524C49",
"E# c #665B50",
"F# c #F7CE7E",
"G# c #B7955F",
"H# c #443734",
"I# c #3C3735",
"J# c #393632",
"K# c #373332",
"L# c #4D4845",
"M# c #635E5E",
"N# c #636161",
"O# c #616161",
"P# c #606060",
"Q# c #A18F71",
"R# c #616064",
"S# c #626064",
"T# c #616263",
"U# c #636365",
"V# c #626264",
"W# c #545655",
"X# c #4D5254",
"Y# c #3D4147",
"Z# c #5C5854",
"[# c #39332B",
"]# c #3A3737",
"^# c #383634",
"_# c #3A3535",
"`# c #413C3A",
"a# c #4C4644",
"b# c #484340",
"c# c #46413F",
"d# c #3A3532",
"e# c #676161",
"f# c #676364",
"g# c #636062",
"h# c #484645",
"i# c #5E5F5F",
"j# c #5D5E5F",
"k# c #606061",
"l# c #5F5F60",
"m# c #626161",
"n# c #616162",
"o# c #626263",
"p# c #616362",
"q# c #6A6E6C",
"r# c #5F625F",
"s# c #525353",
"t# c #4B4A4B",
"u# c #393937",
"v# c #373634",
"w# c #3C3737",
"x# c #403C3B",
"y# c #464340",
"z# c #494442",
"{# c #37322F",
"|# c #2A2623",
"}# c #666363",
"~# c #696566",
" $ c #676566",
"!$ c #626164",
"#$ c #636363",
"$$ c #5C5C5C",
"%$ c #5F5F5F",
"&$ c #5E5E5E",
"'$ c #434345",
"($ c #434243",
")$ c #494542",
"*$ c #21211D",
"+$ c #1F1E19",
",$ c #22221E",
"-$ c #2D2A27",
".$ c #676363",
"/$ c #676464",
"0$ c #666464",
"1$ c #626165",
"2$ c #616262",
"3$ c #5D5D5D",
"4$ c #68686B",
"5$ c #525152",
"6$ c #4F4B48",
"7$ c #34302D",
"8$ c #1B1B16",
"9$ c #1D1C16",
":$ c #24231F",
";$ c #373430",
"<$ c #656262",
"=$ c #646261",
">$ c #676665",
"?$ c #55514E",
"@$ c #35302D",
"A$ c #241F1C",
"B$ c #282320",
"C$ c #322E2A",
"D$ c #2C2924",
"E$ c #635E5F",
"F$ c #636061",
"G$ c #60605F",
"H$ c #25211E",
"I$ c #292522",
"J$ c #383431",
"K$ c #383531",
"L$ c #3F3C37",
"M$ c #615D5F",
"N$ c #616060",
"O$ c #5F6060",
"P$ c #605F5F",
"Q$ c #52514E",
"R$ c #393734",
"S$ c #5A5654",
"T$ c #524E4B",
"U$ c #423E39",
"V$ c #5B5B5B",
"W$ c #5F5F5A",
"X$ c #686562",
"Y$ c #6A6562",
"Z$ c #5F5955",
"[$ c #575757",
"]$ c #565656",
"^$ c #5D5E5E",
"_$ c #60615C",
"`$ c #686561",
"a$ c #65605D",
"b$ c #5E5855",
"c$ c #5A5959",
"d$ c #575351",
"e$ c #5D5955",
"f$ c #645F5C",
"g$ c #67625E",
"h$ c #66605D",
"i$ c #605B58",
"j$ c #5A5A5A",
"k$ c #605B56",
"l$ c #66625E",
"m$ c #635E5A",
"n$ c #585857",
"o$ c #5B5855",
"p$ c #605B57",
"q$ c #66615E",
"r$ c #65605C",
"s$ c #635D5A",
"t$ c #595857",
"u$ c #5A5854",
"v$ c #5F5A56",
"w$ c #65615D",
"x$ c #635F5B",
"y$ c #5F5B58",
"z$ c #545454",
"{$ c #585858",
"|$ c #595957",
"}$ c #56524F",
"~$ c #5C5652",
" % c #5E5C57",
"!% c #575451",
"#% c #54504D",
"$% c #534E4A",
"%% c #5D5753",
"&% c #54504C",
"'% c #4F4C49",
"(% c #504C48",
")% c #47403D",
"*% c #575857",
"+% c #5A5551",
",% c #4F4B47",
"-% c #4F4A46",
".% c #575656",
"/% c #534F4D",
"0% c #544F4B",
"1% c #5C5754",
"2% c #595A5A",
"3% c #545756",
"4% c #51514D",
"5% c #54524C",
"6% c #616061",
"7% c #5F605F",
"8% c #605E5F",
"9% c #535353",
":% c None",
"                                                                                                ",
"              ! # $ % & ' (                       ! # $ % & ' (                                 ",
"          ) * + , - , . / 0 1                 ) * + , - , . / 0 1                               ",
"        2 3 4 5 6 6 7 8 . 9 : ; <           2 3 4 5 6 6 7 8 . 9 : ; <                           ",
"      = + > ? @ A B C D E F G = H         = + > ? @ A B C D E F G = H                           ",
"      I J , / K L M N O P Q R S T         I J , / K L M N O P Q R S T                           ",
"      R , , U V W X Y 5 , Z [ , >         R , , U V W X Y 5 , Z [ , >                           ",
"        ? / 5 , > > ] ^ _ ` + T a           ? / 5 , > > ] ^ _ ` + T a                           ",
"        b c ? > d 0 e f g U R h i           b c ? > d 0 e f g U R h i                           ",
"      j k l m n o p q r s t t u v w x     j k l m n o p q r s t t u v w x                       ",
"  y z { | } ~  !!!#!$!%!&!'!(!)!*!+!,!y z { | } ~  !!!#!$!%!&!'!(!)!*!+!,!-!.!/!0!              ",
"  1!2!3!4!5!6!7!8!9!:!;!<!=!=!>!?!@!A!1!2!3!4!5!6!7!8!9!:!;!<!=!=!>!?!@!A!B!C!D!E!F!G!          ",
"  H!I!J!K!L!M!N!O!P!Q!R!S!T!U!V!W!X!Y!H!I!J!K!L!M!N!O!P!Q!R!S!T!U!V!W!X!Y!Z![!]!^!_!`!a!b!      ",
"  c!I!J!d!e!f!g!h!i!j!k!l!m!n!o!p!q!r!c!I!J!d!e!f!g!h!i!j!k!l!m!n!o!p!q!r!E!s!D!t!u!v!w!x!y!z!  ",
"  {!|!}!J!~! #!###! # $ % & ' ( $#%#&#{!|!}!J!~! #!###'#(#)#*#+#,#-#$#%#&#.#/#0#1#2#3#4#5#6#R   ",
"  7#8#9#:#:#M!) * + , - , . / 0 1 ;#<#7#8#9#:#:#M!=#M!>#?#@#A#B#C#D#E#;#<#F#G#H#I#J#K#= o L#*   ",
"    M#N#O#P#2 3 4 5 6 6 7 8 . 9 : ; < Q#M#N#O#P#R#S#R#h!T#c!U#V#J!W#X#Y#Z#Q#[#]#^#_#`#a#b#c#d#  ",
"    e#f#g#= + > ? @ A B C D E F G = H h#e#f#g#i#j#k#l#m#n#c!o#o#p#q#r#s#t#h#u#v#w#x#y#z#e {#|#  ",
"    }#~# $I J , / K L M N O P Q R S T !$}#~# $#$p#P#$$$$%$O##$c!c!O#%$c!&$!$'$($R )$)$*$+$,$-$  ",
"    .$/$0$R , , U V W X Y 5 , Z [ , > 1$.$/$0$#$2$%$&$&$3$P#O#O#c!c!%$O#P#1$4$5$6$+ 7$8$9$:$;$  ",
"      <$=$c!? / 5 , > > ] ^ _ ` + T a o#c!<$=$c!2$P#P#P#%$&$P#%$O#c!P#O#O#o#c!>$?$@$A$B$7$C$D$  ",
"      E$F$P#b c ? > d 0 e f g U R h i P#O#E$F$P#%$%$O#O#O#%$c!O#%$%$P#P#P#P#O#G$y#H$I$f J$K$L$  ",
"      M$N$j k l m n o p q r s t t u v w x M$N$%$O$O#c!c!O#P#c!c!O#%$%$%$3$&$&$P$Q$R$^#o S$T$U$  ",
"      y z { | } ~  !!!#!$!%!&!'!(!)!*!+!,!-!.!/!0!&$&$&$&$P#%$%$P#c!c!#$#$O#P#%$V$j!O#W$X$Y$Z$  ",
"      1!2!3!4!5!6!7!8!9!:!;!<!=!=!>!?!@!A!B!C!D!E!F!G!V$V$&$%$%$%$#$c!O#O#O#c!%$[$]$^$_$`$a$b$  ",
"      H!I!J!K!L!M!N!O!P!Q!R!S!T!U!V!W!X!Y!Z![!]!^!_!`!a!b!$$&$&$&$c!#$c!c!O#O#c!c$d$e$f$g$h$i$  ",
"      c!I!J!d!e!f!g!h!i!j!k!l!m!n!o!p!q!r!E!s!D!t!u!v!w!x!y!z!j$j$$$P#&$P#P#%$P#j$S$k$l$l$f$m$  ",
"      {!|!}!J!~! #!###'#(#)#*#+#,#-#$#%#&#.#/#0#1#2#3#4#5#6#R V$V$$$V$%$P#O#P#$$n$o$p$q$r$s$p$  ",
"      7#8#9#:#:#M!=#M!>#?#@#A#B#C#D#E#;#<#F#G#H#I#J#K#= o L#* V$j$j$j$$$&$%$3$%$t$u$v$w$x$y$b$  ",
"        M#N#O#P#R#S#R#h!T#c!U#V#J!W#X#Y#Z#Q#[#]#^#_#`#a#b#c#d#z$[${${$j!$$$$&$&$|$}$~$ %!%#%$%  ",
"        e#f#g#i#j#k#l#m#n#c!o#o#p#q#r#s#t#h#u#v#w#x#y#z#e {#|#[$z$[$j!j$j$V$$$O$j!d$%%&%'%(%)%  ",
"        }#~# $#$p#P#$$$$%$O##$c!c!O#%$c!&$!$'$($R )$)$*$+$,$-$  [$z$]$j!j!j!V$%$*%!%+%,%= -%    ",
"        .$/$0$#$2$%$&$&$3$P#O#O#c!c!%$O#P#1$4$5$6$+ 7$8$9$:$;$        3$V$j$j$3$.%/%0%1%        ",
"          <$=$c!2$P#P#P#%$&$P#%$O#c!P#O#O#o#c!>$?$@$A$B$7$C$D$            {$3$2%3%4%5%          ",
"          E$F$P#%$%$O#O#O#%$c!O#%$%$P#P#P#P#O#G$y#H$I$f J$K$L$                                  ",
"          M$N$%$O$O#c!c!O#P#c!c!O#%$%$%$3$&$&$P$Q$R$^#o S$T$U$                                  ",
"          6%7%%$%$&$&$&$&$P#%$%$P#c!c!#$#$O#P#%$V$j!O#W$X$Y$Z$                                  ",
"          8%%$&$&$&$$$V$V$&$%$%$%$#$c!O#O#O#c!%$[$]$^$_$`$a$b$                                  ",
"          P$3$3$V$$$$$V$$$$$&$&$&$c!#$c!c!O#O#c!c$d$e$f$g$h$i$                                  ",
"              $$j$j$V$j$j$$$$$j$j$$$P#&$P#P#%$P#j$S$k$l$l$f$m$                                  ",
"                $${$z$[$j!j$j$V$V$$$V$%$P#O#P#$$n$o$p$q$r$s$p$                                  ",
"                  $$]$]$]$j!j$V$j$j$j$$$&$%$3$%$t$u$v$w$x$y$b$                                  ",
"                          {$9%z$[${${$j!$$$$&$&$|$}$~$ %!%#%$%                                  ",
"                            j$[$z$[$j!j$j$V$$$O$j!d$%%&%'%(%)%                                  ",
"                                [$z$]$j!j!j!V$%$*%!%+%,%= -%                                    ",
"                                      3$V$j$j$3$.%/%0%1%                                        ",
"                                          {$3$2%3%4%5%                                          ",
"                                                                                                "
};
