/* XPM */
static const char *add_dmx_servo_xpm[] = {
"48 48 4 1 0 0",
"  c #000000",
"! c #FFFFFF",
"# c #577FEA",
"$ c None",
"                                                ",
"                    !!!!!!!!!                   ",
"              ####!!!!!!!!!!!!!####             ",
"             ###!!!!!!!!!!!!!!!!!###            ",
"            ###!!!!!!!!!!!!!!!!!!!###           ",
"            ##!!!!!!!!!!!!!!!!!!!!!##           ",
"            ##!!!!!!!!!!!!!!!!!!!!!##           ",
"            #!!!!!!!!!!!!!!!!!!!!!!!#           ",
"            !!!!!!!!!!!!!!!!!!!!!!!!!           ",
"            !!!!!  !!!!!!!!!!!  !!!!!           ",
"            !!!!!  !!!!!!!!!!!  !!!!!           ",
"           !!!!!!!!!!!!!!!!!!!!!!!!!!!          ",
"           !!!!!!!!!!!!!!!!!!!!!!!!!!!          ",
"          !!!!!!!!!!!!!!!!!!!!!!!!!!!!!         ",
"          !!!!!!!!!!!!!   !!!!!!!!!!!!!         ",
"          !!!!!!!!!!!!!   !!!!!!!!!!!!!         ",
"          !!!!!!!!!!!!!   !!!!!!!!!!!!!         ",
"           !!!!!!!!!!!!!!!!!!!!!!!!!!!          ",
"           !!!!!!!!!!!!!!!!!!!!!!!!!!!          ",
"            !!!!!!!!!!!!!!!!!!!!!!!!!           ",
"            !!!!!!!!!!!!!!!!!!!!!!!!!           ",
"            !!!!!  !!!!!!!!!!!  !!!!!           ",
"            #!!!!  !!!!!!!!!!!  !!!!#           ",
"            ##!!!!!!!!!!!!!!!!!!!!!##           ",
"            ##!!!!!!!!!!!!!!!!!!!!!##           ",
"            ###!!!!!!!!!!!!!!!!!!!###           ",
"            ####!!!!!!!!!!!!!!!!!####           ",
"            ######!!!!!!!!!!!!!######           ",
"            ########!!!!!!!!!########           ",
"            ##################!######           ",
"            ################!#!#!####           ",
"            #################!!!#####           ",
"            ###############!!!!!!!###           ",
"            ###########!!####!!!#####           ",
"            ########!!#!!#!#!#!#!####           ",
"            ########!!!!!!!!##!######           ",
"            #########!!!!!!##########           ",
"            #######!!!!!!!!!!########           ",
"            #######!!!!!!!!!!########           ",
"            #########!!!!!!##########           ",
"            ########!!!!!!!!#########           ",
"            ########!!#!!#!!#########           ",
"            ###########!!############           ",
"            #########################           ",
"             #######################            ",
"              #####################             ",
"                                                ",
"                                                "
};
