/* XPM */
static const char *add_dmx_moving_head_xpm[] = {
"48 48 5 1 0 0",
"  c #000000",
"! c #FFFFFF",
"# c #D0D0D0",
"$ c #FD2F0A",
"% c None",
"                                                ",
"                                                ",
"                                                ",
"                                                ",
"                                                ",
"                                                ",
"                                                ",
"                                                ",
"                                                ",
"                                                ",
"                                                ",
"                                                ",
"            !!!!!!!!                            ",
"          !!!!!!!!!!!!                      ##  ",
"        !!!!!!!!!!!!!!!!                  ####  ",
"       !!!!!!!!!!!!!!!!!!                #####  ",
"       !!!!!!!!!!!!!!!!!!              #######  ",
"      !!!!!!!!!!!!!!!!!!!!            ########  ",
"     !!!!!!!!!!!!!!!!!!!!!!         ##########  ",
"     !!!!!!!!!!!!!!!!!!!!!!        ###########  ",
"     !!!!!!!!!!!!!!!!!!!!!!      #############  ",
"    !!!!!!!!!!!!!!!!!!!!!!!!    ##############  ",
"    !!!!!!!!!!!!!!!!!!!!!!!!  ################  ",
"    !!!!!!!!!!!!!!!!!!!!   ! #################  ",
"    !!!!!!!!!!!!$$$$$$$$   !##################  ",
"    !!!!!!!!!!!!!!!!!!!!   !##################  ",
"    !!!!!!!!!!!!!!!!!!!!!!!! #################  ",
"    !!!!!!!!!!!!!!!!!!!!!!!!  ################  ",
"     !!!!!!!!!!!!!!!!!!!!!!     ##############  ",
"     !!!!!!!!!!!!!!!!!!!!!!      #############  ",
"     !!!!!!!!!!!!!!!!!!!!!!        ###########  ",
"      !!!!!!!!!!!!!!!!!!!!          ##########  ",
"       !!!!!!!!!!!!!!!!!!             ########  ",
"       !!!!!!!!!!!!!!!!!!              #######  ",
"        !!!!!!!!!!!!!!!!                 #####  ",
"          !!!!!!!!!!!!                    ####  ",
"            !!!!!!!!                        ##  ",
"                                                ",
"                                                ",
"                                                ",
"                                                ",
"                                                ",
"                                                ",
"                                                ",
"                                                ",
"                                                ",
"                                                ",
"                                                "
};
