/* XPM */
static const char *add_object_mesh_xpm[] = {
"48 48 3 1 0 0",
"  c #000000",
"! c #F4B136",
"# c None",
"                                                ",
"                                                ",
"                                                ",
"                                                ",
"                                                ",
"                                                ",
"     !!!!                              !!!!     ",
"    !!!!!!                            !!!!!!    ",
"   !!!!!!!!!!!!!!!!!!!!!!!!!!!!!!!!!!!!!!!!!!   ",
"   !!!!!!!!!!!!!!!!!!!!!!!!!!!!!!!!!!!!!!!!!!   ",
"   !!!!!!!!                          !!!!!!!!   ",
"   !!!!!!!!                          !!!!!!!!   ",
"    !!!!!!                            !!!!!!    ",
"     !!!!                              !!!!     ",
"       !!!                            !!!       ",
"        !!!                          !!!        ",
"         !!                          !!         ",
"         !!!                        !!!         ",
"          !!                        !!          ",
"          !!!                      !!!          ",
"           !!!                    !!!           ",
"            !!                    !!            ",
"            !!!                  !!!            ",
"             !!                  !!             ",
"             !!!                !!!             ",
"              !!!              !!!              ",
"               !!              !!               ",
"               !!!            !!!               ",
"                !!            !!                ",
"                !!!          !!!                ",
"                 !!!        !!!                 ",
"                  !!        !!                  ",
"                  !!!      !!!                  ",
"                   !!      !!                   ",
"                   !!!    !!!                   ",
"                    !!!!!!!!                    ",
"                     !!!!!!                     ",
"                    !!!!!!!!                    ",
"                    !!!!!!!!                    ",
"                    !!!!!!!!                    ",
"                    !!!!!!!!                    ",
"                     !!!!!!                     ",
"                      !!!!                      ",
"                                                ",
"                                                ",
"                                                ",
"                                                ",
"                                                "
};
