/* XPM */
static const char *canes[] = {
/* columns rows colors chars-per-pixel */
"96 96 25 1",
"  c black",
". c gray5",
"X c #1B1B1B",
"o c gray16",
"O c gray20",
"+ c #343434",
"@ c #373737",
"# c #444444",
"$ c gray32",
"% c #555555",
"& c #565656",
"* c #5F5F5F",
"= c #606060",
"- c #626262",
"; c DimGray",
": c gray42",
"> c gray45",
", c #747474",
"< c #818181",
"1 c gray56",
"2 c gray61",
"3 c #AAAAAA",
"4 c gray72",
"5 c #C5C5C5",
"6 c LightGray",
/* pixels */
"                                                                                                ",
"                                                                                                ",
"                                                                                                ",
"                                                                                                ",
"                                                                                                ",
"                                                                                                ",
"                                                                                                ",
"                                                                                                ",
"                                                                                                ",
"                                                                                                ",
"                                                                                                ",
"                                                                                                ",
"                                                                                                ",
"                                                                                                ",
"                            o*#                              #$X                                ",
"                           X265*                            *562X                               ",
"                      #<*  #5661  @,*.                .,,@  1665#  *<#                          ",
"                     @465* o366, X366<                <662X ,663o *564@                         ",
"                     $666<  #<*  @5662                2665@  *,@  <666$                         ",
"                     o364$       .265,                ,561.       $463o                         ",
"                      o*#         X$#                  $$X         #*o                          ",
"                 X,<@                 .*<#        #<*                  @<,.                     ",
"                 <663X                ,663o      @466,                X366<                     ",
"                 2665@                1665#      $6661                @5662                     ",
"                 ,561                 *462X      X264$                .165*                     ",
"                  #$X                  #$X        o$#                  X$#                      ",
"                                                                                                ",
"                                                                                                ",
"                ,2,                     $21@    #12$                    .<2,                    ",
"               *666*                   X3661    2663.                   *665$                   ",
"               *666*                   o4662   .3664X                   ,666*                   ",
"               o252o                    ,44*    *44,                    o252o                   ",
"                +>+                      oo      ==                      .@.                    ",
"               @363@                            ,55<                                            ",
"               ,666,                           .3664X                                           ",
"               $565$                            1662.                                           ",
"                *1*                             o<<@                                            ",
"                ,2,                             @11#                                            ",
"               $565$                            2663.                                           ",
"               *666*                           .3664X                                           ",
"               o252o                            *44,                                            ",
"                +;+                              %;                                             ",
"               @353@                            ,55<                                            ",
"               ,666,                           .3664X                                           ",
"               $565$                            1662.                                           ",
"                *1*                             o<<@                                            ",
"                *1*                             @<1#                                            ",
"               $565$                            1662.                                           ",
"               *666*                           .3664X                                           ",
"               o252o                            ,45<                                            ",
"                O;O                              **                                             ",
"               o252o                            *44,                                            ",
"               *666*                           .3664X                                           ",
"               $565$                            1662.                                           ",
"                ,1,                             @11#                                            ",
"                *1*                             o<<@                                            ",
"               $565$                            1662.                                           ",
"               ,666,                           .3664X                                           ",
"               @353@                            ,55<                                            ",
"                O;O                              %;                                             ",
"               o252o                            *44,                                            ",
"               *666*                           .3664X                                           ",
"               $565$                            2663.                                           ",
"                ,2,                             @11#                                            ",
"                *<*                             o,<@                                            ",
"               $565$                            1662.                                           ",
"               ,666,                           .3664X                                           ",
"               @363@                            ,55<                                            ",
"                O:O                              &=                                             ",
"               o242o                            *34,                                            ",
"               *666*                            2663X                                           ",
"               *666*                            2663.                                           ",
"               .<2<.                            #12$                                            ",
"                $<$                             X,,o                                            ",
"               $565$                            1662                                            ",
"               ,666,                           .3664X                                           ",
"               @363@                            ,55<                                            ",
"                @:@                              &-.                                            ",
"               X141X                            *34,                                            ",
"               *666*                            2663X                                           ",
"               *666*                            2663X                                           ",
"               .<3<.                            #22$                                            ",
"                                                                                                ",
"                                                                                                ",
"                                                                                                ",
"                                                                                                ",
"                                                                                                ",
"                                                                                                ",
"                                                                                                ",
"                                                                                                ",
"                                                                                                ",
"                                                                                                ",
"                                                                                                ",
"                                                                                                ",
"                                                                                                ",
"                                                                                                "
};
