/* XPM */
static const char *custom[] = {
/* columns rows colors chars-per-pixel */
"48 48 174 2",
"   c black",
".  c #010101",
"X  c #020202",
"o  c gray1",
"O  c #040404",
"+  c gray2",
"@  c #060606",
"#  c gray3",
"$  c gray4",
"%  c #0B0B0B",
"&  c gray5",
"*  c gray6",
"=  c #101010",
"-  c gray7",
";  c gray8",
":  c #151515",
">  c gray9",
",  c #181818",
"<  c gray10",
"1  c #1B1B1B",
"2  c #1E1E1E",
"3  c #202020",
"4  c gray13",
"5  c #222222",
"6  c gray14",
"7  c #252525",
"8  c #272727",
"9  c #282828",
"0  c gray17",
"q  c #2C2C2C",
"w  c #2D2D2D",
"e  c #2F2F2F",
"r  c gray19",
"t  c #313131",
"y  c #323232",
"u  c #343434",
"i  c #353535",
"p  c gray21",
"a  c #373737",
"s  c #393939",
"d  c #3A3A3A",
"f  c gray24",
"g  c #3E3E3E",
"h  c #3F3F3F",
"j  c gray25",
"k  c #414141",
"l  c gray26",
"z  c #444444",
"x  c gray27",
"c  c #464646",
"v  c gray28",
"b  c #484848",
"n  c #494949",
"m  c #4B4B4B",
"M  c #4C4C4C",
"N  c gray30",
"B  c #4E4E4E",
"V  c gray31",
"C  c #505050",
"Z  c #515151",
"A  c gray32",
"S  c gray33",
"D  c #555555",
"F  c #565656",
"G  c gray34",
"H  c #585858",
"J  c gray35",
"K  c #5A5A5A",
"L  c #5B5B5B",
"P  c gray36",
"I  c #5D5D5D",
"U  c #5F5F5F",
"Y  c #606060",
"T  c gray38",
"R  c #626262",
"E  c gray39",
"W  c #646464",
"Q  c #656565",
"!  c gray40",
"~  c #676767",
"^  c #686868",
"/  c DimGray",
"(  c #6A6A6A",
")  c gray42",
"_  c #6C6C6C",
"`  c #6D6D6D",
"'  c gray43",
"]  c #6F6F6F",
"[  c gray44",
"{  c #717171",
"}  c #727272",
"|  c gray45",
" . c #747474",
".. c gray46",
"X. c #767676",
"o. c #777777",
"O. c gray48",
"+. c #7B7B7B",
"@. c #7C7C7C",
"#. c gray49",
"$. c #7E7E7E",
"%. c #7F7F7F",
"&. c #808080",
"*. c #818181",
"=. c gray51",
"-. c #838383",
";. c #848484",
":. c gray52",
">. c #868686",
",. c gray53",
"<. c #888888",
"1. c #898989",
"2. c gray54",
"3. c #8B8B8B",
"4. c #8D8D8D",
"5. c #8E8E8E",
"6. c #909090",
"7. c gray57",
"8. c #929292",
"9. c #939393",
"0. c gray58",
"q. c #959595",
"w. c gray59",
"e. c #979797",
"r. c #989898",
"t. c gray60",
"y. c #9A9A9A",
"u. c #9B9B9B",
"i. c gray61",
"p. c #9D9D9D",
"a. c gray62",
"s. c #9F9F9F",
"d. c #A0A0A0",
"f. c gray63",
"g. c gray64",
"h. c #A4A4A4",
"j. c #A5A5A5",
"k. c gray65",
"l. c #A7A7A7",
"z. c gray66",
"x. c #A9A9A9",
"c. c #AAAAAA",
"v. c gray67",
"b. c #ACACAC",
"n. c gray68",
"m. c #AFAFAF",
"M. c gray69",
"N. c #B0B0B1",
"B. c #B1B1B1",
"V. c #B2B2B2",
"C. c gray70",
"Z. c #B4B4B4",
"A. c gray71",
"S. c #B6B6B6",
"D. c #B7B7B7",
"F. c gray72",
"G. c #B9B9B9",
"H. c gray73",
"J. c #BBBBBB",
"K. c #BCBCBC",
"L. c gray74",
"P. c gray",
"I. c gray75",
"U. c #C0C0C0",
"Y. c #C1C1C1",
"T. c gray76",
"R. c #C3C3C3",
"E. c gray77",
"W. c #C5C5C5",
"Q. c #C6C6C6",
"!. c gray78",
"~. c #C8C8C8",
"^. c gray79",
"/. c #CACACA",
/* pixels */
"                                                                                                ",
"                                                                                                ",
"                                                                                                ",
"                                                                                                ",
"                                                                                                ",
"                                          X P L X                                               ",
"                                          # Z.M.@                                               ",
"                                        F X.D A o.D                                             ",
"                                        d.E.8 7 U.f.                                            ",
"                                y :._ :.C B X o C A :.' :.i                                     ",
"                                T Q.P.R.m         C E.P.Q.W                                     ",
"                        * ;.@.:.T m y m #         # m t m U >.+.>.*                             ",
"                        w F.K.W.;.                        ;.Q.L.H.r                             ",
"                    + &.%.z r h D 6.#.9.9         9 6.@.7.A j r z $.%.@                         ",
"                    ; V.m.$     U W.D.T.m         N U.Z.W.T     @ n.B.=                         ",
"              G w.>.4.j q   0 w.E s 5 d { 8.> - 7.} g 2 s W w.0   q k 4.,.w.H                   ",
"            X #.I.Z.F.6     z Q.%.      w.I.9 4 P.8.      &.W.l     9 L.Z.Y.&.X                 ",
"          m g.J e 3 w       u F.(     X -.n., - b.%.X     ( D.y       e 4 w D f.c               ",
"          P W.!             h P.@.    X 7.G.6 4 G.6.X     @.P.j             R W.Y               ",
"          C L.r.j.9.u.2     u S.{       ;.N., , B.>..     ' D.p     1 t.0.g.e.G.S               ",
"          T G.k.F.M.S.8     h H.O.+ X % 2.Z.6 3 Z.2.% . + O.G.f     6 F.v.Z.l.G.L               ",
"          X 4 % < ,.V.5     . 4 K v.e.l.b <     < b z.i.x.F 4 .     2 N.>.< % 3 .               ",
"                # ;.n.7         K S.j.N.k         h C.c.C.A         4 v.,.# .                   ",
"              ) C.z -           X , @ :             ; + , X           - c V.)                   ",
"            : ] C.s   & *                                         * &   d C.] :                 ",
"          G J.U @   $ h.s.*                                     % p.f.$   @ I H.K               ",
"          Z L.I , * q f.s.#                                     @ s.s.q = , U I.D               ",
"          Y U.z.F.n.N.F.j.#                                     @ h.G.V.c.C.b.T.Y               ",
"          N g.2.d.a.b.y.1.u :                                 : e <.y.b.s.s.5.j.V               ",
"            X   . 9.K.7 9 C.q.O                             o 9.A.8 9 J.7.    o                 ",
"              - p ..q.; ; z.,.X                             X :.n.= : 0. .i ;                   ",
"              #.W.n .   q G.q.o                             o 9.S.7   . v E.%.                  ",
"          $ h T w.0     ; v.-.X                             X =.x.:     0 e.Y g #               ",
"          R Q.!         q L.t.                                i.L.e         Q ^.~               ",
"          v D.B         = 1.| n >                         , b [ 3.-         n F.m               ",
"          Y U.~             c ^.,.                        >.~.c             ^ W.Q               ",
"          m S.x             4 1.E B a B d n g j b d V u N Y 2.6         @ C K 5.f               ",
"          ~ ~.^                 T Q.P.Y.P.R.I.I.L.I.Y.K.Q.W             b ~.,.                  ",
"          u 1.F H &             y *._ *.Q @.} { @./ =./ *.t         X B C :.b                   ",
"              :./.n                                                 8 U.i.                      ",
"              k O.C D M M G n H v K v P c L B M K b U z J l G n H N A X.V                       ",
"                  y.W.W.Y.Y.U.I.W.I.U.T.Y.!.R.L.Y.W.W.P.I.T.W.R.R.Q.Z.*                         ",
"                  m ( T R ) Y ) I ] I { P { E T ] U  .J _ G ` U ` W P o                         ",
"                                                                                                ",
"                                                                                                ",
"                                                                                                ",
"                                                                                                ",
"                                                                                                "
};
