/* XPM */
static const char *dmx_xpm[] = {
"48 48 914 2 0 0",
"   c #000000",
"!  c #050506",
"#  c #18191B",
"$  c #5A5C5F",
"%  c #929194",
"&  c #575556",
"'  c #282729",
"(  c #58575A",
")  c #7E7B7C",
"*  c #343232",
"+  c #090909",
",  c #030303",
"-  c #020202",
".  c #131314",
"/  c #464749",
"0  c #959699",
"1  c #BDB9B9",
"2  c #C5BEBA",
"3  c #C4BCBA",
"4  c #C4C1C1",
"5  c #CAC3C1",
"6  c #BAB3B1",
"7  c #73706E",
"8  c #31302F",
"9  c #050505",
":  c #000001",
";  c #0D0D0D",
"<  c #303030",
"=  c #757375",
">  c #B5B1B2",
"?  c #C2BBBB",
"@  c #C6C0BD",
"A  c #CAC2BE",
"B  c #CDC5C2",
"C  c #CFC7C4",
"D  c #D1CBC7",
"E  c #D5CFCB",
"F  c #D8D2CF",
"G  c #D7D2CE",
"H  c #9E9A97",
"I  c #302E2D",
"J  c #040404",
"K  c #1F1E1E",
"L  c #545252",
"M  c #929090",
"N  c #B6B1B0",
"O  c #C3BEBD",
"P  c #C9C4C2",
"Q  c #CAC3BF",
"R  c #D0C9C5",
"S  c #D2CBC8",
"T  c #D5CECB",
"U  c #D9D4D1",
"V  c #DAD5D1",
"W  c #D9D5D0",
"X  c #918D8A",
"Y  c #252323",
"Z  c #343230",
"[  c #6E6967",
"]  c #A19B9A",
"^  c #B9B4B4",
"_  c #C5BFBF",
"`  c #CFC9C6",
"a  c #D4CDC9",
"b  c #CEC6C2",
"c  c #D4CEC9",
"d  c #D7D2CC",
"e  c #D8D3CF",
"f  c #D9D4D0",
"g  c #D8D4CF",
"h  c #D1CCC6",
"i  c #85807D",
"j  c #161515",
"k  c #010101",
"l  c #111110",
"m  c #4C4947",
"n  c #8B8482",
"o  c #B2AAA8",
"p  c #C3BAB8",
"q  c #CEC6C3",
"r  c #D1C9C6",
"s  c #D2CCC7",
"t  c #D4CFCA",
"u  c #D4CECA",
"v  c #D6D1CC",
"w  c #D8D3CC",
"x  c #D9D5CF",
"y  c #D7D3CC",
"z  c #CDC6C1",
"{  c #76716F",
"|  c #7A7573",
"}  c #ACA4A1",
"~  c #C2B8B5",
" ! c #CBC2BF",
"!! c #CFC6C3",
"#! c #D1C9C5",
"$! c #D2CBC6",
"%! c #D3CEC6",
"&! c #D4D0C8",
"'! c #D7D2CD",
"(! c #DAD5D2",
")! c #DBD6D2",
"*! c #D9D5D1",
"+! c #D7D3CD",
",! c #D8D4CE",
"-! c #D7D3CB",
".! c #D6D0C8",
"/! c #C8C1BA",
"0! c #555150",
"1! c #020102",
"2! c #060606",
"3! c #2C2A29",
"4! c #6F6967",
"5! c #A69C98",
"6! c #BFB5B1",
"7! c #C8BDBA",
"8! c #CCC1BF",
"9! c #CDC3C1",
":! c #D1CAC5",
";! c #D2CDC6",
"<! c #D5D0CA",
"=! c #DBD6D3",
">! c #DAD5D0",
"?! c #D7D1CA",
"@! c #D6D1CA",
"A! c #D6D2CA",
"B! c #D3CFC6",
"C! c #D2CDC4",
"D! c #B6ADAA",
"E! c #3A3737",
"F! c #1F1D1C",
"G! c #615B59",
"H! c #9E9490",
"I! c #BAAFA9",
"J! c #C2B7B2",
"K! c #C6BCB6",
"L! c #C9BEB9",
"M! c #CAC0BC",
"N! c #CCC3C0",
"O! c #D0C7C4",
"P! c #D4CDC8",
"Q! c #D7D0CD",
"R! c #D9D3CE",
"S! c #D7D0CC",
"T! c #D6CFCA",
"U! c #D6D1C8",
"V! c #C7BEB7",
"W! c #68625F",
"X! c #121111",
"Y! c #47433F",
"Z! c #867D77",
"[! c #A99D96",
"]! c #B8ABA3",
"^! c #BFB2AB",
"_! c #C3B7B1",
"`! c #BFB3AD",
"a! c #C2B5AF",
"b! c #CCC1BE",
"c! c #D2CAC8",
"d! c #D4CECB",
"e! c #D5D0CD",
"f! c #D5CFCC",
"g! c #D3CBC7",
"h! c #CFC6C1",
"i! c #CFC6C0",
"j! c #D6D0CC",
"k! c #DAD6D1",
"l! c #D9D6D1",
"m! c #D5CEC8",
"n! c #CEC7BF",
"o! c #B8AFA9",
"p! c #908986",
"q! c #201E1E",
"r! c #252321",
"s! c #615A56",
"t! c #90857D",
"u! c #A3958E",
"v! c #AB9E97",
"w! c #B6A9A2",
"x! c #C0B5AE",
"y! c #B7ACA4",
"z! c #9E9088",
"{! c #BFB4B0",
"|! c #D5D1CF",
"}! c #DCDDDD",
"~! c #DEE2E4",
" # c #DEE3E4",
"!# c #DDE0E1",
"## c #DAD8D6",
"$# c #CFC8C3",
"%# c #BAADA5",
"&# c #B7ABA4",
"'# c #D1CAC6",
"(# c #DCD7D4",
")# c #D5CFC9",
"*# c #CDC5BF",
"+# c #BDB5AE",
",# c #B2AAA4",
"-# c #9C9491",
".# c #43403F",
"/# c #312E2B",
"0# c #68605A",
"1# c #796E68",
"2# c #968881",
"3# c #A4978F",
"4# c #B0A39C",
"5# c #BDB2AC",
"6# c #C6BBB6",
"7# c #867A72",
"8# c #8F827C",
"9# c #D2CCCC",
":# c #E0E5E8",
";# c #E0E4E7",
"<# c #D8D8D7",
"=# c #B4ABA6",
"># c #8B7D75",
"?# c #B4ACA4",
"@# c #CAC2BC",
"A# c #BBB2AC",
"B# c #C3B9B6",
"C# c #A79E9A",
"D# c #6A6563",
"E# c #3F3B37",
"F# c #70655F",
"G# c #786D67",
"H# c #93857E",
"I# c #AEA19B",
"J# c #BCB2AD",
"K# c #C5BDB7",
"L# c #655850",
"M# c #A69A97",
"N# c #DCDDDF",
"O# c #C1BCBA",
"P# c #837872",
"Q# c #9E938D",
"R# c #D3CDC9",
"S# c #D6D1CD",
"T# c #CEC6C1",
"U# c #BFB5AF",
"V# c #B5ACA7",
"W# c #A59D9D",
"X# c #2A2828",
"Y# c #322F2C",
"Z# c #7B706B",
"[# c #7F746E",
"]# c #A69994",
"^# c #BEB2AE",
"_# c #C5BBB6",
"`# c #C8BFBA",
"a# c #B3A8A3",
"b# c #685A53",
"c# c #B6ABA8",
"d# c #DFE3E5",
"e# c #CBC8C5",
"f# c #9C908A",
"g# c #A29791",
"h# c #CEC7C3",
"i# c #CBC4BF",
"j# c #BEB5B1",
"k# c #C3B9B7",
"l# c #C4BBB9",
"m# c #AEA5A3",
"n# c #383535",
"o# c #272523",
"p# c #7F736E",
"q# c #AFA29D",
"r# c #C3B7B4",
"s# c #C7BDB9",
"t# c #CAC0BD",
"u# c #C0B6B2",
"v# c #84756E",
"w# c #B5A8A5",
"x# c #DEE1E3",
"y# c #D1CAC7",
"z# c #B7AAA4",
"{# c #BBB0AA",
"|# c #D5CFCA",
"}# c #D1C8C4",
"~# c #C8BFBB",
" $ c #C1B9B5",
"!$ c #C3BBB8",
"#$ c #C8BEBC",
"$$ c #B8B0AE",
"%$ c #1A1918",
"&$ c #3E3A38",
"'$ c #837772",
"($ c #938780",
")$ c #A29690",
"*$ c #BAAEA9",
"+$ c #C8BDBB",
",$ c #CBC0BE",
"-$ c #CCC2BF",
".$ c #ADA19B",
"/$ c #B5A9A3",
"0$ c #D6D1D0",
"1$ c #DFE2E5",
"2$ c #DFE4E7",
"3$ c #DAD8D7",
"4$ c #CEC4C0",
"5$ c #C0B4AE",
"6$ c #CCC3BE",
"7$ c #D5D0CC",
"8$ c #D3CCC8",
"9$ c #CDC5C1",
":$ c #BEB5B3",
";$ c #BDB5B3",
"<$ c #C2BAB8",
"=$ c #A29B99",
">$ c #4A4746",
"?$ c #111010",
"@$ c #857973",
"A$ c #948680",
"B$ c #9D918A",
"C$ c #ACA09A",
"D$ c #C2B6B3",
"E$ c #D0C6C3",
"F$ c #BEB2AC",
"G$ c #C9C0BD",
"H$ c #D4D1CE",
"I$ c #DBDDDD",
"J$ c #DEE3E5",
"K$ c #DFE3E6",
"L$ c #DDDFE0",
"M$ c #D7D4D2",
"N$ c #C7BCB7",
"O$ c #C5BAB5",
"P$ c #CFC7C3",
"Q$ c #D3CEC9",
"R$ c #D0C7C5",
"S$ c #B7AFAE",
"T$ c #B4ABAB",
"U$ c #B4AAA8",
"V$ c #77716F",
"W$ c #252322",
"X$ c #060605",
"Y$ c #070606",
"Z$ c #615854",
"[$ c #968A84",
"]$ c #9F938D",
"^$ c #A69B95",
"_$ c #B4A9A3",
"`$ c #CABEBB",
"a$ c #D2C9C6",
"b$ c #C7BEB8",
"c$ c #C7BCB6",
"d$ c #C6BCB9",
"e$ c #C9BEBB",
"f$ c #D0CAC7",
"g$ c #D1CBC8",
"h$ c #CEC7C5",
"i$ c #CFC5C2",
"j$ c #C4BCB8",
"k$ c #C7BFBC",
"l$ c #D2CAC7",
"m$ c #CCC5C2",
"n$ c #ACA4A4",
"o$ c #A39B9C",
"p$ c #8D8685",
"q$ c #3D3A39",
"r$ c #090908",
"s$ c #010000",
"t$ c #121110",
"u$ c #837A73",
"v$ c #A49892",
"w$ c #ABA09A",
"x$ c #B3A7A1",
"y$ c #C3B9B4",
"z$ c #C5BDB6",
"{$ c #CBC0BA",
"|$ c #CDC3BE",
"}$ c #CFC5C3",
"~$ c #CFC7C5",
" % c #D0C9C6",
"!% c #D1C9C7",
"#% c #D1CCC8",
"$% c #C3BCB7",
"%% c #C4BBB7",
"&% c #A39B9B",
"'% c #898383",
"(% c #5A5554",
")% c #141313",
"*% c #33302E",
"+% c #968D87",
",% c #BCB0AA",
"-% c #C0B5AF",
".% c #CCC1BD",
"/% c #C3B8B2",
"0% c #CDC2BD",
"1% c #D8D4D4",
"2% c #D9D7D7",
"3% c #D8D7D7",
"4% c #D9D9D9",
"5% c #D5D2D1",
"6% c #D0CAC6",
"7% c #C4BDB9",
"8% c #B2AAA7",
"9% c #8E8786",
":% c #666261",
";% c #242323",
"<% c #070707",
"=% c #4F4B48",
">% c #AAA09B",
"?% c #C2B6B1",
"@% c #C3B8B3",
"A% c #C6BAB6",
"B% c #BFB3AC",
"C% c #CBBFBA",
"D% c #CDC2BE",
"E% c #D2CCC8",
"F% c #DCDFE0",
"G% c #D7D8D8",
"H% c #CAC2BF",
"I% c #847D7B",
"J% c #343231",
"K% c #0F0E0E",
"L% c #5E5857",
"M% c #B1A6A2",
"N% c #C6BBB5",
"O% c #C7BBB6",
"P% c #BDB1AB",
"Q% c #D0C9C7",
"R% c #DBDDDE",
"S% c #D4D4D3",
"T% c #D1CBC6",
"U% c #D3CDCB",
"V% c #D0C8C5",
"W% c #666260",
"X% c #0A0A0A",
"Y% c #131212",
"Z% c #645F5D",
"[% c #B7ADA8",
"]% c #C8BDB7",
"^% c #CCC1BC",
"_% c #D0C7C3",
"`% c #D3CAC6",
"a% c #DBDCDC",
"b% c #D3D2D1",
"c% c #D2CDC8",
"d% c #D3CECB",
"e% c #7A7673",
"f% c #696362",
"g% c #BBB0AC",
"h% c #C3B6B0",
"i% c #CABFB9",
"j% c #CDC1BB",
"k% c #D9DAD9",
"l% c #D2D0CF",
"m% c #918C89",
"n% c #1C1A1A",
"o% c #100F0F",
"p% c #4D4947",
"q% c #B7ACA6",
"r% c #C9BEB8",
"s% c #CDC4BE",
"t% c #D7D6D6",
"u% c #E0E5E7",
"v% c #D0CDC9",
"w% c #D1CDC6",
"x% c #D2CDC9",
"y% c #D3CBC8",
"z% c #ACA6A2",
"{% c #363332",
"|% c #080808",
"}% c #1A1A19",
"~% c #31302E",
" & c #605B59",
"!& c #C0B4B0",
"#& c #CBC0BB",
"$& c #CDC1BE",
"%& c #D2CBC9",
"&& c #D4CCCA",
"'& c #D4CDCA",
"(& c #D2CBC7",
")& c #C2B9B6",
"*& c #8B827E",
"+& c #6F6862",
",& c #5B5450",
"-& c #4C4644",
".& c #393534",
"/& c #191717",
"0& c #141312",
"1& c #595452",
"2& c #8D8480",
"3& c #918782",
"4& c #8D847E",
"5& c #C9BDB7",
"6& c #CFC3BD",
"7& c #CFC2BF",
"8& c #CEC3C1",
"9& c #CFC4C1",
":& c #D1C7C4",
";& c #D0C5C3",
"<& c #CFC6C2",
"=& c #CFC7C2",
">& c #CFC5C1",
"?& c #A19692",
"@& c #928881",
"A& c #8D817C",
"B& c #807472",
"C& c #8E827D",
"D& c #968A87",
"E& c #625A59",
"F& c #151413",
"G& c #0E0D0D",
"H& c #5C5853",
"I& c #9A918B",
"J& c #A19592",
"K& c #9E938F",
"L& c #A19691",
"M& c #B0A59F",
"N& c #CBC1BA",
"O& c #CFC7BF",
"P& c #D0C9C1",
"Q& c #D0C9C2",
"R& c #D1C9C2",
"S& c #D2CBC4",
"T& c #D3CAC7",
"U& c #D3CCC6",
"V& c #D5CEC7",
"W& c #B6ACA7",
"X& c #A0968F",
"Y& c #9B908A",
"Z& c #9D918B",
"[& c #9C908B",
"]& c #8E8380",
"^& c #45403F",
"_& c #0C0C0C",
"`& c #262423",
"a& c #54504D",
"b& c #908782",
"c& c #A59B95",
"d& c #A59994",
"e& c #A69A95",
"f& c #ADA39E",
"g& c #B5ACA6",
"h& c #D0C8C1",
"i& c #D4CEC8",
"j& c #D9D2CD",
"k& c #D9D4CD",
"l& c #D9D4CE",
"m& c #DBD4CF",
"n& c #DAD4D1",
"o& c #DAD4D2",
"p& c #DCD6D3",
"q& c #DDD7D3",
"r& c #DDD8D4",
"s& c #B5AAA5",
"t& c #B2A6A2",
"u& c #A49893",
"v& c #9C918C",
"w& c #A09590",
"x& c #7E7472",
"y& c #4D4846",
"z& c #0D0C0C",
"{& c #11100F",
"|& c #4D4946",
"}& c #7C7570",
"~& c #8F8881",
" ' c #999089",
"!' c #AB9F98",
"#' c #ADA09A",
"$' c #AEA29B",
"%' c #BAB0A9",
"&' c #CCC2BD",
"'' c #D3CCC7",
"(' c #D8D1CC",
")' c #DBD3CF",
"*' c #DDD6D2",
"+' c #DFD7D4",
",' c #DFD8D5",
"-' c #DFD9D6",
".' c #DFDAD6",
"/' c #DED8D4",
"0' c #DCD5D1",
"1' c #D9D2CE",
"2' c #BEB3AD",
"3' c #B4A8A4",
"4' c #ADA19C",
"5' c #A39792",
"6' c #958984",
"7' c #8D807C",
"8' c #897D79",
"9' c #7E7471",
":' c #6E6764",
";' c #0A090A",
"<' c #332F2D",
"=' c #8F8680",
">' c #9E948D",
"?' c #A19790",
"@' c #A89E98",
"A' c #ACA099",
"B' c #ADA099",
"C' c #AFA19B",
"D' c #BDB0A9",
"E' c #CBC0B9",
"F' c #D2C7C1",
"G' c #D5CBC5",
"H' c #D8CEC9",
"I' c #D9D0CD",
"J' c #D9D1CD",
"K' c #DAD3CE",
"L' c #D9D1CC",
"M' c #D8CFCA",
"N' c #D5CBC6",
"O' c #CFC4BF",
"P' c #BDB0AA",
"Q' c #B1A39E",
"R' c #A99C96",
"S' c #A39690",
"T' c #9E928C",
"U' c #998E88",
"V' c #918681",
"W' c #958C88",
"X' c #2A2626",
"Y' c #413C39",
"Z' c #A09690",
"[' c #A89E97",
"]' c #AA9F99",
"^' c #B0A49E",
"_' c #B4A7A0",
"`' c #B4A7A1",
"a' c #BAAEA8",
"b' c #C2B7B1",
"c' c #C8BCB6",
"d' c #CEC5BE",
"e' c #D3CAC3",
"f' c #D4CCC5",
"g' c #D5CCC7",
"h' c #D4CCC7",
"i' c #D5CCC8",
"j' c #D5CDC8",
"k' c #D6CEC9",
"l' c #D6CFC9",
"m' c #D6CEC8",
"n' c #D5CCC5",
"o' c #D0C5BF",
"p' c #CBBFB9",
"q' c #C4B8B2",
"r' c #BCAEA9",
"s' c #B5A8A3",
"t' c #A89B95",
"u' c #A39791",
"v' c #9A8E89",
"w' c #9E9590",
"x' c #ABA19D",
"y' c #423D3C",
"z' c #6D6865",
"{' c #A8A09A",
"|' c #B6AAA4",
"}' c #C1B6B1",
"~' c #CAC1BC",
" ( c #BAAEA7",
"!( c #B9AEA8",
"#( c #C4BAB3",
"$( c #CCC3BC",
"%( c #CFCAC1",
"&( c #D1CCC4",
"'( c #D3CDC7",
"(( c #D4CDC7",
")( c #D5CEC9",
"*( c #D3CCC5",
"+( c #B5A8A1",
",( c #BCB0A9",
"-( c #C8C0BA",
".( c #BBB0AB",
"/( c #AFA29C",
"0( c #A29790",
"1( c #A29892",
"2( c #9D9591",
"3( c #635E5B",
"4( c #141212",
"5( c #5F5A58",
"6( c #AAA19D",
"7( c #B1A6A0",
"8( c #B1A49D",
"9( c #CAC0BB",
":( c #BEB3AC",
";( c #CAC1BB",
"<( c #CFC8C1",
"=( c #D0CBC2",
">( c #D1CDC4",
"?( c #D3CFC7",
"@( c #D2CEC6",
"A( c #D3CEC5",
"B( c #D4CFC7",
"C( c #D5D0C9",
"D( c #D4D0C9",
"E( c #D5D0C8",
"F( c #D3CDC6",
"G( c #BAAFA7",
"H( c #CEC5C0",
"I( c #C7BCB8",
"J( c #AB9F99",
"K( c #A99F98",
"L( c #ACA39D",
"M( c #9D9592",
"N( c #635E5C",
"O( c #AAA09D",
"P( c #B2A8A1",
"Q( c #AFA399",
"R( c #B0A39B",
"S( c #D8D3D0",
"T( c #D8D3CE",
"U( c #DAD3CD",
"V( c #D9D0C3",
"W( c #D9CEBF",
"X( c #D8CDBF",
"Y( c #D8CEC0",
"Z( c #D8CEC1",
"[( c #D8CEC2",
"]( c #D9CEC3",
"^( c #D8CFC3",
"_( c #D9D2CA",
"`( c #D9D4CF",
"a( c #D1CAC4",
"b( c #B1A7A0",
"c( c #B4ACA5",
"d( c #B2A8A2",
"e( c #9E9592",
"f( c #575250",
"g( c #66605E",
"h( c #A79F9A",
"i( c #B1A49C",
"j( c #AEA097",
"k( c #A79C95",
"l( c #B4ADA9",
"m( c #DBD5D2",
"n( c #DCD6D2",
"o( c #DAD2C9",
"p( c #D4AD7B",
"q( c #D49658",
"r( c #CD9458",
"s( c #CC9558",
"t( c #C99559",
"u( c #C59559",
"v( c #C29358",
"w( c #C69459",
"x( c #C8975F",
"y( c #D2B99D",
"z( c #D9D2CF",
"{( c #B9B0AA",
"|( c #B5ABA4",
"}( c #B8ADA7",
"~( c #B5ABA5",
" ) c #B0A6A0",
"!) c #9C9590",
"#) c #5F5B58",
"$) c #65605E",
"%) c #A49C97",
"&) c #AEA299",
"') c #AEA198",
"() c #B0A59D",
")) c #AEA7A2",
"*) c #CEC9C6",
"+) c #DDD6D4",
",) c #DCD3CD",
"-) c #D7B890",
".) c #D9A066",
"/) c #DAA46A",
"0) c #D5A268",
"1) c #C69861",
"2) c #C49861",
"3) c #CD9B63",
"4) c #D39E64",
"5) c #CFA16B",
"6) c #D3C0A6",
"7) c #DBD7D3",
"8) c #D2CAC6",
"9) c #ADA39C",
":) c #BFB4AE",
";) c #B7AEA7",
"<) c #B3ABA3",
"=) c #AEA49E",
">) c #9A948E",
"?) c #65625D",
"@) c #65615D",
"A) c #A39B94",
"B) c #AFA39D",
"C) c #AEA199",
"D) c #AD9F97",
"E) c #BEB3AB",
"F) c #BBB4AD",
"G) c #C3BDB8",
"H) c #DBD4D0",
"I) c #D5C7B5",
"J) c #D8BDA0",
"K) c #DABEA1",
"L) c #D6BD9F",
"M) c #D4BEA1",
"N) c #D2BCA1",
"O) c #D1B79B",
"P) c #D5BB9F",
"Q) c #D2BCA2",
"R) c #D5CABE",
"S) c #D8D2D0",
"T) c #C4BAB5",
"U) c #C6BDB7",
"V) c #CEC5BF",
"W) c #BDB3AD",
"X) c #B8AEA8",
"Y) c #B2ABA3",
"Z) c #ABA39C",
"[) c #9A938E",
"]) c #6B6763",
"^) c #625F5A",
"_) c #A29B93",
"`) c #ACA29B",
"a) c #ACA098",
"b) c #BFB4AC",
"c) c #CBC4BD",
"d) c #C4BDB6",
"e) c #DCD7D3",
"f) c #CFC9C5",
"g) c #D6CFCC",
"h) c #CEC7C4",
"i) c #D3CECA",
"j) c #D8D1CE",
"k) c #D5CDC9",
"l) c #C4BBB4",
"m) c #D4CDC6",
"n) c #CCC4BD",
"o) c #B6AEA7",
"p) c #B2AAA3",
"q) c #ABA39B",
"r) c #9A938C",
"s) c #686360",
"t) c #020101",
"u) c #010102",
"v) c #3E3C3A",
"w) c #979089",
"x) c #AAA19A",
"y) c #AA9E96",
"z) c #AC9F96",
"{) c #BFB5AC",
"|) c #CFC7C1",
"}) c #CBC4BC",
"~) c #D6D0CD",
" * c #DAD4D0",
"!* c #DDD7D4",
"#* c #CBC3BD",
"$* c #D0C8C0",
"%* c #D2CBC3",
"&* c #CBC3BC",
"'* c #B8B0A9",
"(* c #B2AAA2",
")* c #ACA49C",
"** c #8F8781",
"+* c #373533",
",* c #0C0B0B",
"-* c #413E3B",
".* c #A09790",
"/* c #ABA096",
"0* c #AA9E94",
"1* c #BFB4AD",
"2* c #CDC5C0",
"3* c #D2CCC5",
"4* c #D1CBC4",
"5* c #D4CCC8",
"6* c #D1CAC3",
"7* c #CDC5BE",
"8* c #CFC8C0",
"9* c #C9C2BB",
":* c #B9B0A9",
";* c #B3AAA3",
"<* c #7C7671",
"=* c #322F2D",
">* c #080707",
"?* c #746E6C",
"@* c #C0B6AF",
"A* c #B6ACA3",
"B* c #C3BCB6",
"C* c #C4BCB6",
"D* c #C4BCB7",
"E* c #C4BFB7",
"F* c #C6C0B9",
"G* c #C7C2BA",
"H* c #C9C3BC",
"I* c #C9C2BC",
"J* c #C9C2BD",
"K* c #CAC3BD",
"L* c #CAC3BC",
"M* c #CBC5BE",
"N* c #CCC4BE",
"O* c #CDC6BF",
"P* c #CEC7C0",
"Q* c #C8C1BC",
"R* c #BDB4AE",
"S* c #C0B8B0",
"T* c #99928D",
"U* c #22201F",
"V* c #2A2827",
"W* c #B4AFAC",
"X* c #C3BFBA",
"Y* c #878481",
"Z* c #292827",
"[* c #151514",
"]* c #171615",
"^* c #171716",
"_* c #181717",
"`* c #191918",
"a* c #1A1A18",
"b* c #1A1919",
"c* c #1B1A1A",
"d* c #1D1C1B",
"e* c #1D1C1C",
"f* c #1E1D1C",
"g* c #1F1E1D",
"h* c #20201E",
"i* c #292826",
"j* c #686664",
"k* c #BDB9B5",
"l* c #BDB8B4",
"m* c #585553",
"n* c None",
"                                                                                                ",
"                                                                                                ",
"                                                                                                ",
"                                                ! # $ % & ' ( ) * + ,                           ",
"                                            - . / 0 1 2 3 1 4 5 6 7 8 9                         ",
"                                        : ; < = > ? @ A B C D E F G H I ,                       ",
"                                      J K L M N O P Q R S T G U V W E X Y -                     ",
"                                    + Z [ ] ^ _ ` a b c d e f V V W g h i j                     ",
"                                k l m n o p q r s t u v w g V f g W x y z { J                   ",
"                              + Z | } ~  !!!#!$!%!&!v '!e (!)!*!+!d ,!-!.!/!0!1!                ",
"                          2!3!4!5!6!7!8!9!C :!;!<!v G e U =!=!>!y ?!@!A!B!C!D!E!                ",
"                      J F!G!H!I!J!K!L!M!N!q O!R P!Q!f V =!=!V W W R!S!T!U!C!V!W!k               ",
"                  - X!Y!Z![!]!^!_!`!a!b!c!d!e!f!g!h!i!j!=!=!=!k!l!V f j!m!n!o!p!q!              ",
"                + r!s!t!u!v!w!x!y!z!{!|!}!~! #!###$#%#&#'#(#=!V V V V )#*#+#,#-#.#              ",
"                /#0#1#2#3#4#5#6#7#8#9#~!:#:#:#:#;#<#=#>#?#f =!(!V f j!@#A#B#C#D#F!              ",
"                E#F#G#H#I#J#K#I!L#M#N#:#:#:#:#:#:#~!O#P#Q#R#=!V f S#T#U#V#p W#X#                ",
"                Y#Z#[#]#^#_#`#a#b#c#~!:#:#:#:#:#:#d#e#f#g#'#V V R#h#i#j#k#l#m#n#                ",
"                o#p#8#q#r#s#t#u#v#w#N#:#:#:#:#:#:#x#y#z#{#|#f S!}#~# $!$#$$$D#%$                ",
"              k &$'$($)$*$+$,$-$.$/$0$1$:#:#:#:#2$3$4$5$6$Q!7$8$9$:$;$<$=$>$?$k                 ",
"              k E#@$A$B$C$D$9!E$K!F$G$H$I$J$K$L$M$O!N$O$P$T Q$R$S$T$U$V$W$X$                    ",
"                Y$Z$[$]$^$_$`$a$b$c$d$e$B f$S g$h$ !i$j$k$l$m$n$o$p$q$r$s$                      ",
"                  t$u$v$w$x$y$'#z${$|$}$~$ %!%#%f$D 8$$%%%!$&%'%(%)%                            ",
"                  k *%+%a#,%-%.%/%{$0%r 1%2%3%4%5%6%D 7%8%9%:%;%-                               ",
"                    <%=%>%?%@%A%B%C%D%E%F%:#:#:#G%'##%H%I%J%<%                                  ",
"                      K%L%M%N%O%P%0%Q%D R%:#:#:#S%T%U%V%W%X%                                    ",
"                        Y%Z%[%]%`!^%_%`%a%:#:#:#b%c%d%y#e%X!                                    ",
"                          Y%f%g%h%i%j%h!k%:#:#:#l%E%R#D m%n%                                    ",
"                            o%p%q%r%{$s%t%;#u%u%v%w%x%y%z%{%J k                                 ",
"                      1!|%}%~% &!&#&$&4$V%%&&&'&(&$!T%R )&*&+&,&-&.&/&9                         ",
"                    0&1&2&3&4&g#5&6&7&8&9&_%:&:&;&i$<&=&>&?&@&A&B&C&D&E&F&k                     ",
"                k G&H&I&J&K&L&M&N&O&P&Q&R&S&g!y%`%T&U&V&.!W&g#X&Y&Z&[&]&^&o%-                   ",
"              _&`&a&b&c&d&e&f&g&h&i&j&k&l&m&n&o&)!p&q&r&r&9$s&t&u&v&w&J&x&y&W$z&                ",
"            {&|&}&~& ')$!'#'$'%'&'''(')'*'+','-'.'-'/'0'1'P$2'3'4'5'6'7'8'9':'|&;'              ",
"            <'='>'?'@'A'B'C'w!D'h%E'F'G'H'I'J'R!K'L'M'N'O'O%P'Q'R'S'T'Z&U'V'*&W'X'              ",
"            Y'Z'[']'^'_'`'`'a'b'c'd'e'f'g'h'i'j'k'l'm'n'o'p'q'r'P's'I#t'u'v'w'x'y'              ",
"            t$z'{'$'|'}'~' (!(#($(%(&(U&'('('(((R#c )(V&*(i!O$+(,(-(.(/(0(1(2(3(4(              ",
"            k 5(6(7(8(N$9(:(;(<(=(>(B!B!?(@(A(B(C(&!D(E(E(B(F(/!G(H(I(J(K(L(M(p%                ",
"            , N(O(P(Q(R(I(C S(g T(U(V(W(X(X(Y(Z([(](^(_(`(V V T(a(]%I!b(c(d(e(f(                ",
"            Y$g(h(7(i(j(k(l(m(p&n(o(p(q(r(s(t(u(v(w(x(y(0'(#(#z({(|(-%}(~( )!)#)                ",
"            |%$)%)^'&)')()))*)(#+),)-).)/)0)1)2)3)4)5)6)7)(!(#8)9);(:);)<)=)>)?)                ",
"            r$@)A)B)C)D)E)F)G)V p&H)I)J)K)L)M)N)O)P)Q)R))!S)=!T)U)V)W)X)Y)Z)[)])k               ",
"            2!^)_)`)a)D)b)c)d)u e)a f)S!g)h)n&i)(&j)R#x%n&r&k)l)m)n)A#o)p)q)r)s)t)              ",
"            u)v)w)x)y)z){)|)})$!n(~)'&j) *d!!*~)G f S#F e))!#*$*%*&*'*?#(*)***+*k               ",
"              ,*-*.*/*0*1*2*T#=&$!3*4*U&((8$a 5*U&''U&F(3*6*7*8*Q&9*:*;* )<*=*>*                ",
"                2!?*@*A*@*K#B*C*D*E*F*G*H*I*J*K*L*L*M*N*n)&*n)O*P*Q*R*S*T*U*-                   ",
"                  V*W*X*Y*Z*[*[*j j j ]*^*^*_*`*a*b*c*d*e*f*g*h*i*j*k*l*m*<%                    ",
"                                                                                                ",
"                                                                                                "
};
