/* XPM */
static const char *spinner[] = {
/* columns rows colors chars-per-pixel */
"48 48 50 1",
"  c black",
". c gray5",
"X c #1B1B1B",
"o c gray16",
"O c gray20",
"+ c #343434",
"@ c #373737",
"# c #414141",
"$ c #444444",
"% c #4B4B4B",
"& c gray30",
"* c gray32",
"= c #5F5F5F",
"- c DimGray",
"; c gray43",
": c gray45",
"> c #747474",
", c #767676",
"< c gray48",
"1 c #7B7B7B",
"2 c #7C7C7C",
"3 c gray49",
"4 c #808080",
"5 c #818181",
"6 c #848484",
"7 c #868686",
"8 c gray55",
"9 c #8D8D8D",
"0 c gray56",
"q c #939393",
"w c gray60",
"e c #9B9B9B",
"r c gray61",
"t c #9F9F9F",
"y c #A0A0A0",
"u c gray63",
"i c #AAAAAA",
"p c gray67",
"a c gray71",
"s c gray72",
"d c #BBBBBB",
"f c gray",
"g c #C1C1C1",
"h c gray76",
"j c #C5C5C5",
"k c gray79",
"l c #CACACA",
"z c #CBCBCB",
"x c #CECECE",
"c c LightGray",
/* pixels */
"                                                ",
"                                                ",
"                                                ",
"                                                ",
"                                                ",
"                                                ",
"                     oX   .o                    ",
"                    >si= @rs0.                  ",
"                 o5rhccr 5ccku0$                ",
"              $*.5cczccr >ccxccr.$*.            ",
"             >jc0rcclp0$ X5ygccs4jc0            ",
"             rccs,sj0       >sj5rccso           ",
"           =5uccr.@$         @@ 5ccp7>X         ",
"          =jcdq5@               X>8acc5         ",
"          5ccc=                   @jccr         ",
"          $scio                  c 0cj>         ",
"        @>*@*o                  c  X*$$>$       ",
"       oicj=                   c     @scs*      ",
"       *ccc0                  c      =ccc>      ",
"       oicj=                 c       @scs*      ",
"       $:7*                 c         $<1$      ",
"      *scrX                c           5jj>     ",
"      0ccc*               c           Xscci.    ",
"      >ccs@              c             rcc0     ",
"       ,e&              c              oq9X     ",
"      *sjrX              c             5jj>     ",
"      5ccj$               c           Xscci.    ",
"      >ccs@                c          .rcc0     ",
"      .>0>X                 c         .=75o     ",
"       .0si$                 c       Xrjr@      ",
"       $jcc5                  c      =ccc>      ",
"       @sccw.                  c     2lcc=      ",
"        =fxc5                   c   =jcj7.      ",
"        .iccsX                   c  0ccj@       ",
"         0cc0                     c >cciX       ",
"         X>>O$@                   o$+=>@        ",
"           .0js*                 @iji@          ",
"           $jcc0                 >ccc>          ",
"           oscce>$             @>8jcj*          ",
"            *0qdcs$.@.  @X  @XXrcjt0=           ",
"              >ccc;rjr%0ji#0si-jcc0             ",
"              $scs3cccwcccejcc8rcj>             ",
"               $=@*jcc6jcc9scc>o=*              ",
"                   >r5.>r5X=r5X                 ",
"                                                ",
"                                                ",
"                                                ",
"                                                "
};
