/* XPM */
static const char *star[] = {
/* columns rows colors chars-per-pixel */
"48 48 73 1",
"  c black",
". c gray5",
"X c #1B1B1B",
"o c #272727",
"O c gray16",
"+ c gray20",
"@ c #343434",
"# c #373737",
"$ c gray25",
"% c #444444",
"& c gray29",
"* c #4B4B4B",
"= c gray30",
"- c gray32",
"; c #555555",
": c #565656",
"> c gray34",
", c #5A5A5A",
"< c #5F5F5F",
"1 c gray42",
"2 c gray43",
"3 c #727272",
"4 c gray45",
"5 c #747474",
"6 c gray46",
"7 c gray48",
"8 c #808080",
"9 c #818181",
"0 c #848484",
"q c #888888",
"w c gray55",
"e c #8E8E8E",
"r c gray56",
"t c gray57",
"y c #939393",
"u c #959595",
"i c gray59",
"p c #989898",
"a c #9B9B9B",
"s c gray61",
"d c gray62",
"f c #9F9F9F",
"g c #A7A7A7",
"h c gray66",
"j c #AAAAAA",
"k c gray67",
"l c #AEAEAE",
"z c #AFAFAF",
"x c #B1B1B1",
"c c #B2B2B2",
"v c #B4B4B4",
"b c gray71",
"n c #B7B7B7",
"m c gray72",
"M c #B9B9B9",
"N c gray73",
"B c #BBBBBB",
"V c #BCBCBC",
"C c gray74",
"Z c gray",
"A c #C0C0C0",
"S c #C1C1C1",
"D c #C3C3C3",
"F c gray77",
"G c #C5C5C5",
"H c #C6C6C6",
"J c gray79",
"K c #CACACA",
"L c #CBCBCB",
"P c #CECECE",
"I c #D0D0D0",
"U c #D2D2D2",
"Y c LightGray",
/* pixels */
"                                                ",
"                                                ",
"                                                ",
"                                                ",
"                       #XOO                     ",
"                     .rGASm<                    ",
"                     -YYYYYj.                   ",
"                     %GYYYYs                    ",
"                     %flapj0O                   ",
"                    %mYm%5GYs.                  ",
"                    5YYY5sYYG#                  ",
"                    %mYm%9YYs.                  ",
"                   X9lf% .2lg<                  ",
"                   5YYG%  5YYm#                 ",
"                   9YYY-  9YYG%                 ",
"                   %jGr.  %jGr.                 ",
"                    X#.    X#                   ",
"       5j9:ss- 5sr;rs<     .9j9,ss% 9j9>ss-     ",
"      wPYYNYYj*mYYMYYmO    <YYYNYYs-GYYbYYD>    ",
"     <KYYYNYYj:GYYMYYm#    5YYYVYYs<YYYNYYYzO   ",
"     5YYYbevm5 9ms3jm5     Osmr8mj<XrMlqHYYG#   ",
"     %jYcuGB2   O. XO        O  XX  .sHmuBGr.   ",
"      O-&mYYs                       %GYYr#%.    ",
"        .jYYy5r<                 X9r4mYY5       ",
"         %r96YYG%                9YYm1r9X       ",
"            5YYY,-%           X-%rYYG%          ",
"            #jGspGG5         .rYmwjGr           ",
"             X#@mYYs         #GYYrO#            ",
"               .sYY9         OjYY9              ",
"               %il7X          %il7O             ",
"              OmYY5    X<-    .sYYr             ",
"              %GYYr   .sYG5   XmYYj.            ",
"              XsYm-   #GYYs    9GG5             ",
"               X-#    XsYY5     %%              ",
"              <r5  .9r<#5<o9r<  #rr%            ",
"             -GYY< 5YYm%  5YYm# rYYjX           ",
"             <YYYy%9YYY-  9YYG=%kYYmO           ",
"             +gGHJGyjGrX  %jGyyGFFHt            ",
"            OsNjCYYsO#.    O#$GYYxbm9           ",
"            8YYYNYYr         OjYYZYYL#          ",
"            hYYUd99O          %95nYYI<          ",
"            8YYY-                sYYL#          ",
"            #smrX                %jm9           ",
"             .O                   XO            ",
"                                                ",
"                                                ",
"                                                ",
"                                                "
};
