/* XPM */
static const char *fireworks[] = {
/* columns rows colors chars-per-pixel */
"16 16 3 1 ",
"  c #FFFF00003737",
". c #10102C2CE3E3",
"X c None",
/* pixels */
"XXXXXXXXXXXXXXXX",
"XXXXXXXXXXXXXXXX",
"XXXXXXXXXXXXXXXX",
"XXXXXXXXXXXXXXXX",
"XX XX X XXXXXXXX",
"XXXX XXXXXXXXXXX",
"XXXXX  XXXXXXXXX",
"XXXXX  XXX XXXXX",
"XXXX XXXX.XXXX.X",
"XXXXXXXXXX.XX.XX",
"XXXXXXXXXXX..XXX",
"XXXXXXXXXXX..X.X",
"XXXXXXXXXXXXXXXX",
"XXXXXXXXX.XX.XXX",
"XXXXXXX.XXXXX.XX",
"XXXXXXXXXXXXXXXX"
};
