/* XPM */
static const char * padlock16x16_green_xpm[] = {
/* width height num_colors chars_per_pixel */
"16 16 5 1",
" 	c None",
".	c #FFFFFF",
"+	c #00FF00",
"@	c #008040",
"#	c #E7E7E7",
"................",
".....@@@@@......",
"....@@...@@.....",
"...@@....@@.....",
"..........@@....",
"..........@@....",
"..........@@....",
"..@@@@@@@@@@@...",
"..@@@@@@@@@@@...",
"..@@@@+++@@@@...",
"..@@@@...@@@@...",
"..@@@@...@@@@...",
"..@@@@@@@@@@@...",
"..@@@@@@@@@@@...",
"...@@@@@@@@@....",
"................"};
