/* XPM */
static const char *ripple[] = {
/* columns rows colors chars-per-pixel */
"16 16 2 1 ",
"  c #FF001A",
". c None",
/* pixels */
"................",
".              .",
". ............ .",
". ............ .",
". ..        .. .",
". .. ...... .. .",
". .. ...... .. .",
". .. ..  .. .. .",
". .. ..  .. .. .",
". .. ...... .. .",
". .. ...... .. .",
". ..        .. .",
". ............ .",
". ............ .",
".              .",
"................"
};
