/* XPM */
static const char *spirograph[] = {
/* columns rows colors chars-per-pixel */
"16 16 2 1 ",
"  c #9500FF",
". c None",
/* pixels */
"     ..  ..     ",
" ... .      ... ",
" ...   ...  ... ",
" ...  ....  ... ",
"     ......     ",
"..  . .  . .  ..",
"   ... .. ...  .",
"  ... .  . ...  ",
". ... .  . ...  ",
".. ... .. .... .",
"      .  . ..  .",
" ...  ....      ",
" ...   ...  ... ",
" ... . ..   ... ",
" ... .    . ... ",
"     ..  ..     "
};
