/* XPM */
static const char * xlights_xpm[] = {
"32 32 26 1",
" 	c None",
".	c #000100",
"+	c #003800",
"@	c #006700",
"#	c #009830",
"$	c #AAAF00",
"%	c #B9C30A",
"&	c #C2CA01",
"*	c #C8D000",
"=	c #CFD607",
"-	c #DADF01",
";	c #DBE600",
">	c #E4EF0B",
",	c #E1F200",
"'	c #ECF500",
")	c #ECF61D",
"!	c #EEF52E",
"~	c #EFF43B",
"{	c #EFF545",
"]	c #EFF650",
"^	c #EFF759",
"/	c #EEF761",
"(	c #F3F76F",
"_	c #F1F97E",
":	c #F7F98A",
"<	c #F5FA94",
"            @@@@@@@@            ",
"@@@@@@@@@@@@@@@@@@@@@@@@@@@@@@@@",
"@@@@@@@@@@@@#+@#+@#+@@@@@@@@@@@@",
"           @#+@#+@#+@           ",
"           @#+@#+@#+@           ",
"           @#+@#+@#+@           ",
"           @#+@#+@#+@           ",
"           @#+@#+@#+@           ",
"          @@#+@#+@#+@@          ",
"         @@@@@@@@@@@@@@         ",
"         @@@@@@@@@@@@@@         ",
"          .>(/^]]{{~$.          ",
"          .>/^]{{~~!$.          ",
"         .>/^<<{{~!!)$.         ",
"         .>^]<<~~!)))$.         ",
"        .>^]<<<_!)))''$.        ",
"        .>]{<::_!))'',$.        ",
"        .>]{~___))'',>$.        ",
"        .>{~!__()'',>-$.        ",
"        .>~!!)_''''>--$.        ",
"        .>~!))''''>--=$.        ",
"         .>)))'''>;-=$.         ",
"         .>))''>>;-=*$.         ",
"          .>''>;;-=*$.          ",
"          .>'>;--=*&$.          ",
"           .>;-==*&$.           ",
"            .>=**&$.            ",
"            .>*&&%$.            ",
"             .>%%$.             ",
"             .>%%$.             ",
"              .$$.              ",
"               ..               "};
