/* XPM */
static const char *ac_background_24_xpm[] = {
"24 24 3 1",
" 	c #FFFFFF",
".	c #C3C3C3",
"+	c #22B14C",
"                        ",
" ...............        ",
" ...............        ",
" ...............        ",
" ...............        ",
" ...............        ",
" ...............        ",
" ...............+++++++ ",
" ...............+++++++ ",
" ...............+++++++ ",
" ...............+++++++ ",
" ...............+++++++ ",
" ...............+++++++ ",
" ...............+++++++ ",
" ...............+++++++ ",
" ...............+++++++ ",
"         ++++++++++++++ ",
"         ++++++++++++++ ",
"         ++++++++++++++ ",
"         ++++++++++++++ ",
"         ++++++++++++++ ",
"         ++++++++++++++ ",
"                        ",
"                        "};
