/* XPM */
static const char *ac_select_24_xpm[] = {
"24 24 2 1",
" 	c #FFFFFF",
".	c #00A2E8",
"                        ",
"            ........... ",
"             .......... ",
"              ......... ",
"               ........ ",
"               ........ ",
"              ......... ",
"             .......... ",
"            ........... ",
"           .......  ... ",
"          .......    .. ",
"         .......      . ",
"        .......         ",
"       .......          ",
"      .......           ",
"     .......            ",
"    .......             ",
"   .......              ",
"  .......               ",
" .......                ",
"  .....                 ",
"   ...                  ",
"    .                   ",
"                        "};
