/* XPM */
static const char *backward_24_xpm[] = {
/* width height num_colors chars_per_pixel */
"    24    24        8            1",
/* colors */
"` c #2a80bc",
". c #b9bcc3",
"# c #5d92ba",
"a c #4f7e9a",
"b c #e3e5e5",
"c c #c1c6cc",
"d c None",
"e c #77909e",
/* pixels */
"dddddddddddddddddddddddd",
"dddddddddddddddddddddddd",
"dddddddddddddddddddddddd",
"ddddddddddbcdddddddcbddd",
"ddddddddde``.ddddba#addd",
"dddddddde####dddba###.dd",
"ddddddde#####ddba####.dd",
"dddddde#####edba#####.dd",
"ddddde#######ba######.dd",
"dddde#######aa#######.dd",
"ddde########`########.dd",
"ddb`#################.dd",
"ddb`#################.dd",
"ddde########`########.dd",
"dddde#######aa#######.dd",
"ddddde#######ba######.dd",
"dddddde######dba#####.dd",
"ddddddde#####ddb`####.dd",
"dddddddd#####dddba###cdd",
"ddddddddde``.ddddba#`bdd",
"ddddddddddbcdddddddcbddd",
"dddddddddddddddddddddddd",
"dddddddddddddddddddddddd",
"dddddddddddddddddddddddd"
};
