/* XPM */
static const char *bars_64[] = {
/* width height num_colors chars_per_pixel */
"64 64 14 1", 
/* colors */
"  c #FD0000",
". c #004FAF",
"X c #00FF00",
"o c #000AF5",
"O c #40BF00",
"+ c #00FD02",
"@ c #BF4000",
"# c #FF0000",
"$ c #0000FC",
"% c #FC0000",
"& c #00CA34",
"* c #0000FD",
"= c #01FE00",
"- c #0000FF",
/* pixels */
"$*------------------o.&+XXXXXXXXXXXXXXXXXXX=O@################ %",
"$*------------------o.&+XXXXXXXXXXXXXXXXXXX=O@################ %",
"$*------------------o.&+XXXXXXXXXXXXXXXXXXX=O@################ %",
"$*------------------o.&+XXXXXXXXXXXXXXXXXXX=O@################ %",
"$*------------------o.&+XXXXXXXXXXXXXXXXXXX=O@################ %",
"$*------------------o.&+XXXXXXXXXXXXXXXXXXX=O@################ %",
"$*------------------o.&+XXXXXXXXXXXXXXXXXXX=O@################ %",
"$*------------------o.&+XXXXXXXXXXXXXXXXXXX=O@################ %",
"$*------------------o.&+XXXXXXXXXXXXXXXXXXX=O@################ %",
"$*------------------o.&+XXXXXXXXXXXXXXXXXXX=O@################ %",
"$*------------------o.&+XXXXXXXXXXXXXXXXXXX=O@################ %",
"$*------------------o.&+XXXXXXXXXXXXXXXXXXX=O@################ %",
"$*------------------o.&+XXXXXXXXXXXXXXXXXXX=O@################ %",
"$*------------------o.&+XXXXXXXXXXXXXXXXXXX=O@################ %",
"$*------------------o.&+XXXXXXXXXXXXXXXXXXX=O@################ %",
"$*------------------o.&+XXXXXXXXXXXXXXXXXXX=O@################ %",
"$*------------------o.&+XXXXXXXXXXXXXXXXXXX=O@################ %",
"$*------------------o.&+XXXXXXXXXXXXXXXXXXX=O@################ %",
"$*------------------o.&+XXXXXXXXXXXXXXXXXXX=O@################ %",
"$*------------------o.&+XXXXXXXXXXXXXXXXXXX=O@################ %",
"$*------------------o.&+XXXXXXXXXXXXXXXXXXX=O@################ %",
"$*------------------o.&+XXXXXXXXXXXXXXXXXXX=O@################ %",
"$*------------------o.&+XXXXXXXXXXXXXXXXXXX=O@################ %",
"$*------------------o.&+XXXXXXXXXXXXXXXXXXX=O@################ %",
"$*------------------o.&+XXXXXXXXXXXXXXXXXXX=O@################ %",
"$*------------------o.&+XXXXXXXXXXXXXXXXXXX=O@################ %",
"$*------------------o.&+XXXXXXXXXXXXXXXXXXX=O@################ %",
"$*------------------o.&+XXXXXXXXXXXXXXXXXXX=O@################ %",
"$*------------------o.&+XXXXXXXXXXXXXXXXXXX=O@################ %",
"$*------------------o.&+XXXXXXXXXXXXXXXXXXX=O@################ %",
"$*------------------o.&+XXXXXXXXXXXXXXXXXXX=O@################ %",
"$*------------------o.&+XXXXXXXXXXXXXXXXXXX=O@################ %",
"$*------------------o.&+XXXXXXXXXXXXXXXXXXX=O@################ %",
"$*------------------o.&+XXXXXXXXXXXXXXXXXXX=O@################ %",
"$*------------------o.&+XXXXXXXXXXXXXXXXXXX=O@################ %",
"$*------------------o.&+XXXXXXXXXXXXXXXXXXX=O@################ %",
"$*------------------o.&+XXXXXXXXXXXXXXXXXXX=O@################ %",
"$*------------------o.&+XXXXXXXXXXXXXXXXXXX=O@################ %",
"$*------------------o.&+XXXXXXXXXXXXXXXXXXX=O@################ %",
"$*------------------o.&+XXXXXXXXXXXXXXXXXXX=O@################ %",
"$*------------------o.&+XXXXXXXXXXXXXXXXXXX=O@################ %",
"$*------------------o.&+XXXXXXXXXXXXXXXXXXX=O@################ %",
"$*------------------o.&+XXXXXXXXXXXXXXXXXXX=O@################ %",
"$*------------------o.&+XXXXXXXXXXXXXXXXXXX=O@################ %",
"$*------------------o.&+XXXXXXXXXXXXXXXXXXX=O@################ %",
"$*------------------o.&+XXXXXXXXXXXXXXXXXXX=O@################ %",
"$*------------------o.&+XXXXXXXXXXXXXXXXXXX=O@################ %",
"$*------------------o.&+XXXXXXXXXXXXXXXXXXX=O@################ %",
"$*------------------o.&+XXXXXXXXXXXXXXXXXXX=O@################ %",
"$*------------------o.&+XXXXXXXXXXXXXXXXXXX=O@################ %",
"$*------------------o.&+XXXXXXXXXXXXXXXXXXX=O@################ %",
"$*------------------o.&+XXXXXXXXXXXXXXXXXXX=O@################ %",
"$*------------------o.&+XXXXXXXXXXXXXXXXXXX=O@################ %",
"$*------------------o.&+XXXXXXXXXXXXXXXXXXX=O@################ %",
"$*------------------o.&+XXXXXXXXXXXXXXXXXXX=O@################ %",
"$*------------------o.&+XXXXXXXXXXXXXXXXXXX=O@################ %",
"$*------------------o.&+XXXXXXXXXXXXXXXXXXX=O@################ %",
"$*------------------o.&+XXXXXXXXXXXXXXXXXXX=O@################ %",
"$*------------------o.&+XXXXXXXXXXXXXXXXXXX=O@################ %",
"$*------------------o.&+XXXXXXXXXXXXXXXXXXX=O@################ %",
"$*------------------o.&+XXXXXXXXXXXXXXXXXXX=O@################ %",
"$*------------------o.&+XXXXXXXXXXXXXXXXXXX=O@################ %",
"$*------------------o.&+XXXXXXXXXXXXXXXXXXX=O@################ %",
"$*------------------o.&+XXXXXXXXXXXXXXXXXXX=O@################ %"
};
