/* XPM */
static const char *butterfly_16[] = {
/* width height num_colors chars_per_pixel */
"16 16 241 2", 
/* colors */
"   c #D7AE02",
".  c #13FF25",
"X  c #C9CF01",
"o  c #29FC45",
"O  c #20ACA5",
"+  c #00E8E1",
"@  c #C4AA08",
"#  c #FA20A0",
"$  c #DD7B20",
"%  c #FF2800",
"&  c #32FF0C",
"*  c #FF5E00",
"=  c #F700AC",
"-  c #3638FB",
";  c #4AF633",
":  c #09FF5C",
">  c #66DF21",
",  c #6014FC",
"<  c #5FF52B",
"1  c #94F605",
"2  c #1DC69E",
"3  c #2189BD",
"4  c #2A40FD",
"5  c #01F3AC",
"6  c #CDA806",
"7  c #FF1900",
"8  c #1BF955",
"9  c #F48400",
"0  c #F6B900",
"q  c #ED8B20",
"w  c #CA2045",
"e  c #7A0EF9",
"r  c #0C7BF4",
"t  c #C72084",
"y  c #E5433C",
"u  c #FA9B00",
"i  c #F3CE00",
"p  c #BB02F1",
"a  c #BBEE01",
"s  c #FF7600",
"d  c #20FBB2",
"f  c #9FFC00",
"g  c #CDF000",
"h  c #8CFC20",
"j  c #60FF02",
"k  c #FF2400",
"l  c #FC2053",
"z  c #22D1CA",
"x  c #A403EE",
"c  c #09E993",
"v  c #FF3E00",
"b  c #BAC306",
"n  c #ACD705",
"m  c #CEB302",
"M  c #FE7B00",
"N  c #38FB62",
"B  c #3CFF0A",
"V  c #ADE322",
"C  c #E6D900",
"Z  c #FE5200",
"A  c #B2BC20",
"S  c #A0DF07",
"D  c #07FF3D",
"F  c #E5E000",
"G  c #72E626",
"H  c #20CADC",
"J  c #1B5EF7",
"K  c #46F838",
"L  c #00FE85",
"P  c #23FD49",
"I  c #00D6EF",
"U  c #A69920",
"Y  c #4253FB",
"T  c #D1EA00",
"R  c #9904F2",
"E  c #F7009B",
"W  c #20D7F4",
"Q  c #53FF05",
"!  c #EE00B4",
"~  c #FCB000",
"^  c #FF0059",
"/  c #F67D00",
"(  c #FF2000",
")  c #FF5600",
"_  c #DF4920",
"`  c #EDB100",
"'  c #D9D700",
"]  c #00F0D8",
"[  c #0AE78F",
"{  c #C3E401",
"}  c #CCD700",
"|  c #B3D403",
" . c #DF8C20",
".. c #FD007C",
"X. c #1EE37E",
"o. c #6711FE",
"O. c #FC3F20",
"+. c #0AEC88",
"@. c #C300E1",
"#. c #2C4BF7",
"$. c #059FE1",
"%. c #FE0077",
"&. c #0F78F3",
"*. c #F3DF20",
"=. c #CA2034",
"-. c #BC20AE",
";. c #02FF5B",
":. c #E3DD00",
">. c #C9DF01",
",. c #05DAAC",
"<. c #31F64D",
"1. c #39FD34",
"2. c #B3F700",
"3. c #BFB608",
"4. c #452DFC",
"5. c #01EFB1",
"6. c #207EFC",
"7. c #D1E600",
"8. c #30C85A",
"9. c #01FF79",
"0. c #AADD03",
"q. c #FF4500",
"w. c #CF463C",
"e. c #F97E00",
"r. c #E0A000",
"t. c #2069DF",
"y. c #2098FC",
"u. c #8DFD00",
"i. c #F88500",
"p. c #73FF01",
"a. c #23FA57",
"s. c #9CC618",
"d. c #2090DE",
"f. c #52F62A",
"g. c #2076DF",
"h. c #FE6600",
"j. c #FE7300",
"k. c #AA03ED",
"l. c #40E061",
"z. c #00E3DD",
"x. c #EACF00",
"c. c #70FC04",
"v. c #BC21ED",
"b. c #47E255",
"n. c #8209F7",
"m. c #D3AD01",
"M. c #06C2C4",
"N. c #20DDB9",
"B. c #1F4DFD",
"V. c #05B2D3",
"C. c #CA2067",
"Z. c #3EFF07",
"A. c #2CFC42",
"S. c #098BEE",
"D. c #5AF849",
"F. c #FF3400",
"G. c #42DF4B",
"H. c #FC2045",
"J. c #CCB903",
"K. c #8BF00E",
"L. c #1B58FA",
"P. c #37FE21",
"I. c #F97A00",
"U. c #FC208C",
"Y. c #F88B20",
"T. c #40F73D",
"R. c #7014FA",
"E. c #00FAB9",
"W. c #FF5B00",
"Q. c #DCC83C",
"!. c #07C9BB",
"~. c #02FF61",
"^. c #FE6200",
"/. c #03FF5C",
"(. c #9720C0",
"). c #DC9E01",
"_. c #C0BF05",
"`. c #3BF742",
"'. c #16D89C",
"]. c #1A77E2",
"[. c #D400D4",
"{. c #CBD120",
"}. c #FF8F00",
"|. c #91F904",
" X c #FF3000",
".X c #6EF519",
"XX c #CAB603",
"oX c #2E42F9",
"OX c #FF0700",
"+X c #209DFB",
"@X c #22DF57",
"#X c #07B9C7",
"$X c #20DDD5",
"%X c #FF004C",
"&X c #FC8520",
"*X c #FF007B",
"=X c #0BFF4B",
"-X c #F2A900",
";X c #D2A303",
":X c #24F269",
">X c #20CFB2",
",X c #2CFF0F",
"<X c #96C71D",
"1X c #8AFD00",
"2X c #FF2E00",
"3X c #BE01E4",
"4X c #FC9500",
"5X c #A5A53C",
"6X c #F39300",
"7X c #543CFC",
"8X c #6129C9",
"9X c #FF3B00",
"0X c #EF9500",
"qX c #18FF1E",
"wX c #FF4800",
"eX c #FE8500",
"rX c #FC2034",
"tX c #DF20E7",
"yX c #08A6D7",
"uX c #FB8D00",
"iX c #5AF945",
"pX c #EA00D7",
"aX c #CAD700",
"sX c #43F145",
"dX c #FE6900",
"fX c #00D6E6",
"gX c #39FE1D",
"hX c #FAA100",
"jX c #CA2029",
"kX c #3645C9",
"lX c #9BC812",
"zX c #CAF100",
"xX c #F67A00",
"cX c #FF1D00",
"vX c #4BC73D",
"bX c #F58100",
"nX c #24F950",
"mX c #04AEDE",
"MX c #20ADDF",
"NX c #7DFB02",
"BX c #0AADC9",
/* pixels */
"Q.Y.V N $X+X6.y.W d o h *.&XO.y ",
"D.XX9 S P 5 z.+ E.;.& 2.~ wX( _ ",
"z T.m / 0.gX=X/.D ,Xu.x.*  X^. .",
"Y M.;   e.} NXQ j f C j.9XeXi {.",
"v.- !.f.r.^.-X:.F 0 h.q.hXT 1X> ",
"# k.L.c K.i.v dXj.wXF.4XzXj qX@X",
"l ! , mX1.' ) cXcX( dXC p.. L N.",
"rX..R r 8 a M 7 OX2X}.g Z.~.] MX",
"H.%.x &.nX>.W.k % k s 7.B 9.I g.",
"U.= e yX< 0XZ uXu h.q.` c.: fXt.",
"tXp #.X.3.xXX 1 |.{ 6XdXaXP.5.d.",
"7XoX2 s.;XG :X[ +.a..Xm.I.| A.>X",
"H '.<X6 b.BXJ 4 B.S.,.K J.xXn G.",
"iXlX@ l.].R.3X[.@.n.4 #X`._.bXA ",
"q ).sX$.o.pX*X%X^ E 3X4.V.<.b $ ",
"w.U 8.3 8X-.C.=.jXw t (.kXO vX5X"
};
