/* XPM */
static const char *candle_48[] = {
"48 48 347 2",
"  	c None",
". 	c #000000",
"+ 	c #F36D21",
"@ 	c #F47121",
"# 	c #271305",
"$ 	c #F36921",
"% 	c #F47421",
"& 	c #EE731F",
"* 	c #4C250A",
"= 	c #F36721",
"- 	c #F36B21",
"; 	c #F47221",
"> 	c #E6711E",
", 	c #F25E21",
"' 	c #F36221",
") 	c #F36A21",
"! 	c #F36C21",
"~ 	c #F47021",
"{ 	c #F47820",
"] 	c #F47A20",
"^ 	c #BC6018",
"/ 	c #F25A22",
"( 	c #F36621",
"_ 	c #F36821",
": 	c #F47321",
"< 	c #F47520",
"[ 	c #F47920",
"} 	c #331B06",
"| 	c #F25822",
"1 	c #F25C21",
"2 	c #F36421",
"3 	c #F47720",
"4 	c #D46E1B",
"5 	c #0B0601",
"6 	c #F15022",
"7 	c #F15422",
"8 	c #F25B22",
"9 	c #F25D21",
"0 	c #F26121",
"a 	c #F36F21",
"b 	c #F47B20",
"c 	c #F57C20",
"d 	c #030200",
"e 	c #F14E22",
"f 	c #F15222",
"g 	c #F25922",
"h 	c #F25F21",
"i 	c #67360D",
"j 	c #F14A22",
"k 	c #F14D22",
"l 	c #F15522",
"m 	c #F25722",
"n 	c #F36321",
"o 	c #F36521",
"p 	c #F47620",
"q 	c #F57E20",
"r 	c #814410",
"s 	c #DF3E1F",
"t 	c #F04722",
"u 	c #F14F22",
"v 	c #F15122",
"w 	c #F36E21",
"x 	c #F47C20",
"y 	c #D4371F",
"z 	c #F04322",
"A 	c #F14B22",
"B 	c #512A0A",
"C 	c #CD321E",
"D 	c #F03F23",
"E 	c #F04922",
"F 	c #F14C22",
"G 	c #F25622",
"H 	c #F26221",
"I 	c #F46F21",
"J 	c #F47521",
"K 	c #F57D20",
"L 	c #261405",
"M 	c #D52F1F",
"N 	c #EF3923",
"O 	c #F04023",
"P 	c #F04222",
"Q 	c #F04622",
"R 	c #E52F21",
"S 	c #EF3423",
"T 	c #F03C23",
"U 	c #F03E23",
"V 	c #F04223",
"W 	c #060300",
"X 	c #EE2C23",
"Y 	c #EF3023",
"Z 	c #EF3823",
"` 	c #EF3A23",
" .	c #F04822",
"..	c #F15322",
"+.	c #C06019",
"@.	c #EE2624",
"#.	c #EE2A23",
"$.	c #EF3223",
"%.	c #F04123",
"&.	c #F04522",
"*.	c #F26021",
"=.	c #904612",
"-.	c #050200",
";.	c #ED2224",
">.	c #EE2E23",
",.	c #EF3323",
"'.	c #EF3B23",
").	c #F03D23",
"!.	c #F14922",
"~.	c #9D4B14",
"{.	c #2A0606",
"].	c #ED1E24",
"^.	c #EE2923",
"/.	c #EE2B23",
"(.	c #EF2F23",
"_.	c #EF3723",
":.	c #070101",
"<.	c #EF3226",
"[.	c #EE2425",
"}.	c #ED1D24",
"|.	c #EE2324",
"1.	c #EE2524",
"2.	c #EF3123",
"3.	c #F04422",
"4.	c #0D0302",
"5.	c #A42B1B",
"6.	c #EF3927",
"7.	c #EE2B26",
"8.	c #ED1F24",
"9.	c #ED2124",
"0.	c #EE2D23",
"a.	c #EE2F23",
"b.	c #F25522",
"c.	c #010000",
"d.	c #52180D",
"e.	c #E54026",
"f.	c #EF3C27",
"g.	c #EE2F26",
"h.	c #EE2825",
"i.	c #1A0B03",
"j.	c #F1552A",
"k.	c #F1522A",
"l.	c #F14B29",
"m.	c #F03D27",
"n.	c #EF3727",
"o.	c #EE2925",
"p.	c #EE2525",
"q.	c #EE2424",
"r.	c #EE2824",
"s.	c #EF3623",
"t.	c #DA591D",
"u.	c #F2592A",
"v.	c #F1562A",
"w.	c #F14F29",
"x.	c #F04128",
"y.	c #EF3A27",
"z.	c #EE2D26",
"A.	c #ED2225",
"B.	c #ED2024",
"C.	c #EC5F20",
"D.	c #070301",
"E.	c #F2612B",
"F.	c #F25D2B",
"G.	c #F04829",
"H.	c #F04228",
"I.	c #EF3427",
"J.	c #EF3026",
"K.	c #EE2A25",
"L.	c #0A0401",
"M.	c #BD6023",
"N.	c #F36F2D",
"O.	c #F36C2C",
"P.	c #F3652C",
"Q.	c #F2572A",
"R.	c #F15029",
"S.	c #F04328",
"T.	c #F03F28",
"U.	c #EF3827",
"V.	c #EE2725",
"W.	c #EE2724",
"X.	c #EF3523",
"Y.	c #5B210C",
"Z.	c #DC7329",
"`.	c #F4732D",
" +	c #F3692C",
".+	c #F25B2B",
"++	c #F1542A",
"@+	c #F04628",
"#+	c #EE2E26",
"$+	c #66240E",
"%+	c #F1852E",
"&+	c #F47A2E",
"*+	c #F4772D",
"=+	c #F3702D",
"-+	c #F2622B",
";+	c #F14E29",
">+	c #F14A29",
",+	c #EF3627",
"'+	c #EE2C26",
")+	c #7B2A11",
"!+	c #020100",
"~+	c #F69330",
"{+	c #F5852F",
"]+	c #F5822F",
"^+	c #F47B2E",
"/+	c #F36D2C",
"(+	c #F3662C",
"_+	c #752510",
":+	c #F79A31",
"<+	c #F68D30",
"[+	c #F5892F",
"}+	c #F4742D",
"|+	c #F36E2C",
"1+	c #F2602B",
"2+	c #F04528",
"3+	c #F03E27",
"4+	c #EE2625",
"5+	c #611D0D",
"6+	c #010100",
"7+	c #F7A232",
"8+	c #F69430",
"9+	c #F69030",
"0+	c #F58A2F",
"a+	c #F47C2E",
"b+	c #F4752D",
"c+	c #F3672C",
"d+	c #F3642B",
"e+	c #F14C29",
"f+	c #320E07",
"g+	c #EEA531",
"h+	c #F79F32",
"i+	c #F79B31",
"j+	c #F69530",
"k+	c #F5872F",
"l+	c #F5802E",
"m+	c #F4722D",
"n+	c #F3682C",
"o+	c #F25A2A",
"p+	c #F1572A",
"q+	c #EE2A26",
"r+	c #040100",
"s+	c #D0962B",
"t+	c #F8A632",
"u+	c #F7A332",
"v+	c #F79C31",
"w+	c #F68E30",
"x+	c #F4762D",
"y+	c #F25E2B",
"z+	c #F04A29",
"A+	c #EE2924",
"B+	c #DF3220",
"C+	c #715417",
"D+	c #F8AD33",
"E+	c #F8AA33",
"F+	c #F69631",
"G+	c #F68F30",
"H+	c #F5812E",
"I+	c #F47E2E",
"J+	c #F25F2B",
"K+	c #F1512A",
"L+	c #F04728",
"M+	c #ED2125",
"N+	c #921E15",
"O+	c #F9B934",
"P+	c #F9B534",
"Q+	c #F8AE33",
"R+	c #F7A132",
"S+	c #F68C30",
"T+	c #F3712D",
"U+	c #F36A2C",
"V+	c #F25C2B",
"W+	c #F04428",
"X+	c #030000",
"Y+	c #F9C035",
"Z+	c #F9BC35",
"`+	c #F9B634",
" @	c #F8A832",
".@	c #F4782E",
"+@	c #F4712D",
"@@	c #F2632B",
"#@	c #EF3326",
"$@	c #FAC435",
"%@	c #FAC035",
"&@	c #F8AC33",
"*@	c #F7A532",
"=@	c #F69731",
"-@	c #F57F2E",
";@	c #EE2325",
">@	c #0C0A02",
",@	c #A08422",
"'@	c #FAC836",
")@	c #F9BA34",
"!@	c #F9B334",
"~@	c #F5842F",
"{@	c #F1532A",
"]@	c #EF3126",
"^@	c #E82925",
"/@	c #62100F",
"(@	c #E0B931",
"_@	c #FAC235",
":@	c #F9BB34",
"<@	c #F69531",
"[@	c #F69230",
"}@	c #F58B2F",
"|@	c #F47D2E",
"1@	c #F14D29",
"2@	c #4A0F0B",
"3@	c #685716",
"4@	c #FAC536",
"5@	c #F9BE35",
"6@	c #F8B133",
"7@	c #F79931",
"8@	c #F15129",
"9@	c #060101",
"0@	c #79651A",
"a@	c #FBCD36",
"b@	c #F9BF35",
"c@	c #F8A732",
"d@	c #F7A432",
"e@	c #F79D31",
"f@	c #060501",
"g@	c #E5BE32",
"h@	c #FAC335",
"i@	c #F8AB33",
"j@	c #FACA36",
"k@	c #FAC736",
"l@	c #F8B234",
"m@	c #F8AF33",
"n@	c #F8A833",
"o@	c #732F14",
"p@	c #372D0B",
"q@	c #F4C634",
"r@	c #F9BD35",
"s@	c #F5832F",
"t@	c #251206",
"u@	c #FAC535",
"v@	c #FAC135",
"w@	c #2E2509",
"x@	c #997B21",
"y@	c #F9B434",
"z@	c #BF7326",
"A@	c #2F1B09",
"B@	c #F0B833",
"C@	c #F9B834",
"D@	c #1E1406",
"E@	c #1D1706",
"F@	c #DDA72F",
". . . . . . . . . . . . . . . . . . . . . . . . . . . . . . . . . . . . . . . . . . . . . . . . ",
". . . . . . . . . . . . . . . . + @ # . . . . . . . . . . . . . . . . . . . . . . . . . . . . . ",
". . . . . . . . . . . . . . . . $ + % & * . . . . . . . . . . . . . . . . . . . . . . . . . . . ",
". . . . . . . . . . . . . . . . = - ; % > . . . . . . . . . . . . . . . . . . . . . . . . . . . ",
". . . . . . . . . . . . . . . . , ' ) ! ~ { ] ^ . . . . . . . . . . . . . . . . . . . . . . . . ",
". . . . . . . . . . . . . . . . / , ( _ ! : < [ } . . . . . . . . . . . . . . . . . . . . . . . ",
". . . . . . . . . . . . . . . . | 1 2 ( ) @ : 3 4 5 . . . . . . . . . . . . . . . . . . . . . . ",
". . . . . . . . . . . . . . . . 6 7 8 9 0 $ - a 3 b c d . . . . . . . . . . . . . . . . . . . . ",
". . . . . . . . . . . . . . . . e f g 8 h = $ + % { ] i . . . . . . . . . . . . . . . . . . . . ",
". . . . . . . . . . . . . . . . j k l m 8 n o $ ~ % p q r 5 . . . . . . . . . . . . . . . . . . ",
". . . . . . . . . . . . . . . . s t u v l 1 h ' ) w ~ { x q . . . . . . . . . . . . . . . . . . ",
". . . . . . . . . . . . . . . . y z A k v | / , ( ) ! : 3 [ B . . . . . . . . . . . . . . . . . ",
". . . . . . . . . . . . . . . . C D t E F 7 G / H ( _ I : J K L . . . . . . . . . . . . . . . . ",
". . . . . . . . . . . . . . . . M N O P Q e 6 7 8 h 0 $ + a 3 b . . . . . . . . . . . . . . . . ",
". . . . . . . . . . . . . . . . R S T U V j F 6 m 8 9 o $ - ; p W . . . . . . . . . . . . . . . ",
". . . . . . . . . . . . . . . . X Y Z ` U Q  .A ..m g 0 o = w ; +.. . . . . . . . . . . . . . . ",
". . . . . . . . . . . . . . . . @.#.$.S Z D %.&.k v ../ , *._ ! % =.-.. . . . . . . . . . . . . ",
". . . . . . . . . . . . . . . . ;.@.>.Y ,.'.).%.!.k u G / 1 2 _ ~ : ~.. . . . . . . . . . . . . ",
". . . . . . . . . . . . . . . {.].;.^./.(._.N ).&.E j f G | *.2 - I @ . . . . . . . . . . . . . ",
". . . . . . . . . . . . . . :.<.[.}.|.1.^.2.,._.U P 3.F 6 f g 9 o $ - . . . . . . . . . . . . . ",
". . . . . . . . . . . . . 4.5.6.7.[.8.9.1.0.a.$.` U O  .F e b.g 0 o = c.. . . . . . . . . . . . ",
". . . . . . . . . . . . . d.e.f.g.h.}.8.|.#.X Y Z T U Q j F ..m h n o i.. . . . . . . . . . . . ",
". . . . . . . . . . . . . j.k.l.m.n.o.p.8.;.q.r.Y S s.).%.z A u m / 1 t.. . . . . . . . . . . . ",
". . . . . . . . . . . . . u.v.w.x.y.z.o.A.B.;.@.>.$.S '.D %.!.k 7 | / C.. . . . . . . . . . . . ",
". . . . . . . . . . . . D.E.F.v.G.H.I.J.K.}.].;.^.0.(._.'.).&.E 6 7 G , L.. . . . . . . . . . . ",
". . . . . . . . . . . . M.N.O.P.Q.R.S.T.U.7.V.B.9.1.W.a.,.X.T O  .F e G Y.. . . . . . . . . . . ",
". . . . . . . . . . . . Z.`.N. +.+++@+S.f.#+7.[.8.|.1.0.2.,.` U Q j F ..$+. . . . . . . . . . . ",
". . . . . . . . . . . . %+&+*+=+-+.+;+>+S.,+<.'+].8.9.r.X >.s.` V Q  .u )+. . . . . . . . . . . ",
". . . . . . . . . . . !+~+{+]+^+/+(+u.j.;+x.m.n.o.A.8.;.@.r.Y S '.D %.!._+. . . . . . . . . . . ",
". . . . . . . . . . . d :+<+[+]+}+|+1+F.v.G.2+3+J.o.4+].;.q.X Y _.'.).&.5+. . . . . . . . . . . ",
". . . . . . . . . . . 6+7+8+9+0+a+b+c+d+F.w.e+2+n.J.z.8.].B.W./.,._.N %.f+. . . . . . . . . . . ",
". . . . . . . . . . . . g+h+i+j+k+l+m+N.n+o+p+R.S.f.U.q+[.B.9.1.0.2.,.` r+. . . . . . . . . . . ",
". . . . . . . . . . . . s+t+u+v+w+k+&+x+N.-+y+Q.z+S.T.<.7.h.}.9.A+0.a.B+. . . . . . . . . . . . ",
". . . . . . . . . . . . C+D+E+u+F+G+H+I+*+ +(+J+K+>+L+6.<.g.M+}.1.r.#.N+. . . . . . . . . . . . ",
". . . . . . . . . . . . . O+P+Q+R+:+S+[+]+}+T+U+V+j.k.W+m.y.'+p.].;.q.X+. . . . . . . . . . . . ",
". . . . . . . . . . . . . Y+Z+`+ @R+~+9+[+^+.@+@@@F.u.l.2+x.#@z.8.].B.. . . . . . . . . . . . . ",
". . . . . . . . . . . . . $@%@O+&@*@=@8+<+-@a+b+c+1+F.w.G.2+n.J.;@}.].. . . . . . . . . . . . . ",
". . . . . . . . . . . . . >@,@'@)@!@t+7+i+w+0+~@x+N.O.y+p+{@@+T.]@^@/@. . . . . . . . . . . . . ",
". . . . . . . . . . . . . . . (@_@:@D+E+u+<@[@}@|@x+`.P.y+.+1@@+6.2@. . . . . . . . . . . . . . ",
". . . . . . . . . . . . . . . 3@4@5@6@D+t+7@<@w+H+&+*+ +-+J+8@>+f.9@. . . . . . . . . . . . . . ",
". . . . . . . . . . . . . . . . 0@a@b@Z+P+c@d@e@G+[+{+*+T+/+J+u.. . . . . . . . . . . . . . . . ",
". . . . . . . . . . . . . . . . f@g@h@Y+O+i@ @R+~+S+[+^+}+T+@@V+. . . . . . . . . . . . . . . . ",
". . . . . . . . . . . . . . . . . . j@k@%@l@m@n@i+8+9+]+a+.@U+o@. . . . . . . . . . . . . . . . ",
". . . . . . . . . . . . . . . . . . . p@q@r@)@!@*@h+i+<+k+s@t@. . . . . . . . . . . . . . . . . ",
". . . . . . . . . . . . . . . . . . . . . u@v@:@D+t+7+<@w+}@. . . . . . . . . . . . . . . . . . ",
". . . . . . . . . . . . . . . . . . . . . w@x@_@y@D+E+v+z@A@. . . . . . . . . . . . . . . . . . ",
". . . . . . . . . . . . . . . . . . . . . . . . B@C@P+D@. . . . . . . . . . . . . . . . . . . . ",
". . . . . . . . . . . . . . . . . . . . . . . . E@Y+F@. . . . . . . . . . . . . . . . . . . . . "};
