/* XPM */
static const char *cc_radialin_xpm[] = {
/* width height num_colors chars_per_pixel */
"    13    13       3            1",
/* colors */
"[ c #82b2ce",
"# c #444444",
"` c #ffffff",
/* pixels */
"`````````````",
"``````````#``",
"`````````#```",
"`````#``#````",
"`````#`#`````",
"`````##``````",
"`````####````",
"`````````````",
"`````````````",
"`````````````",
"`````````````",
"`````````````",
"`````````````"
};
