/* XPM */
static const char * colors_xpm[] = {
"24 24 8 1",
" 	c None",
".	c #000000",
"+	c #A0A0A0",
"@	c #B6C7FD",
"#	c #94ACFD",
"$	c #5E83FB",
"%	c #3261FA",
"&	c #0A42F9",
"                        ",
"                        ",
"                        ",
"                        ",
"     .         .        ",
"    +.        ..        ",
"   +.+       +.+        ",
". +.+     . ..+         ",
" ...       ...          ",
"  .         .           ",
"                        ",
" @@@  ###  $$$  %%%  &&&",
" @@@  ###  $$$  %%%  &&&",
" @@@  ###  $$$  %%%  &&&",
" @@@  ###  $$$  %%%  &&&",
" @@@  ###  $$$  %%%  &&&",
" @@@  ###  $$$  %%%  &&&",
"                        ",
"                        ",
"                        ",
"                        ",
"                        ",
"                        ",
"                        "};
