/* XPM */
static const char *ColorWash[] = {
/* columns rows colors chars-per-pixel */
"16 16 2 1 ",
"  c #A2A20000FFFF",
". c None",
/* pixels */
"       .........",
"       .........",
"       .........",
"       .........",
"       .........",
"       .........",
"       .........",
"       .........",
"       .........",
"       .........",
"       .........",
"       .........",
"       .........",
"       .........",
"       .........",
"       ........."
};
