/* XPM */
static char *control_stop_icon[] = {
/* columns rows colors chars-per-pixel */
"24 24 214 2",
"   c #474747",
".  c #4A4A4A",
"X  c #4B4B4A",
"o  c #585858",
"O  c #5B5B5B",
"+  c #686868",
"@  c #69696A",
"#  c #717171",
"$  c #737372",
"%  c #727273",
"&  c #747474",
"*  c #777777",
"=  c #7D7D7D",
"-  c #7F7F80",
";  c #828282",
":  c #878787",
">  c #888888",
",  c #909193",
"<  c #929393",
"1  c #939393",
"2  c #909394",
"3  c #919496",
"4  c #939596",
"5  c #979797",
"6  c #939598",
"7  c #949698",
"8  c #959799",
"9  c #95979A",
"0  c #97989A",
"q  c #96989B",
"w  c #999999",
"e  c #9A9A9A",
"r  c #9B9B9B",
"t  c #999B9E",
"y  c #9C9C9C",
"u  c #9B9DA0",
"i  c #9C9EA0",
"p  c #9D9FA0",
"a  c #9C9EA1",
"s  c #9D9FA1",
"d  c #9D9FA2",
"f  c #9FA1A3",
"g  c #9FA1A5",
"h  c #A0A0A0",
"j  c #A2A1A2",
"k  c #A0A2A5",
"l  c #A1A3A6",
"z  c #A2A4A5",
"x  c #A4A4A4",
"c  c #A6A7A8",
"v  c #A6A8A9",
"b  c #A6A8AA",
"n  c #A7A9AB",
"m  c #A7A9AC",
"M  c #A9A9A9",
"N  c #AAA9A9",
"B  c #A8AAAB",
"V  c #AAAAAA",
"C  c #A8AAAC",
"Z  c #A9AAAC",
"A  c #A9ABAC",
"S  c #A8AAAD",
"D  c #AAABAD",
"F  c #A9ABAE",
"G  c #ABACAE",
"H  c #ABADAF",
"J  c #ABAEAF",
"K  c #ADADAD",
"L  c #ACADAF",
"P  c #AFAFAF",
"I  c #ACAEB0",
"U  c #ADAFB0",
"Y  c #ADAFB2",
"T  c #AEB0B1",
"R  c #AEB0B2",
"E  c #AFB1B2",
"W  c #AFB1B3",
"Q  c #B1B0B0",
"!  c #B0B2B3",
"~  c #B3B3B3",
"^  c #B1B3B4",
"/  c #B2B3B4",
"(  c #B2B3B5",
")  c #B3B4B6",
"_  c #B2B5B6",
"`  c #B4B4B4",
"'  c #B6B6B6",
"]  c #B5B7B8",
"[  c #B5B7BA",
"{  c #B5B8BB",
"}  c #B8B8B9",
"|  c #B8B9BB",
" . c #BABBBD",
".. c #BCBCBC",
"X. c #BCBCBD",
"o. c #BDBDBD",
"O. c #BDBEBF",
"+. c #BFBFBF",
"@. c #C0C0C0",
"#. c #C1C1C1",
"$. c #C0C1C2",
"%. c #C1C1C3",
"&. c #C0C2C3",
"*. c #C1C2C3",
"=. c #C1C2C4",
"-. c #C3C3C4",
";. c #C3C4C5",
":. c #C4C4C4",
">. c #C4C5C5",
",. c #C5C5C5",
"<. c #C5C5C6",
"1. c #C6C6C6",
"2. c #C8C8C8",
"3. c #C8C8C9",
"4. c #C9C9C9",
"5. c #CBCDCE",
"6. c #CCCCCC",
"7. c #CCCCCD",
"8. c #CCCDCE",
"9. c #CCCDCF",
"0. c #CCCECF",
"q. c #CDCECF",
"w. c #CECECF",
"e. c #CFCFCF",
"r. c #CDCFD0",
"t. c #CECFD1",
"y. c #CED0D0",
"u. c #CED0D1",
"i. c #CFD0D1",
"p. c #CFD1D2",
"a. c #D0D0D0",
"s. c #D0D1D2",
"d. c #D1D1D2",
"f. c #D0D2D3",
"g. c #D1D3D4",
"h. c #D2D3D4",
"j. c #D1D4D5",
"k. c #D3D4D5",
"l. c #D3D5D6",
"z. c #D4D5D6",
"x. c #D4D6D7",
"c. c #D5D6D7",
"v. c #D6D7D7",
"b. c #D5D7D8",
"n. c #D6D7D8",
"m. c #D7D8D8",
"M. c #D6D8D9",
"N. c #D7D9DA",
"B. c #D8D9DA",
"V. c #D8DADA",
"C. c #D8DADB",
"Z. c #D9DADB",
"A. c #DADADB",
"S. c #D9DBDC",
"D. c #DADBDC",
"F. c #DADCDC",
"G. c #DADCDD",
"H. c #DBDCDD",
"J. c #DBDDDE",
"K. c #DCDDDE",
"L. c #DDDFDF",
"P. c #DEDEDE",
"I. c #DEDEDF",
"U. c #DEDFE0",
"Y. c #DFE1E1",
"T. c #DFE1E2",
"R. c #E0E0E0",
"E. c #E1E1E1",
"W. c #E0E1E2",
"Q. c #E2E2E3",
"!. c #E3E3E3",
"~. c #E2E3E4",
"^. c #E3E3E4",
"/. c #E3E4E5",
"(. c #E3E4E6",
"). c #E4E4E5",
"_. c #E4E5E5",
"`. c #E4E5E6",
"'. c #E5E5E6",
"]. c #E6E5E6",
"[. c #E5E6E6",
"{. c #E5E6E7",
"}. c #E6E6E6",
"|. c #E6E6E7",
" X c #E6E7E7",
".X c #E6E7E8",
"XX c #E7E7E8",
"oX c #E7E8E8",
"OX c #E7E8E9",
"+X c #E8E8E9",
"@X c #E8E9EA",
"#X c #E9E9EA",
"$X c #E9EAEA",
"%X c #EAEAEB",
"&X c #EAEBEC",
"*X c #EBEBEC",
"=X c #EBECED",
"-X c #ECECED",
";X c #EDEDED",
":X c #ECEDEE",
">X c #EDEDEE",
",X c #EDEEEE",
"<X c #EDEEEF",
"1X c #EEEEEF",
"2X c #EEEFEF",
"3X c #EEEFF0",
"4X c #EFEFF0",
"5X c #F0F0F1",
"6X c #F0F1F1",
"7X c #F0F0F2",
"8X c #F1F1F2",
"9X c #F3F3F4",
"0X c #F4F4F5",
"qX c None",
/* pixels */
"qXqXqXqXqXqXqXqX0 M T P P P M 5 qXqXqXqXqXqXqXqX",
"qXqXqXqXqXqXw #.B.[.$X$X$X$XXXB.#.w qXqXqXqXqXqX",
"qXqXqXqXqXM /.$XB.f.w.5.5.5.f.B.$X/.V qXqXqXqXqX",
"qXqXqXqXo.2XF.5.w.y.w.w.y.y.w.w.5.K.2X} qXqXqXqX",
"qXqXqX` oXF.t.y.p.y.y.y.y.y.y.p.y.w.F.[.~ qXqXqX",
"qXqX< [.Y.f.f.h.p.l.p.l.p.l.l.p.f.f.f.!.(.< qXqX",
"qXqX4..Xh.l.x.t.;.=.&.#.&.#.=.;.f.x.k.f.XX<.qXqX",
"qX> !.B.l.x.n.U u c b m A S F l ` x.x.l.N.!.: qX",
"qXQ .Xn.n.n.D.c O.f g f f g a #.U D.n.n.n./.P qX",
"qX;./.N.N.D.K.n { 6 9 q 0 9 6  .U F.N.N.N./.#.qX",
"qX<.Q.D.D.D.U.S _ t u a u t t { T U.D.D.D.Q.;.qX",
"qX<.[.K.K.K.!.S W g l l l l g ~ W T.F.U.U.[.3.qX",
"qX;.oXU.U.U.Q.S I m m m S m m W ( Q.U.U.U.[.#.qX",
"qXo..X!.W.W.[.I m Y W U T T U I ( Q.Y.T.!.[.` qX",
"qXj /.Q.Q.Q.[.I m { [ [ [ { { I ( [.Q.Q.!.Q.w qX",
"qXO N.%X[.(..Xt.q 2 2 4 4 6 9 u y..X`./.$Xw.O qX",
"qXqXx 2XXX[..X$X-X-X-X-X-X-X%X%X@X.X.X.X2Xw qXqX",
"qXqX@ f.4X$X%XXXXX$X$XXX%X%X%X%X%X.X$X3X3.+ qXqX",
"qXqXqX; x.2X%X%X$X%X*X$X%X%X%X%X%X=X3X5.- qXqXqX",
"qXqXqXqX= t.7X7X2X-X-X2X-X-X3X-X3X3X3.* qXqXqXqX",
"qXqXqXqXqX% +.$X9X4X8X4X8X4X8X9X!.} % qXqXqXqXqX",
"qXqXqXqXqXqXqX& h f.K.E.R.K.w.y % qXqXqXqXqXqXqX",
"qXqXqXqXqXqXqXqXqX  X . . X   qXqXqXqXqXqXqXqXqX",
"qXqXqXqXqXqXqXqXqXqXqXqXqXqXqXqXqXqXqXqXqXqXqXqX"
};
