/* XPM */
static const char *cube_icon_64_xpm[] = {
"64 64 219 2 0 0",
"   c #FFE2E2",
"!  c #FE898E",
"#  c #FFBFC1",
"$  c #FFEAEB",
"%  c #FFA7AB",
"&  c #FE7A80",
"'  c #FF7F84",
"(  c #FF7B82",
")  c #FF9397",
"*  c #FFD7D9",
"+  c #FFBCBF",
",  c #FE7D83",
"-  c #FF7F85",
".  c #FF7D83",
"/  c #FF989E",
"0  c #FFC6CA",
"1  c #FF8A90",
"2  c #FF7C82",
"3  c #FF7E83",
"4  c #FF8288",
"5  c #FFAEB1",
"6  c #FFE8EA",
"7  c #FF979C",
"8  c #FF7C81",
"9  c #FF8187",
":  c #FFD4D5",
";  c #FF9FA2",
"<  c #FF8085",
"=  c #FF8A8F",
">  c #FFE5E6",
"?  c #FFC3C5",
"@  c #FE8287",
"A  c #FF7A80",
"B  c #FFADB0",
"C  c #FFDFE1",
"D  c #FF7B80",
"E  c #FFBEC1",
"F  c #FFE8E9",
"G  c #FF9CA1",
"H  c #FE7C83",
"I  c #FF8F94",
"J  c #FFCED0",
"K  c #FFB8BB",
"L  c #FF797E",
"M  c #FFC2C5",
"N  c #FF8489",
"O  c #FF8287",
"P  c #FFA4A8",
"Q  c #FFDDDE",
"R  c #FF969B",
"S  c #FE8186",
"T  c #FFC8CA",
"U  c #FE999D",
"V  c #FE7F85",
"W  c #FF838A",
"X  c #FFE7E7",
"Y  c #FFB6B9",
"Z  c #FEA3A7",
"[  c #FFD9DB",
"]  c #FF7E85",
"^  c #FF787E",
"_  c #FFBDC0",
"`  c #FF9398",
"a  c #FE8A8F",
"b  c #FFD2D4",
"c  c #EBBCBE",
"d  c #D94A50",
"e  c #F8757A",
"f  c #FD7D83",
"g  c #F1656D",
"h  c #E97F85",
"i  c #ECBEC0",
"j  c #BF292F",
"k  c #BE292F",
"l  c #E0535A",
"m  c #FF7F86",
"n  c #F87279",
"o  c #E0464E",
"p  c #DE434B",
"q  c #E98086",
"r  c #BF2A30",
"s  c #BD282E",
"t  c #C8353C",
"u  c #E85F65",
"v  c #FF8388",
"w  c #FF8186",
"x  c #F9757A",
"y  c #E7535A",
"z  c #DC4149",
"{  c #DD434B",
"|  c #CC3A40",
"}  c #FF8086",
"~  c #FE8085",
" ! c #EE5E66",
"!! c #C02C32",
"#! c #D3434A",
"$! c #FF7E84",
"%! c #F0636A",
"&! c #E0464F",
"'! c #DD424A",
"(! c #BF2930",
")! c #C12B32",
"*! c #E65E64",
"+! c #F77177",
",! c #E44E56",
"-! c #DC4249",
".! c #C22E34",
"/! c #F26D73",
"0! c #FE8185",
"1! c #FE7C82",
"2! c #E65058",
"3! c #BD272E",
"4! c #D4444A",
"5! c #F67379",
"6! c #EE5F66",
"7! c #DF454D",
"8! c #BC262C",
"9! c #DF5359",
":! c #FB7B81",
";! c #FF8084",
"<! c #FE7E84",
"=! c #F76F76",
">! c #DE444C",
"?! c #C53238",
"@! c #E55C62",
"A! c #FF848A",
"B! c #F9747B",
"C! c #E34D55",
"D! c #C02A30",
"E! c #CB3A40",
"F! c #F26E74",
"G! c #FC7B7F",
"H! c #EC5C63",
"I! c #DB4048",
"J! c #BF2B31",
"K! c #D03F45",
"L! c #F0626A",
"M! c #DE444B",
"N! c #C12C32",
"O! c #E0555B",
"P! c #F56C73",
"Q! c #C02B31",
"R! c #F16C72",
"S! c #FC7980",
"T! c #E54F58",
"U! c #CE3C43",
"V! c #F77479",
"W! c #EA5961",
"X! c #DE454D",
"Y! c #DD434A",
"Z! c #BB242A",
"[! c #DE4F56",
"]! c #CA333A",
"^! c #BE282E",
"_! c #D2676B",
"`! c #BC2026",
"a! c #DC3F47",
"b! c #DF4F57",
"c! c #F9DEDF",
"d! c #ECC1C2",
"e! c #CB5055",
"f! c #BD242B",
"g! c #DF4F58",
"h! c #EFA3A7",
"i! c #E5A9AC",
"j! c #BE262C",
"k! c #DD4048",
"l! c #E97F84",
"m! c #DC898C",
"n! c #BD242A",
"o! c #DC3942",
"p! c #E67278",
"q! c #F8D8DA",
"r! c #C94A4F",
"s! c #E05057",
"t! c #F3BDC0",
"u! c #C3393E",
"v! c #BE272D",
"w! c #DC3A43",
"x! c #F0A9AC",
"y! c #C2353A",
"z! c #E77A80",
"{! c #FCEEEF",
"|! c #BF262C",
"}! c #DF5057",
"~! c #F9E0E2",
" # c #CD595E",
"!# c #BD2329",
"## c #DC4048",
"$# c #DF5058",
"%# c #F2B4B7",
"&# c #C23439",
"'# c #BF282E",
"(# c #DE464E",
")# c #E88287",
"*# c #E1999C",
"+# c #BE242A",
",# c #DC3C44",
"-# c #E7787E",
".# c #FAE6E6",
"/# c #CF5F64",
"0# c #BE262D",
"1# c #E25C63",
"2# c #F3C0C2",
"3# c #C53A40",
"4# c #DD4047",
"5# c #F1B0B3",
"6# c #E3A0A4",
"7# c #C23238",
"8# c #DD424B",
"9# c #EB8D92",
":# c #FCECED",
";# c #D46F73",
"<# c #C02D33",
"=# c #CA3239",
"># c #E15A60",
"?# c #FAE3E5",
"@# c #DE7D82",
"A# c None",
"A#A#A#A#A#A#A#A#A#A#A#A#A#A#A#A#A#A#A#A#A#A#A#A#A#A#A#A#A#A#A#A#A#A#A#A#A#A#A#A#A#A#A#A#A#A#A#A#A#A#A#A#A#A#A#A#A#A#A#A#A#A#A#A#",
"A#A#A#A#A#A#A#A#A#A#A#A#A#A#A#A#A#A#A#A#A#A#A#A#A#A#A#A#A#A#A#  ! # A#A#A#A#A#A#A#A#A#A#A#A#A#A#A#A#A#A#A#A#A#A#A#A#A#A#A#A#A#A#",
"A#A#A#A#A#A#A#A#A#A#A#A#A#A#A#A#A#A#A#A#A#A#A#A#A#A#A#A#A#$ % & ' ( ) * A#A#A#A#A#A#A#A#A#A#A#A#A#A#A#A#A#A#A#A#A#A#A#A#A#A#A#A#",
"A#A#A#A#A#A#A#A#A#A#A#A#A#A#A#A#A#A#A#A#A#A#A#A#A#A#A#A#+ , - ' ' ' ' . / A#A#A#A#A#A#A#A#A#A#A#A#A#A#A#A#A#A#A#A#A#A#A#A#A#A#A#",
"A#A#A#A#A#A#A#A#A#A#A#A#A#A#A#A#A#A#A#A#A#A#A#A#A#A#0 1 2 ' ' ' ' ' ' ' 3 4 5 A#A#A#A#A#A#A#A#A#A#A#A#A#A#A#A#A#A#A#A#A#A#A#A#A#",
"A#A#A#A#A#A#A#A#A#A#A#A#A#A#A#A#A#A#A#A#A#A#A#A#6 7 8 ' ' ' ' ' ' ' ' ' ' ' 3 9 : A#A#A#A#A#A#A#A#A#A#A#A#A#A#A#A#A#A#A#A#A#A#A#",
"A#A#A#A#A#A#A#A#A#A#A#A#A#A#A#A#A#A#A#A#A#A#A#; < ' ' ' ' ' ' ' ' ' ' ' ' ' ' ' ' = > A#A#A#A#A#A#A#A#A#A#A#A#A#A#A#A#A#A#A#A#A#",
"A#A#A#A#A#A#A#A#A#A#A#A#A#A#A#A#A#A#A#A#A#? @ 3 ' ' ' ' ' ' ' ' ' ' ' ' ' ' ' ' ' ' A B A#A#A#A#A#A#A#A#A#A#A#A#A#A#A#A#A#A#A#A#",
"A#A#A#A#A#A#A#A#A#A#A#A#A#A#A#A#A#A#A#C 4 - - ' ' ' ' ' ' ' ' ' ' ' ' ' ' ' ' ' ' ' ' ' D E A#A#A#A#A#A#A#A#A#A#A#A#A#A#A#A#A#A#",
"A#A#A#A#A#A#A#A#A#A#A#A#A#A#A#A#A#F G . ' ' ' ' ' ' ' ' ' ' ' ' ' ' ' ' ' ' ' ' ' ' ' ' ' H I J A#A#A#A#A#A#A#A#A#A#A#A#A#A#A#A#",
"A#A#A#A#A#A#A#A#A#A#A#A#A#A#A#A#K L ' ' ' ' ' ' ' ' ' ' ' ' ' ' ' ' ' ' ' ' ' ' ' ' ' ' ' ' ' A 7 A#A#A#A#A#A#A#A#A#A#A#A#A#A#A#",
"A#A#A#A#A#A#A#A#A#A#A#A#A#A#M N 3 ' ' ' ' ' ' ' ' ' ' ' ' ' ' ' ' ' ' ' ' ' ' ' ' ' ' ' ' ' ' ' ' O P A#A#A#A#A#A#A#A#A#A#A#A#A#",
"A#A#A#A#A#A#A#A#A#A#A#A#Q R A ' ' ' ' ' ' ' ' ' ' ' ' ' ' ' ' ' ' ' ' ' ' ' ' ' ' ' ' ' ' ' ' ' ' ' . S T A#A#A#A#A#A#A#A#A#A#A#",
"A#A#A#A#A#A#A#A#A#A#A#U . V ' ' ' ' ' ' ' ' ' ' ' ' ' ' ' ' ' ' ' ' ' ' ' ' ' ' ' ' ' ' ' ' ' ' ' ' ' ' ' W X A#A#A#A#A#A#A#A#A#",
"A#A#A#A#A#A#A#A#A#Y W 3 ' ' ' ' ' ' ' ' ' ' ' ' ' ' ' ' ' ' ' ' ' ' ' ' ' ' ' ' ' ' ' ' ' ' ' ' ' ' ' ' ' ' 2 Z A#A#A#A#A#A#A#A#",
"A#A#A#A#A#A#A#[ ] 3 ' ' ' ' ' ' ' ' ' ' ' ' ' ' ' ' ' ' ' ' ' ' ' ' ' ' ' ' ' ' ' ' ' ' ' ' ' ' ' ' ' ' ' ' ' ' ^ _ A#A#A#A#A#A#",
"A#A#A#A#A#A#` ' ' ' ' ' ' ' ' ' ' ' ' ' ' ' ' ' ' ' ' ' ' ' ' ' ' ' ' ' ' ' ' ' ' ' ' ' ' ' ' ' ' ' ' ' ' ' ' ' ' . a b A#A#A#A#",
"A#A#A#A#A#c d e 9 ' ' ' ' ' ' ' ' ' ' ' ' ' ' ' ' ' ' ' ' ' ' ' ' ' ' ' ' ' ' ' ' ' ' ' ' ' ' ' ' ' ' ' ' ' ' ' < f g h A#A#A#A#",
"A#A#A#A#A#i j k l m ' ' ' ' ' ' ' ' ' ' ' ' ' ' ' ' ' ' ' ' ' ' ' ' ' ' ' ' ' ' ' ' ' ' ' ' ' ' ' ' ' ' ' ' ' < n o p q A#A#A#A#",
"A#A#A#A#A#i j r s t u v ' ' ' ' ' ' ' ' ' ' ' ' ' ' ' ' ' ' ' ' ' ' ' ' ' ' ' ' ' ' ' ' ' ' ' ' ' ' ' ' ' w x y z { { q A#A#A#A#",
"A#A#A#A#A#i j r r r s | e } ' ' ' ' ' ' ' ' ' ' ' ' ' ' ' ' ' ' ' ' ' ' ' ' ' ' ' ' ' ' ' ' ' ' ' ' ' ~ ,  !z { { { { q A#A#A#A#",
"A#A#A#A#A#i j r r r r r !!#!$!< ' ' ' ' ' ' ' ' ' ' ' ' ' ' ' ' ' ' ' ' ' ' ' ' ' ' ' ' ' ' ' ' ' V 9 %!&!'!{ { { { { q A#A#A#A#",
"A#A#A#A#A#i j r r r r r r (!)!*!$!< ' ' ' ' ' ' ' ' ' ' ' ' ' ' ' ' ' ' ' ' ' ' ' ' ' ' ' ' ' ' w +!,!-!{ { { { { { { q A#A#A#A#",
"A#A#A#A#A#i j r r r r r r r r r .!/!0!' ' ' ' ' ' ' ' ' ' ' ' ' ' ' ' ' ' ' ' ' ' ' ' ' ' ' ' 1!2!{ { { { { { { { { { q A#A#A#A#",
"A#A#A#A#A#i j r r r r r r r r r r 3!4!5!O ' ' ' ' ' ' ' ' ' ' ' ' ' ' ' ' ' ' ' ' ' ' ' < ] 6!7!'!{ { { { { { { { { { q A#A#A#A#",
"A#A#A#A#A#i j r r r r r r r r r r r r 8!9!:!< ' ' ' ' ' ' ' ' ' ' ' ' ' ' ' ' ' ' ' ;!<!=!>!{ { { { { { { { { { { { { q A#A#A#A#",
"A#A#A#A#A#i j r r r r r r r r r r r r r k ?!@!A!' ' ' ' ' ' ' ' ' ' ' ' ' ' ' ' ' w B!C!'!{ { { { { { { { { { { { { { q A#A#A#A#",
"A#A#A#A#A#i j r r r r r r r r r r r r r r D!8!E!F!w ' ' ' ' ' ' ' ' ' ' ' ' ' } G!H!I!{ { { { { { { { { { { { { { { { q A#A#A#A#",
"A#A#A#A#A#i j r r r r r r r r r r r r r r r r r J!K!' ;!' ' ' ' ' ' ' ' ' ' < L!M!{ { { { { { { { { { { { { { { { { { q A#A#A#A#",
"A#A#A#A#A#i j r r r r r r r r r r r r r r r r r r k N!O!} < ' ' ' ' ' ' v P!C!z { { { { { { { { { { { { { { { { { { { q A#A#A#A#",
"A#A#A#A#A#i j r r r r r r r r r r r r r r r r r r r r j Q!R!<!' ' ' ~ S!T!z { { { { { { { { { { { { { { { { { { { { { q A#A#A#A#",
"A#A#A#A#A#i j r r r r r r r r r r r r r r r r r r r r r r k U!V!v w W!X!Y!{ { { { { { { { { { { { { { { { { { { { { { q A#A#A#A#",
"A#A#A#A#A#i j r r r r r r r r r r r r r r r r r r r r r r r r Z![!p '!{ { { { { { { { { { { { { { { { { { { { { { { { q A#A#A#A#",
"A#A#A#A#A#i j r r r r r r r r r r r r r r r r r r r r r r r r r ]!p { { { { { { { { { { { { { { { { { { { { { { { { { q A#A#A#A#",
"A#A#A#A#A#i j r r r r r r r r r r r r r r r r r r r r r r r r r ]!p { { { { { { { { { { { { { { { { { { { { { { { { { q A#A#A#A#",
"A#A#A#A#A#i j r r r r r r r r r r r r r r r r r r r r r r r r r ]!p { { { { { { { { { { { { { { { { { { { { { { { { { q A#A#A#A#",
"A#A#A#A#A#i j r r r r r r r r r r r r r r r r r r r r r r r r r ]!p { { { { { { { { { { { { { { { { { { { { { { { { { q A#A#A#A#",
"A#A#A#A#A#i j r r r r r r r r r r r r r r r r r r r r r r r r r ]!p { { { { { { { { { { { { { { { { { { { { { { { { { q A#A#A#A#",
"A#A#A#A#A#i j r r r r r r r r r r r r r r r r r r r r r r r r r ]!p { { { { { { { { { { { { { { { { { { { { { { { { { q A#A#A#A#",
"A#A#A#A#A#i j r r r r r r r r r r r r r r r r r r r r r r r r r ]!p { { { { { { { { { { { { { { { { { { { { { { { { { q A#A#A#A#",
"A#A#A#A#A#i j r r r r r r r r r r r r r r r r r r r r r r r r r ]!p { { { { { { { { { { { { { { { { { { { { { { { { { q A#A#A#A#",
"A#A#A#A#A#i j r r r r r r r r r r r r r r r r r r r r r r r r r ]!p { { { { { { { { { { { { { { { { { { { { { { { { { q A#A#A#A#",
"A#A#A#A#A#i j r r r r r r r r r r r r r r r r r r r r r r r r r ]!p { { { { { { { { { { { { { { { { { { { { { { { { { q A#A#A#A#",
"A#A#A#A#A#i j r r r r r r r r r r r r r r r r r r r r r r r r r ]!p { { { { { { { { { { { { { { { { { { { { { { { { { q A#A#A#A#",
"A#A#A#A#A#i j r r r r r r r r r r r r r r r r r r r r r r r r r ]!p { { { { { { { { { { { { { { { { { { { { { { { { { q A#A#A#A#",
"A#A#A#A#A#i j r r r r r r r r r r r r r r r r r r r r r r r r r ]!p { { { { { { { { { { { { { { { { { { { { { { { { { q A#A#A#A#",
"A#A#A#A#A#i j r r r r r r r r r r r r r r r r r r r r r r r r r ]!p { { { { { { { { { { { { { { { { { { { { { { { { { q A#A#A#A#",
"A#A#A#A#A#i ^!r r r r r r r r r r r r r r r r r r r r r r r r r ]!p { { { { { { { { { { { { { { { { { { { { { { { { '!h A#A#A#A#",
"A#A#A#A#A#A#_!`!r r r r r r r r r r r r r r r r r r r r r r r r ]!p { { { { { { { { { { { { { { { { { { { { { { { a!b!c!A#A#A#A#",
"A#A#A#A#A#A#A#d!e!f!r r r r r r r r r r r r r r r r r r r r r r ]!p { { { { { { { { { { { { { { { { { { { { { a!g!h!A#A#A#A#A#A#",
"A#A#A#A#A#A#A#A#A#i!j!r r r r r r r r r r r r r r r r r r r r r ]!p { { { { { { { { { { { { { { { { { { { { k!l!A#A#A#A#A#A#A#A#",
"A#A#A#A#A#A#A#A#A#A#A#m!n!j r r r r r r r r r r r r r r r r r r ]!p { { { { { { { { { { { { { { { { { { o!p!q!A#A#A#A#A#A#A#A#A#",
"A#A#A#A#A#A#A#A#A#A#A#A#A#r!r r r r r r r r r r r r r r r r r r ]!p { { { { { { { { { { { { { { { { '!s!t!A#A#A#A#A#A#A#A#A#A#A#",
"A#A#A#A#A#A#A#A#A#A#A#A#A#A#A#u!v!r r r r r r r r r r r r r r r ]!p { { { { { { { { { { { { { { { w!x!A#A#A#A#A#A#A#A#A#A#A#A#A#",
"A#A#A#A#A#A#A#A#A#A#A#A#A#A#A#A#A#y!v!r r r r r r r r r r r r r ]!p { { { { { { { { { { { { '!'!z!{!A#A#A#A#A#A#A#A#A#A#A#A#A#A#",
"A#A#A#A#A#A#A#A#A#A#A#A#A#A#A#A#A#A#A#|!r r r r r r r r r r r r ]!p { { { { { { { { { { { '!}!~!A#A#A#A#A#A#A#A#A#A#A#A#A#A#A#A#",
"A#A#A#A#A#A#A#A#A#A#A#A#A#A#A#A#A#A#A#A# #!#r r r r r r r r r r ]!p { { { { { { { { { ##$#%#A#A#A#A#A#A#A#A#A#A#A#A#A#A#A#A#A#A#",
"A#A#A#A#A#A#A#A#A#A#A#A#A#A#A#A#A#A#A#A#A#A#&#'#r r r r r r r r ]!p { { { { { { { '!(#)#A#A#A#A#A#A#A#A#A#A#A#A#A#A#A#A#A#A#A#A#",
"A#A#A#A#A#A#A#A#A#A#A#A#A#A#A#A#A#A#A#A#A#A#A#*#+#r r r r r r r ]!p { { { { { { ,#-#.#A#A#A#A#A#A#A#A#A#A#A#A#A#A#A#A#A#A#A#A#A#",
"A#A#A#A#A#A#A#A#A#A#A#A#A#A#A#A#A#A#A#A#A#A#A#A#A#/#0#j r r r r ]!p { { { { a!1#2#A#A#A#A#A#A#A#A#A#A#A#A#A#A#A#A#A#A#A#A#A#A#A#",
"A#A#A#A#A#A#A#A#A#A#A#A#A#A#A#A#A#A#A#A#A#A#A#A#A#A#A#3#j r r r ]!p { { p 4#5#A#A#A#A#A#A#A#A#A#A#A#A#A#A#A#A#A#A#A#A#A#A#A#A#A#",
"A#A#A#A#A#A#A#A#A#A#A#A#A#A#A#A#A#A#A#A#A#A#A#A#A#A#A#A#6#7#j!r ]!p 8#a!9#:#A#A#A#A#A#A#A#A#A#A#A#A#A#A#A#A#A#A#A#A#A#A#A#A#A#A#",
"A#A#A#A#A#A#A#A#A#A#A#A#A#A#A#A#A#A#A#A#A#A#A#A#A#A#A#A#A#A#;#<#=#p >#?#A#A#A#A#A#A#A#A#A#A#A#A#A#A#A#A#A#A#A#A#A#A#A#A#A#A#A#A#",
"A#A#A#A#A#A#A#A#A#A#A#A#A#A#A#A#A#A#A#A#A#A#A#A#A#A#A#A#A#A#A#A#@#A#A#A#A#A#A#A#A#A#A#A#A#A#A#A#A#A#A#A#A#A#A#A#A#A#A#A#A#A#A#A#"
};
