/* XPM */
static const char *cube_icon_16_xpm[] = {
"16 16 71 1",
" 	c #FFFFFF",
".	c #FFD4D6",
"+	c #FFB7BA",
"@	c #FFECED",
"#	c #FF969A",
"$	c #FF7C81",
"%	c #FF7E83",
"&	c #FF8286",
"*	c #FFD1D2",
"=	c #FFFBFC",
"-	c #FFAEB2",
";	c #FF787E",
">	c #FF7F84",
",	c #FF7C82",
"'	c #FF9195",
")	c #FFE8E9",
"!	c #FFC4C7",
"~	c #FF797E",
"{	c #FFA9AD",
"]	c #FFFAFA",
"^	c #E69195",
"/	c #F8757A",
"(	c #FF8085",
"_	c #ED6067",
":	c #DA8386",
"<	c #BC262C",
"[	c #DA4D53",
"}	c #FF8287",
"|	c #F2696F",
"1	c #DE444D",
"2	c #DE4850",
"3	c #DA8286",
"4	c #BF2A30",
"5	c #E55D62",
"6	c #FF8388",
"7	c #FF8086",
"8	c #F9747A",
"9	c #E34C54",
"0	c #DC424A",
"a	c #DD434B",
"b	c #DE4951",
"c	c #BE292F",
"d	c #C63439",
"e	c #F26D72",
"f	c #FE7E84",
"g	c #E8565E",
"h	c #DB4048",
"i	c #BB262C",
"j	c #D93F47",
"k	c #DA4048",
"l	c #D97E81",
"m	c #DD444C",
"n	c #F9EBEC",
"o	c #D2676C",
"p	c #BC2027",
"q	c #DD4149",
"r	c #E05259",
"s	c #F7D0D2",
"t	c #F1D1D2",
"u	c #C74247",
"v	c #BE272D",
"w	c #F0ABAE",
"x	c #E5A9AB",
"y	c #BF292F",
"z	c #BE292E",
"A	c #DB3A43",
"B	c #E9878C",
"C	c #FFFCFC",
"D	c #D98185",
"E	c #E16A70",
"F	c #FBE4E5",
"       .+       ",
"     @#$%&*     ",
"   =-;>>>>,')   ",
"  !%>>>>>>>>~{] ",
" ^/(>>>>>>>>>(_ ",
" :<[>>>>>>>}|12 ",
" 344456>>7890ab ",
" 3444cdefghaaab ",
" 344444ijaaaaab ",
" 344444ckaaaaab ",
" 344444ckaaaaab ",
" l44444ckaaaaam ",
" nop444ckaaaqrs ",
"   tuv4ckaaqw   ",
"     xyzkABC    ",
"       DEF      "};
