/* XPM */
static const char *curtain_64[] = {
/* width height num_colors chars_per_pixel */
"64 64 199 2", 
/* colors */
"   c #040B00",
".  c #F80500",
"X  c #47AA00",
"o  c #296900",
"O  c #357D00",
"+  c #807D00",
"@  c #CC3000",
"#  c #788700",
"$  c #0F3300",
"%  c #EB1200",
"&  c #5AA500",
"*  c #3AC400",
"=  c #995200",
"-  c #F20C00",
";  c #A75800",
":  c #679600",
">  c #F20C00",
",  c #060F00",
"<  c #266200",
"1  c #867800",
"2  c #091A00",
"3  c #296700",
"4  c #B44900",
"5  c #8C5F00",
"6  c #0A2000",
"7  c #A64300",
"8  c #41B800",
"9  c #976700",
"0  c #479300",
"q  c #59A400",
"w  c #A55700",
"e  c #5F8B00",
"r  c #718F00",
"t  c #010200",
"y  c #2D8C00",
"u  c #44A100",
"i  c #050D00",
"p  c #279C00",
"a  c #266000",
"s  c #49B200",
"d  c #F30A00",
"f  c #807F00",
"g  c #2F7C00",
"h  c #0F3C00",
"j  c #CD3200",
"k  c #6F8E00",
"l  c #2D8A00",
"z  c #104200",
"x  c #708E00",
"c  c #000100",
"v  c #BC4100",
"b  c #9E5F00",
"n  c #925800",
"m  c #807D00",
"M  c #DF0B00",
"N  c #856500",
"B  c #8F6D00",
"V  c #678300",
"C  c #BB2C00",
"Z  c #478F00",
"A  c #A65900",
"S  c #887700",
"D  c #679700",
"F  c #34B200",
"G  c #267600",
"H  c #788600",
"J  c #3BC200",
"K  c #A45800",
"L  c #887500",
"P  c #F10B00",
"I  c #F10B00",
"U  c #A55800",
"Y  c #D32900",
"T  c #E40500",
"R  c #48B300",
"E  c #539800",
"W  c #619E00",
"Q  c #2CA700",
"!  c #36AF00",
"~  c #D42900",
"^  c #808000",
"/  c #0B2B00",
"(  c #102F00",
")  c #AE5100",
"_  c #030600",
"`  c #906F00",
"'  c #7C6C00",
"]  c #E51800",
"[  c #204800",
"{  c #114200",
"}  c #000100",
"|  c #52AC00",
" . c #5F9D00",
".. c #EA1300",
"X. c #2DAB00",
"o. c #0F3400",
"O. c #EB1300",
"+. c #010500",
"@. c #DB2100",
"#. c #214C00",
"$. c #010500",
"%. c #040A00",
"&. c #AD3A00",
"*. c #599100",
"=. c #699600",
"-. c #4BB400",
";. c #BE3F00",
":. c #091B00",
">. c #C42600",
",. c #33B300",
"<. c #D42B00",
"1. c #B64900",
"2. c #41B900",
"3. c #768700",
"4. c #5E9C00",
"5. c #4C9E00",
"6. c #3AC300",
"7. c #995100",
"8. c #010300",
"9. c #050E00",
"0. c #3BAD00",
"q. c #279D00",
"w. c #A45900",
"e. c #060E00",
"r. c #0A1F00",
"t. c #966600",
"y. c #368000",
"u. c #41B700",
"i. c #42BD00",
"p. c #2F7D00",
"a. c #6F8F00",
"s. c #B53200",
"d. c #718E00",
"f. c #2D8B00",
"g. c #53AC00",
"h. c #C63700",
"j. c #45A600",
"k. c #DC2300",
"l. c #BE4100",
"z. c #3DAA00",
"x. c #42BB00",
"c. c #0A2A00",
"v. c #0F3B00",
"b. c #BB2D00",
"n. c #9F4A00",
"m. c #678400",
"M. c #CC3200",
"N. c #45A400",
"B. c #D21900",
"V. c #104100",
"C. c #8E6F00",
"Z. c #000000",
"A. c #030B00",
"S. c #AE3A00",
"D. c #46AA00",
"F. c #DF0A00",
"G. c #DD2100",
"H. c #4AB500",
"J. c #9F5E00",
"K. c #2CAA00",
"L. c #976800",
"P. c #194100",
"I. c #4B9F00",
"U. c #3BC300",
"Y. c #E41B00",
"T. c #F80500",
"R. c #C63900",
"E. c #2F9300",
"W. c #030900",
"Q. c #747300",
"!. c #286700",
"~. c #2CA800",
"^. c #59A300",
"/. c #B64800",
"(. c #267500",
"). c #DA1100",
"_. c #E21A00",
"`. c #C63700",
"'. c #207800",
"]. c #114300",
"[. c #52AD00",
"{. c #43A100",
"}. c #46A600",
"|. c #CB1F00",
" X c #286500",
".X c #9F6000",
"XX c #6D7B00",
"oX c #102E00",
"OX c #EC1300",
"+X c #AC5100",
"@X c #4EA000",
"#X c #1A4300",
"$X c #5E9F00",
"%X c #000000",
"&X c #44A500",
"*X c #AD5100",
"=X c #000000",
"-X c #52AB00",
";X c #F80500",
/* pixels */
"M ).B.|.>.b.s.&.7 n.= n 5 N ' Q.XXm.e *.E I.&X0.,.p v.+.%X%X%X%X%X%X%X+.h q.F 0.N.5.E *.e V XXQ.' N 5 n 7.n.7 S.s.C >.|.B.).F.T ",
"> OXY.k.<.j R.l.1.) A .XL.` S f # r =.W & [.H.i.* K.z $.=X=X=X=X=X=X=X$.].X.U.i.-.g.& W =.d.# f S ` L..X; ) 1.l.R.j <.k.Y.OXI . ",
"> OXY.k.<.j R.l.1.) A .XL.` S f # r =.W & [.H.i.* K.z $.=X=X=X=X=X=X=X$.].X.U.i.-.g.& W =.d.# f S ` L..X; ) 1.l.R.j <.k.Y.OXI . ",
"> OXY.k.<.j R.l.1.) A .XL.` S f # r =.W & [.H.i.* K.z $.=X=X=X=X=X=X=X$.].X.U.i.-.g.& W =.d.# f S ` L..X; ) 1.l.R.j <.k.Y.OXI . ",
"> OXY.k.<.j R.l.1.) A .XL.` S f # r =.W & [.H.i.* K.z $.=X=X=X=X=X=X=X$.].X.U.i.-.g.& W =.d.# f S ` L..X; ) 1.l.R.j <.k.Y.OXI . ",
"> OXY.k.<.j R.l.1.) A .XL.` S f # r =.W & [.H.i.* K.z $.=X=X=X=X=X=X=X$.].X.U.i.-.g.& W =.d.# f S ` L..X; ) 1.l.R.j <.k.Y.OXI . ",
"> OXY.k.<.j R.l.1.) A .XL.` S f # r =.W & [.H.i.* K.z $.=X=X=X=X=X=X=X$.].X.U.i.-.g.& W =.d.# f S ` L..X; ) 1.l.R.j <.k.Y.OXI . ",
"> OXY.k.<.j R.l.1.) A .XL.` S f # r =.W & [.H.i.* K.z $.=X=X=X=X=X=X=X$.].X.U.i.-.g.& W =.d.# f S ` L..X; ) 1.l.R.j <.k.Y.OXI . ",
"> OXY.k.<.j R.l.1.) A .XL.` S f # r =.W & [.H.i.* K.z $.=X=X=X=X=X=X=X$.].X.U.i.-.g.& W =.d.# f S ` L..X; ) 1.l.R.j <.k.Y.OXI . ",
"> OXY.k.<.j R.l.1.) A .XL.` S f # r =.W & [.H.i.* K.z $.=X=X=X=X=X=X=X$.].X.U.i.-.g.& W =.d.# f S ` L..X; ) 1.l.R.j <.k.Y.OXI . ",
"> OXY.k.<.j R.l.1.) A .XL.` S f # r =.W & [.H.i.* K.z $.=X=X=X=X=X=X=X$.].X.U.i.-.g.& W =.d.# f S ` L..X; ) 1.l.R.j <.k.Y.OXI . ",
"> OXY.k.<.j R.l.1.) A .XL.` S f # r =.W & [.H.i.* K.z $.=X=X=X=X=X=X=X$.].X.U.i.-.g.& W =.d.# f S ` L..X; ) 1.l.R.j <.k.Y.OXI . ",
"> OXY.k.<.j R.l.1.) A .XL.` S f # r =.W & [.H.i.* K.z $.=X=X=X=X=X=X=X$.].X.U.i.-.g.& W =.d.# f S ` L..X; ) 1.l.R.j <.k.Y.OXI . ",
"> OXY.k.<.j R.l.1.) A .XL.` S f # r =.W & [.H.i.* K.z $.=X=X=X=X=X=X=X$.].X.U.i.-.g.& W =.d.# f S ` L..X; ) 1.l.R.j <.k.Y.OXI . ",
"> OXY.k.<.j R.l.1.) A .XL.` S f # r =.W & [.H.i.* K.z $.=X=X=X=X=X=X=X$.].X.U.i.-.g.& W =.d.# f S ` L..X; ) 1.l.R.j <.k.Y.OXI . ",
"> OXY.k.<.j R.l.1.) A .XL.` S f # r =.W & [.H.i.* K.z $.=X=X=X=X=X=X=X$.].X.U.i.-.g.& W =.d.# f S ` L..X; ) 1.l.R.j <.k.Y.OXI . ",
"> OXY.k.<.j R.l.1.) A .XL.` S f # r =.W & [.H.i.* K.z $.=X=X=X=X=X=X=X$.].X.U.i.-.g.& W =.d.# f S ` L..X; ) 1.l.R.j <.k.Y.OXI . ",
"> OXY.k.<.j R.l.1.) A .XL.` S f # r =.W & [.H.i.* K.z $.=X=X=X=X=X=X=X$.].X.U.i.-.g.& W =.d.# f S ` L..X; ) 1.l.R.j <.k.Y.OXI . ",
"> OXY.k.<.j R.l.1.) A .XL.` S f # r =.W & [.H.i.* K.z $.=X=X=X=X=X=X=X$.].X.U.i.-.g.& W =.d.# f S ` L..X; ) 1.l.R.j <.k.Y.OXI . ",
"> OXY.k.<.j R.l.1.) A .XL.` S f # r =.W & [.H.i.* K.z $.=X=X=X=X=X=X=X$.].X.U.i.-.g.& W =.d.# f S ` L..X; ) 1.l.R.j <.k.Y.OXI . ",
"> OXY.k.<.j R.l.1.) A .XL.` S f # r =.W & [.H.i.* K.z $.=X=X=X=X=X=X=X$.].X.U.i.-.g.& W =.d.# f S ` L..X; ) 1.l.R.j <.k.Y.OXI . ",
"> OXY.k.<.j R.l.1.) A .XL.` S f # r =.W & [.H.i.* K.z $.=X=X=X=X=X=X=X$.].X.U.i.-.g.& W =.d.# f S ` L..X; ) 1.l.R.j <.k.Y.OXI . ",
"> OXY.k.<.j R.l.1.) A .XL.` S f # r =.W & [.H.i.* K.z $.=X=X=X=X=X=X=X$.].X.U.i.-.g.& W =.d.# f S ` L..X; ) 1.l.R.j <.k.Y.OXI . ",
"> OXY.k.<.j R.l.1.) A .XL.` S f # r =.W & [.H.i.* K.z $.=X=X=X=X=X=X=X$.].X.U.i.-.g.& W =.d.# f S ` L..X; ) 1.l.R.j <.k.Y.OXI . ",
"> OXY.k.<.j R.l.1.) A .XL.` S f # r =.W & [.H.i.* K.z $.=X=X=X=X=X=X=X$.].X.U.i.-.g.& W =.d.# f S ` L..X; ) 1.l.R.j <.k.Y.OXI . ",
"> OXY.k.<.j R.l.1.) A .XL.` S f # r =.W & [.H.i.* K.z $.=X=X=X=X=X=X=X$.].X.U.i.-.g.& W =.d.# f S ` L..X; ) 1.l.R.j <.k.Y.OXI . ",
"> OXY.k.<.j R.l.1.) A .XL.` S f # r =.W & [.H.i.* K.z $.=X=X=X=X=X=X=X$.].X.U.i.-.g.& W =.d.# f S ` L..X; ) 1.l.R.j <.k.Y.OXI . ",
"> OXY.k.<.j R.l.1.) A .XL.` S f # r =.W & [.H.i.* K.z $.=X=X=X=X=X=X=X$.].X.U.i.-.g.& W =.d.# f S ` L..X; ) 1.l.R.j <.k.Y.OXI . ",
"> OXY.k.<.j R.l.1.) A .XL.` S f # r =.W & [.H.i.* K.z $.=X=X=X=X=X=X=X$.].X.U.i.-.g.& W =.d.# f S ` L..X; ) 1.l.R.j <.k.Y.OXI . ",
"> OXY.k.<.j R.l.1.) A .XL.` S f # r =.W & [.H.i.* K.z $.=X=X=X=X=X=X=X$.].X.U.i.-.g.& W =.d.# f S ` L..X; ) 1.l.R.j <.k.Y.OXI . ",
"> OXY.k.<.j R.l.1.) A .XL.` S f # r =.W & [.H.i.* K.z $.=X=X=X=X=X=X=X$.].X.U.i.-.g.& W =.d.# f S ` L..X; ) 1.l.R.j <.k.Y.OXI . ",
"> OXY.k.<.j R.l.1.) A .XL.` S f # r =.W & [.H.i.* K.z $.=X=X=X=X=X=X=X$.].X.U.i.-.g.& W =.d.# f S ` L..X; ) 1.l.R.j <.k.Y.OXI . ",
"> OXY.k.<.j R.l.1.) A .XL.` S f # r =.W & [.H.i.* K.z $.=X=X=X=X=X=X=X$.].X.U.i.-.g.& W =.d.# f S ` L..X; ) 1.l.R.j <.k.Y.OXI . ",
"> OXY.k.<.j R.l.1.) A .XL.` S f # r =.W & [.H.i.* K.z $.=X=X=X=X=X=X=X$.].X.U.i.-.g.& W =.d.# f S ` L..X; ) 1.l.R.j <.k.Y.OXI . ",
"> OXY.k.<.j R.l.1.) A .XL.` S f # r =.W & [.H.i.6.Q V.$.=X=X=X=X=X=X=X$.{ ~.J i.-.g.& W =.d.# f S ` L..X; ) 1.l.R.j <.k.Y.OXI . ",
"> OXY.k.<.j R.l.1.) A .XL.` S f # r =.W & [.H.x.! '.c.8.=X=X=X=X=X=X=X8./ '.! x.-.g.& W =.d.# f S ` L..X; ) 1.l.R.j <.k.Y.OXI . ",
"> OXY.k.<.j R.l.1.) A .XL.` S f # r =.W & [.H.2.E.$ A.} =X=X=X=X=X=X=X} A.o.E.2.-.g.& W =.d.# f S ` L..X; ) 1.l.R.j <.k.Y.OXI . ",
"> OXY.k.<.j R.l.1.) A .XL.` S f # r =.W & [.H.8 f.r.t =X=X=X=X=X=X=X=X=Xt 6 y 8 -.g.& W =.d.# f S ` L..X; ) 1.l.R.j <.k.Y.OXI . ",
"> OXY.k.<.j R.l.1.) A .XL.` S f # r =.W & [.H.8 f.r.t =X=X=X=X=X=X=X=X=Xt 6 y 8 -.g.& W =.d.# f S ` L..X; ) 1.l.R.j <.k.Y.OXI . ",
"> OXY.k.<.j R.l.1.) A .XL.` S f # r =.W & [.H.8 f.r.t =X=X=X=X=X=X=X=X=Xt 6 y 8 -.g.& W =.d.# f S ` L..X; ) 1.l.R.j <.k.Y.OXI . ",
"> OXY.k.<.j R.l.1.) A .XL.` S f # r =.W & [.H.8 f.r.t =X=X=X=X=X=X=X=X=Xt 6 y 8 -.g.& W =.d.# f S ` L..X; ) 1.l.R.j <.k.Y.OXI . ",
"> OXY.k.<.j R.l.1.) A .XL.` S f # r =.W & [.H.8 f.r.t =X=X=X=X=X=X=X=X=Xt 6 y 8 -.g.& W =.d.# f S ` L..X; ) 1.l.R.j <.k.Y.OXI . ",
"> OXY.k.<.j R.l.1.) A .XL.` S f # r =.W & [.H.8 f.r.t =X=X=X=X=X=X=X=X=Xt 6 y 8 -.g.& W =.d.# f S ` L..X; ) 1.l.R.j <.k.Y.OXI . ",
"> OXY.k.<.j R.l.1.) A .XL.` S f # r =.W & [.H.8 f.r.t =X=X=X=X=X=X=X=X=Xt 6 y 8 -.g.& W =.d.# f S ` L..X; ) 1.l.R.j <.k.Y.OXI . ",
"> OXY.k.<.j R.l.1.) A .XL.` S f # r =.W & [.H.8 f.r.t =X=X=X=X=X=X=X=X=Xt 6 y 8 -.g.& W =.d.# f S ` L..X; ) 1.l.R.j <.k.Y.OXI . ",
"> OXY.k.<.j R.l.1.) A .XL.` S f # r =.W & [.H.8 f.r.t =X=X=X=X=X=X=X=X=Xt 6 y 8 -.g.& W =.d.# f S ` L..X; ) 1.l.R.j <.k.Y.OXI . ",
"> OXY.k.<.j R.l.1.) A .XL.` S f # r =.W & [.H.8 f.r.t =X=X=X=X=X=X=X=X=Xt 6 y 8 -.g.& W =.d.# f S ` L..X; ) 1.l.R.j <.k.Y.OXI . ",
"> OXY.k.<.j R.l.1.) A .XL.` S f # r =.W & [.H.8 f.r.t =X=X=X=X=X=X=X=X=Xt 6 y 8 -.g.& W =.d.# f S ` L..X; ) 1.l.R.j <.k.Y.OXI . ",
"> OXY.k.<.j R.l.1.) A .XL.` S f # r =.W & [.H.8 f.r.t =X=X=X=X=X=X=X=X=Xt 6 y 8 -.g.& W =.d.# f S ` L..X; ) 1.l.R.j <.k.Y.OXI . ",
"> OXY.k.<.j R.l.1.) A .XL.` S f # r =.W & [.H.8 f.r.t =X=X=X=X=X=X=X=X=Xt 6 y 8 -.g.& W =.d.# f S ` L..X; ) 1.l.R.j <.k.Y.OXI . ",
"> OXY.k.<.j R.l.1.) A .XL.` S f # r =.W & [.H.8 f.r.t =X=X=X=X=X=X=X=X=Xt 6 y 8 -.g.& W =.d.# f S ` L..X; ) 1.l.R.j <.k.Y.OXI . ",
"> OXY.k.<.j R.l.1.) A .XL.` S f # r =.W & [.H.8 f.r.t =X=X=X=X=X=X=X=X=Xt 6 y 8 -.g.& W =.d.# f S ` L..X; ) 1.l.R.j <.k.Y.OXI . ",
"> OXY.k.<.j R.l.1.) A .XL.` S f # r =.W & [.H.8 f.r.t =X=X=X=X=X=X=X=X=Xt 6 y 8 -.g.& W =.d.# f S ` L..X; ) 1.l.R.j <.k.Y.OXI . ",
"> OXY.k.<.j R.l.1.) A .XL.` S f # r =.W & [.H.8 f.r.t =X=X=X=X=X=X=X=X=Xt 6 y 8 -.g.& W =.d.# f S ` L..X; ) 1.l.R.j <.k.Y.OXI . ",
"> OXY.k.<.j R.l.1.) A .XL.` S f # r =.W & [.H.u.l r.t =X=X=X=X=X=X=X=X=Xt 6 f.u.-.g.& W =.d.# f S ` L..X; ) 1.l.R.j <.k.Y.OXI . ",
"> OXY.k.<.j R.l.1.) A .XL.` S f # r =.W & [.R z.(.2 t =X=X=X=X=X=X=X=X=Xt :.G z.s g.& W =.d.# f S ` L..X; ) 1.l.R.j <.k.Y.OXI . ",
"> OXY.k.<.j R.l.1.) A .XL.` S f # r =.W & [.D.g oXW.} =X=X=X=X=X=X=X=X=X} W.( p.X g.& W =.d.# f S ` L..X; ) 1.l.R.j <.k.Y.OXI . ",
"> OXY.k.<.j R.l.1.) A .XL.` S f # r =.W & [.j.3 i } =X=X=X=X=X=X=X=X=X=X=X} 9.o }.g.& W =.d.# f S ` L..X; ) 1.l.R.j <.k.Y.OXI . ",
"> OXY.k.<.j R.l.1.) A .XL.` S f # r =.W & [.j. X%.=X=X=X=X=X=X=X=X=X=X=X=X=X  !.}.g.& W =.d.# f S ` L..X; ) 1.l.R.j <.k.Y.OXI . ",
"> OXY.k.<.j R.l.1.) A .XL.` S f # r =.W & [.j. X%.=X=X=X=X=X=X=X=X=X=X=X=X=X  !.}.g.& W =.d.# f S ` L..X; ) 1.l.R.j <.k.Y.OXI . ",
"> OXY.k.<.j R.l.1.) A .XL.` S f # r =.W & [.j. X%.=X=X=X=X=X=X=X=X=X=X=X=X=X  !.}.g.& W =.d.# f S ` L..X; ) 1.l.R.j <.k.Y.OXI . ",
"> OXY.k.<.j R.l.1.) A .XL.` S f # r =.W & | {.a %.=X=X=X=X=X=X=X=X=X=X=X=X=X%.< u -X& W =.d.# f S ` L..X; ) 1.l.R.j <.k.Y.OXI . ",
"- .._.@.Y @ `.v 4 +XK b t.B L m 3.a.:  .^.@XO P._ %X%X%X%X%X%X%X%X%X%X%X%X%X_ #Xy.@X^. .: k 3.m L B t.b w +X4 v `.@ Y @._...P ;X",
"d O.] G.~ M.h.;./.*Xw.J.9 C.1 ^ H x D $Xq Z [ e.c Z.Z.Z.Z.Z.Z.Z.Z.Z.Z.Z.Z.Z.c , #.0 q 4.D x H + 1 C.9 J.U *X/.;.h.M.~ G.] % d T."
};
