/* XPM */
static const char *curtain_24[] = {
/* width height num_colors chars_per_pixel */
"24 24 92 1", 
/* colors */
"  c #BB6400",
". c #5BB400",
"X c #65C200",
"o c #A08700",
"O c #0F2600",
"+ c #C18100",
"@ c #3A8100",
"# c #172F00",
"$ c #0B2200",
"% c #CB6D00",
"& c #A2A600",
"* c #7ABC00",
"= c #7DC100",
"- c #244900",
"; c #2A5300",
": c #E74100",
"> c #2F6400",
", c #91B500",
"< c #3A7F00",
"1 c #EB3F00",
"2 c #7EC500",
"3 c #D06F00",
"4 c #91B300",
"5 c #0F2200",
"6 c #78B900",
"7 c #3B8300",
"8 c #8FB200",
"9 c #447600",
"0 c #306600",
"q c #67C800",
"w c #9EA200",
"e c #C65000",
"r c #7BBC00",
"t c #071500",
"y c #387A00",
"u c #909400",
"i c #B09500",
"p c #F02800",
"a c #65C500",
"s c #BE7F00",
"d c #AE7400",
"f c #569D00",
"g c #5CA700",
"h c #F52A00",
"j c #152400",
"k c #173000",
"l c #AE9200",
"z c #244A00",
"x c #F52800",
"c c #2A5400",
"v c #8CB200",
"b c #91B600",
"n c #3D8500",
"m c #A2A500",
"M c #919400",
"N c #2A5200",
"B c #91B400",
"V c #D95600",
"C c #80A300",
"Z c #DE5A00",
"A c #A2A300",
"S c #122800",
"D c #D33700",
"F c #CE6F00",
"G c #7EC400",
"H c #DE5800",
"J c #DC2600",
"K c #122600",
"L c #4A8100",
"P c #A0A200",
"I c #3A7C00",
"U c #C85000",
"Y c #5BA600",
"T c #000000",
"R c #EA4100",
"E c #7AC200",
"W c #7CC100",
"Q c #B29500",
"! c #4B8300",
"~ c #A1A400",
"^ c #327600",
"/ c #5CA800",
"( c #60B300",
") c #77B900",
"_ c #C18300",
"` c #0F2800",
"' c #327400",
"] c #569C00",
"[ c #72AF00",
"{ c #000000",
"} c #000000",
"| c #5EB200",
/* pixels */
"JDe douC[.'$T$^.[CMod UD",
"p:V%slwvEa<O{K@aE8Pls%V:",
"h1Z3_Q&b2q7`}Snq2bmQ_3Z1",
"h1Z3_Q&b2q7`}Snq2bmQ_3Z1",
"h1Z3_Q&b2q7`}Snq2bmQ_3Z1",
"h1Z3_Q&b2q7`}Snq2bmQ_3Z1",
"h1Z3_Q&b2q7`}Snq2bmQ_3Z1",
"h1Z3_Q&b2q7`}Snq2bmQ_3Z1",
"h1Z3_Q&b2q7`}Snq2bmQ_3Z1",
"h1Z3_Q&b2q7`}Snq2bmQ_3Z1",
"h1Z3_Q&b2q7`}Snq2bmQ_3Z1",
"h1Z3_Q&b2q7`}Snq2bmQ_3Z1",
"h1Z3_Q&b2q7`}Snq2bmQ_3Z1",
"h1Z3_Q&b2Xy5}5IX2bmQ_3Z1",
"h1Z3_Q&bG|>t}t0(GbmQ_3Z1",
"h1Z3_Q&bGYN}}}c/GbmQ_3Z1",
"h1Z3_Q&bGYN}}}c/GbmQ_3Z1",
"h1Z3_Q&bGYN}}}c/GbmQ_3Z1",
"h1Z3_Q&bGYN}}}c/GbmQ_3Z1",
"h1Z3_Q&bGYN}}}c/GbmQ_3Z1",
"h1Z3_Q&bGYN}}};gGbmQ_3Z1",
"h1Z3_Q&bW]-}}}zf=bmQ_3Z1",
"h1Z3_Q&b*L#}}}k!r,mQ_3Z1",
"xRHF+i~B)9j{{{j964Ai+FHR"
};
