/* XPM */
static const char *down_xpm[] = {
"24 24 7 1",
" 	c None",
".	c #FCFAFC",
"+	c #94B2C4",
"@	c #B4BEC4",
"#	c #CCCACC",
"$	c #F4F6F4",
"%	c #C4CECC",
"                        ",
"                        ",
"                        ",
"                        ",
"                        ",
"                        ",
"                        ",
"   .++++++++++++++++.   ",
"   @+##############+@   ",
"   $+##############+.   ",
"    @+%#%#%#%#%###+@    ",
"     @+##########+@     ",
"      @+%#%#%#%#+@      ",
"       @+######+@       ",
"        @+%#%#+@        ",
"         @+##+@         ",
"          %++%          ",
"                        ",
"                        ",
"                        ",
"                        ",
"                        ",
"                        ",
"                        "};
