/* XPM */
static const char * Duplicate_48[] = {
"48 48 110 2 0 0",
"  	g #000000",
". 	g #1F1F1F",
"+ 	g #252525",
"@ 	g #262626",
"# 	g #202020",
"$ 	g #4C4C4C",
"% 	g #E1E1E1",
"& 	g #F9F9F9",
"* 	g #FBFBFB",
"= 	g #FCFCFC",
"- 	g #E3E3E3",
"; 	g #6A6A6A",
"> 	g #2D2D2D",
", 	g #B2B2B2",
"' 	g #FAFAFA",
") 	g #FEFEFE",
"! 	g #FFFFFF",
"~ 	g #F5F5F5",
"{ 	g #010101",
"] 	g #656565",
"^ 	g #E7E7E7",
"/ 	g #FDFDFD",
"( 	g #B9B9B9",
"_ 	g #767676",
": 	g #EEEEEE",
"< 	g #E2E2E2",
"[ 	g #E4E4E4",
"} 	g #E5E5E5",
"| 	g #E6E6E6",
"1 	g #DFDFDF",
"2 	g #DCDCDC",
"3 	g #F8F8F8",
"4 	g #BBBBBB",
"5 	g #2E2E2E",
"6 	g #F6F6F6",
"7 	g #9B9B9B",
"8 	g #6C6C6C",
"9 	g #F7F7F7",
"0 	g #C7C7C7",
"a 	g #333333",
"b 	g #747474",
"c 	g #717171",
"d 	g #454545",
"e 	g #BFBFBF",
"f 	g #757575",
"g 	g #B8B8B8",
"h 	g #292929",
"i 	g #A6A6A6",
"j 	g #B7B7B7",
"k 	g #BABABA",
"l 	g #B5B5B5",
"m 	g #525252",
"n 	g #707070",
"o 	g #C4C4C4",
"p 	g #919191",
"q 	g #7C7C7C",
"r 	g #636363",
"s 	g #EAEAEA",
"t 	g #AFAFAF",
"u 	g #F4F4F4",
"v 	g #DADADA",
"w 	g #B6B6B6",
"x 	g #A4A4A4",
"y 	g #555555",
"z 	g #7E7E7E",
"A 	g #B3B3B3",
"B 	g #ABABAB",
"C 	g #959595",
"D 	g #737373",
"E 	g #EDEDED",
"F 	g #7A7A7A",
"G 	g #EFEFEF",
"H 	g #F0F0F0",
"I 	g #F1F1F1",
"J 	g #ACACAC",
"K 	g #727272",
"L 	g #595959",
"M 	g #0A0A0A",
"N 	g #232323",
"O 	g #353535",
"P 	g #AEAEAE",
"Q 	g #B4B4B4",
"R 	g #D9D9D9",
"S 	g #828282",
"T 	g #1A1A1A",
"U 	g #C9C9C9",
"V 	g #464646",
"W 	g #ADADAD",
"X 	g #B1B1B1",
"Y 	g #E8E8E8",
"Z 	g #212121",
"` 	g #0B0B0B",
" .	g #242424",
"..	g #F3F3F3",
"+.	g #969696",
"@.	g #E9E9E9",
"#.	g #DEDEDE",
"$.	g #666666",
"%.	g #1E1E1E",
"&.	g #BCBCBC",
"*.	g #8F8F8F",
"=.	g #A9A9A9",
"-.	g #C3C3C3",
";.	g #EBEBEB",
">.	g #ECECEC",
",.	g #D3D3D3",
"'.	g #9E9E9E",
").	g #626262",
"!.	g #646464",
"~.	g #444444",
"                                                                                                ",
"                                                                                                ",
"                      . + @ @ @ + @ @ @ @ @ @ @ @ @ @ @ @ @ @ @ @ #                             ",
"                    $ % & * = = * * * * * * * * * * * * * * * = * - ; >                         ",
"                    , * ' ) ! ! ! ! ! ! ! ! ! ! ! ! ! ! ! ! ! ! ) * ~ ;   {                     ",
"                  ] ^ * / ! = * / / / / ) ) ) / / / / / ) / / = / / * - (                       ",
"                  _ = = / : < % - [ } } } } } } } | } - 1 2 } ' = / = / 3 4 5                   ",
"                  _ = * 6 7                                 8 9 = = / / ' = 0   {               ",
"                  a b b c d                                 b = ) ! ) ) / = & e                 ",
"                                                            f = ) ! ! ! ! / & 9 g h             ",
"    i j k ( g k k k ( k ( ( ( k k ( ( g k k k k ( l m       n 9 / ) ! ! ) ) ) / ' o p           ",
"    | = / / / ) ) ) ) ) = / / ) ) / / = / / ) ) ) ) q .     r s * / ) ) ) ! ) / * * 2           ",
"  t * / / = / / / / / / / / / / / / / / * = / ! ) ) u v       w ' = / / / ! ! * = * ~ x         ",
"  j / ) & 6 9 * * * * * * * * * * * * * ' & & / / ) ' : w y   z A 6 = / / / ) / / = 9 B         ",
"  ( ) ) 3 C n f f f f f f f f f f f f f D p E = / ! = = * F {     p G H I I I = = * & J         ",
"  k ! / & K                               L - / ) ) ! ) / 6 F m   M N N N N O = = / & P         ",
"  ( ) / ' D                                 g ) ! ! ! ! ) ) & Q             @ * ) = ' t         ",
"  ( ) ) * D                                 j ) ! ) ! ! ) / * : R .         @ * ) = ' t         ",
"  ( ) ) * D                                 j = / ) ! ) ) ) ) / * c         @ * ) = ' t         ",
"  ( ) ) * D                                 S E ' ) ) / ) = * = / |         @ * ) * ' t         ",
"  ( ) ) * D                                   8 9 * / / = / ) / ) -         @ * ) * ' t         ",
"  ( ) ) * D                                   T U ~ * * = ' = * = -         + ' ) * ' t         ",
"  ( ) ) * D                                     V W A X A A I & = [         + ' ) * ' t         ",
"  ( ) ) * D                                               T Y * * }         + ' ) * ' t         ",
"  ( ) ) * D                                               Z ^ = ) }         + ' ) * ' t         ",
"  ( ) ) * D                                               Z Y / ) }         + ' ) * ' t         ",
"  ( ) ) * D                                               Z Y / ) }         + ' ) * ' t         ",
"  ( ) ) * D                                               Z Y / ) |         + ' ) * ' t         ",
"  ( ) ) * D                                               Z Y / ) |         + ' ) * ' t         ",
"  ( ) ) * D                                               Z Y / ) |         + * ) * ' t         ",
"  ( ) ) * D                                               Z Y / ) |         @ * ) * ' t         ",
"  ( ) ) * D                                               Z Y / ) |         @ * ) * ' t         ",
"  ( ) ) * D                                               Z Y / ) |         @ * ) * ' t         ",
"  ( ) ) * D                                               Z Y / ) |         @ * / * ' t         ",
"  ( ) ) * D                                               Z Y / ) |         + ' / = ' t         ",
"  ( ) ) * D                                               Z Y / ) }     `  .O & = * ' P         ",
"  ( ) ) * D                                               Z Y / ) }     K ~ 6 * / * ..+.        ",
"  ( ) ) * D                                               Z Y / ) }     f * = * = * v           ",
"  ( ) ) * D                                               Z @.= ) }     b 3 & 3 u #.$.          ",
"  ( ) = * D                                               Z @.* ) }     ` + + +  .%.{           ",
"  ( / = ' D                                               Z Y * / }                             ",
"  ( / / ' D                                               Z Y ' / }                             ",
"  ( ) / & c                                               T Y & ) |                             ",
"  w = / = U k 4 4 4 &.&.&.&.&.&.&.&.&.&.&.&.&.&.&.&.4 4 ( &.~ ' ) |                             ",
"  w * / ) ) ) = = = = = = = = = = = = = = = = = = = = / ) / & * / <                             ",
"  *...* / = = / / / / / / / / / / / / / / / / / / / / / ) / = ) * R                             ",
"    =.-.;.E >.: : : : : : : : : : : : : : : : : : : : : : : >.,.w '.                            ",
"      N ).!.r $.$.$.$.$.$.$.$.$.$.$.$.$.$.$.$.$.$.$.$.$.] ] !.~.                                "};
