/* XPM */
static const char * effsettings_xpm[] = {
"24 24 5 1",
" 	c None",
".	c #000000",
"+	c #5E83FB",
"@	c #000104",
"#	c #012509",
"           ..           ",
"           ..           ",
"          . +.          ",
"          .++.          ",
"         .+++ .         ",
"         .++  @         ",
"         .+    .        ",
"        .      .        ",
"        .     ++.       ",
"       .    ++++.       ",
"       .   ++++  .      ",
"       . ++++    .      ",
"      . ++++     .      ",
"      .+++        .     ",
"     .+++         .     ",
"     .+           +.    ",
"    .           +++.    ",
"    .         +++++ .   ",
"    .       +++++   #   ",
"   .      +++++      .  ",
"   .    +++++        .  ",
"  .   +++++           . ",
"  .  ++++             . ",
"  ..................... "};
