/* XPM */
static const char *eye_16_gray[] = {
"16 16 14 1 0 0",
"  c #BBBABA",
"! c #A09E9E",
"# c #9098A0",
"$ c #A1B6C6",
"% c #F9F9F9",
"& c #CBD4DB",
"' c #87CFFF",
"( c #DAF0FF",
") c #64BAEF",
"* c #A09F9F",
"+ c #F7F7F7",
", c #FFFFFF",
"- c #88A8C1",
". c None",
"................",
"................",
"................",
"................",
".....      .....",
"...  !#$$#!  ...",
".. !%&'(')&%  ..",
". *+,-())'-,+! .",
". *+,-'))'-,+! .",
".. !%&)'')&%! ..",
"...  !!$$!!  ...",
".....      .....",
"...... .........",
"................",
"................",
"................"
};
