/* XPM */
static const char *eye_open_24_xpm[] = {
/* width height num_colors chars_per_pixel */
"    24    24        8            1",
/* colors */
"` c #44464a",
". c #41b4fc",
"# c #616160",
"a c #1c8ddc",
"b c #b8b9b8",
"c c #acdefc",
"d c #808993",
"e c None",
/* pixels */
"eeeeeeeeeeeeeeeeeeeeeeee",
"eeeeeeeeeeeeeeeeeeeeeeee",
"eeeeeeeeeeeeeeeeeeeeeeee",
"eeeeeeeeeeeeeeeeeeeeeeee",
"eeeeeeeeeeeeeeeeeeeeeeee",
"eeeeeeeeeeeeceeeeeeeeeee",
"eeeeeeeb#``````#beeeeeee",
"eeeeed````####````deeeee",
"eeeb#``dbe#a#dcbd```beee",
"eeb``deee#.caaaeeed``bee",
"ee``beee#.e..aadeeeb``ee",
"e#`deeeeac.#aaaaeeeed`#e",
"e#`deeee#aaa`aaaeeeed`#e",
"ee``beeedaaaaaadeeeb``ee",
"eeb``deecaaaaaaceed``bee",
"eeeb#``debdaadced``#beee",
"eeeeed````##d#````deeeee",
"eeeeeeed#``````#beeeeeee",
"eeeeeeeeeeeebeeeeeeeeeee",
"eeeeeeeeeeeeeeeeeeeeeeee",
"eeeeeeeeeeeeeeeeeeeeeeee",
"eeeeeeeeeeeeeeeeeeeeeeee",
"eeeeeeeeeeeeeeeeeeeeeeee",
"eeeeeeeeeeeeeeeeeeeeeeee"
};
