/* XPM */
static const char *fan_48[] = {
"48 48 575 2 0 0",
"   c #000000",
"!  c #010101",
"#  c #250B0B",
"$  c #230B0B",
"%  c #1C0C0C",
"&  c #090606",
"'  c #B80F0F",
"(  c #C71616",
")  c #B71818",
"*  c #7F0F0F",
"+  c #4A1111",
",  c #120B0B",
"-  c #080608",
".  c #462346",
"/  c #672267",
"0  c #881588",
"1  c #911091",
"2  c #741F74",
"3  c #552455",
"4  c #1C131C",
"5  c #E10507",
"6  c #FF0000",
"7  c #F50101",
"8  c #E40909",
"9  c #B60505",
":  c #301A1A",
";  c #200D20",
"<  c #8B1D8B",
"=  c #DB08DB",
">  c #FF00FF",
"?  c #E303E3",
"@  c #B018B0",
"A  c #560D54",
"B  c #E50E09",
"C  c #D70808",
"D  c #6B1313",
"E  c #0C0202",
"F  c #121209",
"G  c #0D0D08",
"H  c #421042",
"I  c #DB09DB",
"J  c #FB00FB",
"K  c #FF00F5",
"L  c #FF040B",
"M  c #FB0000",
"N  c #DF0707",
"O  c #790E0E",
"P  c #787812",
"Q  c #797916",
"R  c #17170C",
"S  c #0B020B",
"T  c #7F097F",
"U  c #F402F4",
"V  c #FF000B",
"W  c #DE0505",
"X  c #491B1D",
"Y  c #353511",
"Z  c #D4D409",
"[  c #E9E903",
"]  c #949417",
"^  c #1B1B08",
"_  c #020204",
"`  c #0B0B18",
"a  c #0A0A28",
"b  c #050635",
"c  c #381578",
"d  c #DA09EB",
"e  c #D81B08",
"f  c #C9AA11",
"g  c #F9F900",
"h  c #FFFF00",
"i  c #F3F300",
"j  c #A9A91C",
"k  c #0A0A07",
"l  c #121221",
"m  c #0F0F68",
"n  c #1515A7",
"o  c #1313D0",
"p  c #0707E6",
"q  c #0602F7",
"r  c #8E05FF",
"s  c #FF6202",
"t  c #FFEE00",
"u  c #69690E",
"v  c #050506",
"w  c #101058",
"x  c #0C0CB4",
"y  c #0505F0",
"z  c #0000FB",
"{  c #0000FF",
"|  c #1603FF",
"}  c #F502FF",
"~  c #FF0702",
" ! c #FFE503",
"!! c #090917",
"#! c #1B1B96",
"$! c #0000F3",
"%! c #6505FF",
"&! c #F802FF",
"'! c #FF0501",
"(! c #FF8C05",
")! c #F7F700",
"*! c #7C7C06",
"+! c #060603",
",! c #0B0B12",
"-! c #18188A",
".! c #1D02FF",
"/! c #BA03FF",
"0! c #FF3B03",
"1! c #FFDD02",
"2! c #FBFB00",
"3! c #BFBF13",
"4! c #242409",
"5! c #060609",
"6! c #12126F",
"7! c #0303E8",
"8! c #0200FF",
"9! c #5D03FF",
":! c #EB01FF",
";! c #FF1001",
"<! c #FF9704",
"=! c #FFFB01",
">! c #EBEB03",
"?! c #363602",
"@! c #08081D",
"A! c #151598",
"B! c #0606E4",
"C! c #0000F9",
"D! c #0402FF",
"E! c #A304FF",
"F! c #FF5304",
"G! c #FFF602",
"H! c #4D4D0E",
"I! c #030603",
"J! c #0A2D0A",
"K! c #0B260B",
"L! c #0B0B13",
"M! c #0C0C56",
"N! c #0E1BD3",
"O! c #2703FF",
"P! c #F602FF",
"Q! c #FF0602",
"R! c #FFCF04",
"S! c #FFFF01",
"T! c #687C18",
"U! c #0E7116",
"V! c #0CC80C",
"W! c #1AB01A",
"X! c #182727",
"Y! c #11A6D1",
"Z! c #036BFF",
"[! c #030EFF",
"]! c #0001FF",
"^! c #8D04FF",
"_! c #FF01FF",
"`! c #FF0001",
"a! c #FF6304",
"b! c #F4FF02",
"c! c #9FFF05",
"d! c #2BE90A",
"e! c #04F208",
"f! c #00FB00",
"g! c #04E204",
"h! c #121A12",
"i! c #020B0B",
"j! c #146A6A",
"k! c #08D7D7",
"l! c #00FFFF",
"m! c #01FFFF",
"n! c #04D5FF",
"o! c #054CFF",
"p! c #0213FF",
"q! c #2402FF",
"r! c #C803FF",
"s! c #FF2D03",
"t! c #FFD603",
"u! c #EFFF01",
"v! c #BCFF04",
"w! c #32FF04",
"x! c #00FF01",
"y! c #00FF00",
"z! c #1F741F",
"{! c #156767",
"|! c #08DCDC",
"}! c #00FBFB",
"~! c #02F0FF",
" # c #049FFF",
"!# c #0344FF",
"## c #0100FF",
"$# c #0401FF",
"%# c #6B03FF",
"&# c #F001FF",
"'# c #FF0B01",
"(# c #FF8A04",
")# c #FFF901",
"*# c #C3FF03",
"+# c #6BFF04",
",# c #15FF02",
"-# c #109210",
".# c #192B2B",
"/# c #09D5D5",
"0# c #01FCFF",
"1# c #03E0FF",
"2# c #057DFF",
"3# c #0319FF",
"4# c #1402FF",
"5# c #C203FF",
"6# c #FF3203",
"7# c #FFE402",
"8# c #ECFF03",
"9# c #8DFF05",
":# c #22FF02",
";# c #05FF01",
"<# c #04A804",
"=# c #040504",
"># c #070F0F",
"?# c #04B5B5",
"@# c #03DFFF",
"A# c #056EFF",
"B# c #0218FF",
"C# c #0101FF",
"D# c #3303FF",
"E# c #F902FF",
"F# c #FF0401",
"G# c #FFC004",
"H# c #E9FF01",
"I# c #9DFF05",
"J# c #26FF03",
"K# c #05C005",
"L# c #0A0D0A",
"M# c #0F4F4F",
"N# c #08E7E7",
"O# c #02FCFF",
"P# c #04ACFF",
"Q# c #044FFF",
"R# c #020CFF",
"S# c #A604FF",
"T# c #FF4D04",
"U# c #F5FF02",
"V# c #B9FF04",
"W# c #5AFF04",
"X# c #07FF02",
"Y# c #07A007",
"Z# c #080F0F",
"[# c #128B8B",
"]# c #01F6F6",
"^# c #01FDFF",
"_# c #02E6FF",
"`# c #05A1FF",
"a# c #031FFF",
"b# c #3903FF",
"c# c #DF02FF",
"d# c #FF1802",
"e# c #FFBD03",
"f# c #E6FF03",
"g# c #67FF05",
"h# c #1CFF02",
"i# c #03FF00",
"j# c #178717",
"k# c #0B2525",
"l# c #15CACA",
"m# c #03EDFF",
"n# c #0581FF",
"o# c #0229FF",
"p# c #0501FF",
"q# c #7803FF",
"r# c #F701F5",
"s# c #FF0609",
"t# c #FF7E02",
"u# c #FFF802",
"v# c #DBFF02",
"w# c #8AFF05",
"x# c #15FF03",
"y# c #00F900",
"z# c #1D491D",
"{# c #062E2E",
"|# c #0DDCDC",
"}# c #01FBFF",
"~# c #03CBFF",
" $ c #0459FF",
"!$ c #2115FF",
"#$ c #C600F9",
"$$ c #FF2E07",
"%$ c #EDD500",
"&$ c #ADFF02",
"'$ c #3BFF03",
"($ c #0FD70C",
")$ c #013636",
"*$ c #02EDED",
"+$ c #03FFFF",
",$ c #01ECFF",
"-$ c #01ADFF",
".$ c #4B40FB",
"/$ c #C4A60A",
"0$ c #5AFD00",
"1$ c #16FF00",
"2$ c #1E831C",
"3$ c #020202",
"4$ c #070808",
"5$ c #050606",
"6$ c #1A6722",
"7$ c #01FF1F",
"8$ c #00FF1E",
"9$ c #06FF1D",
":$ c #28FF1E",
";$ c #8DCC28",
"<$ c #506FDE",
"=$ c #00CFE1",
">$ c #01F8E1",
"?$ c #00FFE1",
"@$ c #00FFE0",
"A$ c #13D3CB",
"B$ c #16C9C9",
"C$ c #15C6C6",
"D$ c #114040",
"E$ c #19BC14",
"F$ c #18FF02",
"G$ c #72FF02",
"H$ c #CEEF01",
"I$ c #FA5705",
"J$ c #BC03F9",
"K$ c #1A29FF",
"L$ c #0386FF",
"M$ c #02E3FF",
"N$ c #04EAEA",
"O$ c #063939",
"P$ c #162316",
"Q$ c #01E601",
"R$ c #44FF04",
"S$ c #B8FF04",
"T$ c #F3FF02",
"U$ c #FFA601",
"V$ c #FF1309",
"W$ c #F401F4",
"X$ c #6D02FF",
"Y$ c #030AFF",
"Z$ c #0442FF",
"[$ c #04AFFF",
"]$ c #02F7FF",
"^$ c #0FDBDB",
"_$ c #072D2D",
"`$ c #226922",
"a$ c #0BFF01",
"b$ c #2CFF04",
"c$ c #B4FF05",
"d$ c #FCFF02",
"e$ c #FFDB02",
"f$ c #FF3902",
"g$ c #FF000A",
"h$ c #FF00F4",
"i$ c #D802FF",
"j$ c #3203FF",
"k$ c #0541FF",
"l$ c #04CDFF",
"m$ c #01F2FF",
"n$ c #00FDFD",
"o$ c #14B2B2",
"p$ c #0A1B1B",
"q$ c #188518",
"r$ c #2BFF03",
"s$ c #81FF05",
"t$ c #D9FF03",
"u$ c #FF8504",
"v$ c #FF0301",
"w$ c #9604FF",
"x$ c #0476FF",
"y$ c #03CEFF",
"z$ c #04F1F1",
"{$ c #0E6B6B",
"|$ c #030404",
"}$ c #04A204",
"~$ c #08FF02",
" % c #55FF05",
"!% c #D4FF03",
"#% c #F5FF01",
"$% c #FFEB03",
"%% c #FF1202",
"&% c #F402FF",
"'% c #2403FF",
"(% c #0108FF",
")% c #0327FF",
"*% c #059FFF",
"+% c #02F3FF",
",% c #09C4C4",
"-% c #132C2C",
".% c #0FFF01",
"/% c #4BFF05",
"0% c #C4FF04",
"1% c #FDFF01",
"2% c #FF5C04",
"3% c #BA04FF",
"4% c #0E02FF",
"5% c #0431FF",
"6% c #01EEFF",
"7% c #01E6E6",
"8% c #146060",
"9% c #188418",
":% c #06FF01",
";% c #35FF03",
"<% c #92FF05",
"=% c #EBFF02",
">% c #FFB503",
"?% c #FF1B02",
"@% c #ED01FF",
"A% c #5F04FF",
"B% c #0201FF",
"C% c #020FFF",
"D% c #0466FF",
"E% c #03C3FF",
"F% c #01F8FF",
"G% c #00F7F7",
"H% c #0C9A9A",
"I% c #226622",
"J% c #7EFF05",
"K% c #DAFF03",
"L% c #FAFF01",
"M% c #FFE801",
"N% c #FF5603",
"O% c #FF0200",
"P% c #BF03FF",
"Q% c #2002FF",
"R% c #0104FF",
"S% c #0222FF",
"T% c #0577FF",
"U% c #02F1FF",
"V% c #00F9F9",
"W% c #0FA8A8",
"X% c #0C2020",
"Y% c #152015",
"Z% c #01E501",
"[% c #19FF07",
"]% c #5DFF05",
"^% c #D7FF04",
"_% c #FF9C04",
"`% c #FF0202",
"a% c #7E04FF",
"b% c #041FFF",
"c% c #0499FF",
"d% c #07C7DE",
"e% c #136A6A",
"f% c #050505",
"g% c #15B615",
"h% c #06E706",
"i% c #13B015",
"j% c #55A313",
"k% c #E7F702",
"l% c #FFEF03",
"m% c #FF2003",
"n% c #EC03FF",
"o% c #1C03FF",
"p% c #010CFF",
"q% c #1232D5",
"r% c #171336",
"s% c #040405",
"t% c #173C17",
"u% c #165A16",
"v% c #09180A",
"w% c #3B3B03",
"x% c #EFEF00",
"y% c #FF8304",
"z% c #0300F9",
"{% c #0B0AD5",
"|% c #141484",
"}% c #323204",
"~% c #E4E408",
" & c #FFC203",
"!& c #FF2202",
"#& c #E702FF",
"$& c #5203FF",
"%& c #0202EE",
"&& c #1515A1",
"'& c #08081C",
"(& c #23230A",
")& c #BFBF14",
"*& c #FFEE01",
"+& c #FF6504",
",& c #B103FF",
"-& c #1902FF",
".& c #0909B7",
"/& c #09092A",
"0& c #070703",
"1& c #7D7D06",
"2& c #FFBD04",
"3& c #FF0F02",
"4& c #5904FF",
"5& c #1212CE",
"6& c #030329",
"7& c #3A3A13",
"8& c #D6D609",
"9& c #FFF502",
":& c #FF2704",
";& c #EA02FF",
"<& c #1002FF",
"=& c #0909DF",
">& c #17178D",
"?& c #090918",
"@& c #060605",
"A& c #7B7B14",
"B& c #FFFC00",
"C& c #FF9902",
"D& c #7D03FF",
"E& c #0101EE",
"F& c #0D0DD8",
"G& c #121298",
"H& c #11114B",
"I& c #0B0B11",
"J& c #BFBF15",
"K& c #E0C505",
"L& c #E43003",
"M& c #D506F2",
"N& c #4121AC",
"O& c #1E2073",
"P& c #0B0B45",
"Q& c #07072C",
"R& c #090912",
"S& c #242404",
"T& c #AEAE0E",
"U& c #ECEC03",
"V& c #E6E605",
"W& c #59590A",
"X& c #5E151D",
"Y& c #E60101",
"Z& c #F304F3",
"[& c #790D79",
"]& c #090309",
"^& c #24240B",
"_& c #949418",
"`& c #A3A310",
"a& c #13130B",
"b& c #980B0B",
"c& c #F70000",
"d& c #D50BD5",
"e& c #471447",
"f& c #171709",
"g& c #232305",
"h& c #190808",
"i& c #8F1010",
"j& c #E20404",
"k& c #E60B09",
"l& c #8B2186",
"m& c #D00FD0",
"n& c #F900F9",
"o& c #E700E7",
"p& c #C910C9",
"q& c #522252",
"r& c #551818",
"s& c #C60A0A",
"t& c #F00404",
"u& c #FD0000",
"v& c #DE0808",
"w& c #090709",
"x& c #4D1F4D",
"y& c #921092",
"z& c #A804A8",
"{& c #C407C4",
"|& c #C306C3",
"}& c #A306A3",
"~& c #8A158A",
" ' c #381C38",
"!' c #311515",
"#' c #6C1010",
"$' c #B21515",
"%' c #E20A0A",
"&' c #EE0101",
"'' c #DF0303",
"(' c #050405",
")' c #150E15",
"*' c #120D12",
"+' c #030303",
",' c #050404",
"-' c #1B0B0B",
".' c #310505",
"/' c #400808",
"0' c #591818",
"1' c None",
"                                              ! # $ % &                                         ",
"                                                ' ( ) * + ,                                     ",
"                            - . / 0 1 2 3 4     5 6 6 7 8 9 :                                   ",
"                        ; < = > > > > > > ? @ A B 6 6 6 6 6 C D E     F G                       ",
"                        H I J > > > > > > > > K L 6 6 6 6 6 M N O     P Q R                     ",
"                        S T U > > > > > > > > K V 6 6 6 6 6 6 M W X Y Z [ ] ^                   ",
"                  _ ` a b c d > > > > > > > > K V 6 6 6 6 6 6 6 6 e f g h i j k                 ",
"                l m n o p q r > > > > > > > > K V 6 6 6 6 6 6 6 6 s t h h h i u !               ",
"            v w x y z { { { | } > > > > > > > K V 6 6 6 6 6 6 6 ~  !h h h h h Z Y               ",
"          !!#!$!{ { { { { { { %!&!> > > > > > K V 6 6 6 6 6 6 '!(!h h h h h h )!*!+!            ",
"        ,!-!$!{ { { { { { { { .!/!> > > > > > K V 6 6 6 6 6 6 0!1!h h h h h h 2!3!4!            ",
"      5!6!7!{ { { { { { { { { 8!9!:!> > > > > K V 6 6 6 6 6 ;!<!=!h h h h h h h >!?!            ",
"      @!A!B!C!{ { { { { { { { { D!E!> > > > > K V 6 6 6 6 6 F!G!h h h h h h h h i H!I!J!K!      ",
"        L!M!N!{ { { { { { { { { { O!P!> > > > K V 6 6 6 6 Q!R!h h h h h h h h h S!T!U!V!W!      ",
"          X!Y!Z![!{ { { { { { { { ]!^!_!> > > K V 6 6 6 `!a!S!h h h h h h h h b!c!d!e!f!g!h!    ",
"      i!j!k!l!m!n!o!p!]!{ { { { { { q!r!> > > K V 6 6 6 s!t!h h h h h h h u!v!w!x!y!y!y!y!z!    ",
"      {!|!}!l!l!l!~! #!###{ { { { { $#%#&#> > K V 6 6 '#(#)#h h h h h S!*#+#,#y!y!y!y!y!y!-#    ",
"    .#/#}!l!l!l!l!l!0#1#2#3#{ { { { { 4#5#> > K V 6 6 6#7#h h h h h 8#9#:#;#y!y!y!y!y!y!y!<#=#  ",
"  >#?#l!l!l!l!l!l!l!l!l!m!@#A#B#C#{ { { D#E#> K V 6 F#G#h h h h H#I#J#x!y!y!y!y!y!y!y!y!y!K#L#  ",
"  M#N#l!l!l!l!l!l!l!l!l!l!l!O#P#Q#R#{ { ]!S#_!K V 6 T#S!h h U#V#W#X#y!y!y!y!y!y!y!y!y!y!y!Y#!   ",
"Z#[#]#l!l!l!l!l!l!l!l!l!l!l!l!^#_#`#a###{ b#c#K V d#e#h h f#g#h#i#y!y!y!y!y!y!y!y!y!y!y!y!j#    ",
"k#l#l!l!l!l!l!l!l!l!l!l!l!l!l!l!l!l!m#n#o#p#q#r#s#t#u#v#w#x#y!y!y!y!y!y!y!y!y!y!y!y!y!y!y#z#    ",
"{#|#l!l!l!l!l!l!l!l!l!l!l!l!l!l!l!l!l!}#~# $!$#$$$%$&$'$X#y!y!y!y!y!y!y!y!y!y!y!y!y!y!y!($=#    ",
")$*$l!+$m!l!l!l!l!l!l!l!l!l!l!l!l!l!l!l!l!,$-$.$/$0$1$y!y!y!y!y!y!y!y!y!y!y!y!y!y!y!y!y!2$      ",
"3$4$5$6$7$8$8$8$8$8$8$8$8$8$8$8$8$8$8$8$8$9$:$;$<$=$>$?$?$?$?$?$?$?$?$?$?$?$?$?$?$?$?$@$A$B$C$D$",
"      E$y!y!y!y!y!y!y!y!y!y!y!y!y!y!y!y!F$G$H$I$J$K$L$M$m!l!l!l!l!l!l!l!l!l!l!l!l!l!l!l!l!l!N$O$",
"    P$Q$y!y!y!y!y!y!y!y!y!y!y!y!y!y!;#R$S$T$U$V$W$X$Y$Z$[$]$l!l!l!l!l!l!l!l!l!l!l!l!l!l!l!l!^$_$",
"    `$y!y!y!y!y!y!y!y!y!y!y!y!y!a$b$c$d$h e$f$g$h$i$j${ 8!k$l$m$l!l!l!l!l!l!l!l!l!l!l!l!l!n$o$p$",
"    q$y!y!y!y!y!y!y!y!y!y!y!x!r$s$t$h h S!u$v$g$h$_!w$]!{ { a#x$y$m!l!l!l!l!l!l!l!l!l!l!l!z${$|$",
"    }$y!y!y!y!y!y!y!y!y!y!~$ %!%#%h h h $%%%6 g$h$> &%'%{ { { (%)%*%+%l!l!l!l!l!l!l!l!l!l!,%-%  ",
"    }$y!y!y!y!y!y!y!y!.%/%0%1%h h h h G!2%6 6 g$h$> > 3%4%{ { { { C#5%[$6%l!l!l!l!l!l!l!7%8%    ",
"    9%y!y!y!y!y!y!:%;%<%=%S!h h h h h >%?%6 6 g$h$> > @%A%B%{ { { { { C%D%E%F%l!l!l!l!G%H%      ",
"    I%y!y!y!y!y!~$J%K%L%h h h h h h M%N%O%6 6 g$h$> > > P%Q%{ { { { { { R%S%T%U%l!l!V%W%X%      ",
"    Y%Z%y!y![%]%^%h h h h h h h h h _%`%6 6 6 g$h$> > > _!a%{ { { { { { { { { b%c%d%e%f%        ",
"      g%h%i%j%k%h h h h h h h h h l%m%6 6 6 6 g$h$> > > > n%o%{ { { { { { { { { p%q%r%s%        ",
"      t%u%v%w%x%h h h h h h h h S!y%6 6 6 6 6 g$h$> > > > > w$B%{ { { { { { { { { z%{%|%!!      ",
"            }%~%h h h h h h h h  &!&6 6 6 6 6 g$h$> > > > > #&$&##{ { { { { { { { { %&&&'&      ",
"            (&)&2!h h h h h h *&+&v$6 6 6 6 6 g$h$> > > > > > ,&-&{ { { { { { { { { .&/&        ",
"            0&1&)!h h h h h h 2&3&6 6 6 6 6 6 g$h$> > > > > > } 4&{ { { { { { { $!5&6&          ",
"              7&8&h h h h h 9&:&6 6 6 6 6 6 6 g$h$> > > > > > > ;&<&{ { { { C!=&>&?&            ",
"              @&A&i h h h B&C&`!6 6 6 6 6 6 6 g$h$> > > > > > > > D&{ { E&F&G&H&I&              ",
"                F J&i h g K&L&6 6 6 6 6 6 6 6 g$h$> > > > > > > > M&N&O&P&Q&R&                  ",
"                  S&T&U&V&W&X&Y&6 6 6 6 6 6 6 g$h$> > > > > > > > Z&[&]&                        ",
"                    ^&_&`&a&  b&c&6 6 6 6 6 6 g$h$> > > > > > > > J d&e&                        ",
"                      f&g&    h&i&j&6 6 6 6 6 k&l&m&n&> > > > > > o&p&q&                        ",
"                                  r&s&t&u&6 6 v&  w&x&y&z&{&|&}&~& '                            ",
"                                    !'#'$'%'&'''        (')'*'+'                                ",
"                                      ,'-'.'/'0'                                                "
};
