/* XPM */
static const char *fill_32[] = {
"32 32 2 1 0 0",
"  c #61DEE7",
"! c None",
"!!!!!!!!!!!!!!!!!!!!!!!!!!!!!!!!",
"!!!!!!!!!!!!!!!!!!!!!!!!      !!",
"!!!!!!!!!!!!!!!!!!!!!!!!      !!",
"!!!!!!!!!!!!!!!!!!!!!!!!      !!",
"!!!!!!!!!!!!!!!!!!!!!!!!      !!",
"!!!!!!!!!!!!!!!!!!!!!!!!      !!",
"!!!!!!!!!!!!!!!!!!!!!!!!      !!",
"!!!!!!!!!      !!!!!!!!!      !!",
"!!!!!!!!!      !!!!!!!!!      !!",
"!!!!!!!!!      !!!!!!!!!      !!",
"!!!!!!!!!      !!!!!!!!!      !!",
"!!!!!!!!!      !!!!!!!!!      !!",
"!!!!!!!!!      !!!!!!!!!      !!",
"!!!!!!!!!      !!!!!!!!!      !!",
"!!     !!      !!!!!!!!!      !!",
"!!     !!      !!!!!!!!!      !!",
"!!     !!      !!!!!!!!!      !!",
"!!     !!      !!     !!      !!",
"!!     !!      !!     !!      !!",
"!!     !!      !!     !!      !!",
"!!     !!      !!     !!      !!",
"!!     !!      !!     !!      !!",
"!!     !!      !!     !!      !!",
"!!     !!      !!     !!      !!",
"!!     !!      !!     !!      !!",
"!!     !!      !!     !!      !!",
"!!     !!      !!     !!      !!",
"!!     !!      !!     !!      !!",
"!!     !!      !!     !!      !!",
"!!     !!      !!     !!      !!",
"!!     !!      !!     !!      !!",
"!!!!!!!!!!!!!!!!!!!!!!!!!!!!!!!!"
};
