/* XPM */
static const char *fill_64[] = {
"64 64 3 1 0 0",
"  c #000000",
"! c #61DEE7",
"# c #000000",
"                                                                ",
"                                                                ",
"                                                                ",
"                                                !!!!!!!!!!!!    ",
"                                                !!!!!!!!!!!!    ",
"                                                !!!!!!!!!!!!    ",
"                                                !!!!!!!!!!!!    ",
"                                                !!!!!!!!!!!!    ",
"                                                !!!!!!!!!!!!    ",
"                                                !!!!!!!!!!!!    ",
"                                                !!!!!!!!!!!!    ",
"                                                !!!!!!!!!!!!    ",
"                                                !!!!!!!!!!!!    ",
"                   !!!!!!!!!!!!                 !!!!!!!!!!!!    ",
"                   !!!!!!!!!!!!                 !!!!!!!!!!!!    ",
"                   !!!!!!!!!!!!                 !!!!!!!!!!!!    ",
"                   !!!!!!!!!!!!                 !!!!!!!!!!!!    ",
"                   !!!!!!!!!!!!                 !!!!!!!!!!!!    ",
"                   !!!!!!!!!!!!                 !!!!!!!!!!!!    ",
"                   !!!!!!!!!!!!                 !!!!!!!!!!!!    ",
"                   !!!!!!!!!!!!                 !!!!!!!!!!!!    ",
"                   !!!!!!!!!!!!                 !!!!!!!!!!!!    ",
"                   !!!!!!!!!!!!                 !!!!!!!!!!!!    ",
"                   !!!!!!!!!!!!                 !!!!!!!!!!!!    ",
"                   !!!!!!!!!!!!                 !!!!!!!!!!!!    ",
"                   !!!!!!!!!!!!                 !!!!!!!!!!!!    ",
"                   !!!!!!!!!!!!                 !!!!!!!!!!!!    ",
"    !!!!!!!!!!!!   !!!!!!!!!!!!                 !!!!!!!!!!!!    ",
"    !!!!!!!!!!!!   !!!!!!!!!!!!                 !!!!!!!!!!!!    ",
"    !!!!!!!!!!!!   !!!!!!!!!!!!                 !!!!!!!!!!!!    ",
"    !!!!!!!!!!!!   !!!!!!!!!!!!                 !!!!!!!!!!!!    ",
"    !!!!!!!!!!!!   !!!!!!!!!!!!                 !!!!!!!!!!!!    ",
"    !!!!!!!!!!!!   !!!!!!!!!!!!                 !!!!!!!!!!!!    ",
"    !!!!!!!!!!!!   !!!!!!!!!!!!                 !!!!!!!!!!!!    ",
"    !!!!!!!!!!!!   !!!!!!!!!!!!   !!!!!!!!!!!   !!!!!!!!!!!!    ",
"    !!!!!!!!!!!!   !!!!!!!!!!!!   !!!!!!!!!!!   !!!!!!!!!!!!    ",
"    !!!!!!!!!!!!   !!!!!!!!!!!!   !!!!!!!!!!!   !!!!!!!!!!!!    ",
"    !!!!!!!!!!!!   !!!!!!!!!!!!   !!!!!!!!!!!   !!!!!!!!!!!!    ",
"    !!!!!!!!!!!!   !!!!!!!!!!!!   !!!!!!!!!!!   !!!!!!!!!!!!    ",
"    !!!!!!!!!!!!   !!!!!!!!!!!!   !!!!!!!!!!!   !!!!!!!!!!!!    ",
"    !!!!!!!!!!!!   !!!!!!!!!!!!   !!!!!!!!!!!   !!!!!!!!!!!!    ",
"    !!!!!!!!!!!!   !!!!!!!!!!!!   !!!!!!!!!!!   !!!!!!!!!!!!    ",
"    !!!!!!!!!!!!   !!!!!!!!!!!!   !!!!!!!!!!!   !!!!!!!!!!!!    ",
"    !!!!!!!!!!!!   !!!!!!!!!!!!   !!!!!!!!!!!   !!!!!!!!!!!!    ",
"    !!!!!!!!!!!!   !!!!!!!!!!!!   !!!!!!!!!!!   !!!!!!!!!!!!    ",
"    !!!!!!!!!!!!   !!!!!!!!!!!!   !!!!!!!!!!!   !!!!!!!!!!!!    ",
"    !!!!!!!!!!!!   !!!!!!!!!!!!   !!!!!!!!!!!   !!!!!!!!!!!!    ",
"    !!!!!!!!!!!!   !!!!!!!!!!!!   !!!!!!!!!!!   !!!!!!!!!!!!    ",
"    !!!!!!!!!!!!   !!!!!!!!!!!!   !!!!!!!!!!!   !!!!!!!!!!!!    ",
"    !!!!!!!!!!!!   !!!!!!!!!!!!   !!!!!!!!!!!   !!!!!!!!!!!!    ",
"    !!!!!!!!!!!!   !!!!!!!!!!!!   !!!!!!!!!!!   !!!!!!!!!!!!    ",
"    !!!!!!!!!!!!   !!!!!!!!!!!!   !!!!!!!!!!!   !!!!!!!!!!!!    ",
"    !!!!!!!!!!!!   !!!!!!!!!!!!   !!!!!!!!!!!   !!!!!!!!!!!!    ",
"    !!!!!!!!!!!!   !!!!!!!!!!!!   !!!!!!!!!!!   !!!!!!!!!!!!    ",
"    !!!!!!!!!!!!   !!!!!!!!!!!!   !!!!!!!!!!!   !!!!!!!!!!!!    ",
"    !!!!!!!!!!!!   !!!!!!!!!!!!   !!!!!!!!!!!   !!!!!!!!!!!!    ",
"    !!!!!!!!!!!!   !!!!!!!!!!!!   !!!!!!!!!!!   !!!!!!!!!!!!    ",
"    !!!!!!!!!!!!   !!!!!!!!!!!!   !!!!!!!!!!!   !!!!!!!!!!!!    ",
"    !!!!!!!!!!!!   !!!!!!!!!!!!   !!!!!!!!!!!   !!!!!!!!!!!!    ",
"    !!!!!!!!!!!!   !!!!!!!!!!!!   !!!!!!!!!!!   !!!!!!!!!!!!    ",
"    !!!!!!!!!!!!   !!!!!!!!!!!!   !!!!!!!!!!!   !!!!!!!!!!!!    ",
"    !!!!!!!!!!!!   !!!!!!!!!!!!   !!!!!!!!!!!   !!!!!!!!!!!!    ",
"    !!!!!!!!!!!!   !!!!!!!!!!!!   !!!!!!!!!!!   !!!!!!!!!!!!    ",
"                                                                "
};
