/* XPM */
static const char *fill_64[] = {
"64 64 2 1 0 0",
"  c #61DEE7",
"! c None",
"!!!!!!!!!!!!!!!!!!!!!!!!!!!!!!!!!!!!!!!!!!!!!!!!!!!!!!!!!!!!!!!!",
"!!!!!!!!!!!!!!!!!!!!!!!!!!!!!!!!!!!!!!!!!!!!!!!!!!!!!!!!!!!!!!!!",
"!!!!!!!!!!!!!!!!!!!!!!!!!!!!!!!!!!!!!!!!!!!!!!!!            !!!!",
"!!!!!!!!!!!!!!!!!!!!!!!!!!!!!!!!!!!!!!!!!!!!!!!!            !!!!",
"!!!!!!!!!!!!!!!!!!!!!!!!!!!!!!!!!!!!!!!!!!!!!!!!            !!!!",
"!!!!!!!!!!!!!!!!!!!!!!!!!!!!!!!!!!!!!!!!!!!!!!!!            !!!!",
"!!!!!!!!!!!!!!!!!!!!!!!!!!!!!!!!!!!!!!!!!!!!!!!!            !!!!",
"!!!!!!!!!!!!!!!!!!!!!!!!!!!!!!!!!!!!!!!!!!!!!!!!            !!!!",
"!!!!!!!!!!!!!!!!!!!!!!!!!!!!!!!!!!!!!!!!!!!!!!!!            !!!!",
"!!!!!!!!!!!!!!!!!!!!!!!!!!!!!!!!!!!!!!!!!!!!!!!!            !!!!",
"!!!!!!!!!!!!!!!!!!!!!!!!!!!!!!!!!!!!!!!!!!!!!!!!            !!!!",
"!!!!!!!!!!!!!!!!!!!!!!!!!!!!!!!!!!!!!!!!!!!!!!!!            !!!!",
"!!!!!!!!!!!!!!!!!!!!!!!!!!!!!!!!!!!!!!!!!!!!!!!!            !!!!",
"!!!!!!!!!!!!!!!!!!            !!!!!!!!!!!!!!!!!!            !!!!",
"!!!!!!!!!!!!!!!!!!            !!!!!!!!!!!!!!!!!!            !!!!",
"!!!!!!!!!!!!!!!!!!            !!!!!!!!!!!!!!!!!!            !!!!",
"!!!!!!!!!!!!!!!!!!            !!!!!!!!!!!!!!!!!!            !!!!",
"!!!!!!!!!!!!!!!!!!            !!!!!!!!!!!!!!!!!!            !!!!",
"!!!!!!!!!!!!!!!!!!            !!!!!!!!!!!!!!!!!!            !!!!",
"!!!!!!!!!!!!!!!!!!            !!!!!!!!!!!!!!!!!!            !!!!",
"!!!!!!!!!!!!!!!!!!            !!!!!!!!!!!!!!!!!!            !!!!",
"!!!!!!!!!!!!!!!!!!            !!!!!!!!!!!!!!!!!!            !!!!",
"!!!!!!!!!!!!!!!!!!            !!!!!!!!!!!!!!!!!!            !!!!",
"!!!!!!!!!!!!!!!!!!            !!!!!!!!!!!!!!!!!!            !!!!",
"!!!!!!!!!!!!!!!!!!            !!!!!!!!!!!!!!!!!!            !!!!",
"!!!!!!!!!!!!!!!!!!            !!!!!!!!!!!!!!!!!!            !!!!",
"!!!!!!!!!!!!!!!!!!            !!!!!!!!!!!!!!!!!!            !!!!",
"!!!            !!!            !!!!!!!!!!!!!!!!!!            !!!!",
"!!!            !!!            !!!!!!!!!!!!!!!!!!            !!!!",
"!!!            !!!            !!!!!!!!!!!!!!!!!!            !!!!",
"!!!            !!!            !!!!!!!!!!!!!!!!!!            !!!!",
"!!!            !!!            !!!!!!!!!!!!!!!!!!            !!!!",
"!!!            !!!            !!!!!!!!!!!!!!!!!!            !!!!",
"!!!            !!!            !!!!!!!!!!!!!!!!!!            !!!!",
"!!!            !!!            !!!!           !!!            !!!!",
"!!!            !!!            !!!!           !!!            !!!!",
"!!!            !!!            !!!!           !!!            !!!!",
"!!!            !!!            !!!!           !!!            !!!!",
"!!!            !!!            !!!!           !!!            !!!!",
"!!!            !!!            !!!!           !!!            !!!!",
"!!!            !!!            !!!!           !!!            !!!!",
"!!!            !!!            !!!!           !!!            !!!!",
"!!!            !!!            !!!!           !!!            !!!!",
"!!!            !!!            !!!!           !!!            !!!!",
"!!!            !!!            !!!!           !!!            !!!!",
"!!!            !!!            !!!!           !!!            !!!!",
"!!!            !!!            !!!!           !!!            !!!!",
"!!!            !!!            !!!!           !!!            !!!!",
"!!!            !!!            !!!!           !!!            !!!!",
"!!!            !!!            !!!!           !!!            !!!!",
"!!!            !!!            !!!!           !!!            !!!!",
"!!!            !!!            !!!!           !!!            !!!!",
"!!!            !!!            !!!!           !!!            !!!!",
"!!!            !!!            !!!!           !!!            !!!!",
"!!!            !!!            !!!!           !!!            !!!!",
"!!!            !!!            !!!!           !!!            !!!!",
"!!!            !!!            !!!!           !!!            !!!!",
"!!!            !!!            !!!!           !!!            !!!!",
"!!!            !!!            !!!!           !!!            !!!!",
"!!!            !!!            !!!!           !!!            !!!!",
"!!!            !!!            !!!!           !!!            !!!!",
"!!!            !!!            !!!!           !!!            !!!!",
"!!!            !!!            !!!!           !!!            !!!!",
"!!!!!!!!!!!!!!!!!!!!!!!!!!!!!!!!!!!!!!!!!!!!!!!!!!!!!!!!!!!!!!!!"
};
