/* XPM */
static const char *fireworks_16[] = {
/* width height num_colors chars_per_pixel */
"16 16 129 2", 
/* colors */
"   c #147814",
".  c #2D2D14",
"X  c #1E8D14",
"o  c #242B14",
"O  c #474714",
"+  c #334414",
"@  c #183114",
"#  c #4A5914",
"$  c #143314",
"%  c #496014",
"&  c #142F14",
"*  c #214D14",
"=  c #4E7114",
"-  c #144D14",
";  c #142414",
":  c #5A9214",
">  c #314314",
",  c #181E14",
"<  c #183C14",
"1  c #142D14",
"2  c #63BB14",
"3  c #3E6A14",
"4  c #262614",
"5  c #265C14",
"6  c #333314",
"7  c #44AA14",
"8  c #548614",
"9  c #141E14",
"0  c #145414",
"q  c #142B14",
"w  c #144914",
"e  c #292914",
"r  c #373C14",
"t  c #505014",
"y  c #656614",
"u  c #415E14",
"i  c #143A14",
"p  c #1E3114",
"a  c #3F5F14",
"s  c #295014",
"d  c #6C9014",
"f  c #658D14",
"g  c #477514",
"h  c #393914",
"j  c #464614",
"k  c #141E14",
"l  c #3A3F14",
"z  c #145414",
"x  c #535314",
"c  c #447D14",
"v  c #2F3E14",
"b  c #142B14",
"n  c #264914",
"m  c #1E5A14",
"M  c #141814",
"N  c #264714",
"B  c #315514",
"V  c #3E6214",
"C  c #141414",
"Z  c #181814",
"A  c #3F3F14",
"S  c #143F14",
"D  c #313914",
"F  c #5A5F14",
"G  c #4E5814",
"H  c #1E1E14",
"J  c #2B3C14",
"K  c #243914",
"L  c #516A14",
"P  c #315314",
"I  c #416514",
"U  c #1B1B14",
"Y  c #316014",
"T  c #353514",
"R  c #141414",
"E  c #585E14",
"W  c #4C6414",
"Q  c #446814",
"!  c #1E1E14",
"~  c #2B2B14",
"^  c #3F7114",
"/  c #444C14",
"(  c #4A5614",
")  c #465814",
"_  c #264114",
"`  c #5C7414",
"'  c #141414",
"]  c #4D7514",
"[  c #212114",
"{  c #507A14",
"}  c #434414",
"|  c #1B2414",
" . c #142114",
".. c #555514",
"X. c #444A14",
"o. c #296D14",
"O. c #1B3114",
"+. c #3C4E14",
"@. c #2F4E14",
"#. c #1E4314",
"$. c #184614",
"%. c #668714",
"&. c #242414",
"*. c #4E7914",
"=. c #313114",
"-. c #3E3E14",
";. c #3F4414",
":. c #535414",
">. c #585814",
",. c #474D14",
"<. c #465414",
"1. c #213914",
"2. c #3C5914",
"3. c #1E4114",
"4. c #628714",
"5. c #181B14",
"6. c #353A14",
"7. c #545814",
"8. c #3C4A14",
"9. c #143714",
"0. c #416814",
"q. c #215114",
"w. c #141B14",
"e. c #293114",
"r. c #374414",
"t. c #546314",
"y. c #183314",
"u. c #707C14",
"i. c #143514",
/* pixels */
"C R R R R R R M 9 p , 0 9 R R C ",
"R ' ' ' ' ! Z D m L ,.o.9. .i.R ",
"R ' ' ' ' -.( r D + P r.' w   & ",
"R ' ' ' 4 5.> 6.} 2.V #.* 8.$.q ",
"R ' ' &.t 3._ N b | % c X u G S ",
"R ' [ -.~ 7.@.< s e.) ` 5 O.~ H ",
"R ' U e Z ;.*.+.Q d 2 7 Y i J H ",
"R ' &.-.Z l t.j %.f : 8 { - $ R ",
"R ' Z &.' @ ^ W u.= 0.4.] z k R ",
"R ' ' A &.../ a v ; q.g y o ; 9 ",
"R ' ' [ ~ O ( B w.1.K F h U y.1 ",
"R ' ' &.t ~ :.<.# 3 n ~ . T =.R ",
"R ' ' ' 4 ! >.x E I X.Z ' Z Z R ",
"R ' ' ' ' Z e ! &.6 6 ' ' ' ' R ",
"R ' ' ' ' ' ' ' ' ' ' ' ' ' ' R ",
"C R R R R R R R R R R R R R R C "
};
