/* XPM */
static const char *forward_24_xpm[] = {
/* width height num_colors chars_per_pixel */
"    24    24        8            1",
/* colors */
"` c #2784bc",
". c #a4aebb",
"# c #63899f",
"a c #5c92bc",
"b c #507a98",
"c c None",
"d c #c0c8cc",
"e c #8198a6",
/* pixels */
"cccccccccccccccccccccccc",
"cccccccccccccccccccccccc",
"cccccccccccccccccccccccc",
"ccccdcccccccdccccccccccc",
"cccbbbccccc.``eccccccccc",
"cc.aaabcccc#aaaecccccccc",
"cc.aaaabccc#aaaaeccccccc",
"cc.aaaaabcc#aaaaaecccccc",
"cc.aaaaabbc#aaaaaaeccccc",
"cc.aaaaaaabbaaaaaaaecccc",
"cc.aaaaaaaa`aaaaaaaaeccc",
"cc.aaaaaaaaaaaaaaaaa`ccc",
"cc.aaaaaaaaaaaaaaaaa`ccc",
"cc.aaaaaaaa`aaaaaaaaeccc",
"cc.aaaaaaabbaaaaaaa#cccc",
"cc.aaaaaabcbaaaaaa#ccccc",
"cc.aaaaabcc#aaaaaecccccc",
"cc.aaaabccc#aaaaaccccccc",
"cc.aaabcccc#aaaecccccccc",
"cccbabccccc.``eccccccccc",
"cccddcccccccddcccccccccc",
"cccccccccccccccccccccccc",
"cccccccccccccccccccccccc",
"cccccccccccccccccccccccc"
};
