/* XPM */
static const char *FV_xpm[] = {
"32 16 83 1",
" 	c #FFFFFF",
".	c #FCFCFC",
"+	c #F3F3F3",
"@	c #FDFDFD",
"#	c #EEEEEE",
"$	c #FAFAFA",
"%	c #FEFEFE",
"&	c #F8F8F8",
"*	c #F7F7F7",
"=	c #F5F5F5",
"-	c #EAEAEA",
";	c #F6F6F6",
">	c #F9F9F9",
",	c #3F3F3F",
"'	c #393939",
")	c #070707",
"!	c #898989",
"~	c #FBFBFB",
"{	c #BEBEBE",
"]	c #181818",
"^	c #141414",
"/	c #DBDBDB",
"(	c #232323",
"_	c #000000",
":	c #767676",
"<	c #B1B1B1",
"[	c #040404",
"}	c #2F2F2F",
"|	c #F4F4F4",
"1	c #F2F2F2",
"2	c #0C0C0C",
"3	c #9E9E9E",
"4	c #191919",
"5	c #323232",
"6	c #D4D4D4",
"7	c #2A2A2A",
"8	c #0D0D0D",
"9	c #161616",
"0	c #1C1C1C",
"a	c #1E1E1E",
"b	c #131313",
"c	c #222222",
"d	c #383838",
"e	c #7F7F7F",
"f	c #0E0E0E",
"g	c #8D8D8D",
"h	c #B3B3B3",
"i	c #EFEFEF",
"j	c #272727",
"k	c #EDEDED",
"l	c #010101",
"m	c #313131",
"n	c #ECECEC",
"o	c #4F4F4F",
"p	c #E3E3E3",
"q	c #858585",
"r	c #1F1F1F",
"s	c #D6D6D6",
"t	c #1A1A1A",
"u	c #090909",
"v	c #2C2C2C",
"w	c #060606",
"x	c #080808",
"y	c #E8E8E8",
"z	c #2D2D2D",
"A	c #E5E5E5",
"B	c #F0F0F0",
"C	c #020202",
"D	c #AFAFAF",
"E	c #202020",
"F	c #CECECE",
"G	c #919191",
"H	c #2B2B2B",
"I	c #5D5D5D",
"J	c #828282",
"K	c #5E5E5E",
"L	c #121212",
"M	c #030303",
"N	c #6B6B6B",
"O	c #838383",
"P	c #EBEBEB",
"Q	c #535353",
"R	c #BABABA",
" . + @ #................ $  .   ",
" @ %@&.$................#  * .  ",
" =- & + ................ =; >%  ",
" * %>@= ................* %> %  ",
" ,')!................+ @~{]^/(  ",
" _&:<[} |$%%@. %@$ 1 +$2_3+ $4  ",
" 5~_ .6748__90]a_b_c)de* f*+ g  ",
" fdh@ _@$ij1;kl= =m =no= pj$ q  ",
" rs  kt% %_ @ u  &v&@.w.;=x@y]  ",
"  0%*zA B _*  _  nC  ;_   sDa1  ",
" B 2]EF%@$a*= _ % c#  G  ;HI=   ",
" 1@~  J2qK_x8_L__}wwu_dM_wk %$  ",
"  ;@> >@NO 1%=*u |~ w=B *E@@.>  ",
" .... P~$0>.~& pQ>%=%9*% =R| .  ",
" %1                             ",
"...                             "};
