/* XPM */
static const char *FV_xpm[] = {
"32 16 80 1",
" 	c None",
".	c #E5E5E5",
"+	c #3F3F3F",
"@	c #393939",
"#	c #070707",
"$	c #898989",
"%	c #BEBEBE",
"&	c #181818",
"*	c #141414",
"=	c #DBDBDB",
"-	c #232323",
";	c #000000",
">	c #F8F8F8",
",	c #767676",
"'	c #B1B1B1",
")	c #040404",
"!	c #2F2F2F",
"~	c #0C0C0C",
"{	c #9E9E9E",
"]	c #F3F3F3",
"^	c #FFFFFF",
"/	c #FAFAFA",
"(	c #191919",
"_	c #323232",
":	c #FBFBFB",
"<	c #FCFCFC",
"[	c #D4D4D4",
"}	c #2A2A2A",
"|	c #0D0D0D",
"1	c #161616",
"2	c #1C1C1C",
"3	c #1E1E1E",
"4	c #131313",
"5	c #222222",
"6	c #383838",
"7	c #7F7F7F",
"8	c #F7F7F7",
"9	c #0E0E0E",
"0	c #8D8D8D",
"a	c #B3B3B3",
"b	c #FDFDFD",
"c	c #EFEFEF",
"d	c #272727",
"e	c #F2F2F2",
"f	c #F6F6F6",
"g	c #EDEDED",
"h	c #010101",
"i	c #F5F5F5",
"j	c #313131",
"k	c #ECECEC",
"l	c #4F4F4F",
"m	c #E3E3E3",
"n	c #858585",
"o	c #1F1F1F",
"p	c #D6D6D6",
"q	c #1A1A1A",
"r	c #FEFEFE",
"s	c #090909",
"t	c #2C2C2C",
"u	c #060606",
"v	c #080808",
"w	c #E8E8E8",
"x	c #2D2D2D",
"y	c #F0F0F0",
"z	c #020202",
"A	c #AFAFAF",
"B	c #202020",
"C	c #CECECE",
"D	c #EEEEEE",
"E	c #919191",
"F	c #2B2B2B",
"G	c #5D5D5D",
"H	c #828282",
"I	c #5E5E5E",
"J	c #121212",
"K	c #030303",
"L	c #6B6B6B",
"M	c #838383",
"N	c #535353",
"O	c #BABABA",
"................................",
"................................",
"................................",
"................................",
".+@#$....................%&*=-..",
".;>,')!................~;{]^/(..",
"._:;^<[}(|;;12&3;4;5#678^98]^0..",
".96ab^;b/cdefghi^ij^ikli^md/^n..",
".op^^gqr^r;^b^s^^>t>b<u<fivbw&..",
"..2r8x.^y^;8^^;^^kz^^f;^^^pA3...",
"...~&BCrb/38i^;^r^5D^^E^^fFG....",
"......H~nI;v|;J;;!uus;6K;u......",
"........LM.....s....u....B......",
".........2.....mN....1....O.....",
"................................",
"................................"};
