/* XPM */
static const char *garlands_24[] = {
/* width height num_colors chars_per_pixel */
"24 24 115 2", 
/* colors */
"   c #000000",
".  c #205A00",
"X  c #1D6200",
"o  c #206700",
"O  c #122B00",
"+  c #32E400",
"@  c #207400",
"#  c #123800",
"$  c #205800",
"%  c #165000",
"&  c #266200",
"*  c #206500",
"=  c #236A00",
"-  c #2DCD00",
";  c #123600",
":  c #1A4C00",
">  c #235B00",
",  c #125000",
"<  c #0C1D00",
"1  c #001600",
"2  c #236800",
"3  c #207000",
"4  c #123400",
"5  c #001200",
"6  c #165700",
"7  c #163F00",
"8  c #1A4A00",
"9  c #1D4F00",
"0  c #205400",
"q  c #164C00",
"w  c #16DD00",
"e  c #1D5C00",
"r  c #206100",
"t  c #236600",
"y  c #206E00",
"u  c #123200",
"i  c #164A00",
"p  c #166F00",
"a  c #123B00",
"s  c #001200",
"d  c #266900",
"f  c #0C2600",
"g  c #123D00",
"h  c #1A4600",
"j  c #205D00",
"k  c #266700",
"l  c #165100",
"z  c #000C00",
"x  c #206A00",
"c  c #236F00",
"v  c #123B00",
"b  c #1A6900",
"n  c #236000",
"m  c #1DC900",
"M  c #266500",
"N  c #1D6300",
"B  c #125100",
"V  c #32E500",
"C  c #165C00",
"Z  c #164400",
"A  c #000C00",
"S  c #165100",
"D  c #266300",
"F  c #0C2000",
"G  c #1D6100",
"H  c #206600",
"J  c #236B00",
"K  c #267000",
"L  c #236900",
"P  c #0C2B00",
"I  c #237600",
"U  c #124F00",
"Y  c #236700",
"T  c #266800",
"R  c #000000",
"E  c #000000",
"W  c #2DE400",
"Q  c #1A5600",
"!  c #1D5B00",
"~  c #236500",
"^  c #266A00",
"/  c #1D6800",
"(  c #0C1600",
")  c #165400",
"_  c #206D00",
"`  c #1A5F00",
"'  c #20E000",
"]  c #1A5F00",
"[  c #122D00",
"{  c #122D00",
"}  c #1A4700",
"|  c #123A00",
" . c #1A5400",
".. c #000000",
"X. c #000000",
"o. c #000000",
"O. c #266800",
"+. c #124700",
"@. c #1D6600",
"#. c #206B00",
"$. c #122F00",
"%. c #123800",
"&. c #0C1600",
"*. c #1D5700",
"=. c #205C00",
"-. c #236100",
";. c #296B00",
":. c #0C2300",
">. c #206900",
",. c #122D00",
"<. c #163800",
"1. c #165D00",
"2. c #123A00",
"3. c #165D00",
"4. c #000000",
/* pixels */
"E o.o.o.o.o.o.o.o.o.o.o.o.o.o.o.o.o.o.o.o.R     ",
"X.4.4.4.4.4.4.4.4.4.4.4.4.4.4.4.4.4.4.4.4...    ",
"{ 0 9 7 > u M O M 4 n 7 0 9 7 > u M O M 4 l     ",
"T ;.t k d D ;.~ O.^ O.k ;.t k d D ;.~ O.^ `     ",
"] 8 : $ 7 -.4 k ,.& <.. 8 : $ 7 -.4 k ,.& %.    ",
"( 1 &.< s F A :.A F A < 1 &.< s F A :.A F z     ",
"X.4.4.4.4.4.4.4.4.4.4.4.4.4.4.4.4.4.4.4.4...    ",
"X.4.4.4.4.4.4.4.4.4.4.4.4.4.4.4.4.4.4.4.4...    ",
"X.4.4.4.4.4.4.4.4.4.4.4.4.4.4.4.4.4.4.4.4...    ",
"X.4.4.4.4.4.4.4.4.4.4.4.4.4.4.4.4.4.4.4.4...    ",
"| j *.} H # K u c 2.L h j *.} H # K u c 2.)     ",
"b = * 2 o t 2 Y H J t 2 = * 2 o t 2 Y H J 1.    ",
"3.} : *.g r $.~ P =.4 *.} : *.g r $.~ P =.[     ",
"5 A s s A 1 4.1 4.s A s A s s A 1 4.1 4.s ..    ",
"X.4.4.4.4.4.4.4.4.4.4.4.4.4.4.4.4.4.4.4.4...    ",
"X.4.4.4.4.4.4.4.4.4.4.4.4.4.4.4.4.4.4.4.4...    ",
"X.4.4.4.4.4.4.4.4.4.4.4.4.4.4.4.4.4.4.4.4...    ",
"X.A A 4.A 4.A 4.A 4.A 4.A A 4.A 4.A 4.A 4.z     ",
"a X e q x v I ; @ g y i X e q x v I ; @ g C     ",
"p >./ _ / #.@.#.N 3 @.#.>./ _ / #.@.#.N 3 1.    ",
"6 Z i Q 2.G P N f ! $. .Z i Q 2.G P N f ! [     ",
"B % , S , S , S U S , S % , S , S , S U S +.    ",
"W + + + + + + + + + + + + + + + + + + + V -     ",
"' w w w w w w w w w w w w w w w w w w w w m     "
};
