/* XPM */
static const char *garlands_32[] = {
/* width height num_colors chars_per_pixel */
"32 32 194 2", 
/* colors */
"   c #000000",
".  c #124700",
"X  c #0D4300",
"o  c #104800",
"O  c #185100",
"+  c #165200",
"@  c #000D00",
"#  c #145300",
"$  c #125400",
"%  c #165F00",
"&  c #146000",
"*  c #0B2800",
"=  c #185A00",
"-  c #0D3400",
";  c #0B3500",
":  c #18C600",
">  c #0D5900",
",  c #124500",
"<  c #0D4100",
"1  c #0BC600",
"2  c #000B00",
"3  c #125200",
"4  c #0B3E00",
"5  c #050B00",
"6  c #145E00",
"7  c #1F6C00",
"8  c #0D3200",
"9  c #081D00",
"0  c #124300",
"q  c #0D3F00",
"w  c #104400",
"e  c #082A00",
"r  c #164E00",
"t  c #050D00",
"y  c #144F00",
"u  c #125000",
"i  c #165B00",
"p  c #081F00",
"a  c #145C00",
"s  c #0B2400",
"d  c #0B4900",
"f  c #207000",
"g  c #051600",
"h  c #196D00",
"j  c #103500",
"k  c #0B3100",
"l  c #0D3D00",
"z  c #104200",
"x  c #164C00",
"c  c #050B00",
"v  c #124E00",
"b  c #1BAB00",
"n  c #185800",
"m  c #051800",
"M  c #081D00",
"N  c #145A00",
"B  c #206E00",
"V  c #166600",
"C  c #082A00",
"Z  c #0B2F00",
"A  c #0D3B00",
"S  c #164A00",
"D  c #000500",
"F  c #144B00",
"G  c #165700",
"H  c #051600",
"J  c #081B00",
"K  c #195C00",
"L  c #145800",
"P  c #125900",
"I  c #082800",
"U  c #146500",
"Y  c #188800",
"T  c #0B2D00",
"R  c #123D00",
"E  c #1BAB00",
"W  c #103E00",
"Q  c #1F8000",
"!  c #144900",
"~  c #185400",
"^  c #051400",
"/  c #195A00",
"(  c #081900",
")  c #145600",
"_  c #1FF900",
"`  c #125700",
"'  c #186100",
"]  c #0B2B00",
"[  c #1B7300",
"{  c #123B00",
"}  c #0B3800",
"|  c #144700",
" . c #124800",
".. c #0D4400",
"X. c #104900",
"o. c #0B3400",
"O. c #185200",
"+. c #051200",
"@. c #165300",
"#. c #145400",
"$. c #1B6400",
"%. c #051F00",
"&. c #164F00",
"*. c #082400",
"=. c #0B4E00",
"-. c #0B3600",
";. c #0B2500",
":. c #144500",
">. c #104700",
",. c #185000",
"<. c #0B3200",
"1. c #051000",
"2. c #165100",
"3. c #125300",
"4. c #051D00",
"5. c #165E00",
"6. c #082200",
"7. c #145F00",
"8. c #0B2700",
"9. c #165A00",
"0. c #144300",
"q. c #124400",
"w. c #104500",
"e. c #145000",
"r. c #165C00",
"t. c #051B00",
"y. c #082000",
"u. c #145D00",
"i. c #0B2500",
"p. c #0D3100",
"a. c #082D00",
"s. c #0B3200",
"d. c #1D7900",
"f. c #08A000",
"g. c #124200",
"h. c #0D3E00",
"j. c #104300",
"k. c #000800",
"l. c #144E00",
"z. c #124F00",
"x. c #185900",
"c. c #1B5E00",
"v. c #165A00",
"b. c #051900",
"n. c #164900",
"m. c #145B00",
"M. c #186600",
"N. c #0B4800",
"B. c #206F00",
"V. c #166700",
"C. c #0D2F00",
"Z. c #196C00",
"A. c #08C700",
"S. c #000000",
"D. c #164B00",
"F. c #104E00",
"G. c #185700",
"H. c #1B5C00",
"J. c #165800",
"K. c #0D4500",
"L. c #186400",
"P. c #166500",
"I. c #0D2D00",
"U. c #0B2E00",
"Y. c #123E00",
"T. c #0D3A00",
"R. c #0B2A00",
"E. c #104C00",
"W. c #165600",
"Q. c #000000",
"!. c #145700",
"~. c #1D6600",
"^. c #185100",
"/. c #082700",
"(. c #0D3800",
"). c #103D00",
"_. c #1F7F00",
"`. c #104A00",
"'. c #185300",
"]. c #0B3500",
"[. c #195900",
"{. c #081800",
"}. c #1FF800",
"|. c #125600",
" X c #186000",
".X c #166100",
"XX c #082500",
"oX c #000B00",
"OX c #0B2A00",
"+X c #1BF600",
"@X c #1B7200",
"#X c #123A00",
"$X c #103B00",
"%X c #000000",
/* pixels */
"S.Q.Q.Q.Q.Q.Q.Q.Q.Q.Q.Q.Q.Q.Q.Q.Q.Q.Q.Q.Q.Q.Q.Q.Q.Q.Q.Q.S.      ",
"Q.%X%X%X%X%X%X%X%X%X%X%X%X%X%X%X%X%X%X%X%X%X%X%X%X%X%X%XQ.      ",
"Q.%X%X%X%X%X%X%X%X%X%X%X%X%X%X%X%X%X%X%X%X%X%X%X%X%X%X%XQ.      ",
"o.p f p.6.B s C.B.p $X7 J | ~.^ ,.c.1.'.~ 1.H.,.^ $.! J ^.      ",
"&.x '.D.S ~ S D.~ D.r O.D.'.O :.G.O g.~ ~ g.O.n 0 2.~ D.K.      ",
"n./ i.F '.i.+ r i.x.| 8.K :.T [.g.8 G.{ #XG.- g.G.I.:.K ;.      ",
"R., %X- Y.%XR j %Xq.I.%X0.p 2 F p +.D.( {.D.+.M D.2 p 0.Q.      ",
"Q.%X%X%X%X%X%X%X%X%X%X%X%X%X%X%X%X%X%X%X%X%X%X%X%X%X%X%XQ.      ",
"Q.%X%X%X%X%X%X%X%X%X%X%X%X%X%X%X%X%X%X%X%X%X%X%X%X%X%X%XQ.      ",
"Q.%X%X%X%X%X%X%X%X%X%X%X%X%X%X%X%X%X%X%X%X%X%X%X%X%X%X%XQ.      ",
"Q.%X%X%X%X%X%X%X%X%X%X%X%X%X%X%X%X%X%X%X%X%X%X%X%X%X%X%XQ.      ",
"Q.%X%X%X%X%X%X%X%X%X%X%X%X%X%X%X%X%X%X%X%X%X%X%X%X%X%X%XQ.      ",
"Q.%X%X%X%X%X%X%X%X%X%X%X%X%X%X%X%X%X%X%X%X%X%X%X%X%X%X%XQ.      ",
"g t U.^ t U.1.^ U.t m ] 2 M OXk.y.8.D *.*.D /.6.k.* M 2 9       ",
"4 T _.W k _.s.A Q U. .d.OX#.[ 6. Xh 4.L.M.M Z.' 6.@X!.OX=       ",
"9.% ).L i W v.G W 5.W.W  XJ.z v.G . ) e.y W. .G J.j.J.% ].      ",
"4 @.+.w y +.l.. +.# ).+.2.C.b.J.U.y.r.OXI r.6.U.v.b.C.2.5       ",
"g p %Xb.M %XM b.%Xp H %XM t D 6.t k.XXc 2 XXk.t 6.D t M Q.      ",
"Q.%X%X%X%X%X%X%X%X%X%X%X%X%X%X%X%X%X%X%X%X%X%X%X%X%X%X%XQ.      ",
"Q.%X%X%X%X%X%X%X%X%X%X%X%X%X%X%X%X%X%X%X%X%X%X%X%X%X%X%XQ.      ",
"Q.%X%X%X%X%X%X%X%X%X%X%X%X%X%X%X%X%X%X%X%X%X%X%X%X%X%X%XQ.      ",
"Q.%X%X%X%X%X%X%X%X%X%X%X%X%X%X%X%X%X%X%X%X%X%X%X%X%X%X%XQ.      ",
"Q.%X%X%X%X%X%X%X%X%X%X%X%X%X%X%X%X%X%X%X%X%X%X%X%X%X%X%XQ.      ",
"Q.%X%X%X%X%X%X%X%X%X%X%X%X%X%X%X%X%X%X%X%X%X%X%X%X%X%X%XQ.      ",
"e t.U a.%.P.y.C V t.; & m q m.+.o |.t E.v @ $ `.+.N < m N.      ",
"d X V X.X V ..X.V.X F..XX |.7.l m.6 (.a a } u.a T.6 ` X =.      ",
"> 6 T L 6 Z u.P T u.3.k .Xu -.7.X.l & >.w.& h.X.6 } z..Xe       ",
"<.X.%XT.w.%Xw A %XX.k %X, 6.2 u y.^ |.4.t.|.H y.3 @ y.. Q.      ",
"g H ^ H H ^ H H ^ H H ^ m ^ ^ m ^ ^ m ^ ^ m ^ ^ m ^ ^ m oX      ",
"b E E E E E E E E E E E E E E E E E E E E E E E E E E E Y       ",
"+X}.}.}.}.}.}.}.}.}.}.}.}.}.}.}.}.}.}.}.}.}.}.}.}.}.}._ :       ",
"A.1 1 1 1 1 1 1 1 1 1 1 1 1 1 1 1 1 1 1 1 1 1 1 1 1 1 1 f.      "
};
