/* XPM */
static const char *gears_24_xpm[] = {
/* width height num_colors chars_per_pixel */
"    24    24        8            1",
/* colors */
"` c #313538",
". c #0497fc",
"# c #2772a9",
"a c #668197",
"b c #0f88e0",
"c c #a9b1b7",
"d c #fbfcfb",
"e c #374f5b",
/* pixels */
"dddddddddddddddddddddddd",
"ddddddddddddddddda#adddd",
"ddddddddddddd#acab.adddd",
"ddddddddddddabb....#cddd",
"ddddddddddddda.#``e.aaad",
"ddddddddddddd#b``e`#..#d",
"ddddddddddddcbe`cde`.#cd",
"dddddddddddab.b`ec`e.add",
"dddddddaacdab#.```e#bcdd",
"ddddddcbbaddcc#.##b..add",
"ddc##cab.#ca#acb.baabadd",
"dda.bb....bb.#cb#cddaddd",
"ddd#..#e`eb.badacddddddd",
"ddda.ee````bbcdddddddddd",
"daabbe`ea```.#acdddddddd",
"cbb.#``dda``...adddddddd",
"deb.be`cd```.b#adddddddd",
"ddc#be`````#badddddddddd",
"ddda.be```ebbcdddddddddd",
"ddab.b.##b..b#dddddddddd",
"ddcbba#..b##b#dddddddddd",
"dddacdcbbaddacdddddddddd",
"dddddddebadddddddddddddd",
"ddddddddcddddddddddddddd"
};
