/* XPM */
static const char *glediator_64[] = {
"64 64 4 1 0 0",
"  c #FFFFFF",
"! c #2FB5BA",
"# c #000000",
"$ c None",
"                !!!!!!!!!!!!!!!!!!!!!!!!!!!!!!!!                ",
"                !!!!!!!!!!!!!!!!!!!!!!!!!!!!!!!!                ",
"                !!!!!!!!!!!!!!!!!!!!!!!!!!!!!!!!                ",
"                !!!!!!!!!!!!!!!!!!!!!!!!!!!!!!!!                ",
"            !!!!!!!!!!!!!!!!!!!!!!!!!!!!!!!!!!!!!!!!            ",
"            !!!!!!!!!!!!!!!!!!!!!!!!!!!!!!!!!!!!!!!!            ",
"            !!!!!!!!!!!!!!!!!!!!!!!!!!!!!!!!!!!!!!!!            ",
"            !!!!!!!!!!!!!!!!!!!!!!!!!!!!!!!!!!!!!!!!            ",
"            !!!!!!!!                        !!!!!!!!            ",
"            !!!!!!!!                        !!!!!!!!            ",
"            !!!!!!!!                        !!!!!!!!            ",
"            !!!!!!!!                        !!!!!!!!            ",
"            !!!!!!!!    !!!!!!!!!!!!!!!!!!!!!!!!!!!!            ",
"            !!!!!!!!    !!!!!!!!!!!!!!!!!!!!!!!!!!!!            ",
"            !!!!!!!!    !!!!!!!!!!!!!!!!!!!!!!!!!!!!            ",
"            !!!!!!!!    !!!!!!!!!!!!!!!!!!!!!!!!!!!!            ",
"            !!!!!!!!    !!!!!!!!!!!!!!!!!!!!!!!!!!!!            ",
"            !!!!!!!!    !!!!!!!!!!!!!!!!!!!!!!!!!!!!            ",
"            !!!!!!!!    !!!!!!!!!!!!!!!!!!!!!!!!!!!!            ",
"            !!!!!!!!    !!!!!!!!!!!!!!!!!!!!!!!!!!!!            ",
"            !!!!!!!!    !!!!!!!!!!!!!!!!!!!!!!!!!!!!            ",
"            !!!!!!!!    !!!!!!!!!!!!!!!!!!!!!!!!!!!!            ",
"            !!!!!!!!    !!!!!!!!!!!!!!!!!!!!!!!!!!!!            ",
"            !!!!!!!!    !!!!!!!!!!!!!!!!!!!!!!!!!!!!            ",
"            !!!!!!!!    !!!!!!!!            !!!!!!!!            ",
"            !!!!!!!!    !!!!!!!!            !!!!!!!!            ",
"            !!!!!!!!    !!!!!!!!            !!!!!!!!            ",
"            !!!!!!!!    !!!!!!!!            !!!!!!!!            ",
"            !!!!!!!!    !!!!!!!!!!!!!!!!    !!!!!!!!            ",
"            !!!!!!!!    !!!!!!!!!!!!!!!!    !!!!!!!!            ",
"            !!!!!!!!    !!!!!!!!!!!!!!!!    !!!!!!!!            ",
"            !!!!!!!!    !!!!!!!!!!!!!!!!    !!!!!!!!            ",
"            !!!!!!!!    !!!!!!!!!!!!!!!!    !!!!!!!!            ",
"            !!!!!!!!    !!!!!!!!!!!!!!!!    !!!!!!!!            ",
"            !!!!!!!!    !!!!!!!!!!!!!!!!    !!!!!!!!            ",
"            !!!!!!!!    !!!!!!!!!!!!!!!!    !!!!!!!!            ",
"        !!!!!!!!!!!!                        !!!!!!!!!!!!        ",
"        !!!!!!!!!!!!                        !!!!!!!!!!!!        ",
"        !!!!!!!!!!!!                        !!!!!!!!!!!!        ",
"        !!!!!!!!!!!!                        !!!!!!!!!!!!        ",
"    !!!!!!!!!!!!!!!!!!!!!!!!!!!!!!!!!!!!!!!!!!!!!!!!!!!!!!!!    ",
"    !!!!!!!!!!!!!!!!!!!!!!!!!!!!!!!!!!!!!!!!!!!!!!!!!!!!!!!!    ",
"    !!!!!!!!!!!!!!!!!!!!!!!!!!!!!!!!!!!!!!!!!!!!!!!!!!!!!!!!    ",
"    !!!!!!!!!!!!!!!!!!!!!!!!!!!!!!!!!!!!!!!!!!!!!!!!!!!!!!!!    ",
"            ####        ####        ####        ####            ",
"            ####        ####        ####        ####            ",
"            ####        ####        ####        ####            ",
"            ####        ####        ####        ####            ",
"            ####        ####        ####        ####            ",
"            ####        ####        ####        ####            ",
"            ####        ####        ####        ####            ",
"            ####        ####        ####        ####            ",
"            ####        ####        ####        ####            ",
"            ####        ####        ####        ####            ",
"            ####        ####        ####        ####            ",
"            ####        ####        ####        ####            ",
"            ####        ####        ####        ####            ",
"            ####        ####        ####        ####            ",
"            ####        ####        ####        ####            ",
"            ####        ####        ####        ####            ",
"            ####        ####        ####        ####            ",
"            ####        ####        ####        ####            ",
"            ####        ####        ####        ####            ",
"            ####        ####        ####        ####            "
};
