/* XPM */
static const char *graceful_stop_24_xpm[] = {
/* columns rows colors chars-per-pixel */
"24 24 256 2",
"   c #A50008",
".  c #BE0807",
"X  c #B20C0C",
"o  c #B90415",
"O  c #AC3924",
"+  c #C30001",
"@  c #CC0101",
"#  c #C80807",
"$  c #DB0001",
"%  c #D70208",
"&  c #DF0B07",
"*  c #C01A00",
"=  c #C7160D",
"-  c #DA1201",
";  c #D61D05",
":  c #C31313",
">  c #DF181B",
",  c #DA1618",
"<  c #C70716",
"1  c #E40000",
"2  c #E00008",
"3  c #E10803",
"4  c #F20309",
"5  c #E31700",
"6  c #F50F1C",
"7  c #E61416",
"8  c #D32700",
"9  c #DB3405",
"0  c #CD2210",
"q  c #DE2010",
"w  c #D9251D",
"e  c #D8321C",
"r  c #ED2707",
"t  c #E8320D",
"y  c #E0381E",
"u  c #E53E11",
"i  c #DD1E23",
"p  c #E91E24",
"a  c #CA2524",
"s  c #D62A23",
"d  c #D62925",
"f  c #C63226",
"g  c #DC352E",
"h  c #D63C2C",
"j  c #D53622",
"k  c #C52A32",
"l  c #C53D3F",
"z  c #DF3233",
"x  c #D33B35",
"c  c #DD3B33",
"v  c #D73E38",
"b  c #E52223",
"n  c #E72A2C",
"m  c #FD2027",
"M  c #F7252C",
"N  c #E1342B",
"B  c #EB312F",
"V  c #F12D31",
"C  c #EB3332",
"Z  c #E43D3C",
"A  c #EC3B3B",
"S  c #F3383A",
"D  c #B14833",
"F  c #D6470D",
"G  c #EF431B",
"H  c #F3461C",
"J  c #D8442A",
"K  c #CF4636",
"L  c #D24133",
"P  c #D3423C",
"I  c #DA4034",
"U  c #EB4B2B",
"Y  c #E8422B",
"T  c #FC4A24",
"R  c #E4433C",
"E  c #EB423F",
"W  c #FF4039",
"Q  c #F84E34",
"!  c #FF5039",
"~  c #F15F36",
"^  c #D03048",
"/  c #D73A44",
"(  c #E12B41",
")  c #A74542",
"_  c #AE5E5F",
"`  c #B7644C",
"'  c #BA7854",
"]  c #9C686C",
"[  c #BD7E65",
"{  c #D94548",
"}  c #DE5241",
"|  c #C75F5E",
" . c #CD5C59",
".. c #D74A5B",
"X. c #E94845",
"o. c #FF4D43",
"O. c #E85442",
"+. c #F3455C",
"@. c #EC5250",
"#. c #FF525F",
"$. c #EA4958",
"%. c #C0644B",
"&. c #CD6351",
"*. c #D36959",
"=. c #E86255",
"-. c #CF5965",
";. c #F95766",
":. c #C86A69",
">. c #DD6F60",
",. c #D7636A",
"<. c #D07E69",
"1. c #C66E7A",
"2. c #F76A68",
"3. c #F27062",
"4. c #9D8A7B",
"5. c #A08870",
"6. c #CA876C",
"7. c #EF826D",
"8. c #E78478",
"9. c #FD807A",
"0. c #BC7A8A",
"q. c #B27D91",
"w. c #C8788C",
"e. c #D67D81",
"r. c #F57886",
"t. c #BE848D",
"y. c #A89287",
"u. c #BC8292",
"i. c #B68998",
"p. c #B98B96",
"a. c #B8929A",
"s. c #AFA99B",
"d. c #BBA79E",
"f. c #A899A8",
"g. c #B696A3",
"h. c #A6A6A3",
"j. c #AEA0AF",
"k. c #ACADAC",
"l. c #ACA7A4",
"z. c #BDAAA3",
"x. c #A6ACBC",
"c. c #B7AAB3",
"v. c #BAA2B0",
"b. c #B5B5B3",
"n. c #B8B8B6",
"m. c #BEBEBC",
"M. c #BAB3B7",
"N. c #CC8581",
"B. c #DD8E8A",
"V. c #DC9A87",
"C. c #D58D91",
"Z. c #C78998",
"A. c #FA9A8C",
"S. c #ED9D9C",
"D. c #C5A29E",
"F. c #E7AA9B",
"G. c #C59AA4",
"H. c #D499A6",
"J. c #D69FB4",
"K. c #FF81AE",
"L. c #C0A0AF",
"P. c #CBA6A9",
"I. c #DFACAB",
"U. c #C2B5AF",
"Y. c #D0BBAA",
"T. c #CCAEB3",
"R. c #D1A7B5",
"E. c #CCB4BB",
"W. c #CCBABC",
"Q. c #C5B1B4",
"!. c #D1BBBF",
"~. c #D9B7B6",
"^. c #E9A3A1",
"/. c #E7BFBF",
"(. c #B9C2BD",
"). c #C8C2BB",
"_. c #D9CCBC",
"`. c #B2B9C1",
"'. c #CAB7C3",
"]. c #DFBEC7",
"[. c #D6BDC5",
"{. c #E3BEC3",
"}. c #FFB2C0",
"|. c #B7C3C2",
" X c #C5C4C3",
".X c #C8C8C6",
"XX c #C6CCCB",
"oX c #CCCCCC",
"OX c #CBC6C0",
"+X c #D7C1C3",
"@X c #D6C5C8",
"#X c #C6D1C2",
"$X c #C3D5CA",
"%X c #CAD3C2",
"&X c #D1D1CF",
"*X c #C4C8D3",
"=X c #CBD7D7",
"-X c #D5D5D2",
";X c #DBD7D3",
":X c #D4DCD3",
">X c #DADAD5",
",X c #D5DBDB",
"<X c #DCDCDB",
"1X c #D7D5D8",
"2X c #E8C7CE",
"3X c #FFC3C2",
"4X c #EDC0D7",
"5X c #EAC9D0",
"6X c #E8D5DE",
"7X c #C9E6D5",
"8X c #D4E3DC",
"9X c #DBE2DE",
"0X c #DEEADE",
"qX c #D8E5D3",
"wX c #E2E7DB",
"eX c #FBE3DF",
"rX c #E0F6DF",
"tX c #D8DEE2",
"yX c #E4DBE0",
"uX c #F2DBE3",
"iX c #D5E4E3",
"pX c #DEE9EA",
"aX c #DDF2EB",
"sX c #D5FFFD",
"dX c #D9FFFF",
"fX c #DBFAF4",
"gX c #E4E4E3",
"hX c #E3E4EA",
"jX c #EBECEB",
"kX c #E9E7E7",
"lX c #FFEAEF",
"zX c #F5E7E9",
"xX c #F1F1EF",
"cX c #FFF0E9",
"vX c #F5F9ED",
"bX c #F9FEEC",
"nX c #E5ECF3",
"mX c #ECEBF4",
"MX c #E7EFFC",
"NX c #E9E9F6",
"BX c #FDEEFF",
"VX c #F0EDF8",
"CX c #E7F1F3",
"ZX c #EBF3F4",
"AX c #EEFCF5",
"SX c #E7F5FF",
"DX c #ECFCFF",
"FX c #E9F6F7",
"GX c #F4F4F3",
"HX c #FDF4F3",
"JX c #F3FCF5",
"KX c #FBFDF3",
"LX c #F2F4FD",
"PX c #FFF6FD",
"IX c #F3FEFC",
"UX c #FEFDFE",
/* pixels */
"UXUXPXPXKXcXUXdXZXwX>X;X;X&X<XhXsXIXBXPXKXAXIXPX",
"vXUXIXUXUXAXaX4X'.P.Z.w.w.u.g.c.).6XUXUXUXKXJXUX",
"bXUXDXIXJX&X~.K.A B M m m S X.@.1.D.$XfXUXPXPXJX",
"KXUXUXpXpXS.+.  b b b N N z z N $.:.y.(.nXPXUXvX",
"UXZXmXeXV.: 4 W V B N h h v R Z z / -.t.'.NXUXKX",
"PXUX<XB.n 7 0 = s d d w s c v P ../ { ,.i.*XJXKX",
"DXHXI.{ 6 B A.3X2X2X5X{.{.{.[.'.H. .g @.1.v.tXKX",
"dXOXr.< n k }.dXuXkXiX7X7X9XyX6X:X[ L O.-.q.XXJX",
"CXT.E V C L W.zX>X>X>X1X&X.X.X.X].' X.=.~ w.x.mX",
"9XP.C C c x T.6X-XoX Xn.k.k.b.n.M.` d } Y :.j.kX",
":Xu.b R L Z R.oXn.b.k.h.h.k.b.(. X` & e q l i.qX",
">X0.b R K A J.|.h.k.b.n.m. X&X>X8X*.1 e - a q.).",
">Xw.B } f i H.|.b.W. X&X-X<X9XwX=X&.1 N r f t.).",
"1Xp.A c = + G.$XXX&X>X<X<X6XgXjX1X%.3 U r } a.:X",
"hXf.R , @ + P.qX<X<XgXgXgXkXxXGXxX' q U t &.c.CX",
"MXf.x # 3 @ ~.wXkXjXxXjXGXGXKXUXlX' N ~ G <.`.LX",
"vX#X] o 4 . 2XsXKXUXUXUXIXUXUXUXrX6.Y o.,.L.pXFX",
"PXhXl.) & $ 2.P.T.T.E.!.[.[.+X+X^.>.~ 3.C.oXCXZX",
"UXUX,X4.O + $ X . * $ 1 1 - 9 F ;.2.7.V.W.nXUXGX",
"IXPXPX X5.D # @ 7 7 w j Y U Q ! #.9.F.).tXLXUXKX",
"KXUXUXZXXXl._ ^ 3 - ; 8 9 F H T 8.F._.<XSXUXUXIX",
"PXIXDXUXVX=Xk.a.:. .{ Z X.@.8.V.).@X9XZXUXPXUXUX",
"PXKXJXUXUXLXCXiXn.M.z.d.D.U. XXXqXgXLXUXUXUXUXUX",
"DXPXHXKXIXUXUXvXSXnX<X;X>XgXCXDXDXUXPXUXKXKXUXPX"
};
