/* XPM */
static const char *green_gear_24_xpm[] = {
"24 24 318 2 0 0",
"   c #C4E261",
"!  c #A4C956",
"#  c #AACD53",
"$  c #D9EF69",
"%  c #AED05A",
"&  c #D2EA76",
"'  c #9DC35C",
"(  c #4E8C1E",
")  c #8DB667",
"*  c #AED262",
"+  c #649F26",
",  c #C5E060",
"-  c #D0EA65",
".  c #C6E361",
"/  c #C5E368",
"0  c #C4E170",
"1  c #C0DF6F",
"2  c #B8DB67",
"3  c #B1D46B",
"4  c #ADCE75",
"5  c #BADB61",
"6  c #A7D242",
"7  c #5B9821",
"8  c #82B13F",
"9  c #C1DF5E",
":  c #DCF16E",
";  c #DFF379",
"<  c #DDF182",
"=  c #D6EC76",
">  c #CFE86D",
"?  c #D0E87C",
"@  c #D2E88B",
"A  c #A6D053",
"B  c #A9D345",
"C  c #8EBE38",
"D  c #52901C",
"E  c #20690A",
"F  c #CAE560",
"G  c #9EC54B",
"H  c #CCE762",
"I  c #E1F572",
"J  c #D9EF78",
"K  c #D3EA7D",
"L  c #CBE668",
"M  c #C5E262",
"N  c #C5E26F",
"O  c #D3E986",
"P  c #C3E169",
"Q  c #B3D84A",
"R  c #98C83D",
"S  c #90C138",
"T  c #1D6409",
"U  c #85B23D",
"V  c #CEE961",
"W  c #C5E25E",
"X  c #DCF170",
"Y  c #D0E975",
"Z  c #D9EE82",
"[  c #C1E060",
"]  c #ABD24C",
"^  c #B5D85D",
"_  c #D1E97F",
"`  c #BBDE6B",
"a  c #B6DB4D",
"b  c #B1D748",
"c  c #A8D243",
"d  c #93C638",
"e  c #639E23",
"f  c #497D19",
"g  c #57871D",
"h  c #B7DA56",
"i  c #D6ED6E",
"j  c #CCE674",
"k  c #D3EA7E",
"l  c #98C443",
"m  c #83B62E",
"n  c #7CB12C",
"o  c #73A928",
"p  c #83B43F",
"q  c #B7DA4F",
"r  c #AAD546",
"s  c #AED546",
"t  c #A8D142",
"u  c #92C437",
"v  c #9CCA39",
"w  c #94C334",
"x  c #8ABB2E",
"y  c #478B16",
"z  c #86B63E",
"{  c #C9E468",
"|  c #CBE674",
"}  c #D2E981",
"~  c #95C33E",
" ! c #8FBF33",
"!! c #8CBD32",
"#! c #84B62F",
"$! c #6EA327",
"%! c #52831C",
"&! c #87B436",
"'! c #A9D445",
"(! c #ABD344",
")! c #A5D040",
"*! c #91C336",
"+! c #99C837",
",! c #97C637",
"-! c #6EA726",
".! c #438516",
"/! c #94BF45",
"0! c #B0D45B",
"1! c #CFE878",
"2! c #CBE57F",
"3! c #A7CF51",
"4! c #90C033",
"5! c #96C535",
"6! c #8DBD32",
"7! c #395714",
"8! c #628927",
"9! c #A6D243",
":! c #A7D141",
";! c #A2CD3D",
"<! c #8FC234",
"=! c #85BA31",
">! c #246C0C",
"?! c #327711",
"@! c #4F8E1B",
"A! c #9BC548",
"B! c #C1E065",
"C! c #B6D869",
"D! c #CCE682",
"E! c #C5E36C",
"F! c #87BA32",
"G! c #8DBE32",
"H! c #92C134",
"I! c #3A5714",
"J! c #78AC2F",
"K! c #A2D040",
"L! c #A3CE3E",
"M! c #9ECB3B",
"N! c #8BC032",
"O! c #6FA927",
"P! c #307510",
"Q! c #3B7E14",
"R! c #4F8A1B",
"S! c #27450D",
"T! c #91B754",
"U! c #C4DF7E",
"V! c #C2E178",
"W! c #B5DB4E",
"X! c #7DB12C",
"Y! c #85B72F",
"Z! c #75A529",
"[! c #83B533",
"]! c #9ECC3D",
"^! c #9FCC3B",
"_! c #9AC838",
"`! c #86BB2F",
"a! c #53931C",
"b! c #438417",
"c! c #183B08",
"d! c #88B458",
"e! c #CDE58D",
"f! c #ACD54D",
"g! c #B0D749",
"h! c #78AF2C",
"i! c #7BAF2B",
"j! c #4F771C",
"k! c #9ECB3C",
"l! c #9BCA3A",
"m! c #93C434",
"n! c #80B62C",
"o! c #79AE27",
"p! c #518F1A",
"q! c #9CC370",
"r! c #AED35D",
"s! c #A9D244",
"t! c #A2D041",
"u! c #8DBF39",
"v! c #6EA627",
"w! c #50801C",
"x! c #91C137",
"y! c #96C738",
"z! c #93C334",
"{! c #81B82C",
"|! c #85B62B",
"}! c #7DB027",
"~! c #75AA23",
" # c #4E8E15",
"!# c #9DC175",
"## c #CBE394",
"$# c #91C438",
"%# c #A3CE3F",
"&# c #9CCC3D",
"'# c #AAD251",
"(# c #99C351",
")# c #7AAB3F",
"*# c #76AC2B",
"+# c #95C537",
",# c #92C435",
"-# c #97C636",
".# c #92C133",
"/# c #89BC2E",
"0# c #7DB429",
"1# c #7DB428",
"2# c #7AB125",
"3# c #6FA51F",
"4# c #3A830E",
"5# c #085601",
"6# c #D1E6A5",
"7# c #A9D066",
"8# c #8ABF33",
"9# c #9CCA3A",
":# c #A2CD45",
";# c #A5CF57",
"<# c #AFD36B",
"=# c #BAD881",
"># c #9AC843",
"?# c #91C334",
"@# c #90C233",
"A# c #93C233",
"B# c #8EBE31",
"C# c #89BB2E",
"D# c #76AF26",
"E# c #6AA523",
"F# c #377A12",
"G# c #29700C",
"H# c #438814",
"I# c #2A710D",
"J# c #2A6E0E",
"K# c #355D2B",
"L# c #1A5809",
"M# c #77AE2A",
"N# c #88BD33",
"O# c #A2CC4D",
"P# c #AFD365",
"Q# c #BBDA7D",
"R# c #BFDB84",
"S# c #91C032",
"T# c #8DBD30",
"U# c #89BA2E",
"V# c #83B72B",
"W# c #72AD24",
"X# c #6FAA24",
"Y# c #337811",
"Z# c #4E8D1B",
"[# c #3B6914",
"]# c #244C0C",
"^# c #437217",
"_# c #294C0E",
"`# c #89BA39",
"a# c #90BE4B",
"b# c #AFD16F",
"c# c #BCD987",
"d# c #B0D171",
"e# c #86B82C",
"f# c #83B62B",
"g# c #76AF25",
"h# c #70AA22",
"i# c #77AB23",
"j# c #519319",
"k# c #397D13",
"l# c #3F7615",
"m# c #5C9523",
"n# c #92BD47",
"o# c #A0C75F",
"p# c #9BC568",
"q# c #A8CD7D",
"r# c #8FBD51",
"s# c #73AC24",
"t# c #71AB23",
"u# c #6DA921",
"v# c #71AB21",
"w# c #72A721",
"x# c #6DA41E",
"y# c #63A01B",
"z# c #29530E",
"{# c #74A832",
"|# c #94BE52",
"}# c #4E8C2A",
"~# c #6BA041",
" $ c #A4C67D",
"!$ c #8DB948",
"#$ c #75AA22",
"$$ c #6AA622",
"%$ c #488C16",
"&$ c #327810",
"'$ c #599419",
"($ c #649C19",
")$ c #629E17",
"*$ c #31780E",
"+$ c #3B7A14",
",$ c #4A7C25",
"-$ c #498724",
".$ c #408215",
"/$ c #56921D",
"0$ c #72A43F",
"1$ c #7CAC36",
"2$ c #73A921",
"3$ c #357A11",
"4$ c #478818",
"5$ c #528A1C",
"6$ c #1C3B08",
"7$ c #4C8610",
"8$ c #397F0C",
"9$ c #347911",
":$ c #498819",
";$ c #334C28",
"<$ c #6DA129",
"=$ c #609D19",
">$ c #4B8B19",
"?$ c #3F6816",
"@$ c #072E01",
"A$ c #1D4B09",
"B$ c #3A6714",
"C$ c #2C650A",
"D$ c #21620B",
"E$ c #428116",
"F$ c #23420C",
"G$ c None",
"G$G$G$G$G$G$G$G$G$G$G$G$G$G$G$G$G$G$G$G$G$G$G$G$",
"G$G$G$G$G$G$G$G$G$G$G$G$  ! G$G$G$G$G$G$G$G$G$G$",
"G$G$G$G$G$G$G$# $ G$G$% & ' ( G$) * + G$G$G$G$G$",
"G$G$G$G$G$G$G$, - . / 0 1 2 3 4 5 6 7 G$G$G$G$G$",
"G$G$G$G$G$G$8 9 : ; < = > ? @ A B C D E G$G$G$G$",
"G$G$G$G$F G H I J K L M N O P Q R S D T G$G$G$G$",
"G$G$G$U V W X Y Z [ ] ^ _ ` a b c d e f g G$G$G$",
"G$G$G$G$h i j k l m n o p q r s t u v w x y G$G$",
"G$G$G$z { | } ~  !!!#!$!%!&!'!(!)!*!+!,!-!.!G$G$",
"G$G$/!0!1!2!3!4!5!6!7!G$G$8!9!:!;!<!=!>!?!@!G$G$",
"G$A!B!C!D!E!F!G!H!I!G$G$G$J!K!L!M!N!O!P!Q!R!S!G$",
"G$G$T!U!V!W!X!Y!Z!G$G$G$G$[!]!^!_!`!a!b!c!G$G$G$",
"G$G$d!e!f!g!h!i!j!G$G$G$G$k!l!_!m!n!o!p!G$G$G$G$",
"G$G$q!r!s!t!u!v!w!G$G$G$x!y!+!z!{!|!}!~! #G$G$G$",
"G$!###$#%#&#'#(#)#G$*#+#,#-#.#/#0#1#2#3#4#5#G$G$",
"G$6#7#8#9#:#;#<#=#>#?#@#A#B#C#D#E#F#G#H#I#J#G$G$",
"G$K#L#M#N#O#P#Q#R#A#S#T#U#V#W#X#Y#Z#[#]#^#_#G$G$",
"G$G$G$G$`#a#b#c#d#U#e#f#g#h#i#j#k#l#G$G$G$G$G$G$",
"G$G$G$m#n#o#p#q#r#s#t#u#v#w#x#y#Q!z#G$G$G$G$G$G$",
"G$G$G${#|#}#~# $!$#$$$%$&$'$($)$*$+$G$G$G$G$G$G$",
"G$G$G$,$-$.$/$0$1$2$3$4$5$6$7$8$9$:$G$G$G$G$G$G$",
"G$G$G$G$G$G$G$;$<$=$>!>$?$G$G$@$A$G$G$G$G$G$G$G$",
"G$G$G$G$G$G$G$G$B$C$D$E$F$G$G$G$G$G$G$G$G$G$G$G$",
"G$G$G$G$G$G$G$G$G$G$G$G$G$G$G$G$G$G$G$G$G$G$G$G$"
};
