/* XPM */
static const char *home_24_xpm[] = {
/* width height num_colors chars_per_pixel */
"    24    24        8            1",
/* colors */
"` c #4e4d4e",
". c #a2acb7",
"# c #5990b9",
"a c #dadbdb",
"b c #747a7e",
"c c #c1c5c7",
"d c None",
"e c #7d8e98",
/* pixels */
"dddddddddddddddddddddddd",
"ddddddddddc`b.dddddddddd",
"ddddddddde`bb`bddeecdddd",
"dddddddab`.dd.``c``bdddd",
"dddddda``cdaadab```bdddd",
"ddddd.`bad.##eddb``bdddd",
"ddddb`eddb#####adc``cddd",
"dda``cdc########cdab`edd",
"dc``ade##########edde``d",
"a`bddb#############adabd",
"dadc################cddd",
"ddc##################cdd",
"dd.##################.dd",
"dd.##################.dd",
"dd.##################.dd",
"dd.######ddddd.######.dd",
"dd.######ddddd.######.dd",
"dd.######ddddd.######.dd",
"dd.######ddddd.######.dd",
"dd.######ddddd.######.dd",
"dd.######ddddd.######.dd",
"dda######ddddd.######cdd",
"ddde####bdddddc#####eddd",
"dddddddddddddddddddddddd"
};
