/* XPM */
static const char *icicle_icon_16_xpm[] = {
"16 16 112 2 0 0",
"   c #606060",
"!  c #525252",
"#  c #545454",
"$  c #595959",
"%  c #5C5C5C",
"&  c #616161",
"'  c #666666",
"(  c #6B6B6B",
")  c #6F6F6F",
"*  c #737373",
"+  c #777777",
",  c #4E4E4E",
"-  c #ECECEC",
".  c #F3F3F3",
"/  c #F4F4F4",
"0  c #F5F5F5",
"1  c #F6F6F6",
"2  c #F7F7F7",
"3  c #F8F8F8",
"4  c #555555",
"5  c #3A4244",
"6  c #B1D0D8",
"7  c #D5F1F7",
"8  c #D5E7EB",
"9  c #E4F8FD",
":  c #D5F4FC",
";  c #C9F1FB",
"<  c #E1F7FD",
"=  c #D2F3FC",
">  c #B0EBF9",
"?  c #A4E8F8",
"@  c #A3E7F8",
"A  c #A3E8F8",
"B  c #77A8B4",
"C  c #749EA9",
"D  c #99CFDC",
"E  c #62838C",
"F  c #B0EAF9",
"G  c #ADEAF9",
"H  c #A7E3F2",
"I  c #ACE5F3",
"J  c #ABE9F9",
"K  c #ABE9F8",
"L  c #90C6D3",
"M  c #AAE8F7",
"N  c #658B95",
"O  c #81A0A8",
"P  c #BAE6F1",
"Q  c #BBE7F2",
"R  c #C1EFFA",
"S  c #5B7177",
"T  c #87A6AE",
"U  c #B7E3ED",
"V  c #9ABEC7",
"W  c #39494D",
"X  c #68787D",
"Y  c #B7D4DB",
"Z  c #B0CBD2",
"[  c #D3F4FC",
"]  c #272D2F",
"^  c #788A8F",
"_  c #B4D0D6",
"`  c #8BA1A6",
"a  c #CEEEF6",
"b  c #111314",
"c  c #4A4F51",
"d  c #B2BDC0",
"e  c #A1ACAF",
"f  c #D2DFE3",
"g  c #020202",
"h  c #939D9F",
"i  c #EAF9FD",
"j  c #ABB6B8",
"k  c #81898B",
"l  c #B4BFC3",
"m  c #2B2C2C",
"n  c #9FA2A2",
"o  c #999C9C",
"p  c #B4B7B8",
"q  c #040404",
"r  c #838585",
"s  c #D2D5D6",
"t  c #F9FDFE",
"u  c #979999",
"v  c #767777",
"w  c #919394",
"x  c #090909",
"y  c #727272",
"z  c #838383",
"{  c #393939",
"|  c #484848",
"}  c #EAEAEA",
"~  c #7C7C7C",
" ! c #686868",
"!! c #070707",
"#! c #5F5F5F",
"$! c #0B0B0B",
"%! c #D3D3D3",
"&! c #4D4D4D",
"'! c #3B3B3B",
"(! c #BDBDBD",
")! c #383838",
"*! c #2E2E2E",
"+! c #242424",
",! c #A9A9A9",
"-! c #121212",
".! c #808080",
"/! c #030303",
"0! c #060606",
"1! c #0E0E0E",
"2! c #080808",
"3! c None",
"3!  ! # $ % & ' ( ) ) ( ) * + , ",
"' - . / 0 0 1 2 2 3 3 2 2 3 - 4 ",
"5 6 7 8 9 : ; < = > ? @ @ A B 3!",
"3!C D E F G H I G J K L M J N 3!",
"3!O P 3!Q R S T R R U 3!V R W 3!",
"3!X Y 3!Z [ ] ^ [ [ _ 3!` a b 3!",
"3!c d 3!e f g h i i j 3!k l 3!3!",
"3!m n 3!o p q r s t u 3!v w 3!3!",
"3!x y 3!z z 3!{ | } ~ 3!)  !3!3!",
"3!!!3!3!( #!3!$!, %!y 3!3!&!3!3!",
"3!3!3!3!3!'!3!3!3!(!)!3!3!*!3!3!",
"3!3!3!3!3!+!3!3!3!,!-!3!3!*!3!3!",
"3!3!3!3!3!3!3!3!3!.!/!3!3!3!3!3!",
"3!3!3!3!3!3!3!3!3!% 0!3!3!3!3!3!",
"3!3!3!3!3!3!3!3!3!1!3!3!3!3!3!3!",
"3!3!3!3!3!3!3!3!3!2!3!3!3!3!3!3!"
};
