/* XPM */
static const char * layers_xpm[] = {
"24 24 12 1",
" 	c None",
".	c #5A8BF5",
"+	c #0D4CD4",
"@	c #0E4DD4",
"#	c #1F5BDC",
"$	c #1F5ADC",
"%	c #235EDD",
"&	c #1E5ADB",
"*	c #205CDC",
"=	c #1451D7",
"-	c #1956D9",
";	c #4E81F0",
"                        ",
"         ..             ",
"         ..             ",
"        ....            ",
"        .. .            ",
"       ..  ..           ",
"       ..  ..           ",
"       .    .           ",
"      ..  +@#$+++       ",
"      ....%+&*=++++     ",
"      ..  -+;..   ++    ",
"     ..   ++ ..   ++    ",
"     ..   ++  ..  ++    ",
"    ..    ++  .. ++     ",
"    ..    ++++++++      ",
"          +++   ++++    ",
"          ++      ++    ",
"          ++       +    ",
"          ++      ++    ",
"          ++      ++    ",
"          +++++++++     ",
"          ++++++++      ",
"                        ",
"                        "};
