/* XPM */
static const char * layers_xpm[] = {
"24 24 11 1",
" 	c None",
".	c #B0C6FF",
"+	c #5382FF",
"@	c #6791FF",
"#	c #6690FF",
"$	c #5080FF",
"%	c #6B94FF",
"&	c #5886FF",
"*	c #5F8BFF",
"=	c #A7BFFF",
"-	c #A5BEFF",
"                        ",
"       ..               ",
"       ..               ",
"      ....              ",
"      .. .              ",
"     ..  ..             ",
"     ..  ..             ",
"     .    .             ",
"    ..   +@#$$$$        ",
"    .....%$#&$$$$$      ",
"    ..   *$=.    $$     ",
"   ..    $$-.    $$     ",
"   ..    $$ ..   $$     ",
"  ..     $$ ..  $$      ",
"  ..     $$$$$$$$       ",
"         $$$   $$$$     ",
"         $$      $$     ",
"         $$       $     ",
"         $$      $$     ",
"         $$      $$     ",
"         $$$$$$$$$      ",
"         $$$$$$$$       ",
"                        ",
"                        "};
