/* XPM */
static const char *life[] = {
/* width height num_colors chars_per_pixel */
"16 16 2 1", 
/* colors */
"  c #5C0EB0",
". c #FAFDB9",
/* pixels */
".......... .....",
".. .......  ....",
"..  ... ..... ..",
".. ...   ....  .",
"   .... ..... ..",
".......... .....",
"..   ..... ...  ",
"....... .. .....",
". ..........   .",
". ... .... .....",
". .... .. ......",
"... .. . .......",
"... .. . .. ....",
"........ .. ....",
"..  .......   ..",
"... .......... ."
};
