/* XPM */
static const char *life_16[] = {
/* width height num_colors chars_per_pixel */
"16 16 211 2", 
/* colors */
"   c #9C8200",
".  c #202400",
"X  c #484400",
"o  c #383F00",
"O  c #3C4400",
"+  c #203100",
"@  c #4D5500",
"#  c #615400",
"$  c #283A00",
"%  c #524800",
"&  c #6C7300",
"*  c #5C6E00",
"=  c #809000",
"-  c #543C00",
";  c #463600",
":  c #3C2E00",
">  c #1C1700",
",  c #101000",
"<  c #282B00",
"1  c #313A00",
"2  c #5B4800",
"3  c #5E5E00",
"4  c #524600",
"5  c #646800",
"6  c #555C00",
"7  c #917B00",
"8  c #171C00",
"9  c #747A00",
"0  c #4F5F00",
"q  c #483300",
"w  c #545F00",
"e  c #5F4800",
"r  c #8B8B00",
"t  c #738E00",
"y  c #6C5500",
"u  c #202000",
"i  c #524800",
"p  c #615400",
"a  c #5F5500",
"s  c #514F00",
"d  c #678300",
"f  c #313800",
"g  c #5B4600",
"h  c #555A00",
"j  c #283600",
"k  c #676B00",
"l  c #4C5800",
"z  c #101700",
"x  c #837300",
"c  c #576600",
"v  c #485A00",
"b  c #716F00",
"n  c #311C00",
"m  c #2E4D00",
"M  c #3A2B00",
"N  c #6F5800",
"B  c #685500",
"V  c #361C00",
"C  c #684400",
"Z  c #171C00",
"A  c #313600",
"S  c #615F00",
"D  c #365F00",
"F  c #464C00",
"G  c #2B1000",
"H  c #001000",
"J  c #545B00",
"K  c #876400",
"L  c #5F7A00",
"P  c #645500",
"I  c #3A3600",
"U  c #101700",
"Y  c #4D4D00",
"T  c #9B5800",
"R  c #5B4F00",
"E  c #525E00",
"W  c #283F00",
"Q  c #677400",
"!  c #5B6D00",
"~  c #385100",
"^  c #4D3100",
"/  c #5E6100",
"(  c #4D6700",
")  c #513C00",
"_  c #3C3300",
"`  c #3F3800",
"'  c #416D00",
"]  c #796900",
"[  c #5F7400",
"{  c #2E1C00",
"}  c #6D6200",
"|  c #001000",
" . c #364300",
".. c #4F5700",
"X. c #556100",
"o. c #794D00",
"O. c #515200",
"+. c #4F6400",
"@. c #103C00",
"#. c #6B5400",
"$. c #544C00",
"%. c #282E00",
"&. c #3A3F00",
"*. c #5E6100",
"=. c #366600",
"-. c #5B6900",
";. c #7E8500",
":. c #545500",
">. c #526700",
",. c #554300",
"<. c #443800",
"1. c #312E00",
"2. c #100000",
"3. c #685A00",
"4. c #2B3100",
"5. c #333A00",
"6. c #362E00",
"7. c #544600",
"8. c #5F5400",
"9. c #697400",
"0. c #515F00",
"q. c #333600",
"w. c #5A3800",
"e. c #3C2000",
"r. c #284600",
"t. c #525400",
"y. c #513600",
"u. c #745F00",
"i. c #746C00",
"p. c #101C00",
"a. c #575A00",
"s. c #666600",
"d. c #001700",
"f. c #5F8800",
"g. c #5B5400",
"h. c #748000",
"j. c #647400",
"k. c #100000",
"l. c #6F4C00",
"z. c #432E00",
"x. c #5C7800",
"c. c #364600",
"v. c #171000",
"b. c #6C5400",
"n. c #2B2000",
"m. c #003100",
"M. c #483F00",
"N. c #523600",
"B. c #3C3800",
"V. c #282800",
"C. c #737100",
"Z. c #696900",
"A. c #747700",
"S. c #462400",
"D. c #6B7500",
"F. c #788200",
"G. c #627300",
"H. c #201000",
"J. c #725C00",
"K. c #5E4C00",
"L. c #8B5F00",
"P. c #3C3600",
"I. c #546900",
"U. c #5F4100",
"Y. c #443F00",
"T. c #6F6400",
"R. c #5B5400",
"E. c #3C4300",
"W. c #5B6100",
"Q. c #7C7E00",
"!. c #757B00",
"~. c #768100",
"^. c #5F5B00",
"/. c #4F3100",
"(. c #664600",
"). c #2B1C00",
"_. c #465400",
"`. c #7D6800",
"'. c #413800",
"]. c #4D7500",
"[. c #665A00",
"{. c #000000",
"}. c #747300",
"|. c #243300",
" X c #515700",
".X c #727400",
"XX c #514600",
"oX c #6B7100",
"OX c #7C6B00",
"+X c #665C00",
"@X c #543300",
"#X c #573800",
"$X c #432800",
"%X c #624600",
"&X c #315A00",
"*X c #171700",
"=X c #242400",
"-X c #809000",
";X c #484600",
":X c #172400",
">X c #1C2800",
",X c #4A5200",
"<X c #525B00",
"1X c #827300",
"2X c #4C2800",
"3X c #587200",
"4X c #737400",
"5X c #547400",
"6X c #201700",
"7X c #000000",
"8X c #806900",
/* pixels */
"9.w z {.{.8 / 6.{.H q.1Xb { J [.",
":.a.A ,X^ ` <X.  .5X8X= A.M u.+X",
"4 F.0 x.Q j.< 7X) `.} K $.+ ] -X",
"D }.oX& T.-.u 7X> i.~./.k.Z C.w ",
"U.s.h 1 z.6Xo 0 n 5.W.u k.w.#.# ",
"N.1.> 7XP.c !.;.J.W 7X, v.P Q.^.",
"2.7Xd.|.B.>.t S <.p.F *.V.)..Xf.",
"O., l 3X; v.j U v.7Xa b.k e   r ",
"x K.- o.s I . j N e.,.;X0.&.&Xc.",
"4XX. XS.%.n.Y.X 5 '.3.y E :Xr.d ",
"[ ' D.q 7X@Xy.V.! v +.=X@ :X2XL.",
"7 ].E.u d.|.> G l.( ~ : #X> v.V ",
"=.6 v.7X$ L _ H.$Xv.7XR.9 B + 2 ",
"V 4.f m.U m >X7X7X7XZ Z.G.(.M.OX",
"g 3 Y @.| 7X7X*X> i * p %XT ..I.",
"O % g.2.{.{.{.7._.XXR 8.C t.4 h."
};
