/* XPM */
static const char *link_48_xpm[] = {
"48 48 635 2 0 0",
"   c #FDC2C2",
"!  c #FD8A89",
"#  c #FC6E6E",
"$  c #FB5656",
"%  c #FB4F4F",
"&  c #FC5353",
"'  c #FC6666",
"(  c #FC7F7F",
")  c #FCABAB",
"*  c #FED9D9",
"+  c #FB6564",
",  c #FC2424",
"-  c #F81111",
".  c #F20806",
"/  c #EF0707",
"0  c #EF0B0A",
"1  c #F00D0D",
"2  c #F30F0F",
"3  c #F81515",
"4  c #FB1A1A",
"5  c #FA4343",
"6  c #FCA1A1",
"7  c #FC9292",
"8  c #FA1E1E",
"9  c #F90D0E",
":  c #EF1011",
";  c #EE2524",
"<  c #F24443",
"=  c #F94A4A",
">  c #EC2B2C",
"?  c #D5090A",
"@  c #D50605",
"A  c #DB0707",
"B  c #E30C0C",
"C  c #F21111",
"D  c #F60707",
"E  c #F94748",
"F  c #FC9D9D",
"G  c #F90B0B",
"H  c #F70F10",
"I  c #ED0D0D",
"J  c #F54E4E",
"K  c #FB7978",
"L  c #FB7C7B",
"M  c #F86868",
"N  c #EC5454",
"O  c #D93939",
"P  c #CE2324",
"Q  c #D21C1D",
"R  c #DD2A2A",
"S  c #E31313",
"T  c #ED0C0C",
"U  c #F50C0C",
"V  c #F84242",
"W  c #F91F1F",
"X  c #F81314",
"Y  c #F64847",
"Z  c #FA6E6E",
"[  c #EC5453",
"]  c #EB5656",
"^  c #E56262",
"_  c #DE5B5B",
"`  c #CF5150",
"a  c #CF5152",
"b  c #EA6F70",
"c  c #FABFBF",
"d  c #F7B4B4",
"e  c #EA393A",
"f  c #EC0B0B",
"g  c #F50D0D",
"h  c #F95B5C",
"i  c #FCA6A5",
"j  c #F81A1A",
"k  c #F81313",
"l  c #EB0D0D",
"m  c #F64B4A",
"n  c #F45D5E",
"o  c #C10908",
"p  c #D03F3F",
"q  c #C56667",
"r  c #B98788",
"s  c #B38C8B",
"t  c #A67676",
"u  c #A45D5D",
"v  c #B14747",
"w  c #D95252",
"x  c #FCE3E3",
"y  c #FDDEDE",
"z  c #EC3B3B",
"{  c #F00B0C",
"|  c #F40B0B",
"}  c #FC8584",
"~  c #FDC3C3",
" ! c #F92424",
"!! c #F71010",
"#! c #EC0909",
"$! c #F44545",
"%! c #F15C5C",
"&! c #CB1313",
"'! c #D14949",
"(! c #D6A8A8",
")! c #CFAFAF",
"*! c #C56868",
"+! c #E45D5D",
",! c #F9D1D1",
"-! c #F69393",
".! c #EA0505",
"/! c #F00A0B",
"0! c #F72F30",
"1! c #FDCCCC",
"2! c #F93939",
"3! c #F23738",
"4! c #F66B6B",
"5! c #CD1A1A",
"6! c #D23232",
"7! c #E7C4C4",
"8! c #EDE1E1",
"9! c #C03E3E",
":! c #DD4A4A",
";! c #FB9797",
"<! c #EB0808",
"=! c #EE0C0C",
">! c #F11010",
"?! c #FEC0BF",
"@! c #FDC4C4",
"A! c #F83434",
"B! c #F80F0F",
"C! c #EB1010",
"D! c #F13C3C",
"E! c #F76D6C",
"F! c #C91516",
"G! c #D03D3D",
"H! c #E5B6B5",
"I! c #DAA5A5",
"J! c #D11111",
"K! c #E00F10",
"L! c #EE1714",
"M! c #EF1111",
"N! c #E90304",
"O! c #FB7C7C",
"P! c #FFDEDE",
"Q! c #F83838",
"R! c #F60C0D",
"S! c #ED0D0E",
"T! c #F03636",
"U! c #F66767",
"V! c #CF2726",
"W! c #D03434",
"X! c #E5A5A5",
"Y! c #E04242",
"Z! c #DD0404",
"[! c #F11716",
"]! c #F01212",
"^! c #E50303",
"_! c #F95E5D",
"`! c #FFE2E2",
"a! c #F95151",
"b! c #F60A0B",
"c! c #EE0E0F",
"d! c #EE2424",
"e! c #F86F6F",
"f! c #D32E2E",
"g! c #CE2020",
"h! c #E29A9A",
"i! c #F05C5C",
"j! c #EA0B0A",
"k! c #F51A1A",
"l! c #EC0E0F",
"m! c #E00202",
"n! c #F75252",
"o! c #F84E4E",
"p! c #F50607",
"q! c #EE1313",
"r! c #ED2C2C",
"s! c #F97373",
"t! c #D22727",
"u! c #CB2526",
"v! c #E29292",
"w! c #FBC5C5",
"x! c #F52E2E",
"y! c #F31413",
"z! c #F31616",
"{! c #E90E0E",
"|! c #E00605",
"}! c #F35858",
"~! c #FB8686",
" # c #F20C0C",
"!# c #F11211",
"## c #EA1B1C",
"$# c #F76161",
"%# c #DA3939",
"&# c #C91F20",
"'# c #E38788",
"(# c #F54D4E",
")# c #F30D0D",
"*# c #F61818",
"+# c #EC1010",
",# c #F22424",
"-# c #DC0A0A",
".# c #F18483",
"/# c #F01515",
"0# c #EF0D0C",
"1# c #E90C0A",
"2# c #F63838",
"3# c #DD3131",
"4# c #C91111",
"5# c #E37E7F",
"6# c #FA7B7B",
"7# c #F20808",
"8# c #F51817",
"9# c #EB0A0A",
":# c #F63232",
";# c #EA2929",
"<# c #CD0303",
"=# c #F3BDBE",
"># c #FA8281",
"?# c #E60404",
"@# c #EF1212",
"A# c #EB1211",
"B# c #DE1213",
"C# c #CF0C0B",
"D# c #E97070",
"E# c #FA8A8A",
"F# c #F11111",
"G# c #F51818",
"H# c #ED0E0E",
"I# c #F22D2D",
"J# c #F03C3C",
"K# c #CA0A0A",
"L# c #DB504F",
"M# c #F03D3D",
"N# c #EC1515",
"O# c #EF1413",
"P# c #E70E0D",
"Q# c #D60607",
"R# c #DF3131",
"S# c #F4C9C9",
"T# c #FBAAAA",
"U# c #F32020",
"V# c #F41414",
"W# c #EF100F",
"X# c #EF2424",
"Y# c #F94A4B",
"Z# c #CC0F0F",
"[# c #D33939",
"]# c #F7CBCB",
"^# c #EC3233",
"_# c #F54E4D",
"`# c #ED110F",
"a# c #E20806",
"b# c #E91F1F",
"c# c #BE3E3E",
"d# c #726463",
"e# c #927071",
"f# c #9D7776",
"g# c #AE8282",
"h# c #B18384",
"i# c #AC8A8A",
"j# c #B7AFAF",
"k# c #FDE3E3",
"l# c #F51F1F",
"m# c #F2100F",
"n# c #F11413",
"o# c #EB1817",
"p# c #FC5151",
"q# c #D92021",
"r# c #C81F1F",
"s# c #F2AEAD",
"t# c #E73535",
"u# c #FA9899",
"v# c #EB1110",
"w# c #E30404",
"x# c #F63636",
"y# c #A62D2D",
"z# c #553839",
"{# c #8E5051",
"|# c #A46162",
"}# c #B47776",
"~# c #CCB5B5",
" $ c #C0AFAF",
"!$ c #977B7A",
"#$ c #9A8F8F",
"$$ c #FBD6D6",
"%$ c #EE0D0C",
"&$ c #F01513",
"'$ c #E80F0F",
"($ c #FB5959",
")$ c #DF2C2C",
"*$ c #C61011",
"+$ c #F5A6A6",
",$ c #E12F2F",
"-$ c #FCD0D1",
".$ c #EC2E2E",
"/$ c #E90C0D",
"0$ c #EE1F1F",
"1$ c #B22726",
"2$ c #3D2C2C",
"3$ c #7C4646",
"4$ c #905050",
"5$ c #A56061",
"6$ c #CEC1C1",
"7$ c #BEC6C5",
"8$ c #808282",
"9$ c #918281",
":$ c #B8AEAD",
";$ c #FCE6E6",
"<$ c #F35656",
"=$ c #EC0C0C",
">$ c #EF1718",
"?$ c #E81111",
"@$ c #F64E4E",
"A$ c #E94141",
"B$ c #C81616",
"C$ c #E87778",
"D$ c #D92E2E",
"E$ c #FEF3F3",
"F$ c #F16868",
"G$ c #E90A0B",
"H$ c #EA1111",
"I$ c #E12526",
"J$ c #441C1C",
"K$ c #3A2E2F",
"L$ c #684040",
"M$ c #925150",
"N$ c #CBB2B2",
"O$ c #B6BBBB",
"P$ c #7C7C7C",
"Q$ c #949494",
"R$ c #BCA09F",
"S$ c #EF7C7B",
"T$ c #E40E0E",
"U$ c #ED1918",
"V$ c #E60A0A",
"W$ c #F13E3E",
"X$ c #FB6060",
"Y$ c #C81313",
"Z$ c #E26162",
"[$ c #FBDEDE",
"]$ c #CF3535",
"^$ c #F6BCBB",
"_$ c #FBC9C9",
"`$ c #E62A2A",
"a$ c #EA1311",
"b$ c #EE1314",
"c$ c #C41516",
"d$ c #231717",
"e$ c #243232",
"f$ c #734D4E",
"g$ c #D7BFBF",
"h$ c #9EA3A3",
"i$ c #848383",
"j$ c #949797",
"k$ c #C4B4B4",
"l$ c #B85D5D",
"m$ c #D20B0A",
"n$ c #E11617",
"o$ c #E2090A",
"p$ c #F03939",
"q$ c #F96766",
"r$ c #CF1919",
"s$ c #E25F5F",
"t$ c #FBD8D7",
"u$ c #737B7C",
"v$ c #A94949",
"w$ c #F98989",
"x$ c #FFF7F7",
"y$ c #F59291",
"z$ c #DE0404",
"{$ c #E61314",
"|$ c #E91313",
"}$ c #AB1616",
"~$ c #5F3130",
" % c #916F70",
"!% c #CDCAC9",
"#% c #8A8C8C",
"$% c #868686",
"%% c #919494",
"&% c #C0BFC0",
"'% c #993434",
"(% c #CF0D0E",
")% c #DA0B0C",
"*% c #E72324",
"+% c #FB7172",
",% c #DD2F2F",
"-% c #D83636",
".% c #F8C5C4",
"/% c #898A8A",
"0% c #424A4A",
"1% c #6D4C4B",
"2% c #FB7A7A",
"3% c #FFD8D8",
"4% c #FFF3F3",
"5% c #E94747",
"6% c #D40708",
"7% c #DE1516",
"8% c #D61112",
"9% c #A81B1B",
":% c #C8ABAB",
";% c #9CA3A3",
"<% c #878787",
"=% c #818181",
">% c #818484",
"?% c #B0B4B3",
"@% c #973433",
"A% c #C40707",
"B% c #E32D2D",
"C% c #FB7979",
"D% c #E53C3B",
"E% c #D63030",
"F% c #F09C9C",
"G% c #979797",
"H% c #535454",
"I% c #5B5858",
"J% c #423F3F",
"K% c #6D2627",
"L% c #EB7474",
"M% c #FDCCCD",
"N% c #FDD6D6",
"O% c #DE3E3E",
"P% c #BD0506",
"Q% c #B50D0D",
"R% c #C48282",
"S% c #B2B9B9",
"T% c #7E7D7D",
"U% c #707070",
"V% c #727776",
"W% c #999393",
"X% c #A22D2E",
"Y% c #EB5757",
"Z% c #FD8383",
"[% c #F15E5D",
"]% c #DF4748",
"^% c #F09898",
"_% c #A3A3A3",
"`% c #626262",
"a% c #616161",
"b% c #888484",
"c% c #443B3A",
"d% c #4F4F4F",
"e% c #9E4949",
"f% c #D15A5B",
"g% c #FBB4B4",
"h% c #F79B9B",
"i% c #BA1C1D",
"j% c #B46061",
"k% c #BABCBC",
"l% c #858989",
"m% c #828181",
"n% c #888888",
"o% c #7F7F7F",
"p% c #676C6C",
"q% c #A38B8B",
"r% c #E26767",
"s% c #F67C7C",
"t% c #F56D6D",
"u% c #F06968",
"v% c #EA8C8C",
"w% c #AAAAAA",
"x% c #686868",
"y% c #555555",
"z% c #9A9B9B",
"{% c #757272",
"|% c #6A6767",
"}% c #777A7B",
"~% c #DED5D5",
" & c #B86F6F",
"!& c #B43C3B",
"#& c #D36464",
"$& c #D67978",
"%& c #C2C2C3",
"&& c #898F8F",
"'& c #807F80",
"(& c #7E7E7E",
")& c #AFAFAF",
"*& c #6A6A6A",
"+& c #83898A",
",& c #BF8585",
"-& c #E87171",
".& c #ED7776",
"/& c #EB7877",
"0& c #DB7979",
"1& c #B3B3B3",
"2& c #9E9E9E",
"3& c #808080",
"4& c #717272",
"5& c #777878",
"6& c #EFEFEF",
"7& c #C5A2A1",
"8& c #905252",
"9& c #CCCBCA",
":& c #858A8A",
";& c #7B7A7A",
"<& c #797979",
"=& c #B8B8B8",
">& c #848484",
"?& c #797D7D",
"@& c #B5A8A8",
"A& c #CE7675",
"B& c #D97879",
"C& c #D17777",
"D& c #D19494",
"E& c #B9B9B9",
"F& c #727272",
"G& c #5F5F5F",
"H& c #929292",
"I& c #8C8C8C",
"J& c #757575",
"K& c #D3D4D3",
"L& c #CECECE",
"M& c #959898",
"N& c #797978",
"O& c #7A7A7A",
"P& c #999999",
"Q& c #787979",
"R& c #9EA2A3",
"S& c #9E6D6D",
"T& c #BB7878",
"U& c #C99595",
"V& c #E2CBCC",
"W& c #C3C3C3",
"X& c #767676",
"Y& c #5A5A5A",
"Z& c #909090",
"[& c #969696",
"]& c #C2C2C2",
"^& c #D2D3D3",
"_& c #A0A2A2",
"`& c #A4A4A4",
"a& c #B1B1B1",
"b& c #6E6E6E",
"c& c #A4A6A6",
"d& c #C3C0C0",
"e& c #CBCBCB",
"f& c #5E5E5E",
"g& c #8B8B8B",
"h& c #9F9F9F",
"i& c #7B7B7B",
"j& c #C0C0C0",
"k& c #D6D6D6",
"l& c #737373",
"m& c #A8A8A8",
"n& c #D4D4D4",
"o& c #838383",
"p& c #A1A1A1",
"q& c #DEDEDE",
"r& c #C1C1C1",
"s& c #8E8E8E",
"t& c #989898",
"u& c #BEBEBE",
"v& c #E4E4E4",
"w& c #7C7B7C",
"x& c #A5A5A5",
"y& c #E5E5E5",
"z& c #C6C6C6",
"{& c #A9A9A9",
"|& c #F3F3F3",
"}& c #F5F5F5",
"~& c #7D7D7D",
" ' c #7A7B7A",
"!' c #8F8F8F",
"#' c #ECECEC",
"$' c #A6A6A6",
"%' c #9C9C9C",
"&' c #E8E8E8",
"'' c #DADADA",
"(' c #7A7B7B",
")' c #696A6A",
"*' c #4F4B4B",
"+' c #646464",
",' c #EDEDED",
"-' c #EEEEEE",
".' c #C7C7C7",
"/' c #B5B5B5",
"0' c #A2A2A2",
"1' c #D9D9D9",
"2' c #EAEAEA",
"3' c #CDCDCD",
"4' c #8B8C8C",
"5' c #717171",
"6' c #746363",
"7' c #7F7878",
"8' c #858686",
"9' c #D7D7D7",
":' c #F4F4F4",
";' c #CACACA",
"<' c #6F6F6F",
"=' c #6C6C6C",
">' c #BBBBBB",
"?' c #959595",
"@' c #D5D5D5",
"A' c #999A9A",
"B' c #686464",
"C' c #7F7373",
"D' c #9A9E9E",
"E' c #C3C2C2",
"F' c #BABABA",
"G' c #A0A0A0",
"H' c #6E6D6C",
"I' c #E3E3E3",
"J' c #B4B4B4",
"K' c #BCBCBC",
"L' c #ACACAC",
"M' c #CCCCCC",
"N' c #8A8889",
"O' c #9A999A",
"P' c #E0E0E0",
"Q' c #D3D3D3",
"R' c #9A9A9A",
"S' c #636363",
"T' c #AEAEAE",
"U' c #B6B6B6",
"V' c #BDBDBD",
"W' c #DBDBDB",
"X' c #DADBDA",
"Y' c #545454",
"Z' c #919191",
"[' c #B7B7B7",
"]' c #B0B0B0",
"^' c #ADADAD",
"_' c #8A8A8A",
"`' c #CFCFCF",
"a' c #F1F1F1",
"b' c #BFBFBF",
"c' c #8D8D8D",
"d' c #F9F9F9",
"e' c #828282",
"f' c #E6E6E6",
"g' c #D1D1D1",
"h' c #A7A7A7",
"i' c #767576",
"j' c #515151",
"k' c #666666",
"l' c #9B9B9B",
"m' c #939393",
"n' c None",
"n'n'n'n'n'n'n'n'n'n'n'n'n'n'n'n'n'n'n'n'n'n'n'n'n'n'n'n'n'n'n'n'n'n'n'n'n'n'n'n'n'n'n'n'n'n'n'n'",
"n'n'n'n'n'n'n'n'n'n'n'n'n'n'n'n'n'n'n'n'n'n'n'n'n'n'n'n'n'  ! # $ % & ' ( ) n'n'n'n'n'n'n'n'n'n'",
"n'n'n'n'n'n'n'n'n'n'n'n'n'n'n'n'n'n'n'n'n'n'n'n'n'n'n'* + , - . / 0 1 2 3 4 5 6 n'n'n'n'n'n'n'n'",
"n'n'n'n'n'n'n'n'n'n'n'n'n'n'n'n'n'n'n'n'n'n'n'n'n'n'7 8 9 : ; < = > ? @ A B C D E n'n'n'n'n'n'n'",
"n'n'n'n'n'n'n'n'n'n'n'n'n'n'n'n'n'n'n'n'n'n'n'n'n'F G H I J K L M N O P Q R S T U V n'n'n'n'n'n'",
"n'n'n'n'n'n'n'n'n'n'n'n'n'n'n'n'n'n'n'n'n'n'n'n') W X T Y Z [ ] ^ _ ` a b c d e f g h n'n'n'n'n'",
"n'n'n'n'n'n'n'n'n'n'n'n'n'n'n'n'n'n'n'n'n'n'n'i j k l m n o p q r s t u v w x y z { | } n'n'n'n'",
"n'n'n'n'n'n'n'n'n'n'n'n'n'n'n'n'n'n'n'n'n'n'~  !!!#!$!%!&!'!(!n'n'n'n'n')!*!+!,!-!.!/!0!n'n'n'n'",
"n'n'n'n'n'n'n'n'n'n'n'n'n'n'n'n'n'n'n'n'n'1!2!!!f 3!4!5!6!7!n'n'n'n'n'n'n'8!9!:!;!<!=!>!?!n'n'n'",
"n'n'n'n'n'n'n'n'n'n'n'n'n'n'n'n'n'n'n'n'@!A!B!C!D!E!F!G!H!n'n'n'n'n'n'n'n'n'I!J!K!L!M!N!O!n'n'n'",
"n'n'n'n'n'n'n'n'n'n'n'n'n'n'n'n'n'n'n'P!Q!R!S!T!U!V!W!X!n'n'n'n'n'n'n'n'n'n'n'Y!Z![!]!^!_!n'n'n'",
"n'n'n'n'n'n'n'n'n'n'n'n'n'n'n'n'n'n'`!a!b!c!d!e!f!g!h!n'n'n'n'n'n'n'n'n'n'n'n'i!j!k!l!m!n!n'n'n'",
"n'n'n'n'n'n'n'n'n'n'n'n'n'n'n'n'n'n'o!p!q!r!s!t!u!v!n'n'n'n'n'n'n'n'n'n'n'n'w!x!y!z!{!|!}!n'n'n'",
"n'n'n'n'n'n'n'n'n'n'n'n'n'n'n'n'n'~! #!###$#%#&#'#n'n'n'n'n'n'n'n'n'n'n'n'n'(#)#*#+#,#-#.#n'n'n'",
"n'n'n'n'n'n'n'n'n'n'n'n'n'n'n'n'n'/#0#1#2#3#4#5#n'n'n'n'n'n'n'n'n'n'n'n'n'6#7#8#9#:#;#<#=#n'n'n'",
"n'n'n'n'n'n'n'n'n'n'n'n'n'n'n'n'>#?#@#A#B#C#D#n'n'n'n'n'n'n'n'n'n'n'n'n'E#F#G#H#I#J#K#L#n'n'n'n'",
"n'n'n'n'n'n'n'n'n'n'n'n'n'n'n'n'M#N#O#P#Q#R#S#n'n'n'n'n'n'n'n'n'n'n'n'T#U#V#W#X#Y#Z#[#]#n'n'n'n'",
"n'n'n'n'n'n'n'n'n'n'n'n'n'n'n'n'^#_#`#a#b#c#d#e#f#g#h#i#j#n'n'n'n'n'k#l#m#n#o#p#q#r#s#n'n'n'n'n'",
"n'n'n'n'n'n'n'n'n'n'n'n'n'n'n'n't#u#v#w#x#y#z#{#|#}#~# $!$#$n'n'n'$$2#%$&$'$($)$*$+$n'n'n'n'n'n'",
"n'n'n'n'n'n'n'n'n'n'n'n'n'n'n'n',$-$.$/$0$1$2$3$4$5$6$7$8$9$:$n';$<$=$>$?$@$A$B$C$n'n'n'n'n'n'n'",
"n'n'n'n'n'n'n'n'n'n'n'n'n'n'n'n'D$E$F$G$H$I$J$K$L$M$N$O$P$Q$R$n'S$T$U$V$W$X$Y$Z$[$n'n'n'n'n'n'n'",
"n'n'n'n'n'n'n'n'n'n'n'n'n'n'n'n']$^$_$`$a$b$c$d$e$f$g$h$i$j$k$l$m$n$o$p$q$r$s$t$n'n'n'n'n'n'n'n'",
"n'n'n'n'n'n'n'n'n'n'n'n'n'n'n'u$v$w$x$y$z${$|$}$~$ %!%#%$%%%&%'%(%)%*%+%,%-%.%n'n'n'n'n'n'n'n'n'",
"n'n'n'n'n'n'n'n'n'n'n'n'n'n'/%0%1%2%3%4%5%6%7%8%9%:%;%<%=%>%?%@%A%B%C%D%E%F%n'n'n'n'n'n'n'n'n'n'",
"n'n'n'n'n'n'n'n'n'n'n'n'n'G%H%I%J%K%L%M%N%O%P%Q%R%S%T%$%U%V%W%X%Y%Z%[%]%^%n'n'n'n'n'n'n'n'n'n'n'",
"n'n'n'n'n'n'n'n'n'n'n'n'_%`%a%b%c%d%e%f%g%h%i%j%k%l%m%n%o%p%q%r%s%t%u%v%n'n'n'n'n'n'n'n'n'n'n'n'",
"n'n'n'n'n'n'n'n'n'n'n'w%x%y%z%{%|%}%~% &!&#&$&%&&&'&(&)&*&+&,&-&.&/&0&n'n'n'n'n'n'n'n'n'n'n'n'n'",
"n'n'n'n'n'n'n'n'n'n'1&`%a%2&3&4&5&6&n'n'7&8&9&:&;&<&=&>&?&@&A&B&C&D&n'n'n'n'n'n'n'n'n'n'n'n'n'n'",
"n'n'n'n'n'n'n'n'n'E&F&G&H&I&J&3&K&n'n'n'n'L&M&N&O&)&P&Q&R&S&T&U&V&n'n'n'n'n'n'n'n'n'n'n'n'n'n'n'",
"n'n'n'n'n'n'n'n'W&X&Y&Z&[&3&O&]&n'n'n'n'^&_&P$X&`&a&b&c&d&n'n'n'n'n'n'n'n'n'n'n'n'n'n'n'n'n'n'n'",
"n'n'n'n'n'n'n'e&U%f&g&h&i&J&j&n'n'n'n'k&h&X&l&h&=&i&m&L&n'n'n'n'n'n'n'n'n'n'n'n'n'n'n'n'n'n'n'n'",
"n'n'n'n'n'n'n&o&`%>&p&O&<&p&n'n'n'n'q&a&J&l&I&r&s&t&u&n'n'n'n'n'n'n'n'n'n'n'n'n'n'n'n'n'n'n'n'n'",
"n'n'n'n'n'v&[&U%w&x&=%P$G%n'n'n'n'y&=&P$l&3&z&t&t&{&|&n'n'n'n'n'n'n'n'n'n'n'n'n'n'n'n'n'n'n'n'n'",
"n'n'n'n'}&)&~&U% 'J&~&!'n'n'n'n'#'=&~&F&P$j&$'%'{&&'n'n'n'n'n'n'n'n'n'n'n'n'n'n'n'n'n'n'n'n'n'n'",
"n'n'n'n'''G%(')'*'+'I&,'n'n'n'-'.'=%b&U%E&/'p&0'1'n'n'n'n'n'n'n'n'n'n'n'n'n'n'n'n'n'n'n'n'n'n'n'",
"n'n'n'2'3'4'5'6'7'8'9'n'n'n':';'<%<'='m&>'x&?'L&n'n'n'n'n'n'n'n'n'n'n'n'n'n'n'n'n'n'n'n'n'n'n'n'",
"n'n'n'@'3'A'B'C'D'E'n'n'n'|&F'o&P$*&h&r&x&G'>'n'n'n'n'n'n'n'n'n'n'n'n'n'n'n'n'n'n'n'n'n'n'n'n'n'",
"n'n'n';'3'.'I&H'8','n'n'I'J'$%a&n%o%K')&_%L'n'n'n'n'n'n'n'n'n'n'n'n'n'n'n'n'n'n'n'n'n'n'n'n'n'n'",
"n'n'n'j&M'1'z&N'O','P'Q'R'(&P'u&S'T'U'L'G%n'n'n'n'n'n'n'n'n'n'n'n'n'n'n'n'n'n'n'n'n'n'n'n'n'n'n'",
"n'n'n')&V'Q'W'X';']&L'O&p&6&=&Y'Z'['0'n%n'n'n'n'n'n'n'n'n'n'n'n'n'n'n'n'n'n'n'n'n'n'n'n'n'n'n'n'",
"n'n'n'G'g&$']'^'Z'~&_'`'a'b'a%c'J'%'_'n'n'n'n'n'n'n'n'n'n'n'n'n'n'n'n'n'n'n'n'n'n'n'n'n'n'n'n'n'",
"n'n'n']'b&G&+'`%n%z&,'d'z&g&L']'Q$<&n'n'n'n'n'n'n'n'n'n'n'n'n'n'n'n'n'n'n'n'n'n'n'n'n'n'n'n'n'n'",
"n'n'n'z&a&I&e'a&2'f'g'J'{&T'Z'X&3&n'n'n'n'n'n'n'n'n'n'n'n'n'n'n'n'n'n'n'n'n'n'n'n'n'n'n'n'n'n'n'",
"n'n'n'n'p&]'1&[')&h'G'%'I&='i'w%n'n'n'n'n'n'n'n'n'n'n'n'n'n'n'n'n'n'n'n'n'n'n'n'n'n'n'n'n'n'n'n'",
"n'n'n'n'M'O&e'I&g&o&b&j'k'l'n'n'n'n'n'n'n'n'n'n'n'n'n'n'n'n'n'n'n'n'n'n'n'n'n'n'n'n'n'n'n'n'n'n'",
"n'n'n'n'n'n'['t&I&m'x&g'n'n'n'n'n'n'n'n'n'n'n'n'n'n'n'n'n'n'n'n'n'n'n'n'n'n'n'n'n'n'n'n'n'n'n'n'",
"n'n'n'n'n'n'n'n'n'n'n'n'n'n'n'n'n'n'n'n'n'n'n'n'n'n'n'n'n'n'n'n'n'n'n'n'n'n'n'n'n'n'n'n'n'n'n'n'",
"n'n'n'n'n'n'n'n'n'n'n'n'n'n'n'n'n'n'n'n'n'n'n'n'n'n'n'n'n'n'n'n'n'n'n'n'n'n'n'n'n'n'n'n'n'n'n'n'"
};
