/* XPM */
static const char *liquid_16[] = {
"16 16 84 1",
" 	c None",
".	c #000000",
"+	c #004C84",
"@	c #256897",
"#	c #015288",
"$	c #095286",
"%	c #01568F",
"&	c #01558D",
"*	c #015892",
"=	c #015791",
"-	c #B0D1E5",
";	c #ABCFE5",
">	c #015A9D",
",	c #015799",
"'	c #B5DCEB",
")	c #84A2BC",
"!	c #A6CDE5",
"~	c #2578B8",
"{	c #015396",
"]	c #015293",
"^	c #CDF8FC",
"/	c #839DB8",
"(	c #0164AD",
"_	c #0166AE",
":	c #0366AF",
"<	c #0267AF",
"[	c #83B2D3",
"}	c #C1EEF7",
"|	c #016BB0",
"1	c #036DB7",
"2	c #0370BA",
"3	c #036EB9",
"4	c #036CB8",
"5	c #84B4D7",
"6	c #B9E6F4",
"7	c #025D9D",
"8	c #004687",
"9	c #025999",
"0	c #0DD5F5",
"a	c #0CDAF6",
"b	c #11B1EB",
"c	c #10A7E7",
"d	c #9BCCE9",
"e	c #BBE9F8",
"f	c #004281",
"g	c #0266A8",
"h	c #004484",
"i	c #035999",
"j	c #0DE1F9",
"k	c #0AE6FA",
"l	c #13B9EF",
"m	c #12AEE9",
"n	c #A5D6EE",
"o	c #BEECF9",
"p	c #004383",
"q	c #0266AA",
"r	c #0088DF",
"s	c #13E7F9",
"t	c #14F1FF",
"u	c #1FD7FA",
"v	c #21CCF7",
"w	c #418CBC",
"x	c #3A80B2",
"y	c #0374D1",
"z	c #55F9FE",
"A	c #0FCFF0",
"B	c #15E1F9",
"C	c #23D5F9",
"D	c #24CBF7",
"E	c #2B75AD",
"F	c #115495",
"G	c #AFD6F3",
"H	c #0F91DA",
"I	c #1F8ECB",
"J	c #1071B1",
"K	c #1172B3",
"L	c #38ACE4",
"M	c #7CE8F4",
"N	c #5CFEFF",
"O	c #4DFFFF",
"P	c #258DC8",
"Q	c #258FCA",
"R	c #94F9FE",
"S	c #A5F8FD",
"................",
".......+@.......",
".......#$.......",
".......%&.......",
".......*=.......",
".....-;>,').....",
".....!~{]^/.....",
".....(_:<[}.....",
"....|1234567....",
"...890abcdefg...",
"...hijklmnopq...",
"....rstuvwxy....",
"....zABCDEFG....",
".....HIJKLM.....",
".....NOPQRS.....",
"................"};
