/* XPM */
static const char *marquee_64[] = {
"64 64 4 1 0 0",
"  c #3093F0",
"! c #FFFFFF",
"# c #000000",
"$ c None",
"              !!!!!!!!!!              !!!!!!!!!!             !!!",
"              !!!!!!!!!!              !!!!!!!!!!             !!!",
"              !!!!!!!!!!              !!!!!!!!!!             !!!",
"              !!!!!!!!!!              !!!!!!!!!!             !!!",
"              !!!!!!!!!!              !!!!!!!!!!             !!!",
"              !!!!!!!!!!              !!!!!!!!!!             !!!",
"              !!!!!!!!!!              !!!!!!!!!!             !!!",
"              !!!!!!!!!!              !!!!!!!!!!             !!!",
"!!!!!!!!################################################!!!!!!!!",
"!!!!!!!!################################################!!!!!!!!",
"!!!!!!!!################################################!!!!!!!!",
"!!!!!!!!################################################        ",
"!!!!!!!!################################################        ",
"!!!!!!!!################################################        ",
"!!!!!!!!################################################        ",
"!!!!!!!!################################################        ",
"!!!!!!!!################################################        ",
"        ################################################        ",
"        ################################################        ",
"        ################################################        ",
"        ################################################        ",
"        ################################################        ",
"        ################################################        ",
"        ################################################!!!!!!!!",
"        ################################################!!!!!!!!",
"        ################################################!!!!!!!!",
"        ################################################!!!!!!!!",
"        ################################################!!!!!!!!",
"        ################################################!!!!!!!!",
"        ################################################!!!!!!!!",
"        ################################################!!!!!!!!",
"!!!!!!!!################################################!!!!!!!!",
"!!!!!!!!################################################!!!!!!!!",
"!!!!!!!!################################################!!!!!!!!",
"!!!!!!!!################################################        ",
"!!!!!!!!################################################        ",
"!!!!!!!!################################################        ",
"!!!!!!!!################################################        ",
"!!!!!!!!################################################        ",
"        ################################################        ",
"        ################################################        ",
"        ################################################        ",
"        ################################################        ",
"        ################################################        ",
"        ################################################        ",
"        ################################################        ",
"        ################################################        ",
"        ################################################        ",
"        ################################################!!!!!!!!",
"        ################################################!!!!!!!!",
"        ################################################!!!!!!!!",
"        ################################################!!!!!!!!",
"        ################################################!!!!!!!!",
"!!!!!!!!################################################!!!!!!!!",
"!!!!!!!!################################################!!!!!!!!",
"!!!!!!!!################################################!!!!!!!!",
"!!!             !!!!!!!!!!              !!!!!!!!!!              ",
"!!!             !!!!!!!!!!              !!!!!!!!!!              ",
"!!!             !!!!!!!!!!              !!!!!!!!!!              ",
"!!!             !!!!!!!!!!              !!!!!!!!!!              ",
"!!!             !!!!!!!!!!              !!!!!!!!!!              ",
"!!!             !!!!!!!!!!              !!!!!!!!!!              ",
"!!!             !!!!!!!!!!              !!!!!!!!!!              ",
"!!!             !!!!!!!!!!              !!!!!!!!!!              "
};
