/* XPM */
static const char *menu_xpm[] = {
"24 24 68 1",
" 	c #F0F0F0",
".	c #E7DDDD",
"+	c #AF6969",
"@	c #E5DADA",
"#	c #A86666",
"$	c #E2D6D6",
"%	c #A55454",
"&	c #D45454",
"*	c #A85252",
"=	c #E3D6D6",
"-	c #E6DCDC",
";	c #A75B5B",
">	c #CD5050",
",	c #9F4F4F",
"'	c #E1D6D6",
")	c #D55454",
"!	c #FF6565",
"~	c #E95C5C",
"{	c #A55050",
"]	c #DBC6C6",
"^	c #A35353",
"/	c #DF5757",
"(	c #F26060",
"_	c #CA5050",
":	c #A26363",
"<	c #AA5656",
"[	c #E85B5B",
"}	c #FA6363",
"|	c #E45A5A",
"1	c #A04242",
"2	c #DD5757",
"3	c #984545",
"4	c #DFD1D1",
"5	c #E6DDDD",
"6	c #A75454",
"7	c #E35A5A",
"8	c #F66161",
"9	c #F05E5E",
"0	c #9A4A4A",
"a	c #E1D5D5",
"b	c #E6E6EA",
"c	c #DECBCB",
"d	c #9F4040",
"e	c #EF5E5E",
"f	c #ED5D5D",
"g	c #983B3B",
"h	c #D3BBBB",
"i	c #EE5E5E",
"j	c #D95555",
"k	c #974A4A",
"l	c #DFD5D5",
"m	c #A85D5D",
"n	c #963B3B",
"o	c #D75555",
"p	c #EA5C5C",
"q	c #944A4A",
"r	c #E2D8D8",
"s	c #D6C1C1",
"t	c #994F4F",
"u	c #D45252",
"v	c #E65B5B",
"w	c #C34D4D",
"x	c #9C6262",
"y	c #9E4F4F",
"z	c #E4DCDC",
"A	c #934B4B",
"B	c #994B4B",
"C	c #E5DCDC",
"                        ",
"                        ",
"                        ",
"                        ",
"                        ",
"                        ",
"                        ",
"      ............      ",
"      %%%%%%%%%%%%      ",
"      &&&&&&&&&&&&      ",
"      ............      ",
"                        ",
"      ............      ",
"      %%%%%%%%%%%%      ",
"      &&&&&&&&&&&&      ",
"                        ",
"      ............      ",
"      %%%%%%%%%%%%      ",
"      &&&&&&&&&&&&      ",
"      ............      ",
"                        ",
"                        ",
"                        ",
"                        "
};
