/* XPM */
static const char *models_48[] = {
/* width height num_colors chars_per_pixel */
"48 48 281 2", 
/* colors */
"   c None",
".  c #0F7800",
"X  c None",
"o  c #E70018",
"O  c None",
"+  c #077C00",
"@  c #007D04",
"#  c #FE0000",
"$  c #017F00",
"%  c None",
"&  c #008000",
"*  c #356301",
"=  c None",
"-  c #00486E",
";  c #008000",
":  c #001BC8",
">  c #664D00",
",  c None",
"<  c None",
"1  c None",
"2  c None",
"3  c #644118",
"4  c None",
"5  c None",
"6  c #F30500",
"7  c None",
"8  c #008000",
"9  c #004080",
"0  c None",
"q  c #008000",
"w  c #4E5900",
"e  c None",
"r  c None",
"t  c #00682E",
"y  c #008000",
"u  c #485C00",
"i  c None",
"p  c #0006F2",
"a  c #007D06",
"s  c #0021BC",
"d  c None",
"f  c #001EC1",
"g  c #007E00",
"h  c None",
"j  c #008000",
"k  c None",
"l  c #366500",
"z  c None",
"x  c None",
"c  c #FD0002",
"v  c #CB1900",
"b  c #2E6900",
"n  c None",
"m  c #FE0000",
"M  c #FE0000",
"N  c None",
"B  c #008000",
"V  c #008000",
"C  c #004379",
"Z  c None",
"A  c #008000",
"S  c None",
"D  c #008000",
"F  c #008000",
"G  c #008000",
"H  c None",
"J  c None",
"K  c None",
"L  c None",
"P  c None",
"I  c None",
"U  c #008000",
"Y  c #008000",
"T  c #008000",
"R  c #0C7A00",
"E  c #0007F1",
"W  c #008000",
"Q  c #087C00",
"!  c #008000",
"~  c None",
"^  c #067D00",
"/  c #008000",
"(  c #008000",
")  c #007E00",
"_  c #008000",
"`  c #00398A",
"'  c None",
"]  c #E10413",
"[  c #FE0000",
"{  c #111BB8",
"}  c #FE0000",
"|  c None",
" . c None",
".. c #2900D5",
"X. c #008100",
"o. c #007E00",
"O. c #008001",
"+. c #01682D",
"@. c #FE0000",
"#. c #FC0100",
"$. c #007F00",
"%. c None",
"&. c #F80300",
"*. c #007F00",
"=. c #0001FE",
"-. c #F20600",
";. c #007E00",
":. c None",
">. c #007B09",
",. c None",
"<. c None",
"1. c #007F00",
"2. c None",
"3. c None",
"4. c None",
"5. c #0004F6",
"6. c #D81300",
"7. c #0000FE",
"8. c #CE1800",
"9. c None",
"0. c #28650C",
"q. c #CC1900",
"w. c None",
"e. c #365E0C",
"r. c #007B0B",
"t. c #C21E00",
"y. c #0000FD",
"u. c #0B7B00",
"i. c #2F6700",
"p. c #097C00",
"a. c #0000FE",
"s. c #0000FE",
"d. c #0000FD",
"f. c #018000",
"g. c #236D00",
"h. c #0000FE",
"j. c None",
"k. c #0007F0",
"l. c #007F00",
"z. c #DF001F",
"x. c #0000FD",
"c. c #FF0000",
"v. c #007F00",
"b. c #0000FD",
"n. c #00692D",
"m. c #FD0100",
"M. c #047C05",
"N. c #F90300",
"B. c None",
"V. c #F70400",
"C. c None",
"Z. c #007F00",
"A. c None",
"S. c #F50500",
"D. c #DF0020",
"F. c #7C4100",
"G. c None",
"H. c #7A4200",
"J. c #784300",
"K. c #004477",
"L. c None",
"P. c #D50520",
"I. c #6E4800",
"U. c None",
"Y. c None",
"T. c None",
"R. c None",
"E. c #006533",
"W. c #007F00",
"Q. c #0000FD",
"!. c None",
"~. c #D91300",
"^. c #0000FD",
"/. c #007F00",
"(. c #0000FD",
"). c #006C26",
"_. c None",
"`. c #005C47",
"'. c #007F00",
"]. c #FB0003",
"[. c None",
"{. c #CB1A00",
"}. c #0000FD",
"|. c #C91B00",
" X c None",
".X c #007F00",
"XX c #0012DA",
"oX c None",
"OX c #0000FD",
"+X c None",
"@X c #001ACA",
"#X c #FD0000",
"$X c #306700",
"%X c #007C07",
"&X c None",
"*X c #0000FD",
"=X c None",
"-X c #0000FE",
";X c None",
":X c #0000FD",
">X c #0000FE",
",X c #0000FD",
"<X c None",
"1X c #DB1002",
"2X c None",
"3X c #FE0100",
"4X c #007F00",
"5X c #0000FD",
"6X c #FD0000",
"7X c #007F00",
"8X c #0000FE",
"9X c #7F4000",
"0X c #087B00",
"qX c None",
"wX c #007F00",
"eX c #0005F5",
"rX c #007F00",
"tX c #774400",
"yX c #0000FE",
"uX c #0000FE",
"iX c None",
"pX c #0000FE",
"aX c #6B4A00",
"sX c #0000FE",
"dX c None",
"fX c #2000DE",
"gX c None",
"hX c #0000FE",
"jX c None",
"kX c None",
"lX c #0000FE",
"zX c None",
"xX c #0000FE",
"cX c #0000FE",
"vX c None",
"bX c None",
"nX c #0000FE",
"mX c #0000FE",
"MX c #0000FE",
"NX c #0000FE",
"BX c #007513",
"VX c None",
"CX c #0000FE",
"ZX c None",
"AX c None",
"SX c #006A2A",
"DX c None",
"FX c #2000DF",
"GX c #007E00",
"HX c #008000",
"JX c None",
"KX c #008000",
"LX c #0000FF",
"PX c None",
"IX c #0B7A00",
"UX c None",
"YX c None",
"TX c None",
"RX c #0018CE",
"EX c None",
"WX c None",
"QX c #008000",
"!X c #356500",
"~X c None",
"^X c #007E00",
"/X c #2F6800",
"(X c None",
")X c #2D6900",
"_X c None",
"`X c None",
"'X c None",
"]X c #004575",
"[X c #FD0000",
"{X c #BA2100",
"}X c None",
"|X c #008000",
" o c #D10B17",
".o c None",
"Xo c None",
"oo c #FE0000",
"Oo c None",
/* pixels */
"                                                              4 DXDX4                           ",
"                                                               X;X*.Oo                          ",
"                                                              O W.g 0                           ",
"                                                            vX$.o.G gXzX                        ",
"                                  EXUXbXh J P S , Y.~X    4 O /.! ( v.G.                        ",
"                                WXn a.(.8XhXlX5X*Xb.| .oTX% 1.Y _ _ V i iX                      ",
"                            EX= ~ OXcXNXLXLXLXLXLXmX,Xh.z 2X8 _ _ _ W ^X_.                      ",
"                          TXe d.:XcXLXLXLXLXLXLXLXLXLXsXE E.G _ _ _ ( q T.4                     ",
"                        YXXoy.xXLXLXLXLXLXLXLXLXLXLXLXNXs BXwX_ _ _ _ B &XiX                    ",
"                        _X7.yXLXLXLXLXLXLXLXLXLXLXLXLXCX` @ _ _ _ _ _ T HXx                     ",
"                      `XI >XNXLXLXLXLXLXLXLXLXLXLXLXLXXX`.rX_ _ _ _ _ _ q d                     ",
"                    YXdXx.hXLXLXLXLXLXLXLXLXLXLXLXLXp 9 %X_ _ _ _ _ _ _ T GXVX                  ",
"                    PX' -XMXLXLXLXLXLXLXLXLXLXLXLX=.RXn.O._ _ _ _ _ _ _ _ '.:.4                 ",
"                    1 ^.mXLXLXLXLXLXLXLXLXLXLXLXLX5.K.r._ _ _ _ _ _ _ _ _ U <Xw.                ",
"                  EX%.pXLXLXLXLXLXLXLXLXLXLXLXLXLXf SXO._ _ _ _ _ _ _ _ _ wXW.3.X               ",
"                  .oa.hXLXLXLXLXLXLXLXLXLXLXLXLXeXC a _ _ _ _ _ _ _ _ _ _ _ D =XjX              ",
"                  5 }.xXLXLXLXLXLXLXLXLXLXLXLXCX@Xt _ _ _ _ _ _ _ _ _ _ _ _ / Z.,.              ",
"                EXZ uXLXLXLXLXLXLXLXLXLXLXLXLXk.]X%X_ _ _ _ _ _ _ _ _ _ _ _ _ D H 4.            ",
"                (Xs.nXLXLXLXLXLXLXLXLXLXLXLX=.: ).O._ _ _ _ _ _ _ _ _ _ _ _ _ ( |X2             ",
"                .oQ.NXLXLXLXLXLXLXLXLXLXLXLX5.- >._ _ _ _ _ _ _ _ _ _ _ _ _ _ _ V k ZX          ",
"    A.[.oXoXoXoXr ..fXFXFXFXFXFXFXFXFXFXFXFX{ +._ _ _ _ _ _ _ _ _ _ _ _ _ _ _ _ ! QXJX          ",
"    [.6X[XM M M ].o z.D.D.D.D.D.D.D.D.D.D.P.3 M._ _ _ _ _ _ _ _ _ _ _ _ _ _ _ _ _ j N 4.        ",
"    oXm c.c.c.c.c.c c.c.c.c.c.c.c.c.c.c.@.{./X_ _ _ _ _ _ _ _ _ _ _ _ _ _ _ _ _ _ 7XKXAX        ",
"    oXM c.c.c.c.c.c.c.c.c.c.c.c.c.c.c.c.-.9X+ _ _ _ _ _ _ _ _ _ _ _ _ _ _ _ _ _ _ _ y < X       ",
"    oXM c.c.c.c.c.c.c.c.c.c.c.c.c.c.c.3X8.)Xf._ _ _ _ _ _ _ _ _ _ _ _ _ _ _ _ _ _ _ 7XX.x       ",
"    oXM c.c.c.c.c.c.c.c.c.c.c.c.c.c.c.V.J.u._ _ _ _ _ _ _ _ _ _ _ _ _ _ _ _ _ _ _ _ _ 8 }X4     ",
"    oXM c.c.c.c.c.c.c.c.c.c.c.c.c.c.c.|.i.f._ _ _ _ _ _ _ _ _ _ _ _ _ _ _ _ _ _ _ _ _ 4X1.x     ",
"    oXM c.c.c.c.c.c.c.c.c.c.c.c.c.c.S.F.p._ _ _ _ _ _ _ _ _ _ _ _ _ _ _ _ _ _ _ _ _ _ _ .X!.4   ",
"    oXM c.c.c.c.c.c.c.c.c.c.c.c.c.@.v $X_ _ _ _ _ _ _ _ _ _ _ _ _ _ _ _ _ _ _ _ _ _ _ _ F  .jX  ",
"    oXM c.c.c.c.c.c.c.c.c.c.c.c.c.-.9X0X_ _ _ _ _ _ _ _ _ _ _ _ _ _ _ _ _ _ _ _ _ _ _ _ wX& 2.  ",
"    oXM c.c.c.c.c.c.c.c.c.c.c.c.3X8.)Xf._ _ _ _ _ _ _ _ _ _ _ _ _ _ _ _ _ _ _ _ _ _ _ _ _ A K iX",
"    oXM c.c.c.c.c.c.c.c.c.c.c.c.&.H.R f._ _ _ _ _ _ _ _ _ _ _ _ _ _ _ _ _ _ _ _ _ _ _ _ _ ( l.qX",
"    oXM c.c.c.c.c.c.c.c.c.c.c.c.6 aX. p.Q Q Q Q ^ $ _ _ _ _ _ _ _ _ _ _ _ _ _ _ _ _ _ _ ( ;.) +X",
"    oXM c.c.c.c.c.c.c.c.c.c.c.c.#.t.tXI.I.I.I.I.> w u u u u u e.0.* l l l l !Xb g.IXy y y y ; 7 ",
"    oXM c.c.c.c.c.c.c.c.c.c.c.c.c.m.N.N.N.N.N.N.N.V.V.V.V.V.V.]  o1X~.~.~.~.6.q.{XkX< < < < 'XVX",
"    oXM c.c.c.c.c.c.c.c.c.c.c.c.c.c.c.c.c.c.c.c.c.c.c.c.c.c.c.@.c.c.c.c.c.c.c.c.} R.            ",
"    oXM c.c.c.c.c.c.c.c.c.c.c.c.c.c.c.c.c.c.c.c.c.c.c.c.c.c.c.c.c.c.c.c.c.c.c.c.} R.            ",
"    oXM c.c.c.c.c.c.c.c.c.c.c.c.c.c.c.c.c.c.c.c.c.c.c.c.c.c.c.c.c.c.c.c.c.c.c.c.} R.            ",
"    oXM c.c.c.c.c.c.c.c.c.c.c.c.c.c.c.c.c.c.c.c.c.c.c.c.c.c.c.c.c.c.c.c.c.c.c.c.} R.            ",
"    oXM c.c.c.c.c.c.c.c.c.c.c.c.c.c.c.c.c.c.c.c.c.c.c.c.c.c.c.c.c.c.c.c.c.c.c.c.} R.            ",
"    oXM c.c.c.c.c.c.c.c.c.c.c.c.c.c.c.c.c.c.c.c.c.c.c.c.c.c.c.c.c.c.c.c.c.c.c.c.} R.            ",
"    oXM c.c.c.c.c.c.c.c.c.c.c.c.c.c.c.c.c.c.c.c.c.c.c.c.c.c.c.c.c.c.c.c.c.c.c.c.} R.            ",
"    oXM c.c.c.c.c.c.c.c.c.c.c.c.c.c.c.c.c.c.c.c.c.c.c.c.c.c.c.c.c.c.c.c.c.c.c.c.} R.            ",
"    oXM c.c.c.c.c.c.c.c.c.c.c.c.c.c.c.c.c.c.c.c.c.c.c.c.c.c.c.c.c.c.c.c.c.c.c.c.} R.            ",
"    oXm c.c.c.c.c.c.c.c.c.c.c.c.c.c.c.c.c.c.c.c.c.c.c.c.c.c.c.c.c.c.c.c.c.c.c.c.[ U.            ",
"    9.#X# # # # # # # # # # # # # # # # # # # # # # # # # # # # # # # # # # # # ooj.            ",
"    B.<.L.L.L.L.L.L.L.L.L.L.L.L.L.L.L.L.L.L.L.L.L.L.L.L.L.L.L.L.L.L.L.L.L.L.L.L.L C.            ",
"                                                                                                "
};
