/* XPM */
static const char *model_16[] = {
"16 16 162 2 0 0",
"   c #A68278",
"!  c #773327",
"#  c #71271E",
"$  c #986862",
"%  c #A5A9C3",
"&  c #98A8C5",
"'  c #C4535E",
"(  c #B11B2B",
")  c #AC0116",
"*  c #AE0116",
"+  c #A40007",
",  c #990002",
"-  c #AA000F",
".  c #C55B69",
"/  c #5DB3E3",
"0  c #2472BE",
"1  c #F697A9",
"2  c #E8899C",
"3  c #D3415B",
"4  c #DC2D4C",
"5  c #D6294A",
"6  c #C9233D",
"7  c #D40017",
"8  c #E81F35",
"9  c #9ED2D8",
":  c #0FD2FF",
";  c #004FB4",
"<  c #8394B7",
"=  c #DD8693",
">  c #ECC7CC",
"?  c #E1BCBF",
"@  c #C8898D",
"A  c #9C1824",
"B  c #A20012",
"C  c #B5000B",
"D  c #D62732",
"E  c #35C7EE",
"F  c #00D0FF",
"G  c #005CBA",
"H  c #1C63AF",
"I  c #B12035",
"J  c #D29198",
"K  c #CD9297",
"L  c #B96269",
"M  c #92020B",
"N  c #970311",
"O  c #BF0000",
"P  c #8C2A47",
"Q  c #00C6FD",
"R  c #06BFF8",
"S  c #0978C6",
"T  c #0051B5",
"U  c #95ADC4",
"V  c #980000",
"W  c #BD475D",
"X  c #DD7983",
"Y  c #D62F4C",
"Z  c #AA0012",
"[  c #9A0006",
"]  c #A60000",
"^  c #227DAF",
"_  c #00CDFF",
"`  c #0AAFE9",
"a  c #0A84CD",
"b  c #0066C4",
"c  c #348BC5",
"d  c #D00011",
"e  c #C8264D",
"f  c #BB5D92",
"g  c #DCA5C8",
"h  c #E0ABC6",
"i  c #B2699A",
"j  c #0090DA",
"k  c #00B9F6",
"l  c #04A7E5",
"m  c #0589D1",
"n  c #0080CF",
"o  c #0080D0",
"p  c #A9BCCA",
"q  c #AB7775",
"r  c #A01321",
"s  c #AE5899",
"t  c #F4FFFF",
"u  c #F5FFFF",
"v  c #F6FFFF",
"w  c #FFFFFF",
"x  c #B894D1",
"y  c #0A89D5",
"z  c #00BFF5",
"{  c #01A0E2",
"|  c #0093D8",
"}  c #0089DC",
"~  c #4FA7D2",
" ! c #7760AC",
"!! c #CAB2EC",
"#! c #FCF6FC",
"$! c #C0A4DD",
"%! c #C6AEE1",
"&! c #CFB9E4",
"'! c #F199D3",
"(! c #5044B4",
")! c #00BFF6",
"*! c #00BCF4",
"+! c #00AFEB",
",! c #00A2E6",
"-! c #00A3EA",
".! c #AECBD7",
"/! c #7A39AC",
"0! c #AD7AD1",
"1! c #B8A4E0",
"2! c #ABA2E5",
"3! c #ADA8E8",
"4! c #B7A9E4",
"5! c #AC6EC6",
"6! c #5C0091",
"7! c #0594DD",
"8! c #00C5F9",
"9! c #00B9FA",
":! c #00BCFF",
";! c #07B1ED",
"<! c #92BECF",
"=! c #68179A",
">! c #6014A8",
"?! c #8776D7",
"@! c #9BB4F9",
"A! c #9AB9FD",
"B! c #9796E6",
"C! c #7027AF",
"D! c #500085",
"E! c #0099EB",
"F! c #00DEFF",
"G! c #08B2E6",
"H! c #57AAC5",
"I! c #72299C",
"J! c #350090",
"K! c #593EC5",
"L! c #708AF0",
"M! c #7295F6",
"N! c #5E54D1",
"O! c #4B00A1",
"P! c #620191",
"Q! c #4CA4BE",
"R! c #49B6C2",
"S! c #A78CB5",
"T! c #4C0093",
"U! c #5E23B8",
"V! c #4E36C5",
"W! c #4A36C7",
"X! c #5D30BE",
"Y! c #5300A3",
"Z! c #754094",
"[! c #966CAB",
"]! c #63119E",
"^! c #7230B9",
"_! c #7738BF",
"`! c #7222B0",
"a! c #6E3691",
"b! c #A795AF",
"c! c #9774A9",
"d! c #9675A9",
"e! c #8E739B",
"f! c None",
"f!f!f!f!f!f!f!f!f!f!f!f!f!f!f!f!",
"f!f!f!  ! # $ f!f!f!% & f!f!f!f!",
"f!' ( ) * + , - . f!/ 0 f!f!f!f!",
"f!1 2 3 4 5 6 7 8 9 : ; < f!f!f!",
"f!= > ? @ A B C D E F G H f!f!f!",
"f!I J K L M N O P Q R S T U f!f!",
"f!V W X Y Z [ ] ^ _ ` a b c f!f!",
"f!] d e f g h i j k l m n o p f!",
"f!q r s t u v w x y z { | } ~ f!",
"f!f! !!!#!$!%!&!'!(!)!*!+!,!-!.!",
"f!f!/!0!1!2!3!4!5!6!7!8!9!:!;!<!",
"f!f!=!>!?!@!A!B!C!D!E!F!G!H!f!f!",
"f!f!I!J!K!L!M!N!O!P!Q!R!f!f!f!f!",
"f!f!S!T!U!V!W!X!Y!Z!f!f!f!f!f!f!",
"f!f!f![!]!^!_!`!a!f!f!f!f!f!f!f!",
"f!f!f!f!b!c!d!e!f!f!f!f!f!f!f!f!"
};
