/* XPM */
static const char *model_preview[] = {
/* width height num_colors chars_per_pixel */
"24 24 101 2", 
/* colors */
"   c None",
".  c #008000",
"X  c #05800F",
"o  c None",
"O  c #007700",
"+  c #006800",
"@  c #008000",
"#  c #008000",
"$  c #005900",
"%  c #008000",
"&  c None",
"*  c #008000",
"=  c #003B00",
"-  c None",
";  c #008000",
":  c #008000",
">  c None",
",  c #008000",
"<  c #2E807D",
"1  c #008000",
"2  c #008000",
"3  c #17803E",
"4  c #008000",
"5  c #008000",
"6  c #008000",
"7  c #008000",
"8  c #008000",
"9  c #008000",
"0  c #006200",
"q  c #006400",
"w  c None",
"e  c #4982C3",
"r  c #007F00",
"t  c #077F15",
"y  c #008001",
"u  c #4C82CB",
"i  c #007F00",
"p  c #007F00",
"a  c #007F00",
"s  c #0D7F25",
"d  c #007F00",
"f  c #5282DB",
"g  c #004F00",
"h  c #09801A",
"j  c #128030",
"k  c #007F00",
"l  c #007F00",
"z  c #007F00",
"x  c #007F00",
"c  c #167F3E",
"v  c #000400",
"b  c #007800",
"n  c #005A00",
"m  c #007F00",
"M  c #007F00",
"N  c #001100",
"B  c #007F00",
"V  c #002802",
"C  c #007F00",
"Z  c #34818B",
"A  c #005800",
"S  c #007F00",
"D  c #007F00",
"F  c #1B804A",
"G  c #007F00",
"H  c #007F00",
"J  c #000000",
"K  c #007F00",
"L  c #006500",
"P  c #278069",
"I  c #0A801B",
"U  c #007F00",
"Y  c #007F00",
"T  c #007200",
"R  c #007F00",
"E  c #006300",
"W  c #012509",
"Q  c #005400",
"!  c #004500",
"~  c #004500",
"^  c #007F00",
"/  c #008000",
"(  c #007F00",
")  c #006100",
"_  c #008000",
"`  c None",
"'  c #007F01",
"]  c #008000",
"[  c #006E00",
"{  c #002500",
"}  c None",
"|  c #006E00",
" . c None",
".. c #198044",
"X. c #4981C5",
"o. c #006C00",
"O. c #067F12",
"+. c None",
"@. c #0C7F21",
"#. c #5E83FB",
"$. c None",
/* pixels */
"                      J J                       ",
"                      J J                       ",
"                    J   #.J                     ",
"                    J #.#.J                     ",
"                  J #.#.#.  J                   ",
"                  { < 3 # % V                   ",
"              ` / [ c D C G G q }               ",
"            ` M L # r - o & r | 2 +.            ",
"            p K n `         #.Z Q 1 }           ",
"          $., ~         #.#.#.#.) B B           ",
"          S H !       #.#.#.#.    E : i         ",
"          ; x J   #.#.#.#.        = Y *         ",
"          8 )   #.#.#.#.          ! 9 4         ",
"          7 $ #.#.#.               .O 6         ",
"          T ..#.#.                & o..         ",
"          A h                     _ F g         ",
"        J   4 d                 u j s v         ",
"        J   l 6 m           #.f @.O.e   J       ",
"        J     x 5 @ d } #.X.P t ' 9 >   W       ",
"      J         ] z X 9 9 y I a ^ 9 R  .  J     ",
"      J         #.#.#.Z Z       w 9 9 k   J     ",
"    J       #.#.#.#.#.          ` H 9 9 >   J   ",
"    J     #.#.#.#.                & ( 9 U  .J   ",
"    J J J J J J J J J J J J J J J J 0 b + N J   "
};
