/* XPM */
static const char *move_24_xpm[] = {
/* width height num_colors chars_per_pixel */
"    24    24        8            1",
/* colors */
"` c #1c7cbb",
". c #97a2a9",
"# c #5b778b",
"a c #4c6e87",
"b c #5d92bb",
"c c #dcdddc",
"d c #bcbebc",
"e c None",
/* pixels */
"eeeeeeeeeeeeeeeeeeeeeeee",
"eeeeeeeeeee#beeeeeeeeeee",
"eeeeeeeeee#bbaeeeeeeeeee",
"eeeeeeeee#bbbbaeeeeeeeee",
"eeeeeeee#bbbbbbaeeeeeeee",
"eeeeeeec`bbbbbb`deeeeeee",
"eeeeeeee.#`bb`a.eeeeeeee",
"eeeeeceeec`bb`ceeeceeeee",
"eeee#`.eec`bb`cee.`aeeee",
"eeeabbacdd`bb`dcc#bbaeee",
"eeabbbb```bbbb```bbbbace",
"e#bbbbbbbbbbbbbbbbbbbb#e",
"ebbbbbbbbbbbbbbbbbbbbb#e",
"eeabbb````bbbb````bbbace",
"eeeabbaccd`bb`dcc#bbacee",
"eeeea`beec`bb`cee.`aceee",
"eeeeeceeec`bb`ceeeceeeee",
"eeeeeeee.#`bb`#.eeeeeeee",
"eeeeeeec`bbbbbb`deeeeeee",
"eeeeeeee#bbbbbbaeeeeeeee",
"eeeeeeeee#bbbbaeeeeeeeee",
"eeeeeeeeeeabbaeeeeeeeeee",
"eeeeeeeeeeeb#eeeeeeeeeee",
"eeeeeeeeeeeeeeeeeeeeeeee"
};
