/* XPM */
static const char *moving_head_24[] = {
"24 24 328 2 0 0",
"   c #FFFFFF",
"!  c #FBFBFB",
"#  c #DEDDDD",
"$  c #BFC0C0",
"%  c #C2C3C3",
"&  c #BCBEBD",
"'  c #D5D6D7",
"(  c #F4F4F5",
")  c #F8F8F8",
"*  c #D9DAD9",
"+  c #797B7B",
",  c #525758",
"-  c #4F5556",
".  c #484C4E",
"/  c #696E70",
"0  c #BABBBD",
"1  c #FEFEFE",
"2  c #D7D9D9",
"3  c #939798",
"4  c #33393C",
"5  c #2E3539",
"6  c #2A3034",
"7  c #262B2F",
"8  c #272C30",
"9  c #393D42",
":  c #C4C7C8",
";  c #F7F7F7",
"<  c #FBFCFC",
"=  c #E8EAEA",
">  c #747B7D",
"?  c #4B5255",
"@  c #353C3F",
"A  c #2C3237",
"B  c #2A2F34",
"C  c #272C31",
"D  c #252A2E",
"E  c #272B31",
"F  c #292E34",
"G  c #686D72",
"H  c #CACDCE",
"I  c #FCFDFD",
"J  c #D7D9DA",
"K  c #969C9E",
"L  c #5D6569",
"M  c #384246",
"N  c #323B3E",
"O  c #2F363A",
"P  c #292F35",
"Q  c #252A2D",
"R  c #252A2F",
"S  c #272C32",
"T  c #282D34",
"U  c #343941",
"V  c #8D9195",
"W  c #F1F2F3",
"X  c #FDFDFD",
"Y  c #E4E5E7",
"Z  c #AFB5B9",
"[  c #5C676F",
"]  c #48555C",
"^  c #4D5A61",
"_  c #323A3C",
"`  c #282A2A",
"a  c #252626",
"b  c #2E3337",
"c  c #384146",
"d  c #2E3438",
"e  c #24292C",
"f  c #292E32",
"g  c #394147",
"h  c #6F7679",
"i  c #D5D7D8",
"j  c #F6F7F7",
"k  c #BDC2C5",
"l  c #7F8A90",
"m  c #4C585E",
"n  c #4D585E",
"o  c #636F75",
"p  c #262625",
"q  c #201D1A",
"r  c #201C19",
"s  c #282828",
"t  c #495155",
"u  c #424A4F",
"v  c #282E32",
"w  c #32393D",
"x  c #444C50",
"y  c #888E90",
"z  c #E7E9E9",
"{  c #B0B7BA",
"|  c #6C787E",
"}  c #3D494D",
"~  c #4A555A",
" ! c #606C71",
"!! c #211D1B",
"#! c #1F1A17",
"$! c #23211F",
"%! c #41474A",
"&! c #424B50",
"'! c #272D31",
"(! c #2F373B",
")! c #3A4246",
"*! c #485154",
"+! c #A3A7A9",
",! c #F5F6F6",
"-! c #ACB3B6",
".! c #6A767D",
"/! c #434F53",
"0! c #384346",
"1! c #404B51",
"2! c #2C2F30",
"3! c #242322",
"4! c #22201F",
"5! c #2A2E30",
"6! c #343D41",
"7! c #30393D",
"8! c #333A3D",
"9! c #485152",
":! c #686F70",
";! c #C7C9CA",
"<! c #F4F4F4",
"=! c #FCFCFD",
">! c #CFD3D5",
"?! c #808A8F",
"@! c #4A565B",
"A! c #394348",
"B! c #374147",
"C! c #323A3D",
"D! c #2C3133",
"E! c #2A2D2E",
"F! c #2E3538",
"G! c #363E41",
"H! c #3E4649",
"I! c #696F71",
"J! c #9CA1A1",
"K! c #CFD2D2",
"L! c #F8F9F9",
"M! c #F3F3F4",
"N! c #B7BBBE",
"O! c #495459",
"P! c #3C474C",
"Q! c #374248",
"R! c #2F373A",
"S! c #27292A",
"T! c #242423",
"U! c #2C3033",
"V! c #3C4246",
"W! c #6F7578",
"X! c #CED0D0",
"Y! c #F0F0F0",
"Z! c #FCFCFC",
"[! c #9DA3A5",
"]! c #535C61",
"^! c #394449",
"_! c #2D3336",
"`! c #242221",
"a! c #2C3032",
"b! c #42484B",
"c! c #A8ABAC",
"d! c #FDFEFE",
"e! c #DDDFE0",
"f! c #8F9598",
"g! c #454F55",
"h! c #30383C",
"i! c #272828",
"j! c #211F1D",
"k! c #2D3235",
"l! c #3A4044",
"m! c #878C8F",
"n! c #EAECEC",
"o! c #F1F2F2",
"p! c #E8E9EA",
"q! c #B4B9BB",
"r! c #8A9195",
"s! c #465055",
"t! c #313C3F",
"u! c #2D3537",
"v! c #2A3032",
"w! c #333A3F",
"x! c #575F63",
"y! c #9CA3A7",
"z! c #A9B0B2",
"{! c #BDC3C4",
"|! c #FAFAFB",
"}! c #F0F1F1",
"~! c #C5C8CA",
" # c #7F878C",
"!# c #5B666B",
"## c #4D585D",
"$# c #353D44",
"%# c #2A3137",
"&# c #283035",
"'# c #272F32",
"(# c #272E32",
")# c #272E33",
"*# c #31383D",
"+# c #556065",
",# c #5F6A6F",
"-# c #677276",
".# c #B6BBBC",
"/# c #E2E4E5",
"0# c #FAFBFB",
"1# c #7D858A",
"2# c #5F696F",
"3# c #515E64",
"4# c #475258",
"5# c #363F46",
"6# c #283036",
"7# c #262E32",
"8# c #252C30",
"9# c #242B2F",
":# c #262E33",
";# c #2E373C",
"<# c #49555B",
"=# c #566267",
"># c #616D72",
"?# c #7C8589",
"@# c #A0A6A8",
"A# c #E2E4E4",
"B# c #9FA5A9",
"C# c #5E686E",
"D# c #4C575E",
"E# c #465157",
"F# c #414C52",
"G# c #353F46",
"H# c #2C333B",
"I# c #2A3238",
"J# c #2A3136",
"K# c #293035",
"L# c #2A3338",
"M# c #2F393F",
"N# c #424F54",
"O# c #48535A",
"P# c #505B61",
"Q# c #626C72",
"R# c #828A8D",
"S# c #D8DADB",
"T# c #BCC0C1",
"U# c #626B70",
"V# c #49555D",
"W# c #3A4349",
"X# c #2F363B",
"Y# c #2A2F37",
"Z# c #2A394D",
"[# c #2B3B50",
"]# c #2C3C50",
"^# c #2C3B4E",
"_# c #2A3643",
"`# c #272E35",
"a# c #2E353A",
"b# c #394248",
"c# c #455055",
"d# c #535C63",
"e# c #93999C",
"f# c #EEF0F0",
"g# c #BABEC0",
"h# c #636D72",
"i# c #505C65",
"j# c #444D52",
"k# c #242B30",
"l# c #294B72",
"m# c #2C537E",
"n# c #315580",
"o# c #31557F",
"p# c #2C445F",
"q# c #262E34",
"r# c #2D3338",
"s# c #3B454B",
"t# c #434E54",
"u# c #525A61",
"v# c #8F9599",
"w# c #ECEDED",
"x# c #BBBDC0",
"y# c #666E75",
"z# c #525E66",
"{# c #404950",
"|# c #31373C",
"}# c #262C30",
"~# c #2A3D50",
" $ c #2A4056",
"!$ c #2E4156",
"#$ c #2C4157",
"$$ c #2A3947",
"%$ c #252C31",
"&$ c #2F373C",
"'$ c #384047",
"($ c #424B52",
")$ c #545B63",
"*$ c #8E9398",
"+$ c #EBEBEC",
",$ c #E1E3E3",
"-$ c #8B9197",
".$ c #545F68",
"/$ c #394249",
"0$ c #31393F",
"1$ c #2D3339",
"2$ c #2D3438",
"3$ c #2B3236",
"4$ c #2C3137",
"5$ c #2B3136",
"6$ c #2A3036",
"7$ c #313940",
"8$ c #444C54",
"9$ c #72797F",
":$ c #C2C5C7",
";$ c #F9FAFA",
"<$ c #C4C7C9",
"=$ c #787F84",
">$ c #84898D",
"?$ c #929699",
"@$ c #94979A",
"A$ c #919598",
"B$ c #919497",
"C$ c #909397",
"D$ c #8F9296",
"E$ c #8F9396",
"F$ c #8E9296",
"G$ c #808488",
"H$ c #6B7175",
"I$ c #BDC0C2",
"J$ c #F6F6F6",
"K$ c #E0E1E1",
"L$ c #EFF0F0",
"M$ c #FAFAFA",
"N$ c #F9F9F9",
"O$ c #EEEFEF",
"P$ c #DDDEDF",
"Q$ c None",
"                                                ",
"                      ! # $ % & ' (             ",
"                    ) * + , - . / 0 1           ",
"                1 2 3 , 4 5 6 7 8 9 : ;         ",
"            < = : > ? @ A B C D E F G H I       ",
"          1 J K L M N O P 8 Q R S T U V W       ",
"      X Y Z [ ] ^ _ ` a b c d e D f g h i       ",
"      j k l m n o p q r s t u Q v w x y z       ",
"      j { | } ~  !!!#!#!$!%!&!'!(!)!*!+!)       ",
"      ,!-!.!/!0!1!2!3!4!5!6!7!8!9!:!;!<!        ",
"      =!>!?!@!A!B!C!D!E!F!G!H!I!J!K!L!1         ",
"        M!N!O!P!Q!R!S!T!U!V!W!X!Y!1             ",
"          Z![!]!^!_!`!#!a!b!c!                  ",
"          d!e!f!g!h!i!j!k!l!m!n!o!L!            ",
"        =!p!q!r!s!t!u!v!O w!x!y!z!{!|!          ",
"      }!~! #!###$#%#&#'#(#)#*#+#,#-#.#/#0#      ",
"      N!1#2#3#4#5#6#7#8#9#:#;#<#=#>#?#@#A#      ",
"      B#C#D#E#F#G#H#I#J#K#L#M#N#O#P#Q#R#S#      ",
"      T#U#V#W#X#Y#Z#[#]#^#_#`#a#b#c#d#e#f#      ",
"      g#h#i#j#d k#l#m#n#o#p#q#r#s#t#u#v#w#      ",
"      x#y#z#{#|#}#~# $!$#$$$%$&$'$($)$*$+$      ",
"      ,$-$.$/$0$1$2$A 3$4$5$6$7$$#8$9$:$;$      ",
"      ! <$=$>$?$@$?$A$B$C$D$E$F$G$H$I$o!        ",
"        J$K$L$M$! ! ! ! ;$;$N$L!O$P$; 1         "
};
