/* XPM */
static const char * music_32[] = {
"32 32 17 1",
" 	c None",
".	c #FFFFFF",
"+	c #000000",
"@	c #BABABA",
"#	c #CBCBCB",
"$	c #2C2C2C",
"%	c #0A0A0A",
"&	c #E3E3E3",
"*	c #6E6E6E",
"=	c #676767",
"-	c #DDDDDD",
";	c #101010",
">	c #979797",
",	c #B1B1B1",
"'	c #272727",
")	c #E2E2E2",
"!	c #626262",
"................................",
"...............+++..............",
"...............++++.............",
"...............++++++...........",
"..............@++++++...........",
"..............++..+++++.........",
"..............++...+++++........",
".............+++++...+++++#.....",
".............++++++..++++++.....",
".............++..++++..++++.....",
".............++...$++...%++.....",
".............++......++.++&.....",
".............++......+++++......",
"............++.........++*......",
"............++.........++.......",
"...........++=.........++.......",
"...........++..........++.......",
"......-....++..........++.......",
".....++++..++..........++.......",
"...++++++++++.........;++.......",
"...++++++++++.........++>.......",
"...++++++++++........,++........",
"...++++++++++........+++........",
"...+++++++++...'+)...++.........",
"...++++++++....++++..++.........",
".....++++....++++++++++.........",
".............++++++++++.........",
".............++++++++++.........",
".............++++++++++.........",
".............+++++++++..........",
".............++++++++...........",
"...............!+++............."};
