/* XPM */
static const char *music_64[] = {
"64 64 228 2 0 0",
"   c #FFFFFF",
"!  c #FCFCFC",
"#  c #F7F7F7",
"$  c #FDFDFD",
"%  c #F6F6F6",
"&  c #B6B6B6",
"'  c #292929",
"(  c #757575",
")  c #E1E1E1",
"*  c #FEFEFE",
"+  c #E9E9E9",
",  c #8A8A8A",
"-  c #0F0F0F",
".  c #000000",
"/  c #1D1D1D",
"0  c #848484",
"1  c #EDEDED",
"2  c #D3D3D3",
"3  c #4E4E4E",
"4  c #080808",
"5  c #191919",
"6  c #939393",
"7  c #EAEAEA",
"8  c #BEBEBE",
"9  c #141414",
":  c #020202",
";  c #2F2F2F",
"<  c #ABABAB",
"=  c #FBFBFB",
">  c #9F9F9F",
"?  c #3E3E3E",
"@  c #BDBDBD",
"A  c #F8F8F8",
"B  c #EFEFEF",
"C  c #808080",
"D  c #5B5B5B",
"E  c #D0D0D0",
"F  c #CBCBCB",
"G  c #545454",
"H  c #0B0B0B",
"I  c #6A6A6A",
"J  c #E0E0E0",
"K  c #FAFAFA",
"L  c #A7A7A7",
"M  c #242424",
"N  c #171717",
"O  c #8F8F8F",
"P  c #818181",
"Q  c #1A1A1A",
"R  c #3C3C3C",
"S  c #323232",
"T  c #040404",
"U  c #272727",
"V  c #A1A1A1",
"W  c #EEEEEE",
"X  c #5C5C5C",
"Y  c #404040",
"Z  c #F0F0F0",
"[  c #686868",
"]  c #101010",
"^  c #414141",
"_  c #C0C0C0",
"`  c #BCBCBC",
"a  c #646464",
"b  c #D8D8D8",
"c  c #424242",
"d  c #050505",
"e  c #070707",
"f  c #666666",
"g  c #DCDCDC",
"h  c #888888",
"i  c #1B1B1B",
"j  c #878787",
"k  c #F4F4F4",
"l  c #AFAFAF",
"m  c #010101",
"n  c #121212",
"o  c #777777",
"p  c #F2F2F2",
"q  c #595959",
"r  c #616161",
"s  c #D2D2D2",
"t  c #1C1C1C",
"u  c #232323",
"v  c #A4A4A4",
"w  c #E3E3E3",
"x  c #303030",
"y  c #0E0E0E",
"z  c #676767",
"{  c #E5E5E5",
"|  c #747474",
"}  c #3A3A3A",
"~  c #B3B3B3",
" ! c #F3F3F3",
"!! c #202020",
"#! c #131313",
"$! c #EBEBEB",
"%! c #5E5E5E",
"&! c #DDDDDD",
"'! c #797979",
"(! c #030303",
")! c #0A0A0A",
"*! c #2B2B2B",
"+! c #A9A9A9",
",! c #343434",
"-! c #7D7D7D",
".! c #E8E8E8",
"/! c #535353",
"0! c #151515",
"1! c #CECECE",
"2! c #B8B8B8",
"3! c #393939",
"4! c #BBBBBB",
"5! c #A2A2A2",
"6! c #161616",
"7! c #9A9A9A",
"8! c #2D2D2D",
"9! c #E6E6E6",
":! c #828282",
";! c #575757",
"<! c #787878",
"=! c #111111",
">! c #060606",
"?! c #4B4B4B",
"@! c #C6C6C6",
"A! c #AEAEAE",
"B! c #181818",
"C! c #E4E4E4",
"D! c #D5D5D5",
"E! c #ECECEC",
"F! c #7B7B7B",
"G! c #F5F5F5",
"H! c #D1D1D1",
"I! c #8E8E8E",
"J! c #C7C7C7",
"K! c #484848",
"L! c #A3A3A3",
"M! c #434343",
"N! c #383838",
"O! c #464646",
"P! c #282828",
"Q! c #A0A0A0",
"R! c #1E1E1E",
"S! c #2C2C2C",
"T! c #C4C4C4",
"U! c #ACACAC",
"V! c #0C0C0C",
"W! c #515151",
"X! c #A8A8A8",
"Y! c #C8C8C8",
"Z! c #505050",
"[! c #626262",
"]! c #8B8B8B",
"^! c #707070",
"_! c #898989",
"`! c #0D0D0D",
"a! c #737373",
"b! c #919191",
"c! c #979797",
"d! c #D7D7D7",
"e! c #212121",
"f! c #949494",
"g! c #CDCDCD",
"h! c #B0B0B0",
"i! c #353535",
"j! c #444444",
"k! c #565656",
"l! c #696969",
"m! c #4A4A4A",
"n! c #7F7F7F",
"o! c #6F6F6F",
"p! c #333333",
"q! c #B5B5B5",
"r! c #E7E7E7",
"s! c #252525",
"t! c #CCCCCC",
"u! c #838383",
"v! c #868686",
"w! c #F9F9F9",
"x! c #2A2A2A",
"y! c #4D4D4D",
"z! c #B7B7B7",
"{! c #BABABA",
"|! c #DADADA",
"}! c #D4D4D4",
"~! c #929292",
" # c #6B6B6B",
"!# c #262626",
"## c #B2B2B2",
"$# c #989898",
"%# c #6C6C6C",
"&# c #8C8C8C",
"'# c #717171",
"(# c #3D3D3D",
")# c #B9B9B9",
"*# c #7C7C7C",
"+# c #CFCFCF",
",# c #D6D6D6",
"-# c #090909",
".# c #585858",
"/# c #C2C2C2",
"0# c #969696",
"1# c #525252",
"2# c #5A5A5A",
"3# c #7A7A7A",
"4# c #F1F1F1",
"5# c #ADADAD",
"6# c #2E2E2E",
"7# c #9E9E9E",
"8# c #C5C5C5",
"9# c #DFDFDF",
":# c #5D5D5D",
";# c #858585",
"<# c #BFBFBF",
"=# c #C3C3C3",
"># c #222222",
"?# c #9D9D9D",
"@# c #959595",
"A# c #3F3F3F",
"B# c #A6A6A6",
"C# c #494949",
"D# c #C9C9C9",
"E# c #DEDEDE",
"F# c #C1C1C1",
"G# c #7E7E7E",
"H# c #1F1F1F",
"I# c #3B3B3B",
"J# c None",
"                                                              ! # $                                                             ",
"                                                              % & ' ( ) *                                                       ",
"                                                            * + , - . / 0 1 *                                                   ",
"                                                            $ 2 3 4 . . . 5 6 7                                                 ",
"                                                            $ 8 9 : . . . . . ; < #                                             ",
"                                                            = > . . . . . . . . . ? @ A                                         ",
"                                                            B C . . . . . . . . . . . D E $                                     ",
"                                                          $ F G . . . . . . . . . . . . H I J                                   ",
"                                                          K L M . . . . . . . . . . . . . . N O 1                               ",
"                                                          A P . . . Q R S T . . . . . . . . . . U V A                           ",
"                                                          W X . . . Y F Z [ ] . . . . . . . . . . . ^ _                         ",
"                                                        = ` R . . . a b * $ ` c d . . . . . . . . . . e f g                     ",
"                                                        % h i . . . j k         l ; m . . . . . . . . . . n o +                 ",
"                                                        p q . . . . e r s $       p , t . . . . . . . . . . . u v !             ",
"                                                        w x . . . . . . y z {         { | ] . . . . . . . . . . m } ~           ",
"                                                       !< !!. . . . . . . m #!h $!        2 G e . . . . . . . . . . H %!&!      ",
"                                                      + '!n . . (!)!(!. . . . . *!L %       K +!,!. . . . . . . . . . . #!-!.!  ",
"                                                      ) /!4 . . 0!1!2!Y (!. . . . : 3!4!=         5!M . . . . . . . . . . 6!7!  ",
"                                                      b M . . m 8!+   9!:!#!m . . . . . ;!1!*       .!<!=!. . . . . . . >!?!@!  ",
"                                                    K A!d . . =![ B       7 | B!m . . . . H I C!        D!%!d . . . . . ] o E!  ",
"                                                  * ) F!(!. m u 7!G!          H!G 4 . . . . . / I!$!        J!K!(!. . . Q L!    ",
"                                                  ! @!M!: . : N!2 K             K & O!)!. . . . . P!Q!G!    # 7!R!. . . S!T!    ",
"                                                  K U!V!. . (!W!                      X!S : . . . . . Y Y!  2 Z!(!. . H [!g     ",
"                                                  G!]!. . . d ^!                        $!_!/ . . . . . `!a!b!S!. . . t c!k     ",
"                                                * d!%!. . m e!f!                            + a!#!. . . . . . . . . . ; g!      ",
"                                                A h!i!. . (!j!_                                 s k!d . . . . . . . . K!+       ",
"                                                p _!H . . >!l!Z                                     _ m!T . . . . . N n! !      ",
"                                                W o!. . . 4 I!                                        K X!x . . . . p!q!=       ",
"                                                r!Z!. . m s!h!                                            :!. . . . ?!J         ",
"                                              K & p!. . >!k!E                                           t!m!. . . . r           ",
"                                              B u!B!. . )!v!B                                         w!5!x!. . . 9 ]!          ",
"                                              C!y!. . . y z!                                          G!0 #!. . : Y {!          ",
"                                              |!s!. . (!S!}!                                          Z %!. . . e z C!          ",
"                                            p Q!N . . ] [ {                                           }!? . . . `!~!            ",
"                                            J  #H . . 5 ~!B                                         A L!!#. . . M ##            ",
"              H!$#^!W!K!/!%#&#q!.!          g!,!. . . !!q!w!                                        { '#y . . 4 ;!s             ",
"        * 8 M!d . . . . . . . . n K!V k     2!m . . . 8!.!                                          s (#. . . N _! !            ",
"      K h 9 . . . . . . . . . . . . . u > $!6 . . . )!X =                                           )#U . . . !#z!              ",
"      *#)!. . . . . . . . . . . . . . . m V!n m . : s!6 !                                          !]!N . . . N!+#              ",
"    X!S : . . . . . . . . . . . . . . . . . . . . T (#T!$                                         ,#X -#. . : .#g               ",
"  ! ?!. . . . . . . . . . . . . . . . . . . . . . >!;!K                                           )#x . . . i ]!W               ",
"* Y!S . . . . . . . . . . . . . . . . . . . . . . H '!                                            L!B!. . . i!/#                ",
"% 5!s!. . . . . . . . . . . . . . . . . . . . . : ' 5!                                            0 H . . . 3 r!                ",
"k 0#!!. . . . . . . . . . . . . . . . . . . . . e 1#g!                                          ,#2#d . . H 3# !                ",
"# Q!M . . . . . . . . . . . . . . . . . . . . . `!| 4#                                          5#,!m . . 6#L K                 ",
"  g!,!. . . . . . . . . . . . . . . . . . . . . =!O                                             n!-#. . . G b                   ",
"    X (!. . . . . . . . . . . . . . . . . . . . 9 7#                C!8#` @!9##               G!k!. . . . '!                    ",
"    + :#>!. . . . . . . . . . . . . . . . . . n ;#E!        # 2!k!x!e . . . . N ^ <!)#4#    $ <#3!. . . / L!                    ",
"      H!;!-#. . . . . . . . . . . . . . . . N!=#$       $ d!1#. . . . . . . . . . . . s!j B   c!>#. . (!y!Y!                    ",
"        7 u!6!. . . . . . . . . . . . : x Q!w!        ! 2 *!. . . . . . . . . . . . . . . x u!2#n . . 4 %#)                     ",
"            1 ?#c H . . . . . . T u l!=#w!            |!8!. . . . . . . . . . . . . . . . . . . . . . `!b!$                     ",
"                  1 ` @#v!0 O A!g =                 Z $#T . . . . . . . . . . . . . . . . . . . . . . R!&                       ",
"                                                  ! 8#A#: . . . . . . . . . . . . . . . . . . . . . : y!s                       ",
"                                                  K l #!m . . . . . . . . . . . . . . . . . . . . . 0!n!7                       ",
"                                                  w!B#. . . . . . . . . . . . . . . . . . . . . . . P!##                        ",
"                                                  w!B#. . . . . . . . . . . . . . . . . . . . . . . c D!                        ",
"                                                  K 5#] m . . . . . . . . . . . . . . . . . . . . T l!{                         ",
"                                                  ! t!3 : . . . . . . . . . . . . . . . . . . . . M 7! !                        ",
"                                                    ! )#d . . . . . . . . . . . . . . . . . . . . C#2                           ",
"                                                      B f!i . . . . . . . . . . . . . . . . . . Z!D#*                           ",
"                                                        w!v S!. . . . . . . . . . . . . . . 8!h!w!                              ",
"                                                          * E#:!u (!. . . . . . . . . V!(#5! !                                  ",
"                                                                A F#G#C#' N 0!H#I#z > 9!                                        ",
"*                                                                       * K K $                                                 "
};
