/* XPM */
static const char *papagayo_16[] = {
"16 16 171 2 0 0",
"   c #9DAD9B",
"!  c #80927B",
"#  c #738670",
"$  c #63805C",
"%  c #BBC2BB",
"&  c #8E9F8A",
"'  c #4C922D",
"(  c #5DAE3A",
")  c #549D35",
"*  c #5CB236",
"+  c #528946",
",  c #E0DFA9",
"-  c #DFDF9C",
".  c #DADAAE",
"/  c #76936B",
"0  c #4B8A32",
"1  c #65B843",
"2  c #5BA53F",
"3  c #396C25",
"4  c #4C9A34",
"5  c #64A537",
"6  c #B4B731",
"7  c #E4E313",
"8  c #E7E609",
"9  c #DADA17",
":  c #B7B561",
";  c #8BA188",
"<  c #689358",
"=  c #60B23F",
">  c #62B443",
"?  c #60AC42",
"@  c #265517",
"A  c #2E4331",
"B  c #8B9E85",
"C  c #CFDC10",
"D  c #F7F605",
"E  c #F9F607",
"F  c #F9F608",
"G  c #DAD80B",
"H  c #ADAE88",
"I  c #61B13F",
"J  c #55A235",
"K  c #62B540",
"L  c #62B143",
"M  c #63B443",
"N  c #427B2D",
"O  c #565D54",
"P  c #737777",
"Q  c #79737E",
"R  c #DBD60A",
"S  c #FAF908",
"T  c #F7F409",
"U  c #FDFB06",
"V  c #A7A72D",
"W  c #8FA389",
"X  c #50883B",
"Y  c #5BA53E",
"Z  c #61B042",
"[  c #61B041",
"]  c #509D32",
"^  c #839783",
"_  c #BAB9C9",
"`  c #454450",
"a  c #DBD90D",
"b  c #FAF808",
"c  c #FBF807",
"d  c #AEAD19",
"e  c #859F7C",
"f  c #60A943",
"g  c #60AE41",
"h  c #5CB244",
"i  c #5F9433",
"j  c #BBB68C",
"k  c #B5B356",
"l  c #F3F007",
"m  c #F8F509",
"n  c #FAF806",
"o  c #B2B21C",
"p  c #62AC42",
"q  c #63B543",
"r  c #60AF43",
"s  c #53943A",
"t  c #BDC70F",
"u  c #EBE90D",
"v  c #F2F00B",
"w  c #F9F509",
"x  c #FBF809",
"y  c #FDFD06",
"z  c #FDFC06",
"{  c #B4B42E",
"|  c #67B349",
"}  c #60AD41",
"~  c #60B346",
" ! c #5D781C",
"!! c #E7E306",
"#! c #DFDD0A",
"$! c #F7F509",
"%! c #F9F609",
"&! c #F2F209",
"'! c #D9D912",
"(! c #B8B72F",
")! c #C0BE28",
"*! c #DFDE01",
"+! c #BAB97D",
",! c #66B148",
"-! c #63811E",
".! c #E6E307",
"/! c #ACAA0B",
"0! c #C9C809",
"1! c #D0CE0A",
"2! c #9B9208",
"3! c #757655",
"4! c #ADAD53",
"5! c #E1E1C9",
"6! c #68B449",
"7! c #61AF42",
"8! c #5EAF43",
"9! c #538930",
":! c #D5D007",
";! c #DFDE0B",
"<! c #AEAE09",
"=! c #6B6209",
">! c #6B460F",
"?! c #A9A728",
"@! c #C8C79C",
"A! c #5FA443",
"B! c #4F8E36",
"C! c #5FAD40",
"D! c #4E9B41",
"E! c #71760F",
"F! c #FEFE06",
"G! c #DDDB09",
"H! c #E0DB08",
"I! c #E1DF08",
"J! c #C4C388",
"K! c #529537",
"L! c #40752B",
"M! c #579D3B",
"N! c #62B142",
"O! c #64B644",
"P! c #41883C",
"Q! c #8F900B",
"R! c #DFDC05",
"S! c #E2E208",
"T! c #D2D119",
"U! c #BCBD8D",
"V! c #85967F",
"W! c #5D7257",
"X! c #56963D",
"Y! c #64B643",
"Z! c #61AE41",
"[! c #62B645",
"]! c #4B8F39",
"^! c #577F24",
"_! c #556224",
"`! c #AAABA1",
"a! c #50843C",
"b! c #67BD45",
"c! c #61AF41",
"d! c #60B345",
"e! c #5DB64A",
"f! c #487346",
"g! c #548A3D",
"h! c #6BBA4B",
"i! c #67B249",
"j! c #67B149",
"k! c #66B04A",
"l! c #67B24A",
"m! c #6EBE4D",
"n! c #5A8E45",
"o! c None",
"o!o!o!o!o!  ! # $ % o!o!o!o!o!o!",
"o!o!o!o!& ' ( ) * + o!, - . o!o!",
"o!o!o!/ 0 1 2 3 4 5 6 7 8 9 : o!",
"; o!< = > ? @ A B C D E E F G H ",
"I J K L M N O P Q R S T T T U V ",
"W X Y Z [ ] ^ _ ` a b T T T c d ",
"e f Z g g h i j k l m T T T n o ",
"p q g g r s t u v w T x y z U { ",
"| } g g ~  !!!#!$!%!&!'!(!)!*!+!",
",!Z g g ~ -!.!/!0!1!2!3!o!o!4!5!",
"6!} 7!g 8!9!:!;!<!=!>!?!@!o!o!o!",
"A!B!C!g Z D!E!F!&!G!H!I!J!o!o!o!",
"K!L!M!N!g O!P!Q!R!S!T!U!o!o!o!o!",
"V!W!X!Y!g Z![!]!^!_!`!o!o!o!o!o!",
"o!o!a!b!g g c!d!e!f!o!o!o!o!o!o!",
"o!o!g!h!i!j!k!l!m!n!o!o!o!o!o!o!"
};
