/* XPM */
static const char *pictures_24[] = {
/* width height num_colors chars_per_pixel */
"24 24 23 1", 
/* colors */
"  c #80003E",
". c #FD803F",
"X c #80003F",
"o c #FD8040",
"O c #800040",
"+ c #FD7E40",
"@ c #C0C0C0",
"# c #81003E",
"$ c #FE803F",
"% c #FE8040",
"& c #7D003E",
"* c #810040",
"= c #7E003D",
"- c #FF8040",
"; c #7E003E",
": c #FD7F3F",
"> c #7E003F",
", c #7F003E",
"< c #7F003F",
"1 c #FC8040",
"2 c #7F0040",
"3 c #80003D",
"4 c #FD803E",
/* pixels */
"@@@@@@@@@@@@@@@@@@@@@@@@",
"@@@@@@@@@@@@@@@$:oo@@@@@",
"@@@@@@@@@@@@@@@..o:@@@@@",
"@@@@@@@@@@@@@@@%--%@@@@@",
"@@@@@@@@@@@@@@@+%%4@@@@@",
"@@@@@@@@@@@@@@@.1$.@@@@@",
"@@@@@@@@@@@@@@@@@@@@@@@@",
"@@@@@; ,@@@@@@@@@@@@@@@@",
"@@@@@,>>,@@@@@@@@@@@@@@@",
"@@@@;<O2;>@@@@@@@@@@@@@@",
"@@@3 <OOO;<@@@@@@@@@@@@@",
"@@<<<OOOOO<#@@@@@@;@@@@@",
"@@><OOOOOOOXX@@@@,;O@@@@",
"@;>OOOOOOOOO ;@@;O<X>@@@",
"<<OOOOOOOOOOO&>;<OOO;>@@",
";XOOOOOOOOOOOO;>OOOOO<@@",
">OOOOOOOOOOOOOOOOOOOOX<@",
"<OOOOOOOOOOOOOOOOOOOOOO,",
"<OOOOOOOOOOOOOOOOOOOOO2;",
"<OOOOOOOOOOOOOOOOOOOOOOX",
"<OOOOOOOOOOOOOOOOOOOOOOX",
"<OOOOOOOOOOOOOOOOOOOOOOX",
"X*OOOOOOOOOOOOOOOOOOOO**",
"=*XXXXXXXXXXXXXXXXXXXX*<"
};
