/* XPM */
static const char *pinwheel_64[] = {
/* width height num_colors chars_per_pixel */
"64 63 180 2", 
/* colors */
"   c #7A0000",
".  c #00A200",
"X  c #343400",
"o  c #F40000",
"O  c #4E4E00",
"+  c #230000",
"@  c #005000",
"#  c #9C9C00",
"$  c #CD0000",
"%  c #090000",
"&  c #00C900",
"*  c #EAEA00",
"=  c #00FF00",
"-  c #830000",
";  c #CEA800",
":  c #1D1D00",
">  c #444400",
",  c #515100",
"<  c #00AD00",
"1  c #00E300",
"2  c #001800",
"3  c #004E00",
"4  c #929200",
"5  c #9F9F00",
"6  c #ACAC00",
"7  c #00F000",
"8  c #B9B900",
"9  c #D3D300",
"0  c #E0E000",
"q  c #C90000",
"w  c #00FD00",
"e  c #EDED00",
"r  c #060600",
"t  c #009E00",
"y  c #F90000",
"u  c #202000",
"i  c #000900",
"p  c #00AB00",
"a  c #616100",
"s  c #004C00",
"d  c #DF0000",
"f  c #0E0000",
"g  c #D6D600",
"h  c #880000",
"j  c #090900",
"k  c #303000",
"l  c #3D3D00",
"z  c #00A900",
"x  c #00DF00",
"c  c #646400",
"v  c #E80000",
"b  c #004A00",
"n  c #8B8B00",
"m  c #9E0000",
"M  c #A5A500",
"N  c #170000",
"B  c #005700",
"V  c #00C300",
"C  c #0C0C00",
"Z  c #FE0000",
"A  c #191900",
"S  c #262600",
"D  c #F90900",
"F  c #6A0000",
"G  c #E40000",
"H  c #00EA00",
"J  c #5D0000",
"K  c #8E8E00",
"L  c #00C100",
"P  c #C2C200",
"I  c #E9E900",
"U  c #060000",
"Y  c #BD0000",
"T  c #00A500",
"R  c #730000",
"E  c #434300",
"W  c #5D5D00",
"Q  c #660000",
"!  c #00B200",
"~  c #00BF00",
"^  c #D30000",
"/  c #00F500",
"(  c #D2D200",
")  c #DFDF00",
"_  c #000100",
"`  c #121200",
"'  c #7C0000",
"]  c #2C2C00",
"[  c #464600",
"{  c #004400",
"}  c #250000",
"|  c #005100",
" . c #A4A600",
".. c #550000",
"X. c #920000",
"o. c #CF0000",
"O. c #D5D500",
"+. c #0B0000",
"@. c #E2E200",
"#. c #EFEF00",
"$. c #FCFC00",
"%. c #FF0000",
"&. c #00A100",
"*. c #2F2F00",
"=. c #004200",
"-. c #7D7D00",
";. c #001900",
":. c #004F00",
">. c #00BB00",
",. c #D8D800",
"<. c #FFFF00",
"1. c #003300",
"2. c #0B0B00",
"3. c #BE0000",
"4. c #FB0000",
"5. c #00D500",
"6. c #252500",
"7. c #000A00",
"8. c #007600",
"9. c #4C4C00",
"0. c #666600",
"q. c #A40000",
"w. c #004D00",
"e. c #1D0000",
"r. c #005A00",
"t. c #100000",
"y. c #DBDB00",
"u. c #FF9100",
"i. c #00FC00",
"p. c #C70000",
"a. c #F5F500",
"s. c #006700",
"d. c #BA0000",
"f. c #F70000",
"g. c #630000",
"h. c #930000",
"j. c #B7B700",
"k. c #F6EC00",
"l. c #00C400",
"z. c #00FA00",
"x. c #F8F800",
"c. c #C30000",
"v. c #040400",
"b. c #111100",
"n. c #000600",
"m. c #2B2B00",
"M. c #B60000",
"N. c #797900",
"B. c #5F0000",
"V. c #00EB00",
"C. c #D90000",
"Z. c #BABA00",
"A. c #520000",
"S. c #00C200",
"D. c #DFE200",
"F. c #EEEE00",
"G. c #009900",
"H. c #00CF00",
"J. c #FC0000",
"K. c #003A00",
"L. c #007000",
"P. c #555500",
"I. c #6F6F00",
"U. c #E20000",
"Y. c #008A00",
"T. c #BDBD00",
"R. c #00C000",
"E. c #110000",
"W. c #00F600",
"Q. c #4E0000",
"!. c #8B0000",
"~. c #006100",
"^. c #009700",
"/. c #040000",
"(. c #000F00",
"). c #1A0000",
"_. c #CDCD00",
"`. c #0D0000",
"'. c #005F00",
"]. c #000000",
/* pixels */
"].].].].].].].].].].].].].].].].].].].].].].].].].| | 3 s s s s s s s s s s s s s s s s s s s s s s s :.K.].].].].].].].].].].].",
"].].].].].].].].].].].].].].].].].].].].].].].].].= = = = = = = = = = = = = = = = = = = = = = = = = = = H.].].].].].].].].].].].",
"].].].].].].].].].].].].].].].].].].].].].].].].].].].B = = = = = = = = = = = = = = = = = = = = = = = = L ].].].].].].].].].].].",
"].].].].].].].].].].].].].].].].].].].].].].].].].].].].2 = = = = = = = = = = = = = = = = = = = = = = = >.].].].].].].].].].].].",
"].].].].].].].].].].].].].].].].].].].].].].].].].].].].].w.= = = = = = = = = = = = = = = = = = = = = = V.< ].].].].].].].].].].",
"].].].].].].].].].].].].].].].].].].].].].].].].].].].].].].t &.S.= = = = = = = = = = = = = = = = = = = = = ].].].].].].].].].].",
"].].].].].].].].].].].].].].].].].].].].].].].].].].].].].].].].b = = = = = = = = = = = = = = = = = = = = = ].].].].].].].].].].",
"].].].].].].].].].].].].].].].].].].].].].].].].].].].].].].].].~.= = = = = = = = = = = = = = = = = = = = = ].].].].].].].].].].",
"].].].].].].].].].].].].].].].].].].].].].].].].].].].].].].].].].(.= = = = = = = = = = = = = = = = = = = = ].].].].].].].].].].",
"].].].].].].].].].].].].].].].].].].].].].].].].].].].].].].].].].].b W.= = = = = = = = = = = = = = = = = = ].].].].].].].].].].",
"].].].].].].].].].].].].].].].].].].].].].].].].].].].].].].].].].].]./ = = = = = = = = = = = = = = = = = = ].].].].].].].].].].",
"].].].].].].].].].].].].].].].].].].].].].].].].].].].].].].].].].].].x w = = = = = = = = = = = = = = = = = ].].].].].].].].].].",
"].].].].].].].].].].].].].].].].].].].].].].].].].].].].].].].].].].].].^.= = = = = = = = = = = = = = = = = ].].].].].].].].].].",
"].].].].].].].].].].].].].].].].].].].].].].].].].].].].].].].].].].].].&.= = = = = = = = = = = = = = = = = ].].].].].].].].].].",
"].].].].].].].].].].].].].].].].].].].].].].].].].].].].].].].].].].].].z = = = = = = = = = = = = = = = = = ].].].].].].].].].].",
"].].].].].].].].].].].].].].].].].].].].].].].].].].].].].].].].].].].].'.V = = = = = = = = = = = = = = = = ].].].].].].].].].].",
"].].].].].].].].].].].].].].].].].].].].].].].].].].].].].].].].].].].].].{ = = = = = = = = = = = = = = = = ].].].].].].].].].].",
"].].].].].].].].].].].].].].].].].].].].].].].].].].].].].].].].].].].].].@ = = = = = = = = = = = = = = = = ].].].].].].].].].].",
"].].].].].].].].].].].].].].].].].].].].].].].].].].].].].].].].].].].].].@ = = = = = = = = = = = = = = ~ ].].].].].].].].].].].",
"].].].].].].].].].].].].].2.,.].-.T.5 ].].].].].].].].].].].].].].].].].].@ = = = = = = = = = = = = = = R.].].].].].].].].].].].",
"].].].].].].].].j I.c c a N.<., y.<.x.P.c c 0.W ].].].].].].].].].].].].].@ = = = = = = = = = = = = = = L ].].].].].].].].].].].",
"].].].].].].` b.l <.<.<.<.<.<.<.<.<.<.<.<.<.<.$.].A r ].].].].].].].].].].@ = = = = = = = = = = = = = = L ].].].].].].].].].].].",
"].].].].].].( <.<.<.<.<.<.<.<.<.<.<.<.<.<.<.<.<.<.<.[ ].].].].].].].].].].@ = = = = = = = = = = = = = = 5.].].].].].].].].].].].",
"].].].: <.<.<.<.<.<.<.<.<.<.<.<.<.<.<.<.<.<.<.<.<.<.<.# ].].].].].].].].].=.= = = = = = = = = = = = = 8.].].].].].].].].].].].].",
"].4 8 P <.<.<.<.<.<.<.<.<.<.<.<.<.<.<.<.<.<.<.<.<.<.<.I M ].].].].].].].L.5.= = = = = = = = = = = = s.;.].].].].].].].].].].].].",
"].O.<.<.<.<.<.<.<.<.<.<.<.<.<.<.<.<.<.<.<.<.<.<.<.<.<.<.<.c ].].].].].].T = = = = = = = = = = = = G.7.].].].].].].].].].].].].].",
"]._.<.<.<.<.<.<.<.<.<.<.<.<.<.<.<.<.<.<.<.<.<.<.<.<.<.<.<.<.6.v.].].].i p = = = = = = = = = = z.H ].].].].].].].].].].].].].].].",
"]._.<.<.<.<.<.<.<.<.<.<.<.<.<.<.<.<.<.<.<.<.<.<.<.<.<.<.<.<.<.O ].].].= = = = = = = = = = = = ! ].].].].].].].].].].].].].].].].",
"]._.<.<.<.<.<.<.<.<.<.<.<.<.<.<.<.<.<.<.<.<.<.<.<.<.<.<.<.<.<.<.6 ].].7 = = = = = = = = = = = & ].].].].].].].].].].].].].].].].",
"]._.<.<.<.<.<.<.<.<.<.<.<.<.<.<.<.<.<.<.<.<.<.<.<.<.<.<.<.<.<.<. .].l.i.= = = = = = = = = r.{ 1.].].].].].].].].].].].].].].].].",
"]._.<.<.<.<.<.<.<.<.<.<.<.<.<.<.<.<.<.<.<.<.<.<.<.<.<.<.<.<.<.<.; J = = = = = = = = 1 Y.. n.].].].].].].].].].].].].].].].].].].",
"]._.<.<.<.<.<.<.<.<.<.<.<.<.<.<.<.<.<.<.<.* 0 @.@.@.@.@.@.@.D.k.u.%.= = = = = = 1 H G.].].].].].].].].].].].].].].].].].].].].].",
"]._.<.<.<.<.<.<.<.<.<.<.<.<.<.<.<.<.<.<.<.E ].].].].].].].].].h.%.D = = = = = = _ ].].].].].].].].].].].].].].].].].].].].].].].",
"]._.<.<.<.<.<.<.<.<.<.<.<.<.<.<.<.<.a.].].].].].].].].].].].%.%.%.y ].].].].].].].].].].].].].].].].].].].].].].].].].].].].].].",
"]._.<.<.<.<.<.<.<.<.<.<.<.<.<.<.<.Z.*.].].].].].].].].].% p.%.%.%.f.].].].].].].].].].].].].].].].].].].].].].].].].].].].].].].",
"]._.<.<.<.<.<.<.<.<.<.<.<.<.<.<.j.9.].].].].].].].].].].`.%.%.%.%.4.F /.].].].].].].].].].].].].].].].].].].].].].].].].].].].].",
"]._.<.<.<.<.<.<.<.<.<.<.<.<.<.e k ].].].].].].].].].].].+.%.%.%.%.%.%.f ].].].].].].].].].].].].].].].].].].].].].].].].].].].].",
"]._.<.<.<.<.<.<.<.<.<.<.<.<.<.].].].].].].].].].].].].].].%.%.%.%.%.%.].].].].].].].].].].].].].].].].].].].].].].].].].].].].].",
"]._.<.<.<.<.<.<.<.<.<.<.<.F.].].].].].].].].].].].].].g.%.%.%.%.%.%.%.%...].].].].].].].].].].].].].].].].].].].].].].].].].].].",
"]._.<.<.<.<.<.<.<.<.<.<.6 m.].].].].].].].].].].].].].J %.%.%.%.%.%.%.%.d   ].].].].].].].].].].].].].].].].].].].].].].].].].].",
"]._.<.<.<.<.<.<.<.<.<.<.K ].].].].].].].].].].].].].].J %.%.%.%.%.%.%.%.%.C.Q ].].].].].].].].].].].].].].].].].].].].].].].t.' ",
"]._.<.<.<.<.<.<.<.<.<.#.N.].].].].].].].].].].].].].].J %.%.%.%.%.%.%.%.%.%.%.E.].].].].].].].].].].].].].].].].].].].].e.e.A.%.",
"]._.<.<.<.<.<.<.<.<.<.] ].].].].].].].].].].].].].].].J %.%.%.%.%.%.%.%.%.%.%.%.].].].].].].].].].].].].].].].].].].].].d %.%.%.",
"]._.<.<.<.<.<.<.<.<.<.> ].].].].].].].].].].].].].].].J %.%.%.%.%.%.%.%.%.%.%.%.%.%.%.%.].].].].].].].].].].].].h %.%.%.%.%.%.%.",
"]._.<.<.<.<.<.<.<.<.X C ].].].].].].].].].].].].].].].J %.%.%.%.%.%.%.%.%.%.%.%.%.%.%.%.d.c.c.c.c.c.c.c.c.c.c.3.G %.%.%.%.%.%.%.",
"]._.<.<.<.<.<.<.<.<.].].].].].].].].].].].].].].].].].B.%.%.%.%.%.%.%.%.%.%.%.%.%.%.%.%.%.%.%.%.%.%.%.%.%.%.%.%.%.%.%.%.%.%.%.%.",
"]._.<.<.<.<.<.<.<.<.].].].].].].].].].].].].].].].].].Q.v %.%.%.%.%.%.%.%.%.%.%.%.%.%.%.%.%.%.%.%.%.%.%.%.%.%.%.%.%.%.%.%.%.%.%.",
"]._.<.<.<.<.<.<.<.<.].].].].].].].].].].].].].].].].].].].%.%.%.%.%.%.%.%.%.%.%.%.%.%.%.%.%.%.%.%.%.%.%.%.%.%.%.%.%.%.%.%.%.%.%.",
"]._.<.<.<.<.<.<.<.<.].].].].].].].].].].].].].].].].].].+.%.%.%.%.%.%.%.%.%.%.%.%.%.%.%.%.%.%.%.%.%.%.%.%.%.%.%.%.%.%.%.%.%.%.%.",
"]._.<.<.<.<.<.<.<.<.].].].].].].].].].].].].].].].].].].`.%.%.%.%.%.%.%.%.%.%.%.%.%.%.%.%.%.%.%.%.%.%.%.%.%.%.%.%.%.%.%.%.%.%.%.",
"]._.<.<.<.<.<.<.e n ].].].].].].].].].].].].].].].].].].U h %.%.%.%.%.%.%.%.%.%.%.%.%.%.%.%.%.%.%.%.%.%.%.%.%.%.%.%.%.%.%.%.%.%.",
"]._.<.<.<.<.<.<.g ].].].].].].].].].].].].].].].].].].].].].q o %.%.%.%.%.%.%.%.%.%.%.%.%.%.%.%.%.%.%.%.%.%.%.%.%.%.%.%.%.%.%.%.",
"]._.<.<.<.<.<.<.9 ].].].].].].].].].].].].].].].].].].].].].].m %.%.%.%.%.%.%.%.%.%.%.%.%.%.%.%.%.%.%.%.%.%.%.%.%.%.%.%.%.%.%.%.",
"]._.<.<.<.<.<.<.<.<.].].].].].].].].].].].].].].].].].].].].].M.%.%.%.%.%.%.%.%.%.%.%.%.%.%.%.%.%.%.%.%.%.%.%.%.%.%.%.%.%.%.%.%.",
"]._.<.<.<.<.<.<.0 m.].].].].].].].].].].].].].].].].].].].].].).- %.%.%.%.%.%.%.%.%.%.%.%.%.%.%.%.%.%.%.%.%.%.%.%.%.%.%.%.%.%.%.",
"]._.<.<.<.<.<.<.g ].].].].].].].].].].].].].].].].].].].].].].].} X.%.%.%.%.%.%.%.%.%.%.%.%.%.%.%.%.%.%.%.%.%.%.%.%.%.%.%.%.%.%.",
"]._.<.<.<.<.<.<.) u ].].].].].].].].].].].].].].].].].].].].].].].].U.Z %.%.%.%.%.%.%.%.%.%.%.%.%.%.%.%.%.%.%.%.%.%.%.%.%.%.%.%.",
"]._.<.<.<.<.<.<.<.<.].].].].].].].].].].].].].].].].].].].].].].].].].%.%.%.%.%.%.%.%.%.%.%.%.%.%.%.%.%.%.%.%.%.%.%.%.%.%.%.%.%.",
"]._.<.<.<.<.<.<.<.<.].].].].].].].].].].].].].].].].].].].].].].].].].].q.%.%.%.%.%.%.%.%.%.%.%.%.%.%.%.%.%.%.%.%.%.%.%.%.%.%.%.",
"]._.<.<.<.<.<.<.<.<.].].].].].].].].].].].].].].].].].].].].].].].].].].N ' %.%.%.%.%.%.%.%.%.%.%.%.%.%.%.%.%.%.%.%.%.%.%.%.%.%.",
"]._.<.<.<.<.<.<.<.<.].].].].].].].].].].].].].].].].].].].].].].].].].].].+ !.R J.%.%.%.%.%.%.%.%.%.%.%.%.%.%.%.%.%.%.%.%.%.%.%.",
"]._.<.<.<.<.<.<.<.<.S j ].].].].].].].].].].].].].].].].].].].].].].].].].].].].Y ^ o.$ %.%.%.%.%.%.%.%.%.%.%.%.%.%.%.%.%.%.%.%.",
"]._.<.<.<.<.<.<.<.<.<.> ].].].].].].].].].].].].].].].].].].].].].].].].].].].].].].].].%.%.%.%.%.%.%.%.%.%.%.%.%.%.%.%.%.%.%.%."
};
