/* XPM */
static const char *plasma_64[] = {
/* width height num_colors chars_per_pixel */
"64 64 470 2", 
/* colors */
"   c None",
".  c #0003FB",
"X  c #008F70",
"o  c #004AB5",
"O  c #0005FA",
"+  c #0011ED",
"@  c #00C13E",
"#  c #00FD00",
"$  c #00FD00",
"%  c #00F10D",
"&  c #007C83",
"*  c #009469",
"=  c #0000C1",
"-  c #0037C8",
";  c #00F30C",
":  c #00AE51",
">  c #006996",
",  c #00A558",
"<  c #0024DB",
"1  c #008A35",
"2  c #003CC1",
"3  c #00E01F",
"4  c #00F805",
"5  c #009B64",
"6  c #00016E",
"7  c #0056A9",
"8  c #00926B",
"9  c #0011EE",
"0  c #00833B",
"q  c #0029D4",
"w  c #00CD32",
"e  c #0008F5",
"r  c #008877",
"t  c #00946A",
"y  c #0043BC",
"u  c #004FAF",
"i  c #00FF00",
"p  c #0016E7",
"a  c #00BA45",
"s  c #00C638",
"d  c #00758A",
"f  c #00B14C",
"g  c #0030CF",
"h  c #003CC2",
"j  c #00609E",
"k  c #00EC13",
"l  c #0003FA",
"z  c #00F806",
"x  c #00A758",
"c  c #00B34B",
"v  c #002548",
"b  c #00CB31",
"n  c #00E31A",
"m  c #00FB00",
"M  c #00629D",
"N  c #00B011",
"B  c #001DE2",
"V  c #00D926",
"C  c #00A05E",
"Z  c #00946B",
"A  c #004FB0",
"S  c #00B50A",
"D  c #000AF5",
"F  c #00C639",
"G  c #0001FC",
"H  c #0001FC",
"J  c #00817E",
"K  c #003CC3",
"L  c #0048B6",
"P  c #00C100",
"I  c #00F807",
"U  c #0003FB",
"Y  c #0000C1",
"T  c #00B34C",
"R  c #00E31B",
"E  c #006E91",
"W  c #0029D6",
"Q  c #00FD00",
"!  c #00E51A",
"~  c #0020DD",
"^  c #00A05F",
"/  c #0005BA",
"(  c #00DC21",
")  c #005BA4",
"_  c #0016E9",
"`  c #0052AB",
"'  c #0052AB",
"]  c #00D22D",
"[  c #00DE20",
"{  c #00EA13",
"}  c #008D72",
"|  c #0048B7",
" . c #00609D",
".. c #0003FC",
"X. c #001BE2",
"o. c #00BF40",
"O. c #007A85",
"+. c #000468",
"@. c #0035CA",
"#. c #0041BD",
"$. c #00718C",
"%. c #00F10E",
"&. c #00FD01",
"*. c #00AC53",
"=. c #006798",
"-. c #0022DD",
";. c #00DE21",
":. c #009966",
">. c #00D528",
",. c #0054AB",
"<. c #00609E",
"1. c #001BE3",
"2. c #000FF0",
"3. c #004BB2",
"4. c #00CB34",
"5. c #008679",
"6. c #00C23B",
"7. c #0041BE",
"8. c #00B30B",
"9. c #00FD02",
"0. c #00B847",
"q. c #00C100",
"w. c #00738C",
"e. c #002ED1",
"r. c #00EA15",
"t. c #00A55A",
"y. c #00609F",
"u. c #001BE4",
"i. c #00D728",
"p. c #003D32",
"a. c #003C83",
"s. c #00E31B",
"d. c #0012EB",
"f. c #00926D",
"g. c #001C50",
"h. c #00AA53",
"j. c #004DB2",
"k. c #006F00",
"l. c #0014EA",
"z. c #0008F7",
"x. c #00C43B",
"c. c #000BF1",
"v. c #007F80",
"b. c #00BB42",
"n. c #003AC5",
"m. c #008839",
"M. c #00F609",
"N. c #0001FD",
"B. c #0031CC",
"V. c #00B14E",
"C. c #00234B",
"Z. c #00BD41",
"A. c #006C93",
"S. c #0027D8",
"D. c #00E31C",
"F. c #00FB02",
"G. c #009E61",
"H. c #0003BC",
"J. c #00DA23",
"K. c #0059A6",
"L. c #0014EB",
"P. c #0020DE",
"I. c #007A45",
"U. c #0050AD",
"Y. c #00358A",
"T. c #00D02F",
"R. c #006605",
"E. c #000BF2",
"W. c #008B74",
"Q. c #0046B9",
"!. c #0001FE",
"~. c #000DF1",
"^. c #00229D",
"/. c #00BD42",
"(. c #00C935",
"). c #004725",
"_. c #007887",
"`. c #0033CC",
"'. c #00EF10",
"]. c #00FB03",
"[. c #0006F7",
"{. c #00AA55",
"}. c #00659A",
"|. c #0020DF",
" X c #00DC23",
".X c #00F409",
"XX c #00E816",
"oX c #000BF3",
"OX c #009768",
"+X c #0052AD",
"@X c #000DF2",
"#X c #0019E5",
"$X c #00C936",
"%X c #00D529",
"&X c #00847B",
"*X c #00906E",
"=X c #003FC0",
"-X c #00FB04",
";X c #006D01",
":X c #00B649",
">X c #00F20B",
",X c #00718E",
"<X c #002CD3",
"1X c #00E817",
"2X c #00F40A",
"3X c #00A35C",
"4X c #005EA1",
"5X c #008E70",
"6X c #0019E6",
"7X c #00D52A",
"8X c #0010ED",
"9X c #00906F",
"0X c #009C62",
"qX c #004BB4",
"wX c #0006F9",
"eX c #0012EC",
"rX c #006D02",
"tX c #0042BB",
"yX c #00C23D",
"uX c #007D82",
"iX c #0038C7",
"pX c #0044BA",
"aX c #00F40B",
"sX c #00AF50",
"dX c #00EB12",
"fX c #006A95",
"gX c #0025DA",
"hX c #00619C",
"jX c #00E11E",
"kX c #00ED11",
"lX c #009C63",
"zX c #00026D",
"xX c #00D825",
"cX c #0057A8",
"vX c #00BD02",
"bX c #0012ED",
"nX c #006061",
"mX c #00CE31",
"MX c #008976",
"NX c #0044BB",
"BX c #000BF3",
"VX c #00BB44",
"CX c #00C737",
"ZX c #004527",
"AX c #00EB13",
"SX c #007689",
"DX c #0031CE",
"FX c #00A31B",
"GX c #00ED12",
"HX c #0028D5",
"JX c #0028D5",
"KX c #00A857",
"LX c #001A54",
"PX c #00639C",
"IX c #001EE1",
"UX c #00DA25",
"YX c #00956A",
"TX c #0050AF",
"RX c #000BF4",
"EX c #00C738",
"WX c #0008BA",
"QX c #0002FB",
"!X c #00827D",
"~X c #003DC2",
"^X c #00F906",
"/X c #00B44B",
"(X c #0001C0",
")X c #006F90",
"_X c #002AD5",
"`X c #00E619",
"'X c #0021DC",
"]X c #00A15E",
"[X c #00DD20",
"{X c #005CA3",
"}X c #0017E8",
"|X c #0023DB",
" o c #00D32C",
".o c #0002FC",
"Xo c #008E71",
"oo c #0049B6",
"Oo c #0004FB",
"+o c #0010EE",
"@o c #00C03F",
"#o c #00323C",
"$o c #007B84",
"%o c #0036C9",
"&o c #009C23",
"*o c #00F20D",
"=o c #00FE00",
"-o c #00AD52",
";o c #006897",
":o c #00748A",
">o c #0023DC",
",o c #00DF20",
"<o c #009A65",
"1o c #00006F",
"2o c #000BB3",
"3o c #0055AA",
"4o c #0010EF",
"5o c #0019A8",
"6o c #00CC33",
"7o c #008778",
"8o c #00936B",
"9o c #0042BD",
"0o c #00FE01",
"qo c #00640B",
"wo c #00B946",
"eo c #002B43",
"ro c #00748B",
"to c #002FD0",
"yo c #0047B6",
"uo c #00EB14",
"io c #0002FB",
"po c #003889",
"ao c #00A659",
"so c #00B24C",
"do c #000C63",
"fo c #006D91",
"go c #00619E",
"ho c #001CE3",
"jo c #00FC00",
"ko c #00D827",
"lo c #00936C",
"zo c #004EB1",
"xo c #009666",
"co c #0009F6",
"vo c #00D12D",
"bo c #00C53A",
"no c #0000FD",
"mo c #006E00",
"Mo c #0000FD",
"No c #00807F",
"Bo c #003BC4",
"Vo c #007786",
"Co c #00F708",
"Zo c #005D12",
"Ao c #00B24D",
"So c #006D92",
"Do c #0028D7",
"Fo c #00E41B",
"Go c #00F00E",
"Ho c #003190",
"Jo c #00FC01",
"Ko c #009F60",
"Lo c #00AB53",
"Po c #00115D",
"Io c #00B746",
"Uo c #00DB22",
"Yo c #005AA5",
"To c #000F5E",
"Ro c #0015EA",
"Eo c #002DD0",
"Wo c #00E914",
"Qo c #00D12E",
"!o c #000CF1",
"~o c #008C73",
"^o c #0047B8",
"/o c #0002FD",
"(o c #00BE41",
")o c #00CA34",
"_o c #007986",
"`o c #0034CB",
"'o c #00708D",
"]o c #00FC02",
"[o c #00F00F",
"{o c #00AB54",
"}o c #006699",
"|o c #0021DE",
" O c #00DD22",
".O c #00F508",
"XO c #009867",
"oO c #0053AC",
"OO c #00A120",
"+O c #000EF1",
"@O c #00CA35",
"#O c #004825",
"$O c #0005F8",
"%O c #00857A",
"&O c #0040BF",
"*O c #00FC03",
"=O c #006E00",
"-O c #0013EA",
";O c #00B748",
":O c #00C33B",
">O c #00F30A",
",O c #00728D",
"<O c #00C001",
"1O c #002DD2",
"2O c #00E916",
"3O c #0000FD",
"4O c #0024D9",
"5O c #00B04E",
"6O c #00A45B",
"7O c #000A65",
"8O c #00D42A",
"9O c #005FA0",
"0O c #001AE5",
"qO c #00D629",
"wO c #00600C",
"eO c #003B84",
"rO c #00916E",
"tO c #00CD30",
"yO c #004CB3",
"uO c #0007F8",
"iO c #00C33C",
"pO c #007E81",
"aO c #0039C6",
"sO c #0000FE",
"dO c #00F50A",
"fO c #005B14",
"gO c #00B04F",
"hO c #00BC42",
"jO c #00B908",
"kO c #006B94",
"lO c #0026D9",
"zO c #00E21D",
"xO c #0002BD",
"cO c #009D62",
"vO c #00B548",
"bO c #0058A7",
"nO c #007C80",
"mO c #00708D",
"MO c #0013EC",
"NO c #00CF30",
"BO c #00E716",
"VO c #009668",
"CO c #008A75",
"ZO c #0045BA",
"AO c #0000FF",
"SO c #000CF2",
"DO c #00BC43",
"FO c #00F805",
"GO c #007788",
"HO c #00837B",
"JO c #00B34A",
"KO c #0032CD",
"LO c #004AB3",
"PO c #00EE11",
"IO c #00FA04",
"UO c #00A956",
"YO c #00649B",
"TO c #00946A",
"RO c #001FE0",
"EO c #00DB24",
"WO c #002899",
"QO c #00F30A",
"!O c #009669",
"~O c #0051AE",
"^O c #008D70",
"/O c #000CF3",
"(O c #0018E6",
")O c #00C837",
"_O c #005E0D",
"`O c #00837C",
"'O c #00BF3E",
"]O c #003EC1",
"[O c #00FA05",
"{O c #006C02",
"}O c #00B54A",
"|O c #00708F",
" + c #002BD4",
".+ c #0037C7",
"X+ c #005BA3",
"o+ c #00E718",
"O+ c #00F30B",
"++ c #00A25D",
"@+ c #005DA2",
"#+ c #0018E7",
"$+ c #00D42B",
"%+ c #0003FB",
/* pixels */
"                                                                                                                                ",
"                                                                                                                                ",
"mom $ $ dX8 JXH Mo. ' >.$ $ xXX+e MoMoMoMoMo. QXMoMoMoMoMoH 4O8 % $ $ $ AXTOtX!oMoMoMoMoMo. ~ hXJO>X$ $ $ >Of U.8XH MoMoMoMoMo= ",
"k.Q i -X@O4X/OAOAO4oNo%.i *O(oK /oAOAOAOAOsOO ..AOAOAOAOAOOo7.;O^Xi i -X)OcXRo!.AOAOAOAOAOAO..ROM wo*oi i 0or.++yOl./oAOAOAOAOY ",
"k.Q i PO++%o..AOAOB 3XI i I UO<X!.AOAOAOAOAO!.AOAOAOAOAO!.u.v.Foi i 9.EOGORo!.AOAOAOAOAOAOAOAO!.9 qXaor.9.i 0o'.VX,O@.MOz.../oxO",
"k.Q i jX7o|.!.AO!.W T [Oi I {og /oAOAOAOAOAOAOAOAOAOAOAO@Xy.NO-Xi ]o;.uX|o!.AOAO!...O O Oo!.AOAOAOz.e.v.voI i i [OzO}O%O9OL y Y.",
"k.Q i UXuX0OAOAO!.W gO^Xi *O@ ^oO AOAOAOAOAOAOAOAOAOAOz.9ox.[Oi 9.UX_.u.!.AO/o@X>o&O3oYoTXg #+wXsOAO!.MOu {.[o0oi i [O%.D.] w &o",
"k.Q i ;.&XRO!.AOAO1.<odOi i jX$oho!.AOAOAOAOAOAOAO!.2.yO5O^Xi [ONO}.Ro!./o9 =XuXT  o;.jX OEXG.=.KO+O/oAOO S.uXF [o*Oi i i 0o0o<O",
"k.Q i 2O:.KO..AOAO+O,OFoi i ^X@ 4X6X..AOAOAOAO!.coW )XF dOi I o.+X@X!.Oo_X5.w %.-Xi i i i 0oI k iO&XK 9 /o!.SO%oSX;O;.; *O9.9.<O",
"k.Q i I DO3oD AOAO/oK 0.*Oi i aX@od n.u.+O2.6X%o=.{o! *O0o'.aoK wX!.@XyOsX; =oi 0o^XaX*oaX[Oi i 0oaX oX 9o9 !.!.co|.| SXVO{./Xm.",
"k.Q i 0oD.Xo1O..AOAO9 > 3 9.i i ^X O0.:.MX~oC @ D.^X0o^XqO_o< OoD iX%Oi.^X^X! box ~oGO|OSXX {.F FoCo0oCo7XZ o |.co!...uO+O0O-.5o",
"k.Q i i *O$+SXho!.AOAO#+J EO-Xi i i 0o*O-X-X9.i i *Ouox ZOuO!.u.)X o^X9.! cOTX-.D O ../o..O RX-.yO} 4.; 9.9.r.a SX]O#+coOo/o!.(X",
"k.Q i i i I @ {X4oAOAO/o|oSX@O; 0oi i i i i i ]oGX@oSo-...O e.OX1X0oCo$X;o_ /oAO!.!.OouOO !.AOAO/o+O%ouX@O*oi 9.%.i.x pOK.7.@.WO",
"k.Q i i i i aX:XoO+OAOAO/oRoqXf.)O`XaXM.aXPOqO-ofo +z.!.BXoO(oM.9.1X:..+z.!.wX}XaObOA.roSo,.`oL.wXAO!.RX`.`OUXI i 0o*OM.`XEO7XOO",
"k.joi i i i i ; /X,.9 !.AOAOwXho9o=.HOXo%OA.| |oco!.!.MO4X7X*O*O$+|O0O/oOo|.{XKo6o2O%.; %.FoF XOK.-.wXAO!.bXzocOEOM.0oi i i i q.",
"wOWo[O0oi i i i aX(o}.RO!.AOAOAO!.z.4oMO2.uO!.AOAOuO +7o,o0oI @oTX/OAOco]OUOFo[O0oi i i i i 0o^XD.{oYo6X..AO..6Xzolo@OuodO[O*OvX",
"#OvO$+; 0oi i i i CoNOv.Doz.!.AOAOAOAOAOAOAOAOOo0ObO}O'.0o*o{oBouO!.9 ) @ ^Xi i 0o*O-X[O-X9.i i i ^XUXX - coAOAOO #+=XE YX: wo1 ",
"#onOXObok 9.i i i i *OzO:.,.>o/O..AOAOAO!.co0Oo !O X*Oi ; G. +..AOL.E ko*Oi 0odO,oo.Lox Ao o[o9.i i 0o'.V.j.coAOAOAO/oRX}XDog ^.",
"g.LO9O5.so[ ^X0oi i i 0o%.6o:.> pXKO<X1O=XYO:.] dO0oi M.sXW /o!.MOw. O9.i -X;.6OfX9o1O_X- <.XO$+I i i i M.:X9oD AOAOAOAOAO!./o(X",
"7OX.lO9o}.9Xo.o+*Oi i i i *OaX! qO)O@ox.$+`XdO0oi i GX5 KO..AO#+$ojX9.i M./.fX_X+OO !.!...@X_XA.VXaXi i i %.KXqX+OAOAOAOAOAOAOY ",
"6 iowXL.1OA O.*. O^Xi i i i i i i 0o9.9.i i i i i '.]X`.OoAOz.bO$+9.i 0oi.;ou./oAOAOAOAOAOAO.. +uXqO9.i i 0o3 MXDXOoAOAOAOAOAOY ",
"1o3OAO/oD |.#.SoG.T.; 0oi i i i i i i i i i i i *o: NXuOAO!.S.++Coi i Co{.g ..AOAOAOAOAOAOAOAOMO@+(o[Oi i i [ox yO@XAOAOAOAOAOY ",
"1o3OAOAOAOwX6XBo}o!O)O'.0oi i i i i i i i i i CoyXPXbXAOAOO TXNO=oi i k CO0OAOAOAOAOAOAOAOAOAObX@+o.-Xi i i '.x yO+OAOAOAOAOAOY ",
"1o3OAOAOAOAOOo#+BoYOZ bo*o0oi i i i i i i i *OV COto/oAOAO+OE jXi i i o+&X#+AOAOAOAOAOAOAOAO/olOO.qO9.i i 0o,oMXKOO AOAOAOAOAOY ",
"+.l AOAOAOAOAOwXB 7.A.5 Qo; 0oi i i i i i i '.0.}o#XAOAOAO+ d D.i i i [o:. +OoAOAOAOAOAOAO/o}XYoAo; i i i aX: A 2.AOAOAOAOAOAOY ",
"Pop OoAOAOAOAO!.+O1O+XpOT  XCoi i i i i i 9.zOx K.L.AOAOAO/OPXi.i i i -XiO{XB OoAOAOAOAOOoROK.UO2O0oi i *Ow @+Ro!.AOAOAOAOAOAOY ",
"C.2 6XO AOAOAO!.RXgX^o|O3X4.GX0oi i i i i 9.D.*.YOhoAOAOAO..~XAoCoi i i PO{o;o- IXL.Ro|.Bo_oZ.'.0oi i -XQo)XeX!.AOAOAOAOAOAOAOY ",
"p.mOZORORXO OouOL.<Xo ,O++@OGX0oi i i i i i ; $Xr h D AOAOAOL.> NO[Oi i 0o'.4.t.W.v.!XloAo Oz i i 9.r.;O@+0O!.AOAOO 2.0O>o< 0O2o",
"ZoIo%OoO`.-.hoRO<X7.4X`OT UXCoi i i i i i i =o; CX!X%oz.AOAO!._ }o)OI i i i 0o-XI CoI ^X9.i i 0oM.w _.DoOoAO!.z.-.j.& cOgOV.:.nX",
";X{ @or M qX&O&Oo 4XO.G.w '.0oi i i i i i i i i dO6o%O%ocoAOAO!.Ro) T k 9.i i i i i i i i i ^X3 G.oo4o!.AOOo-.9O3X7XPOM.IOIOdO8.",
"k.F.[o@o!O$oA.> ,X`OG.@ r.9.i i i i i i i i i i i ^XEO!ONXcoAOAO!./OiX&XEX%.[O9.i i 0o-XM.V 6O) ROO AO!.@XQ.x 3 ^X0oi i i i i q.",
"k.Q 0oGX4.-olX!O0X-os ! *Oi i i i i i i i i i i i i 9.r.: oo9 N.AOAO..RoZO%O: @OkoUXNO;O*X+XROuOAOAOuOW _.(.I i i i 0o9.*O9.0oq.",
"k.Q i 0oaX,ow bo@OV PO-Xi i i i i i i i i i i i i i i i dO@ ,X_Xz.AOAOAOU bX>o@.y y - lOL.OoAOAOOo6X@+T k 9.i 9.; EO(oUO^ KXyXFX",
"k.Q i i i ].; '.%.^X0oi i i i i i i i i 0o0o9.0oi i i i i [O,o++oOu.O AOAOAOAO/o..../oAOAOAO/obXy YX;.[Oi 9.kXx.7o+XKO|ou.|oiXa.",
"k.Q i i i i i i i i i i i i i i i i 9.*o,o7X oUX1XdO*Oi i i i M. orOj.u.O AOAOAOAOAOAOAO..bXn.`O6oM.i i I )O& %o9 ..AOAOAOAO!.xO",
"k.Q i i i i i i i i i i i i i i i I  O:X9XuXSX$o~oKX4.2O-Xi i i 9.%.w lozoW RoD wXuO+ORO#.`OyX'.9.i 0o'.V.^o9 /oAOAOAOAOAOAOAOY ",
"=OQ i i i i i i i i i i i i i i '.boXoYotoB #+(OIX<X| rogO;.I i i i 9.; UX@o++~o`O5.!OT $+[o9.i i dO:O,ODoO AOAO/ocou.W 1O>o~.H.",
"R.4 i i i i i i i i i i i i i I )oCOqX0O..AOAOAOAO!.O bX=X& DOuo9.i i i i 0o^XdO; aXCo*Oi i i 0oGoV.TX2.AOAO!.coW K.`OcO3Xf.}.Ho",
"wO.Xi i i i i i i i i i i i 0o`X3X) B ..AOAOAOAOAOAOAOAOwXIX+X!O$+Co0oi i i i i i i i i i i 0or.aoQ.RXAOAO!.bXoorO$X1X*oaXPO o0 ",
"_OQOi i i i i i i i i i i i 9.$+%OaOuOAOAOAOAOAOAOAOAOAOAO!.+OaOuX@ '.0oi i i i i i i i i 0ouoKXqX/OAOAOAO4oTX6OD.[Oi i i i *OjO",
"qo.Oi i i i i i i i i i i i *O@O:ogX!.AOAOAOAOAOAOAOAOAOAOAOAOuO1O|Oc 1X9.i i i i i i i 0oPO/X{XMOAOAOAO..n.XOFo9.i i i i i i q.",
"{OF.i i i i i i i i i i i i *O4.,XP.AOAOAOAOAOAOAOAOAOAOAOAOAOAOuOKOw.:X'.0oi i i i i i I $XpO +..AOAOAOco}o$X[Oi i i i i i i q.",
"k.Q i i i i i i i i i i i i 9.i.uXgXAOAOAOAOAOAOAOAOAOAOAOAOAOAOAO+o^oCO] I i i i i i i uo{.4XMOAOAOAOAOMONo3 i i i i i i i i q.",
"k.Q i i 9.*o`Xs.k [O0oi i i i uoXOiXOoAOAOAOAOAOAOAOAOAOAOAOAOAOAOO g w./.PO=oi i i i i `X]XcX4oAOAOAOAO_ &XzOi i i i i i i i q.",
"k.Q 0o%.$+-oVO8ot.EXr.*Oi i i ^X@ y.bXAOAOAOAOAOAOAOAOAOAOAOAOAOAOOotow.o.[oi i i i i i GXV.;oho!.AOAOAO@X)X] 9.i i i i i i i q.",
"k.Q XX]XM aOS.S.- {X!O3 9.i i i kX^ K uOAOAOAOAOAOAOAOAOAOAOAOAOAO4o^oXoko-Xi i i i i i -XEO<oQ.RXAOAOAOOo&O^ r.0oi i i i i i q.",
"k.{ <o- 4o..AOAO..4o- lo3 9.i i 9.UX$o|oAOAOAOAOAOAOAOAOAOAOAOAOO 1O,X0.*oi i i i i i i i I  o%ODXOoAOAOAOL.9O;O[o0oi i i i i q.",
"fO* `.OoAOAOAOAOAOAOO - X zO9.i i I @ ) /OAOAOAOAOAOAOAOAOAOAO..|oPX{oo+9.i i i i i i i i i I mX& gX..AOAO/oRO=.}O1X-X0oi i -XS ",
"v q OoAOAOAOAOAOAOAOAOwXto9X! 0oi i *oUOK RXAOAOAOAOAOAOAOAOO |o9OUO! 9.i i i i i i i i i i i ^XQoO.< /oAOAO..u.bO<o4.! '.r.NO0 ",
"zXioAOAO..wXuOwX..AOAOAOOoe.t r.i i i o+f.9o9 /oAOAOAOAO/oBXe.fXV.XX9.i i i i i i i i i i i i i -Xkov.S...AOAO!.4o%o}.r :.f.|OeO",
"1o3O.._ %ooO4X,.iX#+O AOAOOo`o]X*oi i 9.jXlXcXS.4ocoz./O|oooJ @o[o0oi i i i 9.dOk o+o+k Co0oi i i 9. Xr  +OoAOAOAOOobXlODXe.0OWX",
"1o[.KO5.a i.3 %X0.&X&OD AOAOwXK -oaXi i 0o2O;O`O{X| ZO~OGOx V Coi i i i 9.[o] -o9Xv.v.} sXEOM.0oi i 9.FoYX_XOoAOAOAOAO!.!.!.AOY ",
"doyoUOGX-X0oi 0o[Or.}OqX/OAOAOcoqXa Coi i 0odOEO/.UOt.V. o'.9.i i i i -XUX3XkO&ODoB ho|X~X|O{ojX-Xi i 0o2O~o`.uOAOAOAOAOAOAOAOY ",
").b M.i i i i i i i I EX;o_ !.AORXoo:XaXi i i 0o^XO+; M.9.i i i i 9.PODO=.1O9 O AOAOAOAOOo+o1O=.V.2O9.i 0ouoV.9O-.wXsOAOAOAOAOY ",
"rXJoi i i 9.*O0oi i i 9.7X}.2.AOAOD +XiO9.i i i i i i i i i i i 9.FoaooObX!.AOAOAOAOAOAOAOAO!.@X~X8ojX9.i i I NO%O&ORowX!.AO../ ",
"k.Q &.'.qOyX@oQouo*Oi i [Ox.zoz.AO!.MO,OFo0oi i i i i i i i i *O;.XO^o2.!.AOAOAOAOAOAOAOAOAOAOAOuOtoCO;.9.i i -X3 x fX=XS.>oKOpo",
"k.JoD.KoA.~OA =.OX] I i i 2X3X +!.AO!.<X^ uo0oi i i i i i i *O X!Oy /OAOAOAOAOAOAO!.!.!.AOAOAOAOAOO DXX ! 0oi i 9.'.F 5 pOGOr I.",
"=OBOYX- MOcocobX@._ow -Xi i zOE +OAOAO/O,.Ao[o0oi i i i i -X X:.o 2.AOAOAOAOAO..2.RO< |.4o/oAOAOAOAOuO~XaoaXi i i i I `XmXEX7XN ",
"qoh.7.wXAOAOAOAOwX<X5.2Oi i ^XsXe./oAO!.ROw.iO*oi i i i ^X;.3XYo}X!.AOAOAOAOwX-.ZO9O;oM Q.u...AOAOAOAO4ogoUX0oi i i i 0o[OCo-X<O",
"ZX .4oAOAOAOAOAOAOuOZOEX9.i 0o X) z.AOAOuO=XrONOaX9.i -X3 gO)X_X..AOAOAOAOOo>o7 pO:.3XlXNoj.0O!.AOAOAO/og sXI i i i i i i i i q.",
"eoEo/oAOAOAOAOAOAOAOROG.Coi i POJ bXAOAO/o|.kO{oi.GX; o+@o~oqX9 AOAOAOAOAO9 Q.uXao@ 4.boUOSXBocoAOAOAOAO_ W.2Oi i i i i i i i q.",
"LX-OAOAOAOAOAOAOAOAO@XJ k i i M.5 |oAOAOAO4o,.Z yXUX3  o{oGO%owXAOAOAOAO/oIX{XZ hOi.jXEOo.~o~O9 AOAOAOAO/O_.,oi i i i i i i i q.",
"Toc.nononononononono$O$.R # # FO, HXnononoE.3.^Ob.8OJ.tO, 'oB.%+nononono.o'Xj xo'OUon ( 6.5X` d.G nononooXVo[X# # # # # # # # P ",
"                                                                                                                                "
};
