/* XPM */
static const char *render_all_32_xpm[] = {
"32 32 761 2 0 0",
"   c #B7827D",
"!  c #D6AD99",
"#  c #E6B57F",
"$  c #E6B985",
"%  c #DDB571",
"&  c #E8B269",
"'  c #EAB268",
"(  c #E3B36D",
")  c #E0B57C",
"*  c #E7B175",
"+  c #9F5549",
",  c #C0715A",
"-  c #E0C8B0",
".  c #DDC0AE",
"/  c #E5AE7D",
"0  c #EBBA6E",
"1  c #F0C370",
"2  c #F2C366",
"3  c #F7CB6A",
"4  c #DCAC56",
"5  c #AD6A33",
"6  c #AA6731",
"7  c #D8A451",
"8  c #F7CF6C",
"9  c #F5C465",
":  c #F0C36B",
";  c #EFBC69",
"<  c #E7AD6B",
"=  c #D59B76",
">  c #9F3A1B",
"?  c #CC8D74",
"@  c #DDC5AA",
"A  c #D4A975",
"B  c #F5BF6C",
"C  c #FACF79",
"D  c #FACB76",
"E  c #FAC974",
"F  c #F9CB76",
"G  c #D49F5C",
"H  c #254868",
"I  c #0E7EB0",
"J  c #0D7FB4",
"K  c #1F4E71",
"L  c #C69658",
"M  c #F9CB75",
"N  c #FACC76",
"O  c #F6CB76",
"P  c #EFCA78",
"Q  c #F6CE76",
"R  c #E4AE6F",
"S  c #E1B085",
"T  c #A24B29",
"U  c #A14125",
"V  c #E9C4A5",
"W  c #D9B583",
"X  c #FAD784",
"Y  c #FCD587",
"Z  c #FCCF81",
"[  c #FCCC7D",
"]  c #F7C97A",
"^  c #878278",
"_  c #01A3EF",
"`  c #009DFF",
"a  c #01A1F2",
"b  c #767E80",
"c  c #F2C879",
"d  c #E1B974",
"e  c #A46945",
"f  c #8F4D32",
"g  c #A46947",
"h  c #F6D282",
"i  c #F5C780",
"j  c #DFA370",
"k  c #BB7851",
"l  c #A24318",
"m  c #B2614A",
"n  c #E8C7A7",
"o  c #C1865E",
"p  c #BE7337",
"q  c #D89756",
"r  c #F4BF7B",
"s  c #F6D48B",
"t  c #76B5C4",
"u  c #0096FF",
"v  c #0095FF",
"w  c #66B7CD",
"x  c #E0C988",
"y  c #676B11",
"z  c #57C900",
"{  c #4CF400",
"|  c #58BF00",
"}  c #927533",
"~  c #EFC686",
" ! c #F9D18A",
"!! c #E4AE70",
"#! c #ECBE81",
"$! c #B36C3D",
"%! c #9F3913",
"&! c #C7826C",
"'! c #D5B59B",
"(! c #80412A",
")! c #8A4009",
"*! c #AA5B23",
"+! c #FAC986",
",! c #BEC6A8",
"-! c #0495FB",
".! c #ACC5B3",
"/! c #D7BF77",
"0! c #4BE100",
"1! c #44FE00",
"2! c #43FF00",
"3! c #72CC19",
"4! c #DFC67E",
"5! c #FFD595",
"6! c #FAD593",
"7! c #DFA570",
"8! c #EEC489",
"9! c #FAD89D",
":! c #AF6532",
";! c #993A00",
"<! c #99340F",
"=! c #DBA68D",
">! c #D9BDA1",
"?! c #47230D",
"@! c #5E2B00",
"A! c #B86C33",
"B! c #F9D393",
"C! c #C6CCAD",
"D! c #79BACE",
"E! c #75B9D1",
"F! c #BBCCB2",
"G! c #FFDAA0",
"H! c #DEE68C",
"I! c #45FF01",
"J! c #6AF921",
"K! c #E3E08D",
"L! c #FFD99F",
"M! c #F9D39B",
"N! c #E3B791",
"O! c #F9D8A0",
"P! c #F2C68C",
"Q! c #864518",
"R! c #6A2C02",
"S! c #A64001",
"T! c #A74F38",
"U! c #E8BEA2",
"V! c #877463",
"W! c #271507",
"X! c #904B1A",
"Y! c #F2C78D",
"Z! c #FEDFA6",
"[! c #F8DFA7",
"]! c #F7DEA7",
"^! c #FEDFA5",
"_! c #FFDFA9",
"`! c #FBDFAD",
"a! c #77F82F",
"b! c #45FF02",
"c! c #A7F25E",
"d! c #F7E6AC",
"e! c #FFEDB4",
"f! c #FFE4AB",
"g! c #FDE2A8",
"h! c #E4B786",
"i! c #E4BD90",
"j! c #FFDEAD",
"k! c #EFCB98",
"l! c #603C21",
"m! c #190A03",
"n! c #92450A",
"o! c #9E3803",
"p! c #A44732",
"q! c #E8C9AA",
"r! c #715D4B",
"s! c #654023",
"t! c #F1D29C",
"u! c #FFE5B4",
"v! c #FFE4B4",
"w! c #FFE5B3",
"x! c #FAE5B7",
"y! c #D0EF8D",
"z! c #AFF26F",
"{! c #DBEF95",
"|! c #DFC9AB",
"}! c #B78669",
"~! c #A95C47",
" # c #B6876B",
"!# c #EFDEB1",
"## c #FEE0A8",
"$# c #CFAD9A",
"%# c #F7CD99",
"&# c #FFDFB5",
"'# c #FADDAF",
"(# c #AA7C51",
")# c #030100",
"*# c #49200C",
"+# c #BE590B",
",# c #972E04",
"-# c #C37D6C",
".# c #CDB091",
"/# c #A87A55",
"0# c #FBE9B9",
"1# c #FFEABD",
"2# c #FFEBBD",
"3# c #FFEABC",
"4# c #FFEAC0",
"5# c #FFEBC1",
"6# c #F8EDC7",
"7# c #9E3E33",
"8# c #BC0A08",
"9# c #D10100",
":# c #BF0A08",
";# c #AC7460",
"<# c #F3E9BF",
"=# c #D4905D",
"># c #FFE7BA",
"?# c #FFE1BD",
"@# c #FCDFBC",
"A# c #FFF3CD",
"B# c #B07E58",
"C# c #543422",
"D# c #A1511F",
"E# c #B4540A",
"F# c #942A0A",
"G# c #C3816D",
"H# c #DCB58E",
"I# c #F4E6C3",
"J# c #FFF1C8",
"K# c #FFF3CF",
"L# c #E5C0A8",
"M# c #EE0000",
"N# c #FF0000",
"O# c #E7231D",
"P# c #EBC5B6",
"Q# c #EBBE97",
"R# c #FFEDC5",
"S# c #FFE3C2",
"T# c #F9DCBD",
"U# c #FDF4D1",
"V# c #FCEFCC",
"W# c #E8D0B0",
"X# c #BF8E74",
"Y# c #BD6622",
"Z# c #A03A00",
"[# c #932B15",
"]# c #D3A07F",
"^# c #D1C1A6",
"_# c #FFF7D5",
"`# c #FFF5D2",
"a# c #FFF4D2",
"b# c #FFF4D1",
"c# c #FFF5D1",
"d# c #FFF6D7",
"e# c #FDC9B4",
"f# c #FD251F",
"g# c #FDCABE",
"h# c #E9BD97",
"i# c #FFE6C3",
"j# c #FCE4CA",
"k# c #F4D8BD",
"l# c #F3DEC2",
"m# c #FDFADD",
"n# c #FFFCE1",
"o# c #F7F3E2",
"p# c #CCA18C",
"q# c #BC5D13",
"r# c #A53F01",
"s# c #993E2E",
"t# c #8F877F",
"u# c #F4F4DF",
"v# c #FFFCE0",
"w# c #FFFCDF",
"x# c #FFFCE7",
"y# c #FF4D48",
"z# c #FF1210",
"{# c #FF0302",
"|# c #FF0E0D",
"}# c #FF857D",
"~# c #FFF2E9",
" $ c #D99F74",
"!$ c #F9CDA6",
"#$ c #FAE6D1",
"$$ c #F2DAC2",
"%$ c #ECD4BC",
"&$ c #F1E2CD",
"'$ c #E7E7DD",
"($ c #D6D9D3",
")$ c #D2D1CE",
"*$ c #7C5230",
"+$ c #A94B06",
",$ c #88402A",
"-$ c #BBBABC",
".$ c #BFC4BB",
"/$ c #DDDFD7",
"0$ c #DFE1D7",
"1$ c #E0E2D8",
"2$ c #E1E3D9",
"3$ c #E2E4D9",
"4$ c #E3E5DA",
"5$ c #E4E6DA",
"6$ c #E5E6DB",
"7$ c #E6E7DE",
"8$ c #E7CFC8",
"9$ c #E79390",
":$ c #F87671",
";$ c #FF9B96",
"<$ c #FFEEE2",
"=$ c #FFFDEB",
">$ c #C88052",
"?$ c #CE885C",
"@$ c #F8E4D1",
"A$ c #F0DBC8",
"B$ c #EBD7C3",
"C$ c #A9A7A0",
"D$ c #666C70",
"E$ c #B9BCBF",
"F$ c #C7C7C9",
"G$ c #B5BBBE",
"H$ c #6E7B7E",
"I$ c #667D84",
"J$ c #A0A8AB",
"K$ c #BCC0C2",
"L$ c #C4C7C9",
"M$ c #D4D3D6",
"N$ c #D6D5D7",
"O$ c #D8D7D9",
"P$ c #D9D8DB",
"Q$ c #DBD9DC",
"R$ c #DCDBDD",
"S$ c #DEDCDF",
"T$ c #DEDDDF",
"U$ c #E0DFE1",
"V$ c #DDE4E5",
"W$ c #BBCACD",
"X$ c #EAEEE8",
"Y$ c #FFFEF2",
"Z$ c #F5CAAB",
"[$ c #9D5838",
"]$ c #A9653E",
"^$ c #F0CFB9",
"_$ c #EDDBCA",
"`$ c #F2E5D5",
"a$ c #697072",
"b$ c #92999A",
"c$ c #C2A7A7",
"d$ c #EFC7C7",
"e$ c #FAE1E1",
"f$ c #D2C3C5",
"g$ c #687B83",
"h$ c #6E7E83",
"i$ c #C9CACB",
"j$ c #E1D2D1",
"k$ c #FDDDDD",
"l$ c #FDDEDE",
"m$ c #FDDFDF",
"n$ c #FAE0E0",
"o$ c #F6F1F1",
"p$ c #D8DBDC",
"q$ c #D9DCDD",
"r$ c #FDF2E8",
"s$ c #CD855C",
"t$ c #997661",
"u$ c #A57758",
"v$ c #B97144",
"w$ c #F8EEE5",
"x$ c #B8B7B3",
"y$ c #5C6466",
"z$ c #989C9C",
"{$ c #CE8787",
"|$ c #C8807F",
"}$ c #DEA3A2",
"~$ c #F8C6C6",
" % c #CFAFB0",
"!% c #788085",
"#% c #859296",
"$% c #B2A6A4",
"%% c #E6BAB2",
"&% c #F7C5C6",
"'% c #FFC9C8",
"(% c #FFC9C9",
")% c #FFCACA",
"*% c #FDC9C9",
"+% c #ECD5D5",
",% c #EAEFF0",
"-% c #C5CED2",
".% c #DAA787",
"/% c #955125",
"0% c #914E21",
"1% c #D2A38B",
"2% c #717B7D",
"3% c #919898",
"4% c #9A8686",
"5% c #D27B7B",
"6% c #C57877",
"7% c #BC7271",
"8% c #D38E8D",
"9% c #FBBFBF",
":% c #CBA1A2",
";% c #5E7179",
"<% c #83867B",
"=% c #D2B05E",
">% c #CE987C",
"?% c #FEBFC2",
"@% c #FFBBBB",
"A% c #FFBCBC",
"B% c #EEBFC0",
"C% c #E4ECEE",
"D% c #C6D2D8",
"E% c #B07C5C",
"F% c #99623F",
"G% c #886652",
"H% c #747C7F",
"I% c #B4B6B8",
"J% c #DA9E9E",
"K% c #D67979",
"L% c #C26A69",
"M% c #B56161",
"N% c #AB5A59",
"O% c #C97978",
"P% c #F4AAAA",
"Q% c #D0815A",
"R% c #E1C36A",
"S% c #FBEBB5",
"T% c #E4BA50",
"U% c #DB857B",
"V% c #FDA8AA",
"W% c #FFA7A7",
"X% c #FFA7A8",
"Y% c #FFA8A8",
"Z% c #FFAAAA",
"[% c #FFACAD",
"]% c #F8A9A9",
"^% c #D4D9DA",
"_% c #D2D9DA",
"`% c #BFBDB9",
"a% c #767A79",
"b% c #828B8E",
"c% c #A79C9E",
"d% c #EF9996",
"e% c #F99593",
"f% c #E88886",
"g% c #C26563",
"h% c #A8524F",
"i% c #A24F4D",
"j% c #BB6564",
"k% c #BB6349",
"l% c #E8B058",
"m% c #FFFBE8",
"n% c #F9EAAD",
"o% c #D67149",
"p% c #F8989A",
"q% c #FF9E9D",
"r% c #FFA5A4",
"s% c #FFA4A3",
"t% c #FF9C9B",
"u% c #FF8D8D",
"v% c #FF7F7F",
"w% c #B39D9F",
"x% c #B6C0C2",
"y% c #ABB2B5",
"z% c #A7ACAC",
"{% c #525E62",
"|% c #7A898E",
"}% c #C38B83",
"~% c #FD8F7F",
" & c #FF8F80",
"!& c #FF9080",
"#& c #FE9486",
"$& c #F08A7B",
"%& c #C06257",
"&& c #9D4940",
"'& c #883A30",
"(& c #B7763C",
")& c #FCEDBC",
"*& c #FBD588",
"+& c #DA7839",
",& c #F6786D",
"-& c #FF5D4F",
".& c #FF4134",
"/& c #FF2216",
"0& c #FF1505",
"1& c #FF0E00",
"2& c #FF0F00",
"3& c #9A2C29",
"4& c #687478",
"5& c #8B9496",
"6& c #B9BDBF",
"7& c #60696C",
"8& c #404C50",
"9& c #687A80",
":& c #EB8E76",
";& c #FF8D71",
"<& c #FF8D72",
"=& c #FF8F74",
">& c #F98E74",
"?& c #D87862",
"@& c #80392E",
"A& c #82351F",
"B& c #DFB65B",
"C& c #FABF55",
"D& c #D87D41",
"E& c #F33319",
"F& c #FF2B04",
"G& c #FF2900",
"H& c #FF2800",
"I& c #FF2B00",
"J& c #BB3018",
"K& c #6D6C70",
"L& c #7E888A",
"M& c #B4B9BA",
"N& c #9A9EA0",
"O& c #333A3D",
"P& c #061119",
"Q& c #552617",
"R& c #FF6E2D",
"S& c #FF7941",
"T& c #FF804B",
"U& c #FF824D",
"V& c #FF814E",
"W& c #FF7F4B",
"X& c #FF7740",
"Y& c #FF7034",
"Z& c #C23C0D",
"[& c #841802",
"]& c #732312",
"^& c #B28B7E",
"_& c #CDA78A",
"`& c #C65134",
"a& c #FF4900",
"b& c #FF4800",
"c& c #FF4700",
"d& c #E04207",
"e& c #735A53",
"f& c #717C7F",
"g& c #929A9D",
"h& c #797F81",
"i& c #121D23",
"j& c #13171D",
"k& c #97420A",
"l& c #FF5E01",
"m& c #FF5F05",
"n& c #FF620A",
"o& c #FF620B",
"p& c #FF6009",
"q& c #FF5C05",
"r& c #FF5B01",
"s& c #F75B00",
"t& c #D34D00",
"u& c #8E2700",
"v& c #6E210E",
"w& c #7E5B5D",
"x& c #8F696F",
"y& c #D44C18",
"z& c #F75802",
"{& c #FF5900",
"|& c #FF5A00",
"}& c #F05701",
"~& c #7C4D35",
" ' c #717D82",
"!' c #7B8588",
"#' c #C1C4C5",
"$' c #CACBCB",
"%' c #252E32",
"&' c #09161C",
"'' c #3D2817",
"(' c #DC6E03",
")' c #FF7600",
"*' c #FF7500",
"+' c #FF7400",
",' c #FF7900",
"-' c #FD7500",
".' c #EC6900",
"/' c #DF6000",
"0' c #D7660E",
"1' c #EF6C02",
"2' c #FF7100",
"3' c #FF7000",
"4' c #B35910",
"5' c #586E7B",
"6' c #657074",
"7' c #AEB3B6",
"8' c #878E91",
"9' c #071116",
":' c #06141F",
";' c #7B4B0E",
"<' c #F68701",
"=' c #FF8500",
">' c #FF8400",
"?' c #FF8300",
"@' c #FF8200",
"A' c #FF8100",
"B' c #FF8000",
"C' c #DF7402",
"D' c #4E5E67",
"E' c #677277",
"F' c #899294",
"G' c #303739",
"H' c #0A181F",
"I' c #071220",
"J' c #63570F",
"K' c #A08808",
"L' c #A68508",
"M' c #A68608",
"N' c #A78408",
"O' c #A98208",
"P' c #A98308",
"Q' c #A98309",
"R' c #AA830A",
"S' c #AA830B",
"T' c #AB830C",
"U' c #AB840D",
"V' c #AB850E",
"W' c #AD840E",
"X' c #AE840F",
"Y' c #AF8410",
"Z' c #AF8610",
"[' c #A87815",
"]' c #4E595E",
"^' c #5F6B70",
"_' c #727D80",
"`' c #A3A8AA",
"a' c #767B7D",
"b' c #1A2327",
"c' c #0A181E",
"d' c #0F191D",
"e' c #1A1F1C",
"f' c #1B201C",
"g' c #1B211C",
"h' c #1C211C",
"i' c #1C221D",
"j' c #1E2520",
"k' c #212A25",
"l' c #252F2B",
"m' c #27332E",
"n' c #2B3833",
"o' c #2F3D38",
"p' c #34423D",
"q' c #394641",
"r' c #3E4B45",
"s' c #434E49",
"t' c #48544F",
"u' c #495555",
"v' c #566367",
"w' c #5A6669",
"x' c #626D70",
"y' c #A1A7A9",
"z' c #7E8183",
"{' c #2C3439",
"|' c #293337",
"}' c #283337",
"~' c #283237",
" ( c #293237",
"!( c #293338",
"#( c #293438",
"$( c #2A363B",
"%( c #2A383D",
"&( c #303E43",
"'( c #344347",
"(( c #39484C",
")( c #3E4C50",
"*( c #455256",
"+( c #49565A",
",( c #4F5B5F",
"-( c #536063",
".( c #5A6569",
"/( c #5D686C",
"0( c #636E71",
"1( c #677376",
"2( c #6B7578",
"3( c #9EA5A7",
"4( c #5E6365",
"5( c #394145",
"6( c #374145",
"7( c #374246",
"8( c #374346",
"9( c #384348",
":( c #39464A",
";( c #3B484C",
"<( c #435054",
"=( c #485559",
">( c #4E5A5D",
"?( c #546063",
"@( c #586468",
"A( c #5F6A6E",
"B( c #636E72",
"C( c #697478",
"D( c #6F797C",
"E( c #757F82",
"F( c #80898C",
"G( c #8E9799",
"H( c #959D9F",
"I( c #9FA6A8",
"J( c #A5ACAE",
"K( c #AEB4B6",
"L( c #B4B9BC",
"M( c #BBC1C3",
"N( c #C1C7C8",
"O( c #CCD1D2",
"P( c #E1E3E4",
"Q( c #717A7D",
"R( c #3C454A",
"S( c #374146",
"T( c #354044",
"U( c #343E43",
"V( c #323E43",
"W( c #303C41",
"X( c #2F3C40",
"Y( c #2D3B40",
"Z( c #2C3B3F",
"[( c #2B393E",
"]( c #29383C",
"^( c #28373B",
"_( c #27363A",
"`( c #263539",
"a( c #243337",
"b( c #233237",
"c( c #213036",
"d( c #213035",
"e( c #1F2E33",
"f( c #334146",
"g( c #4E5B5F",
"h( c #596569",
"i( c #697376",
"j( c #747D80",
"k( c #818A8D",
"l( c #99A0A3",
"m( c #A3AAAC",
"n( c #B8BDBF",
"o( c #D4D8D9",
"p( c #A2A9AB",
"q( c #8A9396",
"r( c #818B8E",
"s( c #7F888C",
"t( c #7C868A",
"u( c #7A8488",
"v( c #778185",
"w( c #758083",
"x( c #737D81",
"y( c #717B7F",
"z( c #6D787C",
"{( c #6B767A",
"|( c #687477",
"}( c #667276",
"~( c #636F73",
" ) c #616C71",
"!) c #5D696D",
"#) c #5B676B",
"$) c #576468",
"%) c #556266",
"&) c #515E63",
"') c #5C696D",
"() c #6C777B",
")) c #727C80",
"*) c #808A8D",
"+) c #889194",
",) c #8E979A",
"-) c #979FA2",
".) c #9DA5A8",
"/) c #AEB5B7",
"0) c #C2C7C9",
"1) c None",
"1)1)1)  ! 1)1)1)1)1)1)1)# $ % & ' ( ) * 1)1)1)1)1)1)1)1)1)1)1)1)",
"1)1)1)+ , - 1)1). / 0 1 2 3 4 5 6 7 8 9 : ; < = 1)1)1)1)1)1)1)1)",
"1)1)1)1)> ? @ A B C D E F G H I J K L M N O P Q R S 1)1)1)1)1)1)",
"1)1)1)1)T U V W X Y Z [ ] ^ _ ` ` a b c d e f g h i j 1)1)1)1)1)",
"1)1)1)1)k l m n o p q r s t u v v v w x y z { | } ~  !!!1)1)1)1)",
"1)1)1)1)#!$!%!&!'!(!)!*!+!,!-!u v v .!/!0!1!2!2!3!4!5!6!7!1)1)1)",
"1)1)1)8!9!:!;!<!=!>!?!@!A!B!C!D!E!F!G!H!I!2!2!2!J!K!L!G!M!N!1)1)",
"1)1)1)O!P!Q!R!S!T!U!V!W!X!Y!Z![!]!^!_!`!a!b!2!2!c!d!e!f!g!h!1)1)",
"1)1)i!j!k!l!m!n!o!p!q!r!s!t!u!u!u!v!v!w!x!y!z!{!|!}!~! #!###$#1)",
"1)1)%#&#'#(#)#*#+#,#-#.#/#0#1#1#2#3#3#3#1#4#5#6#7#8#9#:#;#<#=#1)",
"1)1)>#?#@#A#B#C#D#E#F#G#H#I#J#J#J#J#J#J#J#J#K#L#M#N#N#N#O#P#Q#1)",
"1)1)R#S#T#U#V#W#X#Y#Z#[#]#^#_#`#a#`#a#`#b#c#d#e#N#N#N#N#f#g#h#1)",
"1)1)i#j#k#l#m#n#o#p#q#r#s#t#u#n#v#w#w#w#w#w#w#x#y#z#{#|#}#~# $1)",
"1)1)!$#$$$%$&$'$($)$*$+$,$-$.$/$0$1$2$3$4$5$6$7$8$9$:$;$<$=$>$1)",
"1)1)?$@$A$B$C$D$E$F$G$H$I$J$K$L$M$N$O$P$Q$R$S$T$U$V$W$X$Y$Z$[$1)",
"1)1)]$^$_$`$a$b$c$d$e$f$g$h$i$j$k$l$l$l$m$m$m$m$n$o$p$q$r$s$t$1)",
"1)1)u$v$w$x$y$z${$|$}$~$ %!%#%$%%%&%'%(%(%(%)%)%*%+%,%-%.%/%1)1)",
"1)1)1)0%1%2%3%4%5%6%7%8%9%:%;%<%=%>%?%@%@%@%A%A%A%B%C%D%E%F%1)1)",
"1)1)1)1)G%H%I%J%K%L%M%N%O%P%Q%R%S%T%U%V%W%X%Y%Z%[%]%^%_%`%1)1)1)",
"1)1)1)1)a%b%c%d%e%f%g%h%i%j%k%l%m%n%o%p%q%r%s%t%u%v%w%x%y%1)1)1)",
"1)1)1)z%{%|%}%~% &!&#&$&%&&&'&(&)&*&+&,&-&.&/&0&1&2&3&4&5&6&1)1)",
"1)1)1)7&8&9&:&;&;&<&<&=&>&?&@&A&B&C&D&E&F&G&H&G&I&I&J&K&L&M&1)1)",
"1)1)N&O&P&Q&R&S&T&U&V&W&X&Y&Z&[&]&^&_&`&a&b&c&c&c&c&d&e&f&g&1)1)",
"1)1)h&i&j&k&l&m&n&o&o&p&q&r&s&t&u&v&w&x&y&z&{&{&{&|&}&~& '!'#'1)",
"1)$'%'&'''(')')'*'*'*'*'+'+'+'+','-'.'/'0'1'2'2'2'3'2'4'5'6'7'1)",
"1)8'9':';'<'='='='='>'>'>'>'?'?'?'?'>'='?'@'A'A'B'B'@'C'D'E'F'1)",
"1)G'H'I'J'K'L'M'L'N'N'N'N'N'O'P'Q'R'S'S'T'U'V'W'X'Y'Z'[']'^'_'`'",
"a'b'c'c'd'e'f'g'f'g'f'f'f'f'h'i'j'k'l'm'n'o'p'q'r's't'u'v'w'x'y'",
"z'{'|'|'|'|'|'}'~' ( (!(!(!(!(#($(%(&('((()(*(+(,(-(.(/(0(1(2(3(",
"4(5(6(6(7(7(8(9(:(;(8&<(=(>(?(@(A(B(C(D(E(F(G(H(I(J(K(L(M(N(O(P(",
"Q(R(S(T(U(V(W(X(Y(Z([(%(](^(_(`(a(b(c(d(e(f(g(h(i(j(k(5&l(m(n(o(",
"p(q(r(s(t(u(v(w(x(y(z({(|(}(~( )!)#)$)%)&)')()))!'*)+),)-).)/)0)"
};
