/* XPM */
static const char *render_all_16_xpm[] = {
"16 16 197 2 0 0",
"   c #F3DFC2",
"!  c #F3DFBE",
"#  c #EFD6AB",
"$  c #EED2A5",
"%  c #F0D6AB",
"&  c #F3E0C2",
"'  c #F1DEC0",
"(  c #F2DDB4",
")  c #F6E3BB",
"*  c #F9E9C1",
"+  c #FDEEC4",
",  c #FEEFC5",
"-  c #FAECBF",
".  c #F5E5B8",
"/  c #F3DDB3",
"0  c #A95942",
"1  c #E8C6AA",
"2  c #F4E1B9",
"3  c #BEB4D5",
"4  c #1B19F9",
"5  c #2725F6",
"6  c #CFC3D3",
"7  c #DDF3AC",
"8  c #45FB2C",
"9  c #3FFC27",
":  c #D7F4A7",
";  c #F6E3B9",
"<  c #F2DFBF",
"=  c #B18362",
">  c #B06853",
"?  c #EECEB0",
"@  c #A79FDC",
"A  c #0101FE",
"B  c #A9A2DC",
"C  c #B2F68A",
"D  c #1EFE0B",
"E  c #19FE07",
"F  c #B1F689",
"G  c #FDF1C9",
"H  c #F2DCB3",
"I  c #F8ECD8",
"J  c #EBD0A8",
"K  c #C99972",
"L  c #B25C46",
"M  c #E2CEC2",
"N  c #7B76E7",
"O  c #EBE2D2",
"P  c #F8F5C9",
"Q  c #92F970",
"R  c #8FF96F",
"S  c #F6F3C7",
"T  c #FEF1CC",
"U  c #F9EBC4",
"V  c #E5C497",
"W  c #F8EBC7",
"X  c #CC8B60",
"Y  c #B76D62",
"Z  c #F6E6C7",
"[  c #FDF6D2",
"]  c #FEF6D2",
"^  c #FDF6D1",
"_  c #FCE4C1",
"`  c #FE7564",
"a  c #FE705F",
"b  c #FDDFBE",
"c  c #E9CDA3",
"d  c #F9F0CD",
"e  c #FCF3CF",
"f  c #B65C31",
"g  c #B46052",
"h  c #F1E3C2",
"i  c #FDF8D6",
"j  c #FEA28B",
"k  c #FF0000",
"l  c #FA9A82",
"m  c #F2E0C3",
"n  c #F4E6C0",
"o  c #F9F7E0",
"p  c #DABB96",
"q  c #9C2D1C",
"r  c #B18478",
"s  c #EBEED6",
"t  c #F8F6D9",
"u  c #F9D4BC",
"v  c #FD312C",
"w  c #FF302B",
"x  c #F4C3A3",
"y  c #D8C9AA",
"z  c #878D8B",
"{  c #D0CCD0",
"|  c #B0AFA8",
"}  c #768388",
"~  c #C1C4C9",
" ! c #E8DCE4",
"!! c #E6DCDE",
"#! c #E8DDE0",
"$! c #EAE0E2",
"%! c #EBEFEA",
"&! c #EAE2CA",
"'! c #81898D",
"(! c #C87978",
")! c #D6A2A2",
"*! c #B2A7AE",
"+! c #8E958F",
",! c #E4B28D",
"-! c #F9C1C5",
".! c #FFC2C2",
"/! c #FFC6C7",
"0! c #F7D5D4",
"1! c #EEF6F5",
"2! c #859397",
"3! c #CFA4A6",
"4! c #EB8481",
"5! c #BB5E5B",
"6! c #B45E5E",
"7! c #C48251",
"8! c #EDD6A7",
"9! c #E78974",
":! c #FF9495",
";! c #FF7E7E",
"<! c #F26C6F",
"=! c #B7A8AD",
">! c #BEC6C8",
"?! c #7A7F81",
"@! c #4F525A",
"A! c #E2866A",
"B! c #FF8F73",
"C! c #FA8D72",
"D! c #D16D54",
"E! c #83301F",
"F! c #C3A474",
"G! c #DF7353",
"H! c #FD2C1A",
"I! c #FF2B0C",
"J! c #F82406",
"K! c #8E413F",
"L! c #9DB4B9",
"M! c #3E4750",
"N! c #763D05",
"O! c #F97100",
"P! c #FF7107",
"Q! c #FF7007",
"R! c #FF6E00",
"S! c #EE6A00",
"T! c #AD4B12",
"U! c #B86C43",
"V! c #EC6508",
"W! c #FF6D00",
"X! c #CB6112",
"Y! c #647E8E",
"Z! c #A8AEAF",
"[! c #717475",
"]! c #0D0F18",
"^! c #856506",
"_! c #AF7C00",
"`! c #AC7400",
"a! c #AB7400",
"b! c #AF7400",
"c! c #B37101",
"d! c #B17505",
"e! c #AE7406",
"f! c #B37708",
"g! c #A96D0A",
"h! c #4E5A63",
"i! c #9AA3A7",
"j! c #585D60",
"k! c #242D31",
"l! c #132535",
"m! c #0E2337",
"n! c #0F2638",
"o! c #12283B",
"p! c #162C3E",
"q! c #1A2F42",
"r! c #1F374A",
"s! c #284254",
"t! c #365062",
"u! c #455D6E",
"v! c #546B7C",
"w! c #617787",
"x! c #7D8689",
"y! c #A2A9AB",
"z! c #969DA0",
"{! c #737B7F",
"|! c #717A7F",
"}! c #6D777D",
"~! c #6A757B",
" # c #69747A",
"!# c #687379",
"## c #677279",
"$# c #667177",
"%# c #636F75",
"&# c #879096",
"'# c #9BA4A9",
"(# c #ABB2B7",
")# c #BCC2C4",
"*# c #E0E3E5",
"+# c None",
"+#+#+#+#  ! # $ $ % ! & +#+#+#+#",
"+#+#+#' ( ) * + , - . / ' +#+#+#",
"+#0 1 2 3 4 5 6 7 8 9 : ; < +#+#",
"+#= > ? @ A A B C D E F G H I +#",
"+#J K L M N N O P Q R S T U J +#",
"+#V W X Y Z [ ] ] ^ _ ` a b V +#",
"+#c d e f g h i i i j k k l c +#",
"+#m n o p q r s t t u v w x m +#",
"+#+#y z { | } ~  !!!#!$!%!&!+#+#",
"+#+#+#'!(!)!*!+!,!-!.!/!0!1!+#+#",
"+#+#2!3!4!5!6!7!8!9!:!;!<!=!>!+#",
"+#?!@!A!B!C!D!E!F!G!H!I!J!K!L!+#",
"+#M!N!O!P!Q!R!S!T!U!V!W!W!X!Y!Z!",
"[!]!^!_!`!`!`!a!b!c!d!e!f!g!h!i!",
"j!k!l!m!n!o!p!q!r!s!t!u!v!w!x!y!",
"z!{!|!}!~! #!###$#%#~!&#'#(#)#*#"
};
