/* XPM */
static const char *REST_xpm[] = {
"32 16 20 1",
" 	c None",
".	c #E5E5E5",
"+	c #323232",
"@	c #0C0C0C",
"#	c #4A4A4A",
"$	c #000000",
"%	c #232323",
"&	c #080808",
"*	c #212121",
"=	c #060606",
"-	c #ADADAD",
";	c #020202",
">	c #B4B4B4",
",	c #131313",
"'	c #444444",
")	c #8C8C8C",
"!	c #494949",
"~	c #9F9F9F",
"{	c #2F2F2F",
"]	c #414141",
"................................",
"................................",
"................................",
"................................",
".......+........................",
".......@...............#........",
"........$..............%$.......",
".........&............*.........",
"..........=-.........;..........",
"...........>,'....)@!...........",
"..............~{]~..............",
"................................",
"................................",
"................................",
"................................",
"................................"};
