/* XPM */
static const char * reverse_xpm[] = {
"26 16 65 1",
" 	c None",
".	c #A3A3A3",
"+	c #C6C6C6",
"@	c #959595",
"#	c #7E7E7E",
"$	c #C1C1C1",
"%	c #C3C3C3",
"&	c #8D8D8D",
"*	c #828282",
"=	c #808080",
"-	c #8A8A8A",
";	c #9D9D9D",
">	c #BCBCBC",
",	c #B5B5B5",
"'	c #484848",
")	c #171717",
"!	c #989898",
"~	c #BABABA",
"{	c #797979",
"]	c #343434",
"^	c #070707",
"/	c #000000",
"(	c #030303",
"_	c #181818",
":	c #060606",
"<	c #010101",
"[	c #3B3B3B",
"}	c #B6B6B6",
"|	c #BBBBBB",
"1	c #626262",
"2	c #0C0C0C",
"3	c #1B1B1B",
"4	c #383838",
"5	c #434343",
"6	c #454545",
"7	c #3A3A3A",
"8	c #1F1F1F",
"9	c #050505",
"0	c #6D6D6D",
"a	c #141414",
"b	c #313131",
"c	c #7C7C7C",
"d	c #B9B9B9",
"e	c #020202",
"f	c #898989",
"g	c #B2B2B2",
"h	c #3E3E3E",
"i	c #2D2D2D",
"j	c #979797",
"k	c #7A7A7A",
"l	c #929292",
"m	c #ADADAD",
"n	c #B1B1B1",
"o	c #BEBEBE",
"p	c #C2C2C2",
"q	c #B0B0B0",
"r	c #131313",
"s	c #0E0E0E",
"t	c #323232",
"u	c #3F3F3F",
"v	c #535353",
"w	c #5E5E5E",
"x	c #C5C5C5",
"y	c #080808",
"z	c #AAAAAA",
"..........................",
".+++++++++++++++++@#$++++.",
".++++++++%.&*=-;>,')!++++.",
".+++++~{]^//////(_:<[}+++.",
".+++|12///345678////90$++.",
".++*a//bcd+++++>6e///:f++.",
".gh//ij++++++++!3/////(k%.",
".+llmn,~op++++++++++++q-+.",
".or/stu'vwj+++++++++xk2yz.",
".%k(/////3!++++++++ji//hg.",
".++f:///e6>+++++dcb//a*++.",
".++$09////876543///21|+++.",
".+++}[<:_(//////^]{~+++++.",
".++++!)',>;-=*&.%++++++++.",
".++++$#@+++++++++++++++++.",
".........................."};
