/* XPM */
static const char *ripple_16[] = {
/* width height num_colors chars_per_pixel */
"16 16 92 1", 
/* colors */
"  c #AA0000",
". c #900000",
"X c #CD0000",
"o c #090000",
"O c #3A0000",
"+ c #460000",
"@ c #4F0000",
"# c #990000",
"$ c #BC0000",
"% c #AF0000",
"& c #950000",
"* c #7B0000",
"= c #B80000",
"- c #310000",
"; c #910000",
": c #B40000",
"> c #260000",
", c #2D0000",
"< c #500000",
"1 c #9A0000",
"2 c #CA0000",
"3 c #730000",
"4 c #060000",
"5 c #BD0000",
"6 c #660000",
"7 c #B00000",
"8 c #150000",
"9 c #3F0000",
"0 c #1D0000",
"q c #0F0000",
"w c #4C0000",
"e c #550000",
"r c #620000",
"t c #620000",
"y c #1E0000",
"u c #AC0000",
"i c #9F0000",
"p c #550000",
"a c #B50000",
"s c #2F0000",
"d c #6B0000",
"f c #2F0000",
"g c #510000",
"h c #9B0000",
"j c #510000",
"k c #8E0000",
"l c #450000",
"z c #440000",
"x c #BE0000",
"c c #B10000",
"v c #2B0000",
"b c #2A0000",
"n c #4D0000",
"m c #C70000",
"M c #030000",
"N c #410000",
"B c #7D0000",
"V c #BA0000",
"C c #630000",
"Z c #630000",
"A c #D00000",
"S c #C30000",
"D c #6C0000",
"F c #300000",
"G c #B60000",
"H c #5F0000",
"J c #2F0000",
"K c #5F0000",
"L c #A90000",
"P c #450000",
"I c #8F0000",
"U c #CC0000",
"Y c #BF0000",
"T c #2C0000",
"R c #B20000",
"E c #2C0000",
"W c #5B0000",
"Q c #A50000",
"! c #170000",
"~ c #420000",
"^ c #350000",
"/ c #280000",
"( c #AE0000",
") c #4A0000",
"_ c #270000",
"` c #A10000",
"' c #1B0000",
"] c #7A0000",
"[ c #4A0000",
"{ c #870000",
"} c #C40000",
"| c #000000",
/* pixels */
">Effffffffffffvy",
"Oet6666666666K)T",
"~3`%7%%%%%%7(&HF",
"l]$UVcccccRYALCF",
"l*5iw,,,,,-Z5 CF",
"l*$IbMMMMMo+aLCF",
"l*$k_|||||4z:LCF",
"l*$k_|||||4z:LCF",
"l*$k_|||||4z:LCF",
"l*$k_|||||4z:LCF",
"l*$;Joooooq[GLCF",
"l*xudjjjjjpBS CF",
"l]=XmSSSSS}2UQrF",
"ND.1hhhhhhhh#{Ws",
"^P@ggggggggg<n9/",
"!'000000000000'8"
};
