/* XPM */
static const char *save_24_xpm[] = {
/* width height num_colors chars_per_pixel */
"    24    24        8            1",
/* colors */
"` c #444244",
". c #acadae",
"# c #5b8db4",
"a c #818f99",
"b c #dededf",
"c c #c4c6c5",
"d c #f9fbf9",
"e c #5e5f68",
/* pixels */
"dddddddddddddddddddddddd",
"db##aeaaaaaaaaeeeae#.ddd",
"d####adddddddb```.a##add",
"d####adddddddb```ca###.d",
"d####adddddddb```.a####d",
"d####addddddbb```ca####d",
"d####adddddddbaaaba####d",
"d#####dddbdbbdbdbb#####d",
"d#########e##e#e#######d",
"d######################d",
"d######################d",
"d######################d",
"d####bcbbcbbcbbbcbb####d",
"d###adbbbbbbbbcbbbda###d",
"d####d.aaaaaaa.aa.da###d",
"d###adbcbccccccccbd####d",
"d###adc..........cda###d",
"d####dc..........cda###d",
"d###adc.....c....cd####d",
"d####d............da###d",
"d###adc.c.c..c.c.cba###d",
"d###abdbdbdbdbdbddba###d",
"dc###aaaaaaaaaaaaaa###cd",
"dddddddddddddddddddddddd"
};
