/* XPM */
static const char *servo_32[] = {
"32 32 426 2 0 0",
"   c #FFFFFF",
"!  c #FCFCFC",
"#  c #FBFBFA",
"$  c #D7D6D5",
"%  c #BFBEBD",
"&  c #B9B8B7",
"'  c #BEBDBC",
"(  c #BBBAB9",
")  c #CCCCCB",
"*  c #F4F3F3",
"+  c #FEFEFE",
",  c #C3C2C1",
"-  c #959391",
".  c #635F5D",
"/  c #514D4B",
"0  c #4E4B49",
"1  c #504D4A",
"2  c #4E4A48",
"3  c #56524F",
"4  c #817E7D",
"5  c #CCCBCA",
"6  c #F4F4F4",
"7  c #ADABAA",
"8  c #3D3936",
"9  c #3C3835",
":  c #3F3A37",
";  c #3E3B38",
"<  c #3A3734",
"=  c #3C3B37",
">  c #464340",
"?  c #3F3C39",
"@  c #474441",
"A  c #4C4845",
"B  c #83807F",
"C  c #EEEEEE",
"D  c #CFCECD",
"E  c #666360",
"F  c #433F3C",
"G  c #3F3B38",
"H  c #322E2B",
"I  c #2B2722",
"J  c #2F2B25",
"K  c #3D3C38",
"L  c #423F3C",
"M  c #47433F",
"N  c #484441",
"O  c #686462",
"P  c #E0E0DF",
"Q  c #CAC8C8",
"R  c #595553",
"S  c #413D3A",
"T  c #3B3734",
"U  c #312E2B",
"V  c #94908B",
"W  c #ABA59C",
"X  c #393835",
"Y  c #413E3A",
"Z  c #45413D",
"[  c #46423E",
"]  c #534F4C",
"^  c #BEBCBB",
"_  c #E4E4E4",
"`  c #777472",
"a  c #423E3B",
"b  c #3E3A37",
"c  c #3A3633",
"d  c #5E5B58",
"e  c #68635F",
"f  c #3F3B37",
"g  c #423E3A",
"h  c #3A3532",
"i  c #615E5B",
"j  c #DAD9D8",
"k  c #FDFDFD",
"l  c #CBC9C9",
"m  c #4A4744",
"n  c #403B39",
"o  c #413C39",
"p  c #413C38",
"q  c #3E3936",
"r  c #3D3935",
"s  c #474340",
"t  c #787472",
"u  c #EFEFEF",
"v  c #BAB9BA",
"w  c #61605F",
"x  c #605F5D",
"y  c #52504D",
"z  c #4B4743",
"{  c #474440",
"|  c #45433F",
"}  c #464440",
"~  c #433E3B",
" ! c #393733",
"!! c #393632",
"#! c #656460",
"$! c #B1B1AF",
"%! c #DFDFDE",
"&! c #D8D7D7",
"'! c #6A6665",
"(! c #474545",
")! c #2D2D2D",
"*! c #303030",
"+! c #525353",
",! c #545556",
"-! c #494A48",
".! c #43433E",
"/! c #34342F",
"0! c #292521",
"1! c #221E1B",
"2! c #1F1E19",
"3! c #252522",
"4! c #2F2D29",
"5! c #816A46",
"6! c #D2B278",
"7! c #DAC7AA",
"8! c #F0E9DE",
"9! c #FCFBFB",
":! c #DADAD9",
";! c #656363",
"<! c #474747",
"=! c #34373A",
">! c #424548",
"?! c #353737",
"@! c #272723",
"A! c #1F1F1A",
"B! c #211D1A",
"C! c #211E1B",
"D! c #25241F",
"E! c #2C2926",
"F! c #5E4D34",
"G! c #E1B568",
"H! c #ECBE6A",
"I! c #E8BD73",
"J! c #DFBE89",
"K! c #D9CBBE",
"L! c #F9F6F3",
"M! c #787573",
"N! c #898988",
"O! c #6C6C6C",
"P! c #676767",
"Q! c #6D6D6F",
"R! c #646369",
"S! c #4B4A4F",
"T! c #37363A",
"U! c #262629",
"V! c #232324",
"W! c #222321",
"X! c #252422",
"Y! c #2C2B28",
"Z! c #483D32",
"[! c #987D54",
"]! c #E0B66B",
"^! c #E6B869",
"_! c #E9BA6C",
"`! c #E7BB6C",
"a! c #E7BA69",
"b! c #E8BD6A",
"c! c #B39567",
"d! c #B7B5B6",
"e! c #F0EFEF",
"f! c #BCBBBA",
"g! c #888888",
"h! c #656565",
"i! c #686868",
"j! c #68686A",
"k! c #67676C",
"l! c #646368",
"m! c #5E5E62",
"n! c #4F4E51",
"o! c #3D3D3D",
"p! c #30312F",
"q! c #292C28",
"r! c #665843",
"s! c #B5945C",
"t! c #E5BA6E",
"u! c #E7BB6D",
"v! c #E9BB6C",
"w! c #E8BA6B",
"x! c #EEC16E",
"y! c #DFB76B",
"z! c #91784D",
"{! c #54493D",
"|! c #4F4C4E",
"}! c #8A8785",
"~! c #CAC9C8",
" # c #686463",
"!# c #666666",
"## c #656469",
"$# c #646468",
"%# c #64656A",
"&# c #63676C",
"'# c #575C5E",
"(# c #494B4B",
")# c #7F694E",
"*# c #D0AC6A",
"+# c #EAC071",
",# c #EEC071",
"-# c #ECBD6D",
".# c #EEC06E",
"/# c #C39C5B",
"0# c #625040",
"1# c #393737",
"2# c #3D3937",
"3# c #45413F",
"4# c #484341",
"5# c #757270",
"6# c #E2E2E1",
"7# c #D2D1D0",
"8# c #6C6867",
"9# c #646262",
":# c #656564",
";# c #646367",
"<# c #626368",
"=# c #616467",
"># c #636567",
"?# c #626163",
"@# c #585053",
"A# c #6E6254",
"B# c #9F8963",
"C# c #D3AF6F",
"D# c #F2C878",
"E# c #D8B16D",
"F# c #5F4D3D",
"G# c #3E3734",
"H# c #3A3636",
"I# c #443F3D",
"J# c #4D4946",
"K# c #4C4744",
"L# c #64605E",
"M# c #E0DFDE",
"N# c #858181",
"O# c #646161",
"P# c #616061",
"Q# c #5E5F5F",
"R# c #606063",
"S# c #616063",
"T# c #616163",
"U# c #616162",
"V# c #626263",
"W# c #626264",
"X# c #656666",
"Y# c #5E6060",
"Z# c #4E5253",
"[# c #504F4F",
"]# c #7E725D",
"^# c #4C463B",
"_# c #393736",
"`# c #3B3736",
"a# c #45413E",
"b# c #4B4543",
"c# c #443F3C",
"d# c #393431",
"e# c #93918F",
"f# c #E5E5E4",
"g# c #FAFAFA",
"h# c #898584",
"i# c #676364",
"j# c #636162",
"k# c #5D5F5F",
"l# c #5F5F5F",
"m# c #5E5E5E",
"n# c #616060",
"o# c #626262",
"p# c #646564",
"q# c #616261",
"r# c #565756",
"s# c #434342",
"t# c #3E3D3C",
"u# c #3B3936",
"v# c #484542",
"w# c #47423F",
"x# c #383330",
"y# c #2B2724",
"z# c #2C2825",
"{# c #6E6C69",
"|# c #AFADAC",
"}# c #8A8887",
"~# c #686465",
" $ c #656465",
"!$ c #616362",
"#$ c #5D5D5D",
"$$ c #616161",
"%$ c #606060",
"&$ c #5E5D61",
"'$ c #525254",
"($ c #484646",
")$ c #3C3936",
"*$ c #252420",
"+$ c #201F1A",
",$ c #2C2A26",
"-$ c #44403D",
".$ c #6F6C6A",
"/$ c #73706D",
"0$ c #A6A3A2",
"1$ c #696665",
"2$ c #646362",
"3$ c #616262",
"4$ c #636365",
"5$ c #5C5A58",
"6$ c #26221F",
"7$ c #221F1B",
"8$ c #2D2A26",
"9$ c #2F2C27",
":$ c #433F3B",
";$ c #73706C",
"<$ c #A7A4A3",
"=$ c #DBDAD9",
">$ c #6F6B6B",
"?$ c #626061",
"@$ c #606261",
"A$ c #585755",
"B$ c #35312E",
"C$ c #26231F",
"D$ c #34302D",
"E$ c #585550",
"F$ c #8B8884",
"G$ c #D9D8D6",
"H$ c #CECDCC",
"I$ c #706C6D",
"J$ c #5E605F",
"K$ c #5F6060",
"L$ c #5A5958",
"M$ c #373432",
"N$ c #44403C",
"O$ c #D6D5D3",
"P$ c #FAF9F9",
"Q$ c #CDCCCC",
"R$ c #6F6E6D",
"S$ c #595959",
"T$ c #5F5F5E",
"U$ c #535350",
"V$ c #635F5C",
"W$ c #5F5956",
"X$ c #736E6B",
"Y$ c #E2E1E0",
"Z$ c #CECDCD",
"[$ c #6F6D6E",
"]$ c #5C5C5C",
"^$ c #575757",
"_$ c #5E5F5E",
"`$ c #5F605C",
"a$ c #686460",
"b$ c #615B58",
"c$ c #736F6C",
"d$ c #D8D8D8",
"e$ c #7C7B7B",
"f$ c #5B5B5B",
"g$ c #636363",
"h$ c #585654",
"i$ c #5F5A57",
"j$ c #645E5B",
"k$ c #66615D",
"l$ c #625D5A",
"m$ c #736F6B",
"n$ c #E1E0E0",
"o$ c #F7F7F7",
"p$ c #CDCDCD",
"q$ c #777777",
"r$ c #5A5A5A",
"s$ c #5A5756",
"t$ c #615C57",
"u$ c #65605C",
"v$ c #65605D",
"w$ c #635E5A",
"x$ c #726D6A",
"y$ c #E0DFDF",
"z$ c #D2D2D2",
"{$ c #8D8D8D",
"|$ c #646464",
"}$ c #565656",
"~$ c #585858",
" % c #5A5855",
"!% c #615C58",
"#% c #635F5B",
"$% c #605B57",
"%% c #BBBBBB",
"&% c #7B7B7B",
"'% c #545454",
"(% c #5D5C5C",
")% c #585754",
"*% c #605A56",
"+% c #64605B",
",% c #605C59",
"-% c #5D5855",
".% c #E3E2E1",
"/% c #F2F2F2",
"0% c #CECECE",
"1% c #9A9A9A",
"2% c #555555",
"3% c #5D5D5C",
"4% c #575552",
"5% c #5D5753",
"6% c #5C5854",
"7% c #54504D",
"8% c #504B48",
"9% c #CCCBC9",
":% c #F9F9F9",
";% c #F3F3F3",
"<% c #A5A5A5",
"=% c #737373",
">% c #575553",
"?% c #5A5450",
"@% c #534E4A",
"A% c #FBFBFB",
"B% c #B6B6B6",
"C% c #8A8A8A",
"D% c #5B5A5A",
"E% c #54514F",
"F% c #504B47",
"G% c #A4A19F",
"H% c #F3F2F2",
"I% c #ECECEC",
"J% c #C4C4C4",
"K% c #8F8F8F",
"L% c #595A59",
"M% c #535250",
"N% c #5A5651",
"O% c #908C8A",
"P% c #919191",
"Q% c #767777",
"R% c #747472",
"S% c #A8A7A5",
"T% c #E5E5E5",
"U% c #E7E7E7",
"V% c None",
"            ! # $ % & ' ( ) * +                                 ",
"            , - . / 0 1 2 3 4 5                                 ",
"        6 7 8 9 : ; < = > ? @ A B C                             ",
"        D E F G 8 H I J K L M N O P                             ",
"        Q R F S T U V W X Y Z [ ] ^                             ",
"        _ ` S a b c d e f g h a i j                             ",
"        k l m n ? S o p q r F s t $                             ",
"        u v w x y z { | } F ~  !!!#!$!%!                        ",
"      &!'!(!)!*!+!,!-!.!/!0!1!2!3!4!5!6!7!8!9!                  ",
"      :!O ;!<!*!=!>!?!@!A!B!C!D!E!F!G!H!I!J!K!L!                ",
"    M!N!O!P!Q!R!S!T!U!V!W!X!Y!Z![!]!^!_!`!a!b!c!d!e!            ",
"    f!g!h!i!j!k!l!m!n!o!p!q!r!s!t!u!v!w!x!y!z!{!|!}!            ",
"      ~! #;!P!!###$#%#&#'#(#)#*#+#,#-#.#/#0#1#2#3#4#5#6#        ",
"      7#8#9#h!:#;#;#<#=#>#?#@#A#B#C#D#E#F#G#H#I#J#K#L#M#        ",
"        N#O#P#Q#R#S#T#U#V#W#X#Y#Z#[#]#^#_#`#a#b#c#d#r e#f#g#    ",
"        h#i#j#k#l#m#n#U#o#o#o#p#q#r#s#t#u#F v#w#x#y#z#8 {#|#    ",
"        }#~# $!$q#m##$l#$$o#o#o#%$%$&$'$($s )$*$+$,$-$.$d /$    ",
"        0$1$2$3$$$l#l#l#l#%$o#o#%$$$W#4$5$a 6$7$8$9$:$;$<$=$    ",
"        l >$?$@$l#%$%$l#%$%$l#%$%$%$$$$$A$B$C$D$c Y E$F$G$      ",
"        H$I$n#J$K$$$$$%$%$o#%$l#l#m#l#l#L$)$M$3#J#N$;$O$P$      ",
"        Q$R$K$l#l#l#l#m#l#%$$$$$o#o#m#m##$S$T$U$V$W$X$Y$        ",
"        Z$[$l#m#m##$]$#$l#l#%$o#o#o#$$$$#$^$_$`$a$b$c$Y$        ",
"        d$e$m##$f$]$f$]$]$#$m#%$g$o#$$$$l#h$i$j$k$l$m$n$        ",
"        o$p$q$]$r$f$f$r$]$f$f$#$%$%$%$l#m#s$t$u$v$w$x$y$        ",
"            z${$|$}$^$~$r$f$r$f$]$l#%$l#f$ %!%u$#%$%x$n$        ",
"            k C %%&%'%}$}$S$S$S$S$]$m#m#(%)%*%+%,%-%X$.%        ",
"                  /%0%1%l#2%}$^$S$f$]$#$3%4%5%6%7%8%9%:%        ",
"                    ! ;%<%=%2%2%~$S$r$f$#$>%?%@%J#t A%          ",
"                            B%C%h!r$S$r$D%E%@%F%G%H%            ",
"                            ! I%J%K%r$]$L%M%N%O%;%              ",
"                                    d$P%Q%R%S%H%                ",
"                                    k I%T%U%g#                  "
};
