/* XPM */
static const char * shader_24_xpm[] = {
"24 24 495 2",
"  	c None",
". 	c #333333",
"+ 	c #323334",
"@ 	c #2C2B36",
"# 	c #272934",
"$ 	c #343531",
"% 	c #3F3D30",
"& 	c #49482B",
"* 	c #47452A",
"= 	c #42412B",
"- 	c #37362F",
"; 	c #323332",
"> 	c #2D2F34",
", 	c #303234",
"' 	c #333334",
") 	c #343433",
"! 	c #2D2D35",
"~ 	c #282836",
"{ 	c #4D4D2E",
"] 	c #939416",
"^ 	c #B6B409",
"/ 	c #B7B406",
"( 	c #B4B402",
"_ 	c #A7A500",
": 	c #989702",
"< 	c #848407",
"[ 	c #71700B",
"} 	c #555417",
"| 	c #38372D",
"1 	c #2F3035",
"2 	c #333234",
"3 	c #333432",
"4 	c #282934",
"5 	c #393E30",
"6 	c #A2A01A",
"7 	c #E6E308",
"8 	c #F1F002",
"9 	c #E4E005",
"0 	c #D5D202",
"a 	c #C1BF01",
"b 	c #B2B103",
"c 	c #A5A204",
"d 	c #9B9904",
"e 	c #8E8D03",
"f 	c #828102",
"g 	c #6A6805",
"h 	c #48461A",
"i 	c #313232",
"j 	c #333236",
"k 	c #292934",
"l 	c #4C4E27",
"m 	c #D3D010",
"n 	c #FFFF04",
"o 	c #FDFB0A",
"p 	c #F8F60F",
"q 	c #F4F20D",
"r 	c #E7E30C",
"s 	c #D0CD06",
"t 	c #BFBC03",
"u 	c #B0AC04",
"v 	c #A3A004",
"w 	c #959304",
"x 	c #878504",
"y 	c #7B7903",
"z 	c #696901",
"A 	c #46440F",
"B 	c #302F2E",
"C 	c #343436",
"D 	c #282935",
"E 	c #49482F",
"F 	c #DDDB0B",
"G 	c #FFFF06",
"H 	c #FEFC09",
"I 	c #FFFF12",
"J 	c #FFFF1E",
"K 	c #FFFF21",
"L 	c #F7F51F",
"M 	c #E1DE14",
"N 	c #C8C50A",
"O 	c #B5B307",
"P 	c #A6A406",
"Q 	c #989703",
"R 	c #8C8B02",
"S 	c #7E7F03",
"T 	c #706E03",
"U 	c #5A5702",
"V 	c #33320E",
"W 	c #302F31",
"X 	c #343434",
"Y 	c #2F2F34",
"Z 	c #313132",
"` 	c #BFBF12",
" .	c #FFFF02",
"..	c #FEFA08",
"+.	c #FFFE11",
"@.	c #FFFF22",
"#.	c #FFFF32",
"$.	c #FFFF38",
"%.	c #FEFF32",
"&.	c #EEEC22",
"*.	c #D0CE15",
"=.	c #B9B60B",
"-.	c #A9A806",
";.	c #9B9A04",
">.	c #8E8D04",
",.	c #808103",
"'.	c #747403",
").	c #5F5E06",
"!.	c #393801",
"~.	c #222114",
"{.	c #333434",
"].	c #333332",
"^.	c #272637",
"/.	c #8B881C",
"(.	c #FEFA01",
"_.	c #F8F504",
":.	c #FDFC0D",
"<.	c #FFFF47",
"[.	c #FFFF3D",
"}.	c #F6F42E",
"|.	c #D4D21A",
"1.	c #BCBA0F",
"2.	c #A9A805",
"3.	c #9A9A03",
"4.	c #808003",
"5.	c #727102",
"6.	c #5C5B04",
"7.	c #3A3804",
"8.	c #151502",
"9.	c #2E2C22",
"0.	c #2F2E34",
"a.	c #41402D",
"b.	c #D4D307",
"c.	c #F8F404",
"d.	c #FAF70B",
"e.	c #FFFF18",
"f.	c #FFFF2F",
"g.	c #FEFF43",
"h.	c #FEFF50",
"i.	c #FFFF4B",
"j.	c #FFFF40",
"k.	c #EFED2E",
"l.	c #D5D321",
"m.	c #BDBB11",
"n.	c #ABA90A",
"o.	c #9D9C08",
"p.	c #8E8C06",
"q.	c #7E7D05",
"r.	c #6A6802",
"s.	c #575404",
"t.	c #363303",
"u.	c #171702",
"v.	c #34340B",
"w.	c #383636",
"x.	c #7A771D",
"y.	c #EFEC01",
"z.	c #F5F108",
"A.	c #FDFC11",
"B.	c #FFFF23",
"C.	c #FEFF38",
"D.	c #FFFF46",
"E.	c #FFFF4A",
"F.	c #FEFF47",
"G.	c #FAF93C",
"H.	c #E9E72C",
"I.	c #D4D221",
"J.	c #BEBB13",
"K.	c #ADAB0D",
"L.	c #9E9C09",
"M.	c #8C8A06",
"N.	c #797705",
"O.	c #676402",
"P.	c #4D4C04",
"Q.	c #2B2B03",
"R.	c #191704",
"S.	c #3F3F04",
"T.	c #403F28",
"U.	c #2A2A34",
"V.	c #9B9A16",
"W.	c #F0EA04",
"X.	c #F6F30B",
"Y.	c #FFFE1D",
"Z.	c #FFFF2A",
"`.	c #FEFF34",
" +	c #FEFE3C",
".+	c #FDFC3D",
"++	c #FBFB3B",
"@+	c #F1F034",
"#+	c #E3DF2B",
"$+	c #CFCB20",
"%+	c #BDB917",
"&+	c #ACA810",
"*+	c #9C990C",
"=+	c #888507",
"-+	c #737006",
";+	c #5D5C03",
">+	c #1F1E03",
",+	c #1B1A04",
"'+	c #4B4A04",
")+	c #4E4E1E",
"!+	c #343430",
"~+	c #B0AE0D",
"{+	c #E9E406",
"]+	c #F5F110",
"^+	c #FCF921",
"/+	c #FCFA29",
"(+	c #F7F42A",
"_+	c #EEEB26",
":+	c #EDEA28",
"<+	c #E9E729",
"[+	c #E1E028",
"}+	c #D5D324",
"|+	c #C6C41D",
"1+	c #B9B517",
"2+	c #A9A611",
"3+	c #95930B",
"4+	c #817E07",
"5+	c #6B6807",
"6+	c #515006",
"7+	c #323306",
"8+	c #181805",
"9+	c #282603",
"0+	c #525104",
"a+	c #6D6D0C",
"b+	c #383930",
"c+	c #B1AE07",
"d+	c #DFDD03",
"e+	c #EDE914",
"f+	c #EFEA1D",
"g+	c #E5E21D",
"h+	c #DDD91A",
"i+	c #D4D118",
"j+	c #D0CD17",
"k+	c #D0CC1B",
"l+	c #CECA1D",
"m+	c #C7C51B",
"n+	c #BAB816",
"o+	c #B1AE16",
"p+	c #9E9D0E",
"q+	c #8C8C0B",
"r+	c #757307",
"s+	c #5D5A05",
"t+	c #3F3E05",
"u+	c #202003",
"v+	c #1A1B04",
"w+	c #3E3B06",
"x+	c #5D5D04",
"y+	c #7D7D06",
"z+	c #363630",
"A+	c #A29C0B",
"B+	c #D5D008",
"C+	c #DCD911",
"D+	c #D7D513",
"E+	c #CAC810",
"F+	c #C1BE0C",
"G+	c #BBB90B",
"H+	c #BAB70D",
"I+	c #B7B40C",
"J+	c #B8B510",
"K+	c #B7B512",
"L+	c #AEAB12",
"M+	c #A3A010",
"N+	c #93920E",
"O+	c #7E7E0A",
"P+	c #676607",
"Q+	c #4C4B06",
"R+	c #1A1906",
"S+	c #2E2C0C",
"T+	c #4C4B08",
"U+	c #636604",
"V+	c #838208",
"W+	c #353530",
"X+	c #8B8909",
"Y+	c #BBB806",
"Z+	c #C3C00C",
"`+	c #BDBB0B",
" @	c #B3B109",
".@	c #ADAA06",
"+@	c #A8A605",
"@@	c #A6A305",
"#@	c #A3A207",
"$@	c #A5A409",
"%@	c #9F9E09",
"&@	c #9A980D",
"*@	c #908D0B",
"=@	c #827F0B",
"-@	c #686606",
";@	c #515005",
">@	c #323104",
",@	c #1B1A05",
"'@	c #2C2A0E",
")@	c #4B4A10",
"!@	c #5D5D0A",
"~@	c #727304",
"{@	c #87890B",
"]@	c #302F34",
"^@	c #6D6C0F",
"/@	c #A19F03",
"(@	c #A8A505",
"_@	c #A5A205",
":@	c #9D9B04",
"<@	c #999703",
"[@	c #979603",
"}@	c #929002",
"|@	c #929103",
"1@	c #8F8E04",
"2@	c #878403",
"3@	c #7F7E05",
"4@	c #777505",
"5@	c #676503",
"6@	c #505003",
"7@	c #343403",
"8@	c #1E1C03",
"9@	c #2D2B12",
"0@	c #4E4F1A",
"a@	c #636215",
"b@	c #706F11",
"c@	c #858308",
"d@	c #6E6A1C",
"e@	c #2F2E38",
"f@	c #4F4F1A",
"g@	c #888502",
"h@	c #918E03",
"i@	c #949204",
"j@	c #8F8C03",
"k@	c #8A8601",
"l@	c #868401",
"m@	c #868403",
"n@	c #818101",
"o@	c #7B7901",
"p@	c #726F02",
"q@	c #686702",
"r@	c #5B5A03",
"s@	c #494802",
"t@	c #353502",
"u@	c #1D1D02",
"v@	c #2A2812",
"w@	c #504F21",
"x@	c #6A6924",
"y@	c #777520",
"z@	c #7F7D17",
"A@	c #959308",
"B@	c #5A5626",
"C@	c #303135",
"D@	c #383928",
"E@	c #686608",
"F@	c #7E7B04",
"G@	c #838004",
"H@	c #817E04",
"I@	c #7F7D03",
"J@	c #7C7B03",
"K@	c #7C7B04",
"L@	c #777603",
"M@	c #6E6C03",
"N@	c #646203",
"O@	c #5B5A04",
"P@	c #4A4903",
"Q@	c #383605",
"R@	c #232003",
"S@	c #211F09",
"T@	c #454420",
"U@	c #6B692B",
"V@	c #83812F",
"W@	c #8F8D2A",
"X@	c #96931B",
"Y@	c #9F9D10",
"Z@	c #41412E",
"`@	c #303235",
" #	c #444214",
".#	c #616000",
"+#	c #6C6904",
"@#	c #716F04",
"##	c #727202",
"$#	c #6D6A03",
"%#	c #646305",
"&#	c #595703",
"*#	c #4E4D05",
"=#	c #3D3C05",
"-#	c #282601",
";#	c #1F1E07",
">#	c #3C3A1A",
",#	c #64632C",
"'#	c #878539",
")#	c #9F9D3F",
"!#	c #A8A538",
"~#	c #BCBC26",
"{#	c #807E23",
"]#	c #2A2A37",
"^#	c #313334",
"/#	c #32322D",
"(#	c #3B3A06",
"_#	c #4C4C01",
":#	c #595704",
"<#	c #5E5D06",
"[#	c #5F5E04",
"}#	c #616005",
"|#	c #5B5A05",
"1#	c #504F05",
"2#	c #474606",
"3#	c #393806",
"4#	c #262405",
"5#	c #1C1A04",
"6#	c #2E2D11",
"7#	c #555322",
"8#	c #7B7A2F",
"9#	c #A4A244",
"0#	c #B9B649",
"a#	c #CECC42",
"b#	c #B9B52F",
"c#	c #413D32",
"d#	c #2C2F33",
"e#	c #343437",
"f#	c #2B2B22",
"g#	c #242400",
"h#	c #333204",
"i#	c #3D3C04",
"j#	c #464505",
"k#	c #464504",
"l#	c #404005",
"m#	c #393705",
"n#	c #2B2A05",
"o#	c #1F1E06",
"p#	c #1A1905",
"q#	c #2A280C",
"r#	c #4F4E17",
"s#	c #747227",
"t#	c #959336",
"u#	c #B6B446",
"v#	c #D5D24A",
"w#	c #DEDD3A",
"x#	c #5C5A32",
"y#	c #282834",
"z#	c #333433",
"A#	c #323336",
"B#	c #212020",
"C#	c #111103",
"D#	c #1B1B03",
"E#	c #1C1D02",
"F#	c #1B1B06",
"G#	c #181905",
"H#	c #232207",
"I#	c #323206",
"J#	c #49480D",
"K#	c #636111",
"L#	c #807E1F",
"M#	c #A09F2E",
"N#	c #C3C133",
"O#	c #D2D032",
"P#	c #6E6D2E",
"Q#	c #262834",
"R#	c #333335",
"S#	c #353538",
"T#	c #2B2C22",
"U#	c #242407",
"V#	c #222002",
"W#	c #212104",
"X#	c #272603",
"Y#	c #2C2B04",
"Z#	c #373607",
"`#	c #444406",
" $	c #535106",
".$	c #626108",
"+$	c #75730B",
"@$	c #8D8C10",
"#$	c #ABAB15",
"$$	c #A7A61C",
"%$	c #56562C",
"&$	c #272735",
"*$	c #353637",
"=$	c #36362F",
"-$	c #3D3D1D",
";$	c #4D4B0B",
">$	c #555401",
",$	c #5B5C00",
"'$	c #616200",
")$	c #696800",
"!$	c #737201",
"~$	c #7E7E00",
"{$	c #8A8906",
"]$	c #898A0D",
"^$	c #67641F",
"/$	c #292A33",
"($	c #323236",
"_$	c #373731",
":$	c #434029",
"<$	c #4A4824",
"[$	c #575619",
"}$	c #5C5716",
"|$	c #5B5B1B",
"1$	c #4E4D22",
"2$	c #49482A",
"3$	c #383831",
"4$	c #2B2A36",
"5$	c #2F3034",
"6$	c #343333",
". . . . . . + @ # $ % & * = - ; > , . . . . . . ",
". . ' . ) ! ~ { ] ^ / ( _ : < [ } | 1 2 . ' . . ",
". . . 3 4 5 6 7 8 9 0 a b c d e f g h i ' j ' . ",
". . . k l m n o p q r s t u v w x y z A B C . . ",
". ) D E F G H I J K L M N O P Q R S T U V W X . ",
". Y Z `  ...+.@.#.$.%.&.*.=.-.;.>.,.'.).!.~.2 {.",
"].^./.(._.:.J #.<.<.[.}.|.1.2.3.>.4.5.6.7.8.9.C ",
"0.a.b.c.d.e.f.g.h.i.j.k.l.m.n.o.p.q.r.s.t.u.v.w.",
"^.x.y.z.A.B.C.D.E.F.G.H.I.J.K.L.M.N.O.P.Q.R.S.T.",
"U.V.W.X.Y.Z.`. +.+++@+#+$+%+&+*+=+-+;+S.>+,+'+)+",
"!+~+{+]+^+/+(+_+:+<+[+}+|+1+2+3+4+5+6+7+8+9+0+a+",
"b+c+d+e+f+g+h+i+j+k+l+m+n+o+p+q+r+s+t+u+v+w+x+y+",
"z+A+B+C+D+E+F+G+H+I+J+K+L+M+N+O+P+Q+Q.R+S+T+U+V+",
"W+X+Y+Z+`+ @.@+@@@#@$@%@&@*@=@-@;@>@,@'@)@!@~@{@",
"]@^@/@(@_@:@<@[@}@|@1@2@3@4@5@6@7@8@9@0@a@b@c@d@",
"e@f@g@h@i@j@k@l@m@n@o@p@q@r@s@t@u@v@w@x@y@z@A@B@",
"C@D@E@F@G@H@I@J@K@L@M@N@O@P@Q@R@S@T@U@V@W@X@Y@Z@",
". `@ #.#+#@###5.5.$#%#&#*#=#-#;#>#,#'#)#!#~#{#]#",
"' ^#/#(#_#:#<#[#}#|#1#2#3#4#5#6#7#8#9#0#a#b#c#d#",
". . e#f#g#h#i#j#k#l#m#n#o#p#q#r#s#t#u#v#w#x#y#. ",
". . z#A#B#C#8.D#E#F#G#R+H#I#J#K#L#M#N#O#P#Q#R#. ",
". . . z#S#T#U#V#W#X#Y#Z#`# $.$+$@$#$$$%$&$' . . ",
". . . . ].*$=$-$;$>$,$'$)$!$~${$]$^$b+/$. . . . ",
". . . . . ].R#($_$:$<$[$}$|$1$2$3$4$5$6$. . . . "};
