/* XPM */
static const char * shader_32_xpm[] = {
"32 32 852 2",
"  	c None",
". 	c #333333",
"+ 	c #343334",
"@ 	c #313132",
"# 	c #272C34",
"$ 	c #292B33",
"% 	c #2E2D38",
"& 	c #343234",
"* 	c #373732",
"= 	c #373633",
"- 	c #363533",
"; 	c #343233",
"> 	c #2E2D35",
", 	c #2E3035",
"' 	c #2D2F34",
") 	c #303334",
"! 	c #323433",
"~ 	c #343433",
"{ 	c #303034",
"] 	c #262836",
"^ 	c #2F2E36",
"/ 	c #5A5827",
"( 	c #817F18",
"_ 	c #8A8715",
": 	c #97960E",
"< 	c #A0A009",
"[ 	c #979306",
"} 	c #8F8B07",
"| 	c #7A7C0C",
"1 	c #666514",
"2 	c #59591A",
"3 	c #464523",
"4 	c #34342C",
"5 	c #2E2F37",
"6 	c #323235",
"7 	c #333335",
"8 	c #333234",
"9 	c #333332",
"0 	c #282935",
"a 	c #625F2A",
"b 	c #AAAE13",
"c 	c #D6D803",
"d 	c #DAD800",
"e 	c #D3D100",
"f 	c #C8C500",
"g 	c #B9B801",
"h 	c #ADAD02",
"i 	c #A3A102",
"j 	c #9C9A02",
"k 	c #959401",
"l 	c #898801",
"m 	c #797A03",
"n 	c #636110",
"o 	c #434123",
"p 	c #32322F",
"q 	c #323136",
"r 	c #333235",
"s 	c #323332",
"t 	c #343432",
"u 	c #272835",
"v 	c #454A2C",
"w 	c #B1B117",
"x 	c #EFEA08",
"y 	c #F5F302",
"z 	c #EAE808",
"A 	c #E3DF08",
"B 	c #DAD805",
"C 	c #CCCB03",
"D 	c #C0BD01",
"E 	c #B7B405",
"F 	c #A9A703",
"G 	c #A19E05",
"H 	c #989606",
"I 	c #8E8C05",
"J 	c #868506",
"K 	c #7D7E01",
"L 	c #6D6D00",
"M 	c #54520F",
"N 	c #36372A",
"O 	c #303233",
"P 	c #333334",
"Q 	c #333236",
"R 	c #333431",
"S 	c #262733",
"T 	c #5E6022",
"U 	c #DEDB12",
"V 	c #FFFB03",
"W 	c #FBF80A",
"X 	c #F7F50E",
"Y 	c #F6F40F",
"Z 	c #F1EE0B",
"` 	c #EDE90D",
" .	c #DBD807",
"..	c #CCC904",
"+.	c #C0BD03",
"@.	c #B3B103",
"#.	c #AAA604",
"$.	c #A3A005",
"%.	c #969403",
"&.	c #8C8908",
"*.	c #807E04",
"=.	c #777506",
"-.	c #6A6B03",
";.	c #525205",
">.	c #373622",
",.	c #313234",
"'.	c #262437",
").	c #6C6D22",
"!.	c #E4E408",
"~.	c #FFFB09",
"{.	c #FBF907",
"].	c #FCFD0C",
"^.	c #FFFE10",
"/.	c #FEFE19",
"(.	c #FDFC17",
"_.	c #F9F618",
":.	c #E9E513",
"<.	c #D9D60D",
"[.	c #C6C406",
"}.	c #BAB807",
"|.	c #AFAC06",
"1.	c #A3A004",
"2.	c #989703",
"3.	c #8F8D00",
"4.	c #858400",
"5.	c #7C7C04",
"6.	c #707004",
"7.	c #625E03",
"8.	c #454207",
"9.	c #2C2C1F",
"0.	c #343438",
"a.	c #242635",
"b.	c #55562E",
"c.	c #E3DF0D",
"d.	c #FFFD06",
"e.	c #FBF808",
"f.	c #FEFC0B",
"g.	c #FFFE13",
"h.	c #FFFF1D",
"i.	c #FFFF27",
"j.	c #FFFF2A",
"k.	c #FEFE29",
"l.	c #F6F523",
"m.	c #E1DF17",
"n.	c #CFCC10",
"o.	c #BDBB0A",
"p.	c #B0AD07",
"q.	c #A7A507",
"r.	c #9B9905",
"s.	c #939104",
"t.	c #8A8904",
"u.	c #7D7D02",
"v.	c #727102",
"w.	c #666305",
"x.	c #515103",
"y.	c #313105",
"z.	c #2A2924",
"A.	c #343535",
"B.	c #2D2D33",
"C.	c #3B3831",
"D.	c #C0C111",
"E.	c #FFFD04",
"F.	c #F9F504",
"G.	c #FEFA0A",
"H.	c #FFFD10",
"I.	c #FFFE1D",
"J.	c #FFFF2B",
"K.	c #FFFF35",
"L.	c #FEFE3B",
"M.	c #FEFE38",
"N.	c #FBFD2D",
"O.	c #EBE921",
"P.	c #D5D219",
"Q.	c #C2BF11",
"R.	c #B3B008",
"S.	c #A7A605",
"T.	c #9C9B04",
"U.	c #939205",
"V.	c #888803",
"W.	c #808003",
"X.	c #777704",
"Y.	c #686705",
"Z.	c #545206",
"`.	c #353402",
" +	c #1D1C0A",
".+	c #2D2D2B",
"++	c #343435",
"@+	c #323333",
"#+	c #282739",
"$+	c #969217",
"%+	c #FBF702",
"&+	c #F5F205",
"*+	c #F9F704",
"=+	c #FEFC0F",
"-+	c #FFFE1B",
";+	c #FFFF26",
">+	c #FFFF38",
",+	c #FFFF45",
"'+	c #FEFF40",
")+	c #F3F22A",
"!+	c #D5D418",
"~+	c #C3C114",
"{+	c #B7B40B",
"]+	c #A8A605",
"^+	c #9A9902",
"/+	c #949404",
"(+	c #878703",
"_+	c #7F7F03",
":+	c #757402",
"<+	c #666405",
"[+	c #515004",
"}+	c #373506",
"|+	c #151302",
"1+	c #222213",
"2+	c #373434",
"3+	c #2B2A31",
"4+	c #4E4D2C",
"5+	c #DBDB07",
"6+	c #F6F104",
"7+	c #F6F207",
"8+	c #FCFA0B",
"9+	c #FFFE16",
"0+	c #FFFF47",
"a+	c #FEFF50",
"b+	c #FEFF4B",
"c+	c #FFFF44",
"d+	c #FDFC39",
"e+	c #F0ED2E",
"f+	c #DAD822",
"g+	c #C3C215",
"h+	c #B5B30D",
"i+	c #9E9D07",
"j+	c #949305",
"k+	c #898806",
"l+	c #7E7D05",
"m+	c #6D6C00",
"n+	c #605E04",
"o+	c #4F4D03",
"p+	c #333103",
"q+	c #161503",
"r+	c #242304",
"s+	c #3A3724",
"t+	c #343239",
"u+	c #2D2A39",
"v+	c #8C8C15",
"w+	c #F0EC02",
"x+	c #F2EE05",
"y+	c #F9F50B",
"z+	c #FEFD13",
"A+	c #FFFF1F",
"B+	c #FFFF32",
"C+	c #FFFF3F",
"D+	c #FEFF49",
"E+	c #FEFF4D",
"F+	c #FFFF4A",
"G+	c #FBF938",
"H+	c #E7E42B",
"I+	c #D7D423",
"J+	c #C7C518",
"K+	c #B7B40F",
"L+	c #ABA80C",
"M+	c #9F9E0A",
"N+	c #929105",
"O+	c #878506",
"P+	c #7B7905",
"Q+	c #6C6A02",
"R+	c #5D5A04",
"S+	c #4A4805",
"T+	c #2F2E02",
"U+	c #181704",
"V+	c #292803",
"W+	c #464610",
"X+	c #373439",
"Y+	c #2E2F34",
"Z+	c #3E3A2E",
"`+	c #C9C407",
" @	c #ECE904",
".@	c #F3EF08",
"+@	c #FBFA0C",
"@@	c #FEFE27",
"#@	c #FEFF35",
"$@	c #FFFF42",
"%@	c #FFFF46",
"&@	c #FFFF49",
"*@	c #FEFE47",
"=@	c #FDFC40",
"-@	c #F3F334",
";@	c #E6E429",
">@	c #D8D522",
",@	c #C6C418",
"'@	c #ABAA0D",
")@	c #A09F0B",
"!@	c #928F05",
"~@	c #868308",
"{@	c #757205",
"]@	c #696500",
"^@	c #585604",
"/@	c #3F4003",
"(@	c #262704",
"_@	c #171404",
":@	c #2C2B05",
"<@	c #4F5007",
"[@	c #3C3B2B",
"}@	c #2A2B35",
"|@	c #565727",
"1@	c #D5D008",
"2@	c #ECE605",
"3@	c #F4F009",
"4@	c #FDFB15",
"5@	c #FFFF23",
"6@	c #FEFF2A",
"7@	c #FEFF33",
"8@	c #FEFF3B",
"9@	c #FFFF40",
"0@	c #FEFD40",
"a@	c #FCFC3D",
"b@	c #F8F739",
"c@	c #EEEC32",
"d@	c #E3E02C",
"e@	c #D1CE20",
"f@	c #C5C21B",
"g@	c #B6B211",
"h@	c #AAA70F",
"i@	c #9E9B0D",
"j@	c #918D08",
"k@	c #827E07",
"l@	c #716E05",
"m@	c #615F03",
"n@	c #4D4D04",
"o@	c #343504",
"p@	c #1E1D02",
"q@	c #181703",
"r@	c #333205",
"s@	c #5B5A05",
"t@	c #464627",
"u@	c #2A2A35",
"v@	c #6E701F",
"w@	c #D9D509",
"x@	c #EAE407",
"y@	c #F4F10B",
"z@	c #FCF919",
"A@	c #FFFD27",
"B@	c #FFFE2C",
"C@	c #FCFC2F",
"D@	c #F7F62E",
"E@	c #F4F22D",
"F@	c #F5F22F",
"G@	c #F2F12E",
"H@	c #ECEB2D",
"I@	c #E2DF29",
"J@	c #D9D626",
"K@	c #CBC71E",
"L@	c #C1BD1B",
"M@	c #B6B215",
"N@	c #A9A411",
"O@	c #9A970B",
"P@	c #8C8808",
"Q@	c #7B7804",
"R@	c #6C6A07",
"S@	c #585805",
"T@	c #434404",
"U@	c #2C2C06",
"V@	c #1A1805",
"W@	c #1C1B02",
"X@	c #3B3A07",
"Y@	c #626102",
"Z@	c #5A5A19",
"`@	c #2C2D34",
" #	c #848312",
".#	c #D6D203",
"+#	c #E3E206",
"@#	c #F0EC10",
"##	c #F9F41C",
"$#	c #F8F322",
"%#	c #F5F226",
"&#	c #EFEB24",
"*#	c #E9E522",
"=#	c #E3DF1E",
"-#	c #E6E124",
";#	c #DFDC24",
">#	c #DBD924",
",#	c #DAD825",
"'#	c #CDCC1F",
")#	c #C3C21C",
"!#	c #B9B616",
"~#	c #B0AE13",
"{#	c #A4A10F",
"]#	c #95930C",
"^#	c #868408",
"/#	c #757207",
"(#	c #646108",
"_#	c #4F4D06",
":#	c #3A3906",
"<#	c #212305",
"[#	c #171804",
"}#	c #2C2B03",
"|#	c #484606",
"1#	c #616102",
"2#	c #7E7E06",
"3#	c #2D2D35",
"4#	c #817F15",
"5#	c #CFCB00",
"6#	c #DDDB04",
"7#	c #EAE512",
"8#	c #EFE91C",
"9#	c #E9E41C",
"0#	c #DFDD1B",
"a#	c #D9D619",
"b#	c #D4D118",
"c#	c #CECB15",
"d#	c #CCC914",
"e#	c #CECB1A",
"f#	c #CBC81A",
"g#	c #CBC71C",
"h#	c #C4C21A",
"i#	c #B8B514",
"j#	c #B6B319",
"k#	c #A9A713",
"l#	c #99990D",
"m#	c #8C8C0B",
"n#	c #7D7C09",
"o#	c #696705",
"p#	c #585505",
"q#	c #403E04",
"r#	c #292903",
"s#	c #171903",
"t#	c #1F1E05",
"u#	c #3C3907",
"v#	c #555507",
"w#	c #696903",
"x#	c #7E7E08",
"y#	c #797417",
"z#	c #C5BF04",
"A#	c #D7D308",
"B#	c #DDD910",
"C#	c #DDDA13",
"D#	c #D6D213",
"E#	c #CBC911",
"F#	c #C5C20E",
"G#	c #BEBC0C",
"H#	c #BEBC0E",
"I#	c #BDBA0F",
"J#	c #BAB70E",
"K#	c #B9B60E",
"L#	c #BDB913",
"M#	c #B8B713",
"N#	c #B0AE12",
"O#	c #ABA813",
"P#	c #9E9C0E",
"Q#	c #93920E",
"R#	c #83820B",
"S#	c #737208",
"T#	c #616008",
"U#	c #4B4A05",
"V#	c #343404",
"W#	c #1A1A06",
"X#	c #302E0D",
"Y#	c #484609",
"Z#	c #5A5A04",
"`#	c #6D6E04",
" $	c #84820C",
".$	c #706D16",
"+$	c #B2AD06",
"@$	c #C6C109",
"#$	c #CDCB0F",
"$$	c #CBC90E",
"%$	c #C3C10C",
"&$	c #BAB70B",
"*$	c #B6B208",
"=$	c #B0AD06",
"-$	c #AEAA07",
";$	c #AEAB09",
">$	c #ABA908",
",$	c #ACAB09",
"'$	c #ADAA0C",
")$	c #A7A60C",
"!$	c #A4A310",
"~$	c #9B990D",
"{$	c #918E09",
"]$	c #8A8710",
"^$	c #757309",
"/$	c #606002",
"($	c #504F07",
"_$	c #393A04",
":$	c #222202",
"<$	c #1C1A09",
"[$	c #2E2C0D",
"}$	c #45430F",
"|$	c #525309",
"1$	c #626307",
"2$	c #747603",
"3$	c #8D8D07",
"4$	c #2E2F36",
"5$	c #5F5E18",
"6$	c #9D9C01",
"7$	c #B2AF05",
"8$	c #B8B409",
"9$	c #B5B209",
"0$	c #B0AE09",
"a$	c #AAA807",
"b$	c #A6A304",
"c$	c #A4A205",
"d$	c #A09F04",
"e$	c #9E9C03",
"f$	c #9C9B05",
"g$	c #9D9D08",
"h$	c #9B9B08",
"i$	c #959406",
"j$	c #92900A",
"k$	c #8D8A0B",
"l$	c #83810A",
"m$	c #757108",
"n$	c #626004",
"o$	c #515104",
"p$	c #3E3D06",
"q$	c #262301",
"r$	c #1C1A07",
"s$	c #2B2A10",
"t$	c #444511",
"u$	c #575610",
"v$	c #63620D",
"w$	c #6F6D0A",
"x$	c #838503",
"y$	c #7E7E17",
"z$	c #4A4722",
"A$	c #868603",
"B$	c #9F9C06",
"C$	c #A5A305",
"D$	c #9F9C04",
"E$	c #9A9803",
"F$	c #979503",
"G$	c #949203",
"H$	c #8F8D01",
"I$	c #918F02",
"J$	c #8F8E03",
"K$	c #898603",
"L$	c #828103",
"M$	c #7D7C05",
"N$	c #777503",
"O$	c #6D6D04",
"P$	c #626104",
"Q$	c #3B3D03",
"R$	c #262501",
"S$	c #1D1B04",
"T$	c #2E2C12",
"U$	c #48471B",
"V$	c #5D5D1A",
"W$	c #666515",
"X$	c #716F13",
"Y$	c #79750E",
"Z$	c #8F8F07",
"`$	c #5F5B23",
" %	c #313035",
".%	c #3A382F",
"+%	c #6E6F05",
"@%	c #8E8A06",
"#%	c #929003",
"$%	c #969502",
"%%	c #959205",
"&%	c #8F8C02",
"*%	c #8B8802",
"=%	c #888601",
"-%	c #878501",
";%	c #878503",
">%	c #848301",
",%	c #7F7E00",
"'%	c #7B7902",
")%	c #747102",
"!%	c #6B6A01",
"~%	c #656403",
"{%	c #575702",
"]%	c #4A4801",
"^%	c #3C3C02",
"/%	c #2A2A03",
"(%	c #1C1B06",
"_%	c #2C2912",
":%	c #4A4820",
"<%	c #605F24",
"[%	c #6D6D23",
"}%	c #73721C",
"|%	c #7B7916",
"1%	c #868210",
"2%	c #949407",
"3%	c #4E482F",
"4%	c #313134",
"5%	c #55560F",
"6%	c #7A7705",
"7%	c #827E06",
"8%	c #888603",
"9%	c #898605",
"0%	c #868303",
"a%	c #848103",
"b%	c #7F7D02",
"c%	c #807F04",
"d%	c #828006",
"e%	c #7B7A04",
"f%	c #747403",
"g%	c #6F6D04",
"h%	c #686404",
"i%	c #5F5E04",
"j%	c #565503",
"k%	c #494704",
"l%	c #3B3A05",
"m%	c #1B1900",
"n%	c #22210B",
"o%	c #41401E",
"p%	c #5D5B27",
"q%	c #6E6D26",
"r%	c #7F7D28",
"s%	c #878526",
"t%	c #8A881B",
"u%	c #959210",
"v%	c #94930C",
"w%	c #3D3D2E",
"x%	c #2F3232",
"y%	c #3C3B26",
"z%	c #625F06",
"A%	c #737104",
"B%	c #7A7802",
"C%	c #7C7906",
"D%	c #797703",
"E%	c #7B7A03",
"F%	c #797806",
"G%	c #787802",
"H%	c #747303",
"I%	c #6F6E03",
"J%	c #5F5D02",
"K%	c #5B5905",
"L%	c #3E3D03",
"M%	c #313005",
"N%	c #221F03",
"O%	c #22210A",
"P%	c #383717",
"Q%	c #565426",
"R%	c #71702F",
"S%	c #868534",
"T%	c #959338",
"U%	c #989629",
"V%	c #9B9923",
"W%	c #ADAC14",
"X%	c #797721",
"Y%	c #2B2B39",
"Z%	c #323335",
"`%	c #323331",
" &	c #44410E",
".&	c #5B5903",
"+&	c #666402",
"@&	c #6B6805",
"#&	c #706F03",
"$&	c #707001",
"%&	c #6E6E03",
"&&	c #727200",
"*&	c #717003",
"=&	c #6A6801",
"-&	c #686706",
";&	c #5D5D05",
">&	c #565504",
",&	c #4D4B03",
"'&	c #434208",
")&	c #333203",
"!&	c #252402",
"~&	c #1D1C04",
"{&	c #323115",
"]&	c #4E4E22",
"^&	c #6E6C31",
"/&	c #858437",
"(&	c #9A993F",
"_&	c #A6A43F",
":&	c #ACA939",
"<&	c #B9B82C",
"[&	c #ADAD1E",
"}&	c #433F2D",
"|&	c #2F3434",
"1&	c #343326",
"2&	c #3E3C06",
"3&	c #4B4A00",
"4&	c #565404",
"5&	c #5E5C04",
"6&	c #616005",
"7&	c #605F07",
"8&	c #626101",
"9&	c #646307",
"0&	c #5E5C05",
"a&	c #4D4E05",
"b&	c #484805",
"c&	c #3E3C04",
"d&	c #312F06",
"e&	c #232103",
"f&	c #1C1C03",
"g&	c #25240D",
"h&	c #423F1D",
"i&	c #5E5C24",
"j&	c #7C7B30",
"k&	c #9C9B42",
"l&	c #AEAB47",
"m&	c #BAB749",
"n&	c #C5C241",
"o&	c #CECC30",
"p&	c #78722E",
"q&	c #2B2A36",
"r&	c #303331",
"s&	c #343437",
"t&	c #2D2E1C",
"u&	c #2D3100",
"v&	c #3C3D03",
"w&	c #454304",
"x&	c #504F08",
"y&	c #545204",
"z&	c #4D4C04",
"A&	c #474706",
"B&	c #403E06",
"C&	c #343405",
"D&	c #2D2C07",
"E&	c #1E1D03",
"F&	c #1B1908",
"G&	c #23210A",
"H&	c #403E15",
"I&	c #5E5C23",
"J&	c #78762D",
"K&	c #8F8D35",
"L&	c #ADAC45",
"M&	c #C2C04A",
"N&	c #CECC4A",
"O&	c #E3E13B",
"P&	c #9A9730",
"Q&	c #2F2A30",
"R&	c #303235",
"S&	c #313133",
"T&	c #1E1D12",
"U&	c #191800",
"V&	c #272406",
"W&	c #2E2E01",
"X&	c #343303",
"Y&	c #393905",
"Z&	c #383703",
"`&	c #343306",
" *	c #2F2F05",
".*	c #1F1D05",
"+*	c #1A1804",
"@*	c #1D1B06",
"#*	c #272506",
"$*	c #3A380F",
"%*	c #555415",
"&*	c #6B691D",
"**	c #88862D",
"=*	c #9E9C37",
"-*	c #B6B343",
";*	c #C8C645",
">*	c #E4E243",
",*	c #BDBD30",
"'*	c #3D3D32",
")*	c #2C2E38",
"!*	c #333536",
"~*	c #302F34",
"{*	c #1A1916",
"]*	c #0D0D01",
"^*	c #111103",
"/*	c #151405",
"(*	c #191902",
"_*	c #171805",
":*	c #171806",
"<*	c #151604",
"[*	c #1D1B07",
"}*	c #262407",
"|*	c #303108",
"1*	c #3E3D07",
"2*	c #504F0E",
"3*	c #62610F",
"4*	c #737116",
"5*	c #8E8D25",
"6*	c #A2A22B",
"7*	c #BAB732",
"8*	c #D6D52E",
"9*	c #B4B12E",
"0*	c #46452D",
"a*	c #272A32",
"b*	c #343436",
"c*	c #353536",
"d*	c #272818",
"e*	c #212203",
"f*	c #1E1B03",
"g*	c #1A1905",
"h*	c #1A1C06",
"i*	c #212104",
"j*	c #252404",
"k*	c #292905",
"l*	c #343407",
"m*	c #3F3F07",
"n*	c #484704",
"o*	c #565508",
"p*	c #615F0A",
"q*	c #6F6D0C",
"r*	c #817F0F",
"s*	c #919019",
"t*	c #AAAB18",
"u*	c #BCBB19",
"v*	c #8F8D22",
"w*	c #3D3C31",
"x*	c #282835",
"y*	c #343434",
"z*	c #353535",
"A*	c #363724",
"B*	c #393A0F",
"C*	c #454402",
"D*	c #464401",
"E*	c #484801",
"F*	c #4C4C02",
"G*	c #505103",
"H*	c #615E05",
"I*	c #686704",
"J*	c #747304",
"K*	c #807E08",
"L*	c #8D8E08",
"M*	c #9A9B05",
"N*	c #918E14",
"O*	c #646324",
"P*	c #2B2D32",
"Q*	c #2A2F34",
"R*	c #333433",
"S*	c #323432",
"T*	c #323434",
"U*	c #343338",
"V*	c #343333",
"W*	c #3D3E28",
"X*	c #4D4E15",
"Y*	c #5A5809",
"Z*	c #606006",
"`*	c #666802",
" =	c #6C6E00",
".=	c #727100",
"+=	c #777601",
"@=	c #7D7D01",
"#=	c #807F02",
"$=	c #858306",
"%=	c #7E7D18",
"&=	c #5D5F1F",
"*=	c #343132",
"==	c #292A37",
"-=	c #2F3231",
";=	c #363332",
">=	c #313135",
",=	c #3C3A2F",
"'=	c #3E3A2D",
")=	c #474627",
"!=	c #524E1E",
"~=	c #534E1C",
"{=	c #56531F",
"]=	c #4D4E22",
"^=	c #3F3D2B",
"/=	c #3E3D31",
"(=	c #2D2C36",
"_=	c #303135",
". . . . . . . . . + @ # $ % & * = - ; > , ' ) ! . . . . . . . . ",
". . . . . . . ~ { ] ^ / ( _ : < [ } | 1 2 3 4 5 6 . . . . . . . ",
". . . 7 8 9 . 0 6 a b c d e f g h i j k l m n o p q 9 . r 8 . . ",
". . . s t @ u v w x y z A B C D E F G H I J K L M N O P Q r . . ",
". . . . R S T U V W X Y Z `  ...+.@.#.$.%.&.*.=.-.;.>.,.P . . . ",
". . . . '.).!.~.{.].^./.(._.:.<.[.}.|.1.2.3.4.5.6.7.8.9.0.. . . ",
". . ~ a.b.c.d.e.f.g.h.i.j.k.l.m.n.o.p.q.r.s.t.u.v.w.x.y.z.A.. . ",
". 9 B.C.D.E.F.G.H.I.J.K.L.M.N.O.P.Q.R.S.T.U.V.W.X.Y.Z.`. +.+++. ",
". @+#+$+%+&+*+=+-+;+>+,+,+'+>+)+!+~+{+]+^+/+(+_+:+<+[+}+|+1+2+@+",
"t 3+4+5+6+7+8+9+i.K.0+a+b+c+d+e+f+g+h+q.i+j+k+l+m+n+o+p+q+r+s+t+",
"8 u+v+w+x+y+z+A+B+C+D+E+F+,+G+H+I+J+K+L+M+N+O+P+Q+R+S+T+U+V+W+X+",
"Y+Z+`+ @.@+@/.@@#@$@%@&@*@=@-@;@>@,@K+'@)@!@~@{@]@^@/@(@_@:@<@[@",
"}@|@1@2@3@4@5@6@7@8@9@0@a@b@c@d@e@f@g@h@i@j@k@l@m@n@o@p@q@r@s@t@",
"u@v@w@x@y@z@A@B@C@D@E@F@G@H@I@J@K@L@M@N@O@P@Q@R@S@T@U@V@W@X@Y@Z@",
"`@ #.#+#@###$#%#&#*#=#-#;#>#,#'#)#!#~#{#]#^#/#(#_#:#<#[#}#|#1#2#",
"3#4#5#6#7#8#9#0#a#b#c#d#e#f#g#h#i#j#k#l#m#n#o#p#q#r#s#t#u#v#w#x#",
"3#y#z#A#B#C#D#E#F#G#H#I#J#K#L#M#N#O#P#Q#R#S#T#U#V#t#W#X#Y#Z#`# $",
"Y+.$+$@$#$$$%$&$*$=$-$;$>$,$'$)$!$~${$]$^$/$($_$:$<$[$}$|$1$2$3$",
"4$5$6$7$8$9$0$a$b$c$d$e$f$g$h$i$j$k$l$m$n$o$p$q$r$s$t$u$v$w$x$y$",
"^ z$A$B$1.C$D$E$F$F$G$H$I$J$K$L$M$N$O$P$x.Q$R$S$T$U$V$W$X$Y$Z$`$",
" %.%+%@%#%$%%%&%*%=%-%;%>%,%'%)%!%~%{%]%^%/%(%_%:%<%[%}%|%1%2%3%",
"@+4%5%6%7%8%9%0%a%b%c%d%e%f%g%h%i%j%k%l%}#m%n%o%p%q%r%s%t%u%v%w%",
"9 x%y%z%A%B%C%D%E%F%G%N$H%I%~%J%K%n@L%M%N%O%P%Q%R%S%T%U%V%W%X%Y%",
". Z%`% &.&+&@&#&$&%&&&*&=&-&;&>&,&'&)&!&~&{&]&^&/&(&_&:&<&[&}&4$",
"P s |&1&2&3&4&5&6&7&8&9&0&>&a&b&c&d&e&f&g&h&i&j&k&l&m&n&o&p&q&r&",
". `%@+s&t&u&v&w&b&x&y&[+z&A&B&C&D&E&F&G&H&I&J&K&L&M&N&O&P&Q&R&@+",
". . . P S&T&U&V&W&X&Y&Z&`& *V+.*+*@*#*$*%*&***=*-*;*>*,*'*)*9 . ",
". . . 9 !*~*{*]*^*/*(*(*_*:*<*[*}*|*1*2*3*4*5*6*7*8*9*0*a*b*. . ",
". . . . . c*+ d*e*f*g*h*i*j*k*l*m*n*o*p*q*r*s*t*u*v*w*x*+++ . . ",
". . . . . . y*z*A*B*m*C*D*E*F*G*^@H*I*J*K*L*M*N*O*P*Q*R*. . . . ",
". . . . . . S*T*U*V*W*X*Y*Z*`* =.=+=@=#=$=%=&=*===-=;=. . . . . ",
". . . . . . . . . P >=Z%,='=)=!=~={=]=^=/=9 (=_=. . . . . . . . "};
