/* XPM */
static const char *shape_32[] = {
"32 32 4 1",
" 	c #FFFFFF",
".	c #ED1C24",
"+	c #22B14C",
"@	c #3F48CC",
"                                ",
"    ...................         ",
"    ...................         ",
"    .                ..         ",
"    .                ..         ",
"    .                ..         ",
"    .                ..         ",
"    .          +++++++++        ",
"    .          +++   ++++       ",
"    .        ++      .. ++      ",
"    .        ++  @@  ..  ++     ",
"    .      ++    @@  ..  ++     ",
"    .      ++    @@  ..   +     ",
"    .      +    @  @@..    +    ",
"    .      +   @@  @@..    +    ",
"    .      +   @@  @@..    +    ",
"    .      ++  @    @..    +    ",
"    .......++.@......@.   +     ",
"    .......++@@......@@  ++     ",
"             ++      @@  ++     ",
"             ++      @@ ++      ",
"            @  ++    ++++       ",
"           @@  +++++++++@       ",
"           @@          @@       ",
"           @@          @@       ",
"          @              @      ",
"          @              @      ",
"         @@              @@     ",
"         @@              @@     ",
"        @@@@@@@@@@@@@@@@@@@@    ",
"        @@@@@@@@@@@@@@@@@@@@    ",
"                                "};
