/* XPM */
static const char *shockwave_32[] = {
"32 32 725 2 0 0",
"   c #0B0B0B",
"!  c #080808",
"#  c #090909",
"$  c #0C0D0D",
"%  c #161110",
"&  c #1E1311",
"'  c #1F1513",
"(  c #221816",
")  c #241A18",
"*  c #271E1C",
"+  c #281F1D",
",  c #291F1D",
"-  c #2B2220",
".  c #2B211F",
"/  c #2A201E",
"0  c #29201E",
"1  c #261C1A",
"2  c #231A18",
"3  c #171311",
"4  c #0E0E0E",
"5  c #0C0C0C",
"6  c #0B0A0A",
"7  c #070707",
"8  c #050303",
"9  c #040404",
":  c #050505",
";  c #070908",
"<  c #160C09",
"=  c #190F0D",
">  c #1E1412",
"?  c #1F1A17",
"@  c #251B19",
"A  c #261C1B",
"B  c #291F1E",
"C  c #271D1C",
"D  c #261B19",
"E  c #221B18",
"F  c #201614",
"G  c #191311",
"H  c #1A100E",
"I  c #080909",
"J  c #060708",
"K  c #050504",
"L  c #010101",
"M  c #020202",
"N  c #0A0A0A",
"O  c #040303",
"P  c #030303",
"Q  c #050605",
"R  c #110E0E",
"S  c #170E0B",
"T  c #1D1311",
"U  c #271D1D",
"V  c #28201E",
"W  c #2F241F",
"X  c #382B20",
"Y  c #31251F",
"Z  c #281F1E",
"[  c #251A18",
"]  c #1C1210",
"^  c #1B100E",
"_  c #0C0B09",
"`  c #000000",
"a  c #020101",
"b  c #0C0A0A",
"c  c #060607",
"d  c #0F0A07",
"e  c #261D1B",
"f  c #2E231E",
"g  c #372820",
"h  c #473421",
"i  c #574023",
"j  c #4C3721",
"k  c #30251F",
"l  c #271E1E",
"m  c #1C1815",
"n  c #15110D",
"o  c #080809",
"p  c #070808",
"q  c #150F0C",
"r  c #190E0C",
"s  c #251C1A",
"t  c #32251C",
"u  c #463221",
"v  c #563B24",
"w  c #6D4A26",
"x  c #835B28",
"y  c #714F23",
"z  c #41301F",
"{  c #402E22",
"|  c #281E1C",
"}  c #1B110F",
"~  c #170D0B",
" ! c #060606",
"!! c #080707",
"#! c #160C0A",
"$! c #211715",
"%! c #2B1F1C",
"&! c #4C3620",
"'! c #654623",
"(! c #7E5028",
")! c #96632A",
"*! c #BA7E2F",
"+! c #A17135",
",! c #8F643C",
"-! c #8F632A",
".! c #3C2B1F",
"/! c #271E1A",
"0! c #221817",
"1! c #231917",
"2! c #19110E",
"3! c #050404",
"4! c #090708",
"5! c #060808",
"6! c #0B0909",
"7! c #34271C",
"8! c #6A4820",
"9! c #A8792B",
":! c #D4A432",
";! c #DD9845",
"<! c #F2C852",
"=! c #D9953E",
">! c #DE9E3E",
"?! c #FDCA67",
"@! c #9C8642",
"A! c #352517",
"B! c #241A17",
"C! c #0E0E0C",
"D! c #060505",
"E! c #070807",
"F! c #050506",
"G! c #0E0908",
"H! c #180D0B",
"I! c #1B120F",
"J! c #1A1511",
"K! c #201A16",
"L! c #2B1F1F",
"M! c #52342E",
"N! c #B07D49",
"O! c #FFEA81",
"P! c #FDD993",
"Q! c #FCCB92",
"R! c #FBCB94",
"S! c #FAD28D",
"T! c #FABF83",
"U! c #FCDB8C",
"V! c #FAD78B",
"W! c #834D46",
"X! c #3E2624",
"Y! c #25191A",
"Z! c #1C1511",
"[! c #18110D",
"]! c #100C0A",
"^! c #060707",
"_! c #110E0A",
"`! c #150F0A",
"a! c #271719",
"b! c #44222F",
"c! c #69304B",
"d! c #834063",
"e! c #964B63",
"f! c #ECC480",
"g! c #FECE9F",
"h! c #FCCEA4",
"i! c #FCDAA1",
"j! c #FDDFA2",
"k! c #FDD89F",
"l! c #FCDF98",
"m! c #FCD894",
"n! c #FEDB8C",
"o! c #CB7180",
"p! c #A54F72",
"q! c #83375E",
"r! c #672A46",
"s! c #421B2C",
"t! c #1B0F12",
"u! c #070706",
"v! c #040504",
"w! c #060504",
"x! c #020201",
"y! c #030505",
"z! c #210F16",
"{! c #5A1F3C",
"|! c #7B2E55",
"}! c #80345E",
"~! c #7E3C63",
" # c #8E4572",
"!# c #A45671",
"## c #F3D07C",
"$# c #FEC593",
"%# c #FDD990",
"&# c #FCCD96",
"'# c #FED39D",
"(# c #FDC794",
")# c #FBC37C",
"*# c #F8C77A",
"+# c #FBC582",
",# c #CC746B",
"-# c #934E66",
".# c #7F3763",
"/# c #8D3769",
"0# c #8F3367",
"1# c #932B62",
"2# c #58163C",
"3# c #1A0813",
"4# c #020303",
"5# c #0B0D0D",
"6# c #030403",
"7# c #050405",
"8# c #430F2E",
"9# c #962963",
":# c #832C5C",
";# c #6D2B50",
"<# c #6E2D55",
"=# c #72335A",
"># c #65354D",
"?# c #995D56",
"@# c #F6CA73",
"A# c #FECE5E",
"B# c #FCD082",
"C# c #FDD981",
"D# c #FDD68D",
"E# c #FEDD73",
"F# c #FDD764",
"G# c #F9D44E",
"H# c #FACF4C",
"I# c #D07F51",
"J# c #854E4A",
"K# c #632E48",
"L# c #5F2747",
"M# c #722856",
"N# c #7F275E",
"O# c #942668",
"P# c #871F59",
"Q# c #4A0D31",
"R# c #050204",
"S# c #020302",
"T# c #641240",
"U# c #A02268",
"V# c #932A63",
"W# c #762658",
"X# c #6E2853",
"Y# c #4E253B",
"Z# c #512A3F",
"[# c #5A343B",
"]# c #A46641",
"^# c #FED561",
"_# c #FDD756",
"`# c #FEE176",
"a# c #FFE09F",
"b# c #FEE2A9",
"c# c #FEE57C",
"d# c #FCE153",
"e# c #FBDC3E",
"f# c #FACB42",
"g# c #DEA440",
"h# c #7C4D33",
"i# c #4E2D37",
"j# c #432033",
"k# c #4E1E39",
"l# c #571E40",
"m# c #5F174A",
"n# c #761A5A",
"o# c #7B1753",
"p# c #620E3C",
"q# c #080406",
"r# c #080908",
"s# c #560C36",
"t# c #BD2179",
"u# c #671A4B",
"v# c #6E2051",
"w# c #5B1F43",
"x# c #4A2037",
"y# c #39202A",
"z# c #39222A",
"{# c #54342B",
"|# c #CE8335",
"}# c #FED44D",
"~# c #FEDF4E",
" $ c #FDE16D",
"!$ c #FEEDBF",
"#$ c #FFF9D9",
"$$ c #FCE894",
"%$ c #FDE053",
"&$ c #FBDC44",
"'$ c #FCD63C",
"($ c #D8A233",
")$ c #6A4723",
"*$ c #3E2A28",
"+$ c #2D1A20",
",$ c #341924",
"-$ c #3A1829",
".$ c #3B112D",
"/$ c #430F34",
"0$ c #61144B",
"1$ c #D61C85",
"2$ c #5B0939",
"3$ c #1D0B14",
"4$ c #C81B7D",
"5$ c #932264",
"6$ c #872465",
"7$ c #4F1939",
"8$ c #3D192C",
"9$ c #321A22",
":$ c #301C21",
";$ c #302022",
"<$ c #533624",
"=$ c #BD7A2D",
">$ c #FCD547",
"?$ c #FEE353",
"@$ c #FCE264",
"A$ c #FEF6BA",
"B$ c #FEFBE4",
"C$ c #FEEEA5",
"D$ c #FEEF85",
"E$ c #FAD846",
"F$ c #F3D03A",
"G$ c #B17826",
"H$ c #5E421E",
"I$ c #312423",
"J$ c #261A1A",
"K$ c #221617",
"L$ c #261319",
"M$ c #220D1C",
"N$ c #400D30",
"O$ c #751855",
"P$ c #E2208E",
"Q$ c #D0147E",
"R$ c #210A17",
"S$ c #450E2E",
"T$ c #F42099",
"U$ c #902462",
"V$ c #862163",
"W$ c #591B41",
"X$ c #41192D",
"Y$ c #3F1D2E",
"Z$ c #412230",
"[$ c #3D252D",
"]$ c #5B3730",
"^$ c #BA7736",
"_$ c #FBDE4B",
"`$ c #FCD94F",
"a$ c #FCE06D",
"b$ c #FEF7C9",
"c$ c #FFFFFD",
"d$ c #FDF9C8",
"e$ c #FDE47E",
"f$ c #FDD755",
"g$ c #F6C647",
"h$ c #B8722D",
"i$ c #533924",
"j$ c #352427",
"k$ c #291C1C",
"l$ c #2D181F",
"m$ c #311622",
"n$ c #2E0E26",
"o$ c #5D1445",
"p$ c #6C164C",
"q$ c #E81D91",
"r$ c #EF1792",
"s$ c #510D34",
"t$ c #4F1034",
"u$ c #F31F98",
"v$ c #C62681",
"w$ c #8C2664",
"x$ c #862962",
"y$ c #68264F",
"z$ c #5C2546",
"{$ c #5C2A47",
"|$ c #542B42",
"}$ c #683A41",
"~$ c #AE6A45",
" % c #E4A041",
"!% c #F8D454",
"#% c #FDDD77",
"$% c #FEF5CB",
"%% c #FEF1C8",
"&% c #FDE874",
"'% c #FCD462",
"(% c #FCC955",
")% c #B36837",
"*% c #573532",
"+% c #442736",
",% c #3E212B",
"-% c #421D31",
".% c #4D1B37",
"/% c #4A1439",
"0% c #721A56",
"1% c #941B62",
"2% c #EF1E96",
"3% c #F01793",
"4% c #5C0F3A",
"5% c #2E0B1F",
"6% c #E11E8E",
"7% c #EA2696",
"8% c #E32E96",
"9% c #87305F",
":% c #842D61",
";% c #8C376D",
"<% c #923D70",
"=% c #6F3459",
">% c #773D57",
"?% c #9C5B57",
"@% c #E1A04E",
"A% c #FDD55F",
"B% c #FEE37B",
"C% c #FEEEB9",
"D% c #FFFBE8",
"E% c #FEF3D3",
"F% c #FDE278",
"G% c #FBC272",
"H% c #EAA963",
"I% c #B86A45",
"J% c #6A3845",
"K% c #5D2E48",
"L% c #562841",
"M% c #5E2347",
"N% c #722554",
"O% c #6E1D55",
"P% c #C12B81",
"Q% c #EF2498",
"R% c #E61D92",
"S% c #E6168D",
"T% c #370A23",
"U% c #0A0809",
"V% c #861353",
"W% c #EB2697",
"X% c #ED2D9C",
"Y% c #CF368A",
"Z% c #C83D8A",
"[% c #E24CA0",
"]% c #A9497F",
"^% c #A04B7E",
"_% c #9C507D",
"`% c #B05F65",
"a% c #FEBA65",
"b% c #FEC870",
"c% c #FDD483",
"d% c #FEE8B4",
"e% c #FDEDCB",
"f% c #FEEAC8",
"g% c #FDDB81",
"h% c #FECA7F",
"i% c #DD9470",
"j% c #9F505B",
"k% c #854060",
"l% c #803A66",
"m% c #7B335D",
"n% c #7D2F5F",
"o% c #913065",
"p% c #922665",
"q% c #EE2B9C",
"r% c #E82394",
"s% c #EB1C93",
"t% c #8F0F56",
"u% c #0E0B0C",
"v% c #14040D",
"w% c #9A1A62",
"x% c #E62B96",
"y% c #EF399E",
"z% c #EF43A1",
"{% c #ED4CA7",
"|% c #ED55AB",
"}% c #E45BA9",
"~% c #C16195",
" & c #BB6578",
"!& c #FEAB8D",
"#& c #FDBD8E",
"$& c #FEC6A1",
"%& c #FFE9B9",
"&& c #FEE4C3",
"'& c #FEDBB1",
"(& c #FECC9D",
")& c #FEBC8B",
"*& c #EF9E8A",
"+& c #BD618D",
",& c #A2507B",
"-& c #B15389",
".& c #C44D8E",
"/& c #C9428C",
"0& c #EB3F9F",
"1& c #F0339F",
"2& c #EB2A99",
"3& c #E72392",
"4& c #A01462",
"5& c #16020E",
"6& c #080A09",
"7& c #040907",
"8& c #190612",
"9& c #7C1A53",
":& c #D3338A",
";& c #EE40A0",
"<& c #EF4BA7",
"=& c #F154AD",
">& c #F25EB2",
"?& c #F869BC",
"@& c #CA6D93",
"A& c #E1878E",
"B& c #FFBD86",
"C& c #FEC68C",
"D& c #FED6A6",
"E& c #FED5B7",
"F& c #FEC0C2",
"G& c #FDACBC",
"H& c #FA9BB8",
"I& c #F489BE",
"J& c #F070B9",
"K& c #F065B3",
"L& c #EF5DB0",
"M& c #EE54AB",
"N& c #F249A6",
"O& c #EE3EA0",
"P& c #EA309C",
"Q& c #D12586",
"R& c #7E1350",
"S& c #1A0310",
"T& c #090808",
"U& c #030202",
"V& c #020403",
"W& c #0B070A",
"X& c #44152D",
"Y& c #912C61",
"Z& c #CA428C",
"[& c #E551A4",
"]& c #F05BAF",
"^& c #F368B7",
"_& c #F675BF",
"`& c #F07EBD",
"a& c #F88FC0",
"b& c #FA97C8",
"c& c #FDADD2",
"d& c #FEB1DA",
"e& c #FEABD8",
"f& c #FA9ACD",
"g& c #F791CA",
"h& c #F681C2",
"i& c #F46EBB",
"j& c #F263B4",
"k& c #F15EB2",
"l& c #EF50AA",
"m& c #E6459E",
"n& c #CB3587",
"o& c #8E1F5F",
"p& c #400F2B",
"q& c #090206",
"r& c #0B0A06",
"s& c #1F1112",
"t& c #451D2F",
"u& c #773054",
"v& c #A54378",
"w& c #C85594",
"x& c #E169A9",
"y& c #F07ABC",
"z& c #F786C2",
"{& c #FA8DC8",
"|& c #FA9ECE",
"}& c #FB9DD0",
"~& c #F999CE",
" ' c #F992CA",
"!' c #F991C4",
"#' c #F375BC",
"$' c #EA67B1",
"%' c #DC58A2",
"&' c #C95293",
"'' c #A33B72",
"(' c #77284F",
")' c #3D162B",
"*' c #130B11",
"+' c #040606",
",' c #000100",
"-' c #090A0A",
".' c #0E0C0B",
"/' c #160D0B",
"0' c #1A130E",
"1' c #1D1613",
"2' c #2C1C1E",
"3' c #422631",
"4' c #613544",
"5' c #995961",
"6' c #BE6A6C",
"7' c #FCA486",
"8' c #FAAA8C",
"9' c #FCB396",
":' c #FBB28D",
";' c #F7A88A",
"<' c #CF7178",
"=' c #974D68",
">' c #763B55",
"?' c #572C40",
"@' c #472833",
"A' c #271619",
"B' c #19120F",
"C' c #0B0A09",
"D' c #010202",
"E' c #080708",
"F' c #1A110F",
"G' c #211A17",
"H' c #231B18",
"I' c #261D1C",
"J' c #4C3627",
"K' c #894F28",
"L' c #F4C632",
"M' c #FAE761",
"N' c #F5CE39",
"O' c #FBDE5A",
"P' c #FAAC35",
"Q' c #B7732B",
"R' c #3B2620",
"S' c #241A19",
"T' c #241C16",
"U' c #1A1412",
"V' c #18100E",
"W' c #0D0C0D",
"X' c #030405",
"Y' c #050707",
"Z' c #1B1410",
"[' c #1C1412",
"]' c #231817",
"^' c #2B2222",
"_' c #402C22",
"`' c #734125",
"a' c #C47D28",
"b' c #D69E3B",
"c' c #E4A32E",
"d' c #E4AE3C",
"e' c #B46C28",
"f' c #8C5223",
"g' c #38261E",
"h' c #251D1A",
"i' c #271D1E",
"j' c #221814",
"k' c #1B1210",
"l' c #17100D",
"m' c #070708",
"n' c #0E0A09",
"o' c #34241B",
"p' c #5B3A2C",
"q' c #704423",
"r' c #925A24",
"s' c #7F4626",
"t' c #955325",
"u' c #653822",
"v' c #5D371F",
"w' c #31221B",
"x' c #231918",
"y' c #120E0B",
"z' c #070505",
"{' c #010102",
"|' c #0E0C0C",
"}' c #231916",
"~' c #251A17",
" ( c #281E1B",
"!( c #452F22",
"#( c #472D22",
"$( c #603D23",
"%( c #573520",
"&( c #5C3521",
"'( c #4D2F1F",
"(( c #442A1D",
")( c #2B211C",
"*( c #271C1F",
"+( c #251B15",
",( c #1C1413",
"-( c #0D0A0A",
".( c #211815",
"/( c #271D1B",
"0( c #2D201A",
"1( c #3E2E28",
"2( c #3D271E",
"3( c #3D291E",
"4( c #432C20",
"5( c #39261D",
"6( c #31221A",
"7( c #251A1B",
"8( c #2D211F",
"9( c #1E1614",
":( c #1C110F",
";( c #180F0D",
"<( c #0A0909",
"=( c #010001",
">( c #100C0B",
"?( c #1A100D",
"@( c #221917",
"A( c #241B19",
"B( c #292018",
"C( c #382A29",
"D( c #2D1F1F",
"E( c #2F201A",
"F( c #281D1A",
"G( c #261B1E",
"H( c #2F2321",
"I( c #201612",
"J( c #1F1413",
"K( c #191210",
"L( c #110F0E",
"M( c #040203",
"N( c #0D0D0D",
"O( c #271D17",
"P( c #322821",
"Q( c #302526",
"R( c #2E2525",
"S( c #2F241E",
"T( c #201712",
"U( c #1D1312",
"V( c #030404",
"W( c #040605",
"X( c #120E0E",
"Y( c #1D1210",
"Z( c #1C1311",
"[( c #1F1614",
"]( c #221A17",
"^( c #241A16",
"_( c #261B16",
"`( c #1F1715",
"a( c #211816",
"b( c #130F0B",
"c( c #040505",
"d( c #020404",
"e( c #090B0B",
"f( c #0E0F0F",
"g( c #1C1310",
"h( c #201815",
"i( c #1D1714",
"j( c #101010",
"k( c None",
"  ! ! #   $ % & ' ( ) * + , - . / 0 , 1 2 ( ' 3 4 5 6 ! ! 7 7   ",
"! 8 9 ! : ; < = > & ? ) @ A B * C A D E F > G H I 7 J K L : M ! ",
"N O M P Q R S = T ' ( @ U V W X Y Z C [ ( ' ] ^ _ 7 : ` L L a b ",
"7 L P 9 c d = ] > ) @ e f g h i j k l A ) F m H n o P M L L L ! ",
"5 9 P 7 p q r ] ' ( s t u v w x y z { | @ ( > } ~ # ! :  !: 9 7 ",
"7 M P : !!#!H ] $!) %!&!'!(!)!*!+!,!-!.!/!0!1!] 2!6 7 M ` L L 7 ",
"! 3!4!5!6!^ H ( $!e 7!8!9!:!;!<!=!>!?!@!A!B!F & } C!7 D!E!M L 4 ",
"# 9 P F!G!H!I!J!K!L!M!N!O!P!Q!R!S!T!U!V!W!X!Y!Z![!]!^!N L L L 7 ",
"! M 9 ^!_!`!a!b!c!d!e!f!g!h!i!j!k!l!m!n!o!p!q!r!s!t!u!v!w!x!P # ",
"!!: : y!z!{!|!}!~! #!###$#%#&#'#(#)#*#+#,#-#.#/#0#1#2#3#4#9 9 # ",
"5#6#7#8#9#:#;#<#=#>#?#@#A#B#C#D#E#F#G#H#I#J#K#L#M#N#O#P#Q#R#S## ",
"E!8 T#U#V#W#X#Y#Z#[#]#^#_#`#a#b#c#d#e#f#g#h#i#j#k#l#m#n#o#p#q#7 ",
"r#s#t#u#v#w#x#y#z#{#|#}#~# $!$#$$$%$&$'$($)$*$+$,$-$.$/$0$1$2$# ",
"3$4$5$6$7$8$9$:$;$<$=$>$?$@$A$B$C$D$E$F$G$H$I$J$K$L$M$N$O$P$Q$R$",
"S$T$U$V$W$X$Y$Z$[$]$^$_$`$a$b$c$d$e$f$g$h$i$j$k$l$m$n$o$p$q$r$s$",
"t$u$v$w$x$y$z${$|$}$~$ %!%#%$%c$%%&%'%(%)%*%+%,%-%.%/%0%1%2%3%4%",
"5%6%7%8%9%:%;%<%=%>%?%@%A%B%C%D%E%F%G%H%I%J%K%L%M%N%O%P%Q%R%S%T%",
"U%V%W%X%Y%Z%[%]%^%_%`%a%b%c%d%e%f%g%h%i%j%k%l%m%n%o%p%q%r%s%t%u%",
"E!v%w%x%y%z%{%|%}%~% &!&#&$&%&&&'&(&)&*&+&,&-&.&/&0&1&2&3&4&5&6&",
"! 7&8&9&:&;&<&=&>&?&@&A&B&C&D&E&F&G&H&I&J&K&L&M&N&O&P&Q&R&S&x!T&",
"7 U&V&W&X&Y&Z&[&]&^&_&`&a&b&c&d&e&f&g&h&i&j&k&l&m&n&o&p&q&` L 7 ",
"  9 9 : r&s&t&u&v&w&x&y&z&{&|&}&~& '!'#'$'%'&'''(')'*'+',' ! !  ",
"7 3!: -'.'/'0'1'2'3'4'5'6'7'8'9':';'<'='>'?'@'A'B'C'^!P D'` : # ",
"! M P : E'S F'> G'H'I'J'K'L'M'N'O'P'Q'R'* S'T'U'V'W'c D'X'` P ! ",
"! Y'M 9  !Z'V'['' ]'^'_'`'a'b'c'd'e'f'g'h'i'j'k'l'# D'L ` ` L 7 ",
"! M  !# m'n'= } 1!) S'o'p'q'r's't'u'v'w'x'. F H y'p z'O ` M {'-'",
"# M P 9  !|'~ H T }'~' (!(#($(%(&('((()(*(+(,(} -(  9 P ` : L 7 ",
"# M P  ! !p /'H T .() /(0(1(2(3(4(5(6(7(8(9(:(;(<(7 P M L =(` 7 ",
"! 8 D!M 9 # >(?(] ' ' @(A(B(C(D(E(F(G(H(I(J(K(L(-' !! +'O M(L N(",
"7 x!U& !!  !# S H ] $!F ( x'O(P(Q(R(S(T(U(] = N !! !P V(L L M 7 ",
"-'y!a W(P 7 ! X(Y(H Z([(( ](@(@ ^(_(`(a(:(U'b(  ! ^!c(M  !L d(e(",
"  7 ! ! N   N(f(g(' h(]() A(s s s A(1!( F i(j(4 N(  N ! 7 ! 7 N "
};
