/* XPM */
static const char * sketch_16_xpm[] = {
"16 16 101 2",
"  	c #000000",
". 	c #404040",
"+ 	c #BBBBBB",
"@ 	c #AFAFAF",
"# 	c #C0C0C0",
"$ 	c #D9D9D9",
"% 	c #E7E7E7",
"& 	c #C5C5C5",
"* 	c #353535",
"= 	c #5C5C5C",
"- 	c #EDEDED",
"; 	c #FBFBFB",
"> 	c #FDFDFD",
", 	c #FFFFFF",
"' 	c #4F4F4F",
") 	c #0D0D0D",
"! 	c #454545",
"~ 	c #9F9F9F",
"{ 	c #E0E0E0",
"] 	c #F8F8F8",
"^ 	c #FEFEFE",
"/ 	c #ECECEC",
"( 	c #909090",
"_ 	c #323232",
": 	c #878787",
"< 	c #C8C8C8",
"[ 	c #EEEEEE",
"} 	c #FCFCFC",
"| 	c #A9A9A9",
"1 	c #515151",
"2 	c #7C7C7C",
"3 	c #DEDEDE",
"4 	c #F7F7F7",
"5 	c #DBDBDB",
"6 	c #767676",
"7 	c #494949",
"8 	c #6E6E6E",
"9 	c #919191",
"0 	c #ADADAD",
"a 	c #D4D4D4",
"b 	c #D6D6D6",
"c 	c #C1C1C1",
"d 	c #717171",
"e 	c #EFEFEF",
"f 	c #F9F9F9",
"g 	c #D2D2D2",
"h 	c #B2B2B2",
"i 	c #B4B4B4",
"j 	c #F1F1F1",
"k 	c #F5F5F5",
"l 	c #E8E8E8",
"m 	c #DDDDDD",
"n 	c #F6F6F6",
"o 	c #9D9D9D",
"p 	c #868686",
"q 	c #A0A0A0",
"r 	c #CBCBCB",
"s 	c #D7D7D7",
"t 	c #3B3B3B",
"u 	c #828282",
"v 	c #989898",
"w 	c #8A8A8A",
"x 	c #888888",
"y 	c #9B9B9B",
"z 	c #DCDCDC",
"A 	c #262626",
"B 	c #848484",
"C 	c #C2C2C2",
"D 	c #E3E3E3",
"E 	c #FAFAFA",
"F 	c #E9E9E9",
"G 	c #D8D8D8",
"H 	c #777777",
"I 	c #161616",
"J 	c #E6E6E6",
"K 	c #D0D0D0",
"L 	c #BEBEBE",
"M 	c #B6B6B6",
"N 	c #F0F0F0",
"O 	c #F2F2F2",
"P 	c #F3F3F3",
"Q 	c #E4E4E4",
"R 	c #A2A2A2",
"S 	c #E1E1E1",
"T 	c #EAEAEA",
"U 	c #D1D1D1",
"V 	c #B8B8B8",
"W 	c #999999",
"X 	c #7A7A7A",
"Y 	c #707070",
"Z 	c #CDCDCD",
"` 	c #8E8E8E",
" .	c #2A2A2A",
"..	c #F4F4F4",
"+.	c #222222",
"@.	c #A5A5A5",
"#.	c #606060",
"$.	c #1C1C1C",
"%.	c #949494",
"&.	c #7D7D7D",
"*.	c #737373",
"        . + @ # $ % & *         ",
"        = - ; > , , - '         ",
"      ) ! ~ { ] ^ / ( )         ",
"  _ : < [ } ] { | 1     ) )     ",
"2 3 ; 4 5 @ 6 7 8 9 0 & a b c d ",
"e f g h i < 3 j ] > ; k e - ; l ",
"m ; } } ; n % a + o p p q r ] s ",
"t u v 9 w x y h < z [ ] ; e # ' ",
"A B C D j ; > E n F G # o H 7 I ",
"& ; ] J K L M M # a D N f E O M ",
"] E D m % j f ^ E P Q g r 3 ; / ",
"R S / T { U V W X Y o Z [ ; T ` ",
"   .! . A ) ' ~ s ..> k $ q 7   ",
"        +.@.- ^ ] Q 0 #.$.      ",
"        %.; , , > f j &.        ",
"        : N k D r + s *.        "};
