/* XPM */
static const char *spirals_32[] = {
/* width height num_colors chars_per_pixel */
"32 32 192 2", 
/* colors */
"   c #5B5B00",
".  c #452020",
"X  c #E70000",
"o  c #757500",
"O  c #001A00",
"+  c #FC2020",
"@  c #9D0000",
"#  c #005000",
"$  c #9C9C00",
"%  c #160000",
"&  c #002700",
"*  c #090000",
"=  c #DDDD00",
"-  c #EAEA00",
";  c #460000",
":  c #00C900",
">  c #101000",
",  c #1D1D00",
"<  c #00D600",
"1  c #291F1F",
"2  c #A31F1F",
"3  c #FCFC3C",
"4  c #008400",
"5  c #929200",
"6  c #00BA00",
"7  c #D1D120",
"8  c #1FFC1F",
"9  c #ACAC00",
"0  c #79791F",
"q  c #050000",
"w  c #EDED00",
"e  c #420000",
"r  c #060600",
"t  c #7F0000",
"y  c #350000",
"u  c #000900",
"i  c #3A3A00",
"p  c #00AB00",
"a  c #21211F",
"s  c #616100",
"d  c #203720",
"f  c #6E6E00",
"g  c #004C00",
"h  c #959500",
"j  c #580000",
"k  c #7C7C1F",
"l  c #A3A31F",
"z  c #C50000",
"x  c #090900",
"c  c #3E0000",
"v  c #00D200",
"b  c #F50000",
"n  c #001400",
"m  c #240000",
"M  c #004A00",
"N  c #002100",
"B  c #20E420",
"V  c #002E00",
"C  c #FB1F1F",
"Z  c #FE0000",
"A  c #0C0C00",
"S  c #000500",
"D  c #191900",
"F  c #007100",
"G  c #F10000",
"H  c #00DD00",
"J  c #206920",
"K  c #007E00",
"L  c #8E8E00",
"P  c #B5B500",
"I  c #500000",
"U  c #282020",
"Y  c #CA0000",
"T  c #1F6E1F",
"R  c #3B3B3B",
"E  c #FA0000",
"W  c #F7F71F",
"Q  c #20FC20",
"!  c #B00000",
"~  c #ED0000",
"^  c #505000",
"/  c #660000",
"(  c #1C0000",
")  c #001D00",
"_  c #008900",
"`  c #002A00",
"'  c #D2D200",
"]  c #F9F900",
"[  c #003700",
"{  c #B90000",
"}  c #00D900",
"|  c #FAFA1F",
" . c #464600",
".. c #E90000",
"X. c #929220",
"o. c #7A7A00",
"O. c #00E600",
"+. c #1F5D1F",
"@. c #54541F",
"#. c #DC0000",
"$. c #00BD00",
"%. c #920000",
"&. c #FC1F1F",
"*. c #202020",
"=. c #006B00",
"-. c #00A100",
";. c #B50000",
":. c #000C00",
">. c #209920",
",. c #00AE00",
"<. c #707000",
"1. c #7D7D00",
"2. c #AFAF20",
"3. c #A4A400",
"4. c #00F100",
"5. c #207D20",
"6. c #ED2020",
"7. c #009200",
"8. c #00FE00",
"9. c #F2F200",
"0. c #810000",
"q. c #303020",
"w. c #252500",
"e. c #F3F31F",
"r. c #EB1F1F",
"t. c #004000",
"y. c #641F1F",
"u. c #2A0000",
"i. c #E10000",
"p. c #00EF00",
"a. c #005A00",
"s. c #CECE00",
"d. c #009D00",
"f. c #282800",
"g. c #1F4A1F",
"h. c #4F4F00",
"j. c #838300",
"k. c #3ADA3A",
"l. c #190000",
"z. c #C4C400",
"x. c #3BFC3B",
"c. c #490000",
"v. c #860000",
"b. c #003C00",
"n. c #1F1F1F",
"m. c #A90000",
"M. c #220000",
"N. c #00B500",
"B. c #D90000",
"V. c #BABA00",
"C. c #00C200",
"Z. c #00F800",
"A. c #CC0000",
"S. c #009900",
"D. c #141400",
"F. c #380000",
"G. c #212100",
"H. c #E2E21F",
"J. c #750000",
"K. c #FCFC1F",
"L. c #00A600",
"P. c #001100",
"I. c #A50000",
"U. c #00E900",
"Y. c #B0B000",
"T. c #D50000",
"R. c #110000",
"E. c #CACA00",
"W. c #FCFC20",
"Q. c #4E0000",
"!. c #D7D700",
"~. c #006100",
"^. c #A4A41F",
"/. c #1FA31F",
"(. c #FEFE00",
"). c #313100",
"_. c #1FE61F",
"`. c #710000",
"'. c #3E3E00",
"]. c #4B4B00",
"[. c #004500",
"{. c #C32020",
"}. c #00B100",
"|. c #940000",
" X c #00F400",
".X c #F2F220",
"XX c #8D8D1F",
"oX c #0D0000",
"OX c #DADA00",
"+X c #E7E700",
"@X c #F4F400",
"#X c #000000",
/* pixels */
"k.g.n.n.a k e.K.K.K.W XXa n.n.n.1 2 C &.&.&.r.y.n.n.n.+._.8 8 x.",
"/.S #X#Xx V.(.(.(.(.- ).#X#X#X#XM.i.Z Z Z Z Y R.#X#X#X7.8.8.8.Q ",
"T #X#X#X).!.(.(.(.(.V., #X#X#X#Xj ~ Z Z Z E %.* #X#XO 6 8.8.8.Q ",
"n.#X#Xx j.(.(.(.(.@Xs #X#X#X#XR.;.Z Z Z Z i.y #X#XS a.Z.8.8.8.Q ",
"n.#X#Xf.= (.(.(.(.z.D.#X#X#X#XI b Z Z Z Z |.q #X#XP.C.8.8.8.8.Q ",
"n.#XS  .w (.(.(.(.3.x #X#X#Xq `.Z Z Z Z b J.#X#X#X` } 8.8.8.8.B ",
"n.#XA Y.(.(.(.(.- i #X#X#X#Xm T.Z Z Z Z A.( #X#XS 4 8.8.8.8.Z.5.",
"n.#Xh.w (.(.(.(.h A #X#X#Xq 0.E Z Z Z E / q #X#XV } 8.8.8.8.$.d ",
"n.#Xf (.(.(.(.(.o #X#X#X#Xq I.Z Z Z Z G e #X#X#X[. X8.8.8.8.-.a ",
"*., E.(.(.(.(.' w.#X#X#X#Xc X Z Z Z Z m.R.#X#X:.p 8.8.8.8.U.t.*.",
"a <.9.(.(.(.] o.r #X#X#XoX@ Z Z Z Z ..I #X#X#Xg O.8.8.8.8.d.P.*.",
"a 9 (.(.(.(.9.i #X#X#X#Xl.B.Z Z Z Z T.l.#X#X#XK 8.8.8.8.8.~.#X*.",
"@.= (.(.(.(.P D #X#X#X#X/ ~ Z Z Z E v.* #X#XN C.8.8.8.8.v V #X*.",
"l (.(.(.(.w s #X#X#X#X% ;.Z Z Z Z #.F.#X#XS ~. X8.8.8.Z._ S #X*.",
"| (.(.(.(.s.D.#X#X#X#X; b Z Z Z Z @ q #X#X:.$.8.8.8.8.U.V #X#X*.",
"K.(.(.(.(.$ A #X#X#X* J.E Z Z Z b `.#X#X#XV < 8.8.8.8.$.) #X#X*.",
"K.(.(.(.+X'.#X#X#X#Xm T.Z Z Z Z Y ( #X#XS 4 8.8.8.8. X~.#X#X#Xq.",
"K.(.(.(.$ x #X#X#X#Xt E Z Z Z E / q #X#X` H 8.8.8.8.C.n #X#XS X.",
"K.(.(.] 1.#X#X#X#X* @ Z Z Z Z ~ c.#X#X#X[.p.8.8.8.8.L.u #X#X> 2.",
"K.(.(.' G.#X#X#X#Xc ..Z Z Z Z m.oX#X#X:.,.8.8.8.8.U.b.#X#Xq ^ .X",
"K.(.] <.r #X#X#XoXI.Z Z Z Z ..c.#X#X#X# U.8.8.8.8.S.:.#X#XD.P W.",
"K.(.@X .#X#X#X#X% A.Z Z Z Z #.M.#X#XS F 8.8.8.8.8.F #X#X#XG.= W.",
"K.(.Y.D.#X#X#X#X/ G Z Z Z Z t * #X#X) : 8.8.8.8.v & #X#XS 1.@XW.",
"K.w   #X#X#X#X( { Z Z Z Z T.y #X#XS =. X8.8.8.Z.K u #X#Xw.E.(.W.",
"K.OXD #X#X#X#XF.G Z Z Z Z ! q #X#XS }.8.8.8.8.4.[ #X#X#X].] (.W.",
"| 5 A #X#X#X* 0.E Z Z Z G / q #X#X[ } 8.8.8.8.N.O #X#XA h (.(.W.",
"H.'.#X#X#X#Xu.T.Z Z Z Z z ( #X#Xu 4 8.8.8.8.4.~.#X#X#Xi = (.(.W.",
"^.r #X#X#X#XJ.Z Z Z Z Z `.#X#X#XN H 8.8.8.8.: n #X#X#XL (.(.(.W.",
"0 #X#X#X#XR.@ Z Z Z Z ..Q.#X#X#XM U.8.8.8.8.-.:.#X#XD.Y.(.(.(.W.",
"a #X#X#Xq c ~ Z Z Z Z m.* #X#X:.}.8.8.8.8.U.b.#X#XS ^ @X(.(.(.W.",
"n.#X#X#X* m.Z Z Z Z ~ e #X#X#Xg p.8.8.8.8.S.u #X#X> V.(.(.(.(.W.",
"R a a a U {.+ + + + 6.. *.a a J Q Q Q Q Q >.*.*.a q.7 W.W.W.W.3 "
};
