/* XPM */
static const char *spirals_64[] = {
/* width height num_colors chars_per_pixel */
"98 98 4 1", 
/* colors */
"  c #00FF00",
". c #FF0000",
"X c #FFFF00",
"o c #000000",
/* pixels */
"    ooooooooooooooXXXXXXXXXXXXXXXXXXoooooooooooooooooo..................oooooooooooooo            ",
"    ooooooooooooooXXXXXXXXXXXXXXXXXXoooooooooooooooooo..................oooooooooooooo            ",
"  ooooooooooooooXXXXXXXXXXXXXXXXXXoooooooooooooooooo..................oooooooooooooo              ",
"  ooooooooooooooXXXXXXXXXXXXXXXXXXoooooooooooooooooo..................oooooooooooooo              ",
"  ooooooooooooooXXXXXXXXXXXXXXXXXXoooooooooooooooooo..................oooooooooooooo              ",
"  ooooooooooooooXXXXXXXXXXXXXXXXXXoooooooooooooooooo..................oooooooooooooo              ",
"  ooooooooooooooXXXXXXXXXXXXXXXXXXoooooooooooooooooo..................oooooooooooooo              ",
"  ooooooooooooooXXXXXXXXXXXXXXXXXXoooooooooooooooooo..................oooooooooooooo              ",
"ooooooooooooooXXXXXXXXXXXXXXXXXXoooooooooooooooooo..................oooooooooooooo                ",
"ooooooooooooooXXXXXXXXXXXXXXXXXXoooooooooooooooooo..................oooooooooooooo                ",
"ooooooooooooooXXXXXXXXXXXXXXXXXXoooooooooooooooooo..................oooooooooooooo                ",
"ooooooooooooooXXXXXXXXXXXXXXXXXXoooooooooooooooooo..................oooooooooooooo                ",
"ooooooooooooXXXXXXXXXXXXXXXXXXoooooooooooooooooo..................oooooooooooooo                  ",
"ooooooooooooXXXXXXXXXXXXXXXXXXoooooooooooooooooo..................oooooooooooooo                  ",
"ooooooooooooXXXXXXXXXXXXXXXXXXoooooooooooooooooo..................oooooooooooooo                  ",
"ooooooooooooXXXXXXXXXXXXXXXXXXoooooooooooooooooo..................oooooooooooooo                  ",
"ooooooooooooXXXXXXXXXXXXXXXXXXoooooooooooooooooo..................oooooooooooooo                  ",
"ooooooooooooXXXXXXXXXXXXXXXXXXoooooooooooooooooo..................oooooooooooooo                  ",
"ooooooooooXXXXXXXXXXXXXXXXXXoooooooooooooooooo..................oooooooooooooo                  oo",
"ooooooooooXXXXXXXXXXXXXXXXXXoooooooooooooooooo..................oooooooooooooo                  oo",
"ooooooooooXXXXXXXXXXXXXXXXXXoooooooooooooooooo..................oooooooooooooo                  oo",
"ooooooooooXXXXXXXXXXXXXXXXXXoooooooooooooooooo..................oooooooooooooo                  oo",
"ooooooooXXXXXXXXXXXXXXXXXXoooooooooooooooooo..................oooooooooooooo                  oooo",
"ooooooooXXXXXXXXXXXXXXXXXXoooooooooooooooooo..................oooooooooooooo                  oooo",
"ooooooooXXXXXXXXXXXXXXXXXXoooooooooooooooooo..................oooooooooooooo                  oooo",
"ooooooooXXXXXXXXXXXXXXXXXXoooooooooooooooooo..................oooooooooooooo                  oooo",
"ooooooooXXXXXXXXXXXXXXXXXXoooooooooooooooooo..................oooooooooooooo                  oooo",
"ooooooooXXXXXXXXXXXXXXXXXXoooooooooooooooooo..................oooooooooooooo                  oooo",
"ooooooXXXXXXXXXXXXXXXXXXoooooooooooooooooo..................oooooooooooooo                  oooooo",
"ooooooXXXXXXXXXXXXXXXXXXoooooooooooooooooo..................oooooooooooooo                  oooooo",
"ooooooXXXXXXXXXXXXXXXXXXoooooooooooooooooo..................oooooooooooooo                  oooooo",
"ooooooXXXXXXXXXXXXXXXXXXoooooooooooooooooo..................oooooooooooooo                  oooooo",
"ooooXXXXXXXXXXXXXXXXXXoooooooooooooooooo..................oooooooooooooo                  oooooooo",
"ooooXXXXXXXXXXXXXXXXXXoooooooooooooooooo..................oooooooooooooo                  oooooooo",
"ooooXXXXXXXXXXXXXXXXXXoooooooooooooooooo..................oooooooooooooo                  oooooooo",
"ooooXXXXXXXXXXXXXXXXXXoooooooooooooooooo..................oooooooooooooo                  oooooooo",
"ooooXXXXXXXXXXXXXXXXXXoooooooooooooooooo..................oooooooooooooo                  oooooooo",
"ooooXXXXXXXXXXXXXXXXXXoooooooooooooooooo..................oooooooooooooo                  oooooooo",
"ooXXXXXXXXXXXXXXXXXXoooooooooooooooooo..................oooooooooooooo                  oooooooooo",
"ooXXXXXXXXXXXXXXXXXXoooooooooooooooooo..................oooooooooooooo                  oooooooooo",
"ooXXXXXXXXXXXXXXXXXXoooooooooooooooooo..................oooooooooooooo                  oooooooooo",
"ooXXXXXXXXXXXXXXXXXXoooooooooooooooooo..................oooooooooooooo                  oooooooooo",
"XXXXXXXXXXXXXXXXXXoooooooooooooooooo..................oooooooooooooo                  oooooooooooo",
"XXXXXXXXXXXXXXXXXXoooooooooooooooooo..................oooooooooooooo                  oooooooooooo",
"XXXXXXXXXXXXXXXXXXoooooooooooooooooo..................oooooooooooooo                  oooooooooooo",
"XXXXXXXXXXXXXXXXXXoooooooooooooooooo..................oooooooooooooo                  oooooooooooo",
"XXXXXXXXXXXXXXXXXXoooooooooooooooooo..................oooooooooooooo                  oooooooooooo",
"XXXXXXXXXXXXXXXXXXoooooooooooooooooo..................oooooooooooooo                  oooooooooooo",
"XXXXXXXXXXXXXXXXoooooooooooooooooo..................oooooooooooooo                  oooooooooooooo",
"XXXXXXXXXXXXXXXXoooooooooooooooooo..................oooooooooooooo                  oooooooooooooo",
"XXXXXXXXXXXXXXXXoooooooooooooooooo..................oooooooooooooo                  oooooooooooooo",
"XXXXXXXXXXXXXXXXoooooooooooooooooo..................oooooooooooooo                  oooooooooooooo",
"XXXXXXXXXXXXXXoooooooooooooooooo..................oooooooooooooo                  ooooooooooooooXX",
"XXXXXXXXXXXXXXoooooooooooooooooo..................oooooooooooooo                  ooooooooooooooXX",
"XXXXXXXXXXXXXXoooooooooooooooooo..................oooooooooooooo                  ooooooooooooooXX",
"XXXXXXXXXXXXXXoooooooooooooooooo..................oooooooooooooo                  ooooooooooooooXX",
"XXXXXXXXXXXXXXoooooooooooooooooo..................oooooooooooooo                  ooooooooooooooXX",
"XXXXXXXXXXXXXXoooooooooooooooooo..................oooooooooooooo                  ooooooooooooooXX",
"XXXXXXXXXXXXoooooooooooooooooo..................oooooooooooooo                  ooooooooooooooXXXX",
"XXXXXXXXXXXXoooooooooooooooooo..................oooooooooooooo                  ooooooooooooooXXXX",
"XXXXXXXXXXXXoooooooooooooooooo..................oooooooooooooo                  ooooooooooooooXXXX",
"XXXXXXXXXXXXoooooooooooooooooo..................oooooooooooooo                  ooooooooooooooXXXX",
"XXXXXXXXXXoooooooooooooooooo..................oooooooooooooo                  ooooooooooooooXXXXXX",
"XXXXXXXXXXoooooooooooooooooo..................oooooooooooooo                  ooooooooooooooXXXXXX",
"XXXXXXXXXXoooooooooooooooooo..................oooooooooooooo                  ooooooooooooooXXXXXX",
"XXXXXXXXXXoooooooooooooooooo..................oooooooooooooo                  ooooooooooooooXXXXXX",
"XXXXXXXXXXoooooooooooooooooo..................oooooooooooooo                  ooooooooooooooXXXXXX",
"XXXXXXXXXXoooooooooooooooooo..................oooooooooooooo                  ooooooooooooooXXXXXX",
"XXXXXXXXoooooooooooooooooo..................oooooooooooooo                  ooooooooooooooXXXXXXXX",
"XXXXXXXXoooooooooooooooooo..................oooooooooooooo                  ooooooooooooooXXXXXXXX",
"XXXXXXXXoooooooooooooooooo..................oooooooooooooo                  ooooooooooooooXXXXXXXX",
"XXXXXXXXoooooooooooooooooo..................oooooooooooooo                  ooooooooooooooXXXXXXXX",
"XXXXXXoooooooooooooooooo..................oooooooooooooo                  ooooooooooooooXXXXXXXXXX",
"XXXXXXoooooooooooooooooo..................oooooooooooooo                  ooooooooooooooXXXXXXXXXX",
"XXXXXXoooooooooooooooooo..................oooooooooooooo                  ooooooooooooooXXXXXXXXXX",
"XXXXXXoooooooooooooooooo..................oooooooooooooo                  ooooooooooooooXXXXXXXXXX",
"XXXXXXoooooooooooooooooo..................oooooooooooooo                  ooooooooooooooXXXXXXXXXX",
"XXXXXXoooooooooooooooooo..................oooooooooooooo                  ooooooooooooooXXXXXXXXXX",
"XXXXoooooooooooooooooo..................oooooooooooooo                  ooooooooooooooXXXXXXXXXXXX",
"XXXXoooooooooooooooooo..................oooooooooooooo                  ooooooooooooooXXXXXXXXXXXX",
"XXXXoooooooooooooooooo..................oooooooooooooo                  ooooooooooooooXXXXXXXXXXXX",
"XXXXoooooooooooooooooo..................oooooooooooooo                  ooooooooooooooXXXXXXXXXXXX",
"XXoooooooooooooooooo..................oooooooooooooo                  ooooooooooooooXXXXXXXXXXXXXX",
"XXoooooooooooooooooo..................oooooooooooooo                  ooooooooooooooXXXXXXXXXXXXXX",
"XXoooooooooooooooooo..................oooooooooooooo                  ooooooooooooooXXXXXXXXXXXXXX",
"XXoooooooooooooooooo..................oooooooooooooo                  ooooooooooooooXXXXXXXXXXXXXX",
"XXoooooooooooooooooo..................oooooooooooooo                  ooooooooooooooXXXXXXXXXXXXXX",
"XXoooooooooooooooooo..................oooooooooooooo                  ooooooooooooooXXXXXXXXXXXXXX",
"oooooooooooooooooo..................oooooooooooooo                  ooooooooooooooXXXXXXXXXXXXXXXX",
"oooooooooooooooooo..................oooooooooooooo                  ooooooooooooooXXXXXXXXXXXXXXXX",
"oooooooooooooooooo..................oooooooooooooo                  ooooooooooooooXXXXXXXXXXXXXXXX",
"oooooooooooooooooo..................oooooooooooooo                  ooooooooooooooXXXXXXXXXXXXXXXX",
"oooooooooooooooo..................oooooooooooooo                  ooooooooooooooXXXXXXXXXXXXXXXXXX",
"oooooooooooooooo..................oooooooooooooo                  ooooooooooooooXXXXXXXXXXXXXXXXXX",
"oooooooooooooooo..................oooooooooooooo                  ooooooooooooooXXXXXXXXXXXXXXXXXX",
"oooooooooooooooo..................oooooooooooooo                  ooooooooooooooXXXXXXXXXXXXXXXXXX",
"oooooooooooooooo..................oooooooooooooo                  ooooooooooooooXXXXXXXXXXXXXXXXXX",
"oooooooooooooooo..................oooooooooooooo                  ooooooooooooooXXXXXXXXXXXXXXXXXX"
};
