/* XPM */
static const char *star_icon_16_xpm[] = {
"16 16 4 1 0 0",
"  c #F1F80F",
"! c #F1F90F",
"# c #F1F610",
"$ c None",
"$$$$$$$  $$$$$$$",
"$$$$$$$  $$$$$$$",
"$$$$$$    $$$$$$",
"$$$$$$    $$$$$$",
"$$$$$$   !$$$$$$",
"$$$$$    ! $$$$$",
"    !#          ",
"$              $",
"$$          ! $$",
"$$$         !$$$",
"$$$$!!      $$$$",
"$$$ !        $$$",
"$$$          $$$",
"$$$    $$    $$$",
"$$$   $$$$   $$$",
"$$  $$$$$$$$  $$"
};
