/* XPM */
static const char *state_64[] = {
"64 64 116 2 0 0",
"   c #FFFFFF",
"!  c #000000",
"#  c #EAEAEA",
"$  c #C1C1C1",
"%  c #CACACA",
"&  c #2E2E2E",
"'  c #3E3E3E",
"(  c #353535",
")  c #6E6E6E",
"*  c #050505",
"+  c #E4E4E4",
",  c #BFBFBF",
"-  c #BCBCBC",
".  c #4B4B4B",
"/  c #FAFAFA",
"0  c #111111",
"1  c #7F7F7F",
"2  c #949494",
"3  c #A6A6A6",
"4  c #0C0C0C",
"5  c #1C1C1C",
"6  c #FDFDFD",
"7  c #7E7E7E",
"8  c #ADADAD",
"9  c #E2E2E2",
":  c #696969",
";  c #424242",
"<  c #070707",
"=  c #767676",
">  c #AFAFAF",
"?  c #4D4D4D",
"@  c #020202",
"A  c #9A9A9A",
"B  c #EBEBEB",
"C  c #DFDFDF",
"D  c #030303",
"E  c #434343",
"F  c #D3D3D3",
"G  c #E9E9E9",
"H  c #414141",
"I  c #939393",
"J  c #282828",
"K  c #D9D9D9",
"L  c #AAAAAA",
"M  c #606060",
"N  c #1F1F1F",
"O  c #E6E6E6",
"P  c #898989",
"Q  c #737373",
"R  c #A5A5A5",
"S  c #4C4C4C",
"T  c #FBFBFB",
"U  c #B8B8B8",
"V  c #484848",
"W  c #F7F7F7",
"X  c #E0E0E0",
"Y  c #F5F5F5",
"Z  c #101010",
"[  c #565656",
"]  c #A9A9A9",
"^  c #9E9E9E",
"_  c #989898",
"`  c #818181",
"a  c #ECECEC",
"b  c #333333",
"c  c #E8E8E8",
"d  c #A4A4A4",
"e  c #8E8E8E",
"f  c #6A6A6A",
"g  c #141414",
"h  c #CBCBCB",
"i  c #B4B4B4",
"j  c #0A0A0A",
"k  c #2A2A2A",
"l  c #CECECE",
"m  c #707070",
"n  c #636363",
"o  c #4E4E4E",
"p  c #C6C6C6",
"q  c #1A1A1A",
"r  c #EFEFEF",
"s  c #797979",
"t  c #525252",
"u  c #888888",
"v  c #FCFCFC",
"w  c #080808",
"x  c #E5E5E5",
"y  c #F4F4F4",
"z  c #242424",
"{  c #0E0E0E",
"|  c #F0F0F0",
"}  c #494949",
"~  c #9F9F9F",
" ! c #BEBEBE",
"!! c #B9B9B9",
"#! c #3A3A3A",
"$! c #A1A1A1",
"%! c #5B5B5B",
"&! c #535353",
"'! c #C0C0C0",
"(! c #5E5E5E",
")! c #7D7D7D",
"*! c #F8F8F8",
"+! c #161616",
",! c #868686",
"-! c #A0A0A0",
".! c #D6D6D6",
"/! c #A2A2A2",
"0! c #404040",
"1! c #BABABA",
"2! c #8F8F8F",
"3! c #8D8D8D",
"4! c #656565",
"5! c #131313",
"6! c #060606",
"7! c None",
"                                                                ! ! ! ! ! ! ! ! ! ! ! ! ! ! ! ! ! ! ! ! ! ! ! ! ! ! ! ! ! ! ! ! ",
"                                                                ! ! ! ! ! ! ! ! ! ! ! ! ! ! ! ! ! ! ! ! ! ! ! ! ! ! ! ! ! ! ! ! ",
"                                                                ! ! ! ! ! ! ! ! ! ! ! ! ! ! ! ! ! ! ! ! ! ! ! ! ! ! ! ! ! ! ! ! ",
"                                                                ! ! ! ! ! ! ! ! ! ! ! ! ! ! ! ! ! ! ! ! ! ! ! ! ! ! ! ! ! ! ! ! ",
"                                                                ! ! ! ! ! ! ! ! ! ! ! ! ! ! ! ! ! ! ! ! ! ! ! ! ! ! ! ! ! ! ! ! ",
"                                                                ! ! ! ! ! ! ! ! ! ! ! ! ! ! ! ! ! ! ! ! ! ! ! ! ! ! ! ! ! ! ! ! ",
"                                                                ! ! ! ! ! ! ! ! ! ! ! ! ! ! ! ! ! ! ! ! ! ! ! ! ! ! ! ! ! ! ! ! ",
"                                                                ! ! ! ! ! ! ! ! ! ! ! ! ! ! ! ! ! ! ! ! ! ! ! ! ! ! ! ! ! ! ! ! ",
"                                                                ! ! ! ! ! ! ! ! ! ! ! ! ! ! ! ! ! ! ! ! ! ! ! ! ! ! ! ! ! ! ! ! ",
"                                                                ! ! ! ! ! ! ! ! ! ! ! ! ! ! ! ! ! ! ! ! ! ! ! ! ! ! ! ! ! ! ! ! ",
"                                                                ! ! ! ! ! ! ! ! ! ! ! ! ! ! ! ! ! ! ! ! ! ! ! ! ! ! ! ! ! ! ! ! ",
"                                                                ! ! ! ! ! ! ! ! ! ! ! ! ! ! ! ! ! ! ! ! ! ! ! ! ! ! ! ! ! ! ! ! ",
"                                                                ! ! ! ! ! ! ! ! ! ! ! ! ! ! ! ! ! ! ! ! ! ! ! ! ! ! ! ! ! ! ! ! ",
"                                                                ! ! ! ! ! ! ! ! ! ! ! ! ! ! ! ! ! ! ! ! ! ! ! ! ! ! ! ! ! ! ! ! ",
"                                                                ! ! ! ! ! ! ! ! ! ! ! ! ! ! ! ! ! ! ! ! ! ! ! ! ! ! ! ! ! ! ! ! ",
"                                                                ! ! ! ! ! ! ! ! ! ! ! ! ! ! ! ! ! ! ! ! ! ! ! ! ! ! ! ! ! ! ! ! ",
"                                                                ! ! ! ! ! ! ! ! ! ! ! ! ! ! ! ! ! ! ! ! ! ! ! ! ! ! ! ! ! ! ! ! ",
"                                                                ! ! ! ! ! ! ! ! ! ! ! ! ! ! ! ! ! ! ! ! ! ! ! ! ! ! ! ! ! ! ! ! ",
"                          # $ $ %                               ! ! ! ! ! ! ! ! & ' ' ' ' ' ' ' ' ' ( ! ! ! ! ! ! ! ! ! ! ! ! ! ",
"                          ) ! ! * +                             ! ! ! ! ! ! ! ! ,                       - . ! ! ! ! ! ! ! ! ! ! ",
"                        / 0 ! ! ! 1                             ! ! ! ! ! ! ! ! ,                           2 ! ! ! ! ! ! ! ! ! ",
"                        3 ! ! 4 ! 5 6                           ! ! ! ! ! ! ! ! ,     3 7 7 7 7 7 7 8 9       : ! ! ! ! ! ! ! ! ",
"                        ; ! < = ! ! >                           ! ! ! ! ! ! ! ! ,     ? ! ! ! ! ! ! ! @ A     B * ! ! ! ! ! ! ! ",
"                      C D ! E F ! ! ;                           ! ! ! ! ! ! ! ! ,     ? ! ! ! ! ! ! ! ! * G     H ! ! ! ! ! ! ! ",
"                      1 ! ! I   J ! ! K                         ! ! ! ! ! ! ! ! ,     ? ! ! ! ! ! ! ! ! ! L     M ! ! ! ! ! ! ! ",
"                    6 N ! D O   P ! ! Q                         ! ! ! ! ! ! ! ! ,     ? ! ! ! ! ! ! ! ! ! R     S ! ! ! ! ! ! ! ",
"                T T U ! ! V     O * ! 0 W                       ! ! ! ! ! ! ! ! ,     ? ! ! ! ! ! ! ! ! @ X   Y Z ! ! ! ! ! ! ! ",
"                T   [ ! ! ]       . ! ! ^                       ! ! ! ! ! ! ! ! ,     ? ! ! ! ! ! ! ! * _     ` ! ! ! ! ! ! ! ! ",
"                  a * ! 0 /       > ! ! b                       ! ! ! ! ! ! ! ! ,     3 7 7 7 7 7 7 R c     d @ ! ! ! ! ! ! ! ! ",
"                  e ! ! f         / g ! ! h                     ! ! ! ! ! ! ! ! ,                         i j ! ! ! ! ! ! ! ! ! ",
"                  k ! ! l           m ! ! n                     ! ! ! ! ! ! ! ! ,                           # o ! ! ! ! ! ! ! ! ",
"                p ! ! q $ $ $ $ $ $ 2 ! ! j r                   ! ! ! ! ! ! ! ! ,     s ' ' ' ' ' ' t u 9     v . ! ! ! ! ! ! ! ",
"                n ! ! ! ! ! ! ! ! ! ! ! ! ! e                   ! ! ! ! ! ! ! ! ,     ? ! ! ! ! ! ! ! ! w >     x * ! ! ! ! ! ! ",
"              y 4 ! ! ! ! ! ! ! ! ! ! ! ! ! z                   ! ! ! ! ! ! ! ! ,     ? ! ! ! ! ! ! ! ! ! { |     } ! ! ! ! ! ! ",
"              ~ ! ! & ` ` ` ` ` ` ` ` ` j ! !  !                ! ! ! ! ! ! ! ! ,     ? ! ! ! ! ! ! ! ! ! ! !!    Q ! ! ! ! ! ! ",
"              #!! ! $!                  %!! ! &!                ! ! ! ! ! ! ! ! ,     ? ! ! ! ! ! ! ! ! ! ! >     Q ! ! ! ! ! ! ",
"            K ! ! j y                   '!! ! * +               ! ! ! ! ! ! ! ! ,     ? ! ! ! ! ! ! ! ! ! @ +     [ ! ! ! ! ! ! ",
"            ! ! ! (!                      z ! ! )!              ! ! ! ! ! ! ! ! ,     ? ! ! ! ! ! ! ! ! ! m     *!Z ! ! ! ! ! ! ",
"          / +!! ! U                       ,!! ! q 6             ! ! ! ! ! ! ! ! ,     ? ! ! ! ! ! ! ! #!-!      2 ! ! ! ! ! ! ! ",
"          > ! ! q 6                       + D ! ! >             ! ! ! ! ! ! ! ! ,                             .!j ! ! ! ! ! ! ! ",
"          . ! ! Q                           . ! ! ;             ! ! ! ! ! ! ! ! ,                           /!{ ! ! ! ! ! ! ! ! ",
"          ; 0!0!.!                          1!0!0!0!a           ! ! ! ! ! ! ! ! 2!, , , , , , , , , , 3!4!q ! ! ! ! ! ! ! ! ! ! ",
"                                                                ! ! ! ! ! ! ! ! ! ! ! ! ! ! ! ! ! ! ! ! ! ! ! ! ! ! ! ! ! ! ! ! ",
"                                                                ! ! ! ! ! ! ! ! ! ! ! ! ! ! ! ! ! ! ! ! ! ! ! ! ! ! ! ! ! ! ! ! ",
"                                                                ! ! ! ! ! ! ! ! ! ! ! ! ! ! ! ! ! ! ! ! ! ! ! ! ! ! ! ! ! ! ! ! ",
"                                                                ! ! ! ! ! ! ! ! ! ! ! ! ! ! ! ! ! ! ! ! ! ! ! ! ! ! ! ! ! ! ! ! ",
"                                                                ! ! ! ! ! ! ! ! ! ! ! ! ! ! ! ! ! ! ! ! ! ! ! ! ! ! ! ! ! ! ! ! ",
"                                                                ! ! ! ! ! ! ! ! ! ! ! ! ! ! ! ! ! ! ! ! ! ! ! ! ! ! ! ! ! ! ! ! ",
"                                                                ! ! ! ! ! ! ! ! ! ! ! ! ! ! ! ! ! ! ! ! ! ! ! ! ! ! ! ! ! ! ! ! ",
"                                                                ! ! ! ! ! ! ! ! ! ! ! ! ! ! ! ! ! ! ! ! ! ! ! ! ! ! ! ! ! ! ! ! ",
"                                                                ! ! ! ! ! ! ! ! ! ! ! ! ! ! ! ! ! ! ! ! ! ! ! ! ! ! ! ! ! ! ! ! ",
"                                                                ! ! ! ! ! ! ! ! ! ! ! ! ! ! ! ! ! ! ! ! ! ! ! ! ! ! ! ! ! ! ! ! ",
"                                                                ! ! ! ! ! ! ! ! ! ! ! ! ! ! ! ! ! ! ! ! ! ! ! ! ! ! ! ! ! ! ! ! ",
"                                                                ! ! ! ! ! ! ! ! ! ! ! ! ! ! ! ! ! ! ! ! ! ! ! ! ! ! ! ! ! ! ! ! ",
"                                                                ! ! ! ! ! ! ! ! ! ! ! ! ! ! ! ! ! ! ! ! ! ! ! ! ! ! ! ! ! ! ! ! ",
"                                                                ! ! ! ! ! ! ! ! ! ! ! ! ! ! ! ! ! ! ! ! ! ! ! ! ! ! ! ! ! ! ! ! ",
"                                                                ! ! ! ! ! ! ! ! ! ! ! ! ! ! ! ! ! ! ! ! ! ! ! ! ! ! ! ! ! ! ! ! ",
"                                                                ! ! ! ! ! ! ! ! ! ! ! ! ! ! ! ! ! ! ! ! ! ! ! ! ! ! ! ! ! ! ! ! ",
"                                                                ! ! ! ! ! ! ! ! ! ! ! ! ! ! ! ! ! ! ! ! ! ! ! ! ! ! ! ! ! ! ! ! ",
"                                                                ! ! ! ! ! ! ! ! ! ! ! ! ! ! ! ! ! ! ! ! ! ! ! ! ! ! ! ! ! ! ! ! ",
"                                                                5!5!5!5!6!6!6!6!! ! ! ! ! ! ! ! ! ! ! ! ! ! ! ! 6!6!6!6!5!5!5!5!",
"                                                                5!5!5!5!6!6!6!6!! ! ! ! ! ! ! ! ! ! ! ! ! ! ! ! 6!6!6!6!5!5!5!5!",
"                                                                5!5!5!5!6!6!6!6!! ! ! ! ! ! ! ! ! ! ! ! ! ! ! ! 6!6!6!6!5!5!5!5!",
"                                                                5!5!5!5!6!6!6!6!! ! ! ! ! ! ! ! ! ! ! ! ! ! ! ! 6!6!6!6!5!5!5!5!"
};
