/* XPM */
static const char *stop_24_xpm[] = {
/* width height num_colors chars_per_pixel */
"    24    24        8            1",
/* colors */
"` c None",
". c #fefefe",
"# c #bfc5c9",
"a c #9aa7b2",
"b c #2076c0",
"c c #5892bd",
"d c #000000",
"e c #000000",
/* pixels */
"````````````````````````",
"````````````````````````",
"````````````````````````",
"```.#aaaaaaaaaaaaaa#.```",
"```#bccccccccccccccb#```",
"```acccccccccccccccca```",
"```acccccccccccccccca```",
"```acccccccccccccccca```",
"```acccccccccccccccca```",
"```acccccccccccccccca```",
"```acccccccccccccccca```",
"```acccccccccccccccca```",
"```acccccccccccccccca```",
"```acccccccccccccccca```",
"```acccccccccccccccca```",
"```acccccccccccccccca```",
"```acccccccccccccccca```",
"```acccccccccccccccca```",
"```acccccccccccccccca```",
"```#bccccccccccccccb#```",
"```.#aaaaaaaaaaaaaa#.```",
"````````````````````````",
"````````````````````````",
"````````````````````````"
};
