/* XPM */
static const char *stop_24_off_xpm[] = {
/* width height num_colors chars_per_pixel */
"    24    24        8            1",
/* colors */
"` c None",
". c #fefefe",
"# c #bfc5c9",
"a c #9f9f9f",
"b c #cbcbcb",
"c c #000000",
"d c #000000",
"e c #000000",
/* pixels */
"````````````````````````",
"````````````````````````",
"````````````````````````",
"```.#aaaaaaaaaaaaaa#.```",
"```#abbbbbbbbbbbbbba#```",
"```abbbbbbbbbbbbbbbba```",
"```abbbbbbbbbbbbbbbba```",
"```abbbbbbbbbbbbbbbba```",
"```abbbbbbbbbbbbbbbba```",
"```abbbbbbbbbbbbbbbba```",
"```abbbbbbbbbbbbbbbba```",
"```abbbbbbbbbbbbbbbba```",
"```abbbbbbbbbbbbbbbba```",
"```abbbbbbbbbbbbbbbba```",
"```abbbbbbbbbbbbbbbba```",
"```abbbbbbbbbbbbbbbba```",
"```abbbbbbbbbbbbbbbba```",
"```abbbbbbbbbbbbbbbba```",
"```abbbbbbbbbbbbbbbba```",
"```#abbbbbbbbbbbbbba#```",
"```.#aaaaaaaaaaaaaa#.```",
"````````````````````````",
"````````````````````````",
"````````````````````````"
};
