/* XPM */
static const char *strobe[] = {
/* width height num_colors chars_per_pixel */
"16 16 3 1",
/* colors */
"  c #ffffff",
". c #000000",
"X c #0084ff",
/* pixels */
" . .....X..X. . ",
". .....XXX...  .",
" . ..X..X.... . ",
".X.........X....",
"XXX. . ..X......",
".X... .......X..",
".... . .. ..XXX.",
"X.......   ..X..",
"..X.X.X.. ......",
"...X.......... .",
"..X.X.. . .X.   ",
"........ ..... .",
".... .. . ......",
"X.X   .....X.X..",
".X.. ...X...X...",
"X.X........X.X.X"
};

