/* XPM */
static const char * switch_xpm[] = {
"24 24 12 1",
" 	c #EAEAEA",
".	c #507090",
"+	c #A0A8C0",
"@	c #F6F9F6",
"#	c #C0C8E0",
"$	c #C1C6D5",
"%	c #F4F8F4",
"&	c #F3F8F3",
"*	c #AAB1C7",
"=	c #A5ACC3",
"-	c #F7F9F7",
";	c #BBC1D1",
"                        ",
"                        ",
"          ......        ",
"        +.@#..#@.$      ",
"       +.%#.  .#%.$     ",
"       .%@.   ++&**     ",
"      ++&==    .&-.;    ",
"      .&&.     ==%**    ",
"    ...@@...    .@@.    ",
"    #.@@@@.#    .@@.    ",
"     #.@@.#     ....    ",
"      #..#              ",
"              #..#      ",
"    ....     #.@@.#     ",
"    .@@.    #.@@@@.#    ",
"    .@@.    ...@@...    ",
"    **%==     .&&.      ",
"    ;.-&.    ==&++      ",
"     **&++   .@%.       ",
"     $.%#.  .#%.+       ",
"      $.@#..#@.+        ",
"        ......          ",
"                        ",
"                        "};
