/* XPM */
static const char * tendril_64[] = {
"64 64 3 1",
" 	c None",
".	c #000000",
"+	c #ED1C24",
"................................................................",
"................................................................",
"................................................................",
"................................................................",
"................................................................",
"................................................................",
"................................................................",
"................................................................",
"................................................................",
"................................................................",
"................................................................",
"................................................................",
"................................................................",
"................................................................",
"................................................................",
"................................................................",
"................................................................",
"................................................................",
"................................................................",
"................................................................",
"................................................................",
"................................................................",
"................................................................",
"................................................................",
"................................................................",
"................................................................",
"................................................................",
"................................................................",
"................................................................",
"................................................................",
".....................++++++++++.................................",
"..................++++++++++++++++++............................",
"................++++++++++++++++++++++++........................",
"...............+++++++++++++++++++++++++++++............+++.....",
".............+++++++++++++++++++++++++++++++++++......++++++....",
"............++++++++++.........+++++++++++++++++++++++++++++....",
"...........++++++++................+++++++++++++++++++++++++....",
"...........++++++......................++++++++++++++++++++.....",
"..........++++++...........................++++++++++++++.......",
".........++++++................................++++++++.........",
".........++++++.................................................",
"........++++++..................................................",
"........+++++...................................................",
".......++++++...................................................",
".......+++++....................................................",
".......+++++....................................................",
"......++++++....................................................",
"......+++++.....................................................",
"......+++++.....................................................",
".....++++++.....................................................",
".....+++++......................................................",
".....+++++......................................................",
".....+++++......................................................",
".....+++++......................................................",
".....+++++......................................................",
"....+++++.......................................................",
"....+++++.......................................................",
"....+++++.......................................................",
"....+++++.......................................................",
"....+++++.......................................................",
".....+++........................................................",
"................................................................",
"................................................................",
"................................................................"};
