/* XPM */
static const char *text[] = {
/* columns rows colors chars-per-pixel */
"16 16 2 1 ",
"  c #0F8C06",
". c None",
/* pixels */
" ... .    .    .",
"  .  . .... .. .",
" . . .   .. .. .",
" ... . ....   ..",
" ... . .... . ..",
" ... .    . .. .",
"................",
"................",
"................",
"    .. ... .....",
" .. .. ... .....",
" .. ...   ......",
"   ..... .......",
" . ..... .......",
" .. .... .......",
"................"
};
