/* XPM */
static const char *text_64[] = {
/* width height num_colors chars_per_pixel */
"64 64 202 2", 
/* colors */
"   c #00D800",
".  c #300000",
"X  c #000D00",
"o  c #E70000",
"O  c #230000",
"+  c #005000",
"@  c #008600",
"#  c #00BC00",
"$  c #00F200",
"%  c #900000",
"&  c #002700",
"*  c #CD0000",
"=  c #005D00",
"-  c #009300",
";  c #00FF00",
":  c #003400",
">  c #390000",
",  c #00D600",
"<  c #B30000",
"1  c #000B00",
"2  c #004100",
"3  c #690000",
"4  c #00AD00",
"5  c #00E300",
"6  c #004E00",
"7  c #4F0000",
"8  c #009100",
"9  c #00FD00",
"0  c #003200",
"q  c #7F0000",
"w  c #F90000",
"e  c #350000",
"r  c #000900",
"t  c #EC0000",
"y  c #280000",
"u  c #A20000",
"i  c #00B800",
"p  c #580000",
"a  c #00EE00",
"s  c #005900",
"d  c #008F00",
"f  c #00C500",
"g  c #003000",
"h  c #010000",
"j  c #006600",
"k  c #009C00",
"l  c #7B0000",
"z  c #00D200",
"x  c #000700",
"c  c #310000",
"v  c #007300",
"b  c #6E0000",
"n  c #001400",
"m  c #008000",
"M  c #00EC00",
"N  c #005700",
"B  c #008D00",
"V  c #00C300",
"C  c #00F900",
"Z  c #002E00",
"A  c #840000",
"S  c #006400",
"D  c #009A00",
"F  c #00D000",
"G  c #000500",
"H  c #007100",
"J  c #00A700",
"K  c #2D0000",
"L  c #00DD00",
"P  c #004800",
"I  c #007E00",
"U  c #5D0000",
"Y  c #001F00",
"T  c #005500",
"R  c #008B00",
"E  c #00F700",
"W  c #002C00",
"Q  c #009800",
"!  c #800000",
"~  c #000300",
"^  c #360000",
"/  c #006F00",
"(  c #ED0000",
")  c #004600",
"_  c #007C00",
"`  c #A30000",
"'  c #00B200",
"]  c #E00000",
"[  c #008900",
"{  c #890000",
"}  c #006000",
"|  c #020000",
" . c #00CC00",
".. c #003700",
"X. c #00A300",
"o. c #320000",
"O. c #00D900",
"+. c #004400",
"@. c #00B000",
"#. c #005100",
"$. c #180000",
"%. c #008700",
"&. c #00BD00",
"*. c #00F300",
"=. c #002800",
"-. c #850000",
";. c #FF0000",
":. c #3B0000",
">. c #006B00",
",. c #00A100",
"<. c #00D700",
"1. c #000C00",
"2. c #2E0000",
"3. c #A80000",
"4. c #5E0000",
"5. c #9B0000",
"6. c #140000",
"7. c #00F100",
"8. c #00C800",
"9. c #440000",
"0. c #810000",
"q. c #003300",
"w. c #006900",
"e. c #009F00",
"r. c #00D500",
"t. c #000A00",
"y. c #EE0000",
"u. c #007600",
"i. c #00AC00",
"p. c #A40000",
"a. c #001700",
"s. c #E10000",
"d. c #005A00",
"f. c #8A0000",
"g. c #00FC00",
"h. c #7D0000",
"j. c #BA0000",
"k. c #F70000",
"l. c #330000",
"z. c #AD0000",
"x. c #00AA00",
"c. c #EA0000",
"v. c #260000",
"b. c #001500",
"n. c #A00000",
"m. c #008100",
"M. c #00B700",
"N. c #190000",
"B. c #930000",
"V. c #005800",
"C. c #00FA00",
"Z. c #009B00",
"A. c #00D100",
"S. c #000600",
"D. c #B60000",
"F. c #003C00",
"G. c #007200",
"H. c #00A800",
"J. c #00DE00",
"K. c #001300",
"L. c #E60000",
"P. c #00B500",
"I. c #9C0000",
"U. c #00EB00",
"Y. c #008C00",
"T. c #00C200",
"R. c #FC0000",
"E. c #000400",
"W. c #380000",
"Q. c #00A600",
"!. c #00DC00",
"~. c #007D00",
"^. c #00B300",
"/. c #1E0000",
"(. c #00E900",
"). c #001E00",
"_. c #980000",
"`. c #005400",
"'. c #00F600",
"]. c #8B0000",
"[. c #002B00",
"{. c #C80000",
"}. c #006100",
"|. c #410000",
" X c #00CD00",
".X c #000200",
"XX c #F80000",
"oX c #006E00",
"OX c #00A400",
"+X c #00DA00",
"@X c #004500",
"#X c #00B100",
"$X c #00E700",
"%X c #940000",
"&X c #00BE00",
"*X c #4A0000",
"=X c #005F00",
"-X c #C40000",
";X c #00CB00",
":X c #000000",
">X c #3D0000",
",X c #003600",
/* pixels */
":X:X:X:X:X:X:X:X:X:X:X:X:X:X:X:X:X:X:X:X:X:X:X:X:X:X:X:X:X:X:X:X:X:X:X:X:X:X:X:X:X:X:X:X:X:X:X:X:X:X:X:X:X:X:X:X:X:X:X:X:X:X:X:X",
":X:X:X:X:X:X:X:X:X:X:X:X:X:X:X:X:X:X:X:X:X:X:X:X:X:X:X:X:X:X:X:X:X:X:X:X:X:X:X:X:X:X:X:X:X:X:X:X:X:X:X:X:X:X:X:X:X:X:X:X:X:X:X:X",
":X:X:X:X:X:X:X:X:X:X:X:X:X:X:X:X:X:X:X:X:X:X:X:X:X:X:X:X:X:X:X:X:X:X:X:X:X:X:X:X:X:X:X:X:X:X:X:X:X:X:X:X:X:X:X:X:X:X:X:X:X:X:X:X",
":X:X:X:X:X:X:X:X:X:X:X:X:X:X:X:X:X:X:X:X:X:X:X:X:X:X:X:X:X:X:X:X:X:X:X:X:X:X:X:X:X:X:X:X:X:X:X:X:X:X:X:X:X:X:X:X:X:X:X:X:X:X:X:X",
":X:X:X:X:X:X:X:X:X:X:X:X:X:X:X:X:X:X:X:X:X:X:X:X:X:X:X:X:X:X:X:X:X:X:X:X:X:X:X:X:X:X:X:X:X:X:X:X:X:X:X:X:X:X:X:X:X:X:X:X:X:X:X:X",
":X:X:X:X:X:X:X:X:X:X:X:X:X:X:X:X:X:X:X:X:X:X:X:X:X:X:X:X:X:X:X:X:X:X:X:X:X:X:X:X:X:X:X:X:X:X:X:X:X:X:X:X:X:X:X:X:X:X:X:X:X:X:X:X",
":X:X:X:X:X:X:X:X:X:X:X:X:X:X:X:X:X:X:X:X:X:X:X:X:X:X:X:X:X:X:X:X:X:X:X:X:X:X:X:X:X:X:X:X:X:X:X:X:X:X:X:X:X:X:X:X:X:X:X:X:X:X:X:X",
":X:X:X:X:X:X:X:X:X:X:X:X:X:X:X:X:X:X:X:X:X:X:X:X:X:X:X:X:X:X:X:X:X:X:X:X:X:X:X:X:X:X:X:X:X:X:X:X:X:X:X:X:X:X:X:X:X:X:X:X:X:X:X:X",
":X:X:X:X:X:X:X:X:X:X:X:X:X:X:X:X:X:X:X:X:X:X:X:X:X:X:X:X:X:X:X:X:X:X:X:X:X:X:X:X:X:X:X:X:X:X:X:X:X:X:X:X:X:X:X:X:X:X:X:X:X:X:X:X",
":X:X9.-.h.h.h.h.h.h.h.h.h.0.3 :X:X:X9.-.h.h.h.h.h.h.h.h.h.0.3 :X:Xb A q ! :X:X:X:X:X:X! q A b :X:X3 0.h.h.h.h.h.h.h.h.h.-.9.:X:X",
":X:X%X;.;.;.;.;.;.;.;.;.;.;.s.:X:X:X%X;.;.;.;.;.;.;.;.;.;.;.s.:X:Xj.;.;.;.$.h :X:Xh $.;.;.;.j.:X:Xs.;.;.;.;.;.;.;.;.;.;.;.%X:X:X",
":X:X5.;.;.;.;.;.;.;.;.;.;.;.t :X:X:X].;.;.;.;.;.;.;.;.;.;.;.t :X:X:X% ;.;.;.6.:X:X6.;.;.;.% :X:X:Xt ;.;.;.;.;.;.;.;.;.;.;.5.:X:X",
":X:X:X:X:X:X:XI.;.c.:X:X:X:X:X:X:X:X].;.;.:X:X:X:X:X:X:X:X:X:X:X:X:X:Xe ;.;.:X:X:X:X;.;.e :X:X:X:X:X:X:X:X:Xc.;.I.:X:X:X:X:X:X:X",
":X:X:X:X:X:X:X` ;.( :X:X:X:X:X:X:X:X].;.;.:X:X:X:X:X:X:X:X:X:X:X:X:X:X9.;.;.* > > * ;.;.9.:X:X:X:X:X:X:X:X:X( ;.` :X:X:X:X:X:X:X",
":X:X:X:X:X:X:Xp.;.y.:X:X:X:X:X:X:X:X].;.;.:X:X:X:X:X:X:X:X:X:X:X:X:X:Xv.n.;.;.7 7 ;.;.n.v.:X:X:X:X:X:X:X:X:Xy.;.p.:X:X:X:X:X:X:X",
":X:X:X:X:X:X:Xp.;.y.:X:X:X:X:X:X:X:X].;.;.:X:X:X:X:X:X:X:X:X:X:X:X:X:X:X:X;.;.U U ;.;.:X:X:X:X:X:X:X:X:X:X:Xy.;.p.:X:X:X:X:X:X:X",
":X:X:X:X:X:X:Xp.;.y.:X:X:X:X:X:X:X:X].;.;.:X:X:X:X:X:X:X:X:X:X:X:X:X:X:X:X:Xc.;.;.c.:X:X:X:X:X:X:X:X:X:X:X:Xy.;.p.:X:X:X:X:X:X:X",
":X:X:X:X:X:X:Xp.;.y.:X:X:X:X:X:X:X:X].;.;.XXR.R.R.R.R.R.;.{ :X:X:X:X:X:X:X:Xy.;.;.y.:X:X:X:X:X:X:X:X:X:X:X:Xy.;.p.:X:X:X:X:X:X:X",
":X:X:X:X:X:X:Xp.;.y.:X:X:X:X:X:X:X:X].;.;.;.;.;.;.;.;.;.;.B.:X:X:X:X:X:X:X:Xt ;.;.t :X:X:X:X:X:X:X:X:X:X:X:Xy.;.p.:X:X:X:X:X:X:X",
":X:X:X:X:X:X:Xp.;.y.:X:X:X:X:X:X:X:X].;.;.u z.z.z.z.z.z.D.4.:X:X:X:X:X:X:X*Xw {.{.w *X:X:X:X:X:X:X:X:X:X:X:Xy.;.p.:X:X:X:X:X:X:X",
":X:X:X:X:X:X:Xp.;.y.:X:X:X:X:X:X:X:X].;.;.:X:X:X:X:X:X:X:X:X:X:X:X:X:X:X:X;.;.|.|.;.;.:X:X:X:X:X:X:X:X:X:X:Xy.;.p.:X:X:X:X:X:X:X",
":X:X:X:X:X:X:Xp.;.y.:X:X:X:X:X:X:X:X].;.;.:X:X:X:X:X:X:X:X:X:X:X:X:X:XW.;.;.;.p p ;.;.;.W.:X:X:X:X:X:X:X:X:Xy.;.p.:X:X:X:X:X:X:X",
":X:X:X:X:X:X:Xp.;.y.:X:X:X:X:X:X:X:X].;.;.:X:X:X:X:X:X:X:X:X:X:X:X:Xl k.;.;.. | | . ;.;.k.l :X:X:X:X:X:X:X:Xy.;.p.:X:X:X:X:X:X:X",
":X:X:X:X:X:X:Xp.;.y.:X:X:X:X:X:X:X:X].;.;.:X:X:X:X:X:X:X:X:X:X:X:X:Xf.;.;.3 | :X:X| 3 ;.;.f.:X:X:X:X:X:X:X:Xy.;.p.:X:X:X:X:X:X:X",
":X:X:X:X:X:X:Xp.;.y.:X:X:X:X:X:X:X:X].;.;.v.:.:.:.:.:.:.:.>Xo.:X:Xv.3.;.;.:X:X:X:X:X:X;.;.3.v.:X:X:X:X:X:X:Xy.;.p.:X:X:X:X:X:X:X",
":X:X:X:X:X:X:Xp.;.y.:X:X:X:X:X:X:X:X].;.;.;.;.;.;.;.;.;.;.;.L.:X:X] ;.;.;.:X:X:X:X:X:X;.;.;.] :X:X:X:X:X:X:Xy.;.p.:X:X:X:X:X:X:X",
":X:X:X:X:X:X:X< ;.;.:X:X:X:X:X:X:X:X_.;.;.;.;.;.;.;.;.;.;.;.o :X;.;.;.-X:X:X:X:X:X:X:X:X-X;.;.;.:X:X:X:X:X:X;.;.< :X:X:X:X:X:X:X",
":X:X:X:X:X:X:X/.l.K :X:X:X:X:X:X:X:XN.o.2.2.2.2.2.2.2.2.2.. y :X^ 2.c O :X:X:X:X:X:X:X:XO c 2.^ :X:X:X:X:X:XK l./.:X:X:X:X:X:X:X",
":X:X:X:X:X:X:X:X:X:X:X:X:X:X:X:X:X:X:X:X:X:X:X:X:X:X:X:X:X:X:X:X:X:X:X:X:X:X:X:X:X:X:X:X:X:X:X:X:X:X:X:X:X:X:X:X:X:X:X:X:X:X:X:X",
":X:X:X:X:X:X:X:X:X:X:X:X:X:X:X:X:X:X:X:X:X:X:X:X:X:X:X:X:X:X:X:X:X:X:X:X:X:X:X:X:X:X:X:X:X:X:X:X:X:X:X:X:X:X:X:X:X:X:X:X:X:X:X:X",
":X:X:X:X:X:X:X:X:X:X:X:X:X:X:X:X:X:X:X:X:X:X:X:X:X:X:X:X:X:X:X:X:X:X:X:X:X:X:X:X:X:X:X:X:X:X:X:X:X:X:X:X:X:X:X:X:X:X:X:X:X:X:X:X",
":X:X:X:X:X:X:X:X:X:X:X:X:X:X:X:X:X:X:X:X:X:X:X:X:X:X:X:X:X:X:X:X:X:X:X:X:X:X:X:X:X:X:X:X:X:X:X:X:X:X:X:X:X:X:X:X:X:X:X:X:X:X:X:X",
":X:X:X:X:X:X:X:X:X:X:X:X:X:X:X:X:X:X:X:X:X:X:X:X:X:X:X:X:X:X:X:X:X:X:X:X:X:X:X:X:X:X:X:X:X:X:X:X:X:X:X:X:X:X:X:X:X:X:X:X:X:X:X:X",
":X:X:X:X:X:X:X:X:X:X:X:X:X:X:X:X:X:X:X:X:X:X:X:X:X:X:X:X:X:X:X:X:X:X:X:X:X:X:X:X:X:X:X:X:X:X:X:X:X:X:X:X:X:X:X:X:X:X:X:X:X:X:X:X",
":X:X:X:X:X:X:X:X:X:X:X:X:X:X:X:X:X:X:X:X:X:X:X:X:X:X:X:X:X:X:X:X:X:X:X:X:X:X:X:X:X:X:X:X:X:X:X:X:X:X:X:X:X:X:X:X:X:X:X:X:X:X:X:X",
":X:X:X:X:X:X:X:X:X:X:X:X:X:X:X:X:X:X:X:X:X:X:X:X:X:X:X:X:X:X:X:X:X:X:X:X:X:X:X:X:X:X:X:X:X:X:X:X:X:X:X:X:X:X:X:X:X:X:X:X:X:X:X:X",
":X:X:X:X:X:X:X:X:X:X:X:X:X:X:X:X:X:X:X:X:X:X:X:X:X:X:X:X:X:X:X:X:X:X:X:X:X:X:X:X:X:X:X:X:X:X:X:X:X:X:X:X:X:X:X:X:X:X:X:X:X:X:X:X",
":X:X:X:X:X:X:X:X:X:X:X:X:X:X:X:X:X:X:X:X:X:X:X:X:X:X:X:X:X:X:X:X:X:X:X:X:X:X:X:X:X:X:X:X:X:X:X:X:X:X:X:X:X:X:X:X:X:X:X:X:X:X:X:X",
":X:X:X:X:X:X:X:X:X:X:X:X:X:X:X:X:X:X:X:X:X:X:X:X:X:X:X:X:X:X:X:X:X:X:X:X:X:X:X:X:X:X:X:X:X:X:X:X:X:X:X:X:X:X:X:X:X:X:X:X:X:X:X:X",
":X:X:X:X:X:X:X:X:X:X:X:X:X:X:X:X:X:X:X:X:X:X:X:X:X:X:X:X:X:X:X:X:X:X:X:X:X:X:X:X:X:X:X:X:X:X:X:X:X:X:X:X:X:X:X:X:X:X:X:X:X:X:X:X",
":X:X:X:X:X; ; T :X:X:X:X:Xv ; ; :X:XZ.; ; ; b.:X:X:X:X:XA.; ; ; :X:X:X:X:X:X; ; ; ; :X:X:X:X:X:X:X:Xd ; ; ; ; ; i.:X:X:X:X:X:X:X",
":X:X:X:X:X; ; '.d :X:X:XOXE ; ; :X:XR ; ; ; .X:X:X:X:X:Xi ; ; ; :X:X:X:X:X:XU.; ; U.:X:X:X:X:X:X:XP.; ; ; ; ; ; C ;X:X:X:X:X:X:X",
":X:X:X:X:X/ g.; OX:X:X:X&X; a G.:X:XR ; ; ; e.g :X:X:X%.5 ; ; ; :X:X:X:X:X8 ; e.e.; 8 :X:X:X:X:X- C.M.w.H H j z ; g.8 :X:X:X:X:X",
":X:X:X:X:X:X@.E # & :X[.F 7.k :X:X:XR ; ; ; ; } :X:X:X; ; ; ; ; :X:X:X:X:X; ; @X@X; ; :X:X:X:X:X; ; >.:X:X:X:Xu.5 ; ; :X:X:X:X:X",
":X:X:X:X:X:X:XZ.; 9 :X; ; m :X:X:X:XR ; ; ; ; d.:X:X:X; ; ; ; ; :X:X:X:X:X; ; 6 6 ; ; :X:X:X:X:X; ; S :X:X:X:X:XN ; ; :X:X:X:X:X",
":X:X:X:X:X:X:X' ; ; ; ; ; Q :X:X:X:XR ; ; :Xg.+ :X:X:X; Y V.; ; :X:X:X:X:X; ; N N ; ; :X:X:X:X:X; ; ; ; ; :X:X:X:X:X:X:X:X:X:X:X",
":X:X:X:X:X:X:Xa.I ; ; ; >.n :X:X:X:XR ; ; :X*.M _ :XO.; q.w.; ; :X:X:X: +X; ) t.t.) ; +X: :X:X:X=.$X; ; ; f  .r.~.:X:X:X:X:X:X:X",
":X:X:X:X:X:X:X:X#.; ; ; ..:X:X:X:X:XR ; ; :Xa ; OX:X; ; 0 w.; ; :X:X:X+.; ; E.:X:XE.; ; +.:X:X:X:X/ @ H.; ; ; ; , S :X:X:X:X:X:X",
":X:X:X:X:X:X:XX v ; ; ; =X1 :X:X:X:XR ; ; :Xa ; e.:X; ; 0 w.; ; :X:X:X2 ; ; 0 ).).0 ; ; 2 :X:X:X:X:X:XZ a !.  *.; g.K.:X:X:X:X:X",
":X:X:X:X:X:X:X^.; ; ; ; ; Q :X:X:X:XR ; ; :X; ; - :X; ; F.w.; ; :X:X:XW ; ; ; ; ; ; ; ; W :X:X:X:X:X:X:X:X:X:X4 ; ; ; :X:X:X:X:X",
":X:X:X:X:X:X:Xk ; 9 :X; ; m.:X:X:X:XR ; ; :X:Xe.; ; ; :X:Xv ; ; :X:X8 ; ; ; ; ; ; ; ; ; ; 8 :X:X; ; oX:X:X:X:X:X) ; ; :X:X:X:X:X",
":X:X:X:X:X:X,.7.V ,X:XF.r.(.d :X:X:XR ; ; :X:XX.; ; ; :X:Xv ; ; :X:XY.; ; : P P P P : ; ; Y.:X:X; ; J.I :X:X:X>.<.; ; :X:X:X:X:X",
":X:X:X:X:X= g.; X.:X:X:X&.; M =X:X:XR ; ; :X:XJ ; ; ; :X:Xv ; ; :X:X[ ; ; :X:X:X:X:X:X; ; [ :X:XQ.$ ; L `.}.T  X; g.X.:X:X:X:X:X",
":X:X:X:X:X; ; ; D :X:X:X#X; ; ; :X:XR ; ; :X:XD ; ; ; :X:Xv ; ; :X:X- ; *.:X:X:X:X:X:X*.; - :X:X:XT.; ; ; ; ; ; ; +X:X:X:X:X:X:X",
":X:X:X:X:X; ; `.:X:X:X:X:XH ; ; :X:XD ; ; :X:X:Xs ; :X:X:Xm ; ; :X; ; 8.:X:X:X:X:X:X:X:X8.; ; :X:X:XB ; ; ; ; ; x.:X:X:X:X:X:X:X",
":X:X:X:X:X1.1 .X:X:X:X:X:X~ 1 X :X:XG 1 1 :X:X:X~ X :X:X:X~ 1 X :Xr 1 x :X:X:X:X:X:X:X:Xx 1 r :X:X:XG 1 r r r t.S.:X:X:X:X:X:X:X",
":X:X:X:X:X:X:X:X:X:X:X:X:X:X:X:X:X:X:X:X:X:X:X:X:X:X:X:X:X:X:X:X:X:X:X:X:X:X:X:X:X:X:X:X:X:X:X:X:X:X:X:X:X:X:X:X:X:X:X:X:X:X:X:X",
":X:X:X:X:X:X:X:X:X:X:X:X:X:X:X:X:X:X:X:X:X:X:X:X:X:X:X:X:X:X:X:X:X:X:X:X:X:X:X:X:X:X:X:X:X:X:X:X:X:X:X:X:X:X:X:X:X:X:X:X:X:X:X:X",
":X:X:X:X:X:X:X:X:X:X:X:X:X:X:X:X:X:X:X:X:X:X:X:X:X:X:X:X:X:X:X:X:X:X:X:X:X:X:X:X:X:X:X:X:X:X:X:X:X:X:X:X:X:X:X:X:X:X:X:X:X:X:X:X",
":X:X:X:X:X:X:X:X:X:X:X:X:X:X:X:X:X:X:X:X:X:X:X:X:X:X:X:X:X:X:X:X:X:X:X:X:X:X:X:X:X:X:X:X:X:X:X:X:X:X:X:X:X:X:X:X:X:X:X:X:X:X:X:X",
":X:X:X:X:X:X:X:X:X:X:X:X:X:X:X:X:X:X:X:X:X:X:X:X:X:X:X:X:X:X:X:X:X:X:X:X:X:X:X:X:X:X:X:X:X:X:X:X:X:X:X:X:X:X:X:X:X:X:X:X:X:X:X:X",
":X:X:X:X:X:X:X:X:X:X:X:X:X:X:X:X:X:X:X:X:X:X:X:X:X:X:X:X:X:X:X:X:X:X:X:X:X:X:X:X:X:X:X:X:X:X:X:X:X:X:X:X:X:X:X:X:X:X:X:X:X:X:X:X",
":X:X:X:X:X:X:X:X:X:X:X:X:X:X:X:X:X:X:X:X:X:X:X:X:X:X:X:X:X:X:X:X:X:X:X:X:X:X:X:X:X:X:X:X:X:X:X:X:X:X:X:X:X:X:X:X:X:X:X:X:X:X:X:X",
":X:X:X:X:X:X:X:X:X:X:X:X:X:X:X:X:X:X:X:X:X:X:X:X:X:X:X:X:X:X:X:X:X:X:X:X:X:X:X:X:X:X:X:X:X:X:X:X:X:X:X:X:X:X:X:X:X:X:X:X:X:X:X:X"
};
