/* XPM */
static const char *timing_16[] = {
"16 16 3 1 0 0",
"  c #000000",
"! c #FFFFFF",
"# c None",
"################",
"#####     ######",
"###  !! !!  ####",
"## ! !! !! ! ###",
"# !!! ! ! !!! ##",
"#  !!!! !!!!  ##",
" !! !!! !!  !! #",
" !!!!!! ! !!!! #",
"   !!!!  !!!   #",
" !!!!!!!!!!!!! #",
" !! !!!!!!! !! #",
"#  !!!!!!!!!  ##",
"# !!! !!! !!! ##",
"## ! !! !! ! ###",
"###  !! !!  ####",
"#####     ######"
};
