/* XPM */
static const char * transition_16[] = {
"16 16 2 1",
" 	c #22B14C",
".	c #FFFFFF",
"         .......",
"         ...... ",
"         ...... ",
"         ....   ",
"         ....   ",
"         ..     ",
"         .      ",
"                ",
"                ",
"                ",
"                ",
"                ",
"                ",
"                ",
"                ",
"                "};
