/* XPM */
static const char * transition_48[] = {
"48 48 2 1",
" 	c #22B14C",
".	c #FFFFFF",
"                         .......................",
"                         .......................",
"                         .......................",
"                         .......................",
"                         .....................  ",
"                         .....................  ",
"                         ...................    ",
"                         ..................     ",
"                         .................      ",
"                         ................       ",
"                         ..............         ",
"                         .............          ",
"                         ............           ",
"                         ..........             ",
"                         .........              ",
"                         .........              ",
"                         .......                ",
"                         ......                 ",
"                         .....                  ",
"                         ...                    ",
"                         ...                    ",
"                         .                      ",
"                                                ",
"                                                ",
"                                                ",
"                                                ",
"                                                ",
"                                                ",
"                                                ",
"                                                ",
"                                                ",
"                                                ",
"                                                ",
"                                                ",
"                                                ",
"                                                ",
"                                                ",
"                                                ",
"                                                ",
"                                                ",
"                                                ",
"                                                ",
"                                                ",
"                                                ",
"                                                ",
"                                                ",
"                                                ",
"                                                "};
