/* XPM */
static const char *tree[] = {
/* width height num_colors chars_per_pixel */
"16 16 4 1",
/* colors */
"  c #000000",
". c #13ab09",
"X c #ab4409",
"o c #aba809",
/* pixels */
"       ..       ",
"      ....      ",
"     ...X..     ",
"      ....      ",
"     ..o...     ",
"     ......     ",
"    ........    ",
"     ..o...     ",
"    .....X..    ",
"   ..X.......   ",
"  ............  ",
"    ........    ",
"   ....oo....   ",
"  ...X.....X..  ",
" .............. ",
"................"
};

