/* XPM */
static const char *tree_icon_24_xpm[] = {
"24 24 207 2 0 0",
"   c #F3D348",
"!  c #EAB925",
"#  c #E6B027",
"$  c #ECC23C",
"%  c #B7E84C",
"&  c #B8E440",
"'  c #92A028",
"(  c #A2D240",
")  c #C38427",
"*  c #B88816",
"+  c #A82F0F",
",  c #CE2F0F",
"-  c #B28F23",
".  c #8CBB28",
"/  c #75DE2C",
"0  c #CA9229",
"1  c #238726",
"2  c #5DAF27",
"3  c #ABD64B",
"4  c #B8F569",
"5  c #8EE73E",
"6  c #84BE23",
"7  c #EB7605",
"8  c #BE870A",
"9  c #47B326",
":  c #67D131",
";  c #ADEC74",
"<  c #A3E177",
"=  c #67A789",
">  c #A37D41",
"?  c #5DA321",
"@  c #2D8C25",
"A  c #339B26",
"B  c #42AD26",
"C  c #74CE49",
"D  c #BCED8D",
"E  c #6092A8",
"F  c #4F6DE6",
"G  c #4577C5",
"H  c #45B22B",
"I  c #2D9226",
"J  c #278B26",
"K  c #7A8F22",
"L  c #A5A035",
"M  c #B17D41",
"N  c #865857",
"O  c #4D75DA",
"P  c #61B1A2",
"Q  c #38A525",
"R  c #228426",
"S  c #857015",
"T  c #DA7109",
"U  c #D17C0B",
"V  c #67791D",
"W  c #75B734",
"X  c #5BAD37",
"Y  c #3AA72A",
"Z  c #45A01A",
"[  c #947B21",
"]  c #818618",
"^  c #768E17",
"_  c #5EA018",
"`  c #68B62E",
"a  c #68BE35",
"b  c #80D73A",
"c  c #72CD32",
"d  c #5EC526",
"e  c #81BB1F",
"f  c #F87907",
"g  c #A49812",
"h  c #329824",
"i  c #31941B",
"j  c #48A827",
"k  c #A2E173",
"l  c #78D13F",
"m  c #907F22",
"n  c #8F841D",
"o  c #A68514",
"p  c #C87E10",
"q  c #64AC21",
"r  c #3BA226",
"s  c #218426",
"t  c #5A661B",
"u  c #965420",
"v  c #8B9B44",
"w  c #BCCE7D",
"x  c #8C7924",
"y  c #C4150B",
"z  c #C52B09",
"{  c #86971C",
"|  c #70E52E",
"}  c #47B92B",
"~  c #319728",
" ! c #498220",
"!! c #8F6813",
"#! c #B91A08",
"$! c #CB211A",
"%! c #CA3712",
"&! c #A45823",
"'! c #6F6D18",
"(! c #657916",
")! c #60921C",
"*! c #45AE23",
"+! c #55D92D",
",! c #468A9C",
"-! c #497798",
".! c #C95F0C",
"/! c #6B6C19",
"0! c #538D1C",
"1! c #77570D",
"2! c #B8440B",
"3! c #6B831E",
"4! c #4D9D30",
"5! c #519E25",
"6! c #42A628",
"7! c #4DAD2A",
"8! c #439419",
"9! c #379F22",
":! c #4D69BB",
";! c #6C75B5",
"<! c #5B751A",
"=! c #2A8E25",
">! c #319724",
"?! c #30931D",
"@! c #329418",
"A! c #50B923",
"B! c #64C234",
"C! c #92D161",
"D! c #85D842",
"E! c #8CDB3D",
"F! c #86CC32",
"G! c #71B824",
"H! c #996E0F",
"I! c #C46717",
"J! c #60A229",
"K! c #2B8919",
"L! c #2B8E22",
"M! c #3C7678",
"N! c #41789A",
"O! c #369A1E",
"P! c #50BB28",
"Q! c #8BDA5C",
"R! c #B4EC82",
"S! c #82D43A",
"T! c #CD8C19",
"U! c #EE892C",
"V! c #C95807",
"W! c #938016",
"X! c #6CD62B",
"Y! c #51C629",
"Z! c #298919",
"[! c #227E1B",
"]! c #218225",
"^! c #856B14",
"_! c #5463A8",
"`! c #5073DD",
"a! c #C16015",
"b! c #BD580E",
"c! c #CD5924",
"d! c #CC4D26",
"e! c #B4410E",
"f! c #E27305",
"g! c #F77601",
"h! c #8EAB13",
"i! c #4FBD26",
"j! c #5FDA2D",
"k! c #56D92D",
"l! c #2F9421",
"m! c #1F7C1D",
"n! c #1C7D24",
"o! c #1C7D26",
"p! c #288731",
"q! c #37933A",
"r! c #489622",
"s! c #58A32C",
"t! c #9DC968",
"u! c #98D067",
"v! c #69AE29",
"w! c #6AA61B",
"x! c #6A9A10",
"y! c #3E9E1A",
"z! c #45B025",
"{! c #4BC32A",
"|! c #46C62C",
"}! c #2E9626",
"~! c #218324",
" # c #1B7C26",
"!# c #1A7B26",
"## c #3BA229",
"$# c #4FAE37",
"%# c #67AF33",
"&# c #C87914",
"'# c #846210",
"(# c #35991C",
")# c #38981E",
"*# c #278C26",
"+# c #E97710",
",# c #B14209",
"-# c #815310",
".# c #854F14",
"/# c #983312",
"0# c #E07A10",
"1# c #E97610",
"2# c #B6470A",
"3# c #B34E11",
"4# c #A33E12",
"5# c None",
"5#5#5#5#5#5#5#5#5#5#5#5#5#5#5#5#5#5#5#5#5#5#5#5#",
"5#5#5#5#5#5#5#5#5#5#5#  ! 5#5#5#5#5#5#5#5#5#5#5#",
"5#5#5#5#5#5#5#5#5#5#5## $ 5#5#5#5#5#5#5#5#5#5#5#",
"5#5#5#5#5#5#5#5#5#5#5#% & 5#5#5#5#5#5#5#5#5#5#5#",
"5#5#5#5#5#5#5#5#5#5#' ( ) * 5#5#5#5#5#5#5#5#5#5#",
"5#5#5#5#5#5#5#5#5#+ , - . / 0 5#5#5#5#5#5#5#5#5#",
"5#5#5#5#5#5#5#5#1 2 3 4 5 6 7 8 5#5#5#5#5#5#5#5#",
"5#5#5#5#5#5#5#5#9 : ; < = > ? @ 5#5#5#5#5#5#5#5#",
"5#5#5#5#5#5#5#A B C D E F G H I 5#5#5#5#5#5#5#5#",
"5#5#5#5#5#5#5#J K L M N O P Q R 5#5#5#5#5#5#5#5#",
"5#5#5#5#5#5#5#S T U V W X Y Z [ 5#5#5#5#5#5#5#5#",
"5#5#5#5#5#5#] ^ _ ` a b c d e f g 5#5#5#5#5#5#5#",
"5#5#5#5#5#5#h i j k l m n o p q r 5#5#5#5#5#5#5#",
"5#5#5#5#5#s t u v w x y z { | } ~  !5#5#5#5#5#5#",
"5#5#5#5#5#!!#!$!%!&!'!(!)!*!+!,!-!.!/!5#5#5#5#5#",
"5#5#5#5#5#0!1!2!3!4!5!6!7!8!9!:!;!<!=!5#5#5#5#5#",
"5#5#5#5#>!?!@!A!B!C!D!E!F!G!H!I!J!K!L!5#5#5#5#5#",
"5#5#5#5#M!N!O!P!Q!R!S!T!U!V!W!X!Y!Z![!]!5#5#5#5#",
"5#5#5#^!_!`!a!b!c!d!e!f!g!h!i!j!k!l!m!n!5#5#5#5#",
"5#5#5#o!p!q!r!s!t!u!v!w!x!y!z!{!|!}!~! #!#5#5#5#",
"5#5#5#5#5#5#5###$#%#&#'#(#)#5#5#}!*#5#5#5#5#5#5#",
"5#5#5#5#5#5#5#5#5#5#+#,#-#.#/#5#5#5#5#5#5#5#5#5#",
"5#5#5#5#5#5#5#5#5#0#1#2#3#4#/#5#5#5#5#5#5#5#5#5#",
"5#5#5#5#5#5#5#5#5#5#5#5#5#5#5#5#5#5#5#5#5#5#5#5#"
};
