/* XPM */
static const char *tree_24[] = {
/* width height num_colors chars_per_pixel */
"24 24 176 2", 
/* colors */
"   c #006C00",
".  c #19B600",
"X  c #157115",
"o  c #004300",
"O  c #007900",
"+  c #00AF00",
"@  c #002700",
"#  c #005D00",
"$  c #152C15",
"%  c #00A000",
"&  c #11C500",
"*  c #008400",
"=  c #00BA00",
"-  c #002500",
";  c #158915",
":  c #009100",
">  c #000900",
",  c #00C700",
"<  c #159615",
"1  c #009E00",
"2  c #000900",
"3  c #0C7C00",
"4  c #007500",
"5  c #008200",
"6  c #003000",
"7  c #0C6D00",
"8  c #006600",
"9  c #009C00",
"0  c #007300",
"q  c #00A900",
"w  c #249500",
"e  c #004A00",
"r  c #00B600",
"t  c #154F15",
"y  c #006400",
"u  c #008D00",
"i  c #1F3F00",
"p  c #009A00",
"a  c #000500",
"s  c #228700",
"d  c #003B00",
"f  c #117C00",
"g  c #159F15",
"h  c #20BE00",
"j  c #007100",
"k  c #191919",
"l  c #00DD00",
"z  c #135200",
"x  c #151715",
"c  c #191919",
"v  c #001F00",
"b  c #098D00",
"n  c #196900",
"m  c #008B00",
"M  c #00C100",
"N  c #002C00",
"B  c #006200",
"V  c #009800",
"C  c #00CE00",
"Z  c #09A700",
"A  c #151515",
"S  c #00DB00",
"D  c #007C00",
"F  c #00B200",
"G  c #151515",
"H  c #008900",
"J  c #158E15",
"K  c #006000",
"L  c #009600",
"P  c #177500",
"I  c #00CC00",
"U  c #003700",
"Y  c #006D00",
"T  c #000E00",
"R  c #15A815",
"E  c #007A00",
"W  c #00B000",
"Q  c #091D00",
"!  c #001B00",
"~  c #005100",
"^  c #008700",
"/  c #00BD00",
"(  c #0E6400",
")  c #158C15",
"_  c #009400",
"`  c #153E00",
"'  c #00A100",
"]  c #000C00",
"[  c #00AE00",
"{  c #001900",
"}  c #229B00",
"|  c #004F00",
" . c #099400",
".. c #009200",
"X. c #00C800",
"o. c #159715",
"O. c #006900",
"+. c #19B300",
"@. c #009F00",
"#. c #090C00",
"$. c #001700",
"%. c #05D900",
"&. c #0C1100",
"*. c #007600",
"=. c #00AC00",
"-. c #199700",
";. c #008300",
":. c #00B900",
">. c #002400",
",. c #0C9700",
"<. c #009000",
"1. c #003100",
"2. c #006700",
"3. c #009D00",
"4. c #00D300",
"5. c #1F8500",
"6. c #00AA00",
"7. c #001500",
"8. c #004B00",
"9. c #008100",
"0. c #00B700",
"q. c #002200",
"w. c #15BC15",
"e. c #008E00",
"r. c #00C400",
"t. c #002F00",
"y. c #009B00",
"u. c #003C00",
"i. c #007200",
"p. c #00A800",
"a. c #005600",
"s. c #001300",
"d. c #09B700",
"f. c #007F00",
"g. c #00B500",
"h. c #002000",
"j. c #005600",
"k. c #008C00",
"l. c #00C200",
"z. c #002D00",
"x. c #009900",
"c. c #00CF00",
"v. c #003A00",
"b. c #159E15",
"n. c #178500",
"m. c #00A600",
"M. c #001100",
"N. c #007D00",
"B. c #00B300",
"V. c #008A00",
"C. c #00C000",
"Z. c #2F8400",
"A. c #158F15",
"S. c #009700",
"D. c #006E00",
"F. c #299400",
"G. c #000000",
"H. c #004500",
"J. c #222222",
"K. c #007B00",
"L. c #00B100",
"P. c #052000",
"I. c #055600",
"U. c #15B615",
"Y. c #000000",
"T. c #008800",
"R. c #058C00",
"E. c #000000",
"W. c #05C200",
"Q. c #003600",
"!. c #002900",
"~. c #15C315",
"^. c #009500",
"/. c #00CB00",
"(. c #000000",
"). c #003600",
/* pixels */
"G.E.E.E.E.E.E.E.E.> Q.y a.$.E.E.E.E.E.E.E.E.E.k ",
"Y.(.(.(.(.(.(.(.(.M.j.V.4 z.a (.(.(.(.(.(.(.(.c ",
"Y.(.(.(.(.(.(.(.a h.O [ ^.e ] (.(.(.(.(.(.(.(.c ",
"Y.(.(.(.(.(.(.(.2 U y.I 0.Y 7.(.(.(.(.(.(.(.(.c ",
"Y.(.(.(.(.(.(.(.T 8.W l C V.h.a (.(.(.(.(.(.(.c ",
"Y.(.(.(.(.(.(.(.s.~ y.= F 9.!.2 (.(.(.(.(.(.(.c ",
"Y.(.(.(.(.(.(.(.! # T._ ..*.U ] (.(.(.(.(.(.(.c ",
"Y.(.(.(.(.(.(.2 t.K.9 ' ' u j.7.(.(.(.(.(.(.(.c ",
"Y.(.(.(.(.(.(.s.e y.0.:.:.=.O >.a (.(.(.(.(.(.c ",
"Y.(.(.(.(.(.(.v D.:.c.c.c., 9 d ] (.(.(.(.(.(.c ",
"Y.(.(.(.(.(.a N k./.S S S %.d.I.7.(.(.(.(.(.(.c ",
"Y.(.(.(.(.(.2 6 V.0.M l.W.& +.( { (.(.(.(.(.(.c ",
"Y.(.(.(.(.(.T v.O u k.m b -.w n P.(.(.(.(.(.(.c ",
"Y.(.(.(.(.(.! j.e.L u H R. .,.3 1.] (.(.(.(.(.c ",
"Y.(.(.(.(.a z.E q p.p V x.% =.x.8.7.(.(.(.(.(.c ",
"Y.(.(.(.(.] o @.C.g.q 6.q =./ r D.>.(.(.(.(.(.c ",
"Y.(.(.(.(.{ K C.4.r.r =.+ / C C _ ).a (.(.(.(.c ",
"Y.(.(.(.(.q.O.0.C.W ' _ S.Z . h } ` #.(.(.(.(.c ",
"Y.(.(.(.(.@ 8 _ ..5 O j i.f s F.Z.i &.(.(.(.(.c ",
"Y.(.(.(.2 ).4 k.f.i.  8 2.7 P n.5.z Q (.(.(.(.c ",
"Y.(.(.(.s.| ^.1 k.9.E i.0 D ;._ ' 4 t.(.(.(.(.c ",
"Y.(.(.(.- Y L.6.V m * N.f.^ e.3.B.V H.] (.(.(.c ",
"Y.(.(.(.u.<.X.B.@.: u H V...p m.C.:.B { (.(.(.c ",
"A G G x t b.~.R o.J ) ; ; A.< g U.w.X $ G G G J."
};
