/* XPM */
static const char *tree_64[] = {
/* width height num_colors chars_per_pixel */
"61 64 294 2", 
/* colors */
"   c #006C00",
".  c #00A200",
"X  c #090F00",
"o  c #00D800",
"O  c #000D00",
"+  c #004300",
"@  c #007900",
"#  c #00AF00",
"$  c #00E500",
"%  c #001A00",
"&  c #005000",
"*  c #008600",
"=  c #00BC00",
"-  c #00F200",
";  c #002700",
":  c #009300",
">  c #00C900",
",  c #9D9A9D",
"<  c #00FF00",
"1  c #003400",
"2  c #006A00",
"3  c #00A000",
"4  c #00D600",
"5  c #319900",
"6  c #000B00",
"7  c #004100",
"8  c #007700",
"9  c #00AD00",
"0  c #00E300",
"q  c #001800",
"w  c #004E00",
"e  c #008400",
"r  c #00BA00",
"t  c #00F000",
"y  c #002500",
"u  c #005B00",
"i  c #009100",
"p  c #00C700",
"a  c #00FD00",
"s  c #003200",
"d  c #006800",
"f  c #268900",
"g  c #009E00",
"h  c #00D400",
"j  c #000900",
"k  c #003F00",
"l  c #007500",
"z  c #00AB00",
"x  c #00E100",
"c  c #001600",
"v  c #004C00",
"b  c #008200",
"n  c #451F00",
"m  c #00B800",
"M  c #962F00",
"N  c #00EE00",
"B  c #002300",
"V  c #005900",
"C  c #008F00",
"Z  c #00C500",
"A  c #97979B",
"S  c #00FB00",
"D  c #003000",
"F  c #006600",
"G  c #009C00",
"H  c #00D200",
"J  c #000700",
"K  c #003D00",
"L  c #007300",
"P  c #00A900",
"I  c #00DF00",
"U  c #001400",
"Y  c #004A00",
"T  c #008000",
"R  c #00B600",
"E  c #00EC00",
"W  c #002100",
"Q  c #8C9097",
"!  c #005700",
"~  c #008D00",
"^  c #00C300",
"/  c #00F900",
"(  c #95969B",
")  c #002E00",
"_  c #006400",
"`  c #009A00",
"'  c #00D000",
"]  c #2F9400",
"[  c #003B00",
"{  c #007100",
"}  c #919498",
"|  c #00A700",
" . c #00DD00",
".. c #001200",
"X. c #004800",
"o. c #007E00",
"O. c #00B400",
"+. c #00EA00",
"@. c #989597",
"#. c #280900",
"$. c #001F00",
"%. c #8C8E97",
"&. c #005500",
"*. c #008B00",
"=. c #00C100",
"-. c #00F700",
";. c #002C00",
":. c #9C999D",
">. c #006200",
",. c #009800",
"<. c #969496",
"1. c #00CE00",
"2. c #000300",
"3. c #003900",
"4. c #006F00",
"5. c #00A500",
"6. c #00DB00",
"7. c #004600",
"8. c #007C00",
"9. c #00B200",
"0. c #00E800",
"q. c #001D00",
"w. c #005300",
"e. c #008900",
"r. c #153300",
"t. c #8D9297",
"y. c #00BF00",
"u. c #065D00",
"i. c #00F500",
"p. c #002A00",
"a. c #006000",
"s. c #009600",
"d. c #00CC00",
"f. c #003700",
"g. c #006D00",
"h. c #00A300",
"j. c #00D900",
"k. c #000E00",
"l. c #004400",
"z. c #007A00",
"x. c #00B000",
"c. c #001B00",
"v. c #005100",
"b. c #008700",
"n. c #00BD00",
"m. c #920000",
"M. c #00F300",
"N. c #002800",
"B. c #005E00",
"V. c #009400",
"C. c #9D9B9D",
"Z. c #00CA00",
"A. c #003500",
"S. c #006B00",
"D. c #00A100",
"F. c #00D700",
"G. c #000C00",
"H. c #004200",
"J. c #007800",
"K. c #00AE00",
"L. c #00E400",
"P. c #001900",
"I. c #C0C6CE",
"U. c #999597",
"Y. c #004F00",
"T. c #008500",
"R. c #00BB00",
"E. c #999799",
"W. c #858A90",
"Q. c #005C00",
"!. c #009200",
"~. c #00C800",
"^. c #00FE00",
"/. c #979496",
"(. c #003300",
"). c #813600",
"_. c #006900",
"`. c #009F00",
"'. c #104500",
"]. c #00D500",
"[. c #000A00",
"{. c #004000",
"}. c #007600",
"|. c #289600",
" X c #9B989C",
".X c #00AC00",
"XX c #00E200",
"oX c #4FBD00",
"OX c #001700",
"+X c #004D00",
"@X c #979497",
"#X c #008300",
"$X c #00B900",
"%X c #00EF00",
"&X c #002400",
"*X c #005A00",
"=X c #909399",
"-X c #009000",
";X c #99979B",
":X c #00C600",
">X c #00FC00",
",X c #053500",
"<X c #003100",
"1X c #006700",
"2X c #009D00",
"3X c #298D00",
"4X c #00D300",
"5X c #369A00",
"6X c #000800",
"7X c #003E00",
"8X c #007400",
"9X c #00AA00",
"0X c #00E000",
"qX c #001500",
"wX c #004B00",
"eX c #008100",
"rX c #00B700",
"tX c #002200",
"yX c #8C9197",
"uX c #005800",
"iX c #008E00",
"pX c #00C400",
"aX c #00FA00",
"sX c #002F00",
"dX c #006500",
"fX c #00D100",
"gX c #000600",
"hX c #003C00",
"jX c #007200",
"kX c #00A800",
"lX c #00DE00",
"zX c #001300",
"xX c #004900",
"cX c #007F00",
"vX c #00B500",
"bX c #00EB00",
"nX c #002000",
"mX c #8C8F97",
"MX c #005600",
"NX c #008C00",
"BX c #868A90",
"VX c #00C200",
"CX c #00F800",
"ZX c #002D00",
"AX c #006300",
"SX c #009900",
"DX c #00CF00",
"FX c #000400",
"GX c #003A00",
"HX c #989698",
"JX c #007000",
"KX c #750000",
"LX c #00A600",
"PX c #9A979A",
"IX c #269100",
"UX c #00DC00",
"YX c #93949A",
"TX c #004700",
"RX c #007D00",
"EX c #00B300",
"WX c #00E900",
"QX c #001E00",
"!X c #005400",
"~X c #008A00",
"^X c #989699",
"/X c #00C000",
"(X c #9A979B",
")X c #00F600",
"_X c #002B00",
"`X c #006100",
"'X c #009700",
"]X c #969396",
"[X c #00CD00",
"{X c #003800",
"}X c #6F2A00",
"|X c #006E00",
" o c #8F9298",
".o c #00A400",
"Xo c #00DA00",
"oo c #004500",
"Oo c #007B00",
"+o c #00B100",
"@o c #00E700",
"#o c #801900",
"$o c #001C00",
"%o c #005200",
"&o c #00BE00",
"*o c #00F400",
"=o c #002900",
"-o c #005F00",
";o c #009500",
":o c #00CB00",
">o c #000000",
",o c #003600",
/* pixels */
">o>o>o>o>o>o>o>o>o>o>o>o>o>o>o>o>o>o>o>o>o>o>o>o>o>o>o>o>o..[.>o>o>o>o>o>o>o>o>o>o>o>o>o>o>o>o>o>o>o>o>o>o>o>o>o>o>o>o>oC.",
">o>o>o>o>o>o>o>o>o>o>o>o>o>o>o>o>o>o>o>o>o>o>o>o>o>o>o>ok.a.a.>o>o>o>o>o>o>o>o>o>o>o>o>o>o>o>o>o>o>o>o>o>o>o>o>o>o>o>o>oC.",
">o>o>o>o>o>o>o>o>o>o>o>o>o>o>o>o>o>o>o>o>o>o>o>o>o>o>o>oO |Xg.>o>o>o>o>o>o>o>o>o>o>o>o>o>o>o>o>o>o>o>o>o>o>o>o>o>o>o>o>oC.",
">o>o>o>o>o>o>o>o>o>o>o>o>o>o>o>o>o>o>o>o>o>o>o>o>o>o>o>ok 8Xl p.>o>o>o>o>o>o>o>o>o>o>o>o>o>o>o>o>o>o>o>o>o>o>o>o>o>o>o>oC.",
">o>o>o>o>o>o>o>o>o>o>o>o>o>o>o>o>o>o>o>o>o>o>o>o>o>o>o>oJXz.RX&.>o>o>o>o>o>o>o>o>o>o>o>o>o>o>o>o>o>o>o>o>o>o>o>o>o>o>o>oC.",
">o>o>o>o>o>o>o>o>o>o>o>o>o>o>o>o>o>o>o>o>o>o>o>o>o>o>o>oOoT.* _ >o>o>o>o>o>o>o>o>o>o>o>o>o>o>o>o>o>o>o>o>o>o>o>o>o>o>o>oC.",
">o>o>o>o>o>o>o>o>o>o>o>o>o>o>o>o>o>o>o>o>o>o>o>o>o>o>oGX3 ~X*.3 % >o>o>o>o>o>o>o>o>o>o>o>o>o>o>o>o>o>o>o>o>o>o>o>o>o>o>oC.",
">o>o>o>o>o>o>o>o>o>o>o>o>o>o>o>o>o>o>o>o>o>o>o>o>o>o>o_XkXG G z O >o>o>o>o>o>o>o>o>o>o>o>o>o>o>o>o>o>o>o>o>o>o>o>o>o>o>oC.",
">o>o>o>o>o>o>o>o>o>o>o>o>o>o>o>o>o>o>o>o>o>o>o>o>o>o>om 9XLXLXz s.>o>o>o>o>o>o>o>o>o>o>o>o>o>o>o>o>o>o>o>o>o>o>o>o>o>o>oC.",
">o>o>o>o>o>o>o>o>o>o>o>o>o>o>o>o>o>o>o>o>o>o>o>o>o>o>o/X9.x.x.vX,.>o>o>o>o>o>o>o>o>o>o>o>o>o>o>o>o>o>o>o>o>o>o>o>o>o>o>oC.",
">o>o>o>o>o>o>o>o>o>o>o>o>o>o>o>o>o>o>o>o>o>o>o>o>o>oK d.R.r r = n.; >o>o>o>o>o>o>o>o>o>o>o>o>o>o>o>o>o>o>o>o>o>o>o>o>o>oC.",
">o>o>o>o>o>o>o>o>o>o>o>o>o>o>o>o>o>o>o>o>o>o>o>o>o>o4.].> ~.~.~.Xooo>o>o>o>o>o>o>o>o>o>o>o>o>o>o>o>o>o>o>o>o>o>o>o>o>o>oC.",
">o>o>o>o>o>o>o>o>o>o>o>o>o>o>o>o>o>o>o>o>o>o>o>o>o>o,.XX4 4 4 4 XX}.>o>o>o>o>o>o>o>o>o>o>o>o>o>o>o>o>o>o>o>o>o>o>o>o>o>oC.",
">o>o>o>o>o>o>o>o>o>o>o>o>o>o>o>o>o>o>o>o>o>o>o>o>o2.< I 0X0X0X0Xx aX>o>o>o>o>o>o>o>o>o>o>o>o>o>o>o>o>o>o>o>o>o>o>o>o>o>oC.",
">o>o>o>o>o>o>o>o>o>o>o>o>o>o>o>o>o>o>o>o>o>o>o>o>o>o< +.N bX+.+.bX/ >o>o>o>o>o>o>o>o>o>o>o>o>o>o>o>o>o>o>o>o>o>o>o>o>o>oC.",
">o>o>o>o>o>o>o>o>o>o>o>o>o>o>o>o>o>o>o>o>o>o>o>o>ov G < < < < < < < q >o>o>o>o>o>o>o>o>o>o>o>o>o>o>o>o>o>o>o>o>o>o>o>o>oC.",
">o>o>o>o>o>o>o>o>o>o>o>o>o>o>o>o>o>o>o>o>o>o>o>o>o3.Q.Q.Q.Q.Q.Q.Q.AX&X>o>o>o>o>o>o>o>o>o>o>o>o>o>o>o>o>o>o>o>o>o>o>o>o>oC.",
">o>o>o>o>o>o>o>o>o>o>o>o>o>o>o>o>o>o>o>o>o>o>o>oG.`Xu V V V V V V u Q.>o>o>o>o>o>o>o>o>o>o>o>o>o>o>o>o>o>o>o>o>o>o>o>o>oC.",
">o>o>o>o>o>o>o>o>o>o>o>o>o>o>o>o>o>o>o>o>o>o>o>ozXL F 1X1X1X1X1X1X1X8X>o>o>o>o>o>o>o>o>o>o>o>o>o>o>o>o>o>o>o>o>o>o>o>o>oC.",
">o>o>o>o>o>o>o>o>o>o>o>o>o>o>o>o>o>o>o>o>o>o>o>oGXb z.{ { { { { { { z.B >o>o>o>o>o>o>o>o>o>o>o>o>o>o>o>o>o>o>o>o>o>o>o>o, ",
">o>o>o>o>o>o>o>o>o>o>o>o>o>o>o>o>o>o>o>o>o>o>o>oo.T.eXe eXeXeXeXeXeX* AX>o>o>o>o>o>o>o>o>o>o>o>o>o>o>o>o>o>o>o>o>o>o>o>o:.",
">o>o>o>o>o>o>o>o>o>o>o>o>o>o>o>o>o>o>o>o>o>o>o>oT iX*.*.*.*.*.*.*.*.-XdX>o>o>o>o>o>o>o>o>o>o>o>o>o>o>o>o>o>o>o>o>o>o>o>o X",
">o>o>o>o>o>o>o>o>o>o>o>o>o>o>o>o>o>o>o>o>o>o>o+ kXSX;o;o;os.s.s.s.s.;o9XtX>o>o>o>o>o>o>o>o>o>o>o>o>o>o>o>o>o>o>o>o>o>o>oPX",
">o>o>o>o>o>o>o>o>o>o>o>o>o>o>o>o>o>o>o>o>o>o>o1 .X3 . D.D.3 3 3 3 3 3 # U >o>o>o>o>o>o>o>o>o>o>o>o>o>o>o>o>o>o>o>o>o>o>o^X",
">o>o>o>o>o>o>o>o>o>o>o>o>o>o>o>o>o>o>o>o>o>o>o+o# z .X.Xz z z z z z z +oC >o>o>o>o>o>o>o>o>o>o>o>o>o>o>o>o>o>o>o>o>o>o>o@X",
">o>o>o>o>o>o>o>o>o>o>o>o>o>o>o>o>o>o>o>o>o>o>oh y.= R.R.R.R.R.R.R.R.R.y.z >o>o>o>o>o>o>o>o>o>o>o>o>o>o>o>o>o>o>o>o>o>o>o<.",
">o>o>o>o>o>o>o>o>o>o>o>o>o>o>o>o>o>o>o>o>o>o_Xh Z Z ~.Z Z Z Z Z Z Z Z p pX% >o>o>o>o>o>o>o>o>o>o>o>o>o>o>o>o>o>o>o>o>o>o]X",
">o>o>o>o>o>o>o>o>o>o>o>o>o>o>o>o>o>o>o>o>o>ocX .DXfX' ' ' ' ' ' ' ' ' ' XXv.>o>o>o>o>o>o>o>o>o>o>o>o>o>o>o>o>o>o>o>o>o>o/.",
">o>o>o>o>o>o>o>o>o>o>o>o>o>o>o>o>o>o>o>o>o>o*.@o6.Xoj.XoXoXoXoXoXoXoXoXo@odX>o>o>o>o>o>o>o>o>o>o>o>o>o>o>o>o>o>o>o>o>o>o/.",
">o>o>o>o>o>o>o>o>o>o>o>o>o>o>o>o>o>o>o>o>ok.< E E @o0.0.0.0.0.0.0.0.0.0.0.< >o>o>o>o>o>o>o>o>o>o>o>o>o>o>o>o>o>o>o>o>o>o@.",
">o>o>o>o>o>o>o>o>o>o>o>o>o>o>o>o>o>o>o>o>o>oS d.< < < < < < < < < < < < < < >o>o>o>o>o>o>o>o>o>o>o>o>o>o>o>o>o>o>o>o>o>oU.",
">o>o>o>o>o>o>o>o>o>o>o>o>o>o>o>o>o>o>o>o>of.v.TX! &.&.uX!X!X!X!XuX!XwXu.f & ; >o>o>o>o>o>o>o>o>o>o>o>o>o>o>o>o>o>o>o>o>oU.",
">o>o>o>o>o>o>o>o>o>o>o>o>o>o>o>o>o>o>o>o>oH.uX&.!X&.uXN.! !X!X! N.v.5XoX] 5 ,X>o>o>o>o>o>o>o>o>o>o>o>o>o>o>o>o>o>o>o>o>oU.",
">o>o>o>o>o>o>o>o>o>o>o>o>o>o>o>o>o>o>o>o6 dXd `Xa.a.-oS.1Xa.a.1X2 a.IXv.!X|.3X>o>o>o>o>o>o>o>o>o>o>o>o>o>o>o>o>o>o>o>o>oU.",
">o>o>o>o>o>o>o>o>o>o>o>o>o>o>o>o>o>o>o>oP.cXjXjXjXL L z.c.OoOoc.z.jX|XL L g.8.2.>o>o>o>o>o>o>o>o>o>o>o>o>o>o>o>o>o>o>o>oU.",
">o>o>o>o>o>o>o>o>o>o>o>o>o>o>o>o>o>o>o>o<Xb.8.RXRX#X8.T.tXT.T.tXT.RXb 8.8.8.b.q >o>o>o>o>o>o>o>o>o>o>o>o>o>o>o>o>o>o>o>oU.",
">o>o>o>o>o>o>o>o>o>o>o>o>o>o>o>o>o>o>o>oe.e.* b.iX[ ~ -Xy -X-Xy -X* H.NX* * *.|X>o>o>o>o>o>o>o>o>o>o>o>o>o>o>o>o>o>o>o>oU.",
">o>o>o>o>o>o>o>o>o>o>o>o>o>o>o>o>o>o>o>oe.i i C V.B.g ` N.` ` N.g s.AX: C C V.1X>o>o>o>o>o>o>o>o>o>o>o>o>o>o>o>o>o>o>o>o@.",
">o>o>o>o>o>o>o>o>o>o>o>o>o>o>o>o>o>o>oxX+o`.G g 2Xz s kX;.kXkXsXb.!XkXg g G G x.=o>o>o>o>o>o>o>o>o>o>o>o>o>o>o>o>o>o>o>o/.",
">o>o>o>o>o>o>o>o>o>o>o>o>o>o>o>o>o>o>ok R 9 # 'X5.m [ $X<XrXrX1 ;oB.vXG 3 .Xz r QX>o>o>o>o>o>o>o>o>o>o>o>o>o>o>o>o>o>o>o/.",
">o>o>o>o>o>o>o>o>o>o>o>o>o>o>o>o>o>o>oLXr O.m : z pX7X^ 1 VXVXf.g _ ^ G . rXvX= e >o>o>o>o>o>o>o>o>o>o>o>o>o>o>o>o>o>o>o/.",
">o>o>o>o>o>o>o>o>o>o>o>o>o>o>o>o>o>o>o .=.y.y.> * o.K 1.=o4XH ZX.   & 9.pXy.y.^ m >o>o>o>o>o>o>o>o>o>o>o>o>o>o>o>o>o>o>o/.",
">o>o>o>o>o>o>o>o>o>o>o>o>o>o>o>o>o>oOX0Xd.1.:oUXNXz.j.h h 2X9XF.fX .wX$Xo > > d.p G.>o>o>o>o>o>o>o>o>o>o>o>o>o>o>o>o>o>oHX",
">o>o>o>o>o>o>o>o>o>o>o>o>o>o>o>o>o>o!.WXXoj.@ov. .:o4 NX~.) >.`.+oDXp L.& $ j.j.bXAX>o>o>o>o>o>o>o>o>o>o>o>o>o>o>o>o>o>oE.",
">o>o>o>o>o>o>o>o>o>o>o>o>o>o>o>o>o>oeX%XL.L.+.| S h `Xe.p k L !.n.GXCX-.| bXL.L.*ow.>o>o>o>o>o>o>o>o>o>o>o>o>o>o>o>o>o>o(X",
">o>o>o>o>o>o>o>o>o>o>o>o>o>o>o>o>oq < >XCXa -.< 3.i.L 'Xo l.Oo3 d.+X< ,o< -.a )X)X< >o>o>o>o>o>o>o>o>o>o>o>o>o>o>o>o>o>o;X",
">o>o>o>o>o>o>o>o>o>o>o>o>o>o>o>o>o6 @oJ.UXJ.p UXK d.`XRXO.3.1X* 9X{.WXhXXod.cXh fX@o>o>o>o>o>o>o>o>o>o>o>o>o>o>o>o>o>o>oA ",
">o>o>o>o>o>o>o>o>o>o>o>o>o>o>o>o>o{XwXv oow.2.Y...TX$.p.k ..B ZX[ zXw.X r.KX}X+X#o'.m.>o>o>o>o>o>o>o>o>o>o>o>o>o>o>o>o>o( ",
">o>o>o>o>o>o>o>o>o>o>o>o>o>o>o>o>ov.F AX_ F X.4.c dX) [ &.% D k v.QX8X#.).! 2 AX>.M n >o>o>o>o>o>o>o>o>o>o>o>o>o>o>o>o>oYX",
">o>o>o>o>o>o>o>o>o>o>o>o>o>o>o>o>ov.4.|X&.MX8.(.F TX,oH.-oq.,oTX*XW u w & 8.7._ |X8Xu >o>o>o>o>o>o>o>o>o>o>o>o>o>o>o>o>o} ",
">o>o>o>o>o>o>o>o>o>o>o>o>o>o>o>o$o#X8 J.Oo  H.H.g.qXGXxXd nX[ +X_ QXs %oQ.;.eXJ.}.}.* j >o>o>o>o>o>o>o>o>o>o>o>o>o>o>o>o=X",
">o>o>o>o>o>o>o>o>o>o>o>o>o>o>o>oy ~ e b.@ jXhXxXl y eX7.jXtX{.&.>.jX(.V F W *.J.eXT ~ G.>o>o>o>o>o>o>o>o>o>o>o>o>o>o>o>o o",
">o>o>o>o>o>o>o>o>o>o>o>o>o>o>o>oSX: -XV.Q.,.}.uX#X_XK.>oe.; xX_.>o. f.dX8 d .ou ;o-X;oRX>o>o>o>o>o>o>o>o>o>o>o>o>o>o>o>ot.",
">o>o>o>o>o>o>o>o>o>o>o>o>o>o>o>o` g ` 2Xz ; R.>os.sXm >oV.=ow JXJ z [ l >ovX_Xz G ` 3 z.>o>o>o>o>o>o>o>o>o>o>o>o>o>o>o>oyX",
">o>o>o>o>o>o>o>o>o>o>o>o>o>o>o>oh.| P ;o9 ) ^ >o9XA.pX>o2XZXw.8 6XR oo*.6X= (.LXG P P *.>o>o>o>o>o>o>o>o>o>o>o>o>o>o>o>oyX",
">o>o>o>o>o>o>o>o>o>o>o>o>o>o>ow.y.K.rXY LXf.~.hXP FX].>oLXD uXo.6X~.>opXf.^ {.8.{ O.K.^ ;.>o>o>o>o>o>o>o>o>o>o>o>o>o>o>oyX",
">o>o>o>o>o>o>o>o>o>o>o>o>o>o>o'X^ &o= fXx.6X0X[ D.>o0.>oEX(.-oe.6XUX>o~.3.6.>o~.:o= = Z J.>o>o>o>o>o>o>o>o>o>o>o>o>o>o>oyX",
">o>o>o>o>o>o>o>o>o>o>o>o>o>o>oE :o:o' .oNXNXvXH.# >o/ >o=.f.F : j E >oXo<X:XB.m 3 H Z.[X1.>o>o>o>o>o>o>o>o>o>o>o>o>o>o>oyX",
">o>o>o>o>o>o>o>o>o>o>o>o>o>o>ot h h 0X[ 3 g w wXm >o< >o:o3.2 ` j CX>o@oq b |Xd.1 0 h F.DX>o>o>o>o>o>o>o>o>o>o>o>o>o>o>oyX",
">o>o>o>o>o>o>o>o>o>o>o>o>o>o! N x lXM.{.K..oQ.oo/X>o< >oh K JXD.[.< >o- zXiXjX .GX*olXI @oGX>o>o>o>o>o>o>o>o>o>o>o>o>o>oyX",
">o>o>o>o>o>o>o>o>o>o>o>o>o>o`.< %XaX3 < %oR w.< Z.>o< >o0 H.J.9 O < >o^.0 e.cX* < vXCX%X< g.>o>o>o>o>o>o>o>o>o>o>o>o>o>oyX",
">o>o>o>o>o>o>o>o>o>o>o>o>o>oz j.4Xx 1 M.G./X3.%XzXf.+.>op [ 2 ,.gX@ozX7 =.>.| =o:X-o .4XUXV.>o>o>o>o>o>o>o>o>o>o>o>o>o>oyX",
">o>o>o>o>o>o>o>o>o>o>o>o>o>o>o>o>o>o>o>o>o>o>o>o>o>o>o>o>o>o>o>o>o>o>o>o>o>o>o>o>o>o>o>o>o>o>o>o>o>o>o>o>o>o>o>o>o>o>o>oW.",
"yXyXyXyXyXyXyXyXyXyXyXyXyXQ %.%.%.%.Q %.Q mXyX%.Q mXQ yXmXQ Q mXyXmXmXQ mXyX%.Q mXmX%.%.%.%.yXyXyXyXyXyXyXyXyXyXyXyXyXBXI."
};
