/* XPM */
static const char *tree_icon_16_xpm[] = {
"16 16 91 1 0 0",
"  c #EABC32",
"! c #ACD743",
"# c #BBBB33",
"$ c #B03F13",
"% c #B18A26",
"& c #98B127",
"' c #AFA627",
"( c #2F9626",
") c #79C63A",
"* c #AFE967",
"+ c #85C449",
", c #AD9119",
"- c #8E8913",
". c #40AA26",
"/ c #87D958",
"0 c #8CC291",
"1 c #5B7EB8",
"2 c #559C4D",
"3 c #2D9026",
"4 c #7E841C",
"5 c #AB8C2C",
"6 c #887944",
"7 c #529496",
"8 c #44A73F",
"9 c #488124",
": c #7E8517",
"; c #838C14",
"< c #7FA426",
"= c #75C034",
"> c #62C030",
"? c #64B521",
"@ c #CA8110",
"A c #468420",
"B c #5A972A",
"C c #9CCE61",
"D c #967924",
"E c #9F7316",
"F c #A69919",
"G c #4FAA25",
"H c #3F9324",
"I c #6A7119",
"J c #A43313",
"K c #B64C20",
"L c #9B7B35",
"M c #816016",
"N c #758219",
"O c #5DCB29",
"P c #459275",
"Q c #7F7233",
"R c #44901D",
"S c #726B11",
"T c #78891F",
"U c #63AF3A",
"V c #5DB62F",
"W c #5BB027",
"X c #56941C",
"Y c #707285",
"Z c #557E3E",
"[ c #2A8E24",
"] c #3A816A",
"^ c #3EA31F",
"_ c #6FCA41",
"` c #9CDE64",
"a c #A6B62D",
"b c #C19224",
"c c #9D7913",
"d c #78B426",
"e c #38991E",
"f c #24831F",
"g c #58703C",
"h c #47799A",
"i c #9A7219",
"j c #B27A2F",
"k c #B0722F",
"l c #B07A10",
"m c #AC8E0B",
"n c #59B320",
"o c #56D22C",
"p c #3AA926",
"q c #1E7E21",
"r c #1B7C25",
"s c #469D27",
"t c #5DB03E",
"u c #88AA37",
"v c #8A7F16",
"w c #429A1A",
"x c #3EA320",
"y c #3EB229",
"z c #2E9727",
"{ c #C5550C",
"| c None",
"|||||||  |||||||",
"|||||||  |||||||",
"|||||||!#|||||||",
"||||||$%&'||||||",
"|||||()*+,-|||||",
"|||||./0123|||||",
"|||||456789|||||",
"||||:;<=>?@|||||",
"||||ABCDEFGH||||",
"|||IJKLMNOPQ||||",
"|||RSTUVWXYZ[|||",
"|||]^_`abcdef|||",
"||ghijklmnopqr||",
"||||stuvwxyz||||",
"||||||{{{{||||||",
"||||||{{{{||||||"
};
