/* XPM */
static const char *twinkle_32[] = {
/* width height num_colors chars_per_pixel */
"32 32 545 2", 
/* colors */
"   c #719300",
".  c #00A200",
"X  c #9C8B71",
"o  c #9E9278",
"O  c #B70000",
"+  c #88A800",
"@  c #B3B4B1",
"#  c #888888",
"$  c #ACACA1",
"%  c #716363",
"&  c #9E8E00",
"*  c #A2A288",
"=  c #B9B9B9",
"-  c #AD8B8B",
";  c #A26300",
":  c #78B478",
">  c #00AF00",
",  c #888871",
"<  c #639A00",
"1  c #7E8878",
"2  c #9CA19C",
"3  c #AD7100",
"4  c #009300",
"5  c #A6A400",
"6  c #939363",
"7  c #A9A900",
"8  c #637100",
"9  c #A07100",
"0  c #987171",
"q  c #B6B600",
"w  c #939392",
"e  c #B7837E",
"r  c #C4BEBD",
"t  c #009300",
"y  c #A0A092",
"u  c #92928B",
"i  c #830000",
"p  c #B7B6B6",
"a  c #719E00",
"s  c #A6A6A6",
"d  c #AD8B00",
"f  c #717171",
"g  c #927800",
"h  c #B1B1AF",
"j  c #ADAFAC",
"k  c #00A000",
"l  c #787800",
"z  c #8B8B88",
"x  c #9E6300",
"c  c #8B9C8B",
"v  c #B1ADAC",
"b  c #717171",
"n  c #C27800",
"m  c #A2A400",
"M  c #00AD00",
"N  c #A6BEA4",
"B  c #939393",
"V  c #C5C5B3",
"C  c #83AF00",
"Z  c #A49600",
"A  c #929678",
"S  c #639800",
"D  c #938B00",
"F  c #A60000",
"G  c #787800",
"H  c #B3B888",
"J  c #989871",
"K  c #BEC1BE",
"L  c #9EA09E",
"P  c #9C9A00",
"I  c #929200",
"U  c #8B8863",
"Y  c #B4BE88",
"T  c #B1A9A9",
"R  c #A2A0A0",
"E  c #ACAC00",
"W  c #A0A1A0",
"Q  c #92AC00",
"!  c #A2A2A2",
"~  c #BDBDA9",
"^  c #969692",
"/  c #AFAFA2",
"(  c #718B71",
")  c #839300",
"_  c #B1B1B1",
"`  c #D1CFAB",
"'  c #CAC9B4",
"]  c #836363",
"[  c #00AB00",
"{  c #AB9371",
"}  c #009E00",
"|  c #83A000",
" . c #B4B4AF",
".. c #A66363",
"X. c #969A96",
"o. c #BFBFB8",
"O. c #C3A1A0",
"+. c #B1B1B1",
"@. c #9A9A98",
"#. c #888800",
"$. c #BE928B",
"%. c #8E8E88",
"&. c #BEBEB1",
"*. c #928300",
"=. c #AF0000",
"-. c #9E9E9E",
";. c #719C00",
":. c #A2A200",
">. c #00AB00",
",. c #969693",
"<. c #B1A100",
"1. c #A20000",
"2. c #8B9A00",
"3. c #9E9E9E",
"4. c #888800",
"5. c #00B800",
"6. c #63A963",
"7. c #A97871",
"8. c #8E9200",
"9. c #788300",
"0. c #988B8B",
"q. c #B9B700",
"w. c #BCBC00",
"e. c #A0A07E",
"r. c #A9A9A8",
"t. c #63A963",
"y. c #ABACAB",
"u. c #9AA600",
"i. c #8B8B8B",
"p. c #929692",
"a. c #880000",
"s. c #ADADAD",
"d. c #AFBC00",
"f. c #8B7E00",
"g. c #9A9A9A",
"h. c #B9C68E",
"j. c #009C00",
"k. c #9EB38E",
"l. c #63B663",
"z. c #B6C563",
"x. c #ABA8A8",
"c. c #9A9898",
"v. c #CBCBCA",
"b. c #B4B4B1",
"n. c #8B8B00",
"m. c #9E0000",
"M. c #787878",
"N. c #00A900",
"B. c #B37171",
"V. c #9A9A9A",
"C. c #A99600",
"Z. c #AB0000",
"A. c #BCBCBC",
"S. c #A9B6A8",
"D. c #717100",
"F. c #C1B100",
"G. c #968E8E",
"H. c #93A993",
"J. c #7E7E00",
"K. c #9C9600",
"L. c #BB7E00",
"P. c #ABAB71",
"I. c #639A63",
"U. c #00B600",
"Y. c #9E0000",
"T. c #989800",
"R. c #AFAD00",
"E. c #A9A9A9",
"W. c #839283",
"Q. c #96967E",
"!. c #A2B688",
"~. c #937800",
"^. c #637163",
"/. c #7E8B00",
"(. c #BB8B00",
"). c #A8A8A2",
"_. c #B3B3AB",
"`. c #B8B8B8",
"'. c #886363",
"]. c #007100",
"[. c #BF9600",
"{. c #009A00",
"}. c #A8A88B",
"|. c #969696",
" X c #937800",
".X c #838383",
"XX c #A19393",
"oX c #007100",
"OX c #B40000",
"+X c #B7B7B1",
"@X c #787863",
"#X c #7E7871",
"$X c #B17878",
"%X c #838383",
"&X c #007E00",
"*X c #00B400",
"=X c #A9A100",
"-X c #9EA478",
";X c #7EAF7E",
":X c #92BB92",
">X c #9A0000",
",X c #B1C7B1",
"<X c #926300",
"1X c #AF9C8B",
"2X c #9AAF00",
"3X c #9CA100",
"4X c #009800",
"5X c #008B00",
"6X c #8B9600",
"7X c #929292",
"8X c #B9B963",
"9X c #B4B4B4",
"0X c #A68383",
"qX c #837100",
"wX c #A1A1A1",
"eX c #009800",
"rX c #C1B8B8",
"tX c #9E9E00",
"yX c #B1A488",
"uX c #B8B9AF",
"iX c #719600",
"pX c #9E9A88",
"aX c #8B8371",
"sX c #B9A400",
"dX c #9C8B63",
"fX c #00BF00",
"gX c #8E8E8E",
"hX c #B4AD00",
"jX c #B1B171",
"kX c #9E9E00",
"lX c #A67E00",
"zX c #78B300",
"xX c #B37E00",
"cX c #960000",
"vX c #989A63",
"bX c #A2A263",
"nX c #A1BBA1",
"mX c #AF8383",
"MX c #96A200",
"NX c #78B963",
"BX c #C8D19E",
"VX c #B7B7B4",
"CX c #B9BB7E",
"ZX c #B79A78",
"AX c #009600",
"SX c #8BA100",
"DX c #C09800",
"FX c #C2A2A2",
"GX c #96837E",
"HX c #63B700",
"JX c #BFBFBF",
"KX c #B79600",
"LX c #A9A996",
"PX c #A4A4A1",
"IX c #7E9E7E",
"UX c #7E7163",
"YX c #AC0000",
"TX c #A9BBA6",
"RX c #ACACAC",
"EX c #A69800",
"WX c #939693",
"QX c #B4B163",
"!X c #938E00",
"~X c #969683",
"^X c #ADAD9C",
"/X c #92B792",
"(X c #BCB400",
")X c #7E7E63",
"_X c #8B8B63",
"`X c #637863",
"'X c #9E9E8E",
"]X c #A1A100",
"[X c #989863",
"{X c #966363",
"}X c #9A9E00",
"|X c #920000",
" o c #C4AFAF",
".o c #788800",
"Xo c #BBBBBB",
"oo c #636300",
"Oo c #780000",
"+o c #9EA292",
"@o c #83937E",
"#o c #C0B3B1",
"$o c #C20000",
"%o c #007800",
"&o c #719200",
"*o c #636300",
"=o c #C2C0A6",
"-o c #887100",
";o c #780000",
":o c #636300",
">o c #A8A8A8",
",o c #00A100",
"<o c #B3B3B1",
"1o c #83A07E",
"2o c #AF9800",
"3o c #78A200",
"4o c #B7B7B7",
"5o c #B87100",
"6o c #007800",
"7o c #7E8300",
"8o c #AC6363",
"9o c #A6A69A",
"0o c #AB9A00",
"qo c #63A600",
"wo c #838371",
"eo c #636300",
"ro c #A80000",
"to c #9E7100",
"yo c #C5BDB7",
"uo c #929C88",
"io c #938E8E",
"po c #B7B7B7",
"ao c #9E9A00",
"so c #C2C2C0",
"do c #A0B498",
"fo c #A4A400",
"go c #00BB00",
"ho c #A9A800",
"jo c #88887E",
"ko c #B1B100",
"lo c #BEB6B4",
"zo c #A8A863",
"xo c #BBBB8E",
"co c #C2B6B6",
"vo c #8E0000",
"bo c #C2C263",
"no c #009200",
"mo c #AD8E78",
"Mo c #63B963",
"No c #A4A4A4",
"Bo c #B18800",
"Vo c #B9C063",
"Co c #9A9A8B",
"Zo c #AFA1A1",
"Ao c #A09898",
"So c #AD9371",
"Do c #889288",
"Fo c #887871",
"Go c #7E7878",
"Ho c #838883",
"Jo c #8EAF00",
"Ko c #B10000",
"Lo c #BBB898",
"Po c #A0A088",
"Io c #B9B998",
"Uo c #837800",
"Yo c #00B900",
"To c #9A9A00",
"Ro c #B4AC9C",
"Eo c #B3A100",
"Wo c #A09C9C",
"Qo c #B47100",
"!o c #B1938B",
"~o c #A40000",
"^o c #838883",
"/o c #008300",
"(o c #A0A99C",
")o c #7E7E7E",
"_o c #00B900",
"`o c #9A9A00",
"'o c #C0C1C0",
"]o c #A0A0A0",
"[o c #8B8B7E",
"{o c #83A283",
"}o c #9E9E63",
"|o c #C2C2C2",
" O c #ABABA9",
".O c #B4B400",
"XO c #989896",
"oO c #A9ACA9",
"OO c #AFAFAF",
"+O c #A8AD00",
"@O c #B3B7A0",
"#O c #AFAFAF",
"$O c #A9AC63",
"%O c #B7B7A2",
"&O c #92AF78",
"*O c #BEBEBD",
"=O c #63B100",
"-O c #B1837E",
";O c #C5CE8E",
":O c #96A900",
">O c #BCB1B1",
",O c #989896",
"<O c #987863",
"1O c #839C7E",
"2O c #638800",
"3O c #7EA471",
"4O c #BCBCAF",
"5O c #9C9898",
"6O c #9C9C9C",
"7O c #8B8888",
"8O c #630000",
"9O c #630000",
"0O c #71A471",
"qO c #938800",
"wO c #9C9C9C",
"eO c #630000",
"rO c #78AB00",
"tO c #BEBEBE",
"yO c #00C400",
"uO c #ACB3AC",
"iO c #A00000",
"pO c #B9A696",
"aO c #00B700",
"sO c #BDBDB7",
"dO c #83B900",
"fO c #AFB8AC",
"gO c #A2A483",
"hO c #ABA9A9",
"jO c #B7B700",
"kO c #AF8E88",
"lO c #930000",
"zO c #008E00",
"xO c #718871",
"cO c #A8A87E",
"vO c #00C400",
"bO c #ABABAB",
"nO c #A9B100",
"mO c #716300",
"MO c #BB8E8E",
"NO c #A2AB7E",
"BO c #789871",
"VO c #00A800",
"CO c #A28883",
"ZO c #C0A083",
"AO c #C4C4A4",
"SO c #636363",
"DO c #BDC0AF",
"FO c #B60000",
"GO c #719263",
"HO c #63A000",
"JO c #ABACA1",
"KO c #A1B1A1",
"LO c #00A800",
"PO c #639300",
"IO c #A90000",
"UO c #968B00",
"YO c #92AF92",
"TO c #B1BBB1",
"RO c #A16300",
"EO c #888883",
"WO c #78A900",
"QO c #BEA87E",
"!O c #636363",
"~O c #A8BCA8",
"^O c #837E7E",
"/O c #B8B7B7",
"(O c #939300",
")O c #BBB300",
"_O c #006300",
"`O c #C5B87E",
"'O c #006300",
"]O c #BBB9A9",
"[O c #A4A463",
"{O c #C89C9C",
"}O c #C69C78",
"|O c #00C200",
" + c #928B8B",
".+ c #63AD00",
"X+ c #929392",
"o+ c #93A28E",
"O+ c #9CB49C",
"++ c #006300",
"@+ c #789671",
"#+ c #B9A188",
"$+ c #927100",
"%+ c #00A600",
"&+ c #B6B6B6",
"*+ c #B4AFAF",
"=+ c #B7A09E",
"-+ c #B4B4A8",
";+ c #00A600",
":+ c #78AB78",
">+ c #969600",
",+ c #838378",
"<+ c #B4B3B3",
"1+ c #92AD92",
"2+ c #A19C9C",
"3+ c #AB9863",
"4+ c #C9B700",
"5+ c #A29663",
"6+ c #00B300",
"7+ c #BCBB78",
"8+ c #8B8800",
"9+ c #B47800",
"0+ c #980000",
"q+ c #A4A263",
"w+ c #7E8800",
"e+ c #C7C500",
"r+ c #00C000",
"t+ c #B4C5AC",
"y+ c #939E00",
"u+ c #8E8B8B",
"i+ c #8B0000",
"p+ c #B1B1AB",
"a+ c #B4A098",
"s+ c #00A400",
"d+ c #710000",
"f+ c #83967E",
"g+ c #7E0000",
"h+ c #ADADA6",
"j+ c #937E71",
"k+ c #B3B38B",
"l+ c #BB0000",
"z+ c #B9B3B1",
"x+ c #A9C0A9",
"c+ c #BBACAC",
"v+ c #638863",
"b+ c #B7B7A8",
"n+ c #719E71",
"m+ c #00A400",
"M+ c #A9A9A1",
"N+ c #710000",
"B+ c #A66300",
"V+ c #787871",
"C+ c #9A9A93",
"Z+ c #000000",
"A+ c #B17100",
"S+ c #B9ADAD",
"D+ c #A10000",
"F+ c #C2BB71",
"G+ c #ACAC71",
"H+ c #838363",
"J+ c #A6A600",
"K+ c #008800",
"L+ c #BCBC9E",
"P+ c #986363",
"I+ c #9C9E00",
"U+ c #000000",
"Y+ c #ACA963",
"T+ c #000000",
"R+ c #939C00",
"E+ c #C0C000",
"W+ c #8E9800",
"Q+ c #B7B763",
"!+ c #00A200",
"~+ c #A0AB8E",
"^+ c #A47E00",
"/+ c #B8B4AD",
"(+ c #000000",
")+ c #7E6363",
"_+ c #BBB8B8",
/* pixels */
"Z+U+U+_Oa Q 2.~.m 2Xn.m.toHOyOfXqof...GX{oH.DoSOU+U+U+U+#.:.>+oo",
"T+(+(+++M *X< ; L.(.xX9+A+3ovO.+R+3+$.loN &O!Xg+(+(+(+(+T.Q+P.@X",
"T+(+(+(+zOt .og 9 ZX`O(XdX1O: SXw.e+yXv (o{ 5oD+(+(+(+(+woLX_.XO",
"T+(+(+(+(+(+J+E pX]O` boy @ uOA jOE+[X# Go{X1.|X(+(+(+eOaXJOK = ",
"T+(+(+(+(+(+kXfo~XM+%O[Ou bOs 1 y+}XG (+(+eON+eO(+(+(+g+5+H TXj ",
"T+(+(+(+(+(+G H+,.]oi.(+b # ^oI.aOeX++(+!O(+(+(+(+(+(+N+*.3XBOHo",
"T+(+(+(+(+(+(+b E.&+gX(+(+(+++AX6+AX^.gX! i.(+(+(+b M.!O(+(+(+U+",
"T+(+(+(+(+(+(+!O3.E.%XoXno} 6ooXK+oX^.X.oOp.++(+(+wOE.7X!OM.|.g.",
"T+(+(+(+(+(+(+(+(+!O(+6o;+U.K+(+(+(+v+;X:X:+no&X++3.RXB !O# bO_ ",
"'OoX++D.w |.)o(+(+(+(+oX} M K+(+(+++zO_o|Ol./X1+xOb M.!OJ.e.$ r.",
"4X;+&ozob+h B (+(+6o5X6o++noN.zO++(+6oj.. n+x+~OW.(+!O(+(Okofo@X",
"VO_o| 8XL+h+gX(+(+{.> j.oX} go} 6o++(+++++^.W L )oz ,O)o4.J+`o*o",
"7o6X9.(OQ.PX3.gX# t.r+>.oX&XAX2OS j.6o(+(+(+% '.D @ODOC+eoeoeoU+",
"x KX& G %.o.sO+.E.0O5.;+++++UXX JoHXzO(+eoG j+B.sX;OBXPoeo(+(+U+",
"lX4+hX4._XxoIo .s.xO5X&X(+b XXO.mo/.oX(+J.q+Ro{O}OVoz.vXeo++(+U+",
"qX=XP G G bX}o[o)o++(+(+(+)ox.coCOi N+eoI 7+V #okOMXC   6onoK+U+",
"9O)Xz M.!OG D.(+(+(+(+(+eo!O^O0.P+IOcXN+D.6 Co +)+S ;+zO< dOrO].",
"`XWXp R u+i.M.(+(+(+(+G UO X;o>Xl+$oIO;o(+eoeo(+(+oX&XoXqOEoZ mO",
"6.o+>O=+z+po2 6ooX!O!OK.F.[.<XcXOXroi+eO(+eOeO(+eOeO(+(+<X3 ROd+",
"Mo3O!oZOyo*OnX=O@+7XB U EX^+g+;ovog+eOeO;ocXi+N+|XlON+(+N+a.g+_O",
"KOf+o F+=op+YO:O1XrX|o@.#X#XeON+iOF |XZ.IOl+YX|XOXFOi+(+(+(+/o!+",
"#Os so~ }.uo0Oaoe  or  O+.po7O] IOKo>XFOZ.IO~o=.O 1.g+(+(+(+5X[ ",
"`.9Xv.b.,+} U.+ 1.#+LoS.'o_+0X8o>XiOi+>Xvo;oa.F D+i ;o(+(+(+6o4 ",
"4obO<oV.^.noLOeXg+5 d.k.y.2+- MO0 =.Y.N+(+++eog+0+YXB+eO(+(+(+U+",
"-.'Xk+* V+(+++(+(+-XY NOEOc.T c+mXn d Uo++{.N.AXlO2ohoGO)o# !OU+",
":oJ AO4O^ (+(+(+(+9o&./ NoA.JX*+-ODX)OT.++m+*Xk lO<.nO1oNo+.V.g.",
":o, -++X,.(+(+(Ofo^XVXh+ O|otOWo<O0oq.u.( c IXK+lOBoC.W.>opos.OO",
"T+(+M.)ob (+(+]X.OG+cOjX+oTOfOgOI G ) zX!.uX).^o5OAoFo!Ob ioZoS+",
"T+(+(+(+(+(+(+J.8.W++Oq ~+,Xt+CX7 w+{.NXh.' /+hOXo<+# (+(+i+$XFX",
"T+(+(+(+(+(+(+(+&X,oWO/.@oO+do$OI+iX>.;.Y+QOa+/OXos )o(+(+-oSopO",
"T+(+(+(+(+(+(+(+/oM 5.AXX+po+.jo8 t > PO$+Qo7.G.i.b (+(+(+8+R.QX",
"Z+U+U+U+U+U+U+U+U+s+Yo%+.XwX6Of U+_O%o_O8OOod+SOU+U+U+U+U+l TotX"
};
