/* XPM */
static const char *U_xpm[] = {
"32 16 83 1",
" 	c None",
".	c #E5E5E5",
"+	c #967E7C",
"@	c #1C0300",
"#	c #311814",
"$	c #8E7473",
"%	c #310F0D",
"&	c #4C2623",
"*	c #451F1C",
"=	c #1D0000",
"-	c #210000",
";	c #542326",
">	c #5E2A2C",
",	c #582426",
"'	c #5A2E2F",
")	c #8E7070",
"!	c #300306",
"~	c #5F2428",
"{	c #622223",
"]	c #5A1A1B",
"^	c #60292C",
"/	c #200000",
"(	c #3F0B0F",
"_	c #611C21",
":	c #6C2126",
"<	c #74292E",
"[	c #551418",
"}	c #290000",
"|	c #1E0000",
"1	c #672C30",
"2	c #792E33",
"3	c #610F15",
"4	c #79282E",
"5	c #641D21",
"6	c #400E11",
"7	c #C8AAAC",
"8	c #281F20",
"9	c #190305",
"0	c #552B2D",
"a	c #571B1D",
"b	c #611217",
"c	c #792228",
"d	c #6F1A1F",
"e	c #6B2025",
"f	c #612D31",
"g	c #160000",
"h	c #A99594",
"i	c #431B1B",
"j	c #642828",
"k	c #722225",
"l	c #7D2428",
"m	c #6C1619",
"n	c #661B1F",
"o	c #592527",
"p	c #200202",
"q	c #8B8381",
"r	c #230000",
"s	c #5B1F1F",
"t	c #6F1F22",
"u	c #691014",
"v	c #7F292C",
"w	c #64191D",
"x	c #5E2C2D",
"y	c #140000",
"z	c #8A6E6D",
"A	c #4E2221",
"B	c #470B0B",
"C	c #320000",
"D	c #390000",
"E	c #652D2E",
"F	c #3D1617",
"G	c #DCC8C7",
"H	c #120403",
"I	c #392526",
"J	c #D0BABC",
"K	c #D4BEC0",
"L	c #241212",
"M	c #080000",
"N	c #090909",
"O	c #000000",
"P	c #0F0F0F",
"Q	c #030303",
"R	c #E2E2E2",
"................................",
"................................",
"..............+@#...............",
".............$%&*=..............",
".............-;>,').............",
".............!~{]^/.............",
".............(_:<[}.............",
"............|1234567............",
"..........890abcdefg............",
"...........hijklmnopq...........",
"............rstuvwxy............",
"............zABCDEFG............",
".............HIJKLM.............",
"..............NOPQR.............",
"................................",
"................................"};
