/* XPM */
static const char *valuecurvenotselected_24[] = {
"24 24 162 2 0 0",
"   c #FFFFFF",
"!  c #7F7F7F",
"#  c #CBCAC1",
"$  c #F5F4F7",
"%  c #D4D4D3",
"&  c #AAC165",
"'  c #F6F1F6",
"(  c #FCF3FF",
")  c #BDDD63",
"*  c #C3D385",
"+  c #E5E4E3",
",  c #FBF8FF",
"-  c #FFFEFF",
".  c #F4F5F6",
"/  c #EFF4E5",
"0  c #EFF4E1",
"1  c #BACB7F",
"2  c #E0FA74",
"3  c #B5CB6A",
"4  c #D3D8BA",
"5  c #EEEEF0",
"6  c #F5F5F7",
"7  c #E1EAC6",
"8  c #D7E4A8",
"9  c #CDDD90",
":  c #C9DE7F",
";  c #C5DB72",
"<  c #C9E16F",
"=  c #C9E266",
">  c #C8E161",
"?  c #BCD65B",
"@  c #C2D188",
"A  c #D9E0BF",
"B  c #F5F5F3",
"C  c #FDFCFF",
"D  c #E9F2D2",
"E  c #D1E585",
"F  c #BCD35D",
"G  c #B9D34B",
"H  c #BED84E",
"I  c #BFD753",
"J  c #C5DD58",
"K  c #C4DB5A",
"L  c #C2D85B",
"M  c #C2DA5B",
"N  c #C5DC5B",
"O  c #CAE353",
"P  c #BFD94F",
"Q  c #8CA04C",
"R  c #989D89",
"S  c #F1F1F2",
"T  c #FBFBFF",
"U  c #DBE4BE",
"V  c #C7E559",
"W  c #BFDC4B",
"X  c #B9D24C",
"Y  c #B9D151",
"Z  c #BDD454",
"[  c #C8E157",
"]  c #C9E44F",
"^  c #C0DB4C",
"_  c #BCD452",
"`  c #BFD954",
"a  c #C2DE4B",
"b  c #869F2A",
"c  c #7A8552",
"d  c #B1B99B",
"e  c #CFD2C7",
"f  c #F8F8F8",
"g  c #F2F3E7",
"h  c #B6D64C",
"i  c #B0CF3F",
"j  c #B2CE4A",
"k  c #B1CC4A",
"l  c #BCD94F",
"m  c #B2D539",
"n  c #5E790C",
"o  c #606F39",
"p  c #9CAF60",
"q  c #C0DE48",
"r  c #A8CA35",
"s  c #5A6B2F",
"t  c #B3B4B1",
"u  c #E5E5E8",
"v  c #FDFBFF",
"w  c #FCFBFF",
"x  c #D2DDB0",
"y  c #BFE237",
"z  c #B4D24B",
"{  c #A4C443",
"|  c #B8D94A",
"}  c #709115",
"~  c #6F7566",
" ! c #E4E4E3",
"!! c #F8F6FF",
"#! c #ACC65E",
"$! c #8AB019",
"%! c #5F6556",
"&! c #FAFAFC",
"'! c #FAFAFB",
"(! c #BECB91",
")! c #BAE038",
"*! c #A8C944",
"+! c #A3C744",
",! c #78A019",
"-! c #A1A697",
".! c #F7F3FF",
"/! c #598E00",
"0! c #6B667B",
"1! c #BAC1A4",
"2! c #7FAC16",
"3! c #92B839",
"4! c #99C334",
"5! c #6D8434",
"6! c #D5D7D2",
"7! c #AAB093",
"8! c #6B6774",
"9! c #E1E0DB",
":! c #729919",
";! c #8BB52D",
"<! c #8AB428",
"=! c #7F9647",
">! c #DCDFD9",
"?! c #F2F1F1",
"@! c #93A36A",
"A! c #76A315",
"B! c #82A925",
"C! c #688722",
"D! c #D3D7CA",
"E! c #D7D7D3",
"F! c #678C26",
"G! c #6FA11B",
"H! c #5E8E0A",
"I! c #B3BB9F",
"J! c #FEFBFF",
"K! c #AEB39F",
"L! c #5B891C",
"M! c #5E990F",
"N! c #688B34",
"O! c #E7E4E4",
"P! c #F3F1F7",
"Q! c #A3AC96",
"R! c #588722",
"S! c #408200",
"T! c #91A473",
"U! c #F6F3F9",
"V! c #B2B7AA",
"W! c #48711D",
"X! c #2D6E00",
"Y! c #A5B889",
"Z! c #FFFBFF",
"[! c #DBDBD6",
"]! c #6F855B",
"^! c #174700",
"_! c #84A65E",
"`! c #F0EEF1",
"a! c #D5DAD5",
"b! c #737D65",
"c! c #7B806B",
"d! c #F6F5F7",
"e! c #EDEEEA",
"f! c None",
"                                              ! ",
"                                              ! ",
"                      # $                     ! ",
"                      % & '                   ! ",
"                      ( ) * + ,               ! ",
"                - . / 0 1 2 3 4 5             ! ",
"            6 7 8 9 : ; < = > ? @ A B         ! ",
"        C D E F G H I J K L M N O P Q R S     ! ",
"      T U V W X Y Z [ ] ^ _ ` a b c d e f     ! ",
"      g h i j k l m n o p q r s t u v         ! ",
"    w x y z { | } ~  !!!#!$!%!&!C             ! ",
"    '!(!)!*!+!,!-!.!    /!0!                  ! ",
"    v 1!2!3!4!5!6!    7!8!                    ! ",
"      9!:!;!<!=!>!    $                       ! ",
"      ?!@!A!B!C!D!                            ! ",
"        E!F!G!H!I!J!                          ! ",
"        , K!L!M!N!O!                          ! ",
"          P!Q!R!S!T!                          ! ",
"            U!V!W!X!Y!                        ! ",
"              Z![!]!^!_!                      ! ",
"                  `!a!b!c!                    ! ",
"                      d!e!                    ! ",
"                                              ! ",
"  ! ! ! ! ! ! ! ! ! ! ! ! ! ! ! ! ! ! ! ! ! ! ! "
};
