/* XPM */
static const char * video_24[] = {
"24 24 15 1",
" 	c #000000",
".	c #020600",
"+	c #060000",
"@	c #060007",
"#	c #010000",
"$	c #030000",
"%	c #000009",
"&	c #000200",
"*	c #FFFFFF",
"=	c #FEFEFE",
"-	c #FDFDFD",
";	c #000002",
">	c #090110",
",	c #020C04",
"'	c #000100",
"        .+        @#$%& ",
"* ** ** ** ** ** ** ** *",
"* ** ** ** ** ** ** ** *",
"* ** ** ** ** ** ** ** *",
" ********************** ",
" ********************** ",
" ********************** ",
" ********************** ",
" ********************** ",
" ********************** ",
" ********************** ",
" ********************** ",
" ********************** ",
" ********************** ",
" ********************** ",
" ********************** ",
" ********************** ",
" ********************** ",
" ********************** ",
" ********************** ",
"* ** *= ** ** ** ** *- *",
"* ** ** ** ** ** ** ** *",
"        ;>              ",
"        &,          '&  "};
