/* XPM */
static const char * vumeter_16[] = {
"16 16 3 1",
" 	c #000000",
".	c #ED1C24",
"+	c #FF7F27",
"                ",
"                ",
"                ",
"                ",
"                ",
"                ",
"                ",
"      .+    .+  ",
"      .+    .+  ",
"    .+.+.+  .+.+",
"    .+.+.+  .+.+",
"    .+.+.+.+.+.+",
".+  .+.+.+.+.+.+",
".+.+.+.+.+.+.+.+",
".+.+.+.+.+.+.+.+",
".+.+.+.+.+.+.+.+"};
