/* XPM */
static const char *wave_24[] = {
/* width height num_colors chars_per_pixel */
"24 24 520 2", 
/* colors */
"   c #41A3F8",
".  c #3FFE5C",
"X  c #4ABAD0",
"o  c #00D3F1",
"O  c #B00FE2",
"+  c #9724CB",
"@  c #A2DA5B",
"#  c #8E249E",
"$  c #5EE29F",
"%  c #261200",
"&  c #9C007A",
"*  c #248AFE",
"=  c #0FF3D4",
"-  c #A87A00",
";  c #800056",
":  c #76076E",
">  c #7467E3",
",  c #4EC2C2",
"<  c #78E983",
"1  c #A6E515",
"2  c #A61EBC",
"3  c #B2AC24",
"4  c #45F59E",
"5  c #3E002B",
"6  c #B44B00",
"7  c #6BE395",
"8  c #3BA4F7",
"9  c #2D9FEC",
"0  c #AB4900",
"q  c #351E00",
"w  c #7B5600",
"e  c #261200",
"r  c #71F326",
"t  c #1A0B00",
"y  c #D4B200",
"u  c #5CE19E",
"i  c #AFB60F",
"p  c #30FC66",
"a  c #C715B3",
"s  c #9EEB17",
"d  c #2ACCE9",
"f  c #B2F10F",
"g  c #54AAD4",
"h  c #B2AE0F",
"j  c #AAC620",
"k  c #951792",
"l  c #61DEA4",
"z  c #841AFB",
"x  c #7878E9",
"c  c #A8C844",
"v  c #59D7A6",
"b  c #2FE7C3",
"n  c #2F1200",
"m  c #6A0058",
"M  c #55A0DE",
"N  c #A29112",
"B  c #84E771",
"V  c #DEAF1A",
"C  c #6B0053",
"Z  c #78FA59",
"A  c #B90FFA",
"S  c #150007",
"D  c #53F56C",
"F  c #83E35C",
"G  c #4B2B00",
"H  c #30001A",
"J  c #2B001E",
"K  c #3A2000",
"L  c #240015",
"P  c #C8007A",
"I  c #8E30F1",
"U  c #4AD2B9",
"Y  c #8AF94A",
"T  c #B53BF0",
"R  c #D5B600",
"E  c #D6D924",
"W  c #ADC332",
"Q  c #24E3CD",
"!  c #876800",
"~  c #7AF53F",
"^  c #991CA5",
"/  c #807DE7",
"(  c #A88500",
")  c #8842DB",
"_  c #2F0020",
"`  c #966CE3",
"'  c #46F79D",
"]  c #240015",
"[  c #370024",
"{  c #AB0FE9",
"}  c #4E0035",
"|  c #951CBB",
" . c #2DB9EE",
".. c #2B1200",
"X. c #4ED3B1",
"o. c #A228C6",
"O. c #A2C92D",
"+. c #C50FA4",
"@. c #5E86E0",
"#. c #30F356",
"$. c #592F00",
"%. c #C400D7",
"&. c #53DCAA",
"*. c #ABCC3A",
"=. c #780056",
"-. c #0FC7F8",
";. c #CA9407",
":. c #60004A",
">. c #623E00",
",. c #674200",
"<. c #902DF1",
"1. c #1ABFE5",
"2. c #CA26D8",
"3. c #30001C",
"4. c #7BFE20",
"5. c #56003A",
"6. c #BC2DEF",
"7. c #7EE57B",
"8. c #8853F7",
"9. c #5E9CDC",
"0. c #E400E7",
"q. c #D31ED0",
"w. c #F4C500",
"e. c #07D0F1",
"r. c #1CBCE4",
"t. c #CF00B5",
"y. c #A8009C",
"u. c #240017",
"i. c #50CDBA",
"p. c #9C5B07",
"a. c #BBF235",
"s. c #CBE324",
"d. c #B300EE",
"f. c #73E588",
"g. c #A0CD26",
"h. c #EEB407",
"j. c #D500DC",
"k. c #610046",
"l. c #200F00",
"z. c #28E1D0",
"x. c #980778",
"c. c #3DF6AC",
"v. c #658DE5",
"b. c #3A1C00",
"n. c #BF00F4",
"m. c #15000B",
"M. c #420032",
"N. c #6B91E0",
"B. c #A70B89",
"V. c #A30BB6",
"C. c #ABFD15",
"Z. c #6067F7",
"A. c #A7B00B",
"S. c #B9F800",
"D. c #380022",
"F. c #A49017",
"G. c #00EBDE",
"H. c #8AF94E",
"J. c #3E59FE",
"K. c #9D7F0B",
"L. c #55FA76",
"P. c #4891F9",
"I. c #6094E4",
"U. c #ED00B9",
"Y. c #CBE124",
"T. c #7837F1",
"R. c #A40F86",
"E. c #9C3500",
"W. c #AC6B07",
"Q. c #A99C07",
"!. c #750052",
"~. c #6D3B00",
"^. c #DBDE07",
"/. c #46C7BE",
"(. c #384EF3",
"). c #4D49FE",
"_. c #E4E500",
"`. c #7BE375",
"'. c #C10076",
"]. c #96CB2D",
"[. c #8F67E6",
"{. c #321E00",
"}. c #91881A",
"|. c #120700",
" X c #170B00",
".X c #B39A00",
"XX c #890F75",
"oX c #6EE46B",
"OX c #660046",
"+X c #28ED97",
"@X c #9D63DE",
"#X c #491700",
"$X c #ACB626",
"%X c #AE9107",
"&X c #A412AD",
"*X c #9DDE53",
"=X c #672200",
"-X c #7F0063",
";X c #380024",
":X c #9146FA",
">X c #9CC520",
",X c #120007",
"<X c #6E0061",
"1X c #7D2DFE",
"2X c #5476F5",
"3X c #960786",
"4X c #A212E7",
"5X c #B9F137",
"6X c #38F7A8",
"7X c #8D0076",
"8X c #0BF8A5",
"9X c #B1FC1A",
"0X c #56E08C",
"qX c #D31CD3",
"wX c #DCAF15",
"eX c #4A4FFE",
"rX c #760760",
"tX c #B6F332",
"yX c #B60FE3",
"uX c #55B1D2",
"iX c #85FA4A",
"pX c #4BD2BB",
"aX c #77FC22",
"sX c #C7D100",
"dX c #D8C000",
"fX c #550045",
"gX c #7B0B78",
"hX c #9907A6",
"jX c #0BF195",
"kX c #887AE4",
"lX c #5472F3",
"zX c #6A5EF8",
"xX c #5A68F9",
"cX c #2DFE6A",
"vX c #A99D17",
"bX c #C2DA00",
"nX c #24EBAD",
"mX c #9D0791",
"MX c #911A90",
"NX c #C030EE",
"BX c #4EB5CD",
"VX c #8D5607",
"CX c #32E6C7",
"ZX c #55FA7A",
"AX c #C81CB2",
"SX c #CA830B",
"DX c #9BE264",
"FX c #6698E3",
"GX c #613D00",
"HX c #596DF8",
"JX c #0BFAA9",
"KX c #A3B815",
"LX c #503200",
"PX c #9B6E00",
"IX c #9058E3",
"UX c #170700",
"YX c #0B0000",
"TX c #A2B02B",
"RX c #1E000F",
"EX c #850F76",
"WX c #A726B2",
"QX c #DADA24",
"!X c #76E780",
"~X c #07F4D1",
"^X c #DABD00",
"/X c #53003A",
"(X c #962BA8",
")X c #8E5200",
"_X c #844A00",
"`X c #9B38D3",
"'X c #DCED07",
"]X c #8754F9",
"[X c #220012",
"{X c #308FF1",
"}X c #468CF9",
"|X c #875DDE",
" o c #88DB45",
".o c #8A0072",
"Xo c #C800CA",
"oo c #920B8B",
"Oo c #7C4907",
"+o c #ABA207",
"@o c #26F09D",
"#o c #A6F43A",
"$o c #E507E4",
"%o c #241200",
"&o c #9D0793",
"*o c #7B4800",
"=o c #7FE163",
"-o c #710055",
";o c #070000",
":o c #1A000F",
">o c #73004B",
",o c #679AE1",
"<o c #C17F0B",
"1o c #070000",
"2o c #4A2600",
"3o c #452200",
"4o c #522F00",
"5o c #462800",
"6o c #371C00",
"7o c #2FB9ED",
"8o c #D7DC20",
"9o c #C27C0F",
"0o c #492D00",
"qo c #A3EC15",
"wo c #0BCBEC",
"eo c #6DE68E",
"ro c #886200",
"to c #8261E6",
"yo c #91E564",
"uo c #792BFF",
"io c #1E0012",
"po c #070000",
"ao c #A9A22A",
"so c #5CF66B",
"do c #1A000F",
"fo c #9A37B6",
"go c #91D53F",
"ho c #C200A6",
"jo c #129DFC",
"ko c #7880E5",
"lo c #E58600",
"zo c #2F9BEB",
"xo c #260015",
"co c #350022",
"vo c #8B3ACF",
"bo c #A73AC5",
"no c #C7DA00",
"mo c #9E46D1",
"Mo c #1CFE9A",
"No c #536CF7",
"Bo c #6B075A",
"Vo c #602600",
"Co c #AD9700",
"Zo c #9846DA",
"Ao c #62E096",
"So c #4DC1C9",
"Do c #55DAA8",
"Fo c #92830B",
"Go c #8566E7",
"Ho c #4AD3BA",
"Jo c #3ED4AA",
"Ko c #A66B00",
"Lo c #5B2F00",
"Po c #5A0046",
"Io c #DC7500",
"Uo c #9748F9",
"Yo c #0F0700",
"To c #E1E500",
"Ro c #C500F4",
"Eo c #3A9DF9",
"Wo c #E0B415",
"Qo c #260F00",
"!o c #764F00",
"~o c #880068",
"^o c #77F544",
"/o c #7F34F4",
"(o c #6AFF35",
")o c #AFD44E",
"_o c #452D00",
"`o c #49F580",
"'o c #53003E",
"]o c #8EE576",
"[o c #0F0700",
"{o c #91E566",
"}o c #6EE780",
"|o c #A2077B",
" O c #9C9B1A",
".O c #12CBF7",
"XO c #9C6100",
"oO c #7A003F",
"OO c #4FB0D4",
"+O c #5AD7AF",
"@O c #49BCD0",
"#O c #8E5B00",
"$O c #1CE2CA",
"%O c #63F76C",
"&O c #CC00B9",
"*O c #811287",
"=O c #2AEF96",
"-O c #ADAC20",
";O c #2691FE",
":O c #45BACD",
">O c #EB00B6",
",O c #97008E",
"<O c #0F0007",
"1O c #6B075C",
"2O c #301500",
"3O c #381E00",
"4O c #CD00CB",
"5O c #440032",
"6O c #17000B",
"7O c #45C8C2",
"8O c #614400",
"9O c #C300A4",
"0O c #45F580",
"qO c #90006E",
"wO c #6E85E8",
"eO c #7FF03A",
"rO c #0B0700",
"tO c #9F8000",
"yO c #5967F9",
"uO c #C600DA",
"iO c #DEEA0B",
"pO c #A6D749",
"aO c #3A5CFE",
"sO c #915E00",
"dO c #07EBDB",
"fO c #1297FB",
"gO c #1791F3",
"hO c #CD2AD9",
"jO c #7535F3",
"kO c #CB00D7",
"lO c #A426C8",
"zO c #A5F53A",
"xO c #B13AF1",
"cO c #54003B",
"vO c #AAB315",
"bO c #BD15FA",
"nO c #9749DB",
"mO c #260B00",
"MO c #A4D648",
"NO c #150000",
"BO c #0B0007",
"VO c #72003E",
"CO c #9842DB",
"ZO c #4BB0D5",
"AO c #2D91F2",
"SO c #22C8DC",
"DO c #28C7DE",
"FO c #2F1A00",
"GO c #7A5600",
"HO c #A27600",
"JO c #87E772",
"KO c #1E0F00",
"LO c #2DCAE9",
"PO c #1CFE9F",
"IO c #A34DCD",
"UO c #B0C534",
"YO c #97740B",
"TO c #E98B00",
"RO c #9AD83A",
"EO c #DAC217",
"WO c #7F006E",
"QO c #07E8CF",
"!O c #A14FDA",
"~O c #56AADC",
"^O c #6CE78F",
"/O c #2F0B00",
"(O c #8917FC",
")O c #20E3C5",
"_O c #CB0BA8",
"`O c #7A84E4",
"'O c #A612AE",
"]O c #1ED8D2",
"[O c #9F3FC0",
"{O c #24EAAA",
"}O c #733500",
"|O c #7C67E4",
" + c #20D9D4",
".+ c #74E390",
"X+ c #B2BD3B",
"o+ c #71FE37",
"O+ c #589EDF",
"++ c #37001E",
"@+ c #F3C207",
"#+ c #97DC4F",
"$+ c #725800",
"%+ c #A10FEA",
"&+ c #97720B",
"*+ c #26C7EB",
"=+ c #9D2DBC",
"-+ c #D8BF15",
";+ c #CE950F",
":+ c #C5D300",
">+ c #6959F8",
",+ c #41002F",
"<+ c #DC00DD",
"1+ c #A355D6",
"2+ c #856E0B",
"3+ c #3A0026",
"4+ c #4EF76D",
"5+ c #4DC5BC",
"6+ c #7383E7",
"7+ c #000000",
"8+ c #6A81E7",
"9+ c #41A4D5",
"0+ c #D100BB",
"q+ c #54A0E0",
"w+ c #770055",
"e+ c #905C07",
"r+ c #1E0B00",
"t+ c #A62AAD",
"y+ c #20E1C5",
"u+ c #35BDC2",
"i+ c #AAE515",
"p+ c #75F959",
"a+ c #86F13D",
"s+ c #38001A",
"d+ c #59E2A1",
"f+ c #3D1C00",
"g+ c #603800",
"h+ c #000000",
"j+ c #6D4500",
"k+ c #000000",
"l+ c #613E00",
"z+ c #9661E1",
"x+ c #580041",
"c+ c #A10BA2",
"v+ c #42002B",
"b+ c #53F569",
"n+ c #42FF58",
"m+ c #B4F707",
"M+ c #A734C9",
"N+ c #E100DB",
"B+ c #000000",
"V+ c #741AF2",
"C+ c #821A8F",
"Z+ c #8ADA4F",
/* pixels */
"j.t.=.L h+h+h+:oOX9O<+0+!.[Xh+h+h+,X>ohoN+&O; io",
"d.kO7X[ B+B+B+H ~o4On.uO.o_ B+B+B+xoqOXoRo%.& J ",
"V+{ &o} poB+pov+3XyXz %+mX5OBOB+po;X,OO (O4Xy.5 ",
"(./o&X:.<OB+YXx+c+<.eXjO'OfXm.B+po/XhXI ).T.V.'o",
"gOyOo.<XRXB+6Om 2 >+;ONolO1Ou.B+m.C | zX* HX+ Bo",
"woEoZogX3.B+xo: `X}X.O8 COEXcoB+] WOvoP.-.  ) XX",
"QO*+GoC+,+po3+*OIX .dOd toMXM.YXD.oo|X7oG.LO> k ",
"jX$OwO(Xk.S cO# x  +8X)O8+t+Podo5.^ ko]OJXy+v.WX",
"#.@oM [O-Xs+-ofoI.nXp =Oq+borX++w+=+,o{OcX+X~OM+",
"r 4+:O1+B.oOx.IOZO0Oo+b+@O!OR.VO|omouX`o(oD SonO",
"f iXU ` a P +.@X7Op+9XY Ho[.AX'._Oz+5+Z C.H.X.|O",
"^.tX$ `O2.U.q.kX&.zOiOa.u 6+hO>OqX/ v #o'X5XAo@.",
"h.8o< 9.xO0.NXN.^Os.@+QX!XO+T $o6.FX.+Y.w.E 7.9+",
"IoWo{oBX]XA Uog JOEOloV yoX 8.bO:XOO]o-+TOwXDXu+",
"E.SXMOi.2XuoZ., *X;+0 9opOpXlX1XxX/.@ ;.6 <o)oJo",
"#Xp.W l 9 aO{X+O*.W.VoVXUOd+zoJ.AODoc Ko=Xe+X+0X",
"r+~.-Of.SOjor.7 $XOo2O>.3 }oDOfO1.eoTX*o/O,.aooX",
"Yo5oN =ob o z.`.vX$.t _oF.F CXe.Q B  OLoNO0o}. o",
"1oFOYOgo' ~Xc.Z+K.3OYXq &+RO4 = 6X#+Fof+po6o2+g.",
"k+KOw >X%OMoZX].roe B+e GOj soPOL.O.! mOB+Qo$+i ",
"k+|.GXA.a+n+^oKXj+ XB+t l+h eO. ~ vO!oNOB+UX8O.X",
"k+rO2oCoi+4.s +o4o[oB+|.G %X1 aXqoQ.g+poB+YXLX- ",
"k+poFOHOsXS.bX( b.YXB+po{.PX:+m+notO3opoB+B+K #O",
"7+;ol.)Xy _.dXXO% ;oh+h+%o_XR To^XsOn h+h+h+..}O"
};
