/* XPM */
static const char *wave_32[] = {
/* width height num_colors chars_per_pixel */
"32 32 850 2", 
/* colors */
"   c #B526CF",
".  c #00ABFD",
"X  c #E800CD",
"o  c #673EF9",
"O  c #C615B7",
"+  c #4D1200",
"@  c #496DFC",
"#  c #C1B515",
"$  c #529AE7",
"%  c #710048",
"&  c #3EEBA3",
"*  c #67004F",
"=  c #F1D300",
"-  c #D00BEE",
";  c #2A81F9",
":  c #883A00",
">  c #240012",
",  c #00CBEB",
"<  c #6182F7",
"1  c #2BFE53",
"2  c #5E003A",
"3  c #7B4900",
"4  c #CFFB07",
"5  c #3D1A00",
"6  c #66003E",
"7  c #1C000F",
"8  c #38B4E6",
"9  c #BF30E9",
"0  c #2BDFB9",
"q  c #C5BC12",
"w  c #220700",
"e  c #34001A",
"r  c #610041",
"t  c #EDB900",
"y  c #974BF9",
"u  c #00D9F7",
"i  c #07FC9E",
"p  c #4E68EA",
"a  c #AD4800",
"s  c #26C5D5",
"d  c #2BD5C8",
"f  c #94FC38",
"g  c #7BF768",
"h  c #1571FF",
"j  c #B48907",
"k  c #AD7E00",
"l  c #77FC30",
"z  c #6B80EF",
"x  c #150700",
"c  c #BC9207",
"v  c #1A0B00",
"b  c #B6007C",
"n  c #B400FB",
"m  c #1C000F",
"M  c #469BEF",
"N  c #0FAAFF",
"B  c #0BFC89",
"V  c #4FE7A3",
"C  c #280015",
"Z  c #46002F",
"A  c #CC0FC2",
"S  c #37C6CD",
"D  c #00A9FD",
"F  c #3B0024",
"G  c #76F553",
"H  c #5B91EB",
"J  c #17FF86",
"K  c #DD00F2",
"L  c #DA00BC",
"P  c #15A5FE",
"I  c #6B0053",
"U  c #9BFE15",
"Y  c #44EC91",
"T  c #CBBD00",
"R  c #0BC2FB",
"E  c #C5A50B",
"W  c #17F595",
"Q  c #12AEF3",
"!  c #5E2800",
"~  c #A1F712",
"^  c #C08600",
"/  c #26B5F7",
"(  c #DC5C00",
")  c #985900",
"_  c #9E45E7",
"`  c #1CBCE1",
"'  c #A6E237",
"]  c #930066",
"[  c #9E26D8",
"{  c #120000",
"}  c #B6AF07",
"|  c #970068",
" . c #226FFF",
".. c #28FE65",
"X. c #7E3BFE",
"o. c #0FD3E9",
"O. c #00F5E2",
"+. c #150007",
"@. c #B0009D",
"#. c #45001E",
"$. c #48FA71",
"%. c #A97907",
"&. c #00D7F7",
"*. c #2F1200",
"=. c #91076C",
"-. c #940061",
";. c #F107C8",
":. c #321700",
">. c #B2D728",
",. c #4B2B00",
"<. c #8A1CF5",
"1. c #120000",
"2. c #60FE3A",
"3. c #BB0091",
"4. c #63FE2A",
"5. c #3EDABA",
"6. c #CBB21A",
"7. c #0F95FA",
"8. c #17EDD5",
"9. c #38001E",
"0. c #5563FC",
"q. c #AA2BD7",
"w. c #1AA6DA",
"e. c #8A1EF7",
"r. c #E100AF",
"t. c #A712C6",
"y. c #9B0082",
"u. c #C0D320",
"i. c #6A4EFA",
"p. c #8469EF",
"a. c #647DF1",
"s. c #F99500",
"d. c #EFD000",
"f. c #9A0782",
"g. c #07EFE7",
"h. c #6CFC56",
"j. c #B6CD22",
"k. c #00F5E3",
"l. c #C88000",
"z. c #F4CF07",
"x. c #C68100",
"c. c #CD00A6",
"v. c #960FFC",
"b. c #4935FE",
"n. c #1C0012",
"m. c #359AFA",
"M. c #BFFC0F",
"N. c #A5F04A",
"B. c #7838FA",
"V. c #AE20DC",
"C. c #90ED4F",
"Z. c #17EBBD",
"A. c #3FE4A7",
"S. c #BFA60B",
"D. c #9ADC17",
"F. c #3462FE",
"G. c #A83DDB",
"H. c #8FFF1E",
"J. c #22D9D0",
"K. c #34EEBC",
"L. c #804900",
"P. c #B70FA9",
"I. c #7B1AFF",
"U. c #B630EE",
"Y. c #E3D012",
"T. c #2BECBC",
"R. c #9F6700",
"E. c #683B00",
"W. c #AB26C3",
"Q. c #37ACE8",
"!. c #D500C2",
"~. c #2FFF4E",
"^. c #12EBC1",
"/. c #45ABEE",
"(. c #BCF122",
"). c #E6AD07",
"_. c #B307FE",
"`. c #2B1200",
"'. c #351A00",
"]. c #764E00",
"[. c #E1D700",
"{. c #2FDDBD",
"}. c #BFF622",
"|. c #1A0700",
" X c #B15C00",
".X c #860068",
"XX c #C81AC1",
"oX c #30C3D0",
"OX c #CAA600",
"+X c #00E5D7",
"@X c #94FA3A",
"#X c #8EF455",
"$X c #76F16A",
"%X c #B9BE12",
"&X c #A30782",
"*X c #93F250",
"=X c #0FA9F6",
"-X c #780056",
";X c #690049",
":X c #00C2F3",
">X c #C007B9",
",X c #12E9C0",
"<X c #DDEE07",
"1X c #CBCD28",
"2X c #F0D400",
"3X c #480028",
"4X c #3BFF6C",
"5X c #D2AF00",
"6X c #17C5CD",
"7X c #00EDB0",
"8X c #C4EC00",
"9X c #12A9FE",
"0X c #8756F4",
"qX c #8235FE",
"wX c #DA5900",
"eX c #4EE997",
"rX c #A03AE2",
"tX c #C67F00",
"yX c #AD0099",
"uX c #E79C00",
"iX c #07FEBC",
"pX c #56003B",
"aX c #A5007E",
"sX c #B21EC7",
"dX c #4A001E",
"fX c #C20086",
"gX c #C924DD",
"hX c #77F552",
"jX c #522A00",
"kX c #482200",
"lX c #341200",
"zX c #A92AD3",
"xX c #91EA55",
"cX c #A2F50F",
"vX c #530034",
"bX c #32D5BF",
"nX c #8D2B00",
"mX c #170000",
"MX c #750050",
"NX c #2FFF50",
"BX c #15000B",
"VX c #9C1AF4",
"CX c #329EF9",
"ZX c #CBFB0B",
"AX c #EDE900",
"SX c #58FE3A",
"DX c #EB00DB",
"FX c #EBEA00",
"GX c #0FF9C8",
"HX c #59EF91",
"JX c #CA00A2",
"KX c #340020",
"LX c #B617B8",
"PX c #F9C700",
"IX c #DD00F7",
"UX c #329BEB",
"YX c #BC12CE",
"TX c #0BEDBC",
"RX c #B015EE",
"EX c #AEE93A",
"WX c #67003F",
"QX c #A8006F",
"!X c #440028",
"~X c #07D8FA",
"^X c #41ACE4",
"/X c #C5A712",
"(X c #38BFD3",
")X c #0F91FB",
"_X c #00D0EA",
"`X c #D600D7",
"'X c #8E0FFC",
"]X c #98007F",
"[X c #915000",
"{X c #1A68EF",
"}X c #2B9CEF",
"|X c #BF00AF",
" o c #540030",
".o c #562600",
"Xo c #7E4600",
"oo c #4974FE",
"Oo c #3DE0B2",
"+o c #E1C50B",
"@o c #B4E517",
"#o c #A0FE00",
"$o c #CB07DE",
"%o c #7B0060",
"&o c #67FF26",
"*o c #E30FD9",
"=o c #79F376",
"-o c #8D005D",
";o c #A50B95",
":o c #7362F7",
">o c #966100",
",o c #0FEF7B",
"<o c #E2C20F",
"1o c #922D00",
"2o c #613FFF",
"3o c #623A00",
"4o c #4E7DF7",
"5o c #240B00",
"6o c #32A2FE",
"7o c #A41CB5",
"8o c #890044",
"9o c #A23F00",
"0o c #4E5AFC",
"qo c #55FF41",
"wo c #D6DF17",
"eo c #BC07E9",
"ro c #856300",
"to c #120700",
"yo c #320015",
"uo c #410022",
"io c #2FD5BA",
"po c #32CBD0",
"ao c #D2E117",
"so c #9744EF",
"do c #63003E",
"fo c #32C2D4",
"go c #B7F700",
"ho c #A40086",
"jo c #AD37D7",
"ko c #3DFA6C",
"lo c #0BD4FA",
"zo c #E20098",
"xo c #00F1E5",
"co c #CC4F00",
"vo c #C97300",
"bo c #E000E9",
"no c #20CFD7",
"mo c #9F5400",
"Mo c #A50081",
"No c #B6D422",
"Bo c #1E92FF",
"Vo c #20C2EF",
"Co c #26BCE1",
"Zo c #5A75F7",
"Ao c #EAC50B",
"So c #491700",
"Do c #4A76FC",
"Fo c #2A0012",
"Go c #325DFE",
"Ho c #BABD1C",
"Jo c #1A000B",
"Ko c #723D00",
"Lo c #BF00F7",
"Po c #349DFC",
"Io c #72F772",
"Uo c #0F0000",
"Yo c #7B004B",
"To c #5895EF",
"Ro c #97F14A",
"Eo c #5DED94",
"Wo c #7AEF6F",
"Qo c #86006D",
"!o c #62EF1E",
"~o c #971EFE",
"^o c #C5C517",
"/o c #75F376",
"(o c #1C0000",
")o c #5D0048",
"_o c #67FF28",
"`o c #C5BF12",
"'o c #AE7A00",
"]o c #66FC4E",
"[o c #EB8700",
"{o c #9D6F00",
"}o c #7B12FE",
"|o c #2D001A",
" O c #C2008A",
".O c #0F0000",
"XO c #6EFC52",
"oO c #CEFC0B",
"OO c #87FC12",
"+O c #D3A200",
"@O c #952AE5",
"#O c #87F55E",
"$O c #B8D430",
"%O c #00F9BF",
"&O c #12DEDF",
"*O c #5BFC5B",
"=O c #EF00C9",
"-O c #60F978",
";O c #0FF9CC",
":O c #1AFEA1",
">O c #A317AD",
",O c #9FFF15",
"<O c #41F89D",
"1O c #1AFAB5",
"2O c #B40079",
"3O c #3B5DFE",
"4O c #8E0072",
"5O c #8A5EF0",
"6O c #3AE9AA",
"7O c #B637EF",
"8O c #3BB4E0",
"9O c #AB28FA",
"0O c #72F079",
"qO c #B600FA",
"wO c #7B3D00",
"eO c #381700",
"rO c #37EBBC",
"tO c #C612FA",
"yO c #B107B2",
"uO c #C58000",
"iO c #902BF6",
"pO c #37D0C8",
"aO c #0BEBD6",
"sO c #AA6D00",
"dO c #55002F",
"fO c #5B003D",
"gO c #15FF83",
"hO c #1E000F",
"jO c #94F15C",
"kO c #240700",
"lO c #53FC58",
"zO c #653B00",
"xO c #D2F900",
"cO c #1ADCE2",
"vO c #41EDA0",
"bO c #1AD7D2",
"nO c #2BEF46",
"mO c #41E4A4",
"MO c #3E001E",
"NO c #F400DE",
"BO c #DAE415",
"VO c #DCA200",
"CO c #81EF63",
"ZO c #9BE342",
"AO c #E9BC00",
"SO c #D300A6",
"DO c #17DCDB",
"FO c #88EC5E",
"GO c #1C0B00",
"HO c #730049",
"JO c #0B0000",
"KO c #64F376",
"LO c #2D001C",
"PO c #B2006D",
"IO c #00FEB9",
"UO c #B8D000",
"YO c #B60F9F",
"TO c #56F286",
"RO c #FA9100",
"EO c #B26700",
"WO c #CB20D5",
"QO c #D70079",
"!O c #DE00F7",
"~O c #2B7DFC",
"^O c #30FE8A",
"/O c #B90BA3",
"(O c #DB007B",
")O c #2F88E5",
"_O c #B79400",
"`O c #6A76F7",
"'O c #780046",
"]O c #55F986",
"[O c #B79C07",
"{O c #2AF597",
"}O c #3BF96E",
"|O c #3BD3C2",
" + c #F800B2",
".+ c #D48507",
"X+ c #A05600",
"o+ c #730FEF",
"O+ c #1AD3E7",
"++ c #776CEF",
"@+ c #CB17C2",
"#+ c #41F5A8",
"$+ c #56002B",
"%+ c #88FC3E",
"&+ c #E2009C",
"*+ c #20B2E5",
"=+ c #C212FA",
"-+ c #6E3B00",
";+ c #A0FF12",
":+ c #E1DA00",
">+ c #BFC215",
",+ c #12000B",
"<+ c #170007",
"1+ c #4D99EB",
"2+ c #49E9A2",
"3+ c #B0E532",
"4+ c #381500",
"5+ c #A3E71C",
"6+ c #070000",
"7+ c #07E7EA",
"8+ c #24FE6E",
"9+ c #C1D92A",
"0+ c #D0F800",
"q+ c #980085",
"w+ c #880066",
"e+ c #2A0F00",
"r+ c #32001A",
"t+ c #1EC5F5",
"y+ c #22BDF0",
"u+ c #C10FAC",
"i+ c #8A2B00",
"p+ c #91007C",
"a+ c #3A001E",
"s+ c #724BFA",
"d+ c #E107B4",
"f+ c #7279F3",
"g+ c #AF07EE",
"h+ c #CE1AF0",
"j+ c #66FF1A",
"k+ c #070000",
"l+ c #B200FB",
"z+ c #7E0056",
"x+ c #3EB1DC",
"c+ c #B68C00",
"v+ c #DE00CA",
"b+ c #D100E1",
"n+ c #453AFF",
"m+ c #97EF07",
"M+ c #FAC500",
"N+ c #960079",
"B+ c #07E5E9",
"V+ c #B28E00",
"C+ c #D000E7",
"Z+ c #B01ABF",
"A+ c #48F79D",
"S+ c #AD9207",
"D+ c #800063",
"F+ c #24C2F6",
"G+ c #A7E938",
"H+ c #740046",
"J+ c #35C2E1",
"K+ c #34F97E",
"L+ c #441A00",
"P+ c #90F15D",
"I+ c #46EC7C",
"U+ c #410028",
"Y+ c #652A00",
"T+ c #793A00",
"R+ c #7E3E00",
"E+ c #ACDE37",
"W+ c #AF0097",
"Q+ c #984BEA",
"!+ c #2DE7C3",
"~+ c #AD15D7",
"^+ c #4A98F0",
"/+ c #22DAB9",
"(+ c #24FAB2",
")+ c #BAAC07",
"_+ c #522000",
"`+ c #AF0B95",
"'+ c #6EF75E",
"]+ c #3A1200",
"[+ c #8A5200",
"{+ c #DE00CB",
"}+ c #7180F4",
"|+ c #834F00",
" @ c #C8ED00",
".@ c #D0C000",
"X@ c #7E0FFC",
"o@ c #1E0012",
"O@ c #6B67F3",
"+@ c #8E50EA",
"@@ c #3065FE",
"#@ c #67EF7D",
"$@ c #522D00",
"%@ c #936100",
"&@ c #642DFE",
"*@ c #4BA3E9",
"=@ c #BB8907",
"-@ c #A245F6",
";@ c #7263F9",
":@ c #1C0700",
">@ c #260F00",
",@ c #E7B900",
"<@ c #5EF584",
"1@ c #266AFE",
"2@ c #4F74FD",
"3@ c #32001C",
"4@ c #8561EF",
"5@ c #642200",
"6@ c #45002B",
"7@ c #34E79F",
"8@ c #AC8200",
"9@ c #4538FF",
"0@ c #FAC300",
"q@ c #762600",
"w@ c #0F0700",
"e@ c #A03AEC",
"r@ c #E500D5",
"t@ c #C5D407",
"y@ c #60003E",
"u@ c #45FA77",
"i@ c #6AFD4B",
"p@ c #B7F226",
"a@ c #9FDE38",
"s@ c #7AFA2D",
"d@ c #CEA500",
"f@ c #C726DC",
"g@ c #38DEBC",
"h@ c #3F3BFF",
"j@ c #930045",
"k@ c #BEF728",
"l@ c #637AF5",
"z@ c #8C62EE",
"x@ c #A1E741",
"c@ c #BF07B2",
"v@ c #260017",
"b@ c #8FED32",
"n@ c #E100EB",
"m@ c #C500F5",
"M@ c #00F4CC",
"N@ c #17D8DC",
"B@ c #CA1CDB",
"V@ c #5CF77A",
"C@ c #AED022",
"Z@ c #32FE6C",
"A@ c #3D0028",
"S@ c #0BFC98",
"D@ c #F7A200",
"F@ c #0F0007",
"G@ c #20FE9E",
"H@ c #9EFD07",
"J@ c #1C98FF",
"K@ c #45A9E1",
"L@ c #49E2AB",
"P@ c #28D7D2",
"I@ c #532400",
"U@ c #58003B",
"Y@ c #BCDA26",
"T@ c #C5AF0B",
"R@ c #C8EB00",
"E@ c #905A00",
"W@ c #EFE900",
"Q@ c #A800EE",
"!@ c #AB0FB0",
"~@ c #2FB6E2",
"^@ c #9746F9",
"/@ c #48F59E",
"(@ c #986300",
")@ c #12E7CA",
"_@ c #B10B8D",
"`@ c #AA7400",
"'@ c #0F0007",
"]@ c #76003E",
"[@ c #DAE61C",
"{@ c #AA009D",
"}@ c #0FFE85",
"|@ c #B107FE",
" # c #5356FE",
".# c #381E00",
"X# c #0FC8FA",
"o# c #A47700",
"O# c #3D35EF",
"+# c #5AFE3A",
"@# c #5BFC79",
"## c #B70F9F",
"$# c #00FABB",
"%# c #7E5BFA",
"&# c #9E7A00",
"*# c #682B00",
"=# c #AF1EFA",
"-# c #F99200",
";# c #B00066",
":# c #7F64F1",
"># c #692400",
",# c #BE07B9",
"<# c #3A90FC",
"1# c #97FA37",
"2# c #B26100",
"3# c #1ABCE4",
"4# c #DEEB00",
"5# c #73004F",
"6# c #A824DF",
"7# c #5E88EF",
"8# c #9C5200",
"9# c #E507E9",
"0# c #4F1700",
"q# c #B007ED",
"w# c #0FFE86",
"e# c #F500DF",
"r# c #844400",
"t# c #00E5E4",
"y# c #E900DA",
"u# c #E800C8",
"i# c #A04AE5",
"p# c #B9FC0F",
"a# c #BA960F",
"s# c #763E00",
"d# c #150000",
"f# c #0B0007",
"g# c #C907DC",
"h# c #6A3700",
"j# c #BDDA0B",
"k# c #00FABC",
"l# c #542800",
"z# c #633400",
"x# c #26001A",
"c# c #5898EF",
"v# c #411E00",
"b# c #07D7F9",
"n# c #260B00",
"m# c #9F078E",
"M# c #5CEF8D",
"N# c #150000",
"B# c #DE00D0",
"V# c #7A0FFE",
"C# c #0B0007",
"Z# c #963DED",
"A# c #7460FB",
"S# c #61EB58",
"D# c #37FF49",
"F# c #E2DA00",
"G# c #EDE800",
"H# c #67FF1A",
"J# c #7C63F6",
"K# c #6237FE",
"L# c #86F13A",
"P# c #B012EC",
"I# c #660050",
"U# c #2FE2AD",
"Y# c #75F56A",
"T# c #C8D507",
"R# c #AD35E0",
"E# c #9A35E9",
"W# c #65EF8C",
"Q# c #443BFF",
"!# c #7B59F3",
"~# c #CA7507",
"^# c #764BEB",
"/# c #BDE337",
"(# c #930060",
")# c #B638ED",
"_# c #7FE634",
"`# c #2FCBD4",
"'# c #6D2D00",
"]# c #C3D50B",
"[# c #B815D0",
"{# c #4E92F2",
"}# c #F900B4",
"|# c #E9C812",
" $ c #A05B00",
".$ c #410F00",
"X$ c #37FF4A",
"o$ c #351500",
"O$ c #582400",
"+$ c #D700C7",
"@$ c #BC07C6",
"#$ c #98005D",
"$$ c #BF0BA2",
"%$ c #D400A9",
"&$ c #9841E7",
"*$ c #54F38E",
"=$ c #920066",
"-$ c #7717FF",
";$ c #B624DD",
":$ c #CD8C00",
">$ c #07E1EC",
",$ c #C60097",
"<$ c #BD0FC8",
"1$ c #E06D00",
"2$ c #E69F0B",
"3$ c #00C1F6",
"4$ c #3D1E00",
"5$ c #66003A",
"6$ c #1C000B",
"7$ c #42AFE3",
"8$ c #07A0EF",
"9$ c #890068",
"0$ c #17F3A6",
"q$ c #B9A80F",
"w$ c #8BFB12",
"e$ c #DC00F3",
"r$ c #46002B",
"t$ c #942AF5",
"y$ c #A6D628",
"u$ c #5B32FE",
"i$ c #9AEA4B",
"p$ c #50FE5C",
"a$ c #150B00",
"s$ c #B9F500",
"d$ c #3F0022",
"f$ c #3E0028",
"g$ c #A60B9D",
"h$ c #28D9C1",
"j$ c #E2ED07",
"k$ c #974BF6",
"l$ c #DEE700",
"z$ c #810065",
"x$ c #B39900",
"c$ c #95F132",
"v$ c #EA00D8",
"b$ c #C87900",
"n$ c #C8C21C",
"m$ c #ABE41A",
"M$ c #8446EF",
"N$ c #60F087",
"B$ c #6742FB",
"V$ c #B0F828",
"C$ c #B4A707",
"Z$ c #000000",
"A$ c #280012",
"S$ c #4F7CF3",
"D$ c #842400",
"F$ c #6D3800",
"G$ c #905400",
"H$ c #91ED2D",
"J$ c #AEE315",
"K$ c #E300E6",
"L$ c #F7A900",
"P$ c #000000",
"I$ c #A92AE3",
"U$ c #26F39D",
"Y$ c #CFBF00",
"T$ c #F0E900",
"R$ c #9E0085",
"E$ c #3DBBDB",
"W$ c #DC9E07",
"Q$ c #2B0B00",
"!$ c #CDC000",
"~$ c #560034",
"^$ c #AAE544",
"/$ c #9F6D00",
"($ c #37FE86",
")$ c #000000",
"_$ c #588DF5",
"`$ c #9624FE",
"'$ c #2A9CEC",
"]$ c #CCC700",
"[$ c #89FF22",
"{$ c #E47600",
"}$ c #000000",
"|$ c #1E0B00",
" % c #76F954",
".% c #B300A1",
"X% c #CFEA1A",
"o% c #1573FF",
"O% c #B6C517",
"+% c #20000F",
"@% c #42002B",
"#% c #1AF398",
"$% c #9954E9",
"%% c #A55B00",
"&% c #A0007B",
"*% c #55003A",
"=% c #3791EF",
"-% c #410B00",
";% c #000000",
":% c #C717CB",
">% c #00F5C8",
",% c #B02BCB",
"<% c #7477F0",
"1% c #24CDCE",
"2% c #99FE35",
"3% c #4B7EF4",
/* pixels */
"B#v$,$6 Jo)$)$)$)$)$F@dOb X y#SOWX7 )$)$)$)$)$)$$+2Ou#DX%$YohOZ$",
"C+K L -oe ;%;%;%;%;%+%HOc.n@e$v+(#r+k+;%;%;%;%+.H+JXK$e${+QX9.6+",
"Q@qO`X&%U+;%;%;%;%;%a+| +$Lon b+aXA@k+;%;%;%;%C ] !.m@l+b+3.r$f#",
"o+X@eoW+pX'@;%;%;%k+Z ho$o'X}oq#@.*%+.;%;%;%;%KXR$g#v.V#g+|Xy@,+",
"O#b.VXc@5#m ;%;%;%+.r .%RXu$n+<.,#MX> ;%;%;%C# o{@P#&@9@e.@$z+n.",
"{X1@B.<$z$v@;%;%;%+%-X>XiOF. .o YX.XLO;%;%;%'@% yOt$3O .B$~+4Ox#",
"8$P 0.V.p+F ;%;%;%|oQo[#i.J@9X@ 6#f.@%JO;%;%+%D+t.s+BoN oo@Om#f$",
", lo<#e@;ovX;%;%;%!Xq+I$DoX#b#PoZ###fOBX;%k+MO]X[ 2@R ~X6oM$P.2 ",
"+Xg./ 0X>O)o'@;%k+U@g$soCX7+xoF+!#LX* o@;%k+~$yX&$m.>$xot+O@Z+I ",
"7X%OO+`OW.%oA$;%<+I#7oJ#Vo>%k#cOl@  w+3@;%+.;X!@4@y+M@$#&O_$zX=.",
",oB )@{#joN+d$k+yo9$,%< DOS@w#^.^+R#&X6@JOFo=$sX}+N@i }@TX/.rX_@",
"nO1 0$Q.i#`+5$6$3Xy.G.M Z...NX#%8 Q+YOdo6$uoMoq.c#,X8+~.W J++@u+",
"!o4.K+s z@O #$dX'O/O$%~@{O+#_o}O`#:#XX-.#.]@$$_ 7$U$qo&okod ++:%",
"m+U *Oh$<%WOfXj@PO@+p.1%$.H.,O]o{.a.f@ O8o;#A 5OoXu@[$;+i@U#7#;$",
"8XZX%+6OH 9 r.(O&+gXz 0 XOM.oOf & 1+)#d+QOzoB@f+ioh.p#4 2%Y *@E#",
":+FXV$*$K@-@r@}#=O7O$ vO1#j$AXk@TO8Ok$*o +;.U.TomO@X<XG#}.KOE$^#",
"t PXX%Io(X%#- e#boy x+<@(.z.M+[@Y#po:oh+NO9#^@^XM#p@= 0@BO#OpOp ",
"[os.Y.#X|OZo=#IX=+;@S g woD@-#|#*Xg@S$9O!OtOA#fo=oaoL$ROAoN.Oo)O",
"co( ).G+L@=%qX|@`$3%5.Ro<o1$wX2$EX2+UXX._.~o4obXjO+o{$wXuX/#eXw.",
"D$1o.+Y@Eo*+ #-$2o'$V 3+W$9oi+~#9+N$Co0oI.K#}XA.^$VOa nXvo1X#@6X",
"-%0#2#^o0Ono~Oh@@@` W#u.b$>#Somon$$XP@; Q#Go3#HX$OtXq@+ 8#6.CO/+",
"{ n#r#T@FO!+=Xo%7.J.Woq X+4+kO-+/XC.rOQ h )XbO/oHo $.$w F$a#i$7@",
"}$x Y+c ZO#+_X. :XK.xXE T+:@N#l#=@' /@o.D 3$T.P+q$R+:@1.I@%.E+I+",
"}$JO4$o#y$]OaOu t#A+a@j .o1.JO.#{oNoV@8.&.B+<Ox@S+! JOk+:.roj.S#",
"}$k+`.) O%'+1OO.GX-OC@/$'.JO;%`.G$`oG (+k.;O@#>.&#5 k+;%5o].# _#",
"}$;%GOs#} L#^OIOG@hX%X[X>@k+;%|$KoS.b@($iX:O %>+>oQ$;%;%mX3o[OD.",
"}$;%.OjXx$5+p$gO4XH$C$h#|.;%;%to$@c+m$lOJ Z@c$)+3 (o;%;%JO,.8@UO",
"}$;%JO5 k j#l D#2.J$V+kXw@;%;%w@v#sO]#s@X$SX@o_Oz#k+;%;%;%4$R.T ",
"}$;%k+e+(@]$~ H#w$t@`@]+JO;%;%k+*.[+!$cXj+OOT#'o_+;%;%;%;%`.|+OX",
"}$;%;%a$L.5X @#os$Y$E@5ok+;%;%;%GOE.d@R@H@go.@%@lX;%;%;%;%v zO^ ",
"}$;%;%w@'#:$F#xOl$+OwOto;%;%;%;%x O$uO[.0+4#+OXoGO;%;%;%;%x .o X",
"P$)$)$6+L+EOAOT$d.l.5@Uo)$)$)$)$6+o$%%,@W@2Xx.*#d#)$)$)$)$6+eO: "
};
