/* XPM */
static const char *WQ_xpm[] = {
"32 16 38 1",
" 	c None",
".	c #E5E5E5",
"+	c #A2908E",
"@	c #270E11",
"#	c #B49B9E",
"$	c #BDB2AE",
"%	c #2B0D0F",
"&	c #4C282C",
"*	c #29060C",
"=	c #977C81",
"-	c #2A1713",
";	c #50272B",
">	c #4E1D23",
",	c #693C43",
"'	c #160000",
")	c #140000",
"!	c #5C272D",
"~	c #652732",
"{	c #4F1722",
"]	c #360E16",
"^	c #210000",
"/	c #5A1D25",
"(	c #6F2733",
"_	c #591B26",
":	c #260004",
"<	c #220000",
"[	c #6C2631",
"}	c #651727",
"|	c #732F3E",
"1	c #2A0005",
"2	c #7B5D5D",
"3	c #521A23",
"4	c #591B28",
"5	c #57212E",
"6	c #47222A",
"7	c #453236",
"8	c #110001",
"9	c #241115",
"................................",
"................................",
"................................",
"................................",
"..............+@#...............",
".............$%&*=..............",
".............-;>,'..............",
".............)!~{]..............",
".............^/(_:..............",
".............<[}|1..............",
".............23456..............",
"..............789...............",
"................................",
"................................",
"................................",
"................................"};
