/* XPM */
static const char *xlights_64_xpm[] = {
/* columns rows colors chars-per-pixel */
"64 64 256 2",
"   c #050607",
".  c #050608",
"X  c #07080A",
"o  c #0B0B0B",
"O  c #0B0709",
"+  c #150A0A",
"@  c #16120E",
"#  c #0E0E11",
"$  c #131313",
"%  c #1A1C1B",
"&  c #181817",
"*  c #0D111B",
"=  c #290C0D",
"-  c #291E0F",
";  c #3B0E0F",
":  c #1E201F",
">  c #26241C",
",  c #352916",
"<  c #121F33",
"1  c #1D1E20",
"2  c #1F2120",
"3  c #102435",
"4  c #232524",
"5  c #272928",
"6  c #2B2C2B",
"7  c #282825",
"8  c #372B27",
"9  c #2E302F",
"0  c #353123",
"q  c #2F3130",
"w  c #343534",
"e  c #373838",
"r  c #3B3C3B",
"t  c #393533",
"y  c #4D1214",
"u  c #59181A",
"i  c #7E1416",
"p  c #7A1619",
"a  c #6A1518",
"s  c #493618",
"d  c #573C1B",
"f  c #6F251B",
"g  c #482B2A",
"h  c #473926",
"j  c #593526",
"k  c #712829",
"l  c #3F403F",
"z  c #58421C",
"x  c #654A1D",
"c  c #594827",
"v  c #494436",
"b  c #574A3B",
"n  c #5B523B",
"m  c #6B5326",
"M  c #7A5B23",
"N  c #665639",
"B  c #6F533B",
"V  c #79643A",
"C  c #7B6228",
"Z  c #172E54",
"A  c #343A45",
"S  c #173760",
"D  c #244969",
"F  c #444443",
"G  c #4C4C4B",
"H  c #484846",
"J  c #544D4C",
"K  c #544945",
"L  c #53514D",
"P  c #4C5256",
"I  c #535352",
"U  c #5B5B5A",
"Y  c #5A5552",
"T  c #60574A",
"R  c #7E5F4C",
"E  c #6C6156",
"W  c #776959",
"Q  c #77644C",
"!  c #5F646C",
"~  c #5A6A77",
"^  c #656665",
"/  c #717374",
"(  c #831517",
")  c #861518",
"_  c #891619",
"`  c #821A1B",
"'  c #8C1A1B",
"]  c #891517",
"[  c #92171A",
"{  c #94191C",
"}  c #9A1A1E",
"|  c #A31B1E",
" . c #8E2F1E",
".. c #942A1E",
"X. c #95221D",
"o. c #97331F",
"O. c #8B1E21",
"+. c #9C1F21",
"@. c #A61C20",
"#. c #AC1D21",
"$. c #B31E22",
"%. c #BB1F25",
"&. c #892425",
"*. c #8D2528",
"=. c #992624",
"-. c #9B3522",
";. c #9A3723",
":. c #AB2225",
">. c #A22326",
",. c #BB2125",
"<. c #B52427",
"1. c #A13424",
"2. c #A93726",
"3. c #BE392C",
"4. c #BA3728",
"5. c #C31E25",
"6. c #C22127",
"7. c #C32B2B",
"8. c #C3242A",
"9. c #C3372B",
"0. c #C32F30",
"q. c #C43131",
"w. c #C83B35",
"e. c #9F4B22",
"r. c #A64828",
"t. c #BB442B",
"y. c #A65728",
"u. c #AE5131",
"i. c #886529",
"p. c #966226",
"a. c #9B6728",
"s. c #8B6C35",
"d. c #8C7439",
"f. c #99773E",
"g. c #956A33",
"h. c #A56F2A",
"j. c #AA752C",
"k. c #A9742E",
"l. c #B27C2E",
"z. c #B5722F",
"x. c #B36834",
"c. c #A77A35",
"v. c #B67933",
"b. c #C4462E",
"n. c #CB443D",
"m. c #CC573E",
"M. c #CA6638",
"N. c #C67739",
"B. c #D0753F",
"V. c #8F4D48",
"C. c #947D42",
"Z. c #967A56",
"A. c #826C51",
"S. c #AA6A50",
"D. c #877767",
"F. c #917B6C",
"G. c #AF7B75",
"H. c #CD4845",
"J. c #D57C58",
"K. c #CE724D",
"L. c #DA7D77",
"P. c #D0746E",
"I. c #B3822D",
"U. c #BA8433",
"Y. c #BE8B35",
"T. c #B78839",
"R. c #C38D38",
"E. c #C39237",
"W. c #CA973B",
"Q. c #D39C3A",
"!. c #D9A83E",
"~. c #A78558",
"^. c #B7945C",
"/. c #B68F4A",
"(. c #8F8375",
"). c #A18D79",
"_. c #B2926F",
"`. c #C8894A",
"'. c #CE9D40",
"]. c #C9934A",
"[. c #D2994A",
"{. c #CC9E5B",
"}. c #C89955",
"|. c #D99B55",
" X c #D98C52",
".X c #CEA142",
"XX c #D6A846",
"oX c #DDB454",
"OX c #DBAD53",
"+X c #E4B441",
"@X c #E3B84C",
"#X c #E5BD58",
"$X c #C89E65",
"%X c #DB9A7A",
"&X c #D88871",
"*X c #CDA367",
"=X c #D2A464",
"-X c #D3A66A",
";X c #D6A96B",
":X c #CAA474",
">X c #D7AC75",
",X c #DCB27B",
"<X c #DBB877",
"1X c #E7BE6B",
"2X c #EAC059",
"3X c #E8C56A",
"4X c #F3D577",
"5X c #1D5F96",
"6X c #22598D",
"7X c #1C629A",
"8X c #1868A6",
"9X c #567690",
"0X c #8E8D8B",
"qX c #AC9B8A",
"wX c #BCA389",
"eX c #B7B0A7",
"rX c #C89886",
"tX c #DA8F88",
"yX c #E2948B",
"uX c #E08E88",
"iX c #C9AC8E",
"pX c #DCB485",
"aX c #C4AB92",
"sX c #C9B49D",
"dX c #CDB197",
"fX c #DAB99A",
"gX c #DAA594",
"hX c #E2AB85",
"jX c #E1B784",
"kX c #E4B986",
"lX c #E4BB8C",
"zX c #E5B58A",
"xX c #E7A695",
"cX c #E9B899",
"vX c #CEBDAC",
"bX c #D9BDA2",
"nX c #EEBBA4",
"mX c #EEC59B",
"MX c #EBC394",
"NX c #EDCC8D",
"BX c #DAC3AD",
"VX c #D6C6B8",
"CX c #ECCCAC",
"ZX c #E9C6A4",
"AX c #F2CCA3",
"SX c #F3CEA9",
"DX c #F0C1A8",
"FX c #F5D1AD",
"GX c #F5DFA0",
"HX c #F6D4B3",
"JX c #F4D9BC",
"KX c #EECFB1",
"LX c #D5CBC0",
"PX c #F3DDC5",
"IX c #EBDAC7",
"UX c None",
/* pixels */
"UXUXUXUXUXUXUXUXUXUXUXUXUXUXUXUXUXUXUXUXUXUXUXUXUXUXUXUXUXUXUXUXNXUXUXUXUXUXUXUXUXUXUXUXUXUXUXUXUXUXUXUXUXUXUXUXUXUXUXUXUXUXUXUX",
"UXUXUXUXUXUXUXUXUXUXUXUXUXUXUXUXUXUXUXUXUXUXUXUXUXUXUXUXUXUXR..X3X4XUXUXUXUXUXUXUXUXUXUXUXUXUXUXUXUXUXUXUXUXUXUXUXUXUXUXUXUXUXUX",
"UXUXUXUXUXUXUXUXUXUXUXUXUXUXUXUXUXUXUXUXUXUXUXUXUXUXUXUXUXUXl.Y..X+X@XUXUXUXUXUXUXUXUXUXUXUXUXUXUXUXUXUXUXUXUXUXUXUXUXUXUXUXUXUX",
"UXUXUXUXUXUXUXUXUXUXUXUXUXUXUXUXUXUXUXUXUXUXUXUXUXUXUXUXs s s s s c m V UXUXUXUXUXUXUXUXUXUXUXUXUXUXUXUXUXUXUXUXUXUXUXUXUXUXUXUX",
"UXUXUXUXUXUXUXUXUXUXUXUXUXUXUXUXUXUXUXUXUXUXUXUXUX# X o . . X X o * 2 6 w l H I UXUXUXUXUXUXUXUXUXUXUXUXUXUXUXUXUXUXUXUXUXUXUXUX",
"UXUXUXUXUXUXUXUXUXUXUXUXUXUXUXUXUXUXUXUXUXUXUX# X     . . . . X # : 2 6 9 l I P G UXUXUXUXUXUXUXUXUXUXUXUXUXUXUXUXUXUXUXUXUXUXUX",
"UXUXUXUXUXUXUXUXUXUXUXUXUXUXUXUXUXUXUXUXUXUXUX. .   . . . . .   # : 2 9 9 w H E G I UXUXUXUXUXUXUXUXUXUXUXUXUXUXUXUXUXUXUXUXUXUX",
"UXUXUXUXUXUXUXUXUXUXUXUXUXUXUXUXUXUXUXUXUXUXo . . . . . . . . . o $ 2 5 9 q l U U G UXUXUXUXUXUXUXUXUXUXUXUXUXUXUXUXUXUXUXUXUXUX",
"UXUXUXUXUXUXUXUXUXUXUXUXUXUXUXUXUXUXUXUXUXUX# . . . . . . . . . o : : 2 9 w e G ^ G I UXUXUXUXUXUXUXUXUXUXUXUXUXUXUXUXUXUXUXUXUX",
"UXUXUXUXUXUXUXUXUXUXUXUXUXUXUXUXUXUXUXUXUX# $ X . . . . . . . . o & : 5 9 q e F ^ G I UXUXUXUXUXUXUXUXUXUXUXUXUXUXUXUXUXUXUXUXUX",
"UXUXUXUXUXUXUXUXUXUXUXUXUXUXUXUXUXUXUXUXUX  % o   . . . . . . .   : : 5 6 q e l U G G UXUXUXUXUXUXUXUXUXUXUXUXUXUXUXUXUXUXUXUXUX",
"UXUXUXUXUXUXUXUXUXUXUXUXUXUXUXUXUXUXUXUXUX  % X . . . . . . . . X $ : 2 9 q e l U L I UXUXUXUXUXUXUXUXUXUXUXUXUXUXUXUXUXUXUXUXUX",
"UXUXUXUXUXUXUXUXUXUXUXUXUXUXUXUXUXUXUXUXUX  2 o . .   .     @ s c 0 : 7 6 9 e l I I G UXUXUXUXUXUXUXUXUXUXUXUXUXUXUXUXUXUXUXUXUX",
"UXUXUXUXUXUXUXUXUXUXUXUXUXUXUXUXUXUXUXUXUX. 2 o . . .     + i.W.{.*Xv 7 6 9 e r L G I UXUXUXUXUXUXUXUXUXUXUXUXUXUXUXUXUXUXUXUXUX",
"UXUXUXUXUXUXUXUXUXUXUXUXUXUXUXUXUXUXUXUXUX  1 o .   . . O z N.9.9.J.^.6 6 9 e l G G I UXUXUXUXUXUXUXUXUXUXUXUXUXUXUXUXUXUXUXUXUX",
"UXUXUXUXUXUXUXUXUXUXUXUXUXUXUXUXUXUXUXUXUXX % o .   . . O i.y.,.,.9.OXv 6 9 w r H H G UXUXUXUXUXUXUXUXUXUXUXUXUXUXUXUXUXUXUXUXUX",
"UXUXUXUXUXUXUXUXUXUXUXUXUXUXUXUXUXUXUXUXUX& % #     . . # p.1.#.,.7.|.n 5 9 q l H H I UXUXUXUXUXUXUXUXUXUXUXUXUXUXUXUXUXUXUXUXUX",
"UXUXUXUXUXUXUXUXUXUXUXUXUXUXUXUXUXUXUXUXUXUX& $ . . . . o i.o.} <.7.[.v 5 9 q l H H G UXUXUXUXUXUXUXUXUXUXUXUXUXUXUXUXUXUXUXUXUX",
"UXUXUXUXUXUXUXUXUXUXUXUXUXUXUXUXUXUXUXUXUXUX& *   . . .   x y.[ | t./.7 5 9 q e F H I UXUXUXUXUXUXUXUXUXUXUXUXUXUXUXUXUXUXUXUXUX",
"UXUXUXUXUXUXUXUXUXUXUXUXUXUXUXUXUXUXUXUXUXUX$ %     . .   - a.e.2.z.m 2 5 6 w e r F L UXUXUXUXUXUXUXUXUXUXUXUXUXUXUXUXUXUXUXUXUX",
"UXUXUXUXUXUXUXUXUXUXUXUXUXUXUXUXUXUXUXUXUXUX$ %       .     , M i.z & : 5 q q e r H U UXUXUXUXUXUXUXUXUXUXUXUXUXUXUXUXUXUXUXUXUX",
"UXUXUXUXUXUXUXUXUXUXUXUXUXUXUXUXUXUXUXUXUXUX# %       .       o O O @ : 2 6 q e r F UXUXUXUXUXUXUXUXUXUXUXUXUXUXUXUXUXUXUXUXUXUX",
"UXUXUXUXUXUXUXUXUXUXUXUXUXUXUXUXUXUXUXUXUXUX$ 1 O                 X @ : 2 6 q e l H UXUXUXUXUXUXUXUXUXUXUXUXUXUXUXUXUXUXUXUXUXUX",
"UXUXUXUXUXUXUXUXUXUXUXUXUXUXUXUXUXUXUXUXUXUXc d d d d z x x x m m m C C s.d.d.d.f.C.UXUXUXUXUXUXUXUXUXUXUXUXUXUXUXUXUXUXUXUXUXUX",
"UXUXUXUXUXUXUXUXUXUXUXUXUXUXUXUXUXUXUXUXa.a.p.p.p.a.h.h.l.U.Y.E.Q.!.!.+X+X+X+X+X+X+X+X2XUXUXUXUXUXUXUXUXUXUXUXUXUXUXUXUXUXUXUXUX",
"UXUXUXUXUXUXUXUXUXUXUXUXUXUXUXUXUXUXUXUXh.a.p.p.a.h.h.k.l.U.Y.E.W.!.XX+X+X+X+X+X+X+X+X#XUXUXUXUXUXUXUXUXUXUXUXUXUXUXUXUXUXUXUXUX",
"UXUXUXUXUXUXUXUXUXUXUXUXUXUXUXUXUXUXUXUXUXc.a.h.j.l.v.v.U.U.Y.R.E.W.Q..X.X.XQ..XW.Y.].UXUXUXUXUXUXUXUXUXUXUXUXUXUXUXUXUXUXUXUXUX",
"UXUXUXUXUXUXUXUXUXUXUXUXUXUXUXUXUXUXUXUXUXUX, c.].].}.}.{.{.=X;X;X;X<X<XjXpXpXlXpXE Y UXUXUXUXUXUXUXUXUXUXUXUXUXUXUXUXUXUXUXUXUX",
"UXUXUXUXUXUXUXUXUXUXUXUXUXUXUXUXUXUXUXUXUXX , }.-X;X:X:XpXkXlXMXMXAXFXCXCXKXHXHXPX0XH UXUXUXUXUXUXUXUXUXUXUXUXUXUXUXUXUXUXUXUXUX",
"UXUXUXUXUXUXUXUXUXUXUXUXUXUXUXUXUXUXUXUXo . c {.^.A.N h n :XlXMXmXAXfXD.E W ).fXPXeXH L UXUXUXUXUXUXUXUXUXUXUXUXUXUXUXUXUXUXUXUX",
"UXUXUXUXUXUXUXUXUXUXUXUXUXUXUXUXUXUXUXUXX . s.$X~.Z.Z.Z.N _.lXmXmXAXiXW qXqXwXsXKXLXU G UXUXUXUXUXUXUXUXUXUXUXUXUXUXUXUXUXUXUXUX",
"UXUXUXUXUXUXUXUXUXUXUXUXUXUXUXUXUXUXUX$ . - /.$X^.b 8 W _.zXlXcXDXAXSXfXF.v / vXHXIX^ G I UXUXUXUXUXUXUXUXUXUXUXUXUXUXUXUXUXUXUX",
"UXUXUXUXUXUXUXUXUXUXUXUXUXUXUXUXUXUXUX#   , ^.=XsXG 5 D.sXkXzXcXcXmXSXZX0Xr ^ LXHXPX(.F P UXUXUXUXUXUXUXUXUXUXUXUXUXUXUXUXUXUXUX",
"UXUXUXUXUXUXUXUXUXUXUXUXUXUXUXUXUXUXUX.   z }.=X,XW 6 ).lXkXhXxXxXcXSXHXvXU F.JXHXJXqXF F UXUXUXUXUXUXUXUXUXUXUXUXUXUXUXUXUXUXUX",
"UXUXUXUXUXUXUXUXUXUXUXUXUXUXUXUXUXUXUX. O m {.=X;X-X*X,XjXkXhXyXxXnXAXFXFXBXKXJXJXJXeXv F G UXUXUXUXUXUXUXUXUXUXUXUXUXUXUXUXUXUX",
"UXUXUXUXUXUXUXUXUXUXUXUXUXUXUXUXUXUXo . . i.{.P.&X>X>X,X,XkX%XyXyXcXAXFXHXHXHXnXnXHXvXF r H UXUXUXUXUXUXUXUXUXUXUXUXUXUXUXUXUXUX",
"UXUXUXUXUXUXUXUXUXUXUXUXUXUXUXUXUXUXX . o g.J.P.L.%X>X,X,XkXyXuXyXxXAXFXHXHXDXxXxXnXVXH e l UXUXUXUXUXUXUXUXUXUXUXUXUXUXUXUXUXUX",
"UXUXUXUXUXUXUXUXUXUXUXUXUXUXUXUXUXUXo . X g.K.V.P.%X>X,X:XZ.R _.rXZ.).fXFXHXnXtXG.gXBXH w r UXUXUXUXUXUXUXUXUXUXUXUXUXUXUXUXUXUX",
"UXUXUXUXUXUXUXUXUXUXUXUXUXUXUXUXUXUX. . + g.S.V.P.%X-X~.h # . b Q % 4 K wXHXDXuXG.tXvXv q w UXUXUXUXUXUXUXUXUXUXUXUXUXUXUXUXUXUX",
"UXUXUXUXUXUXUXUXUXUXUXUXUXUXUXUXUXUX. . . i.`.B S.^.B % . . o Q F.> 2 7 r D.dXrXF.bXsXe 6 q UXUXUXUXUXUXUXUXUXUXUXUXUXUXUXUXUXUX",
"UXUXUXUXUXUXUXUXUXUXUXUXUXUXUXUXUX#     X z ]./.B , & o @ 8 A.pXpX(.b t t r Y (.fXHX).5 7 9 e UXUXUXUXUXUXUXUXUXUXUXUXUXUXUXUXUX",
"UXUXUXUXUXUXUXUXUXUXUXUXUXUXUXUXUX$ X     - I.{.$X^.~.~.^.:XpXkXMXMXpXiXwXaXfXFXHXZXL % 4 9 9 UXUXUXUXUXUXUXUXUXUXUXUXUXUXUXUXUX",
"UXUXUXUXUXUXUXUXUXUXUXUXUXUXUXUXUXC.V 0 o X s f./.{.{.$X$X:X:X>X,X<XpXfXMXmXZXCXBXW & & 7 c d.UXUXUXUXUXUXUXUXUXUXUXUXUXUXUXUXUX",
"UXUXUXUXUXUXUXUXUXUXUXUXUXUXUXE..XoX3X<XN * 3 A G G G I h h h h v n L ^ 9X9X9X9X9XD 3 > i.I.W.2X4XGXUXUXUXUXUXUXUXUXUXUXUXUXUXUX",
"UXUXUXUXUXUXUXUXUXUXUXUXUXUXj.I.E.Q.XX@X/.A Z Z Z Z S S < X X o % 7 q D 6X6X7X7X8X8X5XB j.I.Y.Q.@X#X#XUXUXUXUXUXUXUXUXUXUXUXUXUX",
"UXUXUXUXUXUXUXUXUXUXUXUXUXl.l.l.U.R.W.Q.W.V K b K J J Y t # # & > 6 w U ! ! ! ~ ~ ~ ~ f.k.l.U.R.W.Q.!.UXUXUXUXUXUXUXUXUXUXUXUXUX",
"UXUXUXUXUXUXUXUXUXUXUXUXUXUXo.1.2.4.9.9.2. .....o.-.-.1.f O . o % 5 t 2.q.3.3.3.2.3.2.&.o.;.2.4.9.4.9.UXUXUXUXUXUXUXUXUXUXUXUXUX",
"UXUXUXUXUXUXUXUXUXUXUXUXUXUX] } | $.6.6.| i ( ( X.y.u.{ p O X o % 7 8 :.6.b.K.q.,.8.@.i ( [ | $.7.H.6.UXUXUXUXUXUXUXUXUXUXUXUXUX",
"UXUXUXUXUXUXUXUXUXUXUXUXUXUX_ { @.$.5.6.:.i ( ( ;.XX|.=.p + . o % 7 g :.6.B.3Xm.6.6.} p ( [ | #.q.H.7.UXUXUXUXUXUXUXUXUXUXUXUXUX",
"UXUXUXUXUXUXUXUXUXUXUXUXUXUX[ [ @.$.6.6.:.i ( ) ..z.u.} _ + . o % 7 g <.6.b.N.9.5.6.| X.' [ | $.q.H.8.UXUXUXUXUXUXUXUXUXUXUXUXUX",
"UXUXUXUXUXUXUXUXUXUXUXUXUXUX' [ #.$.6.6.,.` ( ( ' { { } { = . o % 4 j <.5.6.8.6.6.8.} ` ( [ | $.q.H.6.UXUXUXUXUXUXUXUXUXUXUXUXUX",
"UXUXUXUXUXUXUXUXUXUXUXUXUXUX' } | $.6.6.%.` i ( ' ;.-.{ { =   o % 5 k 6.5.9.n.6.6.6.} &._ [ | $.q.H.6.UXUXUXUXUXUXUXUXUXUXUXUXUX",
"UXUXUXUXUXUXUXUXUXUXUXUXUXUX[ { #.$.6.6.6.p i ) o..X X=.} ; . o % 5 k ,.6.B.1Xm.5.6.} UX_ [ @.$.q.H.6.UXUXUXUXUXUXUXUXUXUXUXUXUX",
"UXUXUXUXUXUXUXUXUXUXUXUXUXUX{ { | $.6.6.6.*.i ( o.].v.} { y . o % 4 k ,.6.M.W.b.5.8.} UX) [ | $.q.H.6.UXUXUXUXUXUXUXUXUXUXUXUXUX",
"UXUXUXUXUXUXUXUXUXUXUXUXUXUX{ { @.<.6.6.6.UXi ) ] ....{ } u   X & 7 *.5.5.8.9.6.6.6.@.UX_ [ | $.0.n.5.UXUXUXUXUXUXUXUXUXUXUXUXUX",
"UXUXUXUXUXUXUXUXUXUXUXUXUXUXO.{ | $.6.6.5.UXi ( ] { X.{ { a   o % 7 =.%.6.7.8.5.8.,.+.UX' [ | $.0.H.6.UXUXUXUXUXUXUXUXUXUXUXUXUX",
"UXUXUXUXUXUXUXUXUXUXUXUXUXUX+.{ @.$.6.6.5.UX` ( ' x.].1.+.p . o & 8 =.%.7. X X7.5.%.@.UX&.[ | $.7.H.6.UXUXUXUXUXUXUXUXUXUXUXUXUX",
"UXUXUXUXUXUXUXUXUXUXUXUXUXUX+.} #.$.6.6.5.UXp ( X.N.OX2.[ p + X & 8 @.%.3.[.[.7.6.,.>.UXO.[ | $.7.n.6.UXUXUXUXUXUXUXUXUXUXUXUXUX",
"UXUXUXUXUXUXUXUXUXUXUXUXUXUX=.[ @.$.5.6.5.UXO.i i ;.r.O.[ ' = o & g #.<.,.b.b.5.6.$.UXUX&.[ | $.0.w.6.UXUXUXUXUXUXUXUXUXUXUXUXUX",
"UXUXUXUXUXUXUXUXUXUXUXUXUXUX>.[ #.$.,.6.5.UXUX( ( _ [ [ [ +.a y u O.$.%.6.5.5.8.6.,.UXUX*.[ | $.0.n.6.UXUXUXUXUXUXUXUXUXUXUXUXUX",
"UXUXUXUXUXUXUXUXUXUXUXUXUXUX>.+.| %.5.6.6.UXUX` ) ..x.r.{ } @.@.| $.$.<.w.K.w.6.8.,.UXUX*.[ | <.8.w.8.UXUXUXUXUXUXUXUXUXUXUXUXUX",
"UXUXUXUXUXUXUXUXUXUXUXUXUXUX>.[ #.$.5.6.6.UXUXp ( r.oX`.} } +.| $.| $.,.N.#XM.6.8.<.UXUX*.[ | #.7.w.8.UXUXUXUXUXUXUXUXUXUXUXUXUX",
"UXUXUXUXUXUXUXUXUXUXUXUXUXUX@.+.#.$.6.6.5.UXUX*.( =.z.u.{ } | | | $.$.$.b.N.9.8.6.UXUXUX' { @.$.7.w.5.UXUXUXUXUXUXUXUXUXUXUXUXUX",
"UXUXUXUXUXUXUXUXUXUXUXUXUXUX| [ | $.6.6.UXUXUXUX( ) ' [ [ } | | | $.$.$.,.6.6.6.8.UXUXUXUX[ @.$.,.w.6.UXUXUXUXUXUXUXUXUXUXUXUXUX"
};
