/* XPM */
static char *xlights_xpm[] = {
/* columns rows colors chars-per-pixel */
"32 32 27 1",
"; c Black",
"1 c #F7F98A",
"% c #EFF650",
"X c #009830",
"+ c #E4EF0B",
", c #F1F97E",
"  c None",
"# c #EEF761",
"& c #EFF545",
"6 c #C8D000",
"= c #AAAF00",
"> c #ECF61D",
"O c #000100",
"2 c #E1F200",
"7 c #C2CA01",
"4 c #CFD607",
"* c #EFF43B",
"@ c #F3F76F",
". c #006700",
": c #F5FA94",
"$ c #EFF759",
"o c #003800",
"8 c #B9C30A",
"< c #ECF500",
"3 c #DADF01",
"- c #EEF52E",
"5 c #DBE600",
/* pixels */
"            ........            ",
"................................",
"............Xo.Xo.Xo............",
"           .Xo.Xo.Xo.           ",
"           .Xo.Xo.Xo.           ",
"           .Xo.Xo.Xo.           ",
"           .Xo.Xo.Xo.           ",
"           .Xo.Xo.Xo.           ",
"          ..Xo.Xo.Xo..          ",
"         ..............         ",
"         ..............         ",
"          O+@#$%%&&*=O          ",
"          O+#$%&&**-=O          ",
"         O+#;::&&;-->=O         ",
"         O+$;::**;>>>=O         ",
"        O+$%;::,-;>><<=O        ",
"        O+%&;11,-;><<2=O        ",
"        O+%&;,,,>;<<2+=O        ",
"        O+&*;,,@>;<2+3=O        ",
"        O+*-;>,<<;<+33=O        ",
"        O+*-;;;;;;;;34=O        ",
"         O+>>><<<;534=O         ",
"         O+>><<++;346=O         ",
"          O+<<+55;46=O          ",
"          O+<+533;67=O          ",
"           O+534467=O           ",
"            O+4667=O            ",
"            O+6778=O            ",
"             O+88=O             ",
"             O+88=O             ",
"              O==O              ",
"               OO               "
};
