/* XPM */
static const char *xs_otlautoon[] = {
/* width height num_colors chars_per_pixel */
"32 32 3 1",
" 	c None",
".	c #6AC259",
"#  c #F05228",
"                                ",
"     ..                  ..     ",
"      ..     ......     ..      ",
"       .   ..........   .       ",
"          ..        ..          ",
"         ..          ..         ",
"        ..            ..        ",
"       ..              ..       ",
"       ..              ..       ",
"       .                .       ",
" ...  ..                ..  ... ",
" ...  ..                ..  ... ",
"      ..    ........    ..      ",
"      ..    ........    ..      ",
"       .    ..    ..    ..      ",
"       .     ..  ..     .       ",
"       ..    ..  ..    ..       ",
"       ..     .  .     ..       ",
"        ..    .  .    ..        ",
"         .    .  .    .         ",
"      .  ..   .  .   ..  .      ",
"     ..   .   .  .   .  #..#    ",
"    ..    ..  .  .  ..  ####    ",
"    .      .  .  .  . ########  ",
"           .  ....  . ###  ###  ",
"           ..........###    ### ",
"           ..........###    ### ",
"           .        . ###  ###  ",
"           .        . ########  ",
"           ..........   ####    ",
"           ..........   #  #    ",
"                                "};
