/* XPM */
static const char *xs_plstepnotlooped[] = {
/* width height num_colors chars_per_pixel */
"32 32 2 1 ",
"  c None",
". c #777777",
/* pixels */
"                                ",
"                                ",
"                                ",
"                                ",
"             .....              ",
"          ...........           ",
"         ..............   ..    ",
"       ................. ...    ",
"       .....        ........    ",
"      ....           .......    ",
"     ....             ......    ",
"     ...             .......    ",
"    ....            ........    ",
"    ...             ........    ",
"    ...                         ",
"   ....                         ",
"   ....                         ",
"   ....     ...  ...........    ",
"    ...     ...  ...........    ",
"    ....    ...  ...........    ",
"    ....                        ",
"     ...                        ",
"     ....             .         ",
"      ....           ...        ",
"      ......        .....       ",
"       .................        ",
"         ..............         ",
"          ...........           ",
"            .......             ",
"                                ",
"                                ",
"                                "
};
