/* XPM */
static const char *xs_volume_down[] = {
/* columns rows colors chars-per-pixel */
"32 32 2 1 ",
"  c None",
". c #6AC259",
/* pixels */
"                                ",
"                                ",
"                                ",
"                                ",
"                                ",
"                                ",
"             .                  ",
"            ..                  ",
"           ...                  ",
"          ....                  ",
"         .....                  ",
"         .....                  ",
"   ...........                  ",
"   ...........    ..            ",
"   ...........     ..           ",
"   ...........      .           ",
"   ...........      .           ",
"   ...........      .           ",
"   ...........     ..           ",
"   ...........    ..            ",
"   ...........                  ",
"         .....                  ",
"          ....                  ",
"          ....                  ",
"           ...                  ",
"            ..                  ",
"             .                  ",
"                                ",
"                                ",
"                                ",
"                                ",
"                                "
};
